<svg id="building" xmlns="http://www.w3.org/2000/svg" width="23.995" height="23.995" viewBox="0 0 23.995 23.995">
  <path id="Path_71996" data-name="Path 71996" d="M165,0h8.53V2.093H165Zm0,0" transform="translate(-157.267)" fill="#26a7df"/>
  <path id="Path_71997" data-name="Path 71997" d="M22.23,91.636A2.472,2.472,0,0,0,24,89.271a4.243,4.243,0,0,0-.617-2.036,2.259,2.259,0,0,0-1.851-1.284,2.259,2.259,0,0,0-1.851,1.284,4.245,4.245,0,0,0-.617,2.036,2.472,2.472,0,0,0,1.765,2.366v2.122H17.913V74.668H6.082v19.09H3.171V91.636a2.472,2.472,0,0,0,1.765-2.366,4.245,4.245,0,0,0-.617-2.036,2.259,2.259,0,0,0-1.851-1.284A2.259,2.259,0,0,0,.617,87.235,4.244,4.244,0,0,0,0,89.271a2.472,2.472,0,0,0,1.765,2.366v2.122H0v1.406H24V93.758H22.23ZM11.287,76.652h1.422v1.422H11.287Zm0,2.273h1.422v1.422H11.287Zm0,2.273h1.422v1.422H11.287Zm0,2.273h1.422v1.422H11.287Zm0,2.273h1.422v1.422H11.287ZM8.9,76.652h1.422v1.422H8.9Zm0,2.273h1.422v1.422H8.9Zm0,2.273h1.422v1.422H8.9Zm0,2.273h1.422v1.422H8.9Zm0,2.273h1.422v1.422H8.9Zm5.624,8.014H13.122V90.446h-2.25v3.312H9.467V89.04h5.062Zm.562-6.593H13.669V85.744h1.422Zm0-2.273H13.669V83.471h1.422Zm0-2.273H13.669V81.2h1.422Zm0-2.273H13.669V78.925h1.422Zm0-2.273H13.669V76.652h1.422Zm0,0" transform="translate(0 -71.169)" fill="#26a7df"/>
</svg>
