<svg xmlns="http://www.w3.org/2000/svg" width="8.257" height="16.346" viewBox="0 0 8.257 16.346"><defs><style>.a{fill:#022a82;}</style></defs><g transform="translate(-76.703)"><path class="a" d="M76.967,8.706h1.792v7.376a.264.264,0,0,0,.264.264H82.06a.264.264,0,0,0,.264-.264V8.74h2.06a.264.264,0,0,0,.262-.234l.313-2.716A.264.264,0,0,0,84.7,5.5H82.324V3.8c0-.513.276-.773.821-.773H84.7a.264.264,0,0,0,.264-.264V.266A.264.264,0,0,0,84.7,0H82.558l-.1,0a4.1,4.1,0,0,0-2.679,1.01,2.809,2.809,0,0,0-.934,2.5V5.5H76.967a.264.264,0,0,0-.264.264V8.442A.264.264,0,0,0,76.967,8.706Z"/></g></svg>