<svg xmlns="http://www.w3.org/2000/svg" width="24.571" height="24.777" viewBox="0 0 24.571 24.777"><defs><style>.a{fill:#fc644f;}.b{fill:#f1543f;}.c{fill:#ff7058;}.d{fill:#40596b;}</style></defs><g transform="translate(-2.133)"><path class="a" d="M141.662,132.887l5.833,7.9c-4.388,1.445-14.5,1.136-18.428-.878v-14.04c3.871,2.013,14.04,2.374,18.428.878l-5.833,6.143Z" transform="translate(-120.791 -119.776)"/><path class="b" d="M129.067,246.436l3.149-1.549-2.323-7.02-.826,1.187Z" transform="translate(-120.791 -226.356)"/><path class="c" d="M40.533,44.2V58.192a8.582,8.582,0,0,1,7.381,2.22V46.474A8.522,8.522,0,0,0,40.533,44.2Z" transform="translate(-36.542 -41.932)"/><path class="d" d="M3.578,0h0A1.433,1.433,0,0,0,2.133,1.394V24.777H4.972V1.394A1.388,1.388,0,0,0,3.578,0Z"/></g></svg>