<svg id="lock" xmlns="http://www.w3.org/2000/svg" width="12.001" height="16.001" viewBox="0 0 12.001 16.001">
  <path id="Path_2" data-name="Path 2" d="M10.5,201.987h-9a1.5,1.5,0,0,1-1.5-1.5V193.5A1.5,1.5,0,0,1,1.5,192h9a1.5,1.5,0,0,1,1.5,1.5v6.991A1.5,1.5,0,0,1,10.5,201.987ZM1.5,193a.5.5,0,0,0-.5.5v6.991a.5.5,0,0,0,.5.5h9a.5.5,0,0,0,.5-.5V193.5a.5.5,0,0,0-.5-.5Zm0,0" transform="translate(0 -185.985)" fill="#1373e9"/>
  <path id="Path_3" data-name="Path 3" d="M71.506,6.991a.5.5,0,0,1-.5-.5v-2.5a3,3,0,0,0-6,0v2.5a.5.5,0,0,1-1,0v-2.5a4,4,0,0,1,8.006,0v2.5A.5.5,0,0,1,71.506,6.991Zm0,0" transform="translate(-62.003)" fill="#1373e9"/>
</svg>