<svg xmlns="http://www.w3.org/2000/svg" width="13.345" height="13.345" viewBox="0 0 13.345 13.345"><defs><style>.a{fill:#fbbb00;}.b{fill:#518ef8;}.c{fill:#28b446;}.d{fill:#f14336;}</style></defs><path class="a" d="M2.958,142.729l-.465,1.734L.8,144.5a6.684,6.684,0,0,1-.049-6.231h0l1.512.277.662,1.5a3.982,3.982,0,0,0,.037,2.681Z" transform="translate(0 -134.664)"/><path class="b" d="M268.037,208.176a6.67,6.67,0,0,1-2.379,6.45h0l-1.9-.1-.269-1.682a3.977,3.977,0,0,0,1.711-2.031h-3.568v-2.64h6.409Z" transform="translate(-254.809 -202.75)"/><path class="c" d="M40.564,313.22h0a6.675,6.675,0,0,1-10.055-2.041l2.162-1.77a3.969,3.969,0,0,0,5.719,2.032Z" transform="translate(-29.714 -301.344)"/><path class="d" d="M38.81,1.536l-2.162,1.77A3.968,3.968,0,0,0,30.8,5.384L28.624,3.6h0A6.674,6.674,0,0,1,38.81,1.536Z" transform="translate(-27.878)"/></svg>