<svg xmlns="http://www.w3.org/2000/svg" xmlns:xlink="http://www.w3.org/1999/xlink" width="224.588" height="124.404" viewBox="0 0 224.588 124.404"><defs><style>.a,.aa,.ab,.ae,.af,.ag,.ah,.aj,.ak,.al,.am,.an,.d,.f,.g,.h,.o,.q,.r,.v,.x,.y,.z{fill:none;}.b,.j{fill:#f5f5f5;}.b{opacity:0.55;}.c{fill:#7ec682;}.d,.g,.h{stroke:#bceca4;}.ab,.af,.ah,.al,.an,.d,.f,.g,.h,.r,.v,.y{stroke-linecap:round;stroke-linejoin:round;}.d,.f{stroke-width:1.868px;}.e{fill:#bceca4;}.f{stroke:#7ec682;}.g{stroke-width:1.585px;}.h{stroke-width:1.611px;}.i{fill:#e0e0e0;}.k{fill:#fdfeff;}.l{fill:#3a75ad;}.m{clip-path:url(#a);}.n{fill:#d52941;}.ag,.aj,.o,.z{stroke:#a21428;}.aa,.ae,.ag,.aj,.ak,.am,.o,.q,.x,.z{stroke-miterlimit:10;}.o{stroke-width:1.295px;}.p{fill:#0d3453;}.ae,.af,.ak,.al,.q,.r,.x,.y{stroke:#dcbe2d;}.q,.r{stroke-width:1.102px;}.s{fill:#fff;}.t{fill:#faa990;}.u{fill:#33332a;}.ab,.ah,.an,.v{stroke:#dc715c;}.v{stroke-width:0.47px;}.w{clip-path:url(#b);}.x,.y{stroke-width:0.847px;}.z{stroke-width:0.865px;}.aa,.am{stroke:#33332a;}.aa{stroke-width:0.433px;}.ab{stroke-width:0.308px;}.ac{fill:#142b70;}.ad{clip-path:url(#c);}.ae,.af{stroke-width:1.37px;}.ag{stroke-width:1.428px;}.ah{stroke-width:0.498px;}.ai{clip-path:url(#d);}.aj{stroke-width:1.432px;}.ak,.al{stroke-width:1.403px;}.am{stroke-width:0.716px;}.an{stroke-width:0.51px;}</style><clipPath id="a"><rect class="a" width="43.907" height="43.907" rx="7.633"/></clipPath><clipPath id="b"><path class="a" d="M3.321,0H41.447a3.321,3.321,0,0,1,3.321,3.321V25.566a3.321,3.321,0,0,1-3.321,3.321H3.32A3.32,3.32,0,0,1,0,25.566V3.321A3.321,3.321,0,0,1,3.321,0Z"/></clipPath><clipPath id="c"><rect class="a" width="56.845" height="42.376" rx="5.507"/></clipPath><clipPath id="d"><rect class="a" width="51.672" height="38.519" rx="5.507" transform="translate(38.519 0) rotate(90)"/></clipPath></defs><g transform="translate(-24.793 -38.314)"><g transform="translate(29.634 38.314)"><path class="b" d="M62.592,88.3C58.561,90.037,54.4,91.7,50.766,93.688c-9.025,4.938-13.992,11.932-14.141,18.929s4.37,13.945,12.007,19.571c8.123,5.983,19.677,10.585,25.885,17.218,7.127,7.615,9.128,16.414,17.753,23.489,9.736,7.987,61.064,16.186,90.8-3.5,33.752-22.348,84.511-1.526,71.087-35.539-2.691-6.816-6.4-11.169-17.931-14.195-9.582-2.515-20.194-3.978-28.772-7.415C193.15,106.51,187.3,96.558,181.371,87.414s-14.148-18.946-30.332-22.9c-6.555-1.6-13.839-2.063-21-2.189a131.409,131.409,0,0,0-27.146,1.895c-8.637,1.688-16.569,4.8-21.064,9.174C81.825,73.395,67.389,86.222,62.592,88.3Z" transform="translate(-36.621 -62.291)"/></g><g transform="translate(24.793 56.363)"><g transform="translate(0 0)"><g transform="translate(10.634)"><path class="c" d="M93.259,72.233a10.789,10.789,0,0,0,.8-4.874c-.071-2.536-2.047-4.966-1.3-7.392.6-1.957,2.819-3.175,3.147-5.195.308-1.9-1.19-3.635-1.341-5.552-.153-1.939,1.074-3.978.268-5.748a1.212,1.212,0,0,0-1.586-.714c-1.974.474-2.694,2.873-4.158,4.279-2.072,1.99-5.752,2.044-7.166,4.544-.934,1.65-.463,3.714.124,5.516s1.272,3.738.7,5.544c-.588,1.843-2.348,3.066-3.215,4.8a6.409,6.409,0,0,0,.812,6.594,9.055,9.055,0,0,0,6,3.262S90.4,78.067,93.259,72.233Z" transform="translate(-78.948 -42.702)"/><path class="d" d="M108.158,51.924c-3.172,6.272-8.573,23.112-7.78,35.656" transform="translate(-94.09 -49.242)"/></g><g transform="translate(0 9.195)"><path class="e" d="M65,96.254a10.783,10.783,0,0,0-2.8-4.068c-1.81-1.778-4.918-2.159-6.065-4.422-.925-1.825-.17-4.243-1.335-5.925-1.094-1.581-3.378-1.794-4.817-3.071-1.455-1.291-1.985-3.611-3.793-4.327a1.213,1.213,0,0,0-1.638.586c-1.093,1.71.051,3.938-.029,5.966-.113,2.87-2.727,5.461-2.012,8.243.471,1.836,2.241,3,3.914,3.888s3.508,1.811,4.346,3.511c.854,1.736.435,3.837,1.009,5.684a6.409,6.409,0,0,0,5.158,4.189,9.056,9.056,0,0,0,6.582-1.808S66.987,102.437,65,96.254Z" transform="translate(-42.384 -74.318)"/><path class="f" d="M55.522,83.8c2.064,6.719,9.849,22.6,19.12,31.085" transform="translate(-51.701 -81.045)"/></g><g transform="translate(71.858 78.502)"><path class="c" d="M51.786,392.438a9.145,9.145,0,0,0-4.19-.008c-2.114.4-3.88,2.39-6.012,2.1-1.72-.236-3.042-1.928-4.779-1.928-1.632,0-2.881,1.492-4.466,1.879-1.6.392-3.478-.358-4.85.559a1.028,1.028,0,0,0-.382,1.426c.666,1.588,2.772,1.864,4.149,2.9,1.948,1.464,2.495,4.538,4.781,5.382,1.508.557,3.173-.118,4.6-.855s2.956-1.574,4.547-1.338c1.623.241,2.887,1.548,4.453,2.039a5.438,5.438,0,0,0,5.412-1.578,7.683,7.683,0,0,0,1.914-5.465S57.06,394.034,51.786,392.438Z" transform="translate(-26.981 -392.189)"/><path class="g" d="M35.082,406.317c5.684,1.8,20.52,4.031,30.916,1.659" transform="translate(-32.726 -402.208)"/></g><g transform="translate(69.316 83.491)"><path class="e" d="M66.376,390.644a10.785,10.785,0,0,0-4.153,2.674c-1.834,1.753-2.311,4.849-4.609,5.924-1.853.868-4.246.038-5.964,1.149-1.615,1.045-1.9,3.321-3.219,4.719-1.336,1.414-3.671,1.871-4.444,3.657a1.212,1.212,0,0,0,.535,1.655c1.675,1.146,3.937.072,5.962.215,2.865.2,5.374,2.9,8.176,2.269,1.85-.414,3.065-2.147,4.009-3.791s1.919-3.45,3.645-4.234c1.761-.8,3.849-.315,5.713-.831a6.408,6.408,0,0,0,4.347-5.025,9.056,9.056,0,0,0-1.6-6.635S72.618,388.849,66.376,390.644Z" transform="translate(-43.847 -390.136)"/><path class="f" d="M53.391,410.18c6.78-1.854,22.894-9.141,31.667-18.142" transform="translate(-50.615 -391.485)"/></g><g transform="translate(187.579 26.241)"><path class="c" d="M403.143,276.918a9.3,9.3,0,0,0,2.57-3.4c.965-1.964.433-4.612,1.975-6.165,1.244-1.252,3.427-1.29,4.489-2.7,1-1.325.552-3.252,1.207-4.776.663-1.541,2.418-2.6,2.514-4.279a1.045,1.045,0,0,0-.924-1.182c-1.7-.431-3.21,1.11-4.892,1.595-2.38.686-5.211-.751-7.295.588-1.375.884-1.845,2.648-2.121,4.259s-.531,3.364-1.7,4.511c-1.189,1.17-3.023,1.4-4.38,2.368a5.528,5.528,0,0,0-2.03,5.359,7.809,7.809,0,0,0,3.266,4.9S398.621,280.224,403.143,276.918Z" transform="translate(-392.48 -254.344)"/><path class="h" d="M416.191,261.177c-4.941,3.513-15.829,14.193-20.263,24.085" transform="translate(-394.925 -259.19)"/></g><g transform="translate(187.915 0)"><path class="e" d="M407.833,192.995a10.783,10.783,0,0,0,1.019-4.833c.042-2.537-1.823-5.053-.972-7.443.686-1.928,2.959-3.046,3.376-5.049.393-1.883-1.026-3.684-1.091-5.607-.066-1.944,1.251-3.926.524-5.731a1.212,1.212,0,0,0-1.553-.784c-1.993.385-2.819,2.749-4.345,4.088-2.158,1.9-5.837,1.785-7.362,4.219-1.007,1.607-.629,3.689-.123,5.516s1.1,3.791.448,5.57c-.67,1.815-2.482,2.958-3.426,4.646a6.408,6.408,0,0,0,.516,6.624,9.055,9.055,0,0,0,5.844,3.527S404.721,198.7,407.833,192.995Z" transform="translate(-393.632 -163.511)"/><path class="f" d="M422.9,172.624c-3.449,6.124-9.6,22.705-9.367,35.272" transform="translate(-407.741 -169.974)"/></g></g><g transform="translate(10.553 27.482)"><rect class="i" width="47.539" height="47.539" rx="4"/><rect class="j" width="43.907" height="43.907" rx="4" transform="translate(1.816 1.816)"/><path class="k" d="M94.517,105.845v-1.777a2.074,2.074,0,0,1,2.074-2.074h39.76a2.074,2.074,0,0,1,2.074,2.074v1.777Z" transform="translate(-92.701 -100.179)"/><g transform="translate(3.707 3.147)"><circle class="l" cx="0.595" cy="0.595" r="0.595" transform="translate(4.062)"/><circle class="l" cx="0.595" cy="0.595" r="0.595" transform="translate(2.081)"/><circle class="l" cx="0.595" cy="0.595" r="0.595"/></g><g transform="translate(1.816 1.816)"><g class="m"><g transform="translate(7.639 5.479)"><path d="M159.447,142.039a5.663,5.663,0,0,1,1.207,3.108c.173,1.112.222,2.245.494,3.337a8.4,8.4,0,0,0,1.606,3.23c.463.574,1,1.088,1.425,1.693a3.034,3.034,0,0,1,.632,2.069,2.689,2.689,0,0,1-1.106,1.74,6.2,6.2,0,0,1-1.911.888,9.232,9.232,0,0,1-5.114.341,8.65,8.65,0,0,1-5.457-4.79,12.136,12.136,0,0,1-.445-1.771,24.55,24.55,0,0,1-.494-3.24,12.321,12.321,0,0,1,1.238-6.174,5.431,5.431,0,0,1,5.478-2A4.794,4.794,0,0,1,159.447,142.039Z" transform="translate(-141.688 -134.678)"/><g transform="translate(0 20.801)"><path class="n" d="M134.464,192.421l-3.073-.018a5.712,5.712,0,0,0-1.981.189,5.231,5.231,0,0,0-2.092,1.6,14.355,14.355,0,0,0-1.413,2.128c-2.39,4.108-4.054,12.611-5.121,18l27.8-.04c-1.067-5.394-2.731-13.9-5.121-18a14.361,14.361,0,0,0-1.413-2.128,5.227,5.227,0,0,0-2.092-1.6,5.718,5.718,0,0,0-1.981-.189l-3.073.018" transform="translate(-120.785 -192.358)"/></g><path class="o" d="M189.541,228.273c.554,3.058,1.645,8.517,2.2,11.575" transform="translate(-169.545 -197.027)"/><path class="p" d="M141.57,127.343l6.218,3.27a1.073,1.073,0,0,0,1.109-.067l6.715-4.64a1.072,1.072,0,0,0-.145-1.849l-6.5-3.119a1.073,1.073,0,0,0-1.078.087l-6.437,4.488A1.072,1.072,0,0,0,141.57,127.343Z" transform="translate(-135.119 -120.833)"/><path class="q" d="M145.564,137.24c-.2.027-.313.25-.375.446a9.933,9.933,0,0,0-.26,3.627" transform="translate(-137.873 -132.468)"/><path class="r" d="M144.533,153.458a6.245,6.245,0,0,0-.032-1.7c-.045-.287-.213-.506-.389-.16a1.728,1.728,0,0,0-.138.847,4.639,4.639,0,0,0,.2,1.171" transform="translate(-137.228 -142.522)"/><path class="r" d="M144.98,151.7c.029.512.036,1.271.055,1.784" transform="translate(-137.943 -142.725)"/><path class="p" d="M151.909,128.935l-3.011,2.081a1.072,1.072,0,0,1-1.109.067l-6.218-3.27a1.072,1.072,0,0,1-.114-1.829l6.437-4.488a4.441,4.441,0,0,0,.1,2.447,8.066,8.066,0,0,0,3.9,4.913" transform="translate(-135.119 -121.302)"/><path class="s" d="M163.208,192.36s.395,3.53-3.021,3.91c-4.709.523-4.386-3.869-4.386-3.869Z" transform="translate(-145.614 -171.558)"/><path class="t" d="M164.208,181.109l.506,3.215a4.08,4.08,0,0,1-2.664.918,3.691,3.691,0,0,1-2.547-.911l.589-3.363Z" transform="translate(-148.243 -163.48)"/><path class="o" d="M142.245,228.409c-.554,3.058-1.645,8.517-2.2,11.575" transform="translate(-134.445 -197.123)"/><path class="t" d="M162.072,153.175s-.234,5.16-4.578,5.059-4.344-5.36-4.344-5.36-.4-5.609,3.725-6.122C161.43,146.186,162.174,149.7,162.072,153.175Z" transform="translate(-143.73 -139.172)"/><path class="u" d="M165.511,184.78a5.137,5.137,0,0,1-4.218.032A2.64,2.64,0,0,0,165.511,184.78Z" transform="translate(-149.512 -166.183)"/><path d="M161.564,146.531a1.532,1.532,0,0,1-1.18-.227,11.655,11.655,0,0,1-3.81-2.7,17.939,17.939,0,0,0,.518,2.075,1.807,1.807,0,0,1-1.223-.362,14.117,14.117,0,0,1-1.451-1.011c-.346,1.037-1.773,1.456-2.01,2.523-.023.1-.07.242-.176.231-.08-.008-.119-.1-.139-.177a6.686,6.686,0,0,1,.772-4.676c1.078-1.478,5.913-3.465,8.111.418.528.932.544,3.7.589,3.911" transform="translate(-142.891 -134.681)"/><g transform="translate(7.936 11.35)"><path class="t" d="M149.711,162.052a.663.663,0,0,1-.723.21,1.07,1.07,0,0,1-.473-.4,1.861,1.861,0,0,1-.4-1.545.67.67,0,0,1,.2-.351.607.607,0,0,1,.645-.034,3.921,3.921,0,0,1,.749.708Z" transform="translate(-148.073 -159.859)"/><g transform="translate(0.527 0.564)"><path class="v" d="M149.885,161.8a1.788,1.788,0,0,1,1,1.039" transform="translate(-149.885 -161.797)"/><path class="v" d="M151.565,163.522a1.187,1.187,0,0,0-.237.936" transform="translate(-150.896 -163.02)"/></g></g><g transform="translate(18.255 11.214)"><path class="t" d="M183.58,161.586a.664.664,0,0,0,.723.21,1.072,1.072,0,0,0,.473-.4,1.862,1.862,0,0,0,.4-1.545.67.67,0,0,0-.2-.351.608.608,0,0,0-.645-.035,3.405,3.405,0,0,0-.774.743Z" transform="translate(-183.554 -159.393)"/><g transform="translate(0.136 0.564)"><path class="v" d="M185.023,161.331a1.788,1.788,0,0,0-1,1.039" transform="translate(-184.022 -161.331)"/><path class="v" d="M185.162,163.055a1.187,1.187,0,0,1,.237.936" transform="translate(-184.83 -162.554)"/></g></g><path class="p" d="M160.54,135.641l.425,3.693a9.284,9.284,0,0,0-4.941-.42,11.456,11.456,0,0,0-4.29,1.257l-.306-3.68A10.448,10.448,0,0,1,160.54,135.641Z" transform="translate(-142.517 -130.881)"/></g></g></g></g><g transform="translate(66.489 0.235)"><rect class="i" width="47.413" height="31.24" rx="2"/><path class="j" d="M3.321,0H41.447a3.321,3.321,0,0,1,3.321,3.321V25.566a3.321,3.321,0,0,1-3.321,3.321H3.32A3.32,3.32,0,0,1,0,25.566V3.321A3.321,3.321,0,0,1,3.321,0Z" transform="translate(1.323 1.177)"/><path class="s" d="M276.061,89.7V88.437a.9.9,0,0,1,.9-.9h42.964a.9.9,0,0,1,.9.9V89.7Z" transform="translate(-274.738 -86.358)"/><g transform="translate(2.864 1.996)"><path class="l" d="M288.054,90.614a.262.262,0,1,1-.262-.263A.262.262,0,0,1,288.054,90.614Z" transform="translate(-285.735 -90.351)"/><path class="l" d="M285.045,90.614a.262.262,0,1,1-.262-.263A.262.262,0,0,1,285.045,90.614Z" transform="translate(-283.602 -90.351)"/><path class="l" d="M281.887,90.614a.262.262,0,1,1-.263-.263A.262.262,0,0,1,281.887,90.614Z" transform="translate(-281.362 -90.351)"/></g><g transform="translate(1.323 1.177)"><g class="w"><g transform="translate(13.154 3.264)"><path class="x" d="M335.466,111.377c-.157.021-.241.192-.289.343a7.644,7.644,0,0,0-.2,2.79" transform="translate(-330.97 -107.707)"/><path class="y" d="M334.673,123.85a4.805,4.805,0,0,0-.024-1.311c-.035-.221-.164-.389-.3-.123a1.324,1.324,0,0,0-.106.651,3.573,3.573,0,0,0,.152.9" transform="translate(-330.475 -115.439)"/><path class="y" d="M335.017,122.5c.022.394.028.977.042,1.372" transform="translate(-331.025 -115.595)"/><path class="p" d="M332.394,103.765l4.783,2.515a.825.825,0,0,0,.853-.051l5.164-3.568a.825.825,0,0,0-.112-1.422l-5-2.4a.824.824,0,0,0-.829.067l-4.951,3.452A.825.825,0,0,0,332.394,103.765Z" transform="translate(-328.853 -98.758)"/><path class="p" d="M340.346,104.99l-2.316,1.6a.825.825,0,0,1-.853.051l-4.783-2.515a.825.825,0,0,1-.088-1.407l4.951-3.452a3.412,3.412,0,0,0,.078,1.882,6.2,6.2,0,0,0,3,3.778" transform="translate(-328.853 -99.12)"/><path class="t" d="M383.586,141.319a2.949,2.949,0,0,1-.763-1.175.294.294,0,0,1-.012-.226.221.221,0,0,1,.3-.06,1.009,1.009,0,0,1,.243.23.377.377,0,0,0,.29.148c.207-.511-.3-1.122-.061-1.62.036-.075.1-.15.186-.141.1.011.144.133.164.233q.083.413.167.826a1.824,1.824,0,0,1,.152-.876c.022-.051.056-.106.111-.112.08-.008.124.091.137.17a2.656,2.656,0,0,1-.009.947,1.135,1.135,0,0,1,.474-.77.183.183,0,0,1,.163-.015c.067.035.077.127.073.2a1.532,1.532,0,0,1-.335.871,1.364,1.364,0,0,1,.708-.535.215.215,0,0,1,.1-.014c.135.025.116.225.061.351l-.425.979a1.688,1.688,0,0,1-.421.662Z" transform="translate(-364.906 -126.924)"/><g transform="translate(0 14.005)"><path class="n" d="M321.291,161.958c.713-3.6,1.825-9.285,3.422-12.031a9.626,9.626,0,0,1,.944-1.422,3.494,3.494,0,0,1,1.4-1.071,4.492,4.492,0,0,1,1.321-.137l4.368.037a3.463,3.463,0,0,1,2.672.879,7.082,7.082,0,0,1,1.68,2.338,15.156,15.156,0,0,1,.625,1.471l.632,1.627c.138.34.545-.209.679-5.361.009-.34.025-.469.01-1.374a23.913,23.913,0,0,0,3.223.377c.113,3.427.06,7.44-1.547,10.117-.222.37-2.562,3.441-5.152-1.034,0,0,1.124,4.7,1.2,5.642Z" transform="translate(-321.291 -146.915)"/></g><path class="s" d="M349.65,148.28s.248,2.953-2.034,3.275c-3.147.444-2.932-3.275-2.932-3.275Z" transform="translate(-337.878 -133.878)"/><path class="t" d="M350.236,140.649l.365,2.318a2.464,2.464,0,0,1-1.834,1.145,2.145,2.145,0,0,1-1.7-1.145l.422-2.412Z" transform="translate(-339.568 -128.4)"/><path class="z" d="M335.631,172.254c-.37,2.044-1.1,5.691-1.469,7.734" transform="translate(-330.419 -150.88)"/><path class="s" d="M354.885,145.805l-1.655,1.637.828.954,1.655-1.871Z" transform="translate(-343.941 -132.123)"/><path class="aa" d="M353.23,149.2l.828.954,1.655-1.871" transform="translate(-343.941 -133.878)"/><path class="s" d="M345.519,145.805l1.655,1.637-.828.954-1.655-1.871Z" transform="translate(-337.886 -132.123)"/><path class="u" d="M352.2,152.2l-.43.571h-.526l-.4-.536.695-.8Z" transform="translate(-342.247 -136.116)"/><path class="u" d="M351.483,157.053l.217-1.02h.526l.207,1.022a1.143,1.143,0,0,1-.475.043A1.58,1.58,0,0,1,351.483,157.053Z" transform="translate(-342.702 -139.376)"/><path class="t" d="M348.609,122.424s-.164,3.376-3.212,3.311-3.049-3.508-3.049-3.508-.278-3.67,2.614-4.006C348.159,117.85,348.682,120.146,348.609,122.424Z" transform="translate(-336.219 -112.533)"/><path d="M347.549,117.2c-.159.243-.861-1.093-.879-1.353a1.908,1.908,0,0,1-1.89-.985,1.263,1.263,0,0,1-.614.527,3.011,3.011,0,0,1-1.9.225,2.527,2.527,0,0,1-1.129,1.61.19.19,0,0,1-.307-.1,2.262,2.262,0,0,1-.14-1.555,3.817,3.817,0,0,1,.725-1.407,2.487,2.487,0,0,1,.823-.735,1.588,1.588,0,0,1,1.053-.124,1.7,1.7,0,0,1,.745-.538,1.94,1.94,0,0,1,1.225-.153,1.014,1.014,0,0,1,.783.874c.231-.2.241-.138.541-.092,1.257.195,1.3,2.611,1.314,2.934a1.6,1.6,0,0,1-.039.513.539.539,0,0,1-.33.371" transform="translate(-334.994 -108.547)"/><g transform="translate(5.13 8.154)"><path class="t" d="M340,128.232a.435.435,0,0,1-.473.138.7.7,0,0,1-.309-.26,1.217,1.217,0,0,1-.26-1.011.438.438,0,0,1,.131-.229.4.4,0,0,1,.422-.023,2.578,2.578,0,0,1,.49.464Z" transform="translate(-338.931 -126.797)"/><g transform="translate(0.345 0.369)"><path class="ab" d="M340.117,128.066a1.17,1.17,0,0,1,.655.68" transform="translate(-340.117 -128.066)"/><path class="ab" d="M341.216,129.194a.777.777,0,0,0-.155.612" transform="translate(-340.778 -128.866)"/></g></g><g transform="translate(12.31 8.054)"><path class="t" d="M363.62,127.886a.434.434,0,0,0,.473.138.7.7,0,0,0,.31-.26,1.218,1.218,0,0,0,.26-1.011.438.438,0,0,0-.131-.23.4.4,0,0,0-.422-.023,2.579,2.579,0,0,0-.49.464Z" transform="translate(-363.62 -126.451)"/><g transform="translate(0.072 0.369)"><path class="ab" d="M364.522,127.72a1.171,1.171,0,0,0-.655.68" transform="translate(-363.867 -127.72)"/><path class="ab" d="M364.614,128.848a.777.777,0,0,1,.155.612" transform="translate(-364.397 -128.52)"/></g></g><path class="u" d="M351.177,143.1a3.431,3.431,0,0,1-2.818.022A1.764,1.764,0,0,0,351.177,143.1Z" transform="translate(-340.487 -130.205)"/><path class="aa" d="M347.175,149.2l-.828.954-1.655-1.871" transform="translate(-337.886 -133.878)"/><path class="ac" d="M321.291,198.642" transform="translate(-321.291 -169.594)"/><path class="p" d="M346.984,110.148l.327,2.84a7.141,7.141,0,0,0-3.8-.323,8.813,8.813,0,0,0-3.3.966l-.235-2.83A8.035,8.035,0,0,1,346.984,110.148Z" transform="translate(-334.543 -106.487)"/></g></g></g></g><g transform="translate(141.451 13.504)"><rect class="i" width="60.06" height="45.85" rx="2"/><rect class="j" width="56.845" height="42.376" rx="4" transform="translate(1.508 1.552)"/><path class="s" d="M63.391,282.474v-2.286a1.5,1.5,0,0,1,1.5-1.5H118.74a1.5,1.5,0,0,1,1.5,1.5v2.286Z" transform="translate(-61.883 -277.14)"/><g transform="translate(3.493 2.849)"><path class="l" d="M85.373,283.745a.594.594,0,1,1-.594-.594A.594.594,0,0,1,85.373,283.745Z" transform="translate(-80.122 -283.151)"/><circle class="l" cx="0.595" cy="0.595" r="0.595" transform="translate(2.081)"/><circle class="l" cx="0.595" cy="0.595" r="0.595"/></g><g transform="translate(1.508 1.552)"><g class="ad"><g transform="translate(4.282 4.425)"><path d="M136.86,322.577a6.066,6.066,0,0,1-1.636,3.733c-.53.44-1.195.685-1.757,1.084a3.327,3.327,0,0,0-1.318,1.846,2.6,2.6,0,0,0,.409,2.2,5.774,5.774,0,0,1,.77.968,4.788,4.788,0,0,1,.131,1.789c.084,1.525,1.389,2.7,2.739,3.416a5.151,5.151,0,0,0,3.948.628c.758-.253,1.494-.792,2.275-.623a3.736,3.736,0,0,1,.844.369,4.628,4.628,0,0,0,6.584-5.119,13.982,13.982,0,0,1-.4-1.67,9.175,9.175,0,0,1,.222-2.037,7.2,7.2,0,0,0-1.408-5.293,5.959,5.959,0,0,1-.4-.549s-.7-3.732-5.491-3.907S136.86,322.577,136.86,322.577Z" transform="translate(-116.374 -311.989)"/><path class="t" d="M82.288,334.1a4.34,4.34,0,0,0,.346-2.07.44.44,0,0,0-.121-.319.341.341,0,0,0-.451.095,1.484,1.484,0,0,0-.2.462.562.562,0,0,1-.314.376c-.6-.58-.272-1.721-.909-2.265a.323.323,0,0,0-.347-.083c-.135.076-.12.268-.087.418l.273,1.235a2.749,2.749,0,0,0-.751-1.114.253.253,0,0,0-.224-.088c-.118.036-.117.2-.088.316a3.972,3.972,0,0,0,.594,1.3,1.743,1.743,0,0,0-1.136-.775.282.282,0,0,0-.237.076c-.072.089-.03.22.022.322a2.332,2.332,0,0,0,1,1,2.122,2.122,0,0,0-1.319-.313.329.329,0,0,0-.151.042c-.174.115-.024.379.13.52l1.2,1.093a2.6,2.6,0,0,0,1,.659Z" transform="translate(-78.114 -319.694)"/><path class="ae" d="M193.623,314.319c.254.034.389.311.467.554a12.359,12.359,0,0,1,.323,4.512" transform="translate(-160.03 -308.383)"/><path class="af" d="M195.144,334.493a7.789,7.789,0,0,1,.039-2.121c.056-.357.266-.629.484-.2a2.148,2.148,0,0,1,.172,1.054,5.775,5.775,0,0,1-.246,1.457" transform="translate(-161.07 -320.889)"/><path class="af" d="M196.256,332.31c-.035.637-.045,1.581-.068,2.219" transform="translate(-161.849 -321.142)"/><path class="p" d="M154.927,302.007l-7.736,4.068a1.333,1.333,0,0,1-1.379-.083l-8.353-5.772a1.334,1.334,0,0,1,.181-2.3l8.08-3.88a1.334,1.334,0,0,1,1.34.108l8.008,5.583A1.334,1.334,0,0,1,154.927,302.007Z" transform="translate(-119.792 -293.909)"/><path class="p" d="M154.7,303.988l3.746,2.589a1.333,1.333,0,0,0,1.379.083l7.736-4.068a1.334,1.334,0,0,0,.142-2.275l-8.008-5.583a5.523,5.523,0,0,1-.127,3.044,10.032,10.032,0,0,1-4.852,6.112" transform="translate(-132.429 -294.493)"/><g transform="translate(1.723 12.699)"><path class="n" d="M87.41,337.574a23.517,23.517,0,0,0,6.2,7.074c2.74,2.077,6.079,4.056,9.462,3.44a7.537,7.537,0,0,1,1-.084c.314-.007.683.015,1.095.011,2.579-.025,6.645-.023,6.645-.023a6.272,6.272,0,0,1,2.181.226,5.772,5.772,0,0,1,2.308,1.769,15.885,15.885,0,0,1,1.559,2.348c2.637,4.533,4.473,13.915,5.65,19.866l-25.559.1c.133-1.548,2.552-14.732,2.552-14.732s-10.277-3.26-16.456-16.794Z" transform="translate(-84.038 -337.574)"/></g><path class="s" d="M152.863,373.389s-.41,3.964,3.358,4.4c5.2.6,4.847-4.415,4.847-4.415Z" transform="translate(-131.115 -350.261)"/><path class="t" d="M158.045,361.813l-.6,3.273a3.871,3.871,0,0,0,2.69.954,4.468,4.468,0,0,0,2.809-.963l-.6-3.412Z" transform="translate(-134.377 -341.961)"/><path class="ag" d="M188.6,407.61c.611,3.374,2.263,10.983,2.874,14.358" transform="translate(-156.466 -374.543)"/><path class="t" d="M149.654,331.645s.5,6.067,5.216,5.73c4.572-.326,4.922-5.529,4.922-5.529s.45-5.937-4.229-6.48C150.393,324.767,149.538,327.961,149.654,331.645Z" transform="translate(-128.842 -316.167)"/><path class="ac" d="M219.657,457.149" transform="translate(-178.493 -409.675)"/><path d="M147.753,323.588a3.86,3.86,0,0,1,1-1.716,4.832,4.832,0,0,1,2.632-1.42,10.284,10.284,0,0,1,3.029-.088,4.357,4.357,0,0,1,3.079,1.31,6.007,6.007,0,0,1,1.155,1.242,3.476,3.476,0,0,1-.027,3.712.356.356,0,0,1-.155.15c-.1.039-.168-.079-.262-.137a8.85,8.85,0,0,1-2.229-1.831,2.912,2.912,0,0,1-.843-2.286c-.806,1.455-2.623,2.333-4.128,3.042a9.967,9.967,0,0,1-3.036.948S147.242,326.075,147.753,323.588Z" transform="translate(-127.371 -312.621)"/><g transform="translate(30.832 13.189)"><path class="t" d="M184.13,341.582a.7.7,0,0,0,.765.222,1.133,1.133,0,0,0,.5-.42,1.971,1.971,0,0,0,.42-1.636.71.71,0,0,0-.211-.371.644.644,0,0,0-.683-.037,4.162,4.162,0,0,0-.792.75Z" transform="translate(-184.13 -339.261)"/><g transform="translate(0.116 0.597)"><path class="ah" d="M185.59,341.312a1.9,1.9,0,0,0-1.06,1.1" transform="translate(-184.53 -341.312)"/><path class="ah" d="M185.737,343.138a1.254,1.254,0,0,1,.251.99" transform="translate(-185.386 -342.607)"/></g></g><g transform="translate(19.218 13.027)"><path class="t" d="M145.93,341.023a.7.7,0,0,1-.766.222,1.133,1.133,0,0,1-.5-.42,1.971,1.971,0,0,1-.42-1.636.71.71,0,0,1,.211-.371.643.643,0,0,1,.683-.037,4.169,4.169,0,0,1,.792.75Z" transform="translate(-144.196 -338.701)"/><g transform="translate(0.558 0.597)"><path class="ah" d="M146.114,340.753a1.894,1.894,0,0,1,1.059,1.1" transform="translate(-146.114 -340.753)"/><path class="ah" d="M147.892,342.578a1.257,1.257,0,0,0-.251.991" transform="translate(-147.184 -342.047)"/></g></g><path class="p" d="M149.218,312.015l-.531,4.694s2-1.084,5.833-.519a15.392,15.392,0,0,1,5.391,1.534l.325-4.548S155.931,309.738,149.218,312.015Z" transform="translate(-128.163 -306.196)"/><path class="u" d="M159.025,364.812a4.07,4.07,0,0,0,4.6-.054A2.859,2.859,0,0,1,159.025,364.812Z" transform="translate(-135.494 -344.153)"/></g></g></g></g><g transform="translate(87.923 41.716)"><path class="i" d="M280.795,259.528V208.914a1.99,1.99,0,0,1,1.99-1.99h37.7a1.99,1.99,0,0,1,1.99,1.99v50.615a1.99,1.99,0,0,1-1.99,1.99h-37.7A1.99,1.99,0,0,1,280.795,259.528Z" transform="translate(-280.795 -206.924)"/><rect class="j" width="51.672" height="38.519" rx="3" transform="translate(40.267 1.371) rotate(90)"/><path class="s" d="M286.8,214.655V213.3a1.659,1.659,0,0,1,1.659-1.659h35.2a1.659,1.659,0,0,1,1.659,1.659v1.358Z" transform="translate(-285.056 -210.267)"/><g transform="translate(1.748 1.371)"><g class="ai" transform="translate(0 0)"><g transform="translate(4.21 5.235)"><g transform="translate(0 23.334)"><path class="n" d="M316.413,309.941l-3.4-.02a6.315,6.315,0,0,0-2.191.208,5.787,5.787,0,0,0-2.314,1.774,15.87,15.87,0,0,0-1.563,2.354c-2.644,4.545-4.485,13.951-5.666,19.918l30.749-.044c-1.18-5.967-3.022-15.373-5.665-19.918a15.894,15.894,0,0,0-1.563-2.354,5.786,5.786,0,0,0-2.314-1.773,6.324,6.324,0,0,0-2.191-.209l-3.4.02" transform="translate(-301.28 -309.871)"/></g><path class="s" d="M348.082,309.817s.41,4.888-3.368,5.422c-5.21.735-4.855-5.422-4.855-5.422Z" transform="translate(-328.636 -286.499)"/><path class="aj" d="M377.342,349.6c.613,3.383,1.819,9.422,2.432,12.8" transform="translate(-355.221 -314.713)"/><path class="t" d="M349.316,297.427l.56,3.557a3.953,3.953,0,0,1-2.964,1.505,3.515,3.515,0,0,1-2.8-1.5l.651-3.72Z" transform="translate(-331.655 -277.602)"/><path class="aj" d="M325.021,349.753c-.612,3.383-1.819,9.422-2.432,12.8" transform="translate(-316.392 -314.82)"/><path class="u" d="M350.759,301.488a5.684,5.684,0,0,1-4.666.035S348.4,304.236,350.759,301.488Z" transform="translate(-333.06 -280.592)"/><path class="ak" d="M325.037,249.1c-.26.034-.4.318-.478.567a12.655,12.655,0,0,0-.331,4.618" transform="translate(-317.511 -243.437)"/><path class="al" d="M323.725,269.746a7.959,7.959,0,0,0-.04-2.171c-.057-.366-.272-.644-.495-.2a2.2,2.2,0,0,0-.176,1.079,5.909,5.909,0,0,0,.252,1.491" transform="translate(-316.69 -256.237)"/><path class="al" d="M324.294,267.511c.037.652.046,1.618.07,2.271" transform="translate(-317.601 -256.496)"/><path class="p" d="M319.953,237.926l7.918,4.164a1.365,1.365,0,0,0,1.412-.085l8.55-5.908a1.365,1.365,0,0,0-.185-2.354l-8.27-3.971a1.365,1.365,0,0,0-1.372.111l-8.2,5.715A1.366,1.366,0,0,0,319.953,237.926Z" transform="translate(-314.005 -229.637)"/><path class="p" d="M333.117,239.954l-3.835,2.65a1.365,1.365,0,0,1-1.412.085l-7.918-4.164a1.366,1.366,0,0,1-.145-2.329l8.2-5.715a5.653,5.653,0,0,0,.13,3.116,10.268,10.268,0,0,0,4.966,6.256" transform="translate(-314.005 -230.236)"/><path class="t" d="M347.267,267.348s-.139,5.624-5.186,5.516-4.772-5.834-4.772-5.834-.736-6.049,4.053-6.6C346.654,259.81,347.386,263.578,347.267,267.348Z" transform="translate(-326.802 -251.424)"/><path class="s" d="M356.749,305.719l-2.741,2.711,1.37,1.579,2.741-3.1Z" transform="translate(-338.674 -283.593)"/><path class="am" d="M354.008,311.336l1.37,1.579,2.741-3.1" transform="translate(-338.674 -286.499)"/><path class="s" d="M341.242,305.719l2.741,2.711-1.37,1.579-2.741-3.1Z" transform="translate(-328.648 -283.593)"/><path class="u" d="M352.3,316.31l-.712.945h-.871l-.668-.888,1.15-1.325Z" transform="translate(-335.869 -290.204)"/><path class="u" d="M351.115,324.341l.36-1.689h.871l.343,1.692a1.887,1.887,0,0,1-.787.071A2.606,2.606,0,0,1,351.115,324.341Z" transform="translate(-336.622 -295.601)"/><path class="am" d="M343.983,311.336l-1.37,1.579-2.741-3.1" transform="translate(-328.648 -286.499)"/><path d="M346.139,261.242c-.283.182-.656,0-.925-.2a5.557,5.557,0,0,1-2.068-3.155c0,.512.211,1.05,0,1.516a1.238,1.238,0,0,1-1.04.652,2.422,2.422,0,0,1-1.532-.458,7.205,7.205,0,0,1-1.2-1.1l-.788-.843a.933.933,0,0,1,.149.544,2.935,2.935,0,0,1-.027.817.989.989,0,0,1-.445.66.978.978,0,0,1-.845.006,2.637,2.637,0,0,1-.713-.5,3.271,3.271,0,0,1-.531,1.93c-.093.18-.276.393-.456.3-.1-.052-.129-.176-.157-.285-1.648-6.334,5.34-6.529,7.242-6.2a4.509,4.509,0,0,1,3.7,4.5,3.268,3.268,0,0,1-.345,1.862" transform="translate(-325.418 -247.502)"/><path class="p" d="M345.731,248.829l.492,4.218s-2.074-1.7-6-1.121-4.923,2.126-4.923,2.126l0-4.564A12.642,12.642,0,0,1,345.731,248.829Z" transform="translate(-325.408 -242.64)"/><g transform="translate(8.875 13.084)"><path class="t" d="M333.571,277a.72.72,0,0,1-.784.228,1.161,1.161,0,0,1-.513-.43,2.018,2.018,0,0,1-.43-1.674.727.727,0,0,1,.216-.38.658.658,0,0,1,.7-.038,4.27,4.27,0,0,1,.811.768Z" transform="translate(-331.796 -274.625)"/><g transform="translate(0.571 0.611)"><path class="an" d="M333.759,276.725a1.939,1.939,0,0,1,1.085,1.125" transform="translate(-333.759 -276.725)"/><path class="an" d="M335.58,278.594a1.285,1.285,0,0,0-.257,1.013" transform="translate(-334.854 -278.05)"/></g></g><g transform="translate(20.242 12.917)"><path class="t" d="M370.977,276.429a.72.72,0,0,0,.784.228,1.162,1.162,0,0,0,.513-.43,2.015,2.015,0,0,0,.43-1.674.73.73,0,0,0-.216-.38.659.659,0,0,0-.7-.037,5.419,5.419,0,0,0-.905.87Z" transform="translate(-370.883 -274.053)"/><g transform="translate(0.213 0.611)"><path class="an" d="M372.7,276.153a1.936,1.936,0,0,0-1.084,1.125" transform="translate(-371.617 -276.153)"/><path class="an" d="M372.852,278.021a1.286,1.286,0,0,1,.257,1.014" transform="translate(-372.493 -277.478)"/></g></g></g></g></g><g transform="translate(3.839 2.63)"><circle class="l" cx="0.41" cy="0.41" r="0.41" transform="translate(2.805)"/><circle class="l" cx="0.41" cy="0.41" r="0.41" transform="translate(1.437)"/><circle class="l" cx="0.41" cy="0.41" r="0.41"/></g></g></g></g></svg>