<svg xmlns="http://www.w3.org/2000/svg" width="163.945" height="159.3" viewBox="0 0 163.945 159.3"><defs><style>.a{fill:#1c3e60;}.b{fill:#0b3454;}.c{fill:#b74821;}.d{fill:#0d2b4d;}.e{fill:#d15828;}.f{fill:#ccc8c9;}.g{fill:#d42941;}.h{fill:#eaa43f;opacity:0.39;mix-blend-mode:multiply;isolation:isolate;}.i{fill:#d39735;}.j{fill:#edb73e;}.k{fill:#474f54;}.l{fill:#2f373d;}.m{fill:#1e2326;}.n{fill:#f28a5c;}.o{fill:#f7f2f6;}.p{fill:#e84a46;}.q{fill:#d33327;}.r{fill:#dd5c43;}.s{fill:#e3e4e5;}.t{fill:#5cae48;}.u{fill:#3b8d28;}.v{fill:#d8872e;}</style></defs><g transform="translate(-58.424 -78.505)"><g transform="translate(89.585 78.505)"><g transform="translate(51.006 17.212)"><path class="a" d="M302.169,174.488a.421.421,0,0,1-.1.2.486.486,0,0,1-.639.11c-1.384-.874-4.958-1.936-12.345,2.263-.5.281-.984.552-1.467.809-9.337,4.963-16.25,5.234-21.241,3.211-4.015-1.633-7.805,3.118-9.356,5.437a.48.48,0,0,1-.874-.225l-1.012-11.08L253.2,154.08a.359.359,0,0,0-.018-.1l-3.951-12.235a.474.474,0,0,1,.391-.621c1.637-.212,6.435-.626,8.969,1.38a0,0,0,0,1,0,0c3.086,2.442,5.409,8.735,6.389,11.931s6.476,10.9,9.595,13.279,7.295,4.834,13.031,3.933,11.053-1.265,12.543-.409a3.644,3.644,0,0,1,1.734,1.536A5.754,5.754,0,0,1,302.169,174.488Z" transform="translate(-249.208 -140.937)"/><path class="b" d="M294.582,192.808c-9.337,4.963-16.25,5.234-21.241,3.211-4.015-1.633-7.805,3.119-9.356,5.437a.48.48,0,0,1-.874-.225l-1.012-11.08c1.412-10.045,3.091-21.549,3.091-21.549s3.588,11.853,5.119,18.476,7.364,9.724,11.586,9.461c0,0-5.354-7.313-6.338-13.44s1.964,10.814,11.476,10.377C290.075,193.332,292.581,193.084,294.582,192.808Z" transform="translate(-256.17 -155.876)"/></g><g transform="translate(19.702 43.039)"><path class="c" d="M189.542,285.88s.142.93-2.823,2.232-5.568,2.278-5.568,3.986c0,.9,7.593,1.04,9.979.643s5.64-.317,6.689-.643.036-6.191-2.133-7.709S189.542,285.88,189.542,285.88Z" transform="translate(-181.151 -244.002)"/><path class="d" d="M196.089,232.122a11.388,11.388,0,0,1-.579-2.51c-.165-1.231-.324-2.518-.449-3.792-.539-5.485-.211-9.026-.789-11.123,5.981-2.838,10.543-2.581,16.506-6.872l-5.738-10.737s-16.665,6.447-19.531,9.166c-2.173,2.062-4.007,3.669-3.029,7.393.824,3.136,3.006,10.87,4.07,15.257,0,.015,1.729,9.775,2.693,10.015s5.978-.434,7.1-1.109c1.161-.7.368-1.4.147-2.7S196.62,233.231,196.089,232.122Z" transform="translate(-181.724 -197.088)"/></g><g transform="translate(44.505 46.222)"><path class="e" d="M269.717,317.634a12.254,12.254,0,0,1-1.157,3.544c-.759,1.193-5.911,1.518-5.893,3.471.011,1.091,3.218,1.085,8.063,1.012s5.206-2.814,7.3-4.01,3.218-2.534-1.374-6.873S269.717,317.634,269.717,317.634Z" transform="translate(-249.975 -263.077)"/><path class="a" d="M261.759,252.347a4.732,4.732,0,0,0-1.325-3.688,6.446,6.446,0,0,1-1-2.155c-.064-.248-.128-.5-.19-.749a24.653,24.653,0,0,0-.933-2.866c-.236-.653-.517-1.354-.867-2.107l0-.008c-2.1-4.837-4.594-9.045-4.738-10.047-.2-1.376-.247-11.68-.2-14.483s-.783-9.907-.783-9.907l-16.647-2.329s2.531,16.087,3.905,21.727,1.219,8.282,5.2,15.494c2.459,4.453,4.439,7.636,6.175,10.777,0,.008,1.447,3.126,1.917,4.463.438,1.247.977,2.774,2.717,2.785a1.8,1.8,0,0,0,.394-.021h0a7.435,7.435,0,0,0,3.263-1.1s3.315-1.342,3.532-2.319S261.7,253.685,261.759,252.347Z" transform="translate(-235.075 -204.008)"/></g><path class="f" d="M209.1,135.8c-.272-.041-4.625,2.357-5.451,2.248-.91-.12-2.211-1.021-3.706-1.559s-5.324-4.106-6.482-5.18-1.591-1.921-3.037-.846-2.314,2.128-2.121,2.831a48.581,48.581,0,0,0,3.3,5.453c.964,1.446,7.99,5.988,10.768,6.32s9.431-.141,9.431-.362S209.1,135.8,209.1,135.8Z" transform="translate(-165.298 -117.801)"/><path class="g" d="M247.9,172.674c-.193,1.223-2.59,2.636-5.878,2.833a13.531,13.531,0,0,1-4.089-.386,14.161,14.161,0,0,1-7.217-4.5c-.414-.488-.865-.952-1.325-1.4-.8-.777-2.268-1.361-1.6-4.508.322-1.49.561-2.672.695-3.689.046-.308.078-.6.1-.883l.014-.221a9.236,9.236,0,0,0-.018-1.559,9.945,9.945,0,0,0-.437-2.065,16.822,16.822,0,0,1-.538-2.41,31.538,31.538,0,0,1,.184-10.119c.653-2.82,9.636-3.5,13.192-1.219,0,0,2.861.672,4.126,4.733a36.432,36.432,0,0,1,.971,3.969c.11.57.216,1.154.313,1.757a75.551,75.551,0,0,1,.915,10.409c0,.221.009.432.014.639.018.607.041,1.164.074,1.683C247.62,169.671,248.13,171.239,247.9,172.674Z" transform="translate(-186.366 -123.853)"/><path class="h" d="M242.394,189.641a13.486,13.486,0,0,1-4.09-.385,14.143,14.143,0,0,1-7.214-4.5c-.418-.487-.868-.949-1.327-1.4-.8-.779-2.268-1.363-1.6-4.508.889-4.159,1.152-5.887.353-8.419a16.647,16.647,0,0,1-.54-2.41,3.085,3.085,0,0,1,2.081-.657c2.556.255,10.988,1.193,10.988,1.193s-.536,2.159-5.786,3.936-4.881,5.636-2.219,7.9,4.491,2.869,5.936,6.423A4.848,4.848,0,0,0,242.394,189.641Z" transform="translate(-186.737 -137.987)"/><g transform="translate(0 0.196)"><path class="i" d="M162.419,149.138l-1.686-1.767,3.652-3.553,1.686,1.767Z" transform="translate(-150.423 -125.477)"/><path class="j" d="M165.669,125.075l-1.081-1.133a7.877,7.877,0,0,1-1.159-9.315h0a7.862,7.862,0,0,1,1.42-1.824l9.218-8.8,11.968,12.543-9.185,8.764a7.882,7.882,0,0,1-1.966,1.372l-.042.021A7.879,7.879,0,0,1,165.669,125.075Z" transform="translate(-151.328 -103.977)"/><path class="j" d="M1.18,0H2.808a1.18,1.18,0,0,1,1.18,1.18v.177a0,0,0,0,1,0,0H0a0,0,0,0,1,0,0V1.18A1.18,1.18,0,0,1,1.18,0Z" transform="translate(9.856 21.261) rotate(46.345)"/><path class="k" d="M152.1,149.839l-4.437-1.742,9,9.432-1.671-4.659Z" transform="translate(-143.363 -127.787)"/><path class="l" d="M151.616,157.531l-4.3,4.1-2.749-2.882-6.248-6.549,1.023-.973,2.384-2.279.891-.849,6.248,6.545Z" transform="translate(-138.316 -127.789)"/><path class="m" d="M158.951,165.215l-4.3,4.1-2.749-2.882,4.3-4.106Z" transform="translate(-145.652 -135.473)"/><rect class="j" width="3.296" height="5.729" transform="matrix(0.724, -0.69, 0.69, 0.724, 1.023, 23.438)"/><path class="i" d="M199.681,116.515c-.357.341-3.327-2.19-6.632-5.653s-5.694-6.548-5.336-6.89,3.327,2.19,6.632,5.653S200.039,116.174,199.681,116.515Z" transform="translate(-164.974 -103.941)"/><path class="i" d="M176.228,134.786a2.255,2.255,0,0,1-1.664-.632.685.685,0,0,1,.968-.969c.349.348,1.141.3,2.172-.136,2.957-1.247,6.223-4.744,6.206-6.173-.007-.572-.139-.769-.189-.8-.117-.064-.479.05-.7.188a.685.685,0,0,1-.733-1.157,2.252,2.252,0,0,1,2.085-.236,2.088,2.088,0,0,1,.908,1.985c.028,2.3-3.944,6.146-7.043,7.452A5.229,5.229,0,0,1,176.228,134.786Z" transform="translate(-157.783 -115.148)"/></g><g transform="translate(20.618 14.004)"><path class="n" d="M190.553,139.491l-1.66-1.656s-.911-2.09-1.3-2.877a.55.55,0,0,0-.956-.2s-.851-1.678-1.857-.147c0,0-1-.237-1.065,1.59,0,0-.439,0-.564,1.2s2.383,3.038,3.379,3.407l1.752,1.87Z" transform="translate(-183.142 -133.963)"/><path class="o" d="M221.334,149.073c-1.607-.534-6.321,1.589-8.375,1.912s-3.8,0-4.954.343-1.1-1.132-2.743-.621-3.152-1.221-6.4-3.121-3.085-2.831-4.387-2.789-2.764,3.247-2.949,4.224,7.132,6.826,9.735,8.264,4.71,2.109,6.742,1.816,7.724-.45,10.591-1.071,3.759-2.764,3.963-5.6S221.334,149.073,221.334,149.073Z" transform="translate(-187.669 -139.813)"/></g><path class="p" d="M364.21,216.03a1.129,1.129,0,0,0,.018-.12A.5.5,0,0,1,364.21,216.03Z" transform="translate(-260.309 -164.213)"/><g transform="translate(44.275 15.915)"><path class="d" d="M306.316,175.863a.421.421,0,0,1-.1.2c-.35-1.458-2.521-3.965-14.024-1.614-15.519,3.169-23.5-17.649-25.408-22.952s-4.411-7.792-8.012-6.012c-2.516,1.246-1.789-.474-1.789-.474a5.47,5.47,0,0,1,5.754-1.132,0,0,0,0,1,0,0c2.59,1.072,4.963,4.324,6.72,9.5a41.774,41.774,0,0,0,9.4,15.11c8.261,7.649,17.271,1.044,24.047,2.833a4.192,4.192,0,0,1,3.128,2.829A5.753,5.753,0,0,1,306.316,175.863Z" transform="translate(-246.625 -141.015)"/><path class="d" d="M256.27,142.929a5.281,5.281,0,0,0-.548-2.7l-.159-.6s4.745.819,6.308,2.107A6.19,6.19,0,0,0,256.27,142.929Z" transform="translate(-245.91 -138.935)"/><path class="q" d="M236.338,140s-1.221,1.131-1.631.906.217-1.209.816-1.8a5.47,5.47,0,0,1,1.673-.984,2.811,2.811,0,0,0,1.044.9A4.175,4.175,0,0,0,236.338,140Z" transform="translate(-234.575 -138.117)"/></g><g transform="translate(44.274 0)"><path class="n" d="M248.16,130.665a.012.012,0,0,1,0,.008,16.955,16.955,0,0,0-.511,1.623s0,0,0,.008c-.121.45-.255.99-.377,1.6a0,0,0,0,0,0,0c-.154.751-.3,1.615-.406,2.573a7.325,7.325,0,0,1-6.967,2.313,3.779,3.779,0,0,1,.495-2.049,5.737,5.737,0,0,1,.929-1.262l.227-2.017Z" transform="translate(-237.439 -118.178)"/><path class="r" d="M248.75,130.665a.012.012,0,0,1,0,.008,16.958,16.958,0,0,0-.511,1.623s0,0,0,.008a7.116,7.116,0,0,0-.225.9h0a5.312,5.312,0,0,1-7.033,3.545,5.737,5.737,0,0,1,.929-1.262l.227-2.017Z" transform="translate(-238.029 -118.178)"/><path class="o" d="M239.9,143.859l1.687.4s1.422.723,1.4,2c0,0,4.677-2.555,4.8-3.567a6.31,6.31,0,0,0-.707-2.654l-.258,1.606A27.669,27.669,0,0,1,239.9,143.859Z" transform="translate(-237.448 -123.239)"/><path class="o" d="M238.5,140.038a3.724,3.724,0,0,0-2.421,1.237,6.509,6.509,0,0,0-1.509,3.369l1.634-1.124.815.339a10.271,10.271,0,0,1,1.424-3.312Z" transform="translate(-234.573 -123.239)"/><g transform="translate(1.993)"><path d="M251.04,113.277a6.54,6.54,0,0,1-4.253,5.81c-.123.048-.248.087-.377.129a3.233,3.233,0,0,1-1.132.152,3.519,3.519,0,0,1-2.433-1.329c-2.065-2.341-2.838-6.955-2.838-6.955a2.116,2.116,0,0,1-.662-3.054s-.184-2.1,1.168-2.921,2.212-.75,3-1.329,2.185-.336,3.762,1.978,3.652,1.205,4.761,3.712A2.952,2.952,0,0,1,251.04,113.277Z" transform="translate(-238.923 -103.516)"/><path d="M253.022,128.126c.114-.547.232-1.029.341-1.443,0,0,0-.009,0-.009.264-.979.482-1.558.5-1.623a.014.014,0,0,0,0-.009l-3.119,1.338c-.132-.345-.218-.579-.218-.593,0-.06,1.932-5.526,1.932-5.526a8.2,8.2,0,0,0,4.832,2.06A6.333,6.333,0,0,1,253.022,128.126Z" transform="translate(-245.188 -112.558)"/><path class="n" d="M240.031,116.609s-2.412,7.833-.175,9.992c1.615,1.558,4.393.9,5.551.25a7.893,7.893,0,0,0,2.205-2.673,1.713,1.713,0,0,0,2.09-1.475c.322-1.191-1.069-1.827-1.856-.4l-.808-.109a2.41,2.41,0,0,1,.289-1.615c.773-1.239-.982-1.208-1.036-2.163s-.612-1.175-2.546-1.175a5.318,5.318,0,0,1-3.545-1.186Z" transform="translate(-238.905 -110.289)"/></g><path class="n" d="M252.237,130.66a.014.014,0,0,1,0,.009c-.023.064-.244.644-.511,1.624,0,0,0,0,0,.009-.11.414-.23.9-.345,1.444-.124.046-.248.087-.377.129a3.233,3.233,0,0,1-1.131.152,3.519,3.519,0,0,1-2.433-1.329Z" transform="translate(-241.516 -118.175)"/></g></g><g transform="translate(58.424 169.639)"><ellipse class="s" cx="81.973" cy="3.288" rx="81.973" ry="3.288" transform="translate(0 61.59)"/><g transform="translate(35.65)"><rect class="t" width="35.136" height="64.65"/><rect class="t" width="28.908" height="47.61" transform="translate(35.136 17.04)"/><rect class="t" width="21.915" height="28.566" transform="translate(64.044 36.084)"/><rect class="u" width="10.88" height="17.039" transform="translate(35.136)"/><rect class="u" width="10.333" height="19.044" transform="translate(64.044 17.04)"/><rect class="u" width="9.183" height="28.566" transform="translate(85.959 36.084)"/></g><g transform="translate(25.02 43.793)"><g transform="translate(89.274 5.315)"><path class="v" d="M328.758,423.96s-2.155-14.465,1.175-15.478,2.984,10.057.889,15.478Z" transform="translate(-323.926 -408.416)"/><path class="j" d="M324.678,428.61h-2.3s-3.782-6.427-3.274-10.266S324.9,419.4,324.678,428.61Z" transform="translate(-319.057 -413.067)"/><path class="j" d="M334.242,431.809h-2.965s2.08-9.543,5.927-8.82S334.242,431.809,334.242,431.809Z" transform="translate(-325.656 -416.265)"/><path class="v" d="M323.352,422.632A35.39,35.39,0,0,1,326,431.574h-.41a34.783,34.783,0,0,0-2.6-8.771.2.2,0,0,1,.366-.171Z" transform="translate(-321.168 -416.03)"/><path class="v" d="M338.373,426.092c-1.609,1.637-3.015,4.879-3.884,7.227h-.439c.873-2.384,2.324-5.772,4.034-7.512a.206.206,0,0,1,.289,0A.2.2,0,0,1,338.373,426.092Z" transform="translate(-327.154 -417.775)"/></g><path class="v" d="M142.229,417.72s2.892-19.411-1.577-20.771-4,13.5-1.192,20.771Z" transform="translate(-131.637 -396.861)"/><path class="j" d="M145.685,423.96h3.085s5.076-8.624,4.394-13.776S145.39,411.6,145.685,423.96Z" transform="translate(-136.15 -403.101)"/><path class="j" d="M130.521,428.253h3.98s-2.791-12.806-7.954-11.835S130.521,428.253,130.521,428.253Z" transform="translate(-124.966 -407.394)"/><path class="v" d="M151.549,415.938a47.493,47.493,0,0,0-3.555,12h.551a46.658,46.658,0,0,1,3.495-11.77.271.271,0,0,0-.491-.229Z" transform="translate(-137.402 -407.079)"/><path class="v" d="M129.266,420.58c2.159,2.2,4.045,6.547,5.212,9.7h.589c-1.172-3.2-3.118-7.747-5.413-10.08a.274.274,0,0,0-.387-.005A.27.27,0,0,0,129.266,420.58Z" transform="translate(-127.244 -409.42)"/></g></g></g></svg>