<svg xmlns="http://www.w3.org/2000/svg" width="113.947" height="119.603" viewBox="0 0 113.947 119.603"><defs><style>.a{fill:#ebebeb;}.b{fill:#e0e0e0;}.c{fill:#fafafa;}.d{fill:#f5f5f5;}.e{fill:#fff;}.f{fill:#263238;}.g{fill:#d52941;}.h{fill:#455a64;}.i{opacity:0.3;}.j{opacity:0.6;}.k{fill:#ff725e;}.l{fill:#ffbe9d;}.m{fill:#eb996e;}.n{fill:#941c2d;}.o{fill:#7ec682;}.p{fill:#bceca4;}</style></defs><g transform="translate(-28.38 -25.095)"><g transform="translate(28.38 25.095)"><g transform="translate(30.345 11.28)"><rect class="a" width="58.331" height="58.331"/></g><g transform="translate(0 13.817)"><g transform="translate(2.573 0.009)"><rect class="b" width="26.246" height="36.131"/></g><g transform="translate(0.073 0.009)"><rect class="a" width="27.104" height="36.131"/></g><g transform="translate(2.659 2.535)"><g transform="translate(0 0)"><rect class="c" width="21.94" height="30.817"/></g><g transform="translate(0 22.733)"><path class="d" d="M38.444,181.09h21.94v-8.083H38.444Z" transform="translate(-38.444 -173.007)"/></g><g transform="translate(12.694 13.156)"><path class="b" d="M87.181,137.453l.709,1.655a3.5,3.5,0,0,0-1.385,3.005,37.188,37.188,0,0,0,1.587,5.5h2.837a55.641,55.641,0,0,0,1.384-5.977,7.239,7.239,0,0,0-1.249-2.5l.642-1.689S89.173,135.9,87.181,137.453Z" transform="translate(-86.482 -136.763)"/></g><g transform="translate(11.734 16.004)"><path class="b" d="M84.36,150.821a4.329,4.329,0,0,1-1.454-1.946,1.113,1.113,0,0,1,.123-.981,1,1,0,0,1,.828-.35,2.52,2.52,0,0,1,.791.195l-.129.349a2.2,2.2,0,0,0-.673-.172.634.634,0,0,0-.522.2.793.793,0,0,0-.059.658,4.048,4.048,0,0,0,1.345,1.767Z" transform="translate(-82.85 -147.543)"/></g><g transform="translate(17.265 16.184)"><path class="b" d="M104.751,151.553l-.277-.249a4.467,4.467,0,0,0,.81-1.289,1.856,1.856,0,0,0,.164-.643.807.807,0,0,0-.17-.554.707.707,0,0,0-.6-.219,1.056,1.056,0,0,0-.628.32l-.263-.263a1.427,1.427,0,0,1,.854-.427,1.087,1.087,0,0,1,.923.346,1.162,1.162,0,0,1,.261.811,2.252,2.252,0,0,1-.191.771A4.842,4.842,0,0,1,104.751,151.553Z" transform="translate(-103.781 -148.223)"/></g><g transform="translate(13.381 13.856)"><path class="a" d="M93.617,139.418a2.624,2.624,0,0,1-.651.164,9.959,9.959,0,0,1-3.232.026,2.6,2.6,0,0,1-.654-.153,4.319,4.319,0,0,1,.667.057,14.2,14.2,0,0,0,3.205-.026A4.286,4.286,0,0,1,93.617,139.418Z" transform="translate(-89.08 -139.412)"/></g><g transform="translate(3.518 3.009)"><path class="a" d="M70.178,99.524a4.863,4.863,0,0,0-2.041-.924,12.923,12.923,0,0,0-6.14.28,7.23,7.23,0,0,0-4.511,3.974,25.457,25.457,0,0,1-1.036,3.021c-.657,1.186-1.859,1.952-2.773,2.954a7.361,7.361,0,0,0-.386,9.461l5.508.068a17.942,17.942,0,0,1,.516-6.453A7.835,7.835,0,0,1,63.3,107c2.075-.942,4.71-.715,6.966-.392Z" transform="translate(-51.756 -98.364)"/></g><g transform="translate(0)"><path class="a" d="M46.42,86.978c.61.942-.174,2.476-.974,3.263s-1.82,1.449-2.192,2.508.008,2.236-.175,3.343a3.314,3.314,0,0,1-4.634,2.481V86.978Z" transform="translate(-38.444 -86.978)"/></g><g transform="translate(4.843 19.663)"><path class="b" d="M57.728,161.785s.3.419.179.688-1.555,2.184-1.017,3.5a15.019,15.019,0,0,0,1.615,2.752h3.35s1.65-2.6,1.615-3.47a6.536,6.536,0,0,0-1.107-2.931l.269-.539S59.522,160.888,57.728,161.785Z" transform="translate(-56.77 -161.387)"/></g></g><g transform="translate(2.591 2.467)"><path class="b" d="M60.192,117.6s0-.052,0-.15,0-.245,0-.435c0-.385,0-.949-.008-1.683,0-1.471-.01-3.617-.017-6.331-.008-5.425-.018-13.121-.031-22.218l.062.063-21.938.006h0l.069-.069c0,11.542-.01,22.217-.013,30.817l-.056-.056,15.951.029,4.424.014,1.163.006c.263,0,.4.006.4.006s-.131,0-.39.006l-1.153.006-4.412.014-15.985.029H38.2V117.6c0-8.6-.008-19.274-.013-30.817v-.069h.071l21.938.006h.063v.062c-.013,9.114-.024,16.824-.031,22.259-.007,2.709-.013,4.85-.017,6.317,0,.728-.006,1.288-.007,1.67,0,.187,0,.329,0,.428S60.192,117.6,60.192,117.6Z" transform="translate(-38.183 -86.718)"/></g><g transform="translate(24.599 0.008)"><path class="b" d="M124.046,77.416a9.436,9.436,0,0,1-1.241,1.313,16,16,0,0,1-1.336,1.213,9.46,9.46,0,0,1,1.241-1.313A16.015,16.015,0,0,1,124.046,77.416Z" transform="translate(-121.468 -77.415)"/></g><path class="b" d="M28.38,77.384a12.475,12.475,0,0,1,1.387,1.22,12.449,12.449,0,0,1,1.292,1.32,12.469,12.469,0,0,1-1.387-1.22A12.444,12.444,0,0,1,28.38,77.384Z" transform="translate(-28.38 -77.383)"/><g transform="translate(0.072 33.501)"><path class="b" d="M28.652,206.8a12.338,12.338,0,0,1,1.231-1.367,12.36,12.36,0,0,1,1.33-1.272,12.335,12.335,0,0,1-1.231,1.367A12.367,12.367,0,0,1,28.652,206.8Z" transform="translate(-28.651 -204.16)"/></g><g transform="translate(24.582 33.32)"><path class="b" d="M123.913,206.342c-.036.022-.484-.709-1.179-1.5s-1.356-1.334-1.33-1.367a1.939,1.939,0,0,1,.46.326,8.764,8.764,0,0,1,1.787,2.04A1.94,1.94,0,0,1,123.913,206.342Z" transform="translate(-121.403 -203.476)"/></g></g><g transform="translate(49.728 72.714)"><g transform="translate(0 10.549)"><rect class="d" width="48.374" height="22.31"/><g transform="translate(1.107 1.174)"><path class="b" d="M268.132,366.035H222.016V345.951h46.116Zm-45.815-.3h45.514V346.252H222.317Z" transform="translate(-222.016 -345.951)"/></g><g transform="translate(48.374)"><rect class="b" width="11.818" height="22.31"/></g><g transform="translate(1.199 7.268)"><path class="b" d="M222.423,369.135h45.814a.061.061,0,0,0,0-.122H222.423a.061.061,0,0,0,0,.122Z" transform="translate(-222.364 -369.013)"/></g><g transform="translate(24.123 1.209)"><path class="b" d="M309.307,352.2a50.136,50.136,0,0,0,.016-6.06.062.062,0,0,0-.123,0,50.18,50.18,0,0,0,.016,6.06.046.046,0,0,0,.092,0Z" transform="translate(-309.115 -346.085)"/></g><g transform="translate(35.398 3.675)"><path class="b" d="M353.031,356.039a.624.624,0,1,1-.624-.624A.624.624,0,0,1,353.031,356.039Z" transform="translate(-351.783 -355.415)"/></g><g transform="translate(11.354 3.675)"><path class="b" d="M262.043,356.039a.624.624,0,1,1-.624-.624A.624.624,0,0,1,262.043,356.039Z" transform="translate(-260.795 -355.415)"/></g><g transform="translate(23.541 10.592)"><path class="b" d="M308.16,382.216a.624.624,0,1,1-.624-.624A.624.624,0,0,1,308.16,382.216Z" transform="translate(-306.912 -381.592)"/></g><g transform="translate(3.293 22.31)"><path class="b" d="M232.779,425.935l-2.491,14.006h1.4l4.592-14.006Z" transform="translate(-230.288 -425.935)"/></g><g transform="translate(41.449 22.31)"><path class="b" d="M378.185,425.935l2.083,14.031h-1.4l-4.184-14.031Z" transform="translate(-374.683 -425.935)"/></g><g transform="translate(50.801 22.31)"><path class="b" d="M413.574,425.935l2.36,14.031h-1.4l-4.461-14.031Z" transform="translate(-410.072 -425.935)"/></g><g transform="translate(23.499 16.906)"><path class="b" d="M308,406.109a.624.624,0,1,1-.624-.624A.624.624,0,0,1,308,406.109Z" transform="translate(-306.753 -405.485)"/></g><g transform="translate(1.199 14.177)"><path class="b" d="M222.423,395.278h45.814a.061.061,0,0,0,0-.121H222.423a.061.061,0,0,0,0,.121Z" transform="translate(-222.364 -395.157)"/></g></g><g transform="translate(19.133 0)"><g transform="translate(0 0)"><g transform="translate(0 0)"><rect class="b" width="2.977" height="14.626" transform="translate(14.626 0) rotate(89.697)"/></g></g><g transform="translate(0.073 5.828)"><g transform="translate(0 0.032)"><g transform="translate(0 0)"><rect class="d" width="4.626" height="16.302" transform="translate(16.302 0) rotate(89.697)"/></g></g><g transform="translate(13.106)"><path class="b" d="M340.182,328.271a33.773,33.773,0,0,1,0-4.627,33.917,33.917,0,0,1,0,4.627Z" transform="translate(-340.103 -323.644)"/></g><g transform="translate(13.791)"><path class="b" d="M342.774,328.271a33.917,33.917,0,0,1,0-4.627,33.773,33.773,0,0,1,0,4.627Z" transform="translate(-342.695 -323.644)"/></g><g transform="translate(2.398)"><path class="b" d="M299.659,328.271a33.89,33.89,0,0,1,0-4.627,33.8,33.8,0,0,1,0,4.627Z" transform="translate(-299.58 -323.644)"/></g><g transform="translate(3.083)"><path class="b" d="M302.25,328.271a33.786,33.786,0,0,1,0-4.627,33.9,33.9,0,0,1,0,4.627Z" transform="translate(-302.171 -323.644)"/></g><g transform="translate(4.656 2.308)"><path class="b" d="M308.125,332.457c0-.044,1.645-.08,3.673-.08s3.673.036,3.673.08-1.644.08-3.673.08S308.125,332.5,308.125,332.457Z" transform="translate(-308.125 -332.377)"/></g></g><g transform="translate(2.389 2.857)"><g transform="translate(0 0)"><g transform="translate(0 0)"><g transform="translate(0 0)"><rect class="a" width="2.977" height="20.116" transform="matrix(0.005, 1, -1, 0.005, 20.116, 0)"/></g></g></g><g transform="translate(16.301 0.682)"><path class="b" d="M361.908,316.906a.963.963,0,1,1,.951-.963A.957.957,0,0,1,361.908,316.906Z" transform="translate(-360.957 -314.98)"/></g><g transform="translate(1.171 1.347)"><g transform="translate(0 0)"><rect class="b" width="0.595" height="13.465" transform="translate(13.465 0) rotate(90)"/></g></g></g></g></g><g transform="translate(92.759)"><g transform="translate(1.266 0.006)"><rect class="b" width="18.603" height="19.392"/></g><g transform="translate(0.006 0.006)"><rect class="c" width="18.603" height="19.392"/></g><path class="b" d="M399.281,44.5H380.666v-19.4h18.615Zm-18.6-.012h18.591V25.107H380.678Z" transform="translate(-380.666 -25.095)"/><g transform="translate(2.506 2.613)"><rect class="e" width="13.602" height="14.178"/></g><g transform="translate(0.024 16.884)"><path class="b" d="M383.239,88.992a2.221,2.221,0,0,1-.336.39c-.217.229-.522.539-.865.877s-.657.637-.888.85a2.159,2.159,0,0,1-.393.327,2.151,2.151,0,0,1,.334-.388c.217-.229.523-.54.866-.878s.659-.639.89-.852A2.132,2.132,0,0,1,383.239,88.992Z" transform="translate(-380.756 -88.991)"/></g><g transform="translate(16.107 16.85)"><g transform="translate(0 0)"><path class="b" d="M441.621,88.86a2.223,2.223,0,0,1,.39.336c.229.217.54.522.877.865s.637.657.851.889a2.2,2.2,0,0,1,.327.393,2.154,2.154,0,0,1-.389-.334c-.229-.217-.54-.523-.878-.866s-.639-.658-.852-.89A2.138,2.138,0,0,1,441.621,88.86Z" transform="translate(-441.62 -88.86)"/></g></g><g transform="translate(16.07 0.205)"><path class="b" d="M441.48,28.316a2.246,2.246,0,0,1,.336-.39c.217-.229.522-.539.865-.876s.657-.638.888-.851a2.151,2.151,0,0,1,.393-.327,2.175,2.175,0,0,1-.334.388c-.217.229-.523.54-.867.878s-.658.639-.89.852A2.111,2.111,0,0,1,441.48,28.316Z" transform="translate(-441.48 -25.871)"/></g><g transform="translate(0.024 0.203)"><path class="b" d="M383.2,28.345a2.213,2.213,0,0,1-.39-.336c-.229-.217-.54-.523-.876-.865s-.638-.657-.851-.889a2.166,2.166,0,0,1-.327-.393,2.149,2.149,0,0,1,.388.334c.229.217.54.523.878.866s.639.659.852.89A2.121,2.121,0,0,1,383.2,28.345Z" transform="translate(-380.756 -25.862)"/></g><g transform="translate(2.446 2.552)"><path class="b" d="M403.548,48.993s0-.024,0-.069,0-.113,0-.2c0-.178,0-.434-.006-.766,0-.672-.008-1.649-.014-2.89-.007-2.483-.016-6.021-.027-10.257l.052.052-13.563.008h0l.06-.06c0,5.2-.006,10.072-.008,14.178l-.052-.052,9.821.026,2.759.013.73.006.189,0a.6.6,0,0,1,.066,0,.378.378,0,0,1-.06,0l-.183,0-.72.006-2.747.013-9.854.026h-.052v-.052c0-4.106-.006-8.974-.009-14.178v-.06h.062l13.563.008h.053v.052c-.011,4.25-.02,7.8-.027,10.29-.006,1.236-.011,2.209-.014,2.878,0,.328,0,.58-.006.755,0,.082,0,.145,0,.192A.442.442,0,0,1,403.548,48.993Z" transform="translate(-389.923 -34.754)"/></g><g transform="translate(7.038 7.433)"><rect class="a" width="4.539" height="4.539"/></g></g></g><g transform="translate(55.359 32.884)"><g transform="translate(0.069 0.069)"><rect class="e" width="58.331" height="58.331"/></g><path class="f" d="M189.489,112.97c0-.508-.024-23.36-.059-58.33l.059.059-58.325.009h-.006l.069-.069c0,21.36-.007,41.378-.009,58.33l-.059-.059,58.33.059-58.33.059h-.06v-.06c0-16.953-.006-36.97-.009-58.33v-.069h.075l58.325.009h.06v.06C189.513,89.61,189.49,112.463,189.489,112.97Z" transform="translate(-131.09 -54.571)"/><g transform="translate(25.605 21.32)"><path class="g" d="M2.5,0A2.5,2.5,0,1,1,0,2.5,2.5,2.5,0,0,1,2.5,0Z" transform="matrix(0.658, -0.753, 0.753, 0.658, 0, 3.763)"/></g><g transform="translate(40.311 28.691)"><circle class="g" cx="2.498" cy="2.498" r="2.498" transform="translate(0 4.86) rotate(-76.662)"/></g><g transform="translate(5.214 6.693)"><path class="f" d="M151.658,81.553a.131.131,0,0,1-.088-.034l-.7-.629a.132.132,0,0,1-.009-.188l.7-.759a.132.132,0,0,1,.194.18l-.612.66.6.54a.132.132,0,0,1-.088.23Z" transform="translate(-150.822 -79.901)"/></g><g transform="translate(52.704 6.694)"><path class="f" d="M330.669,81.553a.132.132,0,0,1-.1-.222l.612-.66-.6-.539a.132.132,0,1,1,.176-.2l.7.629a.132.132,0,0,1,.009.188l-.7.759A.133.133,0,0,1,330.669,81.553Z" transform="translate(-330.537 -79.902)"/></g><g transform="translate(26.17 6.147)"><path class="f" d="M232.074,79.974l0-1.285-.63,1.059h-.224l-.627-1.031v1.258h-.465V77.832h.41l.8,1.331.79-1.331h.407l.006,2.142Z" transform="translate(-230.125 -77.832)"/><path class="f" d="M242.219,80.346v.94h-.447v-.205a.541.541,0,0,1-.5.23c-.386,0-.615-.214-.615-.5s.205-.493.707-.493h.379c0-.205-.122-.324-.379-.324a.789.789,0,0,0-.474.153l-.172-.334a1.267,1.267,0,0,1,.71-.2C241.928,79.615,242.219,79.848,242.219,80.346Zm-.477.419V80.6h-.327c-.224,0-.294.083-.294.193s.1.2.269.2A.352.352,0,0,0,241.741,80.766Z" transform="translate(-237.872 -79.144)"/><path class="f" d="M249.027,79.708l-.744,1.747a.679.679,0,0,1-.683.517.731.731,0,0,1-.459-.15l.174-.34a.424.424,0,0,0,.269.1c.132,0,.205-.058.269-.205l.006-.015-.713-1.659h.493l.462,1.117.465-1.117Z" transform="translate(-242.645 -79.212)"/></g><g transform="translate(1.308 12.971)"><path class="b" d="M192.411,103.727c0,.038-12.62.069-28.184.069s-28.187-.031-28.187-.069,12.617-.069,28.187-.069S192.411,103.689,192.411,103.727Z" transform="translate(-136.04 -103.658)"/></g><g transform="translate(5.211 16.949)"><path class="f" d="M152.147,120.182l0-.882-.433.727h-.153l-.431-.708v.863h-.319v-1.471h.281l.55.914.542-.914h.28l0,1.471Z" transform="translate(-150.809 -118.711)"/><path class="f" d="M158,120.517a.622.622,0,1,1,.622.582A.582.582,0,0,1,158,120.517Zm.91,0a.29.29,0,1,0-.288.313A.285.285,0,0,0,158.912,120.517Z" transform="translate(-156.101 -119.612)"/><path class="f" d="M164.686,120.435v.647h-.328v-.6c0-.183-.084-.267-.229-.267s-.271.1-.271.3v.559h-.328v-1.13h.313v.132a.5.5,0,0,1,.374-.149A.443.443,0,0,1,164.686,120.435Z" transform="translate(-160.169 -119.612)"/></g><g transform="translate(12.671 16.949)"><path class="f" d="M179.511,118.988h-.471v-.277h1.282v.277h-.471v1.193h-.34Z" transform="translate(-179.04 -118.711)"/><path class="f" d="M185.523,120v1.13h-.311v-.134a.457.457,0,0,1-.351.151.451.451,0,0,1-.483-.508V120h.328v.59c0,.189.084.273.229.273s.261-.1.261-.3V120Z" transform="translate(-182.967 -119.659)"/><path class="f" d="M190.735,120.609h-.855a.3.3,0,0,0,.323.227.383.383,0,0,0,.284-.109l.174.189a.66.66,0,0,1-1.111-.4.575.575,0,0,1,.6-.582.559.559,0,0,1,.588.586C190.741,120.546,190.737,120.582,190.735,120.609Zm-.859-.191h.557a.282.282,0,0,0-.557,0Z" transform="translate(-186.773 -119.612)"/></g><g transform="translate(14.527 24.028)"><path d="M186.563,145.5v1.471h-.151v-1.336h-.346V145.5Z" transform="translate(-186.065 -145.501)"/></g><g transform="translate(21.455 24.016)"><path d="M213.359,146.8v.134h-1.032v-.107l.611-.6c.166-.164.2-.263.2-.363,0-.17-.12-.275-.345-.275a.5.5,0,0,0-.4.164l-.107-.092a.661.661,0,0,1,.521-.21c.3,0,.487.151.487.4a.6.6,0,0,1-.242.46l-.5.492Z" transform="translate(-212.283 -145.453)"/></g><g transform="translate(28.568 24.028)"><path class="e" d="M240.261,146.549c0,.246-.179.435-.534.435a.764.764,0,0,1-.529-.189l.073-.12a.644.644,0,0,0,.456.17c.244,0,.378-.113.378-.3s-.124-.292-.4-.292h-.1v-.111l.407-.511h-.752V145.5h.945v.107l-.416.523C240.1,146.148,240.261,146.314,240.261,146.549Z" transform="translate(-239.198 -145.501)"/></g><g transform="translate(35.658 24.028)"><path d="M267.3,146.585h-.294v.387h-.151v-.387h-.83v-.109l.779-.975h.168l-.752.95h.639v-.34h.147v.34h.294Z" transform="translate(-266.03 -145.501)"/></g><g transform="translate(6.897 31.185)"><path d="M158.272,172.584v.107l-.616,1.363h-.164l.605-1.336h-.756v.275h-.149v-.41Z" transform="translate(-157.192 -172.584)"/></g><g transform="translate(14.092 31.172)"><path d="M185.555,173.61c0,.261-.221.422-.571.422s-.567-.162-.567-.422a.367.367,0,0,1,.283-.361.332.332,0,0,1-.231-.324c0-.239.2-.389.515-.389s.519.149.519.389a.333.333,0,0,1-.235.324A.37.37,0,0,1,185.555,173.61Zm-.155,0c0-.18-.156-.294-.416-.294s-.414.114-.414.294.153.3.414.3S185.4,173.79,185.4,173.608Zm-.416-.414c.229,0,.365-.1.365-.263s-.145-.267-.365-.267-.363.1-.363.264S184.755,173.194,184.984,173.194Z" transform="translate(-184.417 -172.536)"/></g><g transform="translate(21.298 31.172)"><path d="M212.794,173.271c0,.5-.273.76-.672.76a.674.674,0,0,1-.349-.08l.061-.122a.517.517,0,0,0,.286.069c.317,0,.521-.2.521-.6,0-.034,0-.076-.006-.12a.47.47,0,0,1-.449.252.445.445,0,0,1-.5-.441.458.458,0,0,1,.5-.452C212.582,172.536,212.794,172.807,212.794,173.271Zm-.208-.292c0-.162-.134-.315-.389-.315a.321.321,0,0,0-.359.319c0,.193.143.317.37.317A.34.34,0,0,0,212.586,172.979Z" transform="translate(-211.689 -172.536)"/></g><g transform="translate(28.029 31.173)"><path d="M237.656,172.585v1.471H237.5v-1.336h-.347v-.135Z" transform="translate(-237.158 -172.572)"/><path d="M240.372,173.285c0-.469.246-.748.586-.748s.588.28.588.748-.248.748-.588.748S240.372,173.753,240.372,173.285Zm1.019,0c0-.393-.177-.609-.433-.609s-.433.216-.433.609.177.609.433.609S241.391,173.678,241.391,173.285Z" transform="translate(-239.523 -172.537)"/></g><g transform="translate(35.557 31.185)"><path d="M266.146,172.585v1.471h-.151v-1.336h-.347v-.135Z" transform="translate(-265.648 -172.585)"/><path d="M269.018,172.585v1.471h-.151v-1.336h-.347v-.135Z" transform="translate(-267.761 -172.585)"/></g><g transform="translate(42.551 31.172)"><path class="e" d="M292.614,172.584v1.471h-.151v-1.336h-.346v-.134Z" transform="translate(-292.116 -172.571)"/><path class="e" d="M296.135,173.885v.134H295.1v-.107l.611-.6c.166-.164.2-.263.2-.363,0-.17-.12-.275-.345-.275a.5.5,0,0,0-.4.164l-.107-.092a.661.661,0,0,1,.521-.21c.3,0,.487.151.487.4a.6.6,0,0,1-.242.46l-.5.492Z" transform="translate(-294.281 -172.536)"/></g><g transform="translate(49.767 31.185)"><path d="M319.921,172.585v1.471h-.151v-1.336h-.347v-.135Z" transform="translate(-319.423 -172.585)"/><path d="M323.358,173.633c0,.246-.179.435-.534.435a.765.765,0,0,1-.529-.189l.073-.12a.644.644,0,0,0,.456.17c.244,0,.378-.113.378-.3s-.124-.292-.4-.292h-.1v-.112l.407-.51h-.752v-.135h.945v.107l-.416.523C323.2,173.232,323.358,173.4,323.358,173.633Z" transform="translate(-321.536 -172.585)"/></g><g transform="translate(6.849 38.301)"><path d="M157.508,199.514v1.471h-.151v-1.336h-.346v-.135Z" transform="translate(-157.01 -199.514)"/><path d="M161.4,200.6h-.294v.387h-.151V200.6h-.83v-.109l.78-.975h.168l-.752.949h.639v-.34h.147v.34h.294Z" transform="translate(-159.304 -199.514)"/></g><g transform="translate(14.138 38.301)"><path d="M185.09,199.514v1.471h-.151v-1.336h-.346v-.135Z" transform="translate(-184.592 -199.514)"/><path d="M188.628,200.552c0,.25-.174.446-.534.446a.758.758,0,0,1-.527-.189l.073-.12a.637.637,0,0,0,.452.17c.25,0,.383-.122.383-.3s-.118-.307-.492-.307h-.313l.076-.738h.8v.135h-.672l-.05.469h.189C188.46,200.117,188.628,200.291,188.628,200.552Z" transform="translate(-186.781 -199.514)"/></g><g transform="translate(21.281 38.289)"><path d="M212.123,199.514v1.471h-.151v-1.336h-.347v-.135Z" transform="translate(-211.625 -199.501)"/><path d="M215.944,200.51a.458.458,0,0,1-.5.452c-.391,0-.6-.271-.6-.735,0-.5.273-.76.672-.76a.675.675,0,0,1,.349.08l-.061.122a.517.517,0,0,0-.286-.069c-.317,0-.521.2-.521.6,0,.034,0,.076.006.12a.47.47,0,0,1,.449-.252A.445.445,0,0,1,215.944,200.51Zm-.149,0c0-.193-.143-.317-.37-.317a.34.34,0,0,0-.378.321c0,.162.134.315.388.315A.322.322,0,0,0,215.795,200.514Z" transform="translate(-213.99 -199.466)"/></g><g transform="translate(28.491 38.301)"><path d="M239.406,199.514v1.47h-.151v-1.336h-.347v-.134Z" transform="translate(-238.908 -199.514)"/><path d="M243.043,199.514v.107l-.615,1.363h-.164l.6-1.336h-.756v.275h-.149v-.41Z" transform="translate(-241.156 -199.514)"/></g><g transform="translate(35.629 38.289)"><path d="M266.417,199.514v1.47h-.151v-1.336h-.346v-.134Z" transform="translate(-265.919 -199.501)"/><path d="M270.239,200.539c0,.261-.221.422-.571.422s-.567-.162-.567-.422a.367.367,0,0,1,.284-.361.332.332,0,0,1-.231-.324c0-.239.2-.388.515-.388s.519.149.519.388a.333.333,0,0,1-.235.324A.37.37,0,0,1,270.239,200.539Zm-.155,0c0-.181-.156-.294-.416-.294s-.414.114-.414.294.154.3.414.3S270.083,200.72,270.083,200.537Zm-.416-.414c.229,0,.365-.1.365-.263s-.145-.267-.365-.267-.363.1-.363.265S269.438,200.123,269.667,200.123Z" transform="translate(-268.259 -199.466)"/></g><g transform="translate(42.848 38.289)"><path d="M293.736,199.514v1.471h-.151v-1.336h-.346v-.135Z" transform="translate(-293.238 -199.501)"/><path d="M297.39,200.2c0,.5-.273.761-.672.761a.677.677,0,0,1-.349-.08l.061-.122a.517.517,0,0,0,.286.069c.317,0,.521-.2.521-.6,0-.034,0-.076-.006-.12a.47.47,0,0,1-.449.252.445.445,0,0,1-.5-.441.458.458,0,0,1,.5-.452C297.178,199.466,297.39,199.737,297.39,200.2Zm-.208-.292c0-.162-.134-.315-.388-.315a.322.322,0,0,0-.359.319c0,.193.143.317.37.317A.341.341,0,0,0,297.182,199.909Z" transform="translate(-295.48 -199.466)"/></g><g transform="translate(49.786 38.289)"><path d="M320.57,200.815v.134h-1.031v-.107l.611-.6c.166-.164.2-.263.2-.363,0-.17-.12-.275-.344-.275a.5.5,0,0,0-.4.164l-.107-.092a.66.66,0,0,1,.521-.21c.3,0,.487.151.487.4a.6.6,0,0,1-.241.46l-.5.492Z" transform="translate(-319.495 -199.466)"/><path d="M324.252,200.214c0-.469.246-.748.586-.748s.588.279.588.748-.248.748-.588.748S324.252,200.682,324.252,200.214Zm1.019,0c0-.393-.177-.609-.433-.609s-.433.216-.433.609.176.609.433.609S325.271,200.607,325.271,200.214Z" transform="translate(-322.995 -199.466)"/></g><g transform="translate(6.868 44.856)"><path d="M158.157,225.669v.134h-1.031V225.7l.611-.6c.166-.164.2-.263.2-.364,0-.17-.12-.275-.345-.275a.5.5,0,0,0-.4.164l-.107-.092a.661.661,0,0,1,.521-.21c.3,0,.487.151.487.4a.6.6,0,0,1-.242.46l-.5.492Z" transform="translate(-157.081 -224.32)"/><path d="M162.027,224.368v1.47h-.151V224.5h-.346v-.134Z" transform="translate(-160.354 -224.355)"/></g><g transform="translate(13.843 44.856)"><path d="M184.551,225.669v.134h-1.031V225.7l.611-.6c.166-.164.2-.263.2-.364,0-.17-.12-.275-.344-.275a.5.5,0,0,0-.4.164l-.107-.092a.66.66,0,0,1,.521-.21c.3,0,.488.151.488.4a.6.6,0,0,1-.242.46l-.5.492Z" transform="translate(-183.475 -224.32)"/><path d="M189.07,225.669v.134h-1.031V225.7l.611-.6c.166-.164.2-.263.2-.364,0-.17-.12-.275-.344-.275a.5.5,0,0,0-.4.164l-.107-.092a.66.66,0,0,1,.521-.21c.3,0,.488.151.488.4a.6.6,0,0,1-.242.46l-.5.492Z" transform="translate(-186.8 -224.32)"/></g><g transform="translate(21.039 44.856)"><path d="M211.785,225.669v.134h-1.031V225.7l.611-.6c.166-.164.2-.263.2-.364,0-.17-.12-.275-.345-.275a.5.5,0,0,0-.4.164l-.107-.092a.661.661,0,0,1,.521-.21c.3,0,.487.151.487.4a.6.6,0,0,1-.242.46l-.5.492Z" transform="translate(-210.709 -224.32)"/><path d="M216.22,225.416c0,.246-.178.435-.534.435a.765.765,0,0,1-.529-.189l.073-.12a.644.644,0,0,0,.456.17c.244,0,.378-.113.378-.3s-.124-.292-.4-.292h-.1v-.111l.408-.511h-.752v-.134h.945v.107l-.416.523C216.062,225.015,216.22,225.181,216.22,225.416Z" transform="translate(-213.982 -224.355)"/></g><g transform="translate(28.154 44.857)"><path d="M238.707,225.67v.134h-1.031V225.7l.611-.6c.166-.164.2-.263.2-.364,0-.17-.12-.275-.344-.275a.5.5,0,0,0-.4.164l-.107-.092a.661.661,0,0,1,.521-.21c.3,0,.487.151.487.4a.6.6,0,0,1-.242.46l-.5.492Z" transform="translate(-237.631 -224.321)"/><path d="M243.417,225.453h-.294v.386h-.151v-.386h-.83v-.109l.779-.975h.168l-.752.949h.639v-.34h.147v.34h.294Z" transform="translate(-240.95 -224.356)"/></g><g transform="translate(35.421 44.856)"><path d="M266.211,225.669v.134h-1.032V225.7l.611-.6c.166-.164.2-.263.2-.364,0-.17-.12-.275-.345-.275a.5.5,0,0,0-.4.164l-.107-.092a.66.66,0,0,1,.521-.21c.3,0,.487.151.487.4a.6.6,0,0,1-.242.46l-.5.492Z" transform="translate(-265.135 -224.32)"/><path d="M270.747,225.406c0,.25-.174.445-.534.445a.76.76,0,0,1-.527-.189l.073-.12a.637.637,0,0,0,.452.17c.25,0,.383-.122.383-.3s-.118-.307-.492-.307h-.313l.076-.737h.8v.134H270l-.051.469h.189C270.579,224.971,270.747,225.145,270.747,225.406Z" transform="translate(-268.483 -224.355)"/></g><g transform="translate(42.573 44.856)"><path d="M293.273,225.669v.134h-1.031V225.7l.611-.6c.166-.164.2-.263.2-.364,0-.17-.12-.275-.344-.275a.5.5,0,0,0-.4.164l-.107-.092a.661.661,0,0,1,.521-.21c.3,0,.487.151.487.4a.6.6,0,0,1-.242.46l-.5.492Z" transform="translate(-292.198 -224.32)"/><path d="M298.061,225.364a.458.458,0,0,1-.5.452c-.391,0-.6-.271-.6-.735,0-.5.273-.76.672-.76a.676.676,0,0,1,.349.08l-.061.122a.515.515,0,0,0-.286-.069c-.317,0-.521.2-.521.6,0,.034,0,.076.006.12a.47.47,0,0,1,.449-.252A.445.445,0,0,1,298.061,225.364Zm-.149,0c0-.193-.143-.317-.37-.317a.341.341,0,0,0-.378.322c0,.162.135.315.388.315A.322.322,0,0,0,297.912,225.368Z" transform="translate(-295.699 -224.32)"/></g><g transform="translate(49.786 44.856)"><path d="M320.57,225.669v.134h-1.031V225.7l.611-.6c.166-.164.2-.263.2-.364,0-.17-.12-.275-.344-.275a.5.5,0,0,0-.4.164l-.107-.092a.66.66,0,0,1,.521-.21c.3,0,.487.151.487.4a.6.6,0,0,1-.241.46l-.5.492Z" transform="translate(-319.495 -224.32)"/><path d="M325.173,224.368v.107l-.615,1.363h-.164l.6-1.336h-.756v.275h-.149v-.41Z" transform="translate(-322.878 -224.355)"/></g><g transform="translate(6.868 51.147)"><path d="M158.157,249.473v.135h-1.031V249.5l.611-.6c.166-.164.2-.263.2-.364,0-.17-.12-.275-.345-.275a.5.5,0,0,0-.4.164l-.107-.092a.66.66,0,0,1,.521-.21c.3,0,.487.151.487.4a.6.6,0,0,1-.242.46l-.5.492Z" transform="translate(-157.081 -248.125)"/><path d="M162.977,249.2c0,.26-.221.422-.572.422s-.567-.162-.567-.422a.367.367,0,0,1,.284-.361.331.331,0,0,1-.231-.323c0-.24.2-.389.514-.389s.519.149.519.389a.333.333,0,0,1-.235.323A.371.371,0,0,1,162.977,249.2Zm-.156,0c0-.18-.155-.294-.416-.294s-.414.113-.414.294.154.3.414.3S162.821,249.379,162.821,249.2Zm-.416-.414c.229,0,.365-.1.365-.263s-.145-.267-.365-.267-.363.1-.363.265S162.176,248.782,162.405,248.782Z" transform="translate(-160.581 -248.125)"/></g><g transform="translate(14.233 51.147)"><path d="M186.028,249.473v.135H185V249.5l.611-.6c.166-.164.2-.263.2-.364,0-.17-.12-.275-.345-.275a.5.5,0,0,0-.4.164l-.107-.092a.661.661,0,0,1,.521-.21c.3,0,.487.151.487.4a.6.6,0,0,1-.242.46l-.5.492Z" transform="translate(-184.952 -248.125)"/><path d="M190.68,248.86c0,.5-.273.76-.672.76a.675.675,0,0,1-.349-.08l.061-.122a.515.515,0,0,0,.286.069c.317,0,.521-.2.521-.6,0-.034,0-.076-.006-.12a.47.47,0,0,1-.449.252.445.445,0,0,1-.5-.441.458.458,0,0,1,.5-.452C190.468,248.125,190.68,248.4,190.68,248.86Zm-.208-.292c0-.162-.134-.315-.388-.315a.322.322,0,0,0-.359.319c0,.193.143.317.37.317A.34.34,0,0,0,190.472,248.568Z" transform="translate(-188.353 -248.125)"/></g><g transform="translate(21.497 51.147)"><path d="M213.5,249.221c0,.246-.179.435-.534.435a.765.765,0,0,1-.529-.189l.073-.12a.643.643,0,0,0,.456.17c.244,0,.378-.114.378-.3s-.124-.292-.4-.292h-.1v-.111l.407-.51H212.5v-.135h.945v.107l-.416.523C213.347,248.82,213.5,248.986,213.5,249.221Z" transform="translate(-212.441 -248.16)"/><path d="M217.271,248.873c0-.469.246-.748.586-.748s.588.279.588.748-.248.748-.588.748S217.271,249.341,217.271,248.873Zm1.019,0c0-.393-.177-.609-.433-.609s-.433.216-.433.609.177.609.433.609S218.29,249.266,218.29,248.873Z" transform="translate(-215.995 -248.125)"/></g><g transform="translate(29.148 51.159)"><path d="M242.458,249.221c0,.246-.179.435-.534.435a.765.765,0,0,1-.529-.189l.073-.12a.643.643,0,0,0,.456.17c.244,0,.378-.114.378-.3s-.124-.292-.4-.292h-.1v-.111l.407-.51h-.752v-.135h.945v.107l-.416.523C242.3,248.82,242.458,248.986,242.458,249.221Z" transform="translate(-241.395 -248.173)"/><path d="M246.38,248.173v1.47h-.151v-1.336h-.346v-.135Z" transform="translate(-244.696 -248.173)"/></g><g transform="translate(42.847 24.029)"><path d="M294.3,146.54c0,.25-.174.446-.534.446a.76.76,0,0,1-.527-.189l.073-.12a.637.637,0,0,0,.452.17c.25,0,.383-.122.383-.3s-.118-.307-.492-.307h-.313l.076-.737h.8v.134h-.672l-.05.469h.189C294.128,146.105,294.3,146.279,294.3,146.54Z" transform="translate(-293.235 -145.502)"/></g><g transform="translate(49.992 24.016)"><path d="M321.379,146.5a.458.458,0,0,1-.5.452c-.391,0-.6-.271-.6-.735,0-.5.273-.761.672-.761a.673.673,0,0,1,.349.08l-.061.122a.515.515,0,0,0-.286-.069c-.317,0-.521.2-.521.6,0,.034,0,.076.006.12a.47.47,0,0,1,.449-.252A.445.445,0,0,1,321.379,146.5Zm-.149,0c0-.193-.143-.317-.369-.317a.341.341,0,0,0-.378.321c0,.162.134.315.389.315A.322.322,0,0,0,321.23,146.5Z" transform="translate(-320.274 -145.453)"/></g><g transform="translate(19.405 16.861)"><path class="f" d="M206.876,118.711l-.481,1.471h-.365l-.324-1-.334,1h-.364l-.483-1.471h.353l.332,1.034.347-1.034h.315l.336,1.042.342-1.042Z" transform="translate(-204.525 -118.623)"/><path class="f" d="M214.6,120.61h-.855a.3.3,0,0,0,.323.227.382.382,0,0,0,.284-.109l.174.189a.66.66,0,0,1-1.111-.4.576.576,0,0,1,.6-.582.56.56,0,0,1,.588.586C214.611,120.546,214.607,120.582,214.6,120.61Zm-.859-.191h.557a.282.282,0,0,0-.557,0Z" transform="translate(-211.069 -119.523)"/><path class="f" d="M219.688,118.377v1.559h-.313v-.13a.435.435,0,0,1-.353.147.582.582,0,0,1,0-1.164.434.434,0,0,1,.339.137v-.549Zm-.321.994a.29.29,0,1,0-.288.313A.286.286,0,0,0,219.367,119.371Z" transform="translate(-214.775 -118.377)"/></g><g transform="translate(27.054 16.861)"><path class="f" d="M233.943,118.988h-.471v-.277h1.282v.277h-.471v1.193h-.34Z" transform="translate(-233.472 -118.623)"/><path class="f" d="M240.085,119.289v.647h-.328v-.6c0-.183-.084-.267-.229-.267s-.271.1-.271.3v.559h-.328v-1.559h.328v.546a.5.5,0,0,1,.359-.135A.443.443,0,0,1,240.085,119.289Z" transform="translate(-237.488 -118.377)"/><path class="f" d="M245.548,120v1.13h-.311v-.134a.457.457,0,0,1-.351.151.451.451,0,0,1-.483-.508V120h.328v.59c0,.189.084.273.229.273s.261-.1.261-.3V120Z" transform="translate(-241.514 -119.57)"/></g><g transform="translate(35.122 16.766)"><path class="f" d="M264.342,118.984v.389h.681v.273h-.681v.536H264v-1.471h1.111v.273Z" transform="translate(-264.002 -118.528)"/><path class="f" d="M269.621,119.935v.3c-.027,0-.048,0-.074,0a.278.278,0,0,0-.3.315v.534h-.328v-1.13h.313v.149A.457.457,0,0,1,269.621,119.935Z" transform="translate(-267.62 -119.429)"/><path class="f" d="M272.166,118.2a.187.187,0,0,1,.2-.183.184.184,0,0,1,.2.176.2.2,0,0,1-.407.006Zm.04.34h.328v1.13h-.328Z" transform="translate(-270.009 -118.02)"/></g><g transform="translate(41.886 16.924)"><path class="f" d="M289.6,119.967l.116-.256a.866.866,0,0,0,.485.153c.2,0,.284-.067.284-.157,0-.275-.855-.086-.855-.632,0-.25.2-.458.62-.458a.987.987,0,0,1,.51.13l-.105.258a.828.828,0,0,0-.408-.116c-.2,0-.279.076-.279.168,0,.271.855.084.855.624,0,.246-.2.456-.624.456A1.05,1.05,0,0,1,289.6,119.967Z" transform="translate(-289.599 -118.616)"/><path class="f" d="M295.82,120.437v.645h-.307v-.141a.371.371,0,0,1-.345.157c-.265,0-.422-.147-.422-.342s.141-.338.485-.338h.26c0-.141-.084-.223-.26-.223a.545.545,0,0,0-.326.105l-.118-.229a.87.87,0,0,1,.488-.137C295.621,119.935,295.82,120.095,295.82,120.437Zm-.328.288v-.115h-.225c-.153,0-.2.057-.2.132s.069.137.185.137A.241.241,0,0,0,295.493,120.725Z" transform="translate(-293.387 -119.586)"/><path class="f" d="M300.289,120.379a.47.47,0,0,1-.267.071.372.372,0,0,1-.422-.405v-.464h-.175v-.252h.175v-.275h.327v.275h.281v.252h-.281v.46a.132.132,0,0,0,.141.149.222.222,0,0,0,.132-.042Z" transform="translate(-296.828 -118.938)"/></g><g transform="translate(48.773 16.924)"><path class="f" d="M315.662,119.966l.115-.256a.865.865,0,0,0,.485.154c.2,0,.284-.067.284-.157,0-.275-.855-.086-.855-.632,0-.25.2-.458.62-.458a.988.988,0,0,1,.51.13l-.1.258a.832.832,0,0,0-.408-.115c-.2,0-.279.076-.279.168,0,.271.855.084.855.624,0,.246-.2.456-.624.456A1.047,1.047,0,0,1,315.662,119.966Z" transform="translate(-315.662 -118.615)"/><path class="f" d="M322.209,120v1.13H321.9v-.134a.457.457,0,0,1-.351.151.45.45,0,0,1-.483-.508V120h.328v.59c0,.189.084.273.229.273s.261-.1.261-.3V120Z" transform="translate(-319.637 -119.633)"/><path class="f" d="M327.708,120.435v.647h-.327v-.6c0-.183-.084-.267-.229-.267s-.271.1-.271.3v.559h-.328v-1.13h.313v.132a.5.5,0,0,1,.374-.149A.443.443,0,0,1,327.708,120.435Z" transform="translate(-323.675 -119.586)"/></g></g><g transform="translate(99.359 38.78)"><g transform="translate(14.969 50.338)"><g transform="translate(1.896 45.04)"><g transform="translate(0.01)"><path class="h" d="M367.506,439.567l.639,6.161s-6.048,2.719-6.04,3.869l11.99-.811-.6-9.641Z" transform="translate(-362.105 -439.146)"/></g><g class="i" transform="translate(0.01)"><path d="M367.506,439.567l.639,6.161s-6.048,2.719-6.04,3.869l11.99-.811-.6-9.641Z" transform="translate(-362.105 -439.146)"/></g><g class="j" transform="translate(9.164 5.798)"><path class="e" d="M397.306,461.1a.491.491,0,0,1,.376.536.472.472,0,0,1-.528.378.518.518,0,0,1-.4-.569.49.49,0,0,1,.593-.332" transform="translate(-396.747 -461.086)"/></g><g class="j" transform="translate(0 8.671)"><path class="e" d="M374.068,472.93l-.1-.97-11.459,1.14s-.518.268-.432.64Z" transform="translate(-362.069 -471.96)"/></g><g transform="translate(5.851 6.466)"><path class="f" d="M384.211,463.683c.006.058.3.065.6.234s.471.4.523.378-.058-.359-.426-.557S384.194,463.63,384.211,463.683Z" transform="translate(-384.21 -463.614)"/></g><g transform="translate(4.629 7.111)"><path class="f" d="M379.585,466.084c-.009.058.251.14.466.374s.291.492.349.486.073-.34-.2-.626S379.583,466.028,379.585,466.084Z" transform="translate(-379.585 -466.055)"/></g><g transform="translate(3.481 7.712)"><path class="f" d="M375.777,469.312c.054.009.116-.289-.056-.6s-.454-.42-.476-.369.16.21.3.467S375.719,469.311,375.777,469.312Z" transform="translate(-375.242 -468.332)"/></g><g transform="translate(5.859 4.863)"><path class="f" d="M384.243,457.8c.028.052.291-.047.624-.047s.6.087.624.035-.235-.244-.627-.239S384.211,457.755,384.243,457.8Z" transform="translate(-384.24 -457.548)"/></g><g transform="translate(5.755 2.8)"><path class="f" d="M383.848,450.81a1.126,1.126,0,0,0,.6-.044,2.707,2.707,0,0,0,.615-.235,2.869,2.869,0,0,0,.333-.206.746.746,0,0,0,.172-.154.256.256,0,0,0,.006-.313.322.322,0,0,0-.266-.117.776.776,0,0,0-.223.046,2.171,2.171,0,0,0-.365.153,2.125,2.125,0,0,0-.529.4c-.261.276-.341.5-.32.512s.151-.175.42-.407a2.4,2.4,0,0,1,.515-.338,2.234,2.234,0,0,1,.338-.13c.125-.042.233-.05.269,0,.013.021.015.029-.009.068a.594.594,0,0,1-.126.112,3.143,3.143,0,0,1-.3.2,3.336,3.336,0,0,1-.565.262A4.218,4.218,0,0,0,383.848,450.81Z" transform="translate(-383.848 -449.741)"/></g><g transform="translate(4.958 2.073)"><path class="f" d="M381.709,448.866a.957.957,0,0,0,.119-.591,1.948,1.948,0,0,0-.3-1.006.5.5,0,0,0-.4-.277.281.281,0,0,0-.239.184.81.81,0,0,0-.047.224,1.329,1.329,0,0,0,.027.4,1.384,1.384,0,0,0,.3.6c.255.295.5.348.508.328s-.194-.13-.393-.416a1.385,1.385,0,0,1-.228-.551,1.244,1.244,0,0,1-.012-.348c.01-.129.051-.235.1-.225s.168.084.223.183a2,2,0,0,1,.171.316,2.171,2.171,0,0,1,.157.591C381.725,448.636,381.677,448.859,381.709,448.866Z" transform="translate(-380.83 -446.992)"/></g></g><g transform="translate(0 1.478)"><path class="f" d="M360.959,274.292s-5.9,22.844-6.063,25,7.372,20.9,7.372,20.9l5.8-1.1s-.369-27.45-.557-27.988S369,277.08,369,277.08Z" transform="translate(-354.894 -274.292)"/></g><g transform="translate(3.663 45.748)"><g transform="translate(0.003)"><path class="h" d="M375.078,441.825l.064,6.194s-6.274,2.145-6.374,3.291l12.012.125.3-9.473Z" transform="translate(-368.768 -441.825)"/></g><g class="j" transform="translate(9.508 5.745)"><path class="e" d="M405.333,463.589a.491.491,0,0,1,.325.569.472.472,0,0,1-.561.327.518.518,0,0,1-.341-.6.49.49,0,0,1,.621-.276" transform="translate(-404.736 -463.565)"/></g><g class="j" transform="translate(0 8.818)"><path class="e" d="M380.771,475.985l-.007-.792-11.516.07s-.541.219-.49.6Z" transform="translate(-368.755 -475.193)"/></g><g transform="translate(6.184 6.078)"><path class="f" d="M392.156,464.875c0,.059.293.093.577.289s.431.446.486.425-.024-.363-.372-.594S392.145,464.821,392.156,464.875Z" transform="translate(-392.156 -464.826)"/></g><g transform="translate(4.91 6.594)"><path class="f" d="M387.336,466.8c-.015.057.237.163.43.416s.244.517.3.516.1-.332-.141-.642S387.339,466.747,387.336,466.8Z" transform="translate(-387.336 -466.78)"/></g><g transform="translate(3.712 7.083)"><path class="f" d="M383.247,469.652c.053.014.142-.277,0-.6s-.414-.46-.44-.412.139.224.252.493S383.189,469.645,383.247,469.652Z" transform="translate(-382.802 -468.629)"/></g><g transform="translate(6.324 4.518)"><path class="f" d="M392.689,459.119c.023.054.294-.02.625.011s.587.142.619.092-.211-.265-.6-.3S392.661,459.072,392.689,459.119Z" transform="translate(-392.687 -458.922)"/></g><g class="i" transform="translate(6.327 1.227)"><path d="M392.7,446.467l.01,1.1,5.906.1.033-.993Z" transform="translate(-392.699 -446.467)"/></g><g transform="translate(6.336 2.535)"><path class="f" d="M392.732,452.349a1.126,1.126,0,0,0,.6.012,2.7,2.7,0,0,0,.634-.177,2.866,2.866,0,0,0,.35-.175.727.727,0,0,0,.185-.137.256.256,0,0,0,.035-.311.322.322,0,0,0-.254-.141.78.78,0,0,0-.226.025,2.127,2.127,0,0,0-.941.469c-.285.251-.386.468-.366.48s.166-.16.455-.366a2.394,2.394,0,0,1,.544-.289,2.219,2.219,0,0,1,.348-.1c.128-.03.237-.028.268.029.011.022.013.03-.015.067a.611.611,0,0,1-.136.1,3.149,3.149,0,0,1-.322.173,3.318,3.318,0,0,1-.587.208A4.2,4.2,0,0,0,392.732,452.349Z" transform="translate(-392.732 -451.419)"/></g><g transform="translate(5.654 1.63)"><path class="f" d="M390.909,449.913a.958.958,0,0,0,.174-.577,1.949,1.949,0,0,0-.209-1.03.5.5,0,0,0-.376-.313.281.281,0,0,0-.256.161.825.825,0,0,0-.067.219,1.336,1.336,0,0,0-.011.405,1.386,1.386,0,0,0,.241.628c.227.317.47.393.475.374s-.181-.147-.353-.451a1.386,1.386,0,0,1-.176-.57,1.233,1.233,0,0,1,.02-.347c.022-.127.072-.229.12-.215s.159.1.205.2a2.019,2.019,0,0,1,.141.33,2.158,2.158,0,0,1,.1.6C390.945,449.685,390.877,449.9,390.909,449.913Z" transform="translate(-390.153 -447.992)"/></g></g><g transform="translate(6.267)"><path class="f" d="M392.109,268.7l-13.5.372,1.938,24.017,1.2,23.151,7,.244c.358-4.468.229-13.643.229-13.643l.5-3.945,1.782-13.9c.135-.59.63-3.536,1.141-5.9.293-1.356.719-3.114.809-3.689C393.483,273.718,392.109,268.7,392.109,268.7Z" transform="translate(-378.61 -268.7)"/></g><g transform="translate(6.653 5.898)"><path class="h" d="M380.471,291.021a.619.619,0,0,1,0,.108l-.009.315c-.011.285-.027.692-.047,1.213s-.05,1.171-.073,1.919-.059,1.6-.077,2.542c-.051,1.884-.079,4.127-.07,6.618s.079,5.229.219,8.1.365,5.6.612,8.081c.136,1.238.256,2.416.405,3.513.072.549.133,1.081.206,1.589l.214,1.463c.128.933.279,1.772.4,2.511s.232,1.374.33,1.891l.215,1.194.053.311a.608.608,0,0,1,.013.107.655.655,0,0,1-.027-.1l-.066-.309-.241-1.19c-.106-.517-.229-1.149-.353-1.888s-.284-1.576-.419-2.51l-.223-1.463c-.076-.509-.14-1.04-.214-1.59-.154-1.1-.279-2.276-.418-3.515-.254-2.48-.475-5.213-.623-8.087s-.2-5.614-.208-8.106.036-4.737.1-6.621c.024-.942.066-1.794.1-2.542s.064-1.392.1-1.918.056-.927.073-1.212l.022-.315A.621.621,0,0,1,380.471,291.021Z" transform="translate(-380.071 -291.021)"/></g></g><g transform="translate(24.484)"><g transform="translate(7.812)"><path class="f" d="M421.539,79.244a2.28,2.28,0,0,1,3.757-1.826,1.984,1.984,0,0,0,.522.391,1.85,1.85,0,0,0,.779.031,2.751,2.751,0,0,1,2.485,4.205,2.961,2.961,0,0,1,1.211,4.893,1.918,1.918,0,0,1-.75,3.141,1.343,1.343,0,0,0-.582.275c-.411.444.2,1.226-.1,1.75-.231.4-.877.425-1.05.85-.124.306.069.642.093.971.052.715-.7,1.236-1.4,1.383a4.387,4.387,0,0,1-3.872-1.3,7.448,7.448,0,0,1-1.885-3.751c-.7-3.258.029-6.634.758-9.886" transform="translate(-420.463 -76.882)"/></g><g transform="translate(0 1.786)"><g transform="translate(7.502)"><path class="k" d="M419.6,85.208a.891.891,0,1,1,1.212-1.3c.093.1.179.228.313.244s.239-.079.35-.146a.881.881,0,0,1,1.321.91,1.016,1.016,0,0,1,1.277.363.89.89,0,0,1-.462,1.084,1.937,1.937,0,0,1-1.271.091,5.048,5.048,0,0,1-2.665-1.478" transform="translate(-419.289 -83.642)"/></g><g transform="translate(10.596 1.255)"><path class="e" d="M431,88.872c.01.025.16-.024.276-.171s.129-.3.1-.308-.08.119-.182.245S430.985,88.846,431,88.872Z" transform="translate(-430.998 -88.393)"/></g><g transform="translate(8.974 0.623)"><path class="e" d="M424.9,86.913c.03,0,.023-.221.1-.47s.211-.423.189-.443a.864.864,0,0,0-.294.913Z" transform="translate(-424.861 -85.999)"/></g><g transform="translate(8.097 0.348)"><path class="e" d="M421.617,85.9c.029-.007-.017-.225.047-.481s.2-.432.176-.451a.772.772,0,0,0-.223.933Z" transform="translate(-421.541 -84.961)"/></g><g transform="translate(11.203 1.492)"><path class="e" d="M433.3,90.111c0,.012.069.015.17-.021a.741.741,0,0,0,.479-.633c.007-.106-.013-.17-.026-.169a1.041,1.041,0,0,1-.623.823Z" transform="translate(-433.296 -89.288)"/></g><g transform="translate(0.073 1.037)"><path class="f" d="M392.684,97.839a1.41,1.41,0,0,1-.855-1.671,1.7,1.7,0,0,1-.229-2.459,1.193,1.193,0,0,1,.819-2.057,1.614,1.614,0,0,1,1.884-2.072,1.478,1.478,0,0,1,2.366-1.327,2.13,2.13,0,0,1,3.184.056,2,2,0,0,1,2.692.986,1.61,1.61,0,0,1,2.181.371,3.1,3.1,0,0,1,.486,2.349,1.358,1.358,0,0,1,.075,2.364,2.336,2.336,0,0,1-.6,3.2,2.689,2.689,0,0,1-1.463,2.6" transform="translate(-391.176 -87.566)"/></g><g transform="translate(1.623 4.816)"><path class="l" d="M406.945,104.14l.394-.959-6.007-1.292a4.015,4.015,0,0,0-4.075,3.439,33.263,33.263,0,0,0-.11,6.162c.42,3.125,2.8,3.2,2.8,3.2l-.08,5.269,6.9-2.479Z" transform="translate(-397.041 -101.867)"/></g><g transform="translate(4.508 16.595)"><path class="m" d="M407.976,147.46a8.243,8.243,0,0,0,4.3-1.016s-1.1,2.154-4.318,1.792Z" transform="translate(-407.959 -146.444)"/></g><g transform="translate(1.867 2.779)"><path class="f" d="M404.632,96.308a1.532,1.532,0,0,1-.4.651.527.527,0,0,1-.7,0,.693.693,0,0,1-1.068-.132.945.945,0,0,1-1.143.052l-.938.152c-.34.055-.759.078-.951-.208-.044-.066-.075-.148-.146-.186a.437.437,0,0,0-.238-.01.8.8,0,0,1-.678-.365,2.363,2.363,0,0,1-.307-.739c-.114-.4-.194-.9.137-1.151a1.029,1.029,0,0,1,.456-.152,2.32,2.32,0,0,1,.981-.021,1.718,1.718,0,0,1,.928.75.434.434,0,0,1,.3-.522.851.851,0,0,1,.646.094,1.713,1.713,0,0,1,.692.655,1.406,1.406,0,0,1,1.212.835,1.018,1.018,0,0,1,.8-.1.361.361,0,0,1,.233.164.163.163,0,0,1-.095.233" transform="translate(-397.965 -94.159)"/></g><g transform="translate(0 3.933)"><path class="f" d="M396.424,99.544a1.028,1.028,0,0,1-1.635,1.113.949.949,0,0,1-1.1.554,1.488,1.488,0,0,1-.831,1.265,1.154,1.154,0,0,1-.023.85.715.715,0,0,1-.373.4.81.81,0,0,1-.638-.08,1.142,1.142,0,0,1-.62-.669.661.661,0,0,1,.337-.787,2.483,2.483,0,0,1-.575-.923.8.8,0,0,1-.018-.61.35.35,0,0,1,.519-.142.915.915,0,0,1,1.042-1.281.76.76,0,0,1,1.288-.493" transform="translate(-390.899 -98.524)"/></g><g transform="translate(8.98 4.002)"><path class="f" d="M425.16,99.587a.78.78,0,0,1,.746-.71,1.922,1.922,0,0,1,1.071.32,1.331,1.331,0,0,1,1.492-.3c.491.226.787.725,1.182,1.094a2.746,2.746,0,0,1,.595.616.562.562,0,0,1-.14.759.968.968,0,0,1,.188,1.692c-.091.063-.2.118-.241.221a.419.419,0,0,0,.013.272,9.892,9.892,0,0,1,.4,1.264,1.143,1.143,0,0,1-.437,1.17c-.1.059-.224.1-.274.209a.361.361,0,0,0-.01.226,4.1,4.1,0,0,0,.277.7,1.049,1.049,0,0,1,.076.736.479.479,0,0,1-.6.315,1.552,1.552,0,0,1-.232,1.433,1.734,1.734,0,0,1-1.946.106l.021-1.427c.093-.246-.225-1.6-.048-1.865,0,0,.377.949-.576.743-.317.069-.87-.881-.894-1.2a.862.862,0,0,1,.483-.783,1.461,1.461,0,0,1-.278-1.853.781.781,0,0,1-.073-1.515,1.6,1.6,0,0,1-.911-2.208" transform="translate(-424.881 -98.787)"/></g><g transform="translate(11.092 10.821)"><path class="l" d="M432.876,124.706c.044-.022,1.792-.626,1.822,1.186a1.362,1.362,0,0,1-1.8,1.416C432.894,127.257,432.876,124.706,432.876,124.706Z" transform="translate(-432.876 -124.593)"/></g><g transform="translate(11.655 11.402)"><path class="m" d="M435.008,128.232c.008-.006.032.022.086.045a.315.315,0,0,0,.236,0,.781.781,0,0,0,.35-.707,1.039,1.039,0,0,0-.1-.45.365.365,0,0,0-.242-.239.16.16,0,0,0-.185.09c-.024.051-.011.087-.021.09s-.039-.03-.026-.1a.2.2,0,0,1,.069-.114.238.238,0,0,1,.174-.049.444.444,0,0,1,.335.276,1.072,1.072,0,0,1,.118.5.819.819,0,0,1-.448.79.338.338,0,0,1-.289-.043C435.012,128.276,435,128.235,435.008,128.232Z" transform="translate(-435.006 -126.793)"/></g></g><g transform="translate(11.288 4.243)"><path class="h" d="M433.77,93.247a.458.458,0,0,1,.1-.059,1.628,1.628,0,0,1,.3-.138,1.677,1.677,0,0,1,1.23.01,2.539,2.539,0,0,1,1.29,1.37,3.278,3.278,0,0,1,.236,1.138,1.767,1.767,0,0,1-.1.626,1.191,1.191,0,0,1-.389.542l-.014-.108a1.45,1.45,0,0,1,.424,2.421c-.03.028-.063.053-.092.077l-.012-.112a1.144,1.144,0,0,1,.581.707,1.942,1.942,0,0,1,.06.882,7.423,7.423,0,0,1-.575,1.534,3.39,3.39,0,0,0-.216.712c-.044.238-.066.476-.105.706a2.191,2.191,0,0,1-.546,1.169,2.394,2.394,0,0,1-1.658.785,2,2,0,0,1-.5-.045.871.871,0,0,1-.169-.052,3.028,3.028,0,0,0,.67.047,2.379,2.379,0,0,0,1.592-.8,2.1,2.1,0,0,0,.507-1.125c.037-.225.057-.462.1-.708a3.487,3.487,0,0,1,.217-.737,7.511,7.511,0,0,0,.56-1.508,1.816,1.816,0,0,0-.057-.822,1.015,1.015,0,0,0-.513-.628l-.092-.043.08-.069c.026-.022.056-.044.083-.07a1.324,1.324,0,0,0-.383-2.207l-.1-.042.088-.066a1.285,1.285,0,0,0,.444-1.068,3.191,3.191,0,0,0-.217-1.1,2.477,2.477,0,0,0-1.222-1.339,1.666,1.666,0,0,0-1.187-.042,2.051,2.051,0,0,0-.306.118A.473.473,0,0,1,433.77,93.247Z" transform="translate(-433.615 -92.937)"/></g><g transform="translate(8.893 4.2)"><path class="h" d="M427.661,92.776a.539.539,0,0,1,.17.152,1.43,1.43,0,0,1,.281.558,1.5,1.5,0,0,1-1.638,1.847l.055-.02a1.89,1.89,0,0,1-1.391.576,1.614,1.614,0,0,1-.439-.067c-.1-.032-.149-.057-.146-.064a4.042,4.042,0,0,0,.584.05,1.886,1.886,0,0,0,1.3-.582l.022-.024.033,0a1.441,1.441,0,0,0,1.456-.841,1.441,1.441,0,0,0,.075-.859A1.9,1.9,0,0,0,427.661,92.776Z" transform="translate(-424.553 -92.776)"/></g><g transform="translate(8.99 4.549)"><path class="h" d="M429.364,94.1s.021.017.049.057a1.261,1.261,0,0,1,.11.185,1.917,1.917,0,0,1,.187.77,2.031,2.031,0,0,1-.3,1.137,1.964,1.964,0,0,1-1.167.836,2,2,0,0,1-1.227-.059l.076-.026a1.457,1.457,0,0,1-.788.622,1.39,1.39,0,0,1-.789.019,1.34,1.34,0,0,1-.462-.225c-.095-.073-.135-.124-.131-.129a1.965,1.965,0,0,0,.612.279,1.35,1.35,0,0,0,.737-.044,1.372,1.372,0,0,0,.715-.586l.027-.045.049.019a1.917,1.917,0,0,0,1.148.048,1.873,1.873,0,0,0,1.1-.773,1.992,1.992,0,0,0,.31-1.07A2.406,2.406,0,0,0,429.364,94.1Z" transform="translate(-424.92 -94.096)"/></g></g><g transform="translate(0 20.829)"><g transform="translate(0 5.108)"><g transform="translate(2.201 4.108)"><path class="m" d="M307.059,191.859l.272.252a.169.169,0,0,0,.1.057.148.148,0,0,0,.117-.09.664.664,0,0,0,.039-.523,1.1,1.1,0,0,0-.294-.446.322.322,0,0,0-.215-.113.337.337,0,0,0-.212.116c-.081.077-.158.158-.231.242a.142.142,0,0,0,.009.243c.118.105.292.156.41.261" transform="translate(-306.576 -190.997)"/></g><path class="l" d="M303.217,175.751c-.4-.033-2.2-.3-2.2-.3l-2.767.537s.087.794.656.737,1.2-.054,1.2-.054l.989.165a7.825,7.825,0,0,0-1.438,1.048.8.8,0,0,0,.079.386,1.429,1.429,0,0,0-.083,1l-.012,1.294,1.264.956a1.039,1.039,0,0,0,.136-.694c-.074-.368-.564-.6-.564-.6l.325-.526.465-.143a24.122,24.122,0,0,0,3.654.95l.586.563,2.24-2.753S303.618,175.784,303.217,175.751Z" transform="translate(-298.246 -175.45)"/><g transform="translate(1.437 2.932)"><path class="m" d="M305.291,186.552c.011.036-.377.176-.816.421s-.765.5-.79.469a2.8,2.8,0,0,1,1.606-.889Z" transform="translate(-303.684 -186.546)"/></g><g transform="translate(1.55 1.931)"><path class="m" d="M305.884,182.763a8.442,8.442,0,0,1-.889.455,8.347,8.347,0,0,1-.885.463,3.834,3.834,0,0,1,1.774-.919Z" transform="translate(-304.11 -182.758)"/></g><g transform="translate(2.786 0.507)"><path class="m" d="M310.323,177.374a5.561,5.561,0,0,1-.735.505,2.421,2.421,0,0,1-.8.409,4.628,4.628,0,0,1,.729-.517A2.228,2.228,0,0,1,310.323,177.374Z" transform="translate(-308.789 -177.369)"/></g></g><g transform="translate(18.731)"><path class="g" d="M388.531,164.806l-3.181,15.725s2.433,6.245,2.053,9.138c-.221,1.678-1.244,5.332-1.244,5.332L370.2,189.639a1.63,1.63,0,0,1-1.045-1.8c.693-4.164,2.833-16.843,3.68-19.683,1.434-4.812,5.867-10.4,5.867-10.4h0l.087-1.638,8.076.117-.049,1.652A8.358,8.358,0,0,1,388.531,164.806Z" transform="translate(-369.129 -156.118)"/></g><g transform="translate(6.737 3.236)"><path class="g" d="M349.489,168.451c.97-.272,1.1.1,2.661.8s1.861,4.475,1.861,4.475l-2.2,3.831-11.541,6.653s-2.353,1.67-6.03-.859c-1.349-.928-10.5-6.972-10.5-6.972l2.664-4.025,10.8,4.86Z" transform="translate(-323.742 -168.362)"/><g class="i" transform="translate(19.295 7.319)"><path d="M397.631,202.487l9.63-6.265a.779.779,0,0,1,.4-.163.523.523,0,0,1,.465.561,1.255,1.255,0,0,1-.345.722,9.365,9.365,0,0,1-3.518,2.279c-2.2.99-5.3,2.412-7.5,3.4Z" transform="translate(-396.759 -196.06)"/></g></g><g transform="translate(9.401 4.535)"><path class="n" d="M355.288,173.279a.234.234,0,0,1-.048.043l-.15.115-.584.43-2.163,1.56-7.165,5.1-.463.328-.032.023-.036-.016-7.684-3.439-2.3-1.048-.622-.29-.16-.078a.2.2,0,0,1-.053-.031.208.208,0,0,1,.058.018l.166.066.632.267L337,177.338l7.7,3.4-.068.007.463-.328,7.189-5.07,2.188-1.524.6-.409.158-.1A.223.223,0,0,1,355.288,173.279Z" transform="translate(-333.824 -173.279)"/></g><g transform="translate(17.347 11.253)"><path class="n" d="M382.306,198.7a1.248,1.248,0,0,1-.169.132c-.113.083-.282.2-.5.353-.438.3-1.079.732-1.874,1.257-1.592,1.047-3.8,2.477-6.278,4-1.241.758-2.426,1.475-3.545,2.062-.138.075-.279.145-.422.206l-.211.095-.216.075a4.232,4.232,0,0,1-.857.187,4.935,4.935,0,0,1-1.566-.069,5.907,5.907,0,0,1-1.232-.389c-.177-.07-.331-.158-.479-.227s-.272-.151-.387-.22c-.226-.142-.4-.257-.51-.344a.107.107,0,1,1,.016-.023c.116.079.292.186.521.32l.389.208c.148.065.3.148.479.214a5.959,5.959,0,0,0,1.22.365,4.6,4.6,0,0,0,3.2-.511c1.109-.588,2.292-1.31,3.532-2.066,2.475-1.521,4.692-2.938,6.3-3.964l1.9-1.22.516-.332A1.237,1.237,0,0,1,382.306,198.7Z" transform="translate(-363.892 -198.702)"/></g><g transform="translate(31.751 2.918)"><path class="n" d="M423.529,168.215c-.016.019-.249-.192-.69-.428a4.036,4.036,0,0,0-3.734-.058c-.448.222-.688.426-.7.406s.048-.064.157-.156a3.265,3.265,0,0,1,.5-.337,3.844,3.844,0,0,1,3.826.059,3.238,3.238,0,0,1,.49.352C423.483,168.149,423.535,168.208,423.529,168.215Z" transform="translate(-418.403 -167.162)"/></g><g transform="translate(28.352 1.633)"><path class="n" d="M413.422,162.395a1.365,1.365,0,0,1-.3.087c-.2.049-.482.106-.838.165a16.416,16.416,0,0,1-5.612-.068c-.354-.067-.639-.132-.833-.185a1.378,1.378,0,0,1-.3-.095,1.379,1.379,0,0,1,.31.042c.2.037.484.087.838.141a19.558,19.558,0,0,0,5.582.068c.356-.046.643-.088.842-.121A1.392,1.392,0,0,1,413.422,162.395Z" transform="translate(-405.538 -162.296)"/></g><g transform="translate(32.253 19.256)"><path class="f" d="M420.3,228.989a6.307,6.307,0,0,1,.385.78c.227.486.546,1.154.922,1.88s.738,1.372,1,1.838a6.327,6.327,0,0,1,.415.764,4.786,4.786,0,0,1-.5-.714c-.288-.454-.665-1.1-1.043-1.824s-.684-1.407-.889-1.9A4.791,4.791,0,0,1,420.3,228.989Z" transform="translate(-420.301 -228.988)"/></g><g transform="translate(21.832 31.777)"><path class="f" d="M380.866,278.819a3.792,3.792,0,0,0,.617-2.446,2.426,2.426,0,0,1-.617,2.446Z" transform="translate(-380.863 -276.373)"/></g><g transform="translate(25.691 33.083)"><path class="f" d="M396.433,281.314a.865.865,0,0,1,.077.4,2.47,2.47,0,0,1-.711,1.81c-.182.179-.321.256-.331.243a3.243,3.243,0,0,0,.964-2.456Z" transform="translate(-395.468 -281.314)"/></g><g transform="translate(30.485 34.266)"><path class="f" d="M414.545,285.792a3.441,3.441,0,0,1-.932,2.856,5.54,5.54,0,0,0,.932-2.856Z" transform="translate(-413.61 -285.792)"/></g><g transform="translate(34.067 35.217)"><path class="f" d="M427.779,289.389a1.332,1.332,0,0,1,.1.484,4.21,4.21,0,0,1-.442,2.327,1.336,1.336,0,0,1-.275.412,6.065,6.065,0,0,0,.612-3.223Z" transform="translate(-427.165 -289.389)"/></g></g></g><g transform="translate(31.667 87.098)"><g transform="translate(9.098 39.61)"><g transform="translate(0.036 0.036)"><rect class="f" width="21.177" height="2.91"/></g><path class="f" d="M75.251,410.951H96.5v2.982H75.251Zm21.177.072h-21.1v2.837h21.1Z" transform="translate(-75.251 -410.951)"/></g><g transform="translate(11.074 41.587)"><path class="f" d="M100,418.435l-3.048,15.038H85.676L82.729,419.4Z" transform="translate(-82.729 -418.435)"/></g><g transform="translate(11.074 55.203)"><path class="h" d="M100,469.961,98.377,472.2H84.668l-1.939-2.235Z" transform="translate(-82.729 -469.961)"/></g><g transform="translate(20.475 10.907)"><path class="f" d="M118.346,333.451c.042,0,.1-6.967.119-15.559s.01-15.561-.031-15.561-.1,6.965-.119,15.56S118.3,333.45,118.346,333.451Z" transform="translate(-118.303 -302.331)"/></g><g transform="translate(15.8 24.592)"><path class="f" d="M100.613,354.12a.75.75,0,0,0,.057.162l.189.451.138.325.141.4.163.453c.057.161.1.336.157.517a21.07,21.07,0,0,1,.592,2.593,31.567,31.567,0,0,1,.328,3.242,43.692,43.692,0,0,1-.168,5.923c-.068.756-.137,1.367-.187,1.789-.022.2-.039.359-.053.487a.755.755,0,0,0-.009.171.721.721,0,0,0,.039-.167l.082-.483c.068-.42.153-1.03.235-1.786a38.96,38.96,0,0,0,.212-5.941,29.594,29.594,0,0,0-.341-3.258,19.651,19.651,0,0,0-.628-2.6c-.059-.181-.107-.356-.168-.517l-.175-.452-.154-.393c-.052-.119-.105-.225-.151-.321l-.215-.44A.715.715,0,0,0,100.613,354.12Z" transform="translate(-100.613 -354.12)"/></g><g transform="translate(16.342 18.957)"><path class="f" d="M102.662,332.8a1.439,1.439,0,0,0,.067.23l.22.648.162.467.17.563c.124.4.267.861.4,1.377l.212.805.2.881c.148.606.255,1.265.391,1.953.233,1.384.439,2.913.581,4.527s.192,3.158.212,4.561c0,1.4-.013,2.669-.071,3.729-.019.531-.053,1.01-.08,1.431s-.051.784-.078,1.079-.039.513-.052.683a1.392,1.392,0,0,0-.008.239,1.448,1.448,0,0,0,.038-.236q.03-.254.08-.68c.036-.3.071-.657.1-1.079s.077-.9.1-1.432c.071-1.061.1-2.329.1-3.736-.013-1.407-.067-2.954-.2-4.573s-.353-3.152-.594-4.538c-.141-.69-.252-1.349-.406-1.956l-.208-.882-.222-.805c-.135-.515-.286-.972-.418-1.374l-.183-.56-.175-.464-.248-.639A1.392,1.392,0,0,0,102.662,332.8Z" transform="translate(-102.662 -332.797)"/></g><g transform="translate(21.854 11.849)"><path class="f" d="M123.526,337.307a.332.332,0,0,0,.012-.081l.02-.24c.015-.222.036-.531.062-.923.051-.813.123-1.969.212-3.394.184-2.865.45-6.823.932-11.175.246-2.176.532-4.243.829-6.117.158-.935.3-1.825.464-2.653s.31-1.6.457-2.3.294-1.334.419-1.89.241-1.033.341-1.422l.22-.9.053-.235a.347.347,0,0,0,.013-.081.314.314,0,0,0-.028.077l-.068.231-.248.891c-.108.387-.235.861-.366,1.417s-.3,1.184-.441,1.888-.321,1.47-.476,2.3-.316,1.718-.478,2.654c-.3,1.875-.6,3.944-.842,6.122-.483,4.357-.732,8.319-.888,11.185-.078,1.434-.132,2.594-.164,3.4-.015.393-.026.7-.034.924,0,.1,0,.178-.005.24A.333.333,0,0,0,123.526,337.307Z" transform="translate(-123.523 -305.897)"/></g><g transform="translate(17.486 12.514)"><path class="o" d="M110.2,310.155a2.1,2.1,0,0,1,2.081-1.742,3.275,3.275,0,0,1,2.521,1.369,7.882,7.882,0,0,1,1.214,2.695,18.306,18.306,0,0,1,.747,7.17,10.852,10.852,0,0,1-2.984,6.465,1.221,1.221,0,0,1-1.028.47,1.238,1.238,0,0,1-.542-.335,16.047,16.047,0,0,1-5.208-12.2,4.954,4.954,0,0,1,.653-2.625c.506-.761,1.685-1.569,2.546-1.264" transform="translate(-106.991 -308.414)"/></g><g transform="translate(19.558)"><g transform="translate(8.535 2.738)"><path class="o" d="M147.131,275.031l1.4,2.528c.033.059.076.125.143.13s.128-.063.168-.125l3.691-5.665-.851-.482Z" transform="translate(-147.131 -271.418)"/></g><path class="p" d="M115.882,271.963l12.59-7.429a.587.587,0,0,0,.307-.309c.05-.186-.09-.366-.224-.5a8.677,8.677,0,0,0-6.728-2.643,7.687,7.687,0,0,0-6.083,3.783,6.935,6.935,0,0,0,.138,7.1" transform="translate(-114.834 -261.057)"/><g transform="translate(0.955 1.06)"><path class="f" d="M129.317,265.114a.685.685,0,0,0-.165-.021c-.109-.005-.269-.025-.476-.023a9.443,9.443,0,0,0-1.747.139,10.21,10.21,0,0,0-8.149,7.374,9.471,9.471,0,0,0-.312,1.725,3.5,3.5,0,0,0-.019.367.621.621,0,0,0,.1.275,2.124,2.124,0,0,1-.019-.636,10.714,10.714,0,0,1,.356-1.7,10.285,10.285,0,0,1,8.066-7.3,10.758,10.758,0,0,1,1.728-.185C129.088,265.12,129.316,265.127,129.317,265.114Z" transform="translate(-118.449 -265.068)"/></g><g transform="translate(2.752 5.776)"><path class="f" d="M125.248,282.916a3.034,3.034,0,0,0,.636.289c.4.158.962.36,1.589.559s1.2.358,1.621.46a3.029,3.029,0,0,0,.687.131,3.43,3.43,0,0,0-.658-.234l-1.6-.5-1.6-.516A3.413,3.413,0,0,0,125.248,282.916Z" transform="translate(-125.247 -282.913)"/></g><g transform="translate(4.581 0.453)"><path class="f" d="M132.324,262.77a8.808,8.808,0,0,0-.071,2.815,26.331,26.331,0,0,0,.071-2.815Z" transform="translate(-132.171 -262.77)"/></g><g transform="translate(7.327 1.785)"><path class="f" d="M148.983,269.362a5.639,5.639,0,0,0-.915-.322c-.572-.177-1.369-.4-2.257-.614s-1.7-.378-2.289-.481a5.63,5.63,0,0,0-.961-.13,6.791,6.791,0,0,0,.94.234c.583.13,1.388.31,2.274.523s1.685.42,2.263.57A6.8,6.8,0,0,0,148.983,269.362Z" transform="translate(-142.562 -267.811)"/></g></g><g transform="translate(25.355 11.176)"><path class="o" d="M137.333,304.288a5.163,5.163,0,0,1,3.586-.929,10.962,10.962,0,0,1,3.925,1.013,12.1,12.1,0,0,1,5.387,4.24,7.076,7.076,0,0,1,.76,6.622.944.944,0,0,1-.43.522,1.028,1.028,0,0,1-.711-.054,39.77,39.77,0,0,1-7.067-2.816,13.334,13.334,0,0,1-5.433-5.191,4.464,4.464,0,0,1-.572-1.723,2.142,2.142,0,0,1,.554-1.682" transform="translate(-136.772 -303.349)"/><g transform="translate(0.54 0.683)"><path class="f" d="M138.815,305.934a.9.9,0,0,0,.174.071l.506.174.366.122c.133.048.274.107.428.167.305.124.66.247,1.033.428l.592.27c.205.095.41.211.627.322.438.215.88.49,1.352.768a21.37,21.37,0,0,1,5.327,4.686c.336.433.665.837.934,1.244.137.2.279.389.4.581l.343.553c.227.347.395.683.557.971.078.145.155.278.22.4l.168.348.237.48a.885.885,0,0,0,.092.163.876.876,0,0,0-.064-.175l-.212-.492-.156-.355c-.061-.128-.135-.263-.21-.41-.155-.292-.317-.634-.539-.986l-.337-.561c-.118-.194-.258-.385-.394-.59-.266-.412-.594-.822-.929-1.259a20.692,20.692,0,0,0-5.362-4.718c-.477-.277-.925-.549-1.367-.761-.22-.109-.427-.223-.635-.316l-.6-.262c-.378-.176-.738-.293-1.047-.41-.156-.056-.3-.112-.434-.155l-.372-.11-.516-.147A.846.846,0,0,0,138.815,305.934Z" transform="translate(-138.815 -305.933)"/></g><g transform="translate(9 5.261)"><path class="f" d="M170.83,323.262a50.845,50.845,0,0,0,5.311,1.552,50.717,50.717,0,0,0-5.311-1.552Z" transform="translate(-170.83 -323.259)"/></g><g transform="translate(8.937 5.477)"><path class="f" d="M170.762,329.676a4.213,4.213,0,0,0,.058-.821c.014-.507.016-1.209-.006-1.983s-.063-1.475-.105-1.981a4.207,4.207,0,0,0-.1-.816,4.7,4.7,0,0,0,0,.822c.017.556.038,1.232.061,1.979s.036,1.423.049,1.979A4.686,4.686,0,0,0,170.762,329.676Z" transform="translate(-170.591 -324.075)"/></g><g transform="translate(4.117 2.164)"><path class="f" d="M152.362,317.914c.041,0,.174-1.422.3-3.183s.187-3.191.145-3.194-.174,1.422-.3,3.183S152.321,317.911,152.362,317.914Z" transform="translate(-152.35 -311.537)"/></g><g transform="translate(4.578 1.999)"><path class="f" d="M159.845,310.941a4.685,4.685,0,0,0-.844-.026c-.521,0-1.239.019-2.033.045s-1.512.058-2.032.089a4.7,4.7,0,0,0-.841.081,4.662,4.662,0,0,0,.843.026c.521,0,1.24-.019,2.034-.045s1.513-.058,2.032-.089A4.669,4.669,0,0,0,159.845,310.941Z" transform="translate(-154.096 -310.914)"/></g></g><g transform="translate(20.773 14.291)"><path class="f" d="M122.387,331.391a.721.721,0,0,0,.018-.169c.006-.127.013-.287.022-.484.019-.421.023-1.03.007-1.783s-.065-1.649-.155-2.641-.24-2.078-.443-3.211-.459-2.2-.717-3.164-.533-1.82-.786-2.532-.469-1.283-.636-1.671l-.192-.447a.721.721,0,0,0-.076-.152.7.7,0,0,0,.048.163l.165.457c.149.394.352.969.589,1.683s.5,1.572.752,2.533.495,2.028.7,3.155.348,2.211.453,3.2.16,1.881.187,2.631.041,1.359.041,1.779c0,.2,0,.358.006.484A.722.722,0,0,0,122.387,331.391Z" transform="translate(-119.43 -315.139)"/></g><g transform="translate(23.065 22.299)"><path class="f" d="M128.107,345.444a3.444,3.444,0,0,0,.5.551c.326.325.788.761,1.316,1.224s1.021.864,1.385,1.144a3.43,3.43,0,0,0,.612.426,3.884,3.884,0,0,0-.545-.508l-1.354-1.176-1.342-1.188A3.912,3.912,0,0,0,128.107,345.444Z" transform="translate(-128.106 -345.444)"/></g><g transform="translate(19.08 20.396)"><path class="f" d="M113.024,343.357a5.911,5.911,0,0,0,.535-.741L114.8,340.8l1.27-1.8a5.876,5.876,0,0,0,.509-.759,5.116,5.116,0,0,0-.594.7c-.349.443-.816,1.068-1.309,1.775s-.915,1.363-1.21,1.844A5.087,5.087,0,0,0,113.024,343.357Z" transform="translate(-113.022 -338.242)"/></g><g transform="translate(21.168 15.413)"><path class="f" d="M120.927,319.386c-.023.035,1.3.926,2.956,1.99s3.016,1.9,3.038,1.864-1.3-.926-2.957-1.991S120.95,319.351,120.927,319.386Z" transform="translate(-120.927 -319.385)"/></g><g transform="translate(17.435 15.634)"><path class="f" d="M106.8,324.029a24.746,24.746,0,0,0,2-1.85,24.673,24.673,0,0,0,1.9-1.958,49.342,49.342,0,0,0-3.9,3.809Z" transform="translate(-106.798 -320.22)"/></g><g transform="translate(0 11.045)"><path class="p" d="M57.317,311.172l-1.137-.094a5.621,5.621,0,0,1-2.295-.7,9.2,9.2,0,0,0-1.07-.537,13.769,13.769,0,0,0-4.485-.539,18.572,18.572,0,0,1-7.134-1.824.693.693,0,0,1-.311-.282c-.233-.425.2-.8.573-1.034a23.417,23.417,0,0,1,6.035-2.96,7.907,7.907,0,0,1,6.488.788c2.175,1.5,2.967,4.571,3.335,7.185" transform="translate(-40.82 -302.855)"/><g transform="translate(0.04 1.077)"><path class="f" d="M40.972,310.052a1.117,1.117,0,0,0,.193-.09l.539-.282c.467-.246,1.14-.608,1.99-1.016a18.576,18.576,0,0,1,3.08-1.187,10.168,10.168,0,0,1,3.992-.323,6.825,6.825,0,0,1,3.639,1.563,8.09,8.09,0,0,1,1.895,2.661c.4.852.645,1.576.824,2.072l.2.573a1.113,1.113,0,0,0,.08.2,1.126,1.126,0,0,0-.05-.206l-.176-.582a18.869,18.869,0,0,0-.783-2.1,8.053,8.053,0,0,0-1.9-2.721A6.9,6.9,0,0,0,50.783,307a10.154,10.154,0,0,0-4.048.339,17.9,17.9,0,0,0-3.089,1.225c-.847.421-1.512.8-1.971,1.06l-.525.307A1.142,1.142,0,0,0,40.972,310.052Z" transform="translate(-40.972 -306.93)"/></g><g transform="translate(2.769 1.244)"><path class="f" d="M51.3,311.983c.023.034,1.509-.927,3.319-2.147s3.259-2.238,3.235-2.273-1.509.927-3.32,2.148S51.277,311.949,51.3,311.983Z" transform="translate(-51.3 -307.563)"/></g><g transform="translate(4.355 1.155)"><path class="f" d="M57.3,307.238a3.61,3.61,0,0,0,1.082.195,3.677,3.677,0,0,0,1.1-.014,7.156,7.156,0,0,0-1.091-.111A7.189,7.189,0,0,0,57.3,307.238Z" transform="translate(-57.3 -307.227)"/></g><g transform="translate(10.857 0.318)"><path class="f" d="M81.911,304.059a2.9,2.9,0,0,0,.488.762,3.261,3.261,0,0,0,.618.7,2.891,2.891,0,0,0-.488-.762A3.25,3.25,0,0,0,81.911,304.059Z" transform="translate(-81.908 -304.059)"/></g><g transform="translate(9.529 3.342)"><path class="f" d="M76.882,318.7a3.96,3.96,0,0,0,.715-.388c.429-.261,1.009-.642,1.63-1.092s1.167-.876,1.559-1.188a4.424,4.424,0,0,0,.617-.529,4.265,4.265,0,0,0-.682.444L79.138,317.1c-.618.448-1.186.842-1.6,1.125A4.816,4.816,0,0,0,76.882,318.7Z" transform="translate(-76.882 -315.502)"/></g></g><g transform="translate(5.416 23.678)"><g transform="translate(0)"><path class="o" d="M70.723,351.173a2.4,2.4,0,0,1,2.6,1.867,5.264,5.264,0,0,1-.671,3.234,16.5,16.5,0,0,1-4.482,5.865,11.084,11.084,0,0,1-6.854,2.523c.458-2.129-.122-4.352.134-6.514a8.474,8.474,0,0,1,7.505-7.43c.692-.075,1.492-.183,1.769.456" transform="translate(-61.315 -350.66)"/></g><g transform="translate(0 0.513)"><path class="f" d="M61.314,366.09a.725.725,0,0,0,.154-.072,2.811,2.811,0,0,0,.406-.272,4.223,4.223,0,0,0,1.07-1.431c.173-.336.366-.7.555-1.1l.583-1.289a12.468,12.468,0,0,1,.717-1.378,10.8,10.8,0,0,1,.986-1.341c.742-.872,1.538-1.626,2.229-2.346a15.328,15.328,0,0,0,1.7-2.039,7.484,7.484,0,0,0,.83-1.586,4.739,4.739,0,0,0,.145-.465.716.716,0,0,0,.034-.166c-.014,0-.076.221-.234.61a8.166,8.166,0,0,1-.864,1.547,16.144,16.144,0,0,1-1.711,2c-.693.713-1.494,1.465-2.244,2.345a10.714,10.714,0,0,0-1,1.362,12.241,12.241,0,0,0-.717,1.4l-.57,1.294c-.182.4-.37.77-.536,1.107a4.378,4.378,0,0,1-1.013,1.435C61.52,365.974,61.305,366.076,61.314,366.09Z" transform="translate(-61.314 -352.601)"/></g><g transform="translate(4.245 7.414)"><path class="f" d="M78.739,383.536a3.264,3.264,0,0,0-.1-.73c-.085-.446-.224-1.059-.412-1.727s-.389-1.263-.55-1.688a3.256,3.256,0,0,0-.3-.674,3.928,3.928,0,0,0,.2.709c.134.433.318,1.03.506,1.694s.342,1.27.453,1.709A3.905,3.905,0,0,0,78.739,383.536Z" transform="translate(-77.378 -378.717)"/></g><g transform="translate(0.205 5.829)"><path class="f" d="M62.092,373.9a4.491,4.491,0,0,0,.764-.175c.467-.122,1.112-.289,1.829-.451s1.372-.287,1.847-.377a4.459,4.459,0,0,0,.765-.169,3.722,3.722,0,0,0-.782.063c-.48.063-1.141.173-1.862.335s-1.365.347-1.826.5A3.7,3.7,0,0,0,62.092,373.9Z" transform="translate(-62.092 -372.72)"/></g><g transform="translate(8.159 2.912)"><path class="f" d="M93.659,367.294a4.416,4.416,0,0,0-.117-.844c-.1-.517-.247-1.229-.45-2.006s-.419-1.472-.588-1.97a4.406,4.406,0,0,0-.31-.794,5.193,5.193,0,0,0,.209.826c.143.5.342,1.2.544,1.977s.369,1.479.491,1.99A5.2,5.2,0,0,0,93.659,367.294Z" transform="translate(-92.191 -361.68)"/></g><g transform="translate(2.692 1.808)"><path class="f" d="M71.5,358.149c0,.041,1.357-.068,3.022-.245s3.011-.353,3.006-.395-1.357.068-3.022.245S71.5,358.107,71.5,358.149Z" transform="translate(-71.503 -357.501)"/></g></g><g transform="translate(9.099 42.468)"><path class="h" d="M75.254,421.844c0,.042,4.757.075,10.623.075s10.624-.034,10.624-.075-4.756-.076-10.624-.076S75.254,421.8,75.254,421.844Z" transform="translate(-75.254 -421.768)"/></g><g transform="translate(12.409 48.589)"><path class="h" d="M87.778,445.009c0,.041,3.205.075,7.158.075s7.158-.034,7.158-.075-3.2-.076-7.158-.076S87.778,444.967,87.778,445.009Z" transform="translate(-87.778 -444.933)"/></g><g transform="translate(12.533 49.465)"><path class="h" d="M88.249,448.321c0,.042,3.149.075,7.033.075s7.034-.034,7.034-.075-3.149-.076-7.034-.076S88.249,448.279,88.249,448.321Z" transform="translate(-88.249 -448.245)"/></g><g transform="translate(12.284 47.868)"><path class="h" d="M87.305,442.278c0,.042,3.315.076,7.4.076s7.4-.034,7.4-.076-3.314-.075-7.4-.075S87.305,442.237,87.305,442.278Z" transform="translate(-87.305 -442.203)"/></g></g><g transform="translate(34.743 144.408)"><path class="f" d="M156.526,478c0,.038-23.3.069-52.031.069s-52.036-.031-52.036-.069,23.293-.069,52.036-.069S156.526,477.963,156.526,478Z" transform="translate(-52.459 -477.932)"/></g></g></svg>