<svg xmlns="http://www.w3.org/2000/svg" width="80.617" height="77.997" viewBox="0 0 80.617 77.997"><defs><style>.a{fill:#263238;}.b{fill:#0c1419;}.c{fill:#0d3453;}.d{fill:#411a24;}.e{fill:#33131c;}.f{fill:#e37565;}.g{fill:#d52941;}.h{fill:#fff;}.i{fill:#882130;}.j,.k{fill:#dbecf5;}.k{opacity:0.63;mix-blend-mode:multiply;isolation:isolate;}.l{fill:#2a1d30;}.m{fill:#d15f54;}</style></defs><g transform="translate(0 -2)"><g transform="translate(12.413 73.692)"><path class="a" d="M210.683,397.517H173.746l-13.536,4.675h39.05Z" transform="translate(-160.21 -397.517)"/><path class="b" d="M210.683,398.929v-1.412l-11.423,4.675H160.21v1.631h39.026Z" transform="translate(-160.21 -397.517)"/></g><g transform="translate(33.156 2)"><g transform="translate(7.27 10.136)"><path d="M259.239,113.951v8.691a.168.168,0,0,1-.336,0v-8.691a.168.168,0,0,1,.336,0Z" transform="translate(-258.903 -113.789)"/></g><path class="c" d="M131.553,68.577l17.091,9.568-16.068,8.107-16.433-7.377Z" transform="translate(-109.033 -68.577)"/><path class="d" d="M144.684,123.2a40.227,40.227,0,0,1,.779,6.476c-.1,2-.584,6.557,1.7,7.9s2.727,2.857,2.337,4.609c0,0,2.337,2.24.828,4.431s-6.963,5.94-16.506,4.09-11.229-3.993-11.676-5.21a2.028,2.028,0,0,1,1.11-2.581s-.925-2.24.487-3.749,1.948-3.36,2.435-5.989a26.353,26.353,0,0,0,.487-4.333,6.49,6.49,0,0,1-.341-5.648c1.217-3.36,6.427-5.892,11.394-3.993S144.684,123.2,144.684,123.2Z" transform="translate(-112.547 -107.352)"/><path class="e" d="M127.915,181.34a5.345,5.345,0,0,0,.066,2.846,6.469,6.469,0,0,0,.544,1.339,7.938,7.938,0,0,0,.826,1.188l.474.541c.156.177.318.349.461.537l.222.275c.071.094.137.191.205.287.142.188.257.393.38.593a5.427,5.427,0,0,1,.534,1.293,2.7,2.7,0,0,1,.054,1.365l-.015.056.043.028a3.7,3.7,0,0,1,.5.4,3.818,3.818,0,0,1,.431.475,2.57,2.57,0,0,1,.312.56,1.98,1.98,0,0,1,.122.633,1.861,1.861,0,0,0-.078-.648,2.637,2.637,0,0,0-.287-.593,3.4,3.4,0,0,0-.418-.512,3.812,3.812,0,0,0-.506-.431l.028.084a2.818,2.818,0,0,0,0-1.461,5.631,5.631,0,0,0-.538-1.349c-.125-.207-.241-.42-.384-.615-.069-.1-.136-.2-.207-.3l-.224-.284c-.145-.193-.314-.365-.475-.544l-.474-.529a6.993,6.993,0,0,1-1.387-2.435A5.746,5.746,0,0,1,127.915,181.34Z" transform="translate(-96.069 -156.081)"/><path class="e" d="M156.718,165.013a11.01,11.01,0,0,0,1.8,3.993c1.556,2.337,3.306,3.92,1.956,7.109s-2.076,6.61-10.915,5.411-10.227-6.457-9.5-8.795,2.724-2.271,2.813-8.317S154.307,157.222,156.718,165.013Z" transform="translate(-126.675 -139.153)"/><path class="f" d="M142.549,128.1s-.292,8.618,7.644,9.787c2.727.487,6.963-1.85,8.034-4.285a2.262,2.262,0,0,0,2.775-.974c1.315-1.7,1.071-4.09-.243-4.09s-1.753,1.753-1.753,1.753a11.046,11.046,0,0,0-.876-3.214,6.739,6.739,0,0,1-5.919-3.36c-2.262-3.652-1.677-4.674-1.677-4.674a5.217,5.217,0,0,0-2.775.584A10.374,10.374,0,0,0,142.549,128.1Z" transform="translate(-128.185 -107.72)"/><path class="c" d="M160.668,104.4c-4.727-1.807-9.671.4-11.187,3.513l.377-5.655s2.338-3.019,8.668-2.775,9.105,3.311,9.105,3.311v5.6S165.635,106.3,160.668,104.4Z" transform="translate(-135.495 -92.54)"/><path class="g" d="M82.483,228.443c1.071-5.746,1.77-9.641,17.732-19.233a10.709,10.709,0,0,0,4.1,5.453,9.509,9.509,0,0,0,3.642-5.453s13.572,6.476,15.519,10.858,6.33,18.113,4.772,22.009-21.073,8.678-24.565,7.7l1.316-.888s.17-6.184-4.894-6.378l-5.94,3.165H81.12S81.412,234.189,82.483,228.443Z" transform="translate(-81.12 -177.734)"/><path class="h" d="M156.512,226.3l-10-13.189c1.742-1.193,3.764-2.484,6.122-3.9a10.709,10.709,0,0,0,4.1,5.453,9.509,9.509,0,0,0,3.642-5.453s2.754,1.314,5.959,3.159Z" transform="translate(-133.543 -177.71)"/><path class="i" d="M136.251,250.628l-15.28-18.7c1.042-.916,2.277-1.892,3.742-2.949L136.251,244.1l11.707-15.837c1.333.818,2.668,1.7,3.852,2.588Z" transform="translate(-113.282 -192.501)"/><g transform="translate(18.736 53.487)"><path class="i" d="M132.282,318.688a2.257,2.257,0,0,1,1.257-1.865,14.86,14.86,0,0,1,3.611-1.047c1.749-.394,3.477-.822,5.183-1.379,1.522-.5,3.024-1.051,4.512-1.641.775-.307,1.548-.621,2.311-.957l-.125.218-.487-4.382c-.036-.322.469-.32.5,0l.487,4.382a.243.243,0,0,1-.125.218c-1.918.845-3.883,1.6-5.863,2.285a48.6,48.6,0,0,1-4.974,1.45,37.3,37.3,0,0,0-4.214,1.048,2.015,2.015,0,0,0-1.574,1.671c-.035.319-.54.323-.5,0Z" transform="translate(-132.28 -307.394)"/></g><g transform="translate(35.487 57.868)"><path class="i" d="M122.992,326.888a4.957,4.957,0,0,1,.754.122,2.9,2.9,0,0,1,1.237.565,1.182,1.182,0,0,1,.4.643.258.258,0,0,1-.176.31.255.255,0,0,1-.31-.176c-.009-.045-.024-.087-.037-.131s.019.031-.009-.018c-.012-.022-.024-.045-.037-.067s-.025-.037-.037-.055c-.023-.036.024.025-.014-.017s-.066-.072-.1-.105l-.053-.046c-.043-.037.015.008-.021-.016s-.085-.058-.129-.085a2.454,2.454,0,0,0-.272-.138c.045.02-.013,0-.028-.011l-.07-.026c-.049-.018-.1-.035-.15-.051-.094-.03-.188-.056-.284-.079-.159-.039-.319-.069-.479-.093-.048-.007-.031-.016,0,0a.178.178,0,0,0-.044-.006l-.072-.008-.066-.006a.258.258,0,0,1-.252-.252.254.254,0,0,1,.252-.252Z" transform="translate(-122.74 -326.888)"/></g><path class="j" d="M173.737,215.753c-.268.7-.528,1.4-.787,2.107l-.774,2.111q-.766,2.114-1.509,4.235l.331-.059-1.8-2.279L167.38,219.6l-.172-.215-.174.214-2.047,2.512-2.035,2.522.333.061-.75-2.163-.76-2.16L161,218.217c-.259-.718-.52-1.435-.789-2.15.213.734.434,1.464.657,2.194l.67,2.19.686,2.184.7,2.181.107.334.227-.273,2.07-2.493,2.057-2.5h-.346l1.827,2.259,1.839,2.249.223.273.108-.331c.465-1.425.928-2.85,1.38-4.279l.67-2.146C173.3,217.188,173.524,216.472,173.737,215.753Z" transform="translate(-144.006 -182.784)"/><path class="f" d="M190.02,360.939l5.953-3.164c5.05.205,4.881,6.378,4.881,6.378s-3,2.045-3.969,2.581-3.6,2-4.285,1.948-1.8-.195-1.9-.828a1.205,1.205,0,0,1-1.363.292c-.925-.292-.974-.779-.877-1.266a21.9,21.9,0,0,1,1.461-2.727s-1.9,2.824-2.435,2.727-1.363-.438-1.169-1.436S190.02,360.939,190.02,360.939Z" transform="translate(-176.97 -292.993)"/><g transform="translate(13.564 72.355)"><path d="M222.414,393.943l1.66-2.044.238-.294a.17.17,0,0,1,.238,0,.172.172,0,0,1,0,.238l-1.66,2.044-.239.293a.169.169,0,0,1-.238,0,.172.172,0,0,1,0-.238Z" transform="translate(-222.366 -391.556)"/></g><g transform="translate(6.448 18.837)"><g transform="translate(0.964 0.092)"><path d="M255.837,153.112c1.09,1.371.571,3.2.737,4.794.015.143-.209.142-.223,0-.157-1.515.364-3.334-.672-4.636-.089-.111.069-.271.158-.158Z" transform="translate(-255.653 -153.073)"/></g><g transform="translate(0.863)"><path d="M258.076,152.741a17.484,17.484,0,0,1,.263,4.846c-.006.143-.229.144-.223,0a17.275,17.275,0,0,0-.255-4.787c-.034-.14.182-.2.215-.059Z" transform="translate(-257.857 -152.661)"/></g><g transform="translate(0.743 0.036)"><path d="M259.85,152.931q-.018,2.318-.037,4.636a.112.112,0,0,1-.223,0q.018-2.318.037-4.636a.112.112,0,0,1,.224,0Z" transform="translate(-259.589 -152.823)"/></g><g transform="translate(0 0.012)"><path d="M260.335,152.92c-.312.144-.365.561-.435.861q-.143.614-.228,1.24a13.652,13.652,0,0,0-.1,2.462c.007.144-.216.143-.224,0a13.85,13.85,0,0,1,.133-2.682,13.2,13.2,0,0,1,.264-1.321,1.028,1.028,0,0,1,.479-.753c.13-.06.243.133.113.193Z" transform="translate(-259.331 -152.715)"/></g><g transform="translate(0.362 0.288)"><path d="M260.515,154.085c-.078.374-.158.748-.235,1.123a5.3,5.3,0,0,0-.1,1.131q.011,1.2.023,2.406a.112.112,0,0,1-.224,0c-.008-.825-.018-1.649-.024-2.474a10.57,10.57,0,0,1,.341-2.246c.03-.141.245-.081.216.059Z" transform="translate(-259.959 -153.945)"/></g><g transform="translate(0.901 0.006)"><path d="M254.617,152.7a2.107,2.107,0,0,1,.951,1.584,8.854,8.854,0,0,1,.106,2.284c-.011.143-.235.144-.224,0a8.763,8.763,0,0,0-.076-2.1,2.013,2.013,0,0,0-.87-1.58c-.127-.068-.014-.261.113-.193Z" transform="translate(-254.448 -152.689)"/></g><g transform="translate(1.02 0.366)"><path d="M256.76,154.371a8.777,8.777,0,0,1,.4,3.656c-.015.142-.238.143-.224,0a8.62,8.62,0,0,0-.392-3.6c-.045-.137.17-.2.215-.059Z" transform="translate(-256.539 -154.293)"/></g></g><g transform="translate(6.272 19.124)"><g transform="translate(0.27 0.092)"><path d="M260.275,154.4c-1.09,1.371-.571,3.2-.737,4.794-.015.143.209.142.224,0,.157-1.515-.364-3.334.672-4.636.089-.111-.069-.271-.158-.158Z" transform="translate(-259.537 -154.357)"/></g><g transform="translate(0.764)"><path d="M259.4,154.025a17.486,17.486,0,0,0-.263,4.846c.006.143.229.144.224,0a17.269,17.269,0,0,1,.255-4.787c.034-.14-.182-.2-.216-.059Z" transform="translate(-259.086 -153.945)"/></g><g transform="translate(1.152 0.036)"><path d="M258.551,154.215q.018,2.318.037,4.636a.112.112,0,0,0,.224,0q-.018-2.318-.037-4.636a.112.112,0,0,0-.224,0Z" transform="translate(-258.551 -154.107)"/></g><g transform="translate(1.095 0.012)"><path d="M255.295,154.2c.312.144.365.561.435.861q.143.614.227,1.241a13.621,13.621,0,0,1,.1,2.462c-.007.144.217.143.224,0a13.829,13.829,0,0,0-.133-2.682,13.237,13.237,0,0,0-.263-1.321,1.028,1.028,0,0,0-.479-.753c-.13-.06-.243.133-.113.193Z" transform="translate(-255.237 -153.999)"/></g><g transform="translate(1.236 0.288)"><path d="M256.853,155.368c.078.374.158.748.235,1.123a5.3,5.3,0,0,1,.1,1.131q-.011,1.2-.023,2.406a.112.112,0,0,0,.224,0c.008-.825.018-1.649.024-2.474a10.56,10.56,0,0,0-.34-2.246c-.03-.141-.245-.081-.215.059Z" transform="translate(-256.85 -155.228)"/></g><g transform="translate(0 0.006)"><path d="M260.343,153.987a2.106,2.106,0,0,0-.951,1.584,8.855,8.855,0,0,0-.106,2.284c.012.142.235.144.224,0a8.754,8.754,0,0,1,.076-2.1,2.014,2.014,0,0,1,.87-1.579c.127-.068.014-.261-.113-.193Z" transform="translate(-259.257 -153.973)"/></g><g transform="translate(0.469 0.366)"><path d="M260.233,155.655a8.777,8.777,0,0,0-.4,3.656c.015.141.238.143.224,0a8.617,8.617,0,0,1,.392-3.6c.045-.137-.17-.2-.216-.059Z" transform="translate(-259.787 -155.577)"/></g></g><path class="f" d="M176.01,199.126a7.789,7.789,0,0,0,4.834-1.156h0v2.52a9.509,9.509,0,0,1-3.642,5.453,10.708,10.708,0,0,1-4.1-5.453v-2.275A9.246,9.246,0,0,0,176.01,199.126Z" transform="translate(-154.002 -168.984)"/><path d="M173.1,198.932v-.717a9.246,9.246,0,0,0,2.913.912,7.789,7.789,0,0,0,4.834-1.156v2.52a8.4,8.4,0,0,1-.449,1.383A18.472,18.472,0,0,1,173.1,198.932Z" transform="translate(-154.002 -168.983)"/><path class="k" d="M146.516,210.909a8.888,8.888,0,0,0,.586-1.7s2.754,1.314,5.959,3.159l-2.21,3.131A18.681,18.681,0,0,0,146.516,210.909Z" transform="translate(-120.26 -177.706)"/><path class="c" d="M150.132,102.722a10.9,10.9,0,0,1,4.686,2.595v5.6a17.966,17.966,0,0,0-5.338-3.32C150.72,105.413,150.58,103.794,150.132,102.722Z" transform="translate(-122.682 -95.067)"/><g transform="translate(4.242 43.901)"><path class="i" d="M82.372,290.832c10.927-1.821,18.588-6.675,20.392-8.288,1.85-1.656.876-4.772,0-10.957-.334-2.354-.78-4.811-1.2-6.953,2.115,5.45,5.529,16.934,4.126,20.442-1.558,3.9-21.073,8.678-24.565,7.7l1.316-.888A8.265,8.265,0,0,0,82.372,290.832Z" transform="translate(-62.794 -264.634)"/><path class="l" d="M262.822,295.571l-1.368,17.109h-1.836Z" transform="translate(-259.619 -288.636)"/></g><g transform="translate(6.078 50.654)"><path class="i" d="M257.431,312.049c.058-1.438.134-2.876.215-4.313.161-2.855.35-5.71.627-8.556.137-1.417.292-2.835.526-4.239.053-.32.539-.184.486.134-.442,2.655-.642,5.356-.838,8.039q-.271,3.711-.444,7.429c-.024.5-.048,1-.068,1.506-.013.323-.518.325-.5,0Z" transform="translate(-257.431 -294.758)"/></g><path class="m" d="M195.211,381.493a8.254,8.254,0,0,1,.064,1.06s-3,2.045-3.969,2.581-3.6,2-4.285,1.948a6.825,6.825,0,0,1-.731-.088C189.239,385.481,195.21,381.494,195.211,381.493Z" transform="translate(-171.391 -311.394)"/><path class="i" d="M120.971,230.765l1.847-2.5c1.333.818,2.668,1.7,3.852,2.588l-1.227,1.559A23.23,23.23,0,0,0,120.971,230.765Z" transform="translate(-88.143 -192.492)"/><path class="e" d="M159.255,119.369a9.468,9.468,0,0,0,.825,2.553,10.955,10.955,0,0,0,1.447,2.273,10.9,10.9,0,0,0,3.1,2.569,5.636,5.636,0,0,0,.6.3q.3.141.612.275A14.556,14.556,0,0,1,163.6,125.9l-.26-.206a2.506,2.506,0,0,1-.254-.213l-.489-.448c-.165-.148-.3-.321-.458-.48l-.226-.243c-.071-.084-.138-.173-.208-.259-.137-.173-.288-.336-.413-.519l-.383-.542-.347-.566c-.112-.191-.213-.389-.322-.581s-.2-.4-.295-.6-.177-.407-.261-.613A10.4,10.4,0,0,1,159.255,119.369Z" transform="translate(-135.895 -107.991)"/><path class="e" d="M155.342,123.41a13.187,13.187,0,0,1,.963,1.073c.152.186.3.376.445.565s.282.388.416.586a15.252,15.252,0,0,1,1.4,2.5c.214.428.367.882.54,1.327.136.458.293.911.391,1.38a16.138,16.138,0,0,1,.408,2.846q0-.361,0-.723a5.822,5.822,0,0,0-.031-.724l-.079-.722c-.027-.241-.087-.476-.128-.715a12.3,12.3,0,0,0-.366-1.407c-.079-.229-.167-.455-.25-.683a7.246,7.246,0,0,0-.28-.671,14.063,14.063,0,0,0-1.467-2.506A12.011,12.011,0,0,0,155.342,123.41Z" transform="translate(-129.086 -111.127)"/><path class="e" d="M151.087,133.9c.1.262.194.522.277.787s.171.527.246.794c.15.533.284,1.069.389,1.612a16.465,16.465,0,0,1,.25,1.637l.041.413.022.415c.028.277.012.554.03.834a8.882,8.882,0,0,0,.079-1.675c0-.281-.043-.559-.065-.839-.042-.277-.078-.555-.137-.83a11.416,11.416,0,0,0-.445-1.62A9.16,9.16,0,0,0,151.087,133.9Z" transform="translate(-120.655 -119.265)"/><path class="e" d="M208.952,119.031a10.326,10.326,0,0,0-2.831,1.552,9.564,9.564,0,0,0-2.212,2.374,8.92,8.92,0,0,0-.732,1.458,8.363,8.363,0,0,0-.421,1.574,9.144,9.144,0,0,0,.1,3.227c-.021-.269-.057-.535-.072-.8s-.03-.535-.014-.8a8.944,8.944,0,0,1,.153-1.591,9.729,9.729,0,0,1,.442-1.53,8.767,8.767,0,0,1,.731-1.412,9.859,9.859,0,0,1,2.13-2.36,11.794,11.794,0,0,1,1.305-.93A10.978,10.978,0,0,1,208.952,119.031Z" transform="translate(-188.736 -107.72)"/><path class="e" d="M228.715,173.018a7.757,7.757,0,0,1,.187,1.661,8.9,8.9,0,0,1-.121,1.661,9.534,9.534,0,0,1-1.069,3.13c-.526.981-1.13,1.932-1.613,2.951a6.562,6.562,0,0,0-.315.789,2.882,2.882,0,0,0-.154.84,3.078,3.078,0,0,0,.1.843,8.145,8.145,0,0,0,.244.806,5.083,5.083,0,0,1-.237-1.643,4.138,4.138,0,0,1,.515-1.559c.509-.992,1.106-1.936,1.655-2.921a9.3,9.3,0,0,0,1.042-3.212A7.949,7.949,0,0,0,228.715,173.018Z" transform="translate(-213.963 -149.623)"/></g><g transform="translate(0 53.727)"><path class="a" d="M248.267,308.467l14.413,24.638h-39.05l-12.465-24.638Z" transform="translate(-211.165 -308.467)"/><path class="b" d="M250.19,420l.024-1.631h-39.05V420Z" transform="translate(-198.7 -393.73)"/><path class="j" d="M219.015,333.105l1.471-.6L206.16,308.467H204.6Z" transform="translate(-167.5 -308.467)"/><path class="a" d="M268.965,308.468a23.656,23.656,0,0,0,5.429,11.72c2.017,2.5,6.529,8.5,29.925,12.917H277.3l-12.465-24.638Z" transform="translate(-264.836 -308.468)"/></g></g></svg>