<svg xmlns="http://www.w3.org/2000/svg" width="52.201" height="80.324" viewBox="0 0 52.201 80.324"><defs><style>.a{fill:#d52941;}.b,.d,.e,.i{fill:none;}.b{stroke:#a21428;stroke-width:1.295px;}.b,.d{stroke-miterlimit:10;}.c{fill:#0d3453;}.d,.e{stroke:#dcbe2d;stroke-width:1.102px;}.e,.i{stroke-linecap:round;stroke-linejoin:round;}.f{fill:#fff;}.g{fill:#faa990;}.h{fill:#33332a;}.i{stroke:#dc715c;stroke-width:0.47px;}</style></defs><path d="M167.513,143.518c1.456,1.531,1.942,3.749,2.267,5.836s.416,4.217.927,6.267a15.766,15.766,0,0,0,3.015,6.067c.87,1.079,1.883,2.043,2.676,3.179a5.7,5.7,0,0,1,1.186,3.885,5.049,5.049,0,0,1-2.077,3.267,11.653,11.653,0,0,1-3.588,1.667,17.338,17.338,0,0,1-9.6.641,16.243,16.243,0,0,1-10.249-8.995,22.792,22.792,0,0,1-.836-3.327,46.105,46.105,0,0,1-.927-6.085,23.139,23.139,0,0,1,2.324-11.594,10.2,10.2,0,0,1,10.288-3.755S165,140.879,167.513,143.518Z" transform="translate(-134.161 -129.693)"/><g transform="translate(0 39.065)"><path class="a" d="M146.475,192.477l-5.77-.034a10.724,10.724,0,0,0-3.72.354,9.823,9.823,0,0,0-3.929,3.011,26.955,26.955,0,0,0-2.653,4c-4.488,7.716-7.614,23.684-9.618,33.813l52.2-.074c-2-10.129-5.13-26.1-9.618-33.813a26.962,26.962,0,0,0-2.654-4,9.818,9.818,0,0,0-3.928-3.011,10.741,10.741,0,0,0-3.721-.354l-5.77.034" transform="translate(-120.785 -192.358)"/></g><path class="b" d="M189.541,228.273c1.04,5.744,3.089,15.995,4.129,21.738" transform="translate(-151.988 -170.012)"/><path class="c" d="M142.073,133.058l11.678,6.142a2.014,2.014,0,0,0,2.083-.126l12.61-8.714a2.014,2.014,0,0,0-.273-3.473l-12.2-5.857a2.015,2.015,0,0,0-2.024.163l-12.09,8.429A2.014,2.014,0,0,0,142.073,133.058Z" transform="translate(-129.958 -120.833)"/><path class="d" d="M146.164,137.24c-.383.051-.588.469-.705.837a18.655,18.655,0,0,0-.488,6.811" transform="translate(-131.72 -128.279)"/><path class="e" d="M145.026,155.251a11.727,11.727,0,0,0-.06-3.2c-.085-.54-.4-.95-.73-.3a3.244,3.244,0,0,0-.259,1.592,8.707,8.707,0,0,0,.372,2.2" transform="translate(-131.308 -134.712)"/><path class="e" d="M144.98,151.7c.054.962.068,2.387.1,3.35" transform="translate(-131.765 -134.843)"/><path class="c" d="M161.49,135.467l-5.656,3.908a2.014,2.014,0,0,1-2.083.126l-11.678-6.142a2.014,2.014,0,0,1-.214-3.435l12.09-8.429a8.341,8.341,0,0,0,.191,4.6,15.148,15.148,0,0,0,7.325,9.227" transform="translate(-129.958 -121.133)"/><path class="f" d="M169.715,192.36s.741,6.629-5.673,7.342c-8.844.983-8.237-7.266-8.237-7.266Z" transform="translate(-136.674 -153.294)"/><path class="g" d="M168.338,181.232l.95,6.039a7.662,7.662,0,0,1-5,1.724,6.931,6.931,0,0,1-4.783-1.711l1.105-6.315Z" transform="translate(-138.356 -148.124)"/><path class="b" d="M144.176,228.409c-1.04,5.743-3.089,15.995-4.129,21.738" transform="translate(-129.527 -170.074)"/><path class="g" d="M169.914,158.868s-.439,9.69-8.6,9.5-8.159-10.066-8.159-10.066-.744-10.533,7-11.5C168.709,145.742,170.107,152.332,169.914,158.868Z" transform="translate(-135.468 -132.569)"/><path class="h" d="M169.214,184.78a9.647,9.647,0,0,1-7.921.061S165.2,189.445,169.214,184.78Z" transform="translate(-139.169 -149.854)"/><path d="M170,151.949a2.877,2.877,0,0,1-2.215-.427,21.888,21.888,0,0,1-7.156-5.079,33.683,33.683,0,0,0,.973,3.9,3.394,3.394,0,0,1-2.3-.68,26.523,26.523,0,0,1-2.725-1.9c-.649,1.948-3.33,2.734-3.776,4.738-.044.2-.132.454-.331.434-.15-.015-.223-.186-.261-.332-.634-2.467-.052-6.724,1.449-8.781,2.025-2.775,11.105-6.507,15.233.785.991,1.751,1.022,6.94,1.106,7.345" transform="translate(-134.932 -129.695)"/><g transform="translate(14.904 21.315)"><path class="g" d="M151.149,163.977a1.246,1.246,0,0,1-1.358.395,2.01,2.01,0,0,1-.889-.746,3.5,3.5,0,0,1-.746-2.9,1.258,1.258,0,0,1,.375-.659,1.14,1.14,0,0,1,1.211-.064,7.363,7.363,0,0,1,1.406,1.33Z" transform="translate(-148.073 -159.859)"/><g transform="translate(0.99 1.059)"><path class="i" d="M149.885,161.8a3.357,3.357,0,0,1,1.88,1.951" transform="translate(-149.885 -161.797)"/><path class="i" d="M151.789,163.522a2.229,2.229,0,0,0-.446,1.757" transform="translate(-150.532 -162.58)"/></g></g><g transform="translate(34.283 21.06)"><path class="g" d="M183.6,163.511a1.247,1.247,0,0,0,1.358.395,2.013,2.013,0,0,0,.889-.746,3.5,3.5,0,0,0,.746-2.9,1.259,1.259,0,0,0-.375-.659,1.141,1.141,0,0,0-1.211-.065,6.394,6.394,0,0,0-1.454,1.395Z" transform="translate(-183.554 -159.393)"/><g transform="translate(0.256 1.059)"><path class="i" d="M185.9,161.331a3.358,3.358,0,0,0-1.88,1.951" transform="translate(-184.022 -161.331)"/><path class="i" d="M185.162,163.055a2.23,2.23,0,0,1,.446,1.758" transform="translate(-184.539 -162.113)"/></g></g><path class="c" d="M168.54,136.2l.8,6.935s-3.492-1.64-9.279-.788S152,144.71,152,144.71l-.575-6.912S158.406,132.765,168.54,136.2Z" transform="translate(-134.692 -127.263)"/></svg>