<svg xmlns="http://www.w3.org/2000/svg" width="73.383" height="80.013" viewBox="0 0 73.383 80.013"><defs><style>.a{fill:#0b3454;}.b{fill:#2d6b9b;}.c{fill:#f8f2ed;}.d{fill:#fbe9eb;}.e{fill:#7ae5c9;}.f{fill:#be182f;}.g,.n{fill:#a77100;}.h{fill:#ffae02;}.i{fill:#eba17a;}.j{fill:#e8a393;}.k{fill:#071f31;}.l{fill:#ffc3a1;}.m{fill:#882130;}.n{mix-blend-mode:multiply;isolation:isolate;}.o{fill:#d52941;}</style></defs><g transform="translate(-15.031)"><g transform="translate(15.031 0)"><g transform="translate(4.94 49.565)"><path class="a" d="M115.09,263.11v2.171H139.7v5.666H115.09v2.171H167.57V263.11Z" transform="translate(-107.069 -263.11)"/><path class="b" d="M153.113,284.227v-.005H154.7v-1.5H99.527v6.918H154.7v-1.5h-1.592v0c-.525-.051-.942-.9-.942-1.955S152.588,284.278,153.113,284.227Z" transform="translate(-86.262 -272.714)"/><rect class="a" width="23.787" height="10.008" transform="translate(36.715)"/><path class="b" d="M0,0H30.455V6.917H0Z" transform="translate(13.265 10.008)"/><path class="c" d="M166.108,267.364v.007c.758.073,1.362,1.308,1.362,2.826s-.6,2.753-1.362,2.826v.007h26.446v-5.666Z" transform="translate(-158.087 -265.193)"/><path class="a" d="M123.431,296.277v2.171h26.376v5.666H123.431v2.171h56.245V296.277Z" transform="translate(-123.431 -279.352)"/><path class="a" d="M32.372,0H0V10.008H32.372Z" transform="translate(30.752 16.925)"/><path class="c" d="M117.145,300.531v.007c.812.073,1.46,1.308,1.46,2.826s-.648,2.753-1.46,2.826v.007H176.6v-5.667Z" transform="translate(-117.145 -281.435)"/><path class="d" d="M204.062,300.531H173.229v.007c.812.073,1.46,1.308,1.46,2.826s-.648,2.753-1.46,2.826v.007h30.833Z" transform="translate(-173.229 -281.435)"/><rect class="c" width="17.025" height="0.004" transform="translate(49.826 15.425)"/><path class="c" d="M122.916,287.622c0-1.05.418-1.9.943-1.955v-.005H102.647v3.917h21.211v0C123.334,289.526,122.916,288.672,122.916,287.622Z" transform="translate(-57.007 -274.154)"/></g><g transform="translate(0)"><path class="e" d="M164.726,200.744s-3.04,10.965-4.535,12.759-6.379,4.435-6.379,4.435l1.3,2.293s8.876-4.524,10.416-8.223a27.932,27.932,0,0,0,1.794-5.682c.245-1.357,1.248-4.733.748-6.08A1.915,1.915,0,0,0,164.726,200.744Z" transform="translate(-122.521 -182.382)"/><path class="f" d="M164.726,200.744s-3.04,10.965-4.535,12.759-6.379,4.435-6.379,4.435l1.3,2.293s8.876-4.524,10.416-8.223a27.932,27.932,0,0,0,1.794-5.682c.245-1.357,1.248-4.733.748-6.08A1.915,1.915,0,0,0,164.726,200.744Z" transform="translate(-122.521 -182.382)"/><path class="g" d="M232.062,302.267l-2.241-2.093s-8.959-.659-9.483.128,8.5,5.04,9.654,4.963S231.91,303.131,232.062,302.267Z" transform="translate(-220.317 -231.569)"/><path class="h" d="M206.184,243.944s-8.473-2.156-9.17-.761-9.493,28.978-9.493,28.978l2.241,2.093s9.432-23.282,12.163-25.715S207.447,244.9,206.184,243.944Z" transform="translate(-178.016 -203.556)"/><path class="i" d="M206.184,243.944s-8.473-2.156-9.17-.761-9.493,28.978-9.493,28.978l2.241,2.093s9.432-23.282,12.163-25.715S207.447,244.9,206.184,243.944Z" transform="translate(-178.016 -203.556)"/><g transform="translate(26.343 34.161)"><path class="h" d="M183.684,234.07a7.55,7.55,0,0,1-1.76-.707,2.349,2.349,0,0,0-1.5-.424c-.4.058-3.659,1.414-2.792,2.019.281.2.983-.148,1.264-.248.4-.143.8-.339,1.185-.509-.35-.018-2.111.729-1.926,1.14.325.723,2.108-.243,2.522-.476-.317.049-1.42.463-1.418.865,0,.632,1.312.1,1.6-.041a1.916,1.916,0,0,1,.6-.291,2.368,2.368,0,0,1,.8.141,4.684,4.684,0,0,0,1.388.027c.271-.025.9.033,1.038-.2a1,1,0,0,0-.175-.988A1.989,1.989,0,0,0,183.684,234.07Z" transform="translate(-177.49 -232.923)"/><path class="j" d="M183.684,234.07a7.55,7.55,0,0,1-1.76-.707,2.349,2.349,0,0,0-1.5-.424c-.4.058-3.659,1.414-2.792,2.019.281.2.983-.148,1.264-.248.4-.143.8-.339,1.185-.509-.35-.018-2.111.729-1.926,1.14.325.723,2.108-.243,2.522-.476-.317.049-1.42.463-1.418.865,0,.632,1.312.1,1.6-.041a1.916,1.916,0,0,1,.6-.291,2.368,2.368,0,0,1,.8.141,4.684,4.684,0,0,0,1.388.027c.271-.025.9.033,1.038-.2a1,1,0,0,0-.175-.988A1.989,1.989,0,0,0,183.684,234.07Z" transform="translate(-177.49 -232.923)"/></g><g transform="translate(15.867 20.664)"><path class="a" d="M196.868,206.475l-1.993.818,6.845,16.518,2.015-1.088Z" transform="translate(-194.876 -206.475)"/><rect class="a" width="13.033" height="2.024" transform="translate(8.131 15.959)"/></g><path class="k" d="M136.362,193.187c-1.743-1-2.035-2.1-1.069-5.745a7.658,7.658,0,0,0-3.992-8.429c-1.785-.735-3.353-1.06-4.439-2.963s.972-5.962-2.467-8.968c-2.506-2.19-6.1-.441-6.1-.441-.774-.428-1.092,4.082-1.149,7.475,4.355,6.665,3.114,15.374,1.527,22.836a3.42,3.42,0,0,1-.16.5c.342,5.775.617,10.556.617,10.556s10.469,5.927,17.588.853S139.854,195.185,136.362,193.187Z" transform="translate(-76.282 -165.979)"/><path class="g" d="M186.828,301.842l-2.658,1.528s-3.256,8.373-2.658,9.1,7.309-6.645,7.575-7.775S187.609,302.241,186.828,301.842Z" transform="translate(-157.53 -232.512)"/><path class="l" d="M184.139,244.133s-17.078,1.2-18.673,2.724,12.9,28.081,12.9,28.081l2.379-1.369s-3.588-12.625-4.519-15.549-2.724-6.446-2.392-6.911,17.543,2.126,17.41-2.724S184.139,244.133,184.139,244.133Z" transform="translate(-151.451 -204.24)"/><path class="l" d="M149.687,185.023s1.794,4.884.7,8.522l5.981-1.445s-2.447-8.173-3.493-9.569S149.687,185.023,149.687,185.023Z" transform="translate(-108.578 -173.937)"/><path class="i" d="M152.179,189.409a2.983,2.983,0,0,1,3.067,2.962l1.12-.27s-2.447-8.173-3.493-9.569-3.185,2.492-3.185,2.492a20.139,20.139,0,0,1,1,4.742A3.147,3.147,0,0,1,152.179,189.409Z" transform="translate(-108.578 -173.937)"/><path class="l" d="M157.112,175.075s-2.324,1.11-2.879,2.046-.069,2.231-.116,3.087a13.149,13.149,0,0,0-.153,2.335c.13.208.985,0,1.124.185s1.249.879,1.6,1.665.809.855,1.619.462,3.907-4.485,3.942-6.4S159.412,174.289,157.112,175.075Z" transform="translate(-116.621 -170.355)"/><path class="k" d="M150.262,170.126a16.124,16.124,0,0,0-1.2,3.028,7.155,7.155,0,0,0,1.2,3.738c.486.337.075-2.841,1.308-1.869s-.074,2.8,0,3.178a2.285,2.285,0,0,0,1.907,1.682c1.271.112,3.364-6.206,1.981-7.776A7.154,7.154,0,0,0,150.262,170.126Z" transform="translate(-107.803 -168.01)"/><path class="m" d="M170.915,233.293l-7.921-.6s-4.122,4.6-8.193,4.6H140.88a25.008,25.008,0,0,0,4.054,10.389s13.275.977,19.721.445S177.228,240.493,170.915,233.293Z" transform="translate(-121.284 -198.651)"/><path class="f" d="M161.314,234.223c-.227-.31-.468-.619-.74-.93l-7.921-.6s-4.012,4.473-8.03,4.592C149.475,237.779,158.746,238.852,161.314,234.223Z" transform="translate(-110.943 -198.651)"/><path class="n" d="M188.808,242.646c2.018-.2,3.978-.679,5.965-.93h-8.734C186.9,242.159,187.326,242.791,188.808,242.646Z" transform="translate(-165.535 -203.068)"/><path class="o" d="M153.633,196.167a33.771,33.771,0,0,1-4.869,1.563s-2.562,5.648-3.558,7.176,2.526,7.376,2.725,9.9c0,0,2.118,2.022,8.534.778C156.466,215.585,158.14,199.721,153.633,196.167Z" transform="translate(-106.605 -180.763)"/><path class="f" d="M151.352,202.591a3.062,3.062,0,0,0-3.589,1.127c-.67,1.38.018,3.832-.063,5.326a28.949,28.949,0,0,1-.581,5.187,10.792,10.792,0,0,1-2.09,3.874c.822.5,3.206,1.495,8.183.53,0,0,1.021-9.674-.678-15.605C152.071,202.871,151.643,202.723,151.352,202.591Z" transform="translate(-103.352 -183.812)"/><path class="l" d="M181.242,234.07a7.55,7.55,0,0,1-1.76-.707,2.35,2.35,0,0,0-1.5-.424c-.4.058-3.658,1.414-2.791,2.019.281.2.983-.148,1.264-.248.4-.143.8-.339,1.185-.509-.351-.018-2.111.729-1.926,1.14.325.723,2.108-.243,2.522-.476-.316.049-1.419.463-1.418.865,0,.632,1.312.1,1.6-.041a1.924,1.924,0,0,1,.6-.291,2.37,2.37,0,0,1,.8.141,4.683,4.683,0,0,0,1.388.027c.271-.025.9.033,1.038-.2a1,1,0,0,0-.175-.988A1.994,1.994,0,0,0,181.242,234.07Z" transform="translate(-147.46 -198.762)"/><path class="o" d="M142.31,217.507l.7,2.622s17.144-1.994,17.543-5.034-.7-17.192-4.834-15.723-.05,11.736-.7,12.533S142.31,217.507,142.31,217.507Z" transform="translate(-109.075 -182.28)"/><path class="k" d="M167.442,167.184a3.43,3.43,0,0,0-4.174.187c-2.131,1.72-2.056,4.3-3.813,4.075,0,0,1.159,2.991,3.7,2.281S168.327,168.978,167.442,167.184Z" transform="translate(-124.815 -166.261)"/></g></g></g></svg>