<svg xmlns="http://www.w3.org/2000/svg" width="160.975" height="162" viewBox="0 0 160.975 162"><defs><style>.a{fill:#fff;}.b{fill:#5cae48;}.c{fill:#4ea33a;}.d{fill:#6fd257;}.e{fill:#439a2e;}.f{fill:#040a3a;}.g{fill:#ec9ea4;}.h{fill:#ec7d84;}.i{fill:#af142a;}.j{fill:#d42941;}.k,.l,.m{fill:none;}.l{stroke:#ec6f78;}.l,.m{stroke-linecap:round;stroke-linejoin:round;}.m{stroke:#af142a;}.n{fill:#f1f1f1;}</style></defs><g transform="translate(-200.624 -195.537)"><path class="a" d="M408.319,541.846a109.722,109.722,0,0,0,16.163-17.033,83.3,83.3,0,0,0,8.875-14.655,28.7,28.7,0,0,0,2.71-11.913c.095-5.069.179-11.754-2.253-16.363-6.865-13-25.457-11.168-33.56-22.541a7.866,7.866,0,0,1-1.529-6.575c.795-3.274,3.169-5.133,4.825-7.9,3.917-6.547,4.488-14.688-3.814-17.579a26.669,26.669,0,0,0-6.437-1.239,52.21,52.21,0,0,0-9.43.014,105.6,105.6,0,0,0-13.153,2c-6.067,1.39-38.913,12.941-45.473,19.632-2.283,2.329-5.471,6.4-2.942,9.68,2.061,2.672,8.912,3.971,6.406,8.542-2.434,4.441-11.747,8.156-15.913,10.836-8.3,5.342-17.522,11.078-23.257,19.292-7.269,10.41-3.782,31.857,9.007,36.833C336.816,548.359,380.3,558.887,408.319,541.846Z" transform="translate(-76.595 -207.115)"/><path class="a" d="M1503.512,666.483c-3.028.876-6.165,5.04-3.764,8.007,1.927,2.382,5.413,3.19,8.338,2.618,3.556-.7,6.089-5.264,3.575-8.326-1.764-2.149-4.352-3.249-8.14-2.282" transform="translate(-1167.553 -423.225)"/><path class="a" d="M598.592,566.357c.914-1.1,1.905-2.185,2.73-3.35.291-.411.843-1.194.679-1.746-.271-.909-1.387-1-2.17-.852a7.446,7.446,0,0,0-4.235,3.086,10.946,10.946,0,0,0-2.274,5.567c-.079,1.332.942,2.18,2.108,1.274C595.428,570.337,597.565,567.589,598.592,566.357Z" transform="translate(-353.153 -328.084)"/><path class="b" d="M248.314,1464.577c-.112-.006-1.718.36-1.831.354-4.739-4.2-10.726-6.271-16.837-4.8-3.3.793-5.476,2.545-8.931,2.178-5.431-.586-2.556-5.265-7.159-6.23-3.567-.74-9.667,1.094-12.282-2.136-2.668-3.3,3.567-7.318,6.247-7.875,2.982-.615,5.733.479,8.644.112,1.881-.242,2.526-2.165,4.266-2.727a7.347,7.347,0,0,1,6.8,1.361c-1.225,1.946-2.591,4,.325,6.378C231.2,1454.159,244.013,1460.028,248.314,1464.577Z" transform="translate(0 -1121.955)"/><g transform="translate(205.575 328.862)"><path class="c" d="M295.185,1532.332a.292.292,0,0,1-.187-.067c-11.13-9.132-26.23-13.081-44.882-11.734a.3.3,0,0,1-.316-.274.3.3,0,0,1,.274-.316c18.808-1.357,34.049,2.635,45.3,11.867a.3.3,0,0,1-.188.524Z" transform="translate(-249.798 -1519.682)"/></g><path class="d" d="M1366.835,1008.769c.371,4.239-5.533,9.5-8.08,12.4-5.4,6.167-9.369,12.469-13.769,19.426-1.934,3.062-8.359,15.617-9.584,19.05l.14.08a93.77,93.77,0,0,0-4.878,10.078v.016l-6.57.322-.44-10.476c.456-12.313,5-23.294,11.179-33.743,2.67-4.512,5.313-9.063,9.106-12.759,4.33-4.223,9.611-8.187,15.751-9.1C1362.994,1003.585,1366.5,1005.035,1366.835,1008.769Z" transform="translate(-1009.954 -727.044)"/><path class="b" d="M1415.886,1322.645c5.981-1.449,15.518-.4,12.075,8.318-2.035,5.159-7.762,8.082-12.448,10.454-6.869,3.473-14.229,6.75-19.8,12.164-.663.645-1.307,1.325-1.917,2.041l-6.613.022s3.091-7.589,4.978-10.943C1399.413,1331.821,1409.538,1324.183,1415.886,1322.645Z" transform="translate(-1067.091 -1013.136)"/><g transform="translate(315.779 283.051)"><path class="b" d="M1344.605,1123.916a.3.3,0,0,1-.062-.006.3.3,0,0,1-.228-.351c4.834-22.859,13.727-37.626,20.336-45.988,7.173-9.076,13.3-12.792,13.358-12.829a.3.3,0,0,1,.3.508c-.06.036-6.111,3.713-13.22,12.716-6.562,8.31-15.393,22.987-20.2,45.716A.3.3,0,0,1,1344.605,1123.916Z" transform="translate(-1344.309 -1064.7)"/></g><g transform="translate(321.88 316.627)"><path class="e" d="M1405.194,1423.191a.3.3,0,0,1-.237-.473c13.75-18.389,29.289-24.478,29.444-24.538a.3.3,0,0,1,.211.553c-.154.059-15.541,6.1-29.182,24.34A.3.3,0,0,1,1405.194,1423.191Z" transform="translate(-1404.899 -1398.161)"/></g><path class="d" d="M396.6,1292.123c.84-1.331,1.609-2.615.917-3.922-1.935-3.692-10.856-6.49-8-11.915,2.165-4.112,7.271-3.49,10.407-.876a27.418,27.418,0,0,1,4.727,5.774c.905,1.3,1.538,2.822,2.81,3.822,2.408,1.893,6.23.982,8.176,3.562,1.532,2.023,1.39,4.7,2.083,7.028,1.035,3.473,6.5,2.3,8.715,5.165,1.331,1.733,1.148,4.236,2.272,6.111.893,1.479,2.467,2.372,3.851,3.4a7.255,7.255,0,0,1,2.438,2.757q-8.652-.568-17.311-1.142c-4.3-4.55-17.116-10.418-20.76-13.388C394.01,1296.122,395.377,1294.069,396.6,1292.123Z" transform="translate(-169.373 -969.267)"/><g transform="translate(225.514 308.765)"><path class="b" d="M476.764,1354.836a.294.294,0,0,1-.246-.132,204.611,204.611,0,0,0-28.6-34.114.3.3,0,0,1,.409-.427,205.188,205.188,0,0,1,28.682,34.213.3.3,0,0,1-.246.46Z" transform="translate(-447.828 -1320.082)"/></g><path class="f" d="M965.658,281.466c1.609.059,3.147,1.905,3.768,3.207l.006.095c-.154.012-.308.018-.455.03-1.248.083-2.556.118-3.846.237,0,.006-.006,0-.006,0a4.049,4.049,0,0,0-3.355-.87l-.065-.065a13.881,13.881,0,0,1,3.875-2.81Z" transform="translate(-684.45 -77.117)"/><path class="f" d="M1008.1,277.23l-.095.136a9.774,9.774,0,0,1-3.964.745l-.006-.095c-.621-1.3-2.159-3.147-3.769-3.207l-.077-.178a7.875,7.875,0,0,1,2.319-.7C1004.843,273.632,1007.529,274.786,1008.1,277.23Z" transform="translate(-719.062 -70.461)"/><path class="f" d="M941.664,309.809a11.791,11.791,0,0,0-6.029,1.946l-.018-.012c.722-.769,1.4-1.568,2.118-2.349.16-.178.331-.355.509-.521l.065.065A4.048,4.048,0,0,1,941.664,309.809Z" transform="translate(-660.989 -101.893)"/><path class="g" d="M1085.171,782.6l-.035.012c-.61-1.674-1.385-3.3-2.094-4.934a12.322,12.322,0,0,0,3.863,1.509,7.42,7.42,0,0,0,3.112,2.721,16.209,16.209,0,0,0,2.272.615,15.888,15.888,0,0,1-4.946,5.756C1086.579,786.477,1085.845,784.59,1085.171,782.6Z" transform="translate(-793.568 -523.523)"/><path class="g" d="M899.58,824.266a23.274,23.274,0,0,0,1.645,4.5l-.012.006A14.22,14.22,0,0,1,892.8,825.3a13.709,13.709,0,0,1-3.189-3.834,29.1,29.1,0,0,0,4.461-2.656,1.576,1.576,0,0,0,.343.793c.118.148.219.3.343.432-.03.319-.041.639-.059.958-.053,1.13-.515,2.721.669,3.449.834.515,2.384,1.373,3.431,1.154a.988.988,0,0,0,.734-1.313Z" transform="translate(-619.614 -560.513)"/><path class="h" d="M1069.7,714.274a14.638,14.638,0,0,0,2.088,7.892,12.324,12.324,0,0,1-3.863-1.509c-.373-.864-.728-1.739-1.029-2.627-.231-.692-.438-1.4-.663-2.1A12.4,12.4,0,0,0,1069.7,714.274Z" transform="translate(-778.455 -466.507)"/><path class="f" d="M1075.377,474.736a2.169,2.169,0,1,1-1.509,2.437A2.035,2.035,0,0,1,1075.377,474.736Z" transform="translate(-785.289 -251.065)"/><path class="a" d="M1055.663,478.346a2.169,2.169,0,1,0-2.23-1.8A2.038,2.038,0,0,0,1055.663,478.346Zm.13.58a5.483,5.483,0,0,1-3.638.012,2.236,2.236,0,0,1-.645-3.195l-.018-.012a4.4,4.4,0,0,1,5.555-1.242l-.018.041a2.4,2.4,0,0,1,.627,1.591,2.144,2.144,0,0,1-1.864,2.8Z" transform="translate(-764.853 -250.433)"/><path class="f" d="M749.057,230.457a19.667,19.667,0,0,1-2.083-6.082V224.2a6.36,6.36,0,0,1-1.568-.745c-3.639-2.39-1.5-7.809.574-10.5,1.313-1.7,3.047-3.053,4.248-4.851,2.035-3.041,3.4-6.5,6.354-8.851,4.26-3.378,10.413-4.195,15.7-3.479,7.555,1.029,8.945,5.118,9.567,6.431,2.337.858,3.775,2.982,5.354,4.822.988,1.142,2.384,1.834,3.319,3.047,2.42,3.153,1.9,6.91-.562,9.821a14.326,14.326,0,0,1-.219,6.5,3.787,3.787,0,0,0-1.183,1.55c-.107.29-.426,1.633-.923,1.633a.247.247,0,0,1-.065-.006c-.189-.047-.2-.485-.213-.627a7.305,7.305,0,0,0-.467-1.946c-1.426-3.313-.45-7.088-1.378-10.56a21.533,21.533,0,0,1-3.71-2.852c-1.7-2.006-2.432-5.183-4.668-6.662l-.03-.018.095-.136c-.574-2.443-3.26-3.6-5.591-3.3a7.873,7.873,0,0,0-2.319.7,13.879,13.879,0,0,0-3.875,2.81c-.177.166-.349.343-.509.521-.716.781-1.4,1.58-2.118,2.349-.136.148-.278.3-.42.444a17.716,17.716,0,0,1-3.082,2.834,10.8,10.8,0,0,1-2.585,1.089c-.006-.006-.006-.006-.012.006-1.461.958-2.171,2.733-2.994,4.206a17.285,17.285,0,0,1-1.5,2.29c.071.8.385,1.609.521,2.4a14.561,14.561,0,0,1,.154,3.088c-.059,1.361-.864,2.526-.935,3.9a11.52,11.52,0,0,0,.337,2.378,1.329,1.329,0,0,1-.16,1.16c-.846.887-1.935-.852-2.207-1.42C749.631,231.634,749.341,231.048,749.057,230.457Z" transform="translate(-488.159)"/><path class="g" d="M1187.179,495.572c2.52,2.982.716,7.5-2.236,9.507a5.5,5.5,0,0,1-2.887,1.124l-.242-.059a21.121,21.121,0,0,0,.544-3.591,16.567,16.567,0,0,0,.095-2.917l-.58-.864c.5,0,.816-1.343.923-1.633a3.787,3.787,0,0,1,1.183-1.55C1184.949,494.809,1186.25,494.483,1187.179,495.572Z" transform="translate(-882.395 -269.198)"/><path class="g" d="M956.479,661.446a9.707,9.707,0,0,1,2.94,5.053,11.007,11.007,0,0,1-2.236.438l-1.373.456c-.313-.077-.633-.154-.953-.225l.006-.018c-.722-1.828-.887-3.337-2.9-4.1-1.254-.473-3.952,1.183-4.467-.852-.272-1.094,1.242-1.515,1.946-1.905a7.013,7.013,0,0,1,2.118-.941C953.225,659.038,955.23,660.458,956.479,661.446Z" transform="translate(-671.638 -417.074)"/><path class="h" d="M952.677,731.335a3.918,3.918,0,0,0-1.053,1.018c-.006-.461-.018-.929-.024-1.39C951.961,731.092,952.322,731.216,952.677,731.335Z" transform="translate(-675.362 -481.514)"/><path class="f" d="M1065.727,420.623a8.257,8.257,0,0,0-3.431.55c-.361.1-1.183.077-1.171-.485s.769-.858,1.189-1.047a4.809,4.809,0,0,1,4.354.16,2.723,2.723,0,0,1,.864.757c.373.592-.124.858-.544.461A2.3,2.3,0,0,0,1065.727,420.623Z" transform="translate(-773.858 -201.141)"/><path class="i" d="M1099.869,1141.347c-3.244-7.632-6.426-16.593-8.931-24.128a121.841,121.841,0,0,0,5.378,25.1C1097.5,1142.011,1098.68,1141.633,1099.869,1141.347Z" transform="translate(-800.67 -828.88)"/><path class="j" d="M610.914,893.889c.45,1.846.6,4.082,1.887,5.585,2.118,2.467,7.289,1.964,10.188,1.734a176.949,176.949,0,0,0,20.6-3.248c.41-.082.819-.179,1.227-.284a121.854,121.854,0,0,1-5.378-25.1c-2.686-8.078-4.593-14.517-4.954-15.907a10.147,10.147,0,0,1-3.7-4.183l-.012.006a14.22,14.22,0,0,1-8.413-3.473,13.708,13.708,0,0,1-3.189-3.834c-5.591,2.757-11.963,4.348-16.737,8.058-10.223,7.957-11.117,21.606-13.542,33.237v.03c.467-.036,1.207-.071,2.13-.1,4.816-.172,14.731-.343,18.323-1.024C609.79,888.239,610.234,891.085,610.914,893.889Z" transform="translate(-349.17 -584.238)"/><path class="i" d="M1227.736,1509.514c-.137-2.441-.19-4.856-.19-7.236a20.335,20.335,0,0,1-9.105-6.372c-.225-.266-.45-.55-.68-.858-1.226.739-2.5,1.382-3.791,2.013C1217.505,1502.5,1222.007,1507.035,1227.736,1509.514Z" transform="translate(-911.314 -1168.666)"/><path class="h" d="M1151.356,1372.778c1.287-.631,2.565-1.274,3.791-2.013-2.266-3.047-4.774-8.093-7.247-13.915-1.189.286-2.368.664-3.554.97A67.322,67.322,0,0,0,1151.356,1372.778Z" transform="translate(-848.7 -1044.383)"/><path class="i" d="M829.739,1560.557c-1.751.4-3.709.7-5.5,1.011a16.766,16.766,0,0,1-5.981-.059c0,1.282-.006,2.565-.015,3.847a53.365,53.365,0,0,0,31.7-11.346A142.359,142.359,0,0,1,829.739,1560.557Z" transform="translate(-555.436 -1221.691)"/><path class="j" d="M872.1,1531.7c-.148-1.413-.246-2.812-.324-4.206-5.729-2.479-10.231-7.01-13.767-12.453-.856.42-1.716.834-2.569,1.265-1.721.939-3.615,1.829-5.572,2.659a53.364,53.364,0,0,1-31.7,11.346c0,.463-.007.926-.009,1.389Z" transform="translate(-555.358 -1186.646)"/><path class="k" d="M1057.029,474.53l.018-.041a4.4,4.4,0,0,0-5.555,1.242l.018.012a2.236,2.236,0,0,0,.645,3.195,5.483,5.483,0,0,0,3.638-.012,2.144,2.144,0,0,0,1.864-2.8A2.4,2.4,0,0,0,1057.029,474.53Z" transform="translate(-764.853 -250.433)"/><path class="k" d="M901.709,489.408l.018-.035a4.4,4.4,0,0,0-5.555,1.23l.024.018a2.234,2.234,0,0,0,.639,3.195,5.447,5.447,0,0,0,3.639-.012,2.144,2.144,0,0,0,1.864-2.8A2.409,2.409,0,0,0,901.709,489.408Z" transform="translate(-625.175 -263.814)"/><path class="k" d="M886.226,439.372c.367.047,1.183-.095,1.095-.645s-.887-.746-1.331-.87a4.784,4.784,0,0,0-4.283.769,2.723,2.723,0,0,0-.751.87c-.284.639.243.834.6.385a2.223,2.223,0,0,1,1.2-.574A8.182,8.182,0,0,1,886.226,439.372Z" transform="translate(-611.757 -217.743)"/><path class="k" d="M1066.667,419.8a4.809,4.809,0,0,0-4.354-.16c-.42.189-1.177.485-1.189,1.047s.811.586,1.171.485a8.258,8.258,0,0,1,3.431-.55,2.3,2.3,0,0,1,1.26.4c.42.4.917.13.544-.461A2.723,2.723,0,0,0,1066.667,419.8Z" transform="translate(-773.858 -201.141)"/><path class="h" d="M833.708,340.414a4.325,4.325,0,0,1,1.226-1.586,9.918,9.918,0,0,1,2.142-.819,6.922,6.922,0,0,0,3.1-2.9c.619-.976,1.143-2.014,1.784-2.974a8.191,8.191,0,0,0-.911.572l-.018-.012c-.136.148-.278.3-.42.444a17.715,17.715,0,0,1-3.082,2.834,10.8,10.8,0,0,1-2.585,1.089c-.006-.006-.006-.006-.012.006-1.461.958-2.171,2.733-2.994,4.206a17.265,17.265,0,0,1-1.5,2.29,11.514,11.514,0,0,0,.379,1.751,10.414,10.414,0,0,0,.646-.837A40.687,40.687,0,0,0,833.708,340.414Z" transform="translate(-566.402 -122.846)"/><path class="g" d="M802.6,331.97l-.58-.864a.244.244,0,0,1-.065-.006c-.189-.047-.2-.485-.213-.627a7.305,7.305,0,0,0-.467-1.946c-1.426-3.313-.45-7.088-1.379-10.561a21.538,21.538,0,0,1-3.709-2.852c-1.7-2.006-2.432-5.183-4.668-6.662l-.029-.018a9.773,9.773,0,0,1-3.964.745c-.154.012-.308.018-.456.03-1.248.083-2.556.118-3.846.237,0,.006-.006,0-.006,0a13.084,13.084,0,0,0-5.117,1.375c-.64.959-1.164,2-1.784,2.974a6.921,6.921,0,0,1-3.1,2.9,9.918,9.918,0,0,0-2.141.819,4.325,4.325,0,0,0-1.226,1.586,40.665,40.665,0,0,1-2.242,4.065,10.431,10.431,0,0,1-.646.837c.055.216.105.431.142.645a14.565,14.565,0,0,1,.154,3.088c-.059,1.361-.864,2.526-.935,3.9a11.525,11.525,0,0,0,.337,2.378,1.329,1.329,0,0,1-.16,1.16c-.846.887-1.935-.852-2.207-1.42-.278-.586-.568-1.171-.852-1.763-1.106-.68-2.538-.852-3.3.432-1.994,3.354.538,7.508,3.78,9a7.175,7.175,0,0,0,3.485.609h.006c2.319,4.277,6.863,7.277,11.371,8.951.361.13.722.254,1.077.373a2.1,2.1,0,0,1,.361-.189,4.412,4.412,0,0,1,1.668-.136,19.049,19.049,0,0,1,3.875.6l.006-.018c-.722-1.828-.887-3.337-2.9-4.1-1.254-.473-3.952,1.183-4.467-.852-.272-1.094,1.242-1.515,1.946-1.905a7.009,7.009,0,0,1,2.118-.941c1.668-.314,3.674,1.106,4.922,2.094a9.707,9.707,0,0,1,2.94,5.053,12.4,12.4,0,0,0,3.467-1.656,19.084,19.084,0,0,0,3.171-2.71,24.568,24.568,0,0,0,3.065-3.627,15.26,15.26,0,0,0,1.935-4.485,21.115,21.115,0,0,0,.544-3.591A16.579,16.579,0,0,0,802.6,331.97Z" transform="translate(-502.547 -101.531)"/><path class="g" d="M774.624,561.94a4.873,4.873,0,0,1,.85.562,2.283,2.283,0,0,1,1.025,1.307c.041.256-.008.519.018.777a.661.661,0,0,0,.412.6l.267-1.557a.923.923,0,0,0-.384-1.068c-.371-.344-.742-.688-1.137-1a2.323,2.323,0,0,0-1.01-.537c-.409-.072-1.2.186-1.026.744A1.923,1.923,0,0,1,774.624,561.94Z" transform="translate(-515.296 -328.677)"/><path class="g" d="M1200.176,519.249a2.322,2.322,0,0,0-1.01.537c-.24.191-.47.394-.7.6-.2.325-.4.648-.584.98a1.059,1.059,0,0,0-.179.524,1.363,1.363,0,0,0,.227.58,2.57,2.57,0,0,1,.251.736.873.873,0,0,0,.139-.4c.026-.258-.022-.521.019-.777a2.283,2.283,0,0,1,1.025-1.307,4.87,4.87,0,0,1,.85-.562,1.921,1.921,0,0,1,.986-.172C1201.375,519.436,1200.586,519.178,1200.176,519.249Z" transform="translate(-896.687 -291.108)"/><path class="j" d="M1168.241,856.063a77.429,77.429,0,0,0-2.661-11.665l-.012.006c-4.6-9.92-18.807-14.672-28.307-17.077-2.659-.673-4.949-1.162-6.557-1.53a15.887,15.887,0,0,1-4.946,5.756,124.976,124.976,0,0,0,6.626,13.045,214.947,214.947,0,0,0,16.376,25.534c.095-1.751.213-3.863.325-5.839,4.13.521,14.015.319,18.423.13.893-.035,1.562-.071,1.911-.106C1169.082,861.8,1168.711,858.968,1168.241,856.063Z" transform="translate(-831.984 -566.801)"/><path class="h" d="M628.3,1244.446c-3.591.68-13.507.852-18.322,1.023-.01.66-.009,1.315,0,1.961a103.151,103.151,0,0,0,18.372-2.683Z" transform="translate(-368.128 -943.297)"/><path class="g" d="M663.818,1259.422c-.408.105-.816.2-1.227.284a176.9,176.9,0,0,1-20.6,3.248c-2.9.231-8.07.734-10.188-1.733-1.29-1.5-1.438-3.739-1.887-5.585-.656-2.706-1.093-5.45-1.526-8.2a103.148,103.148,0,0,1-18.372,2.683c.023,2.146.124,4.177.233,5.837a47.5,47.5,0,0,0,2.443,12.442c2.8,7.957,9.809,15.8,18.3,17.405a16.766,16.766,0,0,0,5.981.059c1.787-.308,3.745-.615,5.5-1.012,2.112-.479,16.471-4.124,25.783-9.206.853-.43,1.713-.845,2.569-1.265A67.32,67.32,0,0,1,663.818,1259.422Z" transform="translate(-368.173 -945.985)"/><path class="h" d="M1358.68,1208.44c-2.219-.041-4.216-.134-5.583-.306-.112,1.976-.231,4.088-.325,5.839l-.161-.214a85.825,85.825,0,0,0,7.563,11.606A43.917,43.917,0,0,1,1358.68,1208.44Z" transform="translate(-1035.996 -910.641)"/><path class="g" d="M978.765,779.1a43.919,43.919,0,0,0,1.494,16.925,85.831,85.831,0,0,1-7.563-11.606,215.826,215.826,0,0,1-16.215-25.32,124.964,124.964,0,0,1-6.626-13.045c-.763-1.8-1.5-3.686-2.171-5.68l-.036.012c-.609-1.674-1.384-3.3-2.094-4.934-.373-.864-.728-1.74-1.029-2.627-.231-.692-.438-1.4-.663-2.1a11,11,0,0,1-2.236.438l-1.373.456c-.314-.077-.633-.154-.953-.225a19.046,19.046,0,0,0-3.875-.6,4.411,4.411,0,0,0-1.668.136,2.1,2.1,0,0,0-.361.189,3.918,3.918,0,0,0-1.053,1.018c0,.006-.006.006-.006.012-.225.314-.432.639-.639.964-.816,1.278-2.331,3.443-1.029,4.863a2.535,2.535,0,0,0,.2.172,2.5,2.5,0,0,0-.325,1.444,1.576,1.576,0,0,0,.343.793c.118.148.219.3.343.432-.03.319-.042.639-.059.958-.053,1.13-.515,2.721.669,3.449.834.515,2.384,1.373,3.431,1.154a.988.988,0,0,0,.734-1.313l.047-.012a23.278,23.278,0,0,0,1.645,4.5,10.149,10.149,0,0,0,3.7,4.183A403.466,403.466,0,0,0,955.28,793.77c2.473,5.822,4.981,10.868,7.247,13.915.231.308.456.592.68.858a20.334,20.334,0,0,0,9.1,6.372,12.1,12.1,0,0,0,11.3-1.822,11.2,11.2,0,0,0,2.875-3.207c2.538-4.283,3.266-9.626,3.863-14.459.485-3.887,1.148-12.016,1.254-16.5C988.656,779.053,983.254,779.185,978.765,779.1Z" transform="translate(-656.081 -481.303)"/><path class="l" d="M1201.11,524.293c-1-.982-2.437.556-2.949,1.331a1.91,1.91,0,0,0-.413.8c-.033.514.58.991.591,1.586a2.078,2.078,0,0,1-.51,1.233" transform="translate(-896.724 -295.369)"/><path class="m" d="M762.206,1052.3a134.346,134.346,0,0,0,2.062,13.739c.362,1.9.658,3.81.957,5.719" transform="translate(-505.037 -770.493)"/><g transform="translate(258.331 232.669)"><path class="l" d="M773.751,564.762c.814-1.125,2.5.165,3.141.849a1.956,1.956,0,0,1,.547.723c.122.5-.4,1.069-.306,1.657a2.123,2.123,0,0,0,.719,1.136" transform="translate(-773.751 -564.318)"/></g><path class="l" d="M940.263,732.137a23.778,23.778,0,0,0-4.828-.818,4.412,4.412,0,0,0-1.667.135,3.476,3.476,0,0,0-1.421,1.218c-.229.311-.435.639-.642.966-.812,1.278-2.33,3.444-1.026,4.862a1.094,1.094,0,0,0,.148.129" transform="translate(-656.089 -481.822)"/><path class="l" d="M942.288,775.1c-2.728-.489-5.052-.307-7.194,1.54-.878.758-1.845,2.324-.95,3.447.107.134.2.266.3.387" transform="translate(-659.343 -521.002)"/><path class="l" d="M945.271,802.766c-1.62.094-3.734-.363-5.165.614a2.475,2.475,0,0,0-.868,1.206,6.337,6.337,0,0,0-.275,1.956c-.054,1.125-.517,2.717.665,3.446.838.516,2.383,1.373,3.431,1.154.9-.188.956-1.157.514-1.817a4.173,4.173,0,0,0-1.88-1.2" transform="translate(-663.877 -546.065)"/><path class="l" d="M972.659,846.263a3.747,3.747,0,0,0-.429-1.494" transform="translate(-693.914 -583.862)"/><path class="l" d="M978.218,849.6a5.72,5.72,0,0,0,.841-1" transform="translate(-699.3 -587.315)"/><path class="l" d="M988.641,873.022a24.1,24.1,0,0,0,1.581,4.377" transform="translate(-708.673 -609.271)"/><path class="l" d="M965.386,681.749c-.824-1.945-2.166-5.583-2.166-5.583-.937-2.555-2.253-4.985-3.124-7.558s-1.367-5.376-3.607-7.152c-1.247-.988-3.249-2.407-4.919-2.1a7.2,7.2,0,0,0-2.121.94c-.7.391-2.218.814-1.942,1.906.514,2.035,3.21.379,4.463.852,2.016.762,2.183,2.269,2.908,4.1" transform="translate(-671.651 -417.083)"/><path class="m" d="M1358.915,993.671c-.536,5.77-.848,11.534-1.241,17.311-.079,1.16-.171,2.694-.263,4.321" transform="translate(-1040.312 -717.772)"/><path class="n" d="M588.122,1632.051c-4.3-.266-8.882-.91-13.184-.363-5.542.7-10.816,2.7-16.384,3.233-12.191,1.167-24.583.662-36.764-.4-3.334-.289-6.707-.052-10.031-.36-6.377-.589-12.706-1.637-19.117-1.868-1.6-.057-8.848.109-8.54,2.87.266,2.383,4.469,2.681,6.231,2.83,6.367.537,13.211-.04,19.34,2.074,2.442.843,2.318,2.7,3.843,4.446a11.762,11.762,0,0,0,6.047,3.421c9.478,2.392,18.035-.252,27.3-2.023a104.4,104.4,0,0,1,15.785-1.455,84.6,84.6,0,0,1,10.624.3c4.306.388,8.825,1.627,13.087.233,5.048-1.65-.63-5.562-2.568-7.031-.55-.419-1.723-1.352-1.352-2.174.552-1.226,2.39-1.1,3.491-.973,2.521.291,6.665,1.683,8.972.011,1.772-1.281-2.568-2.081-2.989-2.163C590.7,1632.428,588.122,1632.051,588.122,1632.051Z" transform="translate(-254.926 -1291.356)"/><path class="n" d="M1540.907,1682.826a19.847,19.847,0,0,0-2.786-.564,24.089,24.089,0,0,0-4.8-.478c-.181.005-.359.021-.538.036-.528.047-2.2.244-1.491,1.159a1.757,1.757,0,0,0,.261.26,2.724,2.724,0,0,0,.556.356,15.084,15.084,0,0,0,2.641.861,21.371,21.371,0,0,0,5.5.848,3.892,3.892,0,0,0,1.95-.356.943.943,0,0,0-.127-1.659C1541.8,1683.149,1540.907,1682.826,1540.907,1682.826Z" transform="translate(-1196.529 -1336.593)"/><path class="n" d="M639.941,1730.38a15.965,15.965,0,0,0-3.255.013,5.018,5.018,0,0,0-2.038.425c-.531.32-.294.949.113,1.268a5.374,5.374,0,0,0,2.605.818,10.521,10.521,0,0,0,4.185-.145c.837-.274,1.888-.945.863-1.6a7.477,7.477,0,0,0-2.473-.776Z" transform="translate(-390.046 -1380.232)"/></g></svg>