<svg xmlns="http://www.w3.org/2000/svg" width="182.324" height="125.049" viewBox="0 0 182.324 125.049"><defs><style>.a{fill:#efefef;}.a,.b,.c,.d,.e,.f,.g,.h{fill-rule:evenodd;}.b{fill:#c46c5a;}.c{fill:#e28775;}.d{fill:#d42941;}.e{fill:#352748;}.f{fill:#d8d9d9;}.g{fill:#fefefe;}.h{fill:#0b3454;}</style></defs><g transform="translate(-184.813 -1160.225)"><path class="a" d="M363.92,1223.164c13.135-43.733-15.529-77.283-57.245-56.753-39.634,19.48-98.4.935-117.1,31.14-16.808,27.188,10.691,88.63,85.023,87.712,50.39-.623,74.823-13.84,89.319-62.1Z"/><g transform="translate(225.406 1179.289)"><path class="b" d="M488.845,1382.616l.377,5.624c-4.346,8.035-14.283,8.281-18.677.18l.377-5.936a13.833,13.833,0,0,0,17.923.131Z" transform="translate(-433.829 -1341.413)"/><path class="c" d="M336.845,1510.545c-2.722,10.675-3.017,20.907,1.312,21.58H368l-8.363-14.414a64,64,0,0,1-22.793-7.166Z" transform="translate(-334.843 -1434.825)"/><path class="c" d="M583.443,1510.545c2.738,10.675,3.034,20.907-1.3,21.58H552.3l8.347-14.414a64,64,0,0,0,22.793-7.166Z" transform="translate(-493.466 -1434.825)"/><path class="d" d="M372.138,1403.938c-9.166,1.132-22.662,3-27.483,10.724-2.821,4.51-7.346,10.839-9.019,17a64.553,64.553,0,0,0,24.581,8.15l8.363,14.414h8.576l4.263-.016,4.247.016h8.593l8.347-14.414a64.369,64.369,0,0,0,24.58-8.15c-1.656-6.166-6.2-12.5-9-17-4.821-7.723-18.2-9.757-27.368-10.9-4.346,8.035-14.283,8.281-18.677.18Z" transform="translate(-335.421 -1356.93)"/><path class="e" d="M436.918,1254.26c-.361-5.165.721-12,5.395-16.25.082-1.427.459-3.559,1.541-4.51.787-.705,1.673,2.132,2.656,1.722,1.164-.508.344-3.116,1.558-3.526,1.033-.344,1.361,2.427,2.41,2.2,1.246-.279.869-2.951,2.115-3.2,1.033-.213,1.919,2.591,2.968,2.574,5.395-.065,10.527,1.87,11.659,6.018,8.56.705,5.739,10.986,5.51,18.694-12.315-.836-23.481-2.886-35.813-3.722Z" transform="translate(-409.254 -1230.684)"/><path class="b" d="M559.236,1307.333a3.9,3.9,0,0,1,3.9,3.9c0,2.165-1.738,5.477-3.9,5.477-2.148,0-3.9-3.312-3.9-5.477a3.912,3.912,0,0,1,3.9-3.9Z" transform="translate(-495.676 -1286.595)"/><path class="b" d="M430.448,1307.333a3.9,3.9,0,0,0-3.9,3.9c0,2.165,1.738,5.477,3.9,5.477,2.148,0,3.9-3.312,3.9-5.477a3.912,3.912,0,0,0-3.9-3.9Z" transform="translate(-401.734 -1286.595)"/><path class="c" d="M460.125,1261.818a16.775,16.775,0,0,1,16.775,16.775c0,9.281-7.51,19.235-16.775,19.235-9.281,0-16.792-9.953-16.792-19.235a16.778,16.778,0,0,1,16.792-16.775Z" transform="translate(-413.979 -1253.394)"/><path class="e" d="M455.842,1251.38c-4.149.754-11.544,7.51-10.691,15.037,2.558,1.689,18-1.459,22.236-7.789,5.87.2,4.985,7.822,10.249,7.789a11.72,11.72,0,0,0-4.46-11.3c-4.608-3.706-11.528-4.8-17.333-3.739Z" transform="translate(-415.256 -1245.498)"/></g><g transform="translate(236.366 1239.054)"><path class="f" d="M410.537,1489.111h-28.7a4.3,4.3,0,0,1-4.149-4.149l-2.328-29.254a4.034,4.034,0,0,1,4.132-4.132h62.066a4.024,4.024,0,0,1,4.132,4.132l-2.328,29.254a4.286,4.286,0,0,1-4.149,4.149Z" transform="translate(-375.353 -1451.576)"/><path class="g" d="M497.216,1519.521a3.034,3.034,0,1,0-3.034-3.034,3.048,3.048,0,0,0,3.034,3.034Z" transform="translate(-462.031 -1496.712)"/><path class="g" d="M384.491,1457.807c-.9.016-1.837,1.787-.935,1.82,21.153.623,45,.705,66.149.082,1.246-.033-1.787-1.82-3.034-1.853q-31.065-.91-62.181-.049Z" transform="translate(-381.069 -1455.807)"/></g><path class="h" d="M212.869,1590.3H367.845a2.257,2.257,0,0,1,2.263,2.254v4.162a2.271,2.271,0,0,1-2.263,2.27H212.869a2.271,2.271,0,0,1-2.263-2.27v-4.162a2.257,2.257,0,0,1,2.263-2.254Z" transform="translate(-18.814 -313.714)"/></g></svg>