<svg xmlns="http://www.w3.org/2000/svg" xmlns:xlink="http://www.w3.org/1999/xlink" width="85.358" height="66.918" viewBox="0 0 85.358 66.918"><defs><style>.a{fill:none;}.b{clip-path:url(#a);}.c{fill:#d2001b;}.ad,.am,.c,.p{mix-blend-mode:screen;}.aa,.ad,.am,.c,.i,.l,.m,.p,.q,.t,.u{isolation:isolate;}.d,.i{fill:#c8c6c3;}.e{fill:#f0eae5;}.f{fill:#525f6c;}.g{fill:#afced9;}.h{fill:#21262b;}.aa,.i,.l,.m,.q,.t,.u{mix-blend-mode:multiply;}.j{fill:#fff;}.k,.l{fill:#d42941;}.m{fill:#c1021d;}.n{fill:#aaa8a9;}.o{fill:#c7cdca;}.p{fill:#b00711;}.q{fill:#5c5d5c;}.aa,.q{opacity:0.5;}.r{fill:#26a9e1;}.s{fill:#f6f4e7;}.t,.v{fill:#e8c563;}.w{fill:#2467c1;}.x{fill:#713d00;}.y{fill:#ea9b00;}.z{fill:#fdd900;}.ab{fill:#cd8400;}.ac{opacity:0.6;}.ad{fill:#74b394;}.ae{fill:#5b321e;}.af{fill:#b9b70a;}.ag{fill:#225600;}.ah{fill:#327031;}.ai{fill:#365a00;}.aj{fill:#4b7300;}.ak{fill:#628d00;}.al{fill:#94c400;}.am{opacity:0.3;}.an{fill:#cf6b25;}</style><clipPath id="a"><path class="a" d="M72.059,63.534s29.043-6.178,65.584-.409l9.452-39.9-8.5-9.041-21.008-2.211,1.9-2.348L108.634.143,90.1,7.091l1.347,5.026L68.763,14.489,61.737,25.335Z" transform="translate(-61.737 -0.143)"/></clipPath></defs><g transform="translate(-13.342 43.018)"><g transform="translate(13.342 -43.018)"><g class="b"><path class="c" d="M170.723,43.391l4.281.535,1.4,2.674Z" transform="translate(-134.718 -29.103)"/><g transform="translate(2.347 13.695)"><g transform="translate(6.371 6.194)"><path class="d" d="M88.126,63.092,95.147,106.6l25.409-4.121,1.028-41.89a131.144,131.144,0,0,0-33.458,2.5Z" transform="translate(-88.126 -60.347)"/><path class="e" d="M92.843,68.967,99.463,111l24.251-3.968-.573-39.695a137.469,137.469,0,0,0-30.3,1.63Z" transform="translate(-91.285 -64.903)"/></g><g transform="translate(10.6 10.028)"><path class="f" d="M101.87,79.074l-.941-6.276,8.124-.843.615,6.387Z" transform="translate(-100.929 -71.954)"/><path class="g" d="M105.477,78.722c-.109-1.289-.367-2.579-.366-3.874l-2.318.244.86,5.875,2.038-.193C105.609,80.091,105.536,79.408,105.477,78.722Z" transform="translate(-102.177 -73.892)"/><path class="g" d="M118.794,79.474l2.146-.2-.571-5.978-2.1.22C118.535,75.491,118.631,77.486,118.794,79.474Z" transform="translate(-112.538 -72.851)"/><path class="g" d="M112.676,74.049l-2.339.246c.179,1.977.386,3.951.59,5.926l2.29-.216C113.085,78.016,112.951,76.025,112.676,74.049Z" transform="translate(-107.229 -73.357)"/></g><g transform="translate(22.734 9.424)"><path class="f" d="M137.908,74.394l-.25-4.191,5.4-.077.029,4.245Z" transform="translate(-137.657 -70.126)"/><path class="g" d="M140.389,74.736c-.008-.351-.014-.7-.013-1.052,0-.855-.09-1.721-.013-2.574l-1.543.023.207,3.668Z" transform="translate(-138.437 -70.785)"/><path class="g" d="M149.117,74.575h.192c.406,0,.816,0,1.227-.011l-.022-3.6-1.4.021C149.171,72.176,149.132,73.376,149.117,74.575Z" transform="translate(-145.331 -70.683)"/><path class="g" d="M145.41,74.627c.027-1.2.045-2.4-.014-3.6l-1.556.023c0,1.208.018,2.415.035,3.623C144.387,74.655,144.9,74.636,145.41,74.627Z" transform="translate(-141.798 -70.732)"/></g><g transform="translate(12.21 23.17)"><path class="f" d="M107.015,121.525l-1.212-8.779,9.351-1.012.838,8.926Z" transform="translate(-105.803 -111.734)"/><path class="g" d="M111.141,120.869c-.152-1.8-.476-3.607-.5-5.415l-2.669.292,1.111,8.218,2.347-.228C111.322,122.782,111.222,121.826,111.141,120.869Z" transform="translate(-107.255 -114.225)"/><path class="g" d="M126.515,122.179l2.469-.24-.782-8.355-2.418.265C126.134,116.613,126.287,119.4,126.515,122.179Z" transform="translate(-119.184 -112.973)"/><path class="g" d="M119.347,114.494l-2.694.3c.248,2.763.526,5.523.8,8.284l2.637-.255C119.9,120.038,119.7,117.257,119.347,114.494Z" transform="translate(-113.068 -113.582)"/></g><g transform="translate(14.272 38.067)"><path class="f" d="M112.984,163.945l-.94-6.276,8.123-.843.616,6.386Z" transform="translate(-112.044 -156.826)"/><path class="g" d="M116.589,163.594c-.109-1.289-.367-2.579-.366-3.874l-2.319.242.86,5.876,2.038-.193C116.722,164.963,116.648,164.279,116.589,163.594Z" transform="translate(-113.29 -158.764)"/><path class="g" d="M129.909,164.345l2.145-.2-.573-5.977-2.1.221C129.648,160.361,129.745,162.356,129.909,164.345Z" transform="translate(-123.652 -157.721)"/><path class="g" d="M123.79,158.921l-2.34.246c.179,1.977.387,3.951.59,5.927l2.291-.217C124.2,162.886,124.065,160.9,123.79,158.921Z" transform="translate(-118.343 -158.229)"/></g><g transform="translate(24.339 22.897)"><path class="f" d="M142.765,115.176l-.25-4.191,5.4-.076.029,4.244Z" transform="translate(-142.516 -110.909)"/><path class="g" d="M145.246,115.515c-.009-.351-.015-.7-.013-1.053,0-.855-.091-1.72-.013-2.574l-1.542.022.206,3.669Z" transform="translate(-143.294 -111.565)"/><path class="g" d="M153.97,115.354h.194c.4,0,.815,0,1.226-.009l-.021-3.605-1.4.022C154.025,112.955,153.986,114.155,153.97,115.354Z" transform="translate(-150.185 -111.463)"/><path class="g" d="M150.268,115.407c.025-1.2.044-2.4-.015-3.6l-1.556.023c0,1.209.018,2.416.035,3.624C149.243,115.435,149.756,115.417,150.268,115.407Z" transform="translate(-146.655 -111.514)"/></g><g transform="translate(25.445 37.56)"><path class="f" d="M146.113,159.56l-.25-4.191,5.4-.077.029,4.245Z" transform="translate(-145.863 -155.292)"/><path class="g" d="M148.594,159.9c-.008-.351-.014-.7-.013-1.053,0-.855-.09-1.721-.014-2.574l-1.541.024.205,3.668Z" transform="translate(-146.643 -155.948)"/><path class="g" d="M157.319,159.738h.192c.406,0,.816,0,1.227-.011l-.022-3.6-1.4.022C157.373,157.34,157.334,158.54,157.319,159.738Z" transform="translate(-153.533 -155.847)"/><path class="g" d="M153.613,159.791c.026-1.2.045-2.4-.014-3.6l-1.557.024c0,1.208.019,2.416.035,3.622C152.59,159.82,153.1,159.8,153.613,159.791Z" transform="translate(-150.001 -155.897)"/></g><path class="h" d="M98.586,80.637c-1.982.046-4.07.159-6.208.338-5.381.448-9.372,1.165-9.411,1.172l-.163.03.7,4.064,15.25-1.27V80.633Zm-2.124.408.263,3.761-2.021.168-.266-3.816c.682-.047,1.362-.083,2.024-.114Zm-2.358.134L94.372,85l-1.833.152-.422-3.822.288-.025c.571-.047,1.138-.088,1.695-.127Zm-6.457.622q.777-.1,1.65-.193l.418,3.781-1.524.127Zm.21,3.743-1.749.146-.527-3.613c.514-.074,1.1-.153,1.735-.234Zm1.771-3.972c.684-.073,1.4-.144,2.156-.211l.422,3.821-2.16.18Zm-6.439.875c.3-.053,1.025-.173,2.062-.325l.524,3.6-1.994.166Zm15.233,2.217-1.365.113-.263-3.748q.825-.035,1.628-.055Z" transform="translate(-78.192 -67.738)"/><path class="h" d="M107.526,127.22c-1.981.046-4.07.16-6.207.338-5.381.448-9.372,1.166-9.412,1.172l-.162.03.7,4.063,15.251-1.27v-4.337Zm-2.124.408.264,3.76-2.021.168-.267-3.817q1.022-.066,2.022-.111Zm-2.358.133.268,3.823-1.833.152-.422-3.823.289-.024q.854-.071,1.7-.128Zm-6.457.622c.518-.064,1.069-.13,1.65-.194l.417,3.782-1.524.127Zm.21,3.742-1.748.146-.528-3.614c.515-.073,1.1-.152,1.735-.234Zm1.772-3.972c.683-.073,1.4-.144,2.157-.211l.42,3.821-2.159.18Zm-6.439.875c.3-.052,1.025-.174,2.061-.324l.525,3.6-1.994.166Zm15.233,2.217L106,131.36l-.262-3.747q.824-.036,1.628-.056Z" transform="translate(-84.179 -98.931)"/><path class="h" d="M110.336,170.688c-1.981.046-4.07.16-6.207.337-5.38.449-9.372,1.166-9.411,1.172l-.163.03.7,4.063,15.252-1.269v-4.338Zm-2.124.408.263,3.761-2.022.168-.267-3.817q1.026-.066,2.027-.108Zm-2.358.134.267,3.823-1.832.152-.422-3.823.289-.024q.856-.071,1.7-.128Zm-6.457.622q.777-.1,1.65-.193l.417,3.781-1.524.128Zm.21,3.743-1.748.145-.528-3.614c.514-.073,1.1-.152,1.735-.233Zm1.772-3.972c.683-.074,1.4-.145,2.157-.212l.421,3.822-2.16.179Zm-6.439.874c.3-.053,1.025-.173,2.062-.324l.525,3.594-2,.167Zm15.234,2.218-1.366.113-.262-3.747q.825-.035,1.629-.056Z" transform="translate(-86.06 -128.04)"/><path class="i" d="M93.4,96.587l-.324-1.9a228.148,228.148,0,0,1,31.441-1.948l.056,1.668Z" transform="translate(-85.069 -75.828)"/><path class="i" d="M100.942,145.2l-.283-1.591A222.262,222.262,0,0,1,129.1,141.8l.041,1.4Z" transform="translate(-90.148 -108.692)"/><g transform="translate(4.516 15.084)"><path class="d" d="M82.511,89.627s19.131-2.762,35.925-2.321l-.292,2.366a235.194,235.194,0,0,0-35.292,2.1Z" transform="translate(-82.511 -87.259)"/><path class="i" d="M83.8,92.477a250.3,250.3,0,0,1,34.759-2l.271,1.315a235.189,235.189,0,0,0-35.292,2.1Z" transform="translate(-83.202 -89.377)"/></g><g transform="translate(6.083 31.395)"><path class="d" d="M87.254,138.834s17.929-2.663,33.685-2.135l-.262,2.363a206.862,206.862,0,0,0-33.092,1.918Z" transform="translate(-87.254 -136.63)"/><path class="i" d="M88.576,140.743a213.426,213.426,0,0,1,32.684-1.94l.088,1.665a206.863,206.863,0,0,0-33.092,1.918Z" transform="translate(-87.925 -138.036)"/></g><g transform="translate(8.602 44.953)"><path class="d" d="M94.879,180.589s16.4-3.17,30.944-2.9l-.128,2.521a164.553,164.553,0,0,0-30.409,2.66Z" transform="translate(-94.879 -177.671)"/><path class="i" d="M96.328,182.632a169.582,169.582,0,0,1,30.031-2.675l.16,1.77a164.556,164.556,0,0,0-30.409,2.66Z" transform="translate(-95.703 -179.191)"/></g><g transform="translate(10.877 21.221)"><path class="j" d="M102.409,107.383c-.268-.109-.577.2-.629.436a.351.351,0,0,0,.088.366.25.25,0,0,0,.128.051.311.311,0,0,0,.276.055.485.485,0,0,0,.294-.271.687.687,0,0,0,.05-.374.327.327,0,0,0-.207-.263Z" transform="translate(-101.765 -106.856)"/><path class="j" d="M105.629,109.247a.254.254,0,0,0-.237-.038.328.328,0,0,0-.158.067.42.42,0,0,0-.189.411.18.18,0,0,0,.109.135l.022.012c.21.092.479-.127.533-.323A.254.254,0,0,0,105.629,109.247Z" transform="translate(-103.958 -108.086)"/><path class="j" d="M109.514,105.877a.352.352,0,0,0-.412.068l-.032.028a.534.534,0,0,0-.162.252.3.3,0,0,0,.022.243.271.271,0,0,0,.146.114.454.454,0,0,0,.484-.277.49.49,0,0,0,.048-.3A.173.173,0,0,0,109.514,105.877Z" transform="translate(-106.539 -105.834)"/></g><g transform="translate(7.323 10.095)"><path class="j" d="M91.592,73.562c-.244-.1-.525.187-.571.4a.315.315,0,0,0,.079.332.24.24,0,0,0,.116.047.283.283,0,0,0,.251.05.437.437,0,0,0,.266-.247.627.627,0,0,0,.046-.339.3.3,0,0,0-.187-.243Z" transform="translate(-91.007 -73.085)"/><path class="j" d="M94.518,75.256a.233.233,0,0,0-.214-.034.3.3,0,0,0-.145.062.38.38,0,0,0-.171.372.162.162,0,0,0,.1.123l.019.011c.19.083.436-.116.484-.294a.231.231,0,0,0-.073-.24Z" transform="translate(-92.999 -74.202)"/><path class="j" d="M98.045,72.2a.318.318,0,0,0-.373.062l-.029.025a.484.484,0,0,0-.147.229.27.27,0,0,0,.019.22.251.251,0,0,0,.133.1.414.414,0,0,0,.441-.252.458.458,0,0,0,.043-.27A.154.154,0,0,0,98.045,72.2Z" transform="translate(-95.344 -72.157)"/></g><path class="k" d="M75.039,44.421l-6.2,7.26s24.42-4.54,41.434-3.342l-2.956-5.824S96.032,39.5,75.039,44.421Z" transform="translate(-68.842 -41.599)"/><path class="k" d="M72.22,51.386l5.334-6.241,23.4-3.015-.081,2.933-22.79,2.2Z" transform="translate(-71.104 -41.955)"/><path class="l" d="M78.015,58.931,105,55.56l-.086-1.508Z" transform="translate(-74.984 -49.938)"/></g><g transform="translate(42.548 13.667)"><g transform="translate(1.605 6.204)"><path class="d" d="M228.851,62.977,221.928,106.5l-25.418-4.064-1.123-41.887a131.113,131.113,0,0,1,33.464,2.428Z" transform="translate(-195.387 -60.292)"/><path class="e" d="M229.572,68.847,223.047,110.9l-24.261-3.914.484-39.695a137.472,137.472,0,0,1,30.3,1.561Z" transform="translate(-197.663 -64.839)"/></g><g transform="translate(22.117 10.006)"><path class="f" d="M265.276,78.906l.927-6.278-8.125-.825-.6,6.388Z" transform="translate(-257.476 -71.803)"/><path class="g" d="M273.508,78.538c.106-1.29.362-2.58.357-3.876l2.32.239-.847,5.877L273.3,80.59C273.378,79.906,273.45,79.222,273.508,78.538Z" transform="translate(-268.072 -73.718)"/><path class="g" d="M260.645,79.318l-2.145-.2.558-5.979,2.1.215C260.9,75.334,260.8,77.329,260.645,79.318Z" transform="translate(-258.162 -72.699)"/><path class="g" d="M266.333,73.88l2.34.241c-.175,1.978-.378,3.952-.577,5.928l-2.29-.21C265.934,77.847,266.063,75.857,266.333,73.88Z" transform="translate(-263.054 -73.194)"/></g><g transform="translate(13.285 9.424)"><path class="f" d="M235.923,74.3l.241-4.192-5.4-.065-.018,4.245Z" transform="translate(-230.742 -70.04)"/><path class="g" d="M241.271,74.625c.007-.351.012-.7.01-1.052-.006-.856.086-1.721.007-2.575l1.544.02-.2,3.668Z" transform="translate(-237.793 -70.682)"/><path class="g" d="M232.843,74.483h-.192c-.406,0-.816,0-1.227-.008l.014-3.6,1.4.018C232.783,72.085,232.825,73.285,232.843,74.483Z" transform="translate(-231.199 -70.595)"/><path class="g" d="M236.185,74.527c-.029-1.2-.05-2.4.006-3.6l1.556.02c0,1.207-.013,2.415-.027,3.623C237.209,74.553,236.7,74.536,236.185,74.527Z" transform="translate(-234.368 -70.637)"/></g><g transform="translate(19.091 23.155)"><path class="f" d="M257.3,121.375l1.192-8.782-9.353-.991-.819,8.928Z" transform="translate(-248.319 -111.603)"/><path class="g" d="M266.814,120.7c.148-1.8.467-3.609.489-5.417l2.669.287-1.093,8.22-2.347-.223C266.637,122.61,266.734,121.654,266.814,120.7Z" transform="translate(-260.515 -114.065)"/><path class="g" d="M251.966,122.042l-2.47-.234.762-8.356,2.42.259C252.335,116.475,252.188,119.262,251.966,122.042Z" transform="translate(-249.107 -112.84)"/><path class="g" d="M258.631,114.341l2.694.289c-.241,2.763-.513,5.524-.783,8.285l-2.638-.249C258.091,119.886,258.28,117.105,258.631,114.341Z" transform="translate(-254.737 -113.436)"/></g><g transform="translate(18.509 38.053)"><path class="f" d="M254.355,163.8l.927-6.278-8.125-.824-.6,6.388Z" transform="translate(-246.556 -156.7)"/><path class="g" d="M262.586,163.433c.106-1.289.362-2.579.357-3.875l2.319.238-.847,5.877-2.038-.188C262.456,164.8,262.529,164.118,262.586,163.433Z" transform="translate(-257.151 -158.614)"/><path class="g" d="M249.722,164.213l-2.145-.2.559-5.979,2.1.216C249.974,160.229,249.881,162.224,249.722,164.213Z" transform="translate(-247.24 -157.594)"/><path class="g" d="M255.411,158.777l2.34.24c-.175,1.977-.378,3.952-.578,5.929l-2.291-.212C255.01,162.743,255.139,160.753,255.411,158.777Z" transform="translate(-252.131 -158.091)"/></g><g transform="translate(11.711 22.9)"><path class="f" d="M231.158,115.088l.241-4.192-5.4-.064-.019,4.245Z" transform="translate(-225.977 -110.832)"/><path class="g" d="M236.506,115.415c.008-.351.013-.7.01-1.053-.006-.856.087-1.721.008-2.575l1.542.019-.2,3.669Z" transform="translate(-233.028 -111.472)"/><path class="g" d="M228.079,115.274h-.193c-.4,0-.816,0-1.227-.008l.014-3.6,1.4.019C228.019,112.876,228.061,114.075,228.079,115.274Z" transform="translate(-226.434 -111.387)"/><path class="g" d="M231.422,115.318c-.028-1.2-.05-2.4.007-3.6l1.556.02c0,1.208-.013,2.416-.027,3.623C232.445,115.343,231.933,115.326,231.422,115.318Z" transform="translate(-229.604 -111.428)"/></g><g transform="translate(10.638 37.566)"><path class="f" d="M227.911,159.481l.241-4.192-5.4-.065-.019,4.245Z" transform="translate(-222.729 -155.225)"/><path class="g" d="M233.261,159.807c.007-.352.012-.7.01-1.053-.006-.855.086-1.721.007-2.574l1.542.02-.2,3.669Z" transform="translate(-229.782 -155.864)"/><path class="g" d="M224.832,159.666h-.193c-.4,0-.816,0-1.226-.007l.014-3.6,1.4.018C224.773,157.268,224.814,158.467,224.832,159.666Z" transform="translate(-223.187 -155.779)"/><path class="g" d="M228.174,159.711c-.028-1.2-.05-2.4.006-3.6l1.557.02c0,1.208-.013,2.415-.027,3.623C229.2,159.737,228.686,159.72,228.174,159.711Z" transform="translate(-226.356 -155.821)"/></g><path class="h" d="M253.742,80.5l.011,4.337,15.253,1.235L269.7,82l-.163-.029c-.04-.007-4.032-.715-9.414-1.151-2.139-.173-4.227-.282-6.209-.323Zm4.321.514-.257,3.817-2.022-.163.255-3.761q1,.037,2.024.1Zm2.032.145.288.024L259.97,85l-1.833-.148.259-3.824q.843.057,1.7.126Zm4.225,4.2-1.52-.129.409-3.782c.581.062,1.133.126,1.65.189Zm.866-3.677c.639.08,1.221.158,1.736.23l-.52,3.615-1.749-.142ZM262.463,85.2l-2.161-.175.413-3.822c.751.065,1.473.135,2.156.206Zm6.266.507-1.995-.162.516-3.6c1.038.149,1.759.268,2.062.319Zm-14.652-4.875q.8.019,1.628.052l-.254,3.748-1.365-.111Z" transform="translate(-232.859 -67.617)"/><path class="h" d="M244.909,127.1l.01,4.337,15.254,1.236.691-4.066-.163-.03c-.039-.006-4.033-.715-9.414-1.15-2.138-.173-4.227-.283-6.208-.323Zm4.321.514-.258,3.817-2.022-.163.255-3.761q.995.038,2.025.1Zm2.031.145.289.023-.414,3.824-1.833-.148.259-3.823q.844.051,1.7.12Zm4.225,4.2-1.525-.123.409-3.782c.581.063,1.133.127,1.651.189Zm.865-3.676c.64.08,1.221.158,1.736.23l-.52,3.615-1.748-.141ZM253.63,131.8l-2.161-.175.413-3.822c.752.065,1.473.135,2.157.206Zm6.266.507-2-.161.517-3.6c1.037.148,1.758.268,2.063.319Zm-14.653-4.875q.8.019,1.629.052l-.254,3.749-1.366-.111Z" transform="translate(-226.944 -98.823)"/><path class="h" d="M242.2,170.573l.011,4.338,15.254,1.235.69-4.065-.163-.03c-.039-.006-4.032-.715-9.414-1.15-2.138-.173-4.227-.283-6.208-.323Zm4.322.514-.259,3.817-2.021-.163.254-3.761q.995.041,2.021.107Zm2.031.145.289.024-.414,3.824-1.833-.148.258-3.824q.84.056,1.695.124Zm4.225,4.2-1.524-.124.408-3.782c.581.063,1.133.126,1.651.19Zm.866-3.677c.639.08,1.221.158,1.736.23l-.52,3.614-1.749-.141Zm-2.722,3.526-2.16-.175.412-3.822c.752.065,1.474.135,2.157.206Zm6.266.507-1.994-.162.516-3.6c1.037.148,1.759.268,2.063.32Zm-14.653-4.875q.8.019,1.629.053l-.253,3.748-1.366-.111Z" transform="translate(-225.127 -127.937)"/><path class="i" d="M227.637,96.493l.32-1.9a228.128,228.128,0,0,0-31.446-1.878l-.051,1.668Z" transform="translate(-194.501 -75.779)"/><path class="i" d="M226.306,145.113l.279-1.592a222.343,222.343,0,0,0-28.447-1.742l-.038,1.4Z" transform="translate(-195.6 -108.645)"/><g transform="translate(1.013 15.103)"><path class="d" d="M229.524,89.526s-19.137-2.72-35.93-2.24l.3,2.365a235.149,235.149,0,0,1,35.3,2.022Z" transform="translate(-193.594 -87.229)"/><path class="i" d="M229.525,92.372a250.315,250.315,0,0,0-34.764-1.923l-.268,1.315a235.153,235.153,0,0,1,35.3,2.022Z" transform="translate(-194.196 -89.343)"/></g><g transform="translate(1.724 31.41)"><path class="d" d="M229.436,138.731s-17.934-2.622-33.689-2.059l.267,2.363a206.773,206.773,0,0,1,33.1,1.843Z" transform="translate(-195.747 -136.593)"/><path class="i" d="M229.325,140.639a213.393,213.393,0,0,0-32.688-1.865l-.084,1.665a206.78,206.78,0,0,1,33.1,1.843Z" transform="translate(-196.287 -137.997)"/></g><g transform="translate(1.976 44.974)"><path class="d" d="M227.46,180.5s-16.4-3.133-30.951-2.832l.134,2.521a164.514,164.514,0,0,1,30.415,2.591Z" transform="translate(-196.509 -177.649)"/><path class="i" d="M227.107,182.543a169.716,169.716,0,0,0-30.037-2.608l-.156,1.772a164.51,164.51,0,0,1,30.415,2.591Z" transform="translate(-196.78 -179.166)"/></g><g transform="translate(27.514 21.188)"><path class="j" d="M280.753,107.181c.269-.11.578.2.63.435a.347.347,0,0,1-.086.365.25.25,0,0,1-.128.052.311.311,0,0,1-.276.056.484.484,0,0,1-.3-.271.688.688,0,0,1-.05-.373A.326.326,0,0,1,280.753,107.181Z" transform="translate(-278.319 -106.66)"/><path class="j" d="M277.891,109.053a.256.256,0,0,1,.237-.038.321.321,0,0,1,.158.067.421.421,0,0,1,.19.41.178.178,0,0,1-.109.135l-.022.012c-.209.092-.48-.127-.534-.322a.256.256,0,0,1,.08-.264Z" transform="translate(-276.484 -107.895)"/><path class="j" d="M273.915,105.693a.353.353,0,0,1,.412.067c.012.009.021.019.032.028a.528.528,0,0,1,.162.251.3.3,0,0,1-.021.243.274.274,0,0,1-.146.114.454.454,0,0,1-.486-.276.5.5,0,0,1-.049-.3.173.173,0,0,1,.1-.127Z" transform="translate(-273.815 -105.649)"/></g><g transform="translate(31.326 10.054)"><path class="j" d="M291.653,73.336c.244-.1.525.186.571.4a.317.317,0,0,1-.079.332.246.246,0,0,1-.116.047.284.284,0,0,1-.251.051.438.438,0,0,1-.267-.246.618.618,0,0,1-.047-.339A.3.3,0,0,1,291.653,73.336Z" transform="translate(-289.442 -72.864)"/><path class="j" d="M289.056,75.038a.229.229,0,0,1,.213-.034.287.287,0,0,1,.144.062.379.379,0,0,1,.172.371.163.163,0,0,1-.1.123l-.019.012c-.19.083-.436-.115-.485-.293a.231.231,0,0,1,.075-.241Z" transform="translate(-287.777 -73.986)"/><path class="j" d="M285.444,71.985a.319.319,0,0,1,.373.06l.029.026a.494.494,0,0,1,.147.229.273.273,0,0,1-.019.22.25.25,0,0,1-.133.1.413.413,0,0,1-.441-.251.455.455,0,0,1-.044-.271.154.154,0,0,1,.088-.113Z" transform="translate(-285.351 -71.946)"/></g><path class="k" d="M225.758,44.285l6.213,7.246s-24.43-4.485-41.442-3.248l2.943-5.831S204.753,39.409,225.758,44.285Z" transform="translate(-190.529 -41.514)"/><path class="k" d="M254.314,51.246l-5.348-6.229-23.4-2.963.087,2.933,22.8,2.154Z" transform="translate(-213.989 -41.876)"/><path class="l" d="M252.072,58.8l-27-3.31.082-1.509Z" transform="translate(-213.663 -49.859)"/></g><path class="m" d="M177.118,57.172l-.157.793,5.273.4Z" transform="translate(-138.896 -38.332)"/><path class="i" d="M88.569,66.089l-.443-2.324a248.984,248.984,0,0,1,68.9-.078l-.19,1.99S123.87,61.468,88.569,66.089Z" transform="translate(-79.408 -41.131)"/><path class="i" d="M156.078,61.694l3.062,40.331,16.536-.019,4.647-40.339Z" transform="translate(-124.912 -41.342)"/><g transform="translate(31.76 2.064)"><path class="n" d="M160.469,12.508l2.99,55.34,13.4-.98,4.708-53.354L173.73,6.389Z" transform="translate(-159.612 -6.389)"/><path class="o" d="M162.493,18.434l2.321,53.5,13.4-.98L182.248,19.4l-7.393-6.91Z" transform="translate(-160.967 -10.472)"/><path class="k" d="M172.065,7.409l-13.977,6.835-.214-1.434,14.118-6.42,8.516,7.688-.074,1.343Z" transform="translate(-157.874 -6.389)"/><path class="p" d="M158.677,13.615c.145,0,13.7-6.16,13.7-6.16l-13.736,6.974Z" transform="translate(-158.389 -7.103)"/></g></g><g transform="translate(38.347 10.423)"><path class="q" d="M187.339,37.278a4.632,4.632,0,1,1-4.637-4.627,4.632,4.632,0,0,1,4.637,4.627Z" transform="translate(-177.988 -32.335)"/><path class="r" d="M187.077,36.321a4.632,4.632,0,1,1-4.637-4.627A4.632,4.632,0,0,1,187.077,36.321Z" transform="translate(-177.813 -31.694)"/><path class="j" d="M178.454,36.784a3.067,3.067,0,0,1-.024-.566,4.246,4.246,0,0,1,.074-.647,4.192,4.192,0,0,1,.239-.812,3.882,3.882,0,0,1,.5-.871,3.942,3.942,0,0,1,.8-.782,5.547,5.547,0,0,1,1.027-.6c.092-.042.186-.086.28-.119s.189-.076.288-.1.2-.065.3-.087l.15-.038c.05-.013.1-.02.153-.03l.152-.028.154-.018c.052-.005.1-.014.154-.017l.155-.007a4.2,4.2,0,0,1,2.727.926,4.792,4.792,0,0,1,.716.7,4.4,4.4,0,0,1,.479.7,3.732,3.732,0,0,1,.268.593c.029.085.051.163.069.23s.031.127.039.174c.015.1.023.146.023.146h-.012s-.011-.05-.033-.143c-.01-.047-.029-.1-.048-.169A2.04,2.04,0,0,0,187,35a4.438,4.438,0,0,0-.78-1.242,5.126,5.126,0,0,0-.713-.672,4.611,4.611,0,0,0-.441-.3c-.08-.045-.158-.093-.241-.136s-.165-.088-.253-.124a4.159,4.159,0,0,0-1.118-.33,4.258,4.258,0,0,0-1.207.008c-.05.009-.1.013-.15.025l-.149.033c-.1.019-.2.049-.3.077s-.192.065-.287.1-.188.074-.28.115a4.457,4.457,0,0,0-1,.613c-.038.029-.074.06-.109.092l-.106.094c-.068.064-.132.131-.2.2a4.836,4.836,0,0,0-.343.412,4.218,4.218,0,0,0-.486.849,4.539,4.539,0,0,0-.255.79,4.784,4.784,0,0,0-.1.635,4.127,4.127,0,0,0-.017.415c0,.1.005.147.005.147Z" transform="translate(-178.225 -31.938)"/><g transform="translate(0.508 0.508)"><path class="s" d="M187.628,37.41a4.1,4.1,0,1,1-4.1-4.091,4.1,4.1,0,0,1,4.1,4.091Z" transform="translate(-179.409 -33.291)"/><path class="j" d="M183.48,41.481a4.124,4.124,0,1,1,4.12-4.129,4.124,4.124,0,0,1-4.12,4.129Z" transform="translate(-179.352 -33.233)"/></g><g transform="translate(0.951 0.808)"><g transform="translate(3.399 1.213)"><path class="t" d="M191.608,44.9h.006q.15-.013.3-.012l.32-.01h.328l.161.006a.767.767,0,0,1,.08.008V44.76a.393.393,0,0,1,0-.05c.02.012.04.024.061.034a1.061,1.061,0,0,1,.222.157,1.694,1.694,0,0,1,.141.14l-.022.021h0l-.02.018c-.022.019-.046.038-.07.056-.05.038-.1.076-.153.111a1.864,1.864,0,0,1-.183.109h-.012l-.028.014a.143.143,0,0,1,.006-.052.5.5,0,0,1,.007-.1,2.557,2.557,0,0,1-.387,0c-.173-.007-.346-.018-.518-.041-.07.005-.14.012-.209.015s-.159,0-.18-.092a.2.2,0,0,1,.062-.174.145.145,0,0,1,.088-.026Z" transform="translate(-191.301 -42.429)"/><path class="t" d="M191.783,38.165a1.04,1.04,0,0,0-.143-.213c-.04-.045-.084-.093-.13-.137l-.02.02h0l-.018.017-.055.065c-.037.046-.073.093-.107.142a1.62,1.62,0,0,0-.108.17v.011h0l-.014.025h.14c-.018.12-.008.549-.006.668,0,.144.039,1.2.056,1.446v.015a.028.028,0,0,0,0,.015s0,.017,0,0c0,.015.016.02.029.023a.353.353,0,0,0,.046,0c.025,0,.051.014.074,0s.051-.005.063-.022h.01c0-.1.042-1.25.048-1.348s.007-.207.006-.31V38.3a.693.693,0,0,0-.006-.075h.176A.149.149,0,0,1,191.783,38.165Z" transform="translate(-191.114 -37.814)"/><path class="t" d="M191.69,45.27a.355.355,0,1,1-.356-.354.355.355,0,0,1,.356.354Z" transform="translate(-190.98 -42.57)"/></g><g class="u" transform="translate(0 0.059)"><g transform="translate(3.234)"><path class="v" d="M190.526,35.025v-.042l.1-.01a.033.033,0,0,0,.022-.009.044.044,0,0,0,.011-.027,1.334,1.334,0,0,0,.007-.177v-.3a.062.062,0,0,0,0-.021.009.009,0,0,0-.008,0l-.022.009c-.067.03-.109.049-.128.059H190.5v-.033a.044.044,0,0,0-.007-.031h0l.145-.045c.036-.012.092-.032.168-.061l.011.008a.45.45,0,0,1,0,.048V34.9a.335.335,0,0,0,.007.077.023.023,0,0,0,.01.01.249.249,0,0,0,.074.01h.033v.042c-.074,0-.134-.005-.179-.005S190.639,35.021,190.526,35.025Z" transform="translate(-190.481 -34.321)"/><path class="v" d="M192.041,35.051V35l.1-.094c.048-.049.085-.089.108-.116a.449.449,0,0,0,.056-.076.245.245,0,0,0,.027-.064.18.18,0,0,0,.008-.058.123.123,0,0,0-.031-.09.108.108,0,0,0-.081-.03.136.136,0,0,0-.055.012.106.106,0,0,0-.043.035.764.764,0,0,0-.021.081h-.04l.013-.117a.154.154,0,0,1,.007-.055.214.214,0,0,1,.077-.049.3.3,0,0,1,.1-.016.274.274,0,0,1,.122.024.168.168,0,0,1,.07.069.2.2,0,0,1,.015.149.251.251,0,0,1-.031.063.436.436,0,0,1-.045.06l-.058.059-.053.053c-.028.028-.059.056-.092.086v.007h.315v.007a.512.512,0,0,0,0,.06.216.216,0,0,0,.006.042v.006h-.224Z" transform="translate(-191.526 -34.348)"/></g><path class="v" d="M197.094,36.706v-.041l.1-.01a.042.042,0,0,0,.022-.009.047.047,0,0,0,.011-.028,1.393,1.393,0,0,0,.007-.177v-.323a.011.011,0,0,0-.008,0l-.022.009-.127.058h-.005a.2.2,0,0,1,0-.032.054.054,0,0,0-.006-.031h0l.145-.045c.036-.012.092-.032.168-.061l.011.008v.048a.392.392,0,0,0,0,.052c0,.029,0,.1,0,.226v.23a.354.354,0,0,0,.007.077.026.026,0,0,0,.01.01.259.259,0,0,0,.074.009h.033v.042h-.18Z" transform="translate(-191.646 -35.447)"/><path class="v" d="M200.676,40.57v-.053l.094-.093c.049-.05.085-.089.109-.116a.524.524,0,0,0,.056-.077.306.306,0,0,0,.027-.063.192.192,0,0,0,.008-.058.118.118,0,0,0-.03-.089.107.107,0,0,0-.082-.031.127.127,0,0,0-.058.01.124.124,0,0,0-.045.035c-.006.021-.013.048-.02.081h-.04l.013-.118a.185.185,0,0,1,.006-.056.231.231,0,0,1,.077-.048.291.291,0,0,1,.1-.016.259.259,0,0,1,.122.024.16.16,0,0,1,.07.069.2.2,0,0,1,.023.09.231.231,0,0,1-.008.059.326.326,0,0,1-.031.063.421.421,0,0,1-.045.061l-.058.058-.053.052c-.028.028-.059.057-.092.087v.006h.316v.006a.466.466,0,0,0-.006.07.161.161,0,0,0,.006.043v.006h-.224Z" transform="translate(-194.074 -38.044)"/><path class="v" d="M201.964,45.779c0-.014-.006-.039-.012-.077s-.011-.064-.014-.077l.034-.011a.311.311,0,0,0,.042.077.151.151,0,0,0,.055.042.162.162,0,0,0,.065.014.121.121,0,0,0,.093-.037.138.138,0,0,0,.034-.1.121.121,0,0,0-.038-.1.139.139,0,0,0-.1-.033.219.219,0,0,0-.061.008l-.006-.007v-.007l.008-.029.01-.04h.042a.128.128,0,0,0,.055-.014.111.111,0,0,0,.057-.095.092.092,0,0,0-.03-.067.1.1,0,0,0-.074-.027.163.163,0,0,0-.055.01.082.082,0,0,0-.036.024.153.153,0,0,0-.024.051.145.145,0,0,1-.008.02h-.037l.022-.1a.327.327,0,0,0,.008-.053.223.223,0,0,1,.075-.037.317.317,0,0,1,.092-.013.2.2,0,0,1,.136.042.133.133,0,0,1,.048.1.135.135,0,0,1-.028.085.253.253,0,0,1-.086.067h.031a.2.2,0,0,1,.049.018.175.175,0,0,1,.041.032.124.124,0,0,1,.025.043.179.179,0,0,1,.008.058.218.218,0,0,1-.078.169.323.323,0,0,1-.223.084.243.243,0,0,1-.063-.006A.281.281,0,0,1,201.964,45.779Z" transform="translate(-194.919 -41.538)"/><path class="v" d="M200.944,50.392v-.043a.429.429,0,0,0,.094-.008.043.043,0,0,0,.016-.008.063.063,0,0,0,.009-.03v-.09h-.245l-.007-.042a1.1,1.1,0,0,1,.064-.138c.047-.092.087-.163.12-.216a1.149,1.149,0,0,1,.07-.105l.06-.012.068-.014.009.009a.815.815,0,0,1-.006.108v.323h.09v.087h-.094v.1a.031.031,0,0,0,.008.018.052.052,0,0,0,.02.009l.066.007v.042h-.171Zm-.06-.261h.183v-.347c-.047.077-.081.134-.1.171s-.046.1-.083.175Z" transform="translate(-194.164 -44.613)"/><path class="v" d="M197.127,54.119l-.02-.011v-.325a.231.231,0,0,0,0-.026v-.029l.006-.006c.082,0,.153.006.213.006h.153v.008a.716.716,0,0,1-.006.072v.041h-.3v.162a.431.431,0,0,1,.073-.027.283.283,0,0,1,.065-.007.207.207,0,0,1,.148.051.183.183,0,0,1,.055.137.243.243,0,0,1-.038.131.283.283,0,0,1-.12.1.315.315,0,0,1-.141.03.26.26,0,0,1-.057,0,.315.315,0,0,1-.06-.019.139.139,0,0,0-.008-.046l-.026-.1.033-.011a.3.3,0,0,0,.04.064.172.172,0,0,0,.056.041.159.159,0,0,0,.068.016.125.125,0,0,0,.093-.038.169.169,0,0,0,0-.21.13.13,0,0,0-.1-.038.145.145,0,0,0-.045,0,.125.125,0,0,0-.035.013Z" transform="translate(-191.649 -47.312)"/><path class="v" d="M192.275,55.249l.04.032-.016.018a.187.187,0,0,0-.034,0,.193.193,0,0,0-.092.024.212.212,0,0,0-.072.064.3.3,0,0,0-.044.092.64.64,0,0,0-.018.119.546.546,0,0,1,.074-.065.1.1,0,0,1,.034-.011.193.193,0,0,1,.051-.007.146.146,0,0,1,.106.047.2.2,0,0,1,.048.147.257.257,0,0,1-.063.182.212.212,0,0,1-.162.068.2.2,0,0,1-.127-.038.229.229,0,0,1-.073-.1.42.42,0,0,1-.024-.152.471.471,0,0,1,.031-.184.4.4,0,0,1,.2-.208.334.334,0,0,1,.136-.028Zm-.24.473a.282.282,0,0,0,.026.134.083.083,0,0,0,.142.016.186.186,0,0,0,.025-.111.246.246,0,0,0-.014-.092.109.109,0,0,0-.038-.051.092.092,0,0,0-.052-.017.1.1,0,0,0-.048.013.082.082,0,0,0-.031.037A.169.169,0,0,0,192.035,55.722Z" transform="translate(-188.198 -48.335)"/><path class="v" d="M186.551,54.945v-.012c.08-.139.128-.221.143-.246l.1-.161.071-.131v-.009h-.21a.394.394,0,0,0-.063,0,.028.028,0,0,0-.011.007.027.027,0,0,0-.008.016.9.9,0,0,0-.014.094H186.5V54.26h.459v.046c-.05.092-.082.15-.094.175-.035.068-.064.126-.084.171s-.045.1-.072.163-.037.093-.05.128H186.6Z" transform="translate(-184.583 -47.673)"/><path class="v" d="M182.766,51.293a.336.336,0,0,1-.061-.043.151.151,0,0,1-.03-.051.19.19,0,0,1,.018-.17.192.192,0,0,1,.075-.068.267.267,0,0,1,.117-.023.19.19,0,0,1,.132.043.14.14,0,0,1,.047.106.153.153,0,0,1-.013.062.18.18,0,0,1-.039.052.33.33,0,0,1-.046.034.343.343,0,0,1,.067.036.154.154,0,0,1,.035.039.144.144,0,0,1,.02.046.24.24,0,0,1,.007.056.237.237,0,0,1-.036.129.233.233,0,0,1-.1.085.276.276,0,0,1-.108.019.222.222,0,0,1-.1-.018.166.166,0,0,1-.053-.035.2.2,0,0,1-.04-.055.219.219,0,0,1,0-.137.158.158,0,0,1,.028-.048.2.2,0,0,1,.036-.033Zm.044.02a.187.187,0,0,0-.054.062.151.151,0,0,0-.018.075.141.141,0,0,0,.038.1.126.126,0,0,0,.092.04.112.112,0,0,0,.082-.034.119.119,0,0,0,.033-.084.131.131,0,0,0-.013-.061.123.123,0,0,0-.043-.044.721.721,0,0,0-.1-.05Zm.106-.1a.134.134,0,0,0,.045-.05.131.131,0,0,0,.017-.065.109.109,0,0,0-.03-.079.112.112,0,0,0-.082-.029.1.1,0,0,0-.07.026.091.091,0,0,0-.027.067.084.084,0,0,0,.006.029.091.091,0,0,0,.014.027.146.146,0,0,0,.025.024.25.25,0,0,0,.038.021l.037.018Z" transform="translate(-182 -45.448)"/><path class="v" d="M180.768,46.246l-.04-.033.012-.019a.126.126,0,0,0,.037,0,.187.187,0,0,0,.094-.025.206.206,0,0,0,.073-.065.306.306,0,0,0,.044-.092.606.606,0,0,0,.019-.117.827.827,0,0,1-.068.059.067.067,0,0,1-.017.011.241.241,0,0,1-.073.013.142.142,0,0,1-.111-.051.205.205,0,0,1-.046-.143.258.258,0,0,1,.064-.183.213.213,0,0,1,.162-.068.2.2,0,0,1,.127.038.214.214,0,0,1,.072.1.413.413,0,0,1,.024.153.48.48,0,0,1-.031.183.37.37,0,0,1-.086.127.385.385,0,0,1-.119.081.34.34,0,0,1-.137.026Zm.24-.473a.306.306,0,0,0-.026-.134.084.084,0,0,0-.078-.048.075.075,0,0,0-.063.033.179.179,0,0,0-.026.11.239.239,0,0,0,.015.091.106.106,0,0,0,.038.051.089.089,0,0,0,.052.017.093.093,0,0,0,.047-.013.081.081,0,0,0,.032-.037.188.188,0,0,0,.01-.07Z" transform="translate(-180.692 -41.832)"/><g transform="translate(0.221 1.959)"><path class="v" d="M181.407,40.954v-.041l.1-.011a.048.048,0,0,0,.023-.009.068.068,0,0,0,.011-.027,1.763,1.763,0,0,0,.005-.178v-.3a.04.04,0,0,0,0-.02.009.009,0,0,0-.008,0l-.022.009c-.067.029-.109.049-.127.059h-.007V40.4l-.006-.031h0c.061-.018.11-.032.145-.044l.168-.062.011.008v.555a.292.292,0,0,0,.008.076.021.021,0,0,0,.011.011.25.25,0,0,0,.073.009h.033v.041h-.18Z" transform="translate(-181.362 -40.25)"/><path class="v" d="M182.944,40.66a.876.876,0,0,1,.012-.162.274.274,0,0,1,.029-.088.219.219,0,0,1,.049-.065.19.19,0,0,1,.063-.039.238.238,0,0,1,.079-.013.186.186,0,0,1,.2.14.638.638,0,0,1,.021.186,1.016,1.016,0,0,1-.008.147.328.328,0,0,1-.03.108.247.247,0,0,1-.049.071.179.179,0,0,1-.063.04.228.228,0,0,1-.084.014.211.211,0,0,1-.1-.022.174.174,0,0,1-.071-.065.267.267,0,0,1-.038-.108.93.93,0,0,1-.01-.144Zm.123-.071a1.7,1.7,0,0,0,.013.207.246.246,0,0,0,.038.122.08.08,0,0,0,.06.031.082.082,0,0,0,.067-.043.472.472,0,0,0,.027-.206,1.579,1.579,0,0,0-.014-.212.358.358,0,0,0-.019-.085.1.1,0,0,0-.031-.041.07.07,0,0,0-.043-.014.076.076,0,0,0-.049.017.107.107,0,0,0-.032.056A.653.653,0,0,0,183.067,40.589Z" transform="translate(-182.421 -40.279)"/></g><g transform="translate(1.452 0.56)"><path class="v" d="M185.13,36.72v-.041l.1-.011a.034.034,0,0,0,.023-.009.047.047,0,0,0,.011-.028,1.5,1.5,0,0,0,.007-.177v-.3a.044.044,0,0,0,0-.021h-.007l-.023.009-.127.059h-.006a.081.081,0,0,0-.006-.033c-.006-.015,0-.022-.005-.031h0l.145-.044c.036-.011.093-.033.168-.061l.011.008v.556a.341.341,0,0,0,.007.076.02.02,0,0,0,.01.01.252.252,0,0,0,.074.009h.033v.041h-.18Z" transform="translate(-185.086 -36.016)"/><path class="v" d="M186.6,36.719v-.042l.1-.01a.05.05,0,0,0,.023-.009.054.054,0,0,0,.011-.028,1.419,1.419,0,0,0,.006-.177v-.3a.046.046,0,0,0,0-.02.01.01,0,0,0-.008,0l-.022.008-.127.058h-.006a.283.283,0,0,1,0-.033.059.059,0,0,0-.005-.03h0l.145-.044.169-.061.011.008v.555a.266.266,0,0,0,.006.077.018.018,0,0,0,.011.01.2.2,0,0,0,.073.01h.034v.042c-.074,0-.134-.005-.18-.005S186.709,36.715,186.6,36.719Z" transform="translate(-186.068 -36.015)"/></g></g><g transform="translate(3.235)"><path d="M190.528,34.845V34.8l.1-.011a.036.036,0,0,0,.022-.009.047.047,0,0,0,.011-.027,1.422,1.422,0,0,0,.007-.177v-.3a.057.057,0,0,0,0-.021.01.01,0,0,0-.008,0l-.022.009c-.067.03-.109.049-.128.059H190.5a.091.091,0,0,0-.005-.032.064.064,0,0,1,0-.031h0c.061-.018.109-.032.145-.045s.092-.032.168-.061l.011.008v.555a.286.286,0,0,0,.008.076.017.017,0,0,0,.009.01.246.246,0,0,0,.074.01h.033v.042c-.074,0-.134-.005-.179,0S190.641,34.841,190.528,34.845Z" transform="translate(-190.484 -34.141)"/><path d="M192.041,34.871v-.053l.1-.094c.048-.05.085-.089.108-.116a.459.459,0,0,0,.056-.077.286.286,0,0,0,.028-.063.212.212,0,0,0,.008-.058.12.12,0,0,0-.031-.089.111.111,0,0,0-.081-.031.114.114,0,0,0-.054.013.106.106,0,0,0-.045.035c-.006.02-.013.048-.02.08h-.04l.013-.116a.157.157,0,0,1,.007-.056.208.208,0,0,1,.077-.048.282.282,0,0,1,.1-.016.261.261,0,0,1,.122.025.157.157,0,0,1,.069.069.179.179,0,0,1,.023.09.182.182,0,0,1-.008.059.266.266,0,0,1-.031.063.417.417,0,0,1-.046.061l-.057.059-.053.053c-.028.028-.059.057-.092.086v.007h.315v.007a.535.535,0,0,0-.005.07.174.174,0,0,0,.005.042v.006h-.224Z" transform="translate(-191.527 -34.168)"/></g><path d="M197.094,36.526v-.041l.1-.01a.037.037,0,0,0,.023-.01.053.053,0,0,0,.01-.028,1.43,1.43,0,0,0,.007-.176v-.3a.042.042,0,0,0,0-.02.009.009,0,0,0-.008,0,.093.093,0,0,0-.022.009l-.128.058h-.005v-.033a.045.045,0,0,0-.006-.03h0c.061-.017.109-.032.145-.045s.092-.032.168-.061l.011.008v.048a.358.358,0,0,0,0,.052c0,.029,0,.1,0,.227V36.4a.366.366,0,0,0,.007.077.028.028,0,0,0,.01.01.282.282,0,0,0,.074.009h.033v.041h-.18Z" transform="translate(-191.646 -35.267)"/><path d="M200.676,40.39v-.052l.094-.094c.049-.05.085-.088.108-.116a.533.533,0,0,0,.056-.076.328.328,0,0,0,.027-.064.216.216,0,0,0,.008-.058.118.118,0,0,0-.031-.089.107.107,0,0,0-.081-.031.131.131,0,0,0-.054.012.123.123,0,0,0-.045.035c-.006.021-.013.047-.02.081h-.04l.013-.117a.185.185,0,0,1,.006-.056.223.223,0,0,1,.077-.048.279.279,0,0,1,.1-.016.255.255,0,0,1,.122.024.158.158,0,0,1,.07.069.189.189,0,0,1,.022.09.2.2,0,0,1-.007.058.289.289,0,0,1-.031.064.472.472,0,0,1-.045.061l-.058.058-.053.052-.092.087v.006h.316v.007a.458.458,0,0,0-.006.07.161.161,0,0,0,.006.043V40.4h-.224Z" transform="translate(-194.074 -37.864)"/><path d="M201.964,45.6c0-.014-.006-.039-.012-.077s-.011-.064-.014-.077l.034-.011a.29.29,0,0,0,.042.075.158.158,0,0,0,.055.043.168.168,0,0,0,.065.013.122.122,0,0,0,.092-.036.141.141,0,0,0,.035-.1.125.125,0,0,0-.039-.1.142.142,0,0,0-.1-.032.232.232,0,0,0-.061.009l-.006-.006v-.006l.009-.03.009-.04h.042a.135.135,0,0,0,.054-.015.106.106,0,0,0,.057-.094.085.085,0,0,0-.029-.067.1.1,0,0,0-.074-.027.15.15,0,0,0-.056.01.084.084,0,0,0-.036.023.157.157,0,0,0-.024.05l-.008.022h-.038l.022-.1a.451.451,0,0,1,.009-.053.238.238,0,0,1,.074-.037.318.318,0,0,1,.092-.012.2.2,0,0,1,.137.042.133.133,0,0,1,.02.184.265.265,0,0,1-.086.068.131.131,0,0,1,.031,0,.159.159,0,0,1,.05.019.171.171,0,0,1,.041.032.131.131,0,0,1,.024.043.161.161,0,0,1,.009.058.217.217,0,0,1-.078.169.322.322,0,0,1-.223.084.286.286,0,0,1-.064-.006.332.332,0,0,1-.055-.018Z" transform="translate(-194.919 -41.358)"/><path d="M200.944,50.211v-.042a.514.514,0,0,0,.094-.008.026.026,0,0,0,.016-.008.055.055,0,0,0,.01-.03v-.089h-.246l-.007-.042a1.168,1.168,0,0,1,.064-.138q.071-.137.12-.216c.033-.052.056-.087.07-.1l.06-.012.068-.014.009.009v.432h.09v.082H201.2v.1a.035.035,0,0,0,.008.017.047.047,0,0,0,.021.01l.066.007V50.2h-.171Zm-.06-.26h.182V49.6c-.048.077-.081.135-.1.172s-.045.1-.081.179Z" transform="translate(-194.164 -44.433)"/><path d="M197.125,53.938l-.02-.01v-.384l.006-.006c.082,0,.153,0,.213.006h.153l.005.008a.644.644,0,0,1-.007.072v.041h-.3v.162a.429.429,0,0,1,.073-.027.281.281,0,0,1,.065-.007.208.208,0,0,1,.149.051.184.184,0,0,1,.055.137.253.253,0,0,1-.038.132.279.279,0,0,1-.12.1.305.305,0,0,1-.141.031.312.312,0,0,1-.058,0,.342.342,0,0,1-.06-.019.09.09,0,0,0-.008-.045.927.927,0,0,1-.027-.1l.034-.012a.262.262,0,0,0,.04.065.171.171,0,0,0,.056.042.192.192,0,0,0,.069.015.128.128,0,0,0,.093-.038.17.17,0,0,0,0-.21.133.133,0,0,0-.1-.038.157.157,0,0,0-.045.005.127.127,0,0,0-.035.013Z" transform="translate(-191.648 -47.132)"/><path d="M192.275,55.07l.04.033-.016.016h-.034a.189.189,0,0,0-.092.024.214.214,0,0,0-.072.064.325.325,0,0,0-.044.093.643.643,0,0,0-.019.118.865.865,0,0,1,.075-.065.112.112,0,0,1,.034-.011.226.226,0,0,1,.051-.007.15.15,0,0,1,.106.046.2.2,0,0,1,.048.148.254.254,0,0,1-.063.182.211.211,0,0,1-.163.069.2.2,0,0,1-.126-.038.218.218,0,0,1-.073-.1.408.408,0,0,1-.024-.152.465.465,0,0,1,.031-.183.366.366,0,0,1,.086-.128.386.386,0,0,1,.119-.081.329.329,0,0,1,.136-.028Zm-.24.472a.286.286,0,0,0,.026.135.082.082,0,0,0,.076.048.079.079,0,0,0,.065-.032.184.184,0,0,0,.025-.11.249.249,0,0,0-.014-.092.11.11,0,0,0-.038-.051.1.1,0,0,0-.052-.016.089.089,0,0,0-.047.014.08.08,0,0,0-.032.037.18.18,0,0,0-.009.067Z" transform="translate(-188.198 -48.156)"/><path d="M186.552,54.764l-.005-.011.143-.248c.058-.1.09-.151.1-.161l.071-.13V54.2h-.21a.328.328,0,0,0-.063,0,.022.022,0,0,0-.011.006.027.027,0,0,0-.008.016.919.919,0,0,0-.014.095h-.05V54.08l.007-.006h.452v.047c-.05.092-.082.15-.094.174-.035.069-.064.126-.084.171s-.045.1-.072.163-.037.093-.05.128H186.6Z" transform="translate(-184.583 -47.492)"/><path d="M182.766,51.113a.311.311,0,0,1-.061-.044.146.146,0,0,1-.03-.05.186.186,0,0,1-.012-.067.177.177,0,0,1,.029-.1.188.188,0,0,1,.076-.068.27.27,0,0,1,.117-.023.186.186,0,0,1,.132.044.139.139,0,0,1,.047.106.137.137,0,0,1-.014.061.159.159,0,0,1-.038.053.305.305,0,0,1-.045.034.3.3,0,0,1,.066.036.161.161,0,0,1,.036.038.164.164,0,0,1,.02.047.238.238,0,0,1,.007.056.235.235,0,0,1-.036.129.228.228,0,0,1-.1.085.274.274,0,0,1-.108.02.221.221,0,0,1-.1-.019.185.185,0,0,1-.053-.036.2.2,0,0,1-.04-.055.189.189,0,0,1-.014-.075.192.192,0,0,1,.009-.062.165.165,0,0,1,.028-.048.17.17,0,0,1,.036-.033Zm.043.019a.2.2,0,0,0-.054.063.159.159,0,0,0-.018.075.138.138,0,0,0,.038.1.121.121,0,0,0,.092.039.113.113,0,0,0,.081-.033.119.119,0,0,0,.033-.084.14.14,0,0,0-.013-.061.129.129,0,0,0-.044-.044.725.725,0,0,0-.1-.05Zm.106-.1a.128.128,0,0,0,.045-.05.132.132,0,0,0,.017-.065.108.108,0,0,0-.03-.08.113.113,0,0,0-.082-.03.1.1,0,0,0-.07.027.09.09,0,0,0-.027.067.086.086,0,0,0,.006.029.1.1,0,0,0,.014.027.122.122,0,0,0,.025.023.223.223,0,0,0,.038.022l.037.017Z" transform="translate(-182 -45.268)"/><path d="M180.768,46.065l-.04-.033.012-.019a.151.151,0,0,0,.037,0,.19.19,0,0,0,.1-.025.206.206,0,0,0,.072-.065.3.3,0,0,0,.044-.092.652.652,0,0,0,.018-.118.748.748,0,0,1-.067.059.062.062,0,0,1-.017.011.219.219,0,0,1-.074.012.14.14,0,0,1-.11-.05.2.2,0,0,1-.046-.143.258.258,0,0,1,.064-.183.217.217,0,0,1,.162-.068.2.2,0,0,1,.126.039.208.208,0,0,1,.072.1.419.419,0,0,1,.025.153.483.483,0,0,1-.031.183.384.384,0,0,1-.086.128.4.4,0,0,1-.119.08.326.326,0,0,1-.142.031Zm.24-.472a.3.3,0,0,0-.026-.135.084.084,0,0,0-.078-.048.076.076,0,0,0-.064.032.178.178,0,0,0-.026.11.231.231,0,0,0,.015.092.1.1,0,0,0,.038.051.088.088,0,0,0,.051.017.091.091,0,0,0,.048-.014.087.087,0,0,0,.032-.037.177.177,0,0,0,.011-.067Z" transform="translate(-180.692 -41.652)"/><g transform="translate(0.221 1.959)"><path d="M181.4,40.774v-.041l.1-.011a.048.048,0,0,0,.023-.009.06.06,0,0,0,.01-.028,1.393,1.393,0,0,0,.006-.177v-.3a.04.04,0,0,0,0-.02s0-.005-.008-.005l-.022.009c-.067.029-.109.049-.127.058h-.007a.075.075,0,0,0-.006-.032.153.153,0,0,0-.006-.031h0c.061-.018.11-.032.145-.045s.092-.032.168-.061l.011.008v.555a.264.264,0,0,0,.007.076.02.02,0,0,0,.01.01.225.225,0,0,0,.074.01h.033v.041h-.18A1.291,1.291,0,0,0,181.4,40.774Z" transform="translate(-181.36 -40.071)"/><path d="M182.942,40.479a.946.946,0,0,1,.013-.162.278.278,0,0,1,.029-.087.239.239,0,0,1,.049-.065.2.2,0,0,1,.063-.038.228.228,0,0,1,.079-.013.185.185,0,0,1,.2.139.647.647,0,0,1,.021.187,1.285,1.285,0,0,1-.007.147.352.352,0,0,1-.031.108.262.262,0,0,1-.049.071.188.188,0,0,1-.063.04.216.216,0,0,1-.084.014.221.221,0,0,1-.1-.021.167.167,0,0,1-.071-.066.269.269,0,0,1-.037-.107A1.07,1.07,0,0,1,182.942,40.479Zm.124-.07a1.714,1.714,0,0,0,.013.208.241.241,0,0,0,.038.122.074.074,0,0,0,.059.03.08.08,0,0,0,.068-.042.461.461,0,0,0,.026-.206,1.421,1.421,0,0,0-.013-.212.354.354,0,0,0-.019-.085.094.094,0,0,0-.031-.042.082.082,0,0,0-.044-.013.078.078,0,0,0-.049.017.11.11,0,0,0-.031.056.628.628,0,0,0-.017.166Z" transform="translate(-182.419 -40.099)"/></g><g transform="translate(1.452 0.559)"><path d="M185.13,36.54V36.5l.1-.01a.032.032,0,0,0,.022-.01.046.046,0,0,0,.011-.027,1.425,1.425,0,0,0,.007-.177v-.3a.079.079,0,0,0,0-.021.008.008,0,0,0-.008,0,.092.092,0,0,0-.023.008l-.127.058h-.006a.081.081,0,0,0-.006-.033.24.24,0,0,0-.005-.03h0c.06-.018.109-.033.144-.045l.169-.061.011.008v.555a.363.363,0,0,0,.007.077.021.021,0,0,0,.01.01.291.291,0,0,0,.074.009h.033v.041h-.18Z" transform="translate(-185.086 -35.836)"/><path d="M186.6,36.538V36.5l.1-.01a.033.033,0,0,0,.023-.01.061.061,0,0,0,.011-.027,1.575,1.575,0,0,0,.006-.177v-.307a.051.051,0,0,0,0-.021.011.011,0,0,0-.009,0,.1.1,0,0,0-.022.009l-.127.058h-.006a.313.313,0,0,1,0-.033.051.051,0,0,0-.006-.03h0c.061-.018.11-.032.145-.045l.169-.061.011.008v.555a.25.25,0,0,0,.007.076.02.02,0,0,0,.011.011.245.245,0,0,0,.073.009h.033v.041h-.18C186.793,36.546,186.707,36.534,186.6,36.538Z" transform="translate(-186.067 -35.834)"/></g><g transform="translate(3.512 1.165)"><path class="w" d="M191.858,45.03c-.012.04-.017.08.025.1a.236.236,0,0,0,.1.011.8.8,0,0,1,.1.011l.09.009h.007c.169,0,.337.009.505.02a2.284,2.284,0,0,1,.247.02c.038,0,.076.005.113.006h.076v.052a.454.454,0,0,1-.01.067h0a1.419,1.419,0,0,1,.217-.135c.041-.025.081-.051.121-.077.023-.016.06-.046.088-.063a1.43,1.43,0,0,1-.114-.106c-.075-.065-.164-.114-.237-.182v.017a.418.418,0,0,1-.011.068.36.36,0,0,1-.016.052.715.715,0,0,0-.1.01c-.034,0-.067.007-.1.008-.117.007-.235.006-.352.011s-.228.012-.342.015a1.354,1.354,0,0,1-.312-.016h-.037C191.876,44.941,191.867,45,191.858,45.03Z" transform="translate(-191.676 -42.421)"/><g class="u" transform="translate(0.174 2.51)"><path class="w" d="M191.913,45.269h.037a1.354,1.354,0,0,0,.312.016h.05a.722.722,0,0,1-.013.143h.879l-.01.111.354-.158.014.01c-.027.017-.064.047-.088.063-.04.026-.08.052-.121.077a1.42,1.42,0,0,0-.217.135h0a.518.518,0,0,1,.01-.067.3.3,0,0,0,0-.052h-.076a.72.72,0,0,1-.113-.006c-.083-.009-.165-.015-.247-.02-.168-.011-.336-.018-.505-.02h-.007l-.09-.009c-.034,0-.069-.009-.1-.011a.236.236,0,0,1-.1-.011.074.074,0,0,1-.025-.1C191.87,45.335,191.876,45.275,191.913,45.269Z" transform="translate(-191.85 -45.265)"/></g><path class="w" d="M191.841,38.008l-.063.009-.05.014a.647.647,0,0,1-.012.094q-.006.048-.011.1c-.008.1-.025,1.722-.033,1.979,0,.009-.008.026-.006.026a.25.25,0,0,0-.045-.012h-.094c-.032,0-.029,0-.034-.011,0-.164-.034-1.291-.04-1.435,0-.079-.006-.458-.013-.536v-.149h0v-.031h-.05l-.063.008h0a1.336,1.336,0,0,0,.135-.2c.024-.038.049-.075.074-.111s.045-.056.062-.083a1.15,1.15,0,0,0,.1.111c.06.072.1.158.166.228Z" transform="translate(-191.323 -37.667)"/><g class="u"><path class="w" d="M191.582,38h-.129l.154-.312c0-.007-.009-.012-.013-.019-.017.027-.046.059-.062.083s-.05.073-.074.111a1.335,1.335,0,0,1-.135.2h0l.063-.008h.05v.031h0v.149c.007.078.01.457.013.536.006.144.04,1.272.04,1.435,0,.01.014.012.034.011h.094a.25.25,0,0,1,.045.012.058.058,0,0,1,.006-.026c0-.059,0-.175.006-.319a.264.264,0,0,0-.094-.031Z" transform="translate(-191.323 -37.667)"/></g></g><g transform="translate(3.399 3.488)"><path class="x" d="M191.689,45.053a.354.354,0,1,1-.1-.251.355.355,0,0,1,.1.251Z" transform="translate(-190.98 -44.698)"/><path class="y" d="M191.727,45.127a.319.319,0,1,1-.094-.226A.319.319,0,0,1,191.727,45.127Z" transform="translate(-191.054 -44.772)"/><path class="z" d="M191.834,45.1a.221.221,0,1,1-.221-.22.221.221,0,0,1,.221.22Z" transform="translate(-191.257 -44.817)"/><g class="aa" transform="translate(0.036 0.036)"><path class="ab" d="M191.408,44.808a.318.318,0,1,0,.227.093.319.319,0,0,0-.227-.093Zm0,.536a.268.268,0,1,0-.008,0Z" transform="translate(-191.09 -44.808)"/></g></g></g><g class="ac" transform="translate(0.945 6.925)"><path class="ad" d="M180.672,52.655s.012.021.039.061.065.1.117.165.118.154.2.246.173.193.278.3a4.583,4.583,0,0,0,.358.321c.065.056.136.106.208.16s.147.1.227.153a4.372,4.372,0,0,0,.5.271,3.805,3.805,0,0,0,.553.2c.048.012.1.029.141.039l.145.032.072.016.073.011.145.023c.047.009.1.01.144.015l.143.014c.094.006.19.006.282.009s.184-.008.274-.009.176-.016.26-.023.167-.023.247-.035.155-.022.229-.04c.146-.032.28-.059.4-.094s.22-.059.3-.089l.262-.085-.255.106c-.081.036-.182.068-.3.108-.058.018-.118.043-.185.06l-.209.056c-.073.022-.149.035-.23.052a2.418,2.418,0,0,1-.248.044c-.086.009-.174.026-.265.032s-.185.013-.279.016-.192,0-.289,0a2.38,2.38,0,0,1-.3-.025l-.15-.022-.074-.011-.074-.017-.149-.031c-.049-.011-.1-.026-.147-.04a4.133,4.133,0,0,1-.568-.21c-.088-.046-.179-.086-.263-.137l-.126-.073-.12-.078c-.04-.025-.079-.053-.117-.08l-.112-.082c-.07-.057-.142-.111-.206-.169a4.157,4.157,0,0,1-.35-.341c-.1-.111-.19-.219-.264-.316s-.135-.187-.182-.26a1.569,1.569,0,0,1-.1-.175C180.688,52.682,180.672,52.655,180.672,52.655Z" transform="translate(-180.672 -52.655)"/></g></g><g transform="translate(39.604 22.989)"><path class="f" d="M188.575,75.446l.323-5.627-7.255-.087-.025,5.7Z" transform="translate(-181.618 -69.731)"/><path class="g" d="M195.755,75.887c.01-.471.016-.942.014-1.412-.008-1.148.116-2.311.009-3.456l2.072.027-.266,4.925Z" transform="translate(-191.085 -70.594)"/><path class="g" d="M184.439,75.7h-.26c-.544,0-1.1,0-1.647-.011l.019-4.839,1.877.024C184.359,72.477,184.415,74.087,184.439,75.7Z" transform="translate(-182.231 -70.476)"/><path class="g" d="M188.928,75.757c-.039-1.61-.067-3.218.008-4.828l2.09.027c0,1.621-.018,3.242-.037,4.864C190.3,75.792,189.615,75.768,188.928,75.757Z" transform="translate(-186.487 -70.533)"/></g><g transform="translate(39.617 34.833)"><path class="f" d="M188.614,111.3l.323-5.628-7.255-.087-.025,5.7Z" transform="translate(-181.657 -105.582)"/><path class="g" d="M195.794,111.737c.01-.47.017-.941.014-1.412-.007-1.149.116-2.31.01-3.456l2.071.026-.266,4.925Z" transform="translate(-191.124 -106.444)"/><path class="g" d="M184.48,111.547h-.259c-.543,0-1.1,0-1.647-.01l.018-4.838,1.878.024C184.4,108.327,184.456,109.937,184.48,111.547Z" transform="translate(-182.271 -106.327)"/><path class="g" d="M188.968,111.6c-.039-1.61-.067-3.218.008-4.828l2.089.028c0,1.621-.017,3.243-.037,4.864C190.342,111.64,189.655,111.616,188.968,111.6Z" transform="translate(-186.526 -106.382)"/></g><g transform="translate(39.298 48.911)"><path class="f" d="M187.648,153.91l.323-5.627-7.255-.087-.025,5.7Z" transform="translate(-180.691 -148.196)"/><path class="g" d="M194.827,154.351c.01-.471.017-.942.014-1.412-.008-1.148.116-2.311.01-3.456l2.071.026-.267,4.925Z" transform="translate(-190.157 -149.058)"/><path class="g" d="M183.514,154.16h-.259c-.544,0-1.1,0-1.647-.01l.019-4.839,1.877.024C183.434,150.941,183.49,152.55,183.514,154.16Z" transform="translate(-181.305 -148.94)"/><path class="g" d="M188,154.221c-.039-1.61-.067-3.219.008-4.828l2.09.027c0,1.621-.017,3.242-.037,4.864C189.375,154.256,188.688,154.232,188,154.221Z" transform="translate(-185.56 -148.997)"/></g></g><g transform="translate(80.834 -0.981)"><g transform="translate(1.489 15.882)"><path class="ae" d="M270.544,179.619l1.135-4.156.948.2-.65,4.348Z" transform="translate(-270.544 -175.463)"/><g class="aa"><path class="ae" d="M271.977,180.015l.65-4.348-.948-.2-.523,1.918.748-.155-.215,2.133-1.027-.168-.117.428Z" transform="translate(-270.544 -175.463)"/></g></g><path class="af" d="M269.13,130.8s-.358.41-.554.205,1.015-2.348,2.181-3.592c.31-.323,1.545,2.313,1.864,4.039s-.026,1.521-.953.249c.863,2.686.954,5.337-.056,3.334.931,2.376.724,4.735.029,3.222.487,2.345.394,5.151-.421,3.352.684,2.128.664,3.618-.3,1.95.479,1.4-.114,1.925-.9.261-1.086,1.424-1.323.854-.978-.339-1.373,1.362-2.676,1.277-1.925-.121-1.322.982-1.529.547-.111-2.558-1.126,1.187-.965.02.408-2.738-1.278,1.478-1.176,1.144-.485-.819s1.2-3.087,1.2-3.087S266.726,135.288,269.13,130.8Z" transform="translate(-266.036 -127.389)"/><g class="aa"><path class="ag" d="M271.221,141.612c.815,1.8.908-1.007.421-3.352.7,1.513.9-.846-.029-3.222,1.011,2,.919-.647.057-3.334.927,1.272,1.273,1.475.953-.249s-1.554-4.362-1.864-4.039a13.341,13.341,0,0,0-1.694,2.346c.341-.5,1.483-2.078,1.872-1.547a9.672,9.672,0,0,1,1.3,3.378c-.163.267-.832-1.01-.832-1.01s.268,1.191-.094,1.415-.523-.981-.523-.981-.2,1.279-.479,1.258-.253-1.263-.253-1.263-.5,3.633.432,2.057c.108,1.611.541,1.211.888-.073.57,2.389,0,2.909-.411,1.914-.387,1.314-.879.681-.852-.259-.7,1.475-1.1,1.049-1.032-.07-.53,2.3.052,2.845.611,1.869.181,1.437,1.044,1.32,1.407.114.884,1.248.245,2.925-.571,1.842-.986,1.338-1.136.738-1.08-.5-.578,1.388-1.086,1.316-1,.088,0,0-.325,3.142.56,1.783.244,1.79,1.088.952,1.488-.1.1,1.8.62.851.739-.031.161,2.34-.465,2.658-.849,1.518-.541,1.546-1.411,1.208-1.588.074-.674,1.027-.841.991-.858-.07-.473,2.2.381,1.97.694,1.32.371.874,1.209.713,1.664.055.556,1.479.4,1.559-.227.9-.725.94-.884.868-.858-.071-.84.5-2.04.883-1.769-.38-.655.24-1.015.029-1.213-.308-.46,1.352-.094,1.407.89.676-.751,1.4.552,1.483,1.925.121-.346,1.192-.109,1.762.978.339.784,1.663,1.376,1.141.9-.261C271.885,145.23,271.9,143.74,271.221,141.612Z" transform="translate(-266.037 -127.389)"/></g></g><g transform="translate(34.36 -12.714)"><path d="M125.358,92.092a1.408,1.408,0,0,1,.138.2c-.032-.069-.064-.139-.1-.206Z" transform="translate(-125.358 -92.017)"/><path d="M133.1,92.036a1.888,1.888,0,0,1,.123-.16H133.2Z" transform="translate(-130.544 -91.872)"/></g><g transform="translate(85.556 -5.361)"><g transform="translate(1.732 21.807)"><path class="ae" d="M285.572,185.8l1.927-5.658,1.3.363-1.274,5.965Z" transform="translate(-285.572 -180.141)"/><g class="aa"><path class="ae" d="M287.521,186.47l1.274-5.965-1.3-.363-.889,2.61,1.049-.15-.481,2.935-1.408-.321-.2.583Z" transform="translate(-285.572 -180.141)"/></g></g><path class="ag" d="M285.707,118.714s-.531.536-.785.237,1.606-3.165,3.328-4.788c.457-.42,1.942,3.336,2.236,5.753s-.167,2.1-1.342.264c.965,3.794.865,7.472-.364,4.613,1.086,3.369.6,6.617-.236,4.462.473,3.29.1,7.168-.869,4.607.763,3,.609,5.067-.581,2.675.544,1.982-.321,2.655-1.264.285-1.626,1.878-1.906,1.068-1.324-.554-2.018,1.768-3.814,1.538-2.655-.332-1.915,1.248-2.164.628.066-3.551-1.66,1.547-1.339-.055.8-3.757-1.9,1.938-1.726,1.483-.6-1.176s1.931-4.171,1.931-4.171S281.993,124.719,285.707,118.714Z" transform="translate(-280.329 -114.131)"/><g class="aa"><path class="ag" d="M287.677,133.861c.973,2.562,1.342-1.317.869-4.607.833,2.155,1.321-1.093.236-4.462,1.228,2.86,1.328-.818.364-4.613,1.175,1.84,1.637,2.152,1.342-.264s-1.779-6.173-2.236-5.753a18.563,18.563,0,0,0-2.547,3.1c.514-.659,2.232-2.75,2.724-1.982.581.909,1.758,4.432,1.511,4.789s-1.064-1.469-1.064-1.469.268,1.672-.252,1.952-.64-1.4-.64-1.4-.393,1.753-.772,1.7-.242-1.77-.242-1.77-1,4.988.421,2.885c.012,2.239.647,1.724,1.237-.026.583,3.358-.245,4.03-.734,2.617-.648,1.786-1.276.866-1.158-.433-1.1,1.982-1.611,1.359-1.423-.186-.931,3.145-.172,3.944.685,2.641.127,2.006,1.332,1.917,1.94.278,1.118,1.8.089,4.07-.948,2.5-1.479,1.768-1.636.924-1.453-.78-.918,1.872-1.616,1.729-1.388.037,0,0-.719,4.322.623,2.517.185,2.5,1.425,1.411,2.068-.005-.012,2.5.786,1.232,1.027.021.022,3.253-.873,3.642-1.307,2.029-.882,2.094-2.058,1.552-2.2-.033-1.021,1.364-1.25,1.3-1.182-.171-.844,3.01.358,2.76.848,1.887.439,1.242,1.613,1.091,2.3.219.643,2.1.418,2.193-.391,1.221-1.085,1.239-1.3,1.126-1.182-.172-1.206.62-2.9,1.049-2.417-.678-.926.276-1.408-.047-1.652-.53-.753,1.834-.251,1.941,1.174,1.012-1.159,1.871.637,2.1,2.655.332-.581,1.622-.3,2.432,1.324.554.943,2.37,1.808,1.7,1.264-.285C288.286,138.928,288.44,136.866,287.677,133.861Z" transform="translate(-280.33 -114.131)"/></g></g><g transform="translate(17.128 -5.549)"><g transform="translate(0 7.631)"><path class="ae" d="M86.028,184.98l-.606-4.529.853-.15,1.467,4.415Z" transform="translate(-81.384 -165.884)"/><g class="aa" transform="translate(4.038 14.417)"><path class="ae" d="M87.742,184.716,86.275,180.3l-.853.15.3,2.225.536-.822.933,2.606-1.231-.011.071.53Z" transform="translate(-85.422 -180.301)"/></g><path class="ag" d="M74.6,150s-.055,3.189.523,3.876,1.4-1.433,1.4-1.433a6.282,6.282,0,0,0,.3,1.1c.163.353.984-1.661.984-1.661s1.159.739,1.507.629-.042-1.12-.042-1.12a4.353,4.353,0,0,0,1.346.415c.362-.043-.369-2.108-1.46-3.851.689.416-.34-1.974-1.441-3.5,1.2,1.081,1.383,1.115.7-.327a34.472,34.472,0,0,0-2.328-3.77s1.075.614,1.175.417a13.816,13.816,0,0,0-1.644-2.328s-.956-1.912-1.583-1.776-1.018,3.75-.755,5.1c.08.371.526-1.137.526-1.137s-.743,4.361-.193,6.784c.093.3.459-1.052.459-1.052a25.768,25.768,0,0,0,.1,4.146C74.257,150.917,74.6,150,74.6,150Z" transform="translate(-73.2 -136.66)"/><g class="aa" transform="translate(0.043)"><path class="ag" d="M79.246,147.953c.689.416-.34-1.974-1.441-3.5,1.2,1.081,1.383,1.115.7-.327a34.473,34.473,0,0,0-2.328-3.77s1.075.614,1.175.417a13.815,13.815,0,0,0-1.644-2.328s-.956-1.912-1.583-1.776c-.39.084-.688,1.511-.795,2.906.083-.423.474-2.312.816-2.347.384-.039.859.831,1.6,1.952s-.442,1.293-.868.811c.442,1.054-.33.74-.892.287.635,1.453,1.608,1.675,1.829.875.17-.7,1.258,1.314,1.956,2.275.645.832-.617.8-1.353.205.367,1.2-.587.645-.794.513.151,1.691-.886.782-.886.782s1.075,2.015,1.209.484c.829,1.191,1.178.27,1.02-.623,1.653,2.692,1.475,3.876.71,2.98.022,1.1-.626,1.384-1.2.358.214,1.324-.5,2.344-1.287.525.574,2,1.648,2.224,1.778,1,.922,1.127,1.411.232,1.229-.612,1.619,2.036,2.051,2.2,1.1,1.788,0,0,.465,2.153-1.521.24-.515,1.923-.672,1.691-1.129.067-.851,1.642-1.239,2.243-1.757,1.862a2.107,2.107,0,0,0,.32.874c.577.687,1.4-1.433,1.4-1.433a6.282,6.282,0,0,0,.3,1.1c.163.353.984-1.661.984-1.661s1.159.739,1.507.629-.042-1.12-.042-1.12a4.354,4.354,0,0,0,1.346.415C81.068,151.761,80.337,149.7,79.246,147.953Z" transform="translate(-73.331 -136.66)"/></g></g><g transform="translate(6.386)"><path class="ae" d="M105.061,176.452l.084-5.809,1.2-.043,1.12,5.81Z" transform="translate(-100.921 -151.756)"/><g class="aa" transform="translate(4.14 18.843)"><path class="ae" d="M107.467,176.409l-1.12-5.81-1.2.043L105.1,173.5l.9-.942.754,3.44-1.689-.221-.01.679Z" transform="translate(-105.061 -170.599)"/></g><path class="ag" d="M93.386,130.45s-.72,4.01-.068,4.973,2.218-1.569,2.218-1.569a7.269,7.269,0,0,0,.181,1.438c.151.473,1.686-1.923,1.686-1.923s1.441,1.124,1.94,1.044.169-1.418.169-1.418a6.21,6.21,0,0,0,1.763.751c.506.008-.081-2.719-1.224-5.1.861.641-.067-2.543-1.269-4.655,1.434,1.567,1.672,1.637,1.027-.294a41.3,41.3,0,0,0-2.432-5.142s1.352.956,1.529.724-1.787-3.212-1.787-3.212-.924-2.571-1.813-2.506-2.156,4.553-2.068,6.306c.035.48.95-1.345.95-1.345s-1.9,5.37-1.635,8.515c.066.391.841-1.248.841-1.248a30.487,30.487,0,0,0-.708,5.238C92.727,131.554,93.386,130.45,93.386,130.45Z" transform="translate(-92.53 -113.561)"/><g class="aa" transform="translate(0.525)"><path class="ag" d="M101.116,128.649c.861.641-.067-2.543-1.269-4.655,1.434,1.567,1.672,1.637,1.027-.294a41.294,41.294,0,0,0-2.432-5.142s1.352.956,1.529.724-1.787-3.212-1.787-3.212-.924-2.571-1.813-2.506c-.553.04-1.251,1.789-1.68,3.527.2-.518,1.118-2.832,1.6-2.818.536.016,1.011,1.191,1.8,2.729s-.867,1.556-1.354.875c.393,1.4-.6.876-1.282.21.576,1.938,1.867,2.382,2.332,1.413.375-.852,1.462,1.868,2.226,3.195.715,1.16-1.009.9-1.9.032.26,1.578-.935.712-1.192.511-.135,2.157-1.375.836-1.375.836s1.068,2.72,1.562.814c.9,1.64,1.562.54,1.528-.613,1.723,3.671,1.239,5.132.37,3.874-.191,1.39-1.137,1.637-1.724.248.026,1.7-1.163,2.869-1.874.444.385,2.614,1.812,3.079,2.237,1.564,1.038,1.575,1.889.533,1.81-.562,1.81,2.84,2.369,3.12,1.153,2.439,0,0,.2,2.791-2.137.045-1.094,2.333-1.263,2.017-1.563-.107-1.5,1.925-2.153,2.616-2.789,2.047a2.494,2.494,0,0,0,.263,1.158c.653.963,2.218-1.569,2.218-1.569a7.27,7.27,0,0,0,.181,1.438c.151.473,1.686-1.923,1.686-1.923s1.441,1.124,1.94,1.044.169-1.418.169-1.418a6.21,6.21,0,0,0,1.763.751C102.845,133.755,102.259,131.028,101.116,128.649Z" transform="translate(-94.118 -113.561)"/></g></g><g transform="translate(5.957 8.544)"><g transform="translate(3.048 13.463)"><path class="ae" d="M100.523,183.91l-.064-3.674.825-.06.506,3.716Z" transform="translate(-100.459 -180.176)"/><g class="aa"><path class="ae" d="M101.79,183.892l-.506-3.716-.825.06.03,1.7.575-.3.333,1.8-.882.107.007.379Z" transform="translate(-100.459 -180.176)"/></g></g><path class="af" d="M91.686,142.627s-.2.421-.4.3.27-2.165.928-3.463c.177-.339,1.818,1.525,2.491,2.862s.342,1.251-.721.432c1.348,1.994,2.057,4.142.75,2.743,1.33,1.723,1.724,3.7.794,2.631.959,1.8,1.554,4.124.457,2.845,1.068,1.579,1.408,2.8.222,1.668.727,1.034.366,1.6-.672.428-.549,1.425-.88,1.015-.881-.044-.8,1.443-1.886,1.685-1.6.36-.848,1.121-1.121.814-.7-2.068-.638,1.242-.785.247-.32-2.339-.693,1.516-.69,1.217-.592-.555s.248-2.815.248-2.815S90.789,146.874,91.686,142.627Z" transform="translate(-91.231 -139.425)"/><g class="aa" transform="translate(0.151)"><path class="ag" d="M96.286,150.978c1.1,1.279.5-1.041-.457-2.845.931,1.073.536-.908-.794-2.631,1.306,1.4.6-.749-.75-2.743,1.063.819,1.4.9.721-.432s-2.314-3.2-2.491-2.862a11.39,11.39,0,0,0-.827,2.326c.16-.488.718-2.055,1.163-1.714a8.244,8.244,0,0,1,1.871,2.455c-.069.258-.922-.628-.922-.628s.5.911.26,1.181-.662-.679-.662-.679.138,1.1-.092,1.145-.509-.974-.509-.974.458,3.094.845,1.581c.473,1.293.733.863.71-.272,1.037,1.82.7,2.381.121,1.665,0,1.169-.558.767-.76-.009-.221,1.375-.648,1.122-.862.189.117,2.014.722,2.317.946,1.384.491,1.134,1.17.832,1.179-.243,1.022.811.9,2.336-.027,1.645-.487,1.331-.754.876-1-.148-.141,1.274-.575,1.337-.795.311,0,0,.484,2.65.884,1.326.628,1.407,1.119.519,1.2-.434.514,1.448.711.549.6-.2.691,1.877.254,2.288-.333,1.446-.074,1.4-.867,1.327-1.282.44-.306,1-.452,1.013-.719.147.139,1.917.782,1.522.884.915.512.627,1.16.295,1.376-.352.808,1.078.7,1.181.028.788-.369.943-.517.922-.72.147-.569.61-1.459,1.211-1.539.111-.479.353-.824.266-1.066.038-.054,1.217.259,1.175.889.341-.281,1.324.806,1.082,1.6-.36,0,1.058.332,1.469.881.044,1.039,1.174,1.4.6.672-.428C97.694,153.782,97.354,152.557,96.286,150.978Z" transform="translate(-91.689 -139.425)"/></g></g><g transform="translate(13.275 11.217)"><path class="ae" d="M119.458,183.57l.342-3.3.717.034.375,3.362Z" transform="translate(-117.451 -169.447)"/><g class="aa" transform="translate(2.007 10.821)"><path class="ae" d="M120.892,183.663l-.375-3.362-.717-.034-.168,1.623.585-.494.275,2-.994-.208-.04.386Z" transform="translate(-119.458 -180.268)"/></g><path class="ah" d="M113.827,157.033s-.63,2.246-.289,2.827,1.4-.785,1.4-.785a3.947,3.947,0,0,0,.035.827c.066.277,1.1-1.013,1.1-1.013s.8.712,1.1.69.171-.8.171-.8a3.755,3.755,0,0,0,1.014.514c.3.029.088-1.551-.473-2.961.481.407.088-1.452-.522-2.711.775.96.914,1.013.627-.118a23.1,23.1,0,0,0-1.189-3.046s.756.611.873.487a9.428,9.428,0,0,0-.9-1.915s-.421-1.508-.954-1.515S114.307,150,114.273,151c0,.276.633-.718.633-.718a15.159,15.159,0,0,0-1.4,4.767c.021.226.565-.669.565-.669a16.691,16.691,0,0,0-.686,2.948C113.379,157.629,113.827,157.033,113.827,157.033Z" transform="translate(-113.383 -147.514)"/><g class="aa" transform="translate(0.053)"><path class="ag" d="M118,156.332c.481.407.088-1.452-.522-2.711.775.96.914,1.013.627-.118a23.1,23.1,0,0,0-1.189-3.046s.756.611.873.487a9.428,9.428,0,0,0-.9-1.915s-.421-1.508-.954-1.515c-.33,0-.834.956-1.177,1.926.145-.286.809-1.559,1.091-1.526.318.035.541.728.936,1.642s-.6.842-.85.432c.164.817-.4.467-.775.056.247,1.131.993,1.447,1.318.918.267-.467.776,1.135,1.164,1.927.368.694-.646.464-1.132-.075.076.911-.593.36-.736.233-.189,1.22-.861.408-.861.408s.5,1.6.889.54c.452.978.9.384.94-.275.842,2.174.48,2.983.026,2.225-.183.781-.759.875-1.038.057-.071.971-.836,1.576-1.138.161.1,1.506.924,1.841,1.253,1,.539.947,1.1.4,1.107-.232.934,1.7,1.252,1.893.562,1.445,0,0-.02,1.6-1.274-.079-.769,1.276-.854,1.086-.925-.137-.99,1.023-1.413,1.385-1.763,1.031a1.354,1.354,0,0,0,.1.671c.34.58,1.4-.785,1.4-.785a3.946,3.946,0,0,0,.035.827c.066.277,1.1-1.013,1.1-1.013s.8.712,1.1.69.171-.8.171-.8a3.755,3.755,0,0,0,1.014.514C118.768,159.323,118.556,157.743,118,156.332Z" transform="translate(-113.544 -147.514)"/></g></g></g><g transform="translate(82.214 14.834)"><path class="ai" d="M278.9,184.233c-.038-.346.206-.655.221-1,.164.155.619.789.689.369a2.146,2.146,0,0,0,.05-1.251,3.177,3.177,0,0,0,.836-.074c.313-.013.225-.082.087-.273-.255-.351-.306-.886-.665-1.158a2.44,2.44,0,0,0,.931-1.082c.019-.035.38-.476.183-.428a3.691,3.691,0,0,1-.751.055,1.277,1.277,0,0,0,.217-.524c.017-.1.179-.631.127-.688a4.865,4.865,0,0,0-.679-.09,1.967,1.967,0,0,0-.775-.151,4.143,4.143,0,0,0,.214-.865c.042-.238.2-.543-.14-.473-.5.1-1.056-.177-1.535.041.092-.3.144-.609.263-.9.164-.4-.087-.141-.252-.03-.535.359-1.233.2-1.653.778a7.267,7.267,0,0,1,.186-.712,1.294,1.294,0,0,1,.221-.386c.066-.076-.059-.182-.128-.115-.439.429-1.123.551-1.48,1.072-.173-.428-.586-.621-.792-.987-.125-.222-.045.314-.055.234a4.126,4.126,0,0,1-.04.721c-.341-.508-1.126-.5-1.665-.574-.082-.011-.317-.094-.386-.024s.126.477.147.571a2.5,2.5,0,0,0,.448,1.235c-.163-.038-.81-.1-.937.015-.079.071.537.838.645.929-.734-.057-1.362.58-1.954.915-.032.019-.383.156-.221.244a2.627,2.627,0,0,1,.479.371,1.941,1.941,0,0,0,1.2.543c-.245.252-.253.644-.417.943-.02.035-.285.333-.074.314.272-.025.544,0,.815-.023a3.8,3.8,0,0,0-.33.609c-.119.227-.23.31.094.3.472-.016.861.259,1.333.038-.022.126-.03,1.109.093,1.035a3.136,3.136,0,0,0,.924-.681c.13.449.632.6.971.85.247.183.219.009.372-.2a6.235,6.235,0,0,0,.457-.573c.148.459.6.555.842.923.114.174.07.4.279.115a2.972,2.972,0,0,0,.4-.661,2.059,2.059,0,0,0,.642.507c.059.034.576.4.554.188C278.865,183.929,278.9,184.294,278.9,184.233Z" transform="translate(-270.213 -175.261)"/><path class="aj" d="M282.764,184.8a2.525,2.525,0,0,0-.027-1.089c.166-.02,1.014-.669.9-.757-.086-.067-.261-.027-.381-.124a1.257,1.257,0,0,0-.389-.275,1.236,1.236,0,0,0,.251-.56,4.317,4.317,0,0,0,.191-.686,4.478,4.478,0,0,0-1.438,0c.093-.3-.072-.853.1-1.1.123-.171-.361.042-.363.043a2.813,2.813,0,0,0-.721.317,2.129,2.129,0,0,0-.329-.691c-.191-.281-.179-.041-.292.121-.242.343-.585.478-.514.97a.951.951,0,0,0-.4-.055,2.9,2.9,0,0,0-.025-1.24c-.05-.017-.243.227-.285.26-.207.157-.451.246-.667.385-.031-.1-.541-.983-.646-.755-.045.1.028.28-.012.4a2.6,2.6,0,0,0-.144.441,2.115,2.115,0,0,0-1.139-.122c-.242,0-.2.049-.078.221.153.218.221.481.371.7-.093,0-.634.015-.649.126a3.108,3.108,0,0,0,.368.68,4.668,4.668,0,0,0-.537.246c-.034.014-.619.169-.417.241.488.174.721.661,1.312.6a2.549,2.549,0,0,0-.279.846c-.1.422.438.2.673.078.008.344.26.715.075,1.05-.131.239.3-.018.332-.056a1.244,1.244,0,0,0,.336-.639,1.669,1.669,0,0,0,.641.185c.115.02.627.306.664.289a5.123,5.123,0,0,0,.051-.735.885.885,0,0,0-.413-.856,3.691,3.691,0,0,0,.552-.17c.252-.077.161-.209.01-.412a2,2,0,0,0,.537-.067c-.077.1-.5.743-.424.849.117.162.854-.066,1-.149-.046.13-.27.852-.133.945.106.07.784-.186.906-.238-.011.182.039.419-.1.569-.187.206.443-.05.49-.082a1.236,1.236,0,0,0,.24-.2,1.448,1.448,0,0,0,.306.224c.058.036.49.407.495.262C282.777,184.416,282.76,184.872,282.764,184.8Z" transform="translate(-273.719 -178.121)"/><path class="aj" d="M274.543,185.744c-.073.012.114-.079.087-.048.079-.092-.311-.262-.363-.274-.267-.056-.514.052-.751.012-.206-.035.172.295.179.3.315.244.512.062.848.01Z" transform="translate(-272.384 -182.054)"/><path class="aj" d="M279.08,178.463c-.02,0-.2-.682-.353-.781a1.7,1.7,0,0,0-.484-.177c-.024-.007-.286-.089-.256-.112-.142.1.185.946.3,1.047a.856.856,0,0,0,.489.179c.089.008.177.015.266.02s.142-.155.036-.176Z" transform="translate(-275.395 -176.689)"/><path class="aj" d="M285.078,184.831c-.3-.344-.261-.831-.67-1.128.142.028,1.091-.012,1.1-.17a1.8,1.8,0,0,0-.284-.4,1.373,1.373,0,0,0-.662-.44,8.175,8.175,0,0,0,.749-.353c.009-.17-.808-.549-.962-.563a1.51,1.51,0,0,0,.325-.41c.042-.071.306-.313.3-.375-.03-.211-.842-.117-.966-.056.243-.382.067-.941.369-1.27.193-.21-.367.041-.363.039-.309.1-.591.133-.792.419,0-.061.105-.508.052-.526a1.667,1.667,0,0,0-.452.221,2.039,2.039,0,0,0-.68.686,2.348,2.348,0,0,0-.289-.613c-.023-.038-.377-.609-.389-.42-.033.511-.43.95-.155,1.459a1.508,1.508,0,0,0-.871-.2c-.1.02-.779.253-.67.366.056.058.215.029.292.058a.993.993,0,0,1,.37.282,1.785,1.785,0,0,0,.707.607,1.84,1.84,0,0,0-.911.489c-.107.116-.2.241-.3.364,0,0-.352.41-.147.351.531-.155,1.173.392,1.665.052-.052.174-.312.942-.127,1.077.072.052.448-.109.536-.13a.884.884,0,0,0,.6-.326,1.474,1.474,0,0,0,.22.56c.074.106.273.327.176.47-.119.175.237-.043.2-.014a1,1,0,0,0,.413-.5.979.979,0,0,0,.834.487c.164,0,.327-.036.491-.033.016,0,.419.078.3-.057S285.116,184.876,285.078,184.831Z" transform="translate(-276.571 -178.053)"/><path class="aj" d="M277.656,179.536c.273.27.466.536.876.585.31.038.67.233.614-.162-.133-.935-1.14-.93-1.847-.688.1-.033.3.215.357.265C277.851,179.729,277.5,179.382,277.656,179.536Z" transform="translate(-274.958 -177.855)"/><path class="aj" d="M282.7,176.731c0-.154.19-.4.211-.585a3.711,3.711,0,0,0-.119-.857,2.634,2.634,0,0,0-.52.867.719.719,0,0,0,.193.425s.24.316.235.15Z" transform="translate(-278.29 -175.28)"/><path class="aj" d="M294.032,181.819a.9.9,0,0,0,.734-.13c.059-.052.43-.511.4-.566a2.48,2.48,0,0,0-.96.234,1.008,1.008,0,0,0-.293.364.08.08,0,0,0,.122.1C294.243,181.857,294.022,181.826,294.032,181.819Z" transform="translate(-286.077 -179.178)"/><path class="aj" d="M294.575,179.578c.129.107.338-.37.37-.465.014-.04.2-.6.069-.454-.189.213-.451.329-.56.613-.036.094,0,.538.121.306C294.613,179.61,294.57,179.588,294.575,179.578Z" transform="translate(-286.437 -177.521)"/><path class="ak" d="M286.672,186.048c-.33-.313-.278-.88-.64-1.165a5.276,5.276,0,0,0,.907-.49c.054-.217-1.1-.568-1.275-.544a1.025,1.025,0,0,0,.239-.636c0-.107-.022-.648-.138-.689-.16-.058-.82.408-.856.577-.1-.137-1.137-.792-1.183-.577a.349.349,0,0,0,.1.181,1.791,1.791,0,0,1,.037.45.845.845,0,0,0,.552.671,1.112,1.112,0,0,0-.6.382c-.053.06-.523.5-.517.507s.6.1.677.133a.855.855,0,0,0,.755-.011c-.032.183-.023.37-.039.553a2.759,2.759,0,0,0-.1.372c.047.1.69-.324.766-.383a.939.939,0,0,0,.684.663c.072.015.764.123.638,0C286.373,185.765,286.72,186.093,286.672,186.048Z" transform="translate(-278.974 -180.096)"/><path class="ak" d="M280.863,185.506c.165-.214-.646-.51-.8-.5-.134,0-1.066.54-1.02.623a7.929,7.929,0,0,0,.8.211.933.933,0,0,0,1.014-.33C280.91,185.445,280.7,185.723,280.863,185.506Z" transform="translate(-276.127 -181.784)"/><path class="ak" d="M277.636,182.849c.21,0,.015-.184-.035-.222a1.408,1.408,0,0,0-.706-.312,1.011,1.011,0,0,0-.529.167c-.042.023-.478.208-.477.219,0-.032.848.327.91.346.226.065.741.089.836-.2C277.644,182.849,277.559,183.079,277.636,182.849Z" transform="translate(-274.014 -179.985)"/><path class="ak" d="M295.806,184.936c.133-.116-.646-.189-.749-.2-.436-.04-.565.326-.759.593-.174.238.566.249.669.213a2.728,2.728,0,0,0,.838-.608Z" transform="translate(-286.324 -181.604)"/><path class="ak" d="M292.514,184.023c.225-.107-.254-.094-.232-.094-.34-.015-.465.112-.618.391-.119.215-.16.446.186.325.293-.1.464-.407.664-.623C292.518,184.022,292.281,184.276,292.514,184.023Z" transform="translate(-284.52 -181.065)"/><path class="ak" d="M288.144,180.058c.024-.093.173-.782.1-.821-.1-.048-.525.4-.581.481a.667.667,0,0,0-.008.788c.209.21.454-.318.488-.448C288.206,179.806,288.1,180.241,288.144,180.058Z" transform="translate(-281.81 -177.921)"/><path class="ak" d="M285.544,179.815a.854.854,0,0,0,.154-.636c-.012-.064-.043-.615-.041-.611-.043-.041-.267.114-.288.134a1.01,1.01,0,0,0-.3.62.634.634,0,0,0,.135.462c.047.057.354.223.337.03C285.656,179.668,285.549,179.863,285.544,179.815Z" transform="translate(-280.161 -177.471)"/><path class="ak" d="M281.576,179.745c.188-.2-.059-.507-.23-.629a3.73,3.73,0,0,0-.854-.379C280.386,178.8,280.986,180.378,281.576,179.745Z" transform="translate(-277.088 -177.587)"/><path class="ak" d="M282.545,191.454c.238-.273.672-.222.94-.515.189-.2.507-.571.008-.557a.978.978,0,0,0-.861.511,1.212,1.212,0,0,0-.128.411c-.049.062-.058.262.042.15C282.734,191.239,282.505,191.5,282.545,191.454Z" transform="translate(-278.42 -185.386)"/><path class="al" d="M287.77,184.73c-.378-.131-.671-.492-1.079-.621a1.483,1.483,0,0,0-1.158-.027c.2-.218.373-.468.566-.7a5.525,5.525,0,0,0,.352-.433c-.053-.1-.785.113-.894.142a2.54,2.54,0,0,0-.945.415,1.246,1.246,0,0,0-.649-1.015c-.126-.091-.855-.633-.992-.557a4.075,4.075,0,0,1,.235.66,1.819,1.819,0,0,0,.563,1.033,3.3,3.3,0,0,0-1.086.4c-.245.122-.574.264-.144.392.329.1.564.37.93.35a1.1,1.1,0,0,0,.92-.566.669.669,0,0,0,.752.186c-.143.212-.107.177.059.363a1.523,1.523,0,0,0,.607.373,1.61,1.61,0,0,0,1.029-.117,2.788,2.788,0,0,1,.7-.187c.049.011.41-.035.231-.1C287.731,184.716,287.822,184.747,287.77,184.73Z" transform="translate(-278.327 -179.726)"/><path class="al" d="M290.192,181.823c.243-.3.166-.74.234-1.1.031-.157-.2.057-.193.054a3.178,3.178,0,0,0-.682.361c-.207.168-.5.816-.135,1-.137.179.064.216.2.155a1.533,1.533,0,0,0,.572-.475C290.422,181.535,290.026,182.033,290.192,181.823Z" transform="translate(-282.957 -178.882)"/><path class="al" d="M288.286,191.377c.014-.325.38-.5.417-.822.017-.142-.127-.719-.371-.648a.646.646,0,0,0-.484.765,1.594,1.594,0,0,0,.25.531c-.012-.018.182.331.187.175C288.3,191.108,288.285,191.421,288.286,191.377Z" transform="translate(-282.012 -185.064)"/><path class="ak" d="M279.9,187.872c-.192.355-.765.276-.89.7-.108-.109-1.11-.534-1.2-.4a1.318,1.318,0,0,0,.116.328,1.255,1.255,0,0,0,.514.668,1.784,1.784,0,0,0-.39.458c-.116.168-.324.3-.035.346.325.052.808.226,1.085-.042,0,.169.39,1.028.449.909.187-.385.495-.833.252-1.264.225.043.482.018.664.181.136.123-.129-.551-.16-.621a.482.482,0,0,0-.282-.3,2,2,0,0,0-.026-.5c0-.039-.017-.62-.1-.469C279.781,188.092,279.929,187.816,279.9,187.872Z" transform="translate(-275.299 -183.689)"/><path class="ak" d="M279.92,184.813c-.051-.119-.082.445-.089.471-.069.314-.074.623.252.8.306.168.331-.349.307-.547-.043-.342-.347-.436-.47-.725Z" transform="translate(-276.629 -181.646)"/><path class="ak" d="M275.479,191.517c-.241-.225-.574-.012-.715.209l-.388.6c.046.089.746-.137.824-.2s.391-.506.279-.611C275.346,191.392,275.507,191.543,275.479,191.517Z" transform="translate(-273.001 -186.082)"/><path class="al" d="M280.007,187.559a1.167,1.167,0,0,0-.626-.456c-.019-.008-.581-.272-.455-.054a6.4,6.4,0,0,1,.318,1c.118.318.332.628.715.536a.452.452,0,0,0,.285-.4,1.478,1.478,0,0,0-.237-.621C279.826,187.215,280.111,187.755,280.007,187.559Z" transform="translate(-276.035 -183.098)"/><path class="al" d="M279.928,192.247a.958.958,0,0,0-.7.579c-.039.093-.352.884-.281.928.135.082.8-.436.894-.532.111-.112.456-1.086.091-.975Z" transform="translate(-276.052 -186.63)"/><path class="al" d="M284.111,191.63c-.254-.129-.427-.4-.732-.414-.1,0-.477.155-.432.244a.755.755,0,0,0,.708.33c.071,0,.512-.131.456-.16C283.918,191.532,284.155,191.652,284.111,191.63Z" transform="translate(-278.738 -185.945)"/><path class="al" d="M276.319,188.615a2.409,2.409,0,0,0-.522-.288c.062.034-.324-.173-.188,0,.1.14.142.4.249.562.134.2.354.426.621.336.051.045.154.061.192-.015.074-.155-.252-.506-.352-.6C276.138,188.451,276.473,188.754,276.319,188.615Z" transform="translate(-273.807 -183.964)"/><g class="am" transform="translate(5.526 6.915)"><path class="an" d="M287.32,196.346c-.076-.11-.266-.25-.355-.058C286.8,196.65,287.539,196.66,287.32,196.346Z" transform="translate(-286.94 -196.192)"/></g></g><g transform="translate(20.113 12.233)"><path class="ai" d="M90.918,176.36c-.038-.347.206-.655.221-1,.164.156.619.789.69.369a2.149,2.149,0,0,0,.05-1.251,3.192,3.192,0,0,0,.836-.074c.313-.013.225-.083.087-.273-.255-.352-.305-.887-.665-1.159a2.441,2.441,0,0,0,.931-1.082c.019-.034.38-.476.182-.428a3.688,3.688,0,0,1-.751.055,1.276,1.276,0,0,0,.217-.524c.017-.1.179-.63.127-.687a4.819,4.819,0,0,0-.679-.09,1.962,1.962,0,0,0-.774-.151,4.185,4.185,0,0,0,.214-.865c.041-.238.2-.543-.14-.473-.5.1-1.056-.177-1.536.041.093-.3.144-.609.263-.9.164-.4-.087-.141-.252-.03-.535.359-1.233.2-1.653.778a7.21,7.21,0,0,1,.187-.712,1.288,1.288,0,0,1,.221-.386c.066-.076-.059-.181-.128-.114-.439.429-1.123.551-1.48,1.071-.173-.428-.586-.621-.792-.987-.125-.222-.045.314-.055.234a4.092,4.092,0,0,1-.04.721c-.341-.507-1.126-.5-1.665-.574-.082-.011-.317-.094-.386-.024s.126.477.147.572a2.508,2.508,0,0,0,.448,1.235c-.163-.038-.81-.1-.937.015-.079.071.537.838.645.929-.734-.057-1.362.58-1.953.915-.032.019-.383.156-.221.244a2.6,2.6,0,0,1,.479.371,1.944,1.944,0,0,0,1.2.543c-.245.251-.253.644-.417.943-.02.036-.285.334-.074.314.271-.025.544,0,.815-.023a3.817,3.817,0,0,0-.33.609c-.119.227-.23.31.094.3.472-.016.861.258,1.333.038-.022.126-.03,1.109.093,1.035a3.129,3.129,0,0,0,.924-.68c.13.449.631.6.971.85.247.183.219.009.372-.2a6.3,6.3,0,0,0,.456-.573c.148.459.6.555.842.923.114.174.07.4.279.115a2.98,2.98,0,0,0,.4-.661,2.069,2.069,0,0,0,.642.507c.059.034.576.4.554.188C90.885,176.056,90.925,176.421,90.918,176.36Z" transform="translate(-82.234 -167.387)"/><path class="aj" d="M94.784,176.923a2.522,2.522,0,0,0-.027-1.089c.165-.02,1.014-.669.9-.757-.087-.067-.261-.026-.381-.124a1.257,1.257,0,0,0-.389-.275,1.228,1.228,0,0,0,.251-.56,4.3,4.3,0,0,0,.191-.686,4.469,4.469,0,0,0-1.438,0c.093-.3-.071-.853.1-1.1.123-.171-.36.042-.363.043a2.826,2.826,0,0,0-.721.316,2.137,2.137,0,0,0-.328-.691c-.192-.281-.179-.041-.292.121-.242.343-.584.478-.514.97a.962.962,0,0,0-.4-.055,2.906,2.906,0,0,0-.024-1.24c-.051-.017-.243.227-.285.26-.207.157-.451.246-.667.385-.03-.1-.541-.983-.647-.755-.045.1.028.28-.012.4a2.6,2.6,0,0,0-.144.441,2.114,2.114,0,0,0-1.138-.122c-.243,0-.2.049-.078.221.153.219.221.481.371.7-.093,0-.634.014-.649.126a3.113,3.113,0,0,0,.367.68,4.7,4.7,0,0,0-.537.246c-.033.015-.619.169-.417.241.488.174.721.661,1.313.6a2.548,2.548,0,0,0-.279.846c-.1.422.438.2.673.078.008.344.26.715.076,1.05-.131.24.295-.018.332-.056a1.245,1.245,0,0,0,.335-.639,1.682,1.682,0,0,0,.641.185c.115.02.627.305.664.289a5.03,5.03,0,0,0,.051-.735.886.886,0,0,0-.413-.856,3.613,3.613,0,0,0,.552-.17c.253-.077.161-.209.01-.412a2,2,0,0,0,.537-.066c-.078.1-.5.743-.424.849.117.162.854-.067,1-.149-.046.13-.27.852-.133.945.106.07.784-.186.906-.238-.011.182.039.419-.1.568-.187.206.443-.05.49-.082a1.247,1.247,0,0,0,.24-.2,1.428,1.428,0,0,0,.306.224c.059.036.49.407.495.262C94.8,176.542,94.78,177,94.784,176.923Z" transform="translate(-85.739 -170.247)"/><path class="aj" d="M86.563,177.87c-.073.012.114-.078.087-.047.079-.092-.311-.262-.364-.274-.266-.056-.514.052-.751.012-.205-.035.172.295.179.3.315.244.512.062.848.01Z" transform="translate(-84.404 -174.181)"/><path class="aj" d="M91.1,170.59c-.02,0-.2-.682-.353-.781a1.7,1.7,0,0,0-.484-.177c-.024-.007-.286-.09-.256-.112-.142.1.185.946.3,1.047a.856.856,0,0,0,.489.179c.089.008.177.015.266.019s.142-.155.036-.176Z" transform="translate(-87.415 -168.815)"/><path class="aj" d="M97.1,176.958c-.3-.344-.261-.831-.67-1.128.142.028,1.091-.012,1.1-.17a1.811,1.811,0,0,0-.284-.4,1.374,1.374,0,0,0-.662-.44,8.056,8.056,0,0,0,.749-.353c.01-.171-.808-.549-.962-.563a1.508,1.508,0,0,0,.325-.41c.042-.072.306-.313.3-.375-.03-.211-.841-.117-.966-.056.243-.382.067-.941.369-1.269.193-.211-.367.04-.363.039-.309.1-.591.133-.793.419,0-.06.106-.507.052-.526a1.658,1.658,0,0,0-.452.221,2.035,2.035,0,0,0-.68.686,2.362,2.362,0,0,0-.289-.613c-.023-.038-.377-.609-.389-.421-.033.511-.43.95-.155,1.46a1.5,1.5,0,0,0-.87-.2c-.1.02-.779.253-.67.366.056.058.215.029.292.058a1,1,0,0,1,.37.281,1.784,1.784,0,0,0,.707.607,1.837,1.837,0,0,0-.911.489c-.107.115-.2.241-.3.364,0,0-.352.41-.147.351.531-.156,1.173.392,1.665.052-.052.174-.312.943-.127,1.077.072.052.448-.109.537-.13a.885.885,0,0,0,.6-.325,1.472,1.472,0,0,0,.221.559c.073.106.272.328.175.47-.119.175.237-.043.2-.014a1,1,0,0,0,.413-.5.981.981,0,0,0,.834.488c.164,0,.327-.036.491-.034.016,0,.419.078.3-.057S97.136,177,97.1,176.958Z" transform="translate(-88.591 -170.18)"/><path class="aj" d="M89.676,171.663c.273.27.466.536.876.585.31.039.67.234.614-.162-.132-.935-1.14-.93-1.847-.688.1-.034.3.215.356.265C89.872,171.855,89.519,171.509,89.676,171.663Z" transform="translate(-86.979 -169.981)"/><path class="aj" d="M94.721,168.857c0-.153.19-.4.211-.584a3.715,3.715,0,0,0-.119-.857,2.644,2.644,0,0,0-.52.868.719.719,0,0,0,.193.425s.24.316.235.149C94.72,168.848,94.723,168.9,94.721,168.857Z" transform="translate(-90.31 -167.406)"/><path class="aj" d="M106.051,173.946a.9.9,0,0,0,.734-.13c.059-.052.43-.511.4-.566a2.472,2.472,0,0,0-.96.234,1.009,1.009,0,0,0-.294.364.08.08,0,0,0,.123.1C106.263,173.983,106.042,173.952,106.051,173.946Z" transform="translate(-98.097 -171.304)"/><path class="aj" d="M106.6,171.7c.129.107.338-.37.37-.464.014-.04.2-.6.069-.454-.189.213-.451.329-.56.613-.036.094,0,.538.121.3C106.633,171.737,106.59,171.714,106.6,171.7Z" transform="translate(-98.458 -169.648)"/><path class="ak" d="M98.693,178.175c-.329-.313-.278-.88-.64-1.165a5.3,5.3,0,0,0,.907-.49c.054-.217-1.1-.568-1.275-.544a1.024,1.024,0,0,0,.239-.636c0-.106-.022-.648-.138-.689-.16-.057-.82.409-.856.577-.1-.137-1.136-.792-1.183-.577a.348.348,0,0,0,.1.181,1.76,1.76,0,0,1,.037.451.846.846,0,0,0,.552.671,1.111,1.111,0,0,0-.6.382c-.053.061-.523.5-.517.507s.6.1.677.133a.854.854,0,0,0,.755-.011c-.032.183-.023.37-.039.554a2.766,2.766,0,0,0-.105.372c.047.1.69-.324.766-.382a.939.939,0,0,0,.684.662c.072.015.764.123.638,0C98.394,177.892,98.741,178.22,98.693,178.175Z" transform="translate(-90.995 -172.223)"/><path class="ak" d="M92.884,177.633c.165-.214-.646-.51-.8-.5-.134.005-1.067.54-1.02.623a7.985,7.985,0,0,0,.8.211.934.934,0,0,0,1.014-.33C92.93,177.571,92.715,177.849,92.884,177.633Z" transform="translate(-88.147 -173.911)"/><path class="ak" d="M89.656,174.977c.21,0,.015-.184-.034-.222a1.407,1.407,0,0,0-.706-.312,1.011,1.011,0,0,0-.529.167c-.042.023-.477.208-.477.219,0-.032.848.327.91.346.227.065.741.089.836-.2C89.663,174.976,89.579,175.206,89.656,174.977Z" transform="translate(-86.034 -172.112)"/><path class="ak" d="M107.826,177.063c.134-.116-.646-.189-.749-.2-.436-.04-.565.326-.759.593-.174.238.566.249.669.213a2.713,2.713,0,0,0,.838-.608Z" transform="translate(-98.344 -173.731)"/><path class="ak" d="M104.534,176.15c.225-.107-.254-.094-.232-.094-.34-.015-.465.112-.617.391-.12.215-.16.446.186.325.293-.1.464-.407.663-.623C104.538,176.148,104.3,176.4,104.534,176.15Z" transform="translate(-96.541 -173.192)"/><path class="ak" d="M100.164,172.185c.024-.093.173-.783.1-.821-.1-.049-.525.4-.581.481a.666.666,0,0,0-.008.787c.21.21.454-.318.488-.448C100.227,171.933,100.118,172.368,100.164,172.185Z" transform="translate(-93.83 -170.048)"/><path class="ak" d="M97.565,171.942a.853.853,0,0,0,.154-.635c-.012-.064-.043-.615-.041-.611-.043-.041-.267.114-.288.134a1.009,1.009,0,0,0-.3.62.636.636,0,0,0,.135.462c.047.057.354.223.337.03C97.677,171.8,97.57,171.99,97.565,171.942Z" transform="translate(-92.181 -169.598)"/><path class="ak" d="M93.6,171.871c.188-.2-.059-.507-.229-.629a3.719,3.719,0,0,0-.854-.379c-.105.064.494,1.641,1.084,1.007Z" transform="translate(-89.109 -169.714)"/><path class="ak" d="M94.565,183.581c.238-.273.672-.222.94-.515.189-.2.506-.57.008-.557a.979.979,0,0,0-.861.512,1.2,1.2,0,0,0-.128.411c-.049.062-.058.262.041.15C94.755,183.365,94.525,183.625,94.565,183.581Z" transform="translate(-90.44 -177.513)"/><path class="al" d="M99.79,176.856c-.378-.131-.671-.492-1.079-.621a1.485,1.485,0,0,0-1.158-.027c.205-.218.373-.468.566-.7a5.318,5.318,0,0,0,.352-.433c-.053-.1-.785.113-.894.142a2.539,2.539,0,0,0-.944.415,1.246,1.246,0,0,0-.649-1.016c-.126-.091-.855-.633-.992-.557a4.105,4.105,0,0,1,.235.66,1.818,1.818,0,0,0,.563,1.033,3.3,3.3,0,0,0-1.086.4c-.245.122-.574.264-.144.393.329.1.564.37.93.35a1.106,1.106,0,0,0,.92-.566.669.669,0,0,0,.751.186c-.143.212-.107.177.059.363a1.522,1.522,0,0,0,.608.373,1.609,1.609,0,0,0,1.028-.117,2.815,2.815,0,0,1,.7-.187c.049.012.41-.035.231-.1Z" transform="translate(-90.348 -171.852)"/><path class="al" d="M102.212,173.949c.243-.3.166-.739.234-1.1.031-.157-.2.058-.193.054a3.2,3.2,0,0,0-.682.362c-.207.168-.5.815-.135,1-.137.179.064.216.2.155a1.534,1.534,0,0,0,.572-.475C102.442,173.661,102.046,174.159,102.212,173.949Z" transform="translate(-94.978 -171.009)"/><path class="al" d="M100.306,183.5c.014-.325.38-.5.417-.822.017-.142-.127-.719-.371-.647a.646.646,0,0,0-.484.764,1.587,1.587,0,0,0,.25.531c-.012-.018.182.331.188.175C100.318,183.235,100.305,183.548,100.306,183.5Z" transform="translate(-94.033 -177.191)"/><path class="ak" d="M91.92,180c-.192.354-.765.276-.89.7-.108-.109-1.11-.534-1.2-.4a1.328,1.328,0,0,0,.116.328,1.256,1.256,0,0,0,.514.668,1.777,1.777,0,0,0-.39.458c-.116.168-.324.3-.035.346.325.052.808.226,1.085-.042,0,.169.39,1.028.449.91.187-.385.5-.834.252-1.265.225.043.482.018.664.181.137.123-.13-.551-.16-.621a.484.484,0,0,0-.282-.3,1.989,1.989,0,0,0-.026-.5c0-.039-.017-.62-.1-.469C91.8,180.218,91.949,179.943,91.92,180Z" transform="translate(-87.319 -175.815)"/><path class="ak" d="M91.941,176.94c-.051-.12-.082.445-.088.471-.07.314-.075.623.251.8.306.167.331-.349.307-.547-.043-.342-.347-.436-.47-.725Z" transform="translate(-88.649 -173.773)"/><path class="ak" d="M87.5,183.644c-.241-.225-.574-.012-.715.208l-.388.6c.046.089.746-.137.824-.2s.391-.506.278-.612C87.366,183.518,87.527,183.67,87.5,183.644Z" transform="translate(-85.021 -178.209)"/><path class="al" d="M92.027,179.686a1.165,1.165,0,0,0-.626-.456c-.019-.008-.581-.272-.455-.054a6.348,6.348,0,0,1,.318,1c.118.318.332.628.715.536a.452.452,0,0,0,.285-.4,1.476,1.476,0,0,0-.237-.621C91.846,179.341,92.131,179.882,92.027,179.686Z" transform="translate(-88.055 -175.224)"/><path class="al" d="M91.948,184.374a.958.958,0,0,0-.7.579c-.039.092-.352.884-.281.928.135.083.8-.436.894-.532.111-.112.456-1.086.091-.975Z" transform="translate(-88.073 -178.756)"/><path class="al" d="M96.131,183.757c-.255-.129-.427-.4-.732-.414-.1,0-.477.155-.432.244a.755.755,0,0,0,.708.33c.071,0,.512-.132.456-.16C95.938,183.659,96.175,183.779,96.131,183.757Z" transform="translate(-90.758 -178.072)"/><path class="al" d="M88.339,180.742a2.4,2.4,0,0,0-.522-.288c.062.034-.324-.173-.188,0,.1.14.141.4.249.562.134.2.354.426.622.336.051.046.154.062.191-.015.074-.155-.252-.506-.352-.6C88.159,180.577,88.493,180.881,88.339,180.742Z" transform="translate(-85.828 -176.091)"/><g class="am" transform="translate(5.526 6.915)"><path class="an" d="M99.34,188.472c-.076-.11-.266-.25-.355-.058C98.817,188.776,99.559,188.787,99.34,188.472Z" transform="translate(-98.96 -188.319)"/></g></g></g></svg>