<svg xmlns="http://www.w3.org/2000/svg" width="15.084" height="14.414" viewBox="0 0 15.084 14.414"><defs><style>.a{fill:#0077b7;}</style></defs><g transform="translate(0 -9.558)"><path class="a" d="M15.084,18.4v5.577H11.851v-5.2c0-1.307-.468-2.2-1.638-2.2a1.769,1.769,0,0,0-1.659,1.183,2.212,2.212,0,0,0-.107.788v5.431H5.213s.044-8.813,0-9.726H8.447v1.379l-.021.031h.021v-.031a3.211,3.211,0,0,1,2.914-1.607C13.489,14.018,15.084,15.408,15.084,18.4ZM1.83,9.558a1.685,1.685,0,1,0-.043,3.361h.022A1.686,1.686,0,1,0,1.83,9.558ZM.192,23.972H3.425V14.246H.192Z" transform="translate(0 0)"/></g></svg>