<svg xmlns="http://www.w3.org/2000/svg" xmlns:xlink="http://www.w3.org/1999/xlink" width="400" height="270" viewBox="0 0 400 270">
  <defs>
    <clipPath id="clip-path">
      <rect id="Rectangle_18243" data-name="Rectangle 18243" width="400" height="270" transform="translate(1290 154)" fill="#fff" stroke="#707070" stroke-width="1"/>
    </clipPath>
  </defs>
  <g id="Mask_Group_129" data-name="Mask Group 129" transform="translate(-1290 -154)" clip-path="url(#clip-path)">
    <g id="Group_41812" data-name="Group 41812" transform="translate(1317.685 78.375)">
      <g id="Group_41726" data-name="Group 41726" transform="translate(27.323 291.942)">
        <path id="Path_69987" data-name="Path 69987" d="M35.83,380.621H312.946c3.742,0,7.492.067,11.233,0h.491a1,1,0,0,0,0-1.993H47.548c-3.742,0-7.492-.069-11.233,0h-.491a1,1,0,0,0,0,1.993Z" transform="translate(-34.883 -378.597)"/>
      </g>
      <path id="Path_69988" data-name="Path 69988" d="M73.963,276.584s-65.6-32.752-47.123-88.836c15.251-46.291,49.717-37.323,69.6-52.479s56.85-56.594,109.376-38.148,26.948,72.5,66.145,98.269,34.369,73.309-20.1,86.563S112.006,288.855,73.963,276.584Z" transform="translate(-3.772 9.67)" fill="#f5f5f5"/>
      <g id="Group_41742" data-name="Group 41742" transform="translate(241.842 202.449)">
        <path id="Path_69989" data-name="Path 69989" d="M414.823,407.5c0,2.581-12.639,4.674-28.23,4.674s-28.23-2.093-28.23-4.674,12.639-4.674,28.23-4.674S414.823,404.923,414.823,407.5Z" transform="translate(-358.362 -297.232)" fill="#dbecf5"/>
        <g id="Group_41727" data-name="Group 41727" transform="translate(39.749 9.895)">
          <path id="Path_69990" data-name="Path 69990" d="M419.749,330.616A28.29,28.29,0,0,1,419.6,320c.936-6.089,4.014-11.536,5.867-17.365a78.708,78.708,0,0,0,3.318-17,90.527,90.527,0,0,0-.128-18.812,34.461,34.461,0,0,0-1.551-7.659c-.219-.6-1.182-.34-.961.264a30.648,30.648,0,0,1,1.344,6.117,85.68,85.68,0,0,1,.445,18.215,79.464,79.464,0,0,1-3.112,17.577c-.8,2.66-1.763,5.27-2.809,7.842a49.157,49.157,0,0,0-3.168,9.343,30.061,30.061,0,0,0-.064,12.358c.149.623,1.11.359.961-.266Z" transform="translate(-418.176 -258.827)"/>
        </g>
        <g id="Group_41728" data-name="Group 41728" transform="translate(48.464 12.903)">
          <path id="Path_69991" data-name="Path 69991" d="M441.216,263.5a16.841,16.841,0,0,0-2.817,3.93,50.872,50.872,0,0,0-5.07,13.671,94.448,94.448,0,0,0-2.035,13.07c-.058.641.939.641,1,0a78.634,78.634,0,0,1,4.193-20.189A33.209,33.209,0,0,1,441,265.272a9.024,9.024,0,0,1,.923-1.07c.468-.441-.237-1.146-.7-.705Z" transform="translate(-431.292 -263.357)"/>
        </g>
        <g id="Group_41729" data-name="Group 41729" transform="translate(45.259 42.07)">
          <path id="Path_69992" data-name="Path 69992" d="M435.791,307.292a11.18,11.18,0,0,0-2.354,1.751,22.357,22.357,0,0,0-4.592,6.068,31.862,31.862,0,0,0-2.378,5.919.5.5,0,0,0,.961.264c1.4-4.746,3.911-9.753,8.092-12.658a6.747,6.747,0,0,1,.774-.481c.572-.29.069-1.15-.5-.86Z" transform="translate(-426.458 -307.236)"/>
        </g>
        <path id="Path_69993" data-name="Path 69993" d="M413.493,260.945s-2.453,11.836-18.476,14c-10.1,1.155-14.723-2.45-14.723-2.45s4.475-3.323,7.21-13.717,7.362-13.568,15.734-14.723S416.092,250.407,413.493,260.945Z" transform="translate(-365.723 -243.94)" fill="#7ec682"/>
        <path id="Path_69994" data-name="Path 69994" d="M448.969,251.773a16.516,16.516,0,0,0,0,15.879c4.619,8.372,15.59,11.98,18.043,16.6a45.264,45.264,0,0,0,3.32-20.349C469.611,252.059,456.764,243.406,448.969,251.773Z" transform="translate(-388.064 -245.449)" fill="#7ec682"/>
        <path id="Path_69995" data-name="Path 69995" d="M442.142,300.927a7.97,7.97,0,0,0-2.812,3.97,21.808,21.808,0,0,0-.287,11.666c2.02,8.372,15.444,21.075,21.075,24.683a61.891,61.891,0,0,0,3.464-18.187C463.866,306.5,455.154,291.152,442.142,300.927Z" transform="translate(-385.21 -262.027)" fill="#7ec682"/>
        <g id="Group_41730" data-name="Group 41730" transform="translate(14.091 1.773)">
          <path id="Path_69996" data-name="Path 69996" d="M380.183,273.84a12.537,12.537,0,0,0,3.878-2.165,17.305,17.305,0,0,0,5.768-8.433c.62-1.923.815-3.942,1.6-5.819a17.5,17.5,0,0,1,2.841-4.571,14.611,14.611,0,0,1,8.713-5.223c4.539-.641,8.141,2.2,10.349,5.928a.5.5,0,1,0,.862-.5,12.075,12.075,0,0,0-8.88-6.46,13.175,13.175,0,0,0-9.389,3.257,18.348,18.348,0,0,0-6.031,8.918,41.551,41.551,0,0,1-1.9,6.409,16.071,16.071,0,0,1-3.128,4.469,12.72,12.72,0,0,1-4.954,3.241c-.612.187-.351,1.149.264.961Z" transform="translate(-379.57 -246.575)"/>
        </g>
        <g id="Group_41731" data-name="Group 41731" transform="translate(60.431 5.222)">
          <path id="Path_69997" data-name="Path 69997" d="M450.008,253.342a5.449,5.449,0,0,1,2.323-.518,8.973,8.973,0,0,1,6.023,2.615,28.113,28.113,0,0,1,6.627,10.354,31.231,31.231,0,0,1,2.224,9.016,22.574,22.574,0,0,1,.061,3.065q-.021.421-.067.841a1.152,1.152,0,0,1-.026.191c-.106.628.854.9.961.264a16.611,16.611,0,0,0,.112-3.732,31.488,31.488,0,0,0-2.105-9.4,30.3,30.3,0,0,0-6.754-10.993,10.588,10.588,0,0,0-6.44-3.2,6.352,6.352,0,0,0-3.445.641.5.5,0,0,0,.5.862Z" transform="translate(-449.28 -251.81)"/>
        </g>
        <path id="Path_69998" data-name="Path 69998" d="M398.321,360.75s4.475,34.21,5.2,35.652,19.343,2.02,25.838,0l4.185-35.654Z" transform="translate(-371.77 -283.118)" fill="#e15672"/>
        <path id="Path_69999" data-name="Path 69999" d="M406.8,360.749h-8.481s4.475,34.21,5.2,35.652c.582,1.162,12.772,1.762,20.889.9C410.439,388.14,407.407,370.071,406.8,360.749Z" transform="translate(-371.77 -283.117)" fill="#c44161"/>
        <g id="Group_41732" data-name="Group 41732" transform="translate(56.45 38.396)">
          <path id="Path_70000" data-name="Path 70000" d="M443.793,302.708a11.422,11.422,0,0,1,5.845,1.492c4.943,2.61,7.678,7.851,9.062,13.065a57.422,57.422,0,0,1,1.413,17.325c-.029.641.961.641,1,0a61.287,61.287,0,0,0-1.1-16.157,27.673,27.673,0,0,0-4.006-9.739,15.807,15.807,0,0,0-9.811-6.76,9.561,9.561,0,0,0-2.4-.223c-.641.042-.641,1.04,0,1Z" transform="translate(-443.311 -301.705)"/>
        </g>
        <g id="Group_41733" data-name="Group 41733" transform="translate(65.696 51.662)">
          <path id="Path_70001" data-name="Path 70001" d="M457.242,322.927l1.423,3.761a1.08,1.08,0,0,0,.458.6,1,1,0,0,0,1.464-1.122l-1.423-3.76a1.077,1.077,0,0,0-.458-.6,1,1,0,0,0-1.465,1.122Z" transform="translate(-457.207 -321.669)" fill="#538c8c"/>
        </g>
        <g id="Group_41734" data-name="Group 41734" transform="translate(63.515 53.97)">
          <path id="Path_70002" data-name="Path 70002" d="M453.943,326.147v.144a.962.962,0,0,0,.612.91.755.755,0,0,0,.384.087l.264-.035a1,1,0,0,0,.441-.256l.16-.2a.991.991,0,0,0,.136-.5v-.144a1.106,1.106,0,0,0-.292-.705.739.739,0,0,0-.321-.207.749.749,0,0,0-.384-.086l-.266.035a.993.993,0,0,0-.441.256l-.16.2a.991.991,0,0,0-.136.5Z" transform="translate(-453.941 -325.147)" fill="#538c8c"/>
        </g>
        <g id="Group_41735" data-name="Group 41735" transform="translate(66.238 37.968)">
          <path id="Path_70003" data-name="Path 70003" d="M458.537,302.938c.1.074.207.149.306.226l-.2-.16a9.255,9.255,0,0,1,1.644,1.649l-.16-.2a9.391,9.391,0,0,1,.662.989,1,1,0,0,0,1.722-1.006,10.314,10.314,0,0,0-2.971-3.222,1.006,1.006,0,0,0-.767-.1,1.021,1.021,0,0,0-.6.458,1.007,1.007,0,0,0-.1.768,1.13,1.13,0,0,0,.458.6Z" transform="translate(-458.039 -301.075)" fill="#538c8c"/>
        </g>
        <g id="Group_41736" data-name="Group 41736" transform="translate(66.987 21.36)">
          <path id="Path_70004" data-name="Path 70004" d="M459.445,277.774q1.982,2.072,3.775,4.313a1,1,0,0,0,1.41,0,1.027,1.027,0,0,0,0-1.41q-1.791-2.243-3.775-4.312a1,1,0,1,0-1.41,1.41Z" transform="translate(-459.16 -276.077)" fill="#538c8c"/>
        </g>
        <g id="Group_41737" data-name="Group 41737" transform="translate(67.846 16.164)">
          <path id="Path_70005" data-name="Path 70005" d="M460.751,269.942l.144.144a.749.749,0,0,0,.32.207.9.9,0,0,0,.768,0,.749.749,0,0,0,.32-.207l.16-.2a.993.993,0,0,0,.136-.5l-.035-.264a1,1,0,0,0-.256-.441l-.144-.144a1.025,1.025,0,0,0-1.41,0l-.16.2a1,1,0,0,0-.136.5l.035.264a1,1,0,0,0,.256.441Z" transform="translate(-460.458 -268.251)" fill="#538c8c"/>
        </g>
        <g id="Group_41738" data-name="Group 41738" transform="translate(76.511 9.95)">
          <path id="Path_70006" data-name="Path 70006" d="M473.635,260.4a4.916,4.916,0,0,1,.364.691l-.1-.237a4.83,4.83,0,0,1,.336,1.229l-.035-.264c0,.035.01.071.013.106a.75.75,0,0,0,.085.385.742.742,0,0,0,.207.32,1,1,0,0,0,1.41,0,.961.961,0,0,0,.292-.705,5.707,5.707,0,0,0-.849-2.527,1.041,1.041,0,0,0-.6-.458,1.018,1.018,0,0,0-.769.1,1,1,0,0,0-.357,1.364Z" transform="translate(-473.497 -258.906)" fill="#538c8c"/>
        </g>
        <g id="Group_41739" data-name="Group 41739" transform="translate(33.489 17.809)">
          <path id="Path_70007" data-name="Path 70007" d="M416.486,271.023a43.486,43.486,0,0,1-7.229,5.693,1,1,0,0,0,1.006,1.721,45.968,45.968,0,0,0,7.633-6C418.816,271.536,417.406,270.126,416.486,271.023Z" transform="translate(-408.763 -270.736)" fill="#538c8c"/>
        </g>
        <g id="Group_41740" data-name="Group 41740" transform="translate(35.086 12.41)">
          <path id="Path_70008" data-name="Path 70008" d="M412.507,262.731a4.147,4.147,0,0,0-.468.351,2.246,2.246,0,0,0-.244.245,3.111,3.111,0,0,0-.513.772.739.739,0,0,0-.119.37,1.026,1.026,0,0,0,.481.993l.239.1a1,1,0,0,0,.53,0l.237-.1a1,1,0,0,0,.357-.357,2.312,2.312,0,0,1,.285-.481l-.16.2a2.324,2.324,0,0,1,.409-.407l-.2.16c.054-.042.112-.082.171-.119a1.044,1.044,0,0,0,.458-.6.75.75,0,0,0,.018-.4.739.739,0,0,0-.119-.37,1,1,0,0,0-.6-.458l-.264-.035a1,1,0,0,0-.5.136Z" transform="translate(-411.158 -262.604)" fill="#538c8c"/>
        </g>
        <g id="Group_41741" data-name="Group 41741" transform="translate(24.985 20.187)">
          <path id="Path_70009" data-name="Path 70009" d="M399.115,274.816a23.861,23.861,0,0,1-1.365,2.153c-.118.16-.237.329-.36.492l-.093.12c-.085.114.106-.133.016-.021l-.211.269q-.405.5-.838.987a1,1,0,1,0,1.41,1.41,24.9,24.9,0,0,0,3.163-4.4,1,1,0,0,0-1.721-1.006Z" transform="translate(-395.971 -274.322)" fill="#538c8c"/>
        </g>
        <path id="Path_70010" data-name="Path 70010" d="M416.3,360.749h-2l-.058.481s13.965.822,17.106,4.2c2.652,2.854.822,24.883.191,31.648a21.727,21.727,0,0,0,3.158-.67l4.185-35.654Z" transform="translate(-377.108 -283.117)" fill="#ef819c"/>
      </g>
      <g id="Group_41743" data-name="Group 41743" transform="translate(92.397 304.515)">
        <path id="Path_70011" data-name="Path 70011" d="M160.21,397.517h109.5l40.129,13.858H194.074Z" transform="translate(-142.243 -397.517)" fill="#263238"/>
        <path id="Path_70012" data-name="Path 70012" d="M160.21,401.7v-4.187l33.864,13.858H309.846v4.836h-115.7Z" transform="translate(-142.243 -397.517)" fill="#0c1419"/>
        <path id="Path_70013" data-name="Path 70013" d="M151.142,403.816s-25.636,8.156-15.664,12.089,49.6,2.418,49.6,2.418Z" transform="translate(-133.174 -399.629)" fill="#dbecf5"/>
      </g>
      <g id="Group_41745" data-name="Group 41745" transform="translate(56.273 299.361)">
        <ellipse id="Ellipse_447" data-name="Ellipse 447" cx="22.358" cy="5.521" rx="22.358" ry="5.521" transform="translate(0 25.906)" fill="#dbecf5"/>
        <path id="Path_70014" data-name="Path 70014" d="M104.379,392.332v28.436s2.884,5.2,13.712,6.063,14.867-5.052,14.867-5.052V392.332S121.845,395.645,104.379,392.332Z" transform="translate(-87.153 -390.622)" fill="#d52941"/>
        <path id="Path_70015" data-name="Path 70015" d="M97.784,416.671c-.378-.074-.772-.16-1.11-.247s-.641-.179-.961-.284q-.279-.091-.551-.194-.17-.062-.34-.131l-.054-.024a13.152,13.152,0,0,1-1.716-.928c-.143-.091-.284-.186-.421-.284l-.223-.16c-.22-.178-.436-.361-.641-.553s-.45-.441-.66-.675c-.1-.114-.2-.237-.3-.351l-.042-.043-.024-.035a13.852,13.852,0,0,1-.945-1.521c-.09-.175-.171-.352-.253-.53.074.144-.187-.481-.229-.6a12.426,12.426,0,0,1-.437-1.654c-.027-.138-.045-.279-.072-.417v-.024c-.016-.231-.046-.46-.059-.692a12.977,12.977,0,0,1,.014-1.762c.011-.146.027-.292.045-.437,0,.062.075-.471.1-.593a11.611,11.611,0,0,1,.394-1.453c.054-.16.389-.892.106-.308.085-.175.16-.353.25-.526.1-.2.215-.4.333-.588.077-.123.37-.481.36-.481.2-.2.4-.4.585-.609a.741.741,0,0,1,.074-.051,6.176,6.176,0,0,1,1.37-.67,4.629,4.629,0,0,1,2.16-.109,7.779,7.779,0,0,1,1.24.375c.062.027.16.074.205.093.187.1.373.187.556.29a11.148,11.148,0,0,1,.961.607l.187.138.111.087v-4.693a9.644,9.644,0,0,0-4.393-.969,8.43,8.43,0,0,0-7.321,4.818,14.366,14.366,0,0,0,2.16,15.465,15.766,15.766,0,0,0,9.554,4.738Z" transform="translate(-80.558 -391.738)" fill="#882130"/>
        <path id="Path_70016" data-name="Path 70016" d="M110.81,389.822c-7.145.216-6.441,1.642-6.441,1.642,17.465,3.32,28.58,0,28.58,0C134.628,389.822,117.3,389.633,110.81,389.822Z" transform="translate(-87.143 -389.763)"/>
        <path id="Path_70017" data-name="Path 70017" d="M108.471,393.007c-1.322-.186-2.684-.407-4.092-.675v28.436s2.884,5.2,13.712,6.063c.694.056,1.359.082,2,.085C111.264,417.367,108.861,396.958,108.471,393.007Z" transform="translate(-87.153 -390.622)" fill="#882130"/>
        <path id="Path_70018" data-name="Path 70018" d="M119.14,393.761c1.179.264,2.379.529,3.571.784,8.156,1.738,7.8,7.513,8.011,15.092.208,7.3-.939,19.992-19.953,14.706a24.212,24.212,0,0,0,9.465,2.49c10.827.865,14.867-5.052,14.867-5.052V392.332a54.7,54.7,0,0,1-15.962,1.429Z" transform="translate(-89.296 -390.622)" fill="#882130" opacity="0.53"/>
        <g id="Group_41744" data-name="Group 41744" transform="translate(41.957 4.951)">
          <path id="Path_70019" data-name="Path 70019" d="M141.594,398.173q.351,5.406.183,10.827c-.04,1.282,1.953,1.282,1.993,0q.168-5.416-.183-10.827C143.506,396.892,141.5,396.892,141.594,398.173Z" transform="translate(-141.591 -397.212)" fill="#d52941"/>
        </g>
      </g>
      <g id="Group_41773" data-name="Group 41773" transform="translate(58.041 86.262)">
        <g id="Group_41746" data-name="Group 41746" transform="translate(118.15 30.031)">
          <path id="Path_70020" data-name="Path 70020" d="M258.9,114.276v25.766a.5.5,0,0,0,1,0V114.276a.5.5,0,1,0-1,0Z" transform="translate(-258.9 -113.778)"/>
        </g>
        <path id="Path_70021" data-name="Path 70021" d="M166.807,68.577l-50.665,28.36,47.634,24.034L212.485,99.1Z" transform="translate(-92.865 -68.577)" fill="#0d3453"/>
        <path id="Path_70022" data-name="Path 70022" d="M140.271,132.325s-2.6,13.28-2.309,19.2,1.732,19.439-5.052,23.432-8.083,8.468-6.928,13.664c0,0-6.928,6.64-2.453,13.139s20.642,17.611,48.933,12.124,33.287-11.836,34.609-15.446a6.013,6.013,0,0,0-3.291-7.651s2.741-6.64-1.442-11.115-5.768-9.96-7.21-17.755a78.128,78.128,0,0,1-1.442-12.847s4.619-6.784,1.011-16.744-19.054-17.465-33.777-11.836S140.271,132.325,140.271,132.325Z" transform="translate(-94.838 -85.34)" fill="#411a24"/>
        <path id="Path_70023" data-name="Path 70023" d="M143.052,181.34a15.845,15.845,0,0,1-.2,8.436,19.183,19.183,0,0,1-1.613,3.97,23.529,23.529,0,0,1-2.448,3.525l-1.405,1.6c-.463.524-.944,1.035-1.367,1.591l-.659.816c-.212.277-.405.567-.609.851a20.213,20.213,0,0,0-1.122,1.762,16.085,16.085,0,0,0-1.581,3.833,8.012,8.012,0,0,0-.16,4.047l.046.16-.128.083a10.968,10.968,0,0,0-1.482,1.176,11.317,11.317,0,0,0-1.282,1.408,7.622,7.622,0,0,0-.926,1.66,5.869,5.869,0,0,0-.362,1.876,5.52,5.52,0,0,1,.232-1.923,7.818,7.818,0,0,1,.852-1.763,10.093,10.093,0,0,1,1.24-1.517,11.314,11.314,0,0,1,1.5-1.282l-.082.25a8.356,8.356,0,0,1,0-4.326,16.689,16.689,0,0,1,1.594-4.006c.37-.614.715-1.245,1.138-1.822.205-.293.4-.593.614-.88l.663-.841c.429-.574.933-1.08,1.408-1.612l1.405-1.569a20.73,20.73,0,0,0,4.111-7.21A17.034,17.034,0,0,0,143.052,181.34Z" transform="translate(-96.762 -106.542)" fill="#33131c"/>
        <path id="Path_70024" data-name="Path 70024" d="M152.474,175.8a32.638,32.638,0,0,1-5.347,11.836c-4.613,6.93-9.8,11.62-5.8,21.075s6.153,19.594,32.366,16.04,30.318-19.142,28.153-26.072-8.075-6.73-8.341-24.657S159.619,152.7,152.474,175.8Z" transform="translate(-100.832 -99.217)" fill="#33131c"/>
        <path id="Path_70025" data-name="Path 70025" d="M199.843,145.9s.865,25.55-22.662,29.014c-8.083,1.442-20.642-5.485-23.818-12.7,0,0-4.326,2.165-8.228-2.884s-3.176-12.124.721-12.124,5.2,5.2,5.2,5.2,1.009-7.362,2.6-9.527a19.977,19.977,0,0,0,17.546-9.96c6.7-10.827,4.967-13.858,4.967-13.858a15.465,15.465,0,0,1,8.228,1.732C190.172,124.405,198.976,131.622,199.843,145.9Z" transform="translate(-101.723 -85.504)" fill="#e37565"/>
        <path id="Path_70026" data-name="Path 70026" d="M170.124,114.085c14.012-5.358,28.671,1.186,33.167,10.415l-1.122-16.766s-6.933-8.949-25.7-8.228-26.993,9.815-26.993,9.815v16.6S155.4,119.71,170.124,114.085Z" transform="translate(-104.049 -78.937)" fill="#0d3453"/>
        <path id="Path_70035" data-name="Path 70035" d="M217.779,266.232c-3.176-17.032-5.246-28.581-52.567-57.017a31.746,31.746,0,0,1-12.169,16.167,28.19,28.19,0,0,1-10.8-16.167s-40.233,19.19-46.006,32.182-18.766,53.7-14.146,65.244,62.472,25.726,72.825,22.839l-3.9-2.631s-.5-18.332,14.509-18.907l17.611,9.381h38.685S220.955,283.256,217.779,266.232Z" transform="translate(-81.119 -116.102)" fill="#d52941"/>
        <path id="Path_70036" data-name="Path 70036" d="M175.664,259.874l29.632-39.1c-5.164-3.536-11.16-7.37-18.15-11.565a31.746,31.746,0,0,1-12.169,16.167,28.19,28.19,0,0,1-10.8-16.167s-8.172,3.9-17.665,9.365Z" transform="translate(-103.054 -115.938)" fill="#fff"/>
        <path id="Path_70037" data-name="Path 70037" d="M167.1,294.556l45.3-55.439c-3.089-2.714-6.749-5.608-11.094-8.742L167.1,275.216,132.391,228.27c-3.953,2.424-7.91,5.033-11.421,7.673Z" transform="translate(-94.485 -122.375)" fill="#882130"/>
        <g id="Group_41752" data-name="Group 41752" transform="translate(34.009 158.353)">
          <path id="Path_70038" data-name="Path 70038" d="M183.432,340.877a6.693,6.693,0,0,0-3.727-5.529,44.064,44.064,0,0,0-10.7-3.107c-5.185-1.168-10.309-2.437-15.364-4.086-4.512-1.471-8.973-3.115-13.377-4.863-2.3-.912-4.589-1.841-6.851-2.836l.37.641,1.442-12.991c.106-.961-1.391-.947-1.495,0L132.284,321.1a.719.719,0,0,0,.37.641c5.686,2.5,11.511,4.743,17.381,6.773a144.018,144.018,0,0,0,14.741,4.3,110.515,110.515,0,0,1,12.5,3.105c2.442.873,4.366,2.219,4.664,4.954.1.947,1.6.961,1.495,0Z" transform="translate(-132.284 -307.39)" fill="#882130"/>
        </g>
        <g id="Group_41753" data-name="Group 41753" transform="translate(27.655 171.393)">
          <path id="Path_70039" data-name="Path 70039" d="M129.832,326.889a14.692,14.692,0,0,0-2.235.361,8.588,8.588,0,0,0-3.666,1.676,3.5,3.5,0,0,0-1.171,1.905.766.766,0,0,0,.522.92.755.755,0,0,0,.92-.522c.027-.133.07-.258.111-.388s-.056.093.027-.054c.037-.066.071-.133.109-.2s.074-.109.109-.16c.067-.107-.072.074.042-.05s.2-.213.3-.312c.051-.046.1-.09.16-.135.128-.109-.046.024.062-.046s.25-.171.383-.252a7.2,7.2,0,0,1,.8-.41c-.135.059.038-.014.083-.034l.207-.079c.146-.054.295-.1.444-.152.277-.088.558-.16.841-.234.469-.115.944-.2,1.421-.276.144-.021.093-.046-.013,0a.533.533,0,0,1,.131-.016l.213-.024.2-.019a.766.766,0,0,0,.748-.748.755.755,0,0,0-.748-.748Z" transform="translate(-122.737 -326.889)" fill="#882130"/>
        </g>
        <path id="Path_70040" data-name="Path 70040" d="M160.21,215.753c.8,2.083,1.567,4.166,2.333,6.249l2.3,6.258q2.272,6.266,4.474,12.557l-.981-.173,5.344-6.755,5.38-6.73.511-.641.516.641,6.069,7.446,6.031,7.478-.989.183,2.224-6.409,2.254-6.409,2.3-6.387c.769-2.129,1.54-4.256,2.339-6.374q-.947,3.261-1.947,6.5l-1.987,6.491-2.032,6.476-2.062,6.465-.32.99-.671-.8-6.137-7.39-6.1-7.422h1.025l-5.416,6.7-5.448,6.669-.66.8-.32-.982c-1.376-4.224-2.75-8.45-4.091-12.687l-1.987-6.363C161.5,220.007,160.835,217.884,160.21,215.753Z" transform="translate(-107.647 -118.119)" fill="#dbecf5"/>
        <path id="Path_70041" data-name="Path 70041" d="M218.411,367.155l-17.649-9.38c-14.972.609-14.47,18.907-14.47,18.907s8.88,6.063,11.765,7.651,10.681,5.919,12.7,5.768,5.34-.577,5.63-2.453a3.573,3.573,0,0,0,4.041.865c2.743-.865,2.884-2.309,2.6-3.753a64.892,64.892,0,0,0-4.326-8.083s5.629,8.372,7.21,8.083,4.041-1.3,3.464-4.259S218.411,367.155,218.411,367.155Z" transform="translate(-116.394 -165.934)" fill="#e37565"/>
        <g id="Group_41754" data-name="Group 41754" transform="translate(93.874 214.294)">
          <path id="Path_70042" data-name="Path 70042" d="M228.842,398.629l-4.922-6.058-.707-.87a.5.5,0,0,0-.7,0,.51.51,0,0,0,0,.7l4.922,6.058.707.87a.5.5,0,0,0,.705,0,.509.509,0,0,0,0-.705Z" transform="translate(-222.367 -391.557)"/>
        </g>
        <g id="Group_41762" data-name="Group 41762" transform="translate(115.187 55.787)">
          <g id="Group_41755" data-name="Group 41755" transform="translate(0.808 0.274)">
            <path id="Path_70043" data-name="Path 70043" d="M257.84,153.188c-3.232,4.065-1.694,9.479-2.186,14.212-.045.425.618.421.663,0,.466-4.486-1.078-9.883,1.992-13.744.263-.33-.2-.8-.468-.468Z" transform="translate(-255.653 -153.074)"/>
          </g>
          <g id="Group_41756" data-name="Group 41756" transform="translate(2.225 0)">
            <path id="Path_70044" data-name="Path 70044" d="M258.795,152.9a51.841,51.841,0,0,0-.78,14.366c.018.425.679.428.663,0a51.213,51.213,0,0,1,.756-14.19c.1-.413-.538-.591-.641-.176Z" transform="translate(-257.827 -152.662)"/>
          </g>
          <g id="Group_41757" data-name="Group 41757" transform="translate(3.421 0.095)">
            <path id="Path_70045" data-name="Path 70045" d="M259.59,153.148q.054,6.872.111,13.743a.332.332,0,0,0,.662,0q-.055-6.872-.111-13.743a.332.332,0,1,0-.663,0Z" transform="translate(-259.588 -152.816)"/>
          </g>
          <g id="Group_41758" data-name="Group 41758" transform="translate(3.246 0.034)">
            <path id="Path_70046" data-name="Path 70046" d="M259.5,153.321c.926.428,1.083,1.663,1.282,2.551q.423,1.822.675,3.677a40.419,40.419,0,0,1,.3,7.3c-.021.426.641.425.663,0a41.019,41.019,0,0,0-.394-7.95,39.256,39.256,0,0,0-.78-3.916,3.044,3.044,0,0,0-1.42-2.232c-.385-.178-.721.394-.335.572Z" transform="translate(-259.327 -152.715)"/>
          </g>
          <g id="Group_41759" data-name="Group 41759" transform="translate(3.67 0.847)">
            <path id="Path_70047" data-name="Path 70047" d="M259.967,154.356c.232,1.109.468,2.219.7,3.33a15.723,15.723,0,0,1,.288,3.354q-.034,3.567-.069,7.133a.332.332,0,1,0,.663,0c.024-2.445.053-4.889.07-7.334a31.313,31.313,0,0,0-1.009-6.659C260.52,153.763,259.882,153.938,259.967,154.356Z" transform="translate(-259.959 -153.941)"/>
          </g>
          <g id="Group_41760" data-name="Group 41760" transform="translate(0 0.017)">
            <path id="Path_70048" data-name="Path 70048" d="M257.671,152.731a6.249,6.249,0,0,0-2.818,4.7,26.253,26.253,0,0,0-.32,6.773c.034.423.7.426.663,0a25.954,25.954,0,0,1,.224-6.214A5.97,5.97,0,0,1,258,153.3c.376-.2.042-.772-.335-.572Z" transform="translate(-254.444 -152.689)"/>
          </g>
          <g id="Group_41761" data-name="Group 41761" transform="translate(1.395 1.084)">
            <path id="Path_70049" data-name="Path 70049" d="M257.86,154.522a26.021,26.021,0,0,0-1.186,10.838c.043.42.707.425.663,0A25.548,25.548,0,0,1,258.5,154.7c.135-.405-.5-.58-.641-.176Z" transform="translate(-256.538 -154.293)"/>
          </g>
        </g>
        <g id="Group_41770" data-name="Group 41770" transform="translate(115.724 56.64)">
          <g id="Group_41763" data-name="Group 41763" transform="translate(2.851 0.274)">
            <path id="Path_70050" data-name="Path 70050" d="M260.084,154.472c3.232,4.065,1.694,9.479,2.186,14.212.043.423-.618.421-.663,0-.466-4.486,1.078-9.884-1.992-13.744-.263-.33.2-.8.468-.468Z" transform="translate(-259.536 -154.358)"/>
          </g>
          <g id="Group_41764" data-name="Group 41764" transform="translate(2.551 0)">
            <path id="Path_70051" data-name="Path 70051" d="M259.735,154.182a51.833,51.833,0,0,1,.78,14.366c-.018.425-.679.426-.663,0a51.2,51.2,0,0,0-.756-14.19c-.1-.413.538-.591.641-.176Z" transform="translate(-259.085 -153.946)"/>
          </g>
          <g id="Group_41765" data-name="Group 41765" transform="translate(2.195 0.095)">
            <path id="Path_70052" data-name="Path 70052" d="M259.324,154.432q-.055,6.872-.111,13.743a.332.332,0,0,1-.663,0q.055-6.872.111-13.743a.332.332,0,0,1,.663,0Z" transform="translate(-258.55 -154.1)"/>
          </g>
          <g id="Group_41766" data-name="Group 41766" transform="translate(0 0.042)">
            <path id="Path_70053" data-name="Path 70053" d="M258.21,154.6c-.926.428-1.082,1.663-1.282,2.551q-.423,1.822-.675,3.685a40.411,40.411,0,0,0-.3,7.3c.021.426-.641.425-.663,0a41.008,41.008,0,0,1,.394-7.95,39.234,39.234,0,0,1,.78-3.916,3.044,3.044,0,0,1,1.42-2.232c.385-.178.721.393.335.572Z" transform="translate(-255.241 -154.004)"/>
          </g>
          <g id="Group_41767" data-name="Group 41767" transform="translate(1.064 0.852)">
            <path id="Path_70054" data-name="Path 70054" d="M258.5,155.643c-.232,1.11-.468,2.219-.7,3.33a15.723,15.723,0,0,0-.288,3.354q.034,3.567.069,7.133a.332.332,0,0,1-.663,0c-.024-2.445-.053-4.89-.07-7.334a31.32,31.32,0,0,1,1.009-6.659C257.947,155.05,258.584,155.226,258.5,155.643Z" transform="translate(-256.849 -155.229)"/>
          </g>
          <g id="Group_41768" data-name="Group 41768" transform="translate(2.671 0.02)">
            <path id="Path_70055" data-name="Path 70055" d="M259.754,154.015a6.249,6.249,0,0,1,2.818,4.7,26.247,26.247,0,0,1,.32,6.773c-.034.421-.7.426-.663,0a25.958,25.958,0,0,0-.224-6.214,5.969,5.969,0,0,0-2.58-4.682c-.376-.2-.042-.772.335-.572Z" transform="translate(-259.261 -153.975)"/>
          </g>
          <g id="Group_41769" data-name="Group 41769" transform="translate(3.021 1.084)">
            <path id="Path_70056" data-name="Path 70056" d="M260.447,155.806a26.019,26.019,0,0,1,1.186,10.838c-.043.42-.707.425-.663,0a25.546,25.546,0,0,0-1.162-10.662c-.135-.405.5-.58.641-.176Z" transform="translate(-259.789 -155.577)"/>
          </g>
        </g>
        <path id="Path_70057" data-name="Path 70057" d="M187.426,201.4c-4.216.753-9.646-.774-14.329-3.427h0v7.47a28.191,28.191,0,0,0,10.8,16.167,31.746,31.746,0,0,0,12.169-16.167V198.7A27.4,27.4,0,0,1,187.426,201.4Z" transform="translate(-111.968 -112.13)" fill="#e37565"/>
        <path id="Path_70058" data-name="Path 70058" d="M196.062,200.82V198.7a27.4,27.4,0,0,1-8.636,2.7c-4.216.753-9.646-.774-14.329-3.427v7.47a24.9,24.9,0,0,0,1.333,4.1A54.762,54.762,0,0,0,196.062,200.82Z" transform="translate(-111.968 -112.121)"/>
        <path id="Path_70059" data-name="Path 70059" d="M165.919,214.246a26.357,26.357,0,0,1-1.739-5.036s-8.172,3.9-17.665,9.365l6.552,9.282A55.376,55.376,0,0,1,165.919,214.246Z" transform="translate(-103.054 -115.909)" fill="#dbecf5" opacity="0.63" style="mix-blend-mode: multiply;isolation: isolate"/>
        <path id="Path_70060" data-name="Path 70060" d="M163.374,102.722c-9.553,2.9-13.893,7.691-13.893,7.691v16.6s4.616-4.836,15.824-9.843C161.631,110.7,162.046,105.9,163.374,102.722Z" transform="translate(-104.048 -80.029)" fill="#0d3453"/>
        <g id="Group_41771" data-name="Group 41771" transform="translate(0 129.939)">
          <path id="Path_70061" data-name="Path 70061" d="M151.207,342.3c-32.393-5.4-55.1-19.786-60.452-24.571-5.485-4.908-2.6-14.146,0-32.481.989-6.979,2.312-14.26,3.571-20.612-6.271,16.157-16.393,50.2-12.232,60.6,4.619,11.548,62.472,25.726,72.825,22.839l-3.9-2.631a24.491,24.491,0,0,1,.189-3.144Z" transform="translate(-81.12 -264.634)" fill="#882130"/>
          <path id="Path_70062" data-name="Path 70062" d="M259.619,295.571l4.054,50.72h5.448Z" transform="translate(-140.99 -275.011)" fill="#2a1d30"/>
        </g>
        <g id="Group_41772" data-name="Group 41772" transform="translate(117.173 149.959)">
          <path id="Path_70063" data-name="Path 70063" d="M262.941,346.018c-.173-4.264-.4-8.526-.641-12.786-.481-8.463-1.038-16.928-1.857-25.365-.407-4.2-.865-8.4-1.559-12.568-.16-.947-1.6-.545-1.442.4,1.312,7.872,1.9,15.878,2.483,23.832q.8,11,1.315,22.025c.071,1.489.141,2.977.2,4.466.038.961,1.535.961,1.495,0Z" transform="translate(-257.429 -294.758)" fill="#882130"/>
        </g>
        <path id="Path_70064" data-name="Path 70064" d="M186.48,381.493a24.493,24.493,0,0,0-.189,3.144s8.88,6.063,11.765,7.651,10.681,5.919,12.7,5.768a20.181,20.181,0,0,0,2.166-.26C204.187,393.316,186.485,381.5,186.48,381.493Z" transform="translate(-116.393 -173.89)" fill="#d15f54"/>
        <path id="Path_70065" data-name="Path 70065" d="M137.868,235.675l-5.477-7.409c-3.953,2.424-7.91,5.033-11.421,7.673l3.637,4.623a68.865,68.865,0,0,1,13.26-4.887Z" transform="translate(-94.485 -122.316)" fill="#882130"/>
        <path id="Path_70066" data-name="Path 70066" d="M178.779,119.369a28.058,28.058,0,0,1-2.447,7.567,32.116,32.116,0,0,1-13.478,14.356,16.7,16.7,0,0,1-1.787.883q-.9.418-1.814.816a43.157,43.157,0,0,0,6.656-4.254l.771-.612a7.434,7.434,0,0,0,.753-.631l1.45-1.33c.481-.439.9-.95,1.359-1.421l.668-.721c.212-.25.41-.511.617-.766.405-.514.852-1,1.224-1.537l1.136-1.6,1.03-1.678c.332-.567.63-1.152.961-1.724s.582-1.178.875-1.763.524-1.208.774-1.817a30.838,30.838,0,0,0,1.251-3.767Z" transform="translate(-107.327 -85.673)" fill="#33131c"/>
        <path id="Path_70067" data-name="Path 70067" d="M168.883,123.41a39.137,39.137,0,0,0-2.854,3.18c-.45.551-.884,1.122-1.319,1.676s-.835,1.15-1.234,1.737a45.205,45.205,0,0,0-4.166,7.409c-.641,1.269-1.088,2.615-1.6,3.935-.4,1.357-.868,2.7-1.158,4.091a47.829,47.829,0,0,0-1.21,8.438q0-1.07,0-2.144a17.255,17.255,0,0,1,.09-2.145l.234-2.139c.08-.713.256-1.412.381-2.12a36.407,36.407,0,0,1,1.085-4.166c.234-.679.5-1.349.74-2.025a21.514,21.514,0,0,1,.828-1.99,41.691,41.691,0,0,1,4.349-7.428A35.606,35.606,0,0,1,168.883,123.41Z" transform="translate(-106.017 -87.035)" fill="#33131c"/>
        <path id="Path_70068" data-name="Path 70068" d="M155.07,133.9c-.29.775-.574,1.548-.82,2.333s-.506,1.564-.729,2.354c-.445,1.58-.843,3.171-1.152,4.778a48.742,48.742,0,0,0-.74,4.855l-.122,1.224-.064,1.231c-.082.822-.035,1.642-.088,2.472a26.3,26.3,0,0,1-.236-4.967c0-.833.127-1.657.194-2.487.125-.822.232-1.647.405-2.461a33.835,33.835,0,0,1,1.319-4.807A27.162,27.162,0,0,1,155.07,133.9Z" transform="translate(-104.585 -90.561)" fill="#33131c"/>
        <path id="Path_70069" data-name="Path 70069" d="M202.657,119.031a30.6,30.6,0,0,1,8.4,4.6,28.35,28.35,0,0,1,6.558,7.039,26.437,26.437,0,0,1,2.171,4.326,24.793,24.793,0,0,1,1.25,4.667,27.11,27.11,0,0,1-.3,9.566c.063-.8.168-1.586.213-2.381a20.368,20.368,0,0,0,.042-2.381,26.514,26.514,0,0,0-.455-4.717,28.855,28.855,0,0,0-1.309-4.534,26.019,26.019,0,0,0-2.168-4.187,29.236,29.236,0,0,0-6.313-7,34.974,34.974,0,0,0-3.869-2.756,32.545,32.545,0,0,0-4.216-2.242Z" transform="translate(-121.883 -85.499)" fill="#33131c"/>
        <path id="Path_70070" data-name="Path 70070" d="M226.561,173.018a23.013,23.013,0,0,0-.556,4.925,26.419,26.419,0,0,0,.359,4.924,28.263,28.263,0,0,0,3.171,9.279c1.559,2.907,3.35,5.728,4.781,8.75a19.44,19.44,0,0,1,.934,2.339,8.547,8.547,0,0,1,.457,2.49,9.132,9.132,0,0,1-.3,2.5,24.183,24.183,0,0,1-.723,2.389,15.06,15.06,0,0,0,.7-4.871,12.269,12.269,0,0,0-1.525-4.621c-1.509-2.94-3.28-5.739-4.906-8.652a27.58,27.58,0,0,1-3.089-9.521A23.554,23.554,0,0,1,226.561,173.018Z" transform="translate(-129.592 -103.739)" fill="#33131c"/>
      </g>
      <g id="Group_41774" data-name="Group 41774" transform="translate(139.649 245.334)">
        <path id="Path_70071" data-name="Path 70071" d="M253.891,308.467l-42.726,73.039H326.93l36.953-73.039Z" transform="translate(-206.804 -308.467)" fill="#263238"/>
        <path id="Path_70072" data-name="Path 70072" d="M211.237,423.2l-.072-4.836H326.931V423.2Z" transform="translate(-206.804 -345.329)" fill="#0c1419"/>
        <path id="Path_70073" data-name="Path 70073" d="M208.963,381.506l-4.361-1.785,42.468-71.254h4.619Z" transform="translate(-204.602 -308.467)" fill="#dbecf5"/>
        <path id="Path_70074" data-name="Path 70074" d="M369.643,308.468c-.87,6.835-4.105,19.9-16.093,34.745-5.978,7.4-19.355,25.2-88.713,38.294h80.1l36.953-73.039Z" transform="translate(-224.804 -308.468)" fill="#263238"/>
      </g>
      <g id="Group_41775" data-name="Group 41775" transform="translate(38.372 302.285)">
        <path id="Path_70075" data-name="Path 70075" d="M52.445,396.154h15.59a1,1,0,0,0,0-1.993H52.445a1,1,0,0,0,0,1.993Z" transform="translate(-51.503 -394.161)"/>
      </g>
      <g id="Group_41776" data-name="Group 41776" transform="translate(315.424 300.074)">
        <path id="Path_70076" data-name="Path 70076" d="M470.007,392.825h15.008a1,1,0,0,0,0-1.993H470.007a1,1,0,0,0,0,1.993Z" transform="translate(-469.065 -390.832)"/>
      </g>
      <g id="Group_41782" data-name="Group 41782" transform="translate(12.315 85.626)">
        <g id="Group_41777" data-name="Group 41777" transform="translate(240.245 77.152)">
          <path id="Path_70077" data-name="Path 70077" d="M373.869,186.2c2.841,8.652,5.9,17.532,11.842,24.6a32.379,32.379,0,0,0,5.723,5.3,2.009,2.009,0,0,0,2.724-.715,2.04,2.04,0,0,0-.716-2.724c-6.755-4.94-10.525-12.877-13.34-20.544-.848-2.307-1.626-4.637-2.392-6.971a2.038,2.038,0,0,0-2.453-1.392,2.014,2.014,0,0,0-1.392,2.453Z" transform="translate(-373.797 -183.695)" fill="#e0e0e0"/>
        </g>
        <g id="Group_41778" data-name="Group 41778" transform="translate(204.914 17.566)">
          <path id="Path_70078" data-name="Path 70078" d="M321.629,97.754a25.156,25.156,0,0,1,7.085,4.647q.777.727,1.5,1.516.376.412.735.84.16.194.32.391s.378.481.189.236a26.493,26.493,0,0,1,2.389,3.762,1.995,1.995,0,1,0,3.443-2.012,28.866,28.866,0,0,0-13.647-12.818,2.056,2.056,0,0,0-2.724.715,2.008,2.008,0,0,0,.715,2.724Z" transform="translate(-320.651 -94.064)" fill="#e0e0e0"/>
        </g>
        <g id="Group_41779" data-name="Group 41779" transform="translate(32.956 47.369)">
          <path id="Path_70079" data-name="Path 70079" d="M105.155,139.5c-8.172,8.521-19.573,12.6-30.853,15.093-3.623.8-7.274,1.463-10.929,2.1a2.011,2.011,0,0,0-1.392,2.453,2.04,2.04,0,0,0,2.453,1.392c12.4-2.16,25.175-4.754,35.835-11.831a45.62,45.62,0,0,0,7.707-6.387c1.777-1.852-1.038-4.675-2.82-2.82Z" transform="translate(-61.911 -138.892)" fill="#e0e0e0"/>
        </g>
        <g id="Group_41780" data-name="Group 41780" transform="translate(0 98.509)">
          <path id="Path_70080" data-name="Path 70080" d="M15.611,217.277a45.786,45.786,0,0,0-3.3,15.646,1.994,1.994,0,1,0,3.988,0,42.621,42.621,0,0,1,3.155-14.581,2.006,2.006,0,0,0-1.392-2.453,2.043,2.043,0,0,0-2.453,1.392Z" transform="translate(-12.315 -215.827)" fill="#e0e0e0"/>
        </g>
        <g id="Group_41781" data-name="Group 41781" transform="translate(156.91 0)">
          <path id="Path_70081" data-name="Path 70081" d="M250.938,72.371A55.523,55.523,0,0,1,277.916,74.5a1.995,1.995,0,1,0,1.061-3.846,59.765,59.765,0,0,0-29.1-2.129,2.011,2.011,0,0,0-1.392,2.453,2.04,2.04,0,0,0,2.453,1.392Z" transform="translate(-248.418 -67.627)" fill="#e0e0e0"/>
        </g>
      </g>
      <g id="Group_41799" data-name="Group 41799" transform="translate(228.902 85.634)">
        <rect id="Rectangle_13501" data-name="Rectangle 13501" width="95.295" height="67.806" rx="4" fill="#e0e0e0"/>
        <rect id="Rectangle_13502" data-name="Rectangle 13502" width="89.746" height="63.858" rx="10.612" transform="translate(2.775 1.974)" fill="#f5f5f5"/>
        <path id="Path_70082" data-name="Path 70082" d="M391.632,120.029a7.04,7.04,0,0,0-5.946-3.27h-75.64a7.039,7.039,0,0,0-5.947,3.271Z" transform="translate(-300.218 -114.787)" fill="#e0e0e0"/>
        <circle id="Ellipse_449" data-name="Ellipse 449" cx="0.724" cy="0.724" r="0.724" transform="translate(8.282 2.942)" fill="#fff"/>
        <circle id="Ellipse_450" data-name="Ellipse 450" cx="0.724" cy="0.724" r="0.724" transform="translate(10.992 2.942)" fill="#fff"/>
        <path id="Path_70083" data-name="Path 70083" d="M320.325,118.939a.724.724,0,1,1-.726-.724.724.724,0,0,1,.726.724Z" transform="translate(-305.174 -115.273)" fill="#fff"/>
        <rect id="Rectangle_13503" data-name="Rectangle 13503" width="38.201" height="38.201" rx="3.293" transform="translate(8.039 14.706)" fill="#fff"/>
        <g id="Group_41790" data-name="Group 41790" transform="translate(13.667 18.564)">
          <path id="Path_70084" data-name="Path 70084" d="M344.745,185.291c-1.083-5.686-2.4-11.831-3.259-12.849-1.638-1.963-5.824-3.112-5.824-3.112l-3.525,7.122-3.482-7.22c-6.8,1.972-6.521,2.642-7.638,7.22-.5,2.044-1.378,5.566-2.2,8.838Z" transform="translate(-318.819 -150.948)" fill="#d52941"/>
          <g id="Group_41783" data-name="Group 41783" transform="translate(5.928 3.51)">
            <path id="Path_70085" data-name="Path 70085" d="M327.744,147.135v4.634a.129.129,0,1,0,.258,0v-4.634a.129.129,0,1,0-.258,0Z" transform="translate(-327.744 -147.005)"/>
          </g>
          <path id="Path_70086" data-name="Path 70086" d="M327.175,156.666s-.139-2.442.5-2.5.684,2.5.684,2.5h-.405l-.1-.788-.1.788Z" transform="translate(-321.621 -145.895)"/>
          <path id="Path_70087" data-name="Path 70087" d="M327.836,145.463l7.093,1.48a.16.16,0,0,0,.069,0l7.146-1.482a.17.17,0,0,0,.04-.32l-7.119-3.4a.16.16,0,0,0-.147,0l-7.121,3.4a.17.17,0,0,0,.039.32Z" transform="translate(-321.802 -141.72)" fill="#1c1421"/>
          <path id="Path_70088" data-name="Path 70088" d="M340.118,150.644a5.837,5.837,0,0,0-3.881.671s-.753-.977-4.02-.5a4.84,4.84,0,0,0-.418,4.55c.949,2.931,7.119,1.423,7.119,1.423a3.073,3.073,0,0,0,2.065-2.373,3.583,3.583,0,0,0-.865-3.769Z" transform="translate(-323.076 -144.689)" fill="#2d231a"/>
          <path id="Path_70089" data-name="Path 70089" d="M332.493,149l-.16-2.652a8.269,8.269,0,0,1,8.375,0l-.308,2.484a5.835,5.835,0,0,0-3.879.671S335.759,148.521,332.493,149Z" transform="translate(-323.351 -142.873)" fill="#38273f"/>
          <path id="Path_70090" data-name="Path 70090" d="M338.7,150.615a4.066,4.066,0,0,0-2.056.715,2.181,2.181,0,0,0-1.365-.561,5.518,5.518,0,0,0-2.564,3.575,36.039,36.039,0,0,0,.949,4.27c.481,1.368,1.4,1.843,3.155,1.871s2.791-.224,3.461-2.456a13.354,13.354,0,0,0,.67-3.4,9.482,9.482,0,0,0-2.25-4.009Z" transform="translate(-323.477 -144.704)" fill="#e37565"/>
          <path id="Path_70091" data-name="Path 70091" d="M332.342,157.115s-.532-.54-.952.242.425,2.951,1.442,2.145h0C332.629,158.657,332.451,157.721,332.342,157.115Z" transform="translate(-323.002 -146.822)" fill="#e37565"/>
          <path id="Path_70092" data-name="Path 70092" d="M345.569,157.359c-.255-.481-.55-.461-.742-.378a14.353,14.353,0,0,1-.506,2.642C345.239,160.035,345.954,158.087,345.569,157.359Z" transform="translate(-327.372 -146.821)" fill="#e37565"/>
          <path id="Path_70093" data-name="Path 70093" d="M338.032,165.337a5.073,5.073,0,0,1-1.681-.258h0v1.956s.061,1.948,1.516,2.149c1.814.252,1.814-2.234,1.814-2.234v-1.782a5.316,5.316,0,0,1-1.649.168Z" transform="translate(-324.701 -149.554)" fill="#e37565"/>
          <path id="Path_70094" data-name="Path 70094" d="M339.677,165.175a5.318,5.318,0,0,1-1.647.16,5.073,5.073,0,0,1-1.681-.258h0v1.96a4.071,4.071,0,0,0,3.328-1.862Z" transform="translate(-324.702 -149.555)" fill="#2d2d2d"/>
          <path id="Path_70099" data-name="Path 70099" d="M338.76,168.132h-.008c-.043.572-.3,2.254-1.806,2.046-1.455-.2-1.516-2.149-1.516-2.149l-1.817.8,3.482,7.22,3.525-7.122Z" transform="translate(-323.786 -150.545)" fill="#dbecf5" opacity="0.63" style="mix-blend-mode: multiply;isolation: isolate"/>
          <path id="Path_70100" data-name="Path 70100" d="M335.947,181.34l5.792-11.23a20.314,20.314,0,0,0-2.2-.779l-3.525,7.122-3.482-7.22c-.809.234-1.519.452-2.142.659Z" transform="translate(-322.703 -150.948)" fill="#882130"/>
          <g id="Group_41786" data-name="Group 41786" transform="translate(8.555 10.589)">
            <path id="Path_70101" data-name="Path 70101" d="M331.956,158.322a.71.71,0,0,1,.186-.394.387.387,0,0,1,.063-.032c-.01,0-.034-.008-.032,0s.019.016-.01,0l.014.014h0l.019.035c.016.03,0-.008.008.021s.014.038.021.059a4.951,4.951,0,0,1,.16,1.122c.008.109.016.218.019.32,0,.16.264.16.258,0-.014-.33-.043-.66-.088-.987-.034-.248-.106-1.035-.538-.788a.849.849,0,0,0-.333.569c-.034.16.215.231.248.067Z" transform="translate(-331.7 -157.645)" fill="#2d2d2d"/>
          </g>
          <g id="Group_41787" data-name="Group 41787" transform="translate(17.192 10.708)">
            <path id="Path_70102" data-name="Path 70102" d="M345.723,158.208a.51.51,0,0,0-.223-.336.357.357,0,0,0-.33,0,.39.39,0,0,0-.143.141,1.617,1.617,0,0,0-.18.468c-.045.175-.08.351-.109.529-.018.106-.034.213-.047.32a.13.13,0,0,0,.128.128.133.133,0,0,0,.13-.128v-.054h0v-.035a.189.189,0,0,1,.013-.083c.022-.151.05-.3.083-.449a2.924,2.924,0,0,1,.128-.442l.016-.035.019-.038c0-.013.014-.026.022-.038s.029-.04.018-.027.013-.013.016-.018-.01,0,0,0h0a.259.259,0,0,1,.051-.01.054.054,0,0,1,.032,0s.031.021.023.014l.016.016.008.008a.415.415,0,0,1,.029.046l.01.019h0l.013.038a.058.058,0,0,0,.01.038.13.13,0,0,0,.16.09.131.131,0,0,0,.09-.16Z" transform="translate(-344.693 -157.831)" fill="#2d2d2d"/>
          </g>
          <path id="Path_70103" data-name="Path 70103" d="M334.364,145.669a8.273,8.273,0,0,0-2.033.846l.16,2.652a9.677,9.677,0,0,1,2.391-.093,3.071,3.071,0,0,1-.517-3.4Z" transform="translate(-323.352 -143.044)" fill="#2f2035"/>
        </g>
        <rect id="Rectangle_13504" data-name="Rectangle 13504" width="38.201" height="38.201" rx="3.293" transform="translate(49.057 14.706)" fill="#fff"/>
        <g id="Group_41798" data-name="Group 41798" transform="translate(54.681 18.565)">
          <path id="Path_70106" data-name="Path 70106" d="M401.445,149.606a6.73,6.73,0,0,1,1.183,3.716c.16,2.506.077,6.512.077,6.512s-4.156,2.544-10.613,0c0,0-.41-6.561,1.455-10.059S400.91,147.228,401.445,149.606Z" transform="translate(-384.399 -143.651)" fill="#2d231a"/>
          <path id="Path_70107" data-name="Path 70107" d="M406.461,185.291c-1.083-5.686-2.4-11.831-3.259-12.849-1.637-1.963-5.824-3.112-5.824-3.112l-3.525,7.122-3.482-7.22c-6.8,1.972-6.521,2.642-7.638,7.22-.5,2.044-1.378,5.566-2.2,8.838Z" transform="translate(-380.535 -150.949)" fill="#d52941"/>
          <g id="Group_41791" data-name="Group 41791" transform="translate(5.933 3.509)">
            <path id="Path_70108" data-name="Path 70108" d="M389.463,147.135v4.634a.129.129,0,1,0,.258,0v-4.634a.129.129,0,1,0-.258,0Z" transform="translate(-389.463 -147.005)"/>
          </g>
          <path id="Path_70109" data-name="Path 70109" d="M388.895,156.666s-.141-2.442.5-2.5.684,2.5.684,2.5h-.405l-.1-.788-.1.788Z" transform="translate(-383.335 -145.897)"/>
          <path id="Path_70110" data-name="Path 70110" d="M389.551,145.463l7.093,1.48a.16.16,0,0,0,.069,0l7.148-1.482a.171.171,0,0,0,.038-.32l-7.119-3.4a.17.17,0,0,0-.147,0l-7.121,3.4a.17.17,0,0,0,.039.32Z" transform="translate(-383.519 -141.72)" fill="#1c1421"/>
          <path id="Path_70111" data-name="Path 70111" d="M400.414,150.615a4.07,4.07,0,0,0-2.056.715,2.181,2.181,0,0,0-1.365-.561,5.514,5.514,0,0,0-2.564,3.575,36.038,36.038,0,0,0,.949,4.27c.481,1.368,1.4,1.843,3.155,1.871s2.791-.224,3.461-2.456a13.354,13.354,0,0,0,.67-3.4A9.476,9.476,0,0,0,400.414,150.615Z" transform="translate(-385.193 -144.705)" fill="#e37565"/>
          <path id="Path_70112" data-name="Path 70112" d="M394.061,157.115s-.532-.54-.952.242.426,2.951,1.442,2.145h0C394.348,158.657,394.17,157.721,394.061,157.115Z" transform="translate(-384.717 -146.823)" fill="#e37565"/>
          <path id="Path_70113" data-name="Path 70113" d="M407.285,157.359c-.253-.481-.548-.461-.742-.378a14.437,14.437,0,0,1-.508,2.642C406.961,160.035,407.676,158.087,407.285,157.359Z" transform="translate(-389.089 -146.822)" fill="#e37565"/>
          <path id="Path_70114" data-name="Path 70114" d="M399.75,165.337a5.074,5.074,0,0,1-1.681-.258h0v1.956s.061,1.948,1.516,2.149c1.814.252,1.814-2.234,1.814-2.234v-1.782A5.312,5.312,0,0,1,399.75,165.337Z" transform="translate(-386.416 -149.555)" fill="#e37565"/>
          <path id="Path_70115" data-name="Path 70115" d="M401.4,165.175a5.314,5.314,0,0,1-1.647.16,5.071,5.071,0,0,1-1.681-.258h0v1.96A4.072,4.072,0,0,0,401.4,165.175Z" transform="translate(-386.416 -149.557)" fill="#2d2d2d"/>
          <g id="Group_41792" data-name="Group 41792" transform="translate(9.899 8.652)">
            <path id="Path_70118" data-name="Path 70118" d="M395.671,155.692a.77.77,0,0,1,.043-.08c.016-.026.035-.058.054-.085l.037-.051.018-.024c-.016.022,0,0,.011-.014a1.463,1.463,0,0,1,.223-.223,1.122,1.122,0,0,1,.309-.168,1.1,1.1,0,0,1,.492-.045.128.128,0,0,0,.128-.128.131.131,0,0,0-.128-.128,1.405,1.405,0,0,0-1.347.705.857.857,0,0,0-.063.112.133.133,0,0,0,.046.176.13.13,0,0,0,.176-.046Z" transform="translate(-395.432 -154.739)" fill="#2d2d2d"/>
          </g>
          <path id="Path_70120" data-name="Path 70120" d="M400.48,168.132h-.008c-.043.572-.3,2.254-1.806,2.046-1.455-.2-1.516-2.149-1.516-2.149l-1.817.8,3.482,7.22,3.525-7.122Z" transform="translate(-385.499 -150.546)" fill="#dbecf5" opacity="0.63" style="mix-blend-mode: multiply;isolation: isolate"/>
          <path id="Path_70121" data-name="Path 70121" d="M397.666,181.34l5.792-11.23a20.316,20.316,0,0,0-2.2-.779l-3.525,7.122-3.482-7.22c-.811.234-1.519.452-2.142.659Z" transform="translate(-384.418 -150.949)" fill="#882130"/>
          <g id="Group_41794" data-name="Group 41794" transform="translate(8.559 10.588)">
            <path id="Path_70122" data-name="Path 70122" d="M393.675,158.322a.71.71,0,0,1,.186-.394.363.363,0,0,1,.064-.032c-.01,0-.034-.008-.032,0s.019.016-.01,0l.014.014h0l.019.035c.016.03,0-.008.008.021s.014.038.021.059a4.966,4.966,0,0,1,.16,1.122c0,.109.016.218.019.32,0,.16.264.16.256,0-.014-.33-.043-.66-.088-.987-.034-.248-.106-1.035-.538-.788a.849.849,0,0,0-.333.569c-.034.16.215.231.248.067Z" transform="translate(-393.419 -157.645)" fill="#2d2d2d"/>
          </g>
          <g id="Group_41795" data-name="Group 41795" transform="translate(17.197 10.707)">
            <path id="Path_70123" data-name="Path 70123" d="M407.442,158.208a.506.506,0,0,0-.223-.337.357.357,0,0,0-.33,0,.4.4,0,0,0-.143.141,1.6,1.6,0,0,0-.18.468c-.046.175-.08.351-.109.529-.018.106-.034.213-.046.32a.13.13,0,0,0,.128.128.131.131,0,0,0,.128-.128c0-.018,0-.037,0-.054h0v-.035a.189.189,0,0,1,.013-.083c.022-.151.05-.3.083-.449a2.91,2.91,0,0,1,.128-.442l.016-.035.019-.038.022-.038s.029-.04.018-.027l.016-.018c.018-.021-.01,0,0,0h0a.253.253,0,0,1,.051-.01.051.051,0,0,1,.03,0l.022.014.016.016c.018.016,0,0,.008.008a.454.454,0,0,1,.029.046l.01.019h0l.013.038q.006.019.01.038a.13.13,0,0,0,.16.09.131.131,0,0,0,.09-.16Z" transform="translate(-406.412 -157.831)" fill="#2d2d2d"/>
          </g>
          <path id="Path_70127" data-name="Path 70127" d="M394.5,154.222a14.157,14.157,0,0,0,6.821-4.413,3.193,3.193,0,0,0-4.158-1.122A4.514,4.514,0,0,0,394.5,154.222Z" transform="translate(-385.158 -143.932)" fill="#2d231a"/>
          <path id="Path_70128" data-name="Path 70128" d="M394.212,149l-.16-2.652a8.269,8.269,0,0,1,8.373,0l-.308,2.484a5.835,5.835,0,0,0-3.879.671S397.479,148.521,394.212,149Z" transform="translate(-385.066 -142.873)" fill="#38273f"/>
          <path id="Path_70129" data-name="Path 70129" d="M396.08,145.669a8.278,8.278,0,0,0-2.032.846l.16,2.652a9.671,9.671,0,0,1,2.391-.093,3.073,3.073,0,0,1-.519-3.4Z" transform="translate(-385.069 -143.045)" fill="#2f2035"/>
        </g>
      </g>
      <g id="Group_41811" data-name="Group 41811" transform="translate(51.463 191.334)">
        <g id="Group_41800" data-name="Group 41800" transform="translate(12.108 9.56)">
          <path id="Path_70130" data-name="Path 70130" d="M89.59,242.118a12.155,12.155,0,0,0,1.336,7.709,1,1,0,1,0,1.722-1.006,10.007,10.007,0,0,1-1.082-3.07,10.415,10.415,0,0,1-.053-3.1,1.03,1.03,0,0,0-.7-1.227,1,1,0,0,0-1.226.7Z" transform="translate(-89.443 -241.389)" fill="#d52941"/>
        </g>
        <g id="Group_41801" data-name="Group 41801" transform="translate(137.958 0)">
          <path id="Path_70131" data-name="Path 70131" d="M278.954,227.742a8.027,8.027,0,0,0,2.541,7.507,1.022,1.022,0,0,0,1.41,0,1.006,1.006,0,0,0,0-1.41,6.83,6.83,0,0,1-.6-.578c-.1-.109-.194-.22-.285-.335.066.083.008.011-.022-.032s-.095-.133-.139-.2a6.906,6.906,0,0,1-.423-.716c-.03-.058-.059-.117-.087-.175,0,0-.109-.237-.07-.149s-.037-.091-.043-.107c-.03-.077-.058-.16-.085-.231a7.109,7.109,0,0,1-.229-.8q-.048-.216-.082-.433c-.011-.07-.016-.135,0-.026,0-.066-.014-.13-.019-.2a6.847,6.847,0,0,1-.019-.88c0-.13.018-.26.029-.389.016-.184-.01.035.008-.075.013-.08.027-.16.043-.242a1,1,0,1,0-1.923-.53Z" transform="translate(-278.81 -227.011)" fill="#d52941"/>
        </g>
        <g id="Group_41802" data-name="Group 41802" transform="translate(162.83 16.61)">
          <path id="Path_70132" data-name="Path 70132" d="M317.392,253.7a14.166,14.166,0,0,1,1.561,1.442,3.365,3.365,0,0,1,.508.708c.035.062.071.125.1.189-.008-.016.133.3.077.16s.046.146.043.136c.027.087.051.176.071.264.014.059.024.12.035.179-.037-.2,0,0,0,.053a3.139,3.139,0,0,1,0,.41.681.681,0,0,1-.016.179c.029-.231-.019.058-.027.088-.014.058-.03.115-.048.171s-.122.272-.027.088c-.032.063-.245.389-.123.237a1.915,1.915,0,0,1-.245.25c.133-.114,0-.011-.035.016s-.208.078,0,.011c-.048.016-.095.032-.144.045-.125.032-.192.011-.034.013h-.229c-.069,0-.173-.038.037.011a2.334,2.334,0,0,0-.333-.086c-.122,0,.179.107,0,0-.043-.026-.088-.046-.131-.074-.011,0-.2-.151-.08-.051s-.066-.083-.085-.093c-.091-.05.091.179,0,0-.019-.04-.045-.082-.067-.123.111.2.029.083.018,0-.019-.138-.024.245,0,.016,0-.051.022-.171-.016.024a1.5,1.5,0,0,1,.056-.215l.014-.042c-.043.1-.037.106.014,0l.048-.074q-.1.127.011,0c.043-.04.085-.085.128-.125.2-.194-.086.051.053-.042a3.962,3.962,0,0,1,.367-.211c.261-.139-.1.03.067-.032.074-.029.147-.054.223-.078a4.792,4.792,0,0,1,.481-.123,4.006,4.006,0,0,1,1.711.01c.1.027.2.061.3.093.171.054-.019-.027.152.064a3.394,3.394,0,0,1,.442.268c-.144-.107.011.019.043.05.067.063.13.13.191.2.112.125-.114-.187.042.053.051.078.1.16.144.236.03.055.058.109.083.16-.087-.176.019.059.034.1.027.086.045.175.069.263.054.2.014-.133.011.09v.178c0,.059-.054.28,0,.086-.019.071-.035.144-.054.215-.013.043-.027.085-.043.127q.062-.151-.014,0a1.019,1.019,0,0,0,.357,1.364,1.008,1.008,0,0,0,1.365-.357,3.588,3.588,0,0,0-1.668-4.76,5.528,5.528,0,0,0-5.632.517,2.445,2.445,0,0,0-.905,2.506,2.609,2.609,0,0,0,1.763,1.7,2.693,2.693,0,0,0,2.373-.32,3.365,3.365,0,0,0,1.325-2.455c.226-2.206-1.42-3.836-2.974-5.127a1.024,1.024,0,0,0-1.41,0,1,1,0,0,0,0,1.41Z" transform="translate(-316.232 -252)" fill="#d52941"/>
        </g>
        <g id="Group_41803" data-name="Group 41803" transform="translate(36.789 47.374)">
          <path id="Path_70133" data-name="Path 70133" d="M130.051,298.334a2.732,2.732,0,0,0-2.809,1.149,3.541,3.541,0,0,0-.537,2.972,7.926,7.926,0,0,0,1.375,2.761c.675.924,1.968,1.67,2.956.7a1,1,0,0,0-1.41-1.41.524.524,0,0,1,.344-.12l.13.024c-.085-.026-.091-.024-.019,0s.066.032.016,0a1.049,1.049,0,0,1-.1-.058c-.16-.075.04.056-.032-.019s-.106-.1-.16-.149-.16-.234-.056-.056c-.087-.139-.179-.274-.268-.413a10.679,10.679,0,0,1-.546-.947c-.038-.077-.075-.16-.112-.232.054.119-.021-.051-.037-.093a4.258,4.258,0,0,1-.16-.534c0-.022-.053-.272-.037-.16s-.011-.146-.011-.17v-.245c0-.109.029-.16,0-.026.019-.083.035-.16.059-.245,0-.024.087-.242.037-.12s.046-.088.059-.111c.034-.062.07-.122.109-.181s.115-.133.021-.034l.171-.179c.125-.133-.072.034.019-.024l.168-.107c.187-.123-.16.032.05-.026a1.256,1.256,0,0,0,.151-.042q-.186.018-.072,0a1,1,0,0,1,.117,0c.2-.021-.16-.043.055,0a1,1,0,0,0,.53-1.923Z" transform="translate(-126.585 -298.279)" fill="#d52941"/>
        </g>
        <g id="Group_41804" data-name="Group 41804" transform="translate(0 31.785)">
          <path id="Path_70134" data-name="Path 70134" d="M71.711,276.68c.13.063.26.13.383.205q.112.067.22.139c.019.013.21.149.109.074s.083.067.1.083q.083.07.16.144a4.558,4.558,0,0,1,.333.34l.114.131c.183.208-.1-.16.056.072.083.119.16.237.242.361a3.684,3.684,0,0,1,.211.38c.04.079.075.16.114.236-.061-.128-.013-.034.016.043a5.612,5.612,0,0,1,.247.833c.016.07.027.143.042.213.054.277-.014-.2.011.079.013.144.024.287.027.433s0,.288-.008.433c0,.071-.018.144-.019.215,0,.119.034-.16,0,.035a5.683,5.683,0,0,1-.258.917,1,1,0,0,0,.7,1.226,1.026,1.026,0,0,0,1.226-.7,6.273,6.273,0,0,0-3.014-7.614,1.024,1.024,0,0,0-1.364.357,1.006,1.006,0,0,0,.357,1.364Z" transform="translate(-71.224 -274.834)" fill="#d52941"/>
        </g>
        <g id="Group_41805" data-name="Group 41805" transform="translate(155.385 5.635)">
          <path id="Path_70135" data-name="Path 70135" d="M307.617,235.5a3.892,3.892,0,0,0-2.218,2.083,4.283,4.283,0,0,0-.375,1.63,3.89,3.89,0,0,0,.356,1.628.993.993,0,0,0,.6.458,1.014,1.014,0,0,0,.767-.1,1,1,0,0,0,.458-.6,1.176,1.176,0,0,0-.1-.768c.136.32.011.013-.011-.07s-.043-.178-.062-.268c-.035-.16.019.215.01.091,0-.042-.008-.083-.011-.125v-.276a1,1,0,0,1,.021-.276c-.016.043-.043.261-.01.091l.024-.123c.019-.09.045-.179.072-.268s.16-.367.014-.071a5.243,5.243,0,0,1,.25-.468c.022-.035.046-.071.07-.1.055-.078.152-.136-.035.042.059-.058.109-.128.16-.189a2.3,2.3,0,0,1,.2-.189c.119-.107-.018.018-.066.046.043-.024.082-.059.122-.087a2.456,2.456,0,0,1,.215-.128c.045-.024.09-.045.135-.067.16-.078-.228.09-.051.022a1.08,1.08,0,0,0,.6-.458,1.021,1.021,0,0,0,.1-.767,1.008,1.008,0,0,0-1.226-.7Z" transform="translate(-305.025 -235.468)" fill="#d52941"/>
        </g>
        <g id="Group_41806" data-name="Group 41806" transform="translate(104.889 52.11)">
          <path id="Path_70136" data-name="Path 70136" d="M235.392,305.452c-3.549.582-4.776,5.392-3.342,8.249a3.08,3.08,0,0,0,4.389,1.41,2.394,2.394,0,0,0,1.187-2.147,2.443,2.443,0,0,0-1.442-2.028,4.564,4.564,0,0,0-2.826-.264c-.83.16-1.993.718-2.814.344a1.027,1.027,0,0,0-1.364.357,1,1,0,0,0,.357,1.363,4.291,4.291,0,0,0,2.657.253c.389-.071.772-.173,1.155-.269.178-.045.357-.09.537-.127.064-.013.128-.026.192-.035-.144.021.024,0,.083,0,.16,0,.3-.01.458,0a1.453,1.453,0,0,1,.2.018c-.051,0-.151-.035.034.011a1.51,1.51,0,0,1,.641.25c-.149-.1.093.093.128.139-.13-.16,0,0,0,.016.034-.117-.066-.066,0,.011s.027.127.016.011a1.013,1.013,0,0,1,0,.179c.019-.266,0,0-.011-.01h0l-.043.074c.083-.147-.071.074-.133.13.123-.111-.117.064-.178.1-.242.139.091-.022-.066.027l-.183.051c-.027,0-.221.034-.1.022s-.127,0-.151,0c-.269.019.09.032-.061,0-.061-.013-.12-.029-.181-.048-.149-.046.127.074-.027-.016-.062-.037-.127-.072-.187-.114a1.821,1.821,0,0,1-.441-.514,4.137,4.137,0,0,1-.226-3.237,4.093,4.093,0,0,1,.8-1.484,2.259,2.259,0,0,1,1.471-.8,1,1,0,0,0,.7-1.227,1.021,1.021,0,0,0-1.226-.7Z" transform="translate(-229.047 -305.421)" fill="#d52941"/>
        </g>
        <g id="Group_41807" data-name="Group 41807" transform="translate(54.571 67.425)">
          <path id="Path_70137" data-name="Path 70137" d="M155.938,328.534a5.768,5.768,0,0,0-.846,8.973,1.022,1.022,0,0,0,1.41,0,1,1,0,0,0,0-1.41,4.013,4.013,0,0,1-.378-.367c-.03-.034-.191-.232-.066-.066q-.065-.087-.125-.178a4.143,4.143,0,0,1-.24-.41c-.04-.077-.077-.16-.112-.234.088.2-.019-.062-.027-.085a4.615,4.615,0,0,1-.133-.46c-.018-.07-.032-.143-.046-.215s-.038-.261-.018-.082a5.256,5.256,0,0,1-.019-1.011,2.047,2.047,0,0,1,.021-.219c-.027.232.014-.058.019-.083q.046-.237.114-.469a3.944,3.944,0,0,1,.16-.457c-.077.2.021-.04.04-.082.038-.079.079-.16.12-.231a4.264,4.264,0,0,1,.255-.4l.077-.106c-.059.077-.066.088-.021.034s.095-.109.144-.16a4.362,4.362,0,0,1,.38-.356c-.133.111.029-.019.078-.053s.147-.095.224-.141a1,1,0,0,0-1.006-1.723Z" transform="translate(-153.331 -328.423)" fill="#d52941"/>
        </g>
        <g id="Group_41808" data-name="Group 41808" transform="translate(162.112 37.624)">
          <path id="Path_70138" data-name="Path 70138" d="M315.431,285.32a6.755,6.755,0,0,1,.6,7.515,1,1,0,0,0,1.721,1.006,8.822,8.822,0,0,0-.913-9.934,1,1,0,0,0-1.41,0,1.019,1.019,0,0,0,0,1.41Z" transform="translate(-315.148 -283.618)" fill="#d52941"/>
        </g>
        <g id="Group_41809" data-name="Group 41809" transform="translate(105.853 21.69)">
          <path id="Path_70139" data-name="Path 70139" d="M230.508,260.637a8.556,8.556,0,0,0,4.148,7.938,1,1,0,0,0,1.006-1.721,6.6,6.6,0,0,1-3.067-4.344c-.018-.086-.035-.171-.05-.258a1.358,1.358,0,0,0-.029-.179c.013.1-.018-.186-.018-.18,0-.069-.011-.139-.016-.208a7.167,7.167,0,0,1,.019-1.049,1,1,0,0,0-1-1,1.017,1.017,0,0,0-1,1Z" transform="translate(-230.487 -259.639)" fill="#d52941"/>
        </g>
        <g id="Group_41810" data-name="Group 41810" transform="translate(50.31 39.784)">
          <path id="Path_70140" data-name="Path 70140" d="M147.9,288.849a2.544,2.544,0,0,1,1.219.353,3.862,3.862,0,0,1,.338.218c.16.117.07.056.038.029.051.043.1.088.16.133q.151.136.287.287c.035.038.24.292.16.191a5.364,5.364,0,0,1,.418.7c.01.018.079.173.022.04.026.063.05.127.071.189.045.127.082.256.114.386a2.685,2.685,0,0,1-.013,1.306,1.856,1.856,0,0,1-.277.617,1.259,1.259,0,0,1-.405.4c.038-.019-.3.069-.1.05a1.189,1.189,0,0,1-.194,0c.16.011.013,0-.024-.011-.16-.03-.09-.026-.034,0a1.075,1.075,0,0,1-.16-.094c.075.053.03.07-.014-.024.072.16-.045-.09,0,.013s0-.128,0-.022.026-.064.01-.071c.037.016-.016.1-.029.117.038-.054.062-.122.1-.176-.093.128.205-.187.095-.1a2.052,2.052,0,0,1,.431-.258,5.171,5.171,0,0,1,.675-.2,3.863,3.863,0,0,1,.822-.08,4.646,4.646,0,0,1,3.386,1.428c.889.929,2.3-.481,1.41-1.41a6.641,6.641,0,0,0-4.853-2.011c-1.682.027-4.283.889-4.006,3.027a2.193,2.193,0,0,0,1.836,1.819,2.634,2.634,0,0,0,2.5-1,4.613,4.613,0,0,0,.365-4.937,5.1,5.1,0,0,0-4.341-2.894,1,1,0,1,0,0,1.993Z" transform="translate(-146.913 -286.856)" fill="#d52941"/>
        </g>
      </g>
    </g>
  </g>
</svg>
