<svg xmlns="http://www.w3.org/2000/svg" xmlns:xlink="http://www.w3.org/1999/xlink" width="352.941" height="214.753" viewBox="0 0 352.941 214.753"><defs><style>.a{fill:#4e8fb7;}.b{fill:#70b2dd;}.c{fill:#abdaf7;}.d{fill:#f49187;}.e{fill:url(#a);}.f{fill:#f6613a;opacity:0.5;}.g{fill:#feb19e;}.h{fill:#ff856a;}.i{fill:#0b2d4e;}.j{fill:#ffc7ae;}.k{fill:#525559;}.l,.o{fill:#fff;}.l{stroke:#f230db;stroke-miterlimit:10;}.m,.n{fill:#90c6e0;}.n,.p{opacity:0.35;mix-blend-mode:multiply;isolation:isolate;}.p{fill:#ce7d99;}.q{fill:#f7b44e;}.r{fill:#f7bd53;}</style><linearGradient id="a" x1="0.538" y1="0.919" x2="0.433" y2="0.181" gradientUnits="objectBoundingBox"><stop offset="0" stop-color="#f79239"/><stop offset="1" stop-color="#f7c759"/></linearGradient></defs><g transform="translate(8.335 135.214)"><path class="a" d="M468.862,213.284s8.334-18.662-10.871-33.156-23.554-25-23.554-25-6.488,34.035,5.254,50.187v23.372h28.43Z" transform="translate(-417.576 -155.125)"/><path class="b" d="M445.778,217.191s-.942-13.045,12.046-21.778,12.8-17.538,12.8-17.538,9.977,24.983-2.635,39.316Z" transform="translate(-411.682 -144.9)"/><path class="c" d="M459.228,220.057s2.008-17.575-14.4-27S424.985,171.5,424.985,171.5s-9.059,30.62,5.8,48.557Z" transform="translate(-422.25 -147.765)"/></g><g transform="translate(114.933 28.976)"><g transform="translate(12.285 68.922)"><g transform="translate(0 73.302)"><path class="d" d="M524,181.109a117.348,117.348,0,0,1-19.727,24.154v8.763h19.6s6.192-3.334,18.6-12.813C542.463,201.212,546.532,174.1,524,181.109Z" transform="translate(-504.27 -179.952)"/><path class="d" d="M612.013,196.557s-.913,17.393-5.262,18.48-22.165-15.045-22.165-15.045l-2.026-7.7,13.2-9.629S611.477,187.5,612.013,196.557Z" transform="translate(-469.082 -178.732)"/></g><g transform="translate(19.595)"><path class="e" d="M641.124,220.507c-4.174-7.972-29.9-2.174-29.9-2.174l18.307,18.423H547.258c2.725-9.479,1.1-32.555,1.1-32.555-.014.174-.043.333-.072.507-1.2,9.262-6.1,14.161-6.1,14.161-.348,4.725-5.8,5.073-5.8,5.073a32.033,32.033,0,0,0-2.8-10.451c-5.349-11.059-15.669-9.653-15.669-9.653-1.1-5.8,5.073-7.247,5.073-7.247s7.6-44.208,18.654-52.9,29.09-13.045,29.09-13.045l18.568-1.261s36.41,7.247,43.657,19.742,5.986,59.79,5.986,59.79C644.748,213.622,641.124,220.507,641.124,220.507Z" transform="translate(-517.789 -129.38)"/><path class="f" d="M602.419,206.312s3.08-26.815-6.885-50.187c0,0,1.631,35.511-12.864,45.476s-39.135,7.972-45.3,25.365l54.354-.483Z" transform="translate(-508.986 -117.359)"/><path class="f" d="M543.387,191.3c-1.2,9.262-6.1,14.161-6.1,14.161-.348,4.725-5.8,5.073-5.8,5.073a32.031,32.031,0,0,0-2.8-10.45,30.682,30.682,0,0,0,8.059-13.393c3.841-12.7,1.391-26.5,1.218-27.482C541.1,171.081,542.808,185.648,543.387,191.3Z" transform="translate(-512.89 -115.973)"/></g></g><path class="g" d="M566,200.194s20.474-14.313,37.867-8.516,15.944,17.756,10.327,19.93H570.831Z" transform="translate(-464.241 -33.079)"/><g transform="translate(48.677)"><path class="g" d="M578.768,137.691s-4.261,23.916-16.944,24.046c-11.074.1-8.508-14.422-7.682-18.118.116-.551.2-.855.2-.855l-4.595-17.509,24.394-12.915.493,2.682v.043Z" transform="translate(-520.221 -68.116)"/><path class="h" d="M554.142,143.619c.116-.551.2-.855.2-.855l-4.595-17.509,24.394-12.915.493,2.682v.043C577.84,143.619,554.591,143.619,554.142,143.619Z" transform="translate(-520.221 -68.116)"/><path class="i" d="M586.536,117.5a42.834,42.834,0,0,0,3.986-14.223c.725-7.428-1.358-9.149-4.438-9.149,0,0-1.631-8.426-5.527-11.325s-19.749,1.36-25.818,4.983-10.508-6.359-13.318-5.943-3.351,8.117-1.177,11.559c0,0-5.073-2.809-5.889-5.708s-6.612,2.355-4.529,13.136,6.885,12.139,6.885,12.139.906,11.414,10.237,12.683,33.971-.906,33.971-.906Z" transform="translate(-529.377 -81.829)"/><path class="g" d="M538.875,105.254s4.53,30.982,15.944,34.968,20.956-8.2,22.406-11.461,2.06-10.1,2.06-10.1,3.889.9,4.343-5.982-5.527-10.961-6.976.906c0,0-5.586-3.08-3.895-13.589,0,0-6.4,6.04-15.339,6.04s-1.209-6.04-1.209-6.04S549.807,105.918,538.875,105.254Z" transform="translate(-525.109 -73.662)"/></g><g transform="translate(0 145.449)"><g transform="translate(59.363 19.553)"><rect class="c" width="74.405" height="3.986" transform="translate(0 9.542)"/><rect class="b" width="22.95" height="3.986" transform="translate(51.456 9.542)"/><path class="j" d="M588.481,205.329s-6.58-9.819-16.451-9.661c-7.469.119-7.746,4.83-7.746,4.83s-4.908-.584-5.034,4.831Z" transform="translate(-526.637 -195.667)"/></g><path class="g" d="M524.477,205.964s.362-5.435-2.053-6.16a4.384,4.384,0,0,0-4.228,1.328s-1.812-7.972-8.576-8.213-18.963,6.643-11.474,13.045Z" transform="translate(-495.795 -177.352)"/><path class="b" d="M541.585,204.152a2.233,2.233,0,0,1-2.232,2.232h-40.7a2.232,2.232,0,0,1,0-4.464h40.7A2.233,2.233,0,0,1,541.585,204.152Z" transform="translate(-495.513 -173.303)"/><path class="c" d="M529.511,204.152a2.233,2.233,0,0,1-2.232,2.232H498.652a2.232,2.232,0,0,1,0-4.464h28.627A2.233,2.233,0,0,1,529.511,204.152Z" transform="translate(-495.513 -173.303)"/><path class="k" d="M515.474,207.2l-7.215-23.577a2.038,2.038,0,0,0-2.476-1.373h0a2.037,2.037,0,0,0-1.381,2.689l8.626,22.894A1.844,1.844,0,0,0,515.474,207.2Z" transform="translate(-491.985 -182.177)"/></g></g><g transform="translate(28.181 102.667)"><path class="l" d="M480.248,161.381c.786,4.756-.925,9-3.821,9.478s-5.88-2.989-6.667-7.746.926-9,3.821-9.477S479.463,156.626,480.248,161.381Z" transform="translate(-420.829 -123.266)"/><path class="m" d="M539.4,212.694h-77.27a8.293,8.293,0,0,1-7.682-5.232C445.4,184.879,438.722,162.92,436.011,142a8.273,8.273,0,0,1,8.2-9.334h78.328a8.251,8.251,0,0,1,8.16,7.044c2.942,19.379,8.7,40.15,16.495,61.964A8.262,8.262,0,0,1,539.4,212.694Z" transform="translate(-435.942 -132.67)"/><path class="c" d="M536.27,212.694H462.131a8.293,8.293,0,0,1-7.682-5.232C445.4,184.879,438.722,162.92,436.011,142a8.273,8.273,0,0,1,8.2-9.334H519.4a8.277,8.277,0,0,1,8.175,7.044c2.928,19.379,8.682,40.15,16.48,61.964A8.254,8.254,0,0,1,536.27,212.694Z" transform="translate(-435.942 -132.67)"/><g transform="translate(48.398 66.965)"><path class="m" d="M517.455,216.744H487.77a10.115,10.115,0,0,1-9.552-6.812l-8.885-31.047c4.914.015,9.74-.014,14.48-.014,1.58,0,3.16,0,4.725.014l7.073,24.148a8.008,8.008,0,0,0,6.262,5.146l11.1,1.739a4.591,4.591,0,0,1,3.769,3.551Z" transform="translate(-469.333 -178.87)"/><path class="n" d="M497.383,208.178l-2.508-.232a9.423,9.423,0,0,1-7.928-5.856l-7.624-23.22c1.58,0,3.16,0,4.725.014l7.073,24.148A8.008,8.008,0,0,0,497.383,208.178Z" transform="translate(-464.843 -178.87)"/></g><path class="o" d="M479.828,161.9c1.1,4.59-.309,8.863-3.147,9.543s-6.031-2.489-7.131-7.081.307-8.863,3.145-9.543S478.727,157.305,479.828,161.9Z" transform="translate(-421.006 -122.758)"/></g><g transform="translate(0 207.505)"><rect class="b" width="352.941" height="7.247"/><rect class="a" width="78.27" height="7.247" transform="translate(274.671)"/></g><g transform="translate(301.848 148.787)"><path class="b" d="M638.882,191.1,635.5,170.083l-10.75,1.329,3.986,20.894Z" transform="translate(-624.75 -161.975)"/><path class="a" d="M634.285,191.682l3.722-25.938a1.463,1.463,0,0,1,1.689-1.235h0a1.463,1.463,0,0,1,1.2,1.664l-4.13,26.838h1.57l5.535-20.562a1.5,1.5,0,0,1,1.812-1.065h0a1.5,1.5,0,0,1,1.087,1.835L641.6,193.011l-5.193,2.415Z" transform="translate(-620.465 -164.489)"/><path class="c" d="M649.286,183.25v26.757A4.29,4.29,0,0,1,645,214.3H629.54a4.29,4.29,0,0,1-4.29-4.29V183.25Z" transform="translate(-624.525 -156.057)"/><rect class="m" width="24.037" height="6.276" transform="translate(0.725 27.193)"/></g><g transform="translate(258.775 0)"><ellipse class="p" cx="34.192" cy="34.192" rx="34.192" ry="34.192" transform="translate(9.45 11.373)"/><ellipse class="q" cx="32.173" cy="32.173" rx="32.173" ry="32.173" transform="translate(0 28.413) rotate(-26.203)"/><ellipse class="o" cx="23.67" cy="23.67" rx="23.67" ry="23.67" transform="translate(16.134 62.944) rotate(-81.414)"/><path class="r" d="M638.958,96.4H627.3V80.641a2.251,2.251,0,1,0-4.5,0v19.891h16.164a2.067,2.067,0,0,0,0-4.134Z" transform="translate(-582.556 -54.399)"/></g></svg>