<svg xmlns="http://www.w3.org/2000/svg" xmlns:xlink="http://www.w3.org/1999/xlink" width="400" height="270" viewBox="0 0 400 270">
  <defs>
    <clipPath id="clip-path">
      <rect id="Rectangle_18246" data-name="Rectangle 18246" width="400" height="270" transform="translate(1840 154)" fill="#fff" stroke="#707070" stroke-width="1"/>
    </clipPath>
    <clipPath id="clip-path-2">
      <path id="Intersection_1" data-name="Intersection 1" d="M0,26.237,30.415,0l7.872,9.271C28.034,17.838,2.064,30.563,2.064,30.563Zm.182.038,1.951,4.09c2.024-1,26.127-12.972,35.945-21.112L30.4.209Z" transform="translate(0 0)" fill="none"/>
    </clipPath>
  </defs>
  <g id="Mask_Group_128" data-name="Mask Group 128" transform="translate(-1840 -154)" clip-path="url(#clip-path)">
    <g id="Group_42867" data-name="Group 42867" transform="translate(95.697 35.09)">
      <g id="Group_42765" data-name="Group 42765" transform="translate(1781.512 139.248)">
        <path id="Path_71507" data-name="Path 71507" d="M1002.662,837.914l-4.941,1.1a51.749,51.749,0,0,0-9.922,3.33l-.015.006c-4.568,1.947-9.114,4.361-14.935,7.138-22.99,10.969-43.407,26.885-66.1,38.316-3.425,1.725-6.9,3.35-10.449,4.839C868.06,904.5,839.575,907,809.052,909.586c20.87,8.778,42.03,9.162,64.08,4.024s42.612-15.3,62.19-26.669,33.865-22.539,53.8-33.267c23.848-13.652,39.754-12.345,44.248-9.706a8.367,8.367,0,0,1,2.453,2.021C1030.524,833.616,1010.471,836.394,1002.662,837.914Z" transform="translate(-790.097 -795.474)" fill="#e1e1e1"/>
        <g id="Group_42764" data-name="Group 42764">
          <g id="Group_42763" data-name="Group 42763" transform="translate(0 13.876)">
            <path id="Path_71508" data-name="Path 71508" d="M636.688,634.731c-7.468-27.312,4.507-40.519,17.262-70.4L638.206,561.7c-13.062,28.718-22.263,48.1-19.974,69.135,3.318,30.484,23.542,45.917,76.538,27.155,7.5-2.654,30.714-11.873,39.993-17.229C734.763,640.757,649.355,681.054,636.688,634.731Z" transform="translate(-617.733 -561.548)" fill="#51a569"/>
            <path id="Path_71509" data-name="Path 71509" d="M654.221,664.95c-8.737,0-16.043-1.811-21.743-5.393a30.19,30.19,0,0,1-10.892-12.208,52.168,52.168,0,0,1-4.866-17.855,61.848,61.848,0,0,1,.252-15.19,90.737,90.737,0,0,1,3.653-15.536c3.422-10.676,8.734-22.346,14.886-35.859l1.2-2.627a.148.148,0,0,1,.159-.085l15.744,2.633a.148.148,0,0,1,.111.2c-2.753,6.449-5.52,12.228-7.961,17.326-9.115,19.036-15.137,31.613-9.295,52.98,2.371,8.671,7.51,14.88,15.273,18.455,14.645,6.744,36.316,2.983,51.917-1.359a217.886,217.886,0,0,0,30.68-11.164.148.148,0,0,1,.137.261c-9.086,5.244-32.169,14.461-40.018,17.24-14.309,5.066-26.786,7.8-37.084,8.142Q655.282,664.95,654.221,664.95ZM636.928,560.508l-1.149,2.524c-12.634,27.753-20.98,46.087-18.766,66.43,1.552,14.265,6.808,24.307,15.621,29.845,6.11,3.84,14.092,5.627,23.726,5.312,10.268-.336,22.715-3.07,36.995-8.125,6.979-2.47,26.008-10.034,36.505-15.359a223.535,223.535,0,0,1-27.123,9.582,133.4,133.4,0,0,1-27.133,4.924c-10.075.621-18.483-.583-24.99-3.579-7.846-3.613-13.039-9.886-15.434-18.645a61,61,0,0,1-2.3-14.706,50.27,50.27,0,0,1,1.353-12.846c1.93-8.244,5.788-16.3,10.256-25.633,2.418-5.05,5.156-10.768,7.882-17.142Z" transform="translate(-616.367 -560.196)" fill="#292929"/>
          </g>
          <path id="Path_71510" data-name="Path 71510" d="M821,569.1l-2.312,5.129-13.153-8.484,13.312-4.051Z" transform="translate(-786.924 -547.672)" fill="#292929"/>
          <path id="Path_71511" data-name="Path 71511" d="M748.265,419.139,726.128,434.66l30.826,10.081Z" transform="translate(-715.331 -419.139)" fill="#5cae48"/>
        </g>
      </g>
      <path id="Path_71512" data-name="Path 71512" d="M2305.478,2254.455c5.232-1.284-.363.122,0,0-.995.309-24.078,7.232-54.176-5.488,0,0,49.5,11.323,141.861-34.859l1.922,10.7S2354.458,2244.76,2305.478,2254.455Z" transform="translate(-308.956 -1898.281)" fill="#e1e1e1"/>
      <g id="Group_42766" data-name="Group 42766" transform="translate(1962.032 134.908)">
        <path id="Path_71513" data-name="Path 71513" d="M2461.305,382.579l-2.978-2.082,2.082-2.978-1.429-1L2456.9,379.5l-2.978-2.082-1,1.43,2.978,2.082-2.082,2.978,1.43,1,2.082-2.978,2.978,2.082Z" transform="translate(-2452.772 -376.371)" fill="#d42941"/>
        <path id="Path_71514" data-name="Path 71514" d="M2453.893,383.7a.147.147,0,0,1-.084-.027l-1.43-1a.148.148,0,0,1-.036-.205l2-2.857-2.857-2a.147.147,0,0,1-.036-.206l1-1.43a.147.147,0,0,1,.205-.036l2.857,2,2-2.857a.148.148,0,0,1,.206-.036l1.43,1a.147.147,0,0,1,.036.205l-2,2.857,2.857,2a.147.147,0,0,1,.036.206l-1,1.429a.147.147,0,0,1-.205.036l-2.857-2-2,2.857A.148.148,0,0,1,2453.893,383.7Zm-1.224-1.183,1.188.83,2-2.857a.147.147,0,0,1,.205-.036l2.857,2,.83-1.188-2.857-2a.148.148,0,0,1-.036-.206l2-2.857-1.188-.83-2,2.857a.147.147,0,0,1-.205.036l-2.857-2-.831,1.188,2.857,2a.147.147,0,0,1,.061.1.148.148,0,0,1-.024.11Z" transform="translate(-2451.42 -375.019)" fill="#d42941"/>
      </g>
      <g id="Group_42767" data-name="Group 42767" transform="translate(1882.438 354.123)">
        <path id="Path_71515" data-name="Path 71515" d="M1648.6,2608.379l-1.7-1.189,1.189-1.7-.816-.571-1.188,1.7-1.7-1.188-.571.816,1.7,1.189-1.189,1.7.816.571,1.189-1.7,1.7,1.189Z" transform="translate(-1643.668 -2604.772)" fill="#d42941"/>
        <path id="Path_71516" data-name="Path 71516" d="M1643.79,2608.5a.148.148,0,0,1-.085-.027l-.816-.571a.147.147,0,0,1-.036-.205l1.1-1.579-1.579-1.1a.148.148,0,0,1-.036-.206l.571-.816a.147.147,0,0,1,.205-.036l1.579,1.1,1.1-1.579a.148.148,0,0,1,.206-.036l.816.57a.148.148,0,0,1,.036.206l-1.1,1.579,1.579,1.1a.147.147,0,0,1,.036.205l-.571.816a.147.147,0,0,1-.206.036l-1.579-1.1-1.1,1.579a.15.15,0,0,1-.1.061Zm-.611-.755.574.4,1.1-1.579a.148.148,0,0,1,.206-.036l1.579,1.1.4-.574-1.579-1.1a.148.148,0,0,1-.036-.206l1.1-1.579-.574-.4-1.1,1.579a.147.147,0,0,1-.205.036l-1.579-1.1-.4.574,1.579,1.1a.148.148,0,0,1,.036.206Z" transform="translate(-1642.315 -2603.42)" fill="#d42941"/>
      </g>
      <circle id="Ellipse_571" data-name="Ellipse 571" cx="1.597" cy="1.597" r="1.597" transform="translate(1761.303 231.386) rotate(-76.717)" fill="#d42941"/>
      <circle id="Ellipse_572" data-name="Ellipse 572" cx="2.338" cy="2.338" r="2.338" transform="translate(2021.243 241.792)" fill="#292929"/>
      <g id="Group_42787" data-name="Group 42787" transform="translate(1901.429 209.664)">
        <g id="Group_42776" data-name="Group 42776" transform="translate(34.308)">
          <g id="Group_42768" data-name="Group 42768" transform="translate(28.442 44.816)">
            <path id="Path_71517" data-name="Path 71517" d="M2494.355,1594.994c12.61,14.168,39.625,44.91,39.625,44.91l-8.578,9.373-47.68-38.142c-3.9-3.022-3.993-9.657-.3-14.293h0C2481.563,1591.655,2489.944,1590.038,2494.355,1594.994Z" transform="translate(-2474.577 -1591.857)" fill="#f9f9f9"/>
            <path id="Path_71518" data-name="Path 71518" d="M2524.058,1648.072a.148.148,0,0,1-.092-.032l-47.68-38.142a8.18,8.18,0,0,1-2.979-5.594,12.3,12.3,0,0,1,2.66-8.907,13.261,13.261,0,0,1,9.749-4.888,9.359,9.359,0,0,1,7.406,3.034c12.467,14.006,39.355,44.6,39.625,44.911a.148.148,0,0,1,0,.2l-8.578,9.373A.147.147,0,0,1,2524.058,1648.072Zm-38.036-57.272q-.149,0-.3,0a12.957,12.957,0,0,0-9.526,4.777,12,12,0,0,0-2.6,8.688,7.888,7.888,0,0,0,2.868,5.4l47.574,38.057,8.4-9.174c-1.707-1.942-27.427-31.2-39.537-44.81A9.017,9.017,0,0,0,2486.022,1590.8Z" transform="translate(-2473.233 -1590.505)" fill="#292929"/>
          </g>
          <path id="Path_71519" data-name="Path 71519" d="M2267.4,1219.41l-12.406,13.6-40.244-34.7h0a10.832,10.832,0,0,1-1.348-1.414l-11.821-18.171-3.023-4.463-6.109-9.02-1.908-2.934-4.246-6.527a13.634,13.634,0,0,1-1.078-2,13.34,13.34,0,0,1-.878-2.867q-.079-.431-.132-.864a13.491,13.491,0,0,1,20.4-13.148c1.864,1.129,6.449.236,9.61,4.98a25.646,25.646,0,0,1,1.412,2.426,52.413,52.413,0,0,1,4.762,14.067c1.48,10.505,8.529,17.32,13.368,26.121h0Z" transform="translate(-2184.11 -1134.936)" fill="#292929"/>
          <g id="Group_42769" data-name="Group 42769" transform="translate(44.399 49.407)">
            <path id="Path_71520" data-name="Path 71520" d="M2635.584,1640.555a.148.148,0,0,1-.077-.274l5.1-3.083a.147.147,0,1,1,.152.253l-5.1,3.083A.147.147,0,0,1,2635.584,1640.555Z" transform="translate(-2635.436 -1637.177)" fill="#292929"/>
          </g>
          <g id="Group_42775" data-name="Group 42775" transform="translate(73.235 89.813)">
            <g id="Group_42770" data-name="Group 42770" transform="translate(2.266)">
              <path id="Path_71521" data-name="Path 71521" d="M2966.126,2052.662l-3.373-3.242s-9.778,9.276-9.644,9.382,3.557,3.229,3.557,3.229Z" transform="translate(-2952.961 -2049.272)" fill="#f9f9f9"/>
              <path id="Path_71522" data-name="Path 71522" d="M2955.313,2060.825a.147.147,0,0,1-.1-.039c-1.371-1.251-3.448-3.143-3.548-3.222a.155.155,0,0,1-.058-.112c-.005-.109-.01-.2,4.864-4.885,2.385-2.291,4.8-4.585,4.827-4.608a.148.148,0,0,1,.2,0l3.373,3.242a.148.148,0,0,1,0,.211l-9.459,9.369A.147.147,0,0,1,2955.313,2060.825Zm-3.361-3.4c.523.465,2.778,2.523,3.357,3.051l9.252-9.164-3.162-3.04C2957.824,2051.663,2952.607,2056.663,2951.951,2057.423Z" transform="translate(-2951.607 -2047.919)" fill="#292929"/>
            </g>
            <g id="Group_42771" data-name="Group 42771" transform="translate(0 19.396)">
              <path id="Path_71523" data-name="Path 71523" d="M2931.8,2248.592a4.461,4.461,0,0,1-1.927-.369,2.2,2.2,0,0,1-1.168-1.3c-.33-.956.014-1.4.361-1.611,1.27-.76,4.6.5,6.357,2.4a.148.148,0,0,1-.06.24A12.389,12.389,0,0,1,2931.8,2248.592Zm-1.743-3.207a1.651,1.651,0,0,0-.839.183c-.368.22-.447.645-.234,1.262a1.918,1.918,0,0,0,1.018,1.128c1.567.76,4.257.031,5.043-.21A8.138,8.138,0,0,0,2930.056,2245.385Z" transform="translate(-2928.571 -2245.09)" fill="#292929"/>
            </g>
            <g id="Group_42772" data-name="Group 42772" transform="translate(0.684 2.618)">
              <path id="Path_71524" data-name="Path 71524" d="M2938.248,2114.141l-.057-.105a6.805,6.805,0,0,1-1.167-2.745c.007-.306,3.826-9.655,3.826-9.655l.973-12.128-1.266-4.693,10.729-8.781,8.677,7.113.847-.23,2.294,1.946-23.4,30.47Z" transform="translate(-2936.876 -2075.886)" fill="#f9f9f9"/>
              <path id="Path_71525" data-name="Path 71525" d="M2938.349,2114.128a.147.147,0,0,1-.094-.034l-1.455-1.192a.156.156,0,0,1-.036-.044l-.057-.105c-.048-.091-.122-.213-.207-.355a5.5,5.5,0,0,1-.977-2.464c.008-.308,2.921-7.462,3.829-9.686l.969-12.079-1.26-4.668a.148.148,0,0,1,.049-.153l10.729-8.781a.148.148,0,0,1,.187,0l8.618,7.065.774-.21a.149.149,0,0,1,.134.03l2.294,1.946a.148.148,0,0,1,.021.2l-23.4,30.47a.148.148,0,0,1-.1.057Zm-1.339-1.436,1.314,1.077,23.224-30.238-2.128-1.8-.772.21a.147.147,0,0,1-.132-.028l-8.583-7.037-10.562,8.644,1.241,4.6a.144.144,0,0,1,0,.05l-.973,12.128a.146.146,0,0,1-.01.044c-1.5,3.684-3.763,9.284-3.816,9.612a5.323,5.323,0,0,0,.936,2.295c.087.145.163.271.214.367Z" transform="translate(-2935.522 -2074.534)" fill="#292929"/>
            </g>
            <g id="Group_42773" data-name="Group 42773" transform="translate(3.941 12.612)">
              <path id="Path_71526" data-name="Path 71526" d="M2970.329,2185.841h-.018a.148.148,0,0,1-.115-.081c-.094-.189-2.283-4.674-1.317-7.516a3.02,3.02,0,0,1,1.566-1.809c1.232-.6,1.889-.222,2.223.206.581.744.665,2.287.225,4.127a12.553,12.553,0,0,1-2.452,5.022A.148.148,0,0,1,2970.329,2185.841Zm1.264-9.426a2.371,2.371,0,0,0-1.018.284,2.735,2.735,0,0,0-1.416,1.638c-.813,2.391.783,6.159,1.2,7.082,2.272-2.835,3.116-7.263,2.073-8.6A1.018,1.018,0,0,0,2971.593,2176.416Z" transform="translate(-2968.634 -2176.121)" fill="#292929"/>
            </g>
            <g id="Group_42774" data-name="Group 42774" transform="translate(17.178 6.387)">
              <path id="Path_71527" data-name="Path 71527" d="M3106.728,2114.342c-2.533,2.414-2.8,7.632-.256,10.607Z" transform="translate(-3104.544 -2114.195)" fill="#f9f9f9"/>
              <path id="Path_71528" data-name="Path 71528" d="M3105.118,2123.744a.147.147,0,0,1-.112-.052,8.279,8.279,0,0,1-1.811-5.615,7.506,7.506,0,0,1,2.077-5.2.148.148,0,1,1,.2.214c-2.542,2.422-2.663,7.575-.246,10.4a.148.148,0,0,1-.112.244Z" transform="translate(-3103.19 -2112.842)" fill="#292929"/>
            </g>
            <path id="Path_71529" data-name="Path 71529" d="M2948.943,2177.227l1.972,1.617,23.213-30.606-2.622-2.235-.847.23-21.773,30.888Z" transform="translate(-2946.887 -2136.354)" fill="#292929"/>
          </g>
        </g>
        <g id="Group_42786" data-name="Group 42786" transform="translate(0 5.032)">
          <g id="Group_42784" data-name="Group 42784">
            <g id="Group_42777" data-name="Group 42777" transform="translate(0.981 45.666)">
              <path id="Path_71530" data-name="Path 71530" d="M1864.686,1653.677c14.892,11.747,46.861,37.3,46.861,37.3l-7.555,9.676-52.77-29.2c-4.366-2.294-5.713-7.782-2.882-12.993h0C1851.507,1652.623,1859.477,1649.568,1864.686,1653.677Z" transform="translate(-1846.704 -1651.642)" fill="#f9f9f9"/>
              <path id="Path_71531" data-name="Path 71531" d="M1902.622,1699.456a.149.149,0,0,1-.071-.018l-52.77-29.2a8.189,8.189,0,0,1-4.054-4.905,10.808,10.808,0,0,1,1.114-8.287,13.261,13.261,0,0,1,8.745-6.516,9.36,9.36,0,0,1,7.822,1.694c14.722,11.613,46.542,37.042,46.862,37.3a.148.148,0,0,1,.024.206l-7.555,9.676A.147.147,0,0,1,1902.622,1699.456Zm-44.876-48.86a10.445,10.445,0,0,0-2.1.218,12.958,12.958,0,0,0-8.545,6.368,10.516,10.516,0,0,0-1.091,8.061,7.794,7.794,0,0,0,3.912,4.731l52.663,29.144,7.388-9.462c-2.113-1.688-32.47-25.944-46.747-37.206A8.738,8.738,0,0,0,1857.745,1650.6Z" transform="translate(-1845.333 -1650.301)" fill="#292929"/>
            </g>
            <path id="Path_71532" data-name="Path 71532" d="M1864.276,1241.1l29.716,21.82-9.023,15.788-45.428-27.957.072-.092a10.678,10.678,0,0,1-1.76-1.682,10.774,10.774,0,0,1,.8-14.634l28.009-33.447h0l3.234-3.863,5.223-6.236a13.142,13.142,0,1,1,20.009,17.043c-3.189,3.681-6.965,8.023-11.013,12.545C1877.773,1227.47,1870.759,1234.993,1864.276,1241.1Z" transform="translate(-1835.362 -1186.092)" fill="#292929"/>
            <g id="Group_42783" data-name="Group 42783" transform="translate(53.821 80.88)">
              <g id="Group_42778" data-name="Group 42778">
                <path id="Path_71533" data-name="Path 71533" d="M2395.511,2012.445l-4.649-2.678-6.886,11.266,5.042,3.035Z" transform="translate(-2383.828 -2009.619)" fill="#f9f9f9"/>
                <path id="Path_71534" data-name="Path 71534" d="M2387.665,2022.862a.148.148,0,0,1-.076-.021l-5.042-3.035a.148.148,0,0,1-.05-.2l6.886-11.266a.148.148,0,0,1,.2-.051l4.649,2.678a.147.147,0,0,1,.055.2l-6.493,11.623a.147.147,0,0,1-.091.071A.142.142,0,0,1,2387.665,2022.862Zm-4.839-3.233,4.784,2.88,6.348-11.363-4.4-2.534Z" transform="translate(-2382.475 -2008.266)" fill="#292929"/>
              </g>
              <g id="Group_42779" data-name="Group 42779" transform="translate(1.555 21.897)">
                <path id="Path_71535" data-name="Path 71535" d="M2400.672,2234.138a3.151,3.151,0,0,1-.54-.044,2.2,2.2,0,0,1-1.481-.922c-.582-.827-.375-1.353-.1-1.648,1.01-1.082,4.555-.8,6.773.546a.148.148,0,0,1,.009.247C2405.219,2232.4,2402.731,2234.138,2400.672,2234.138Zm.19-2.984a3.029,3.029,0,0,0-2.1.57c-.293.313-.25.743.125,1.277a1.917,1.917,0,0,0,1.29.8c1.716.3,4.1-1.15,4.788-1.6A8.845,8.845,0,0,0,2400.862,2231.154Z" transform="translate(-2398.278 -2230.86)" fill="#292929"/>
              </g>
              <g id="Group_42780" data-name="Group 42780" transform="translate(3.163 2.172)">
                <path id="Path_71536" data-name="Path 71536" d="M2422.029,2072.073l-.084-.085c-.388-.4-1.641-1.4-1.881-2.314-.078-.3,1-10.337,1-10.337l-2.425-11.922-2.517-4.159,7.876-11.41,10.308,4.431.75-.456,2.744,1.234-14.046,35.761Z" transform="translate(-2415.977 -2031.697)" fill="#f9f9f9"/>
                <path id="Path_71537" data-name="Path 71537" d="M2422.4,2071.61a.151.151,0,0,1-.058-.012l-1.728-.743a.147.147,0,0,1-.047-.032l-.084-.085c-.072-.074-.177-.171-.3-.284a5.494,5.494,0,0,1-1.621-2.1c-.078-.3.739-7.979,1-10.367l-2.415-11.875-2.5-4.136a.148.148,0,0,1,0-.16l7.876-11.41a.148.148,0,0,1,.18-.052l10.238,4.4.685-.416a.148.148,0,0,1,.137-.009l2.743,1.234a.147.147,0,0,1,.077.188l-14.046,35.761a.147.147,0,0,1-.08.082A.145.145,0,0,1,2422.4,2071.61Zm-1.643-1.014,1.561.671,13.939-35.488-2.545-1.145-.684.416a.148.148,0,0,1-.135.009l-10.2-4.383-7.754,11.232,2.467,4.077a.151.151,0,0,1,.018.047l2.425,11.922a.141.141,0,0,1,0,.045c-.425,3.957-1.044,9.963-1,10.293a5.324,5.324,0,0,0,1.535,1.946c.124.115.231.215.308.294Z" transform="translate(-2414.624 -2030.345)" fill="#292929"/>
              </g>
              <g id="Group_42781" data-name="Group 42781" transform="translate(4.017 13.991)">
                <path id="Path_71538" data-name="Path 71538" d="M2426.772,2160.242a.147.147,0,0,1-.109-.048c-.142-.156-3.488-3.858-3.347-6.857a3.02,3.02,0,0,1,1-2.172c1.017-.923,1.754-.737,2.193-.418.765.554,1.273,2.013,1.359,3.9a12.55,12.55,0,0,1-.965,5.5.148.148,0,0,1-.111.085Zm-1.037-9.46a1.91,1.91,0,0,0-1.218.6,2.733,2.733,0,0,0-.907,1.967c-.119,2.522,2.459,5.7,3.119,6.471,1.4-3.354.982-7.842-.39-8.836A1.01,1.01,0,0,0,2425.735,2150.782Z" transform="translate(-2423.311 -2150.486)" fill="#292929"/>
              </g>
              <g id="Group_42782" data-name="Group 42782" transform="translate(15.366 4.611)">
                <path id="Path_71539" data-name="Path 71539" d="M2541.008,2056.637c-1.765,3.021-.574,8.108,2.693,10.263Z" transform="translate(-2540.043 -2056.49)" fill="#f9f9f9"/>
                <path id="Path_71540" data-name="Path 71540" d="M2542.33,2065.694a.146.146,0,0,1-.081-.025,8.279,8.279,0,0,1-3.3-4.894,7.508,7.508,0,0,1,.556-5.567.148.148,0,0,1,.255.149c-1.771,3.031-.46,8.017,2.646,10.066a.148.148,0,0,1-.081.271Z" transform="translate(-2538.671 -2055.136)" fill="#292929"/>
              </g>
              <path id="Path_71541" data-name="Path 71541" d="M2475.38,2108.507l2.343,1.007,13.825-35.839-3.138-1.421-.75.456-12.364,35.711Z" transform="translate(-2466.165 -2065.96)" fill="#292929"/>
            </g>
          </g>
          <g id="Group_42785" data-name="Group 42785" transform="translate(40.725 23.49)">
            <path id="Path_71542" data-name="Path 71542" d="M2249.5,1444.449a.147.147,0,0,1-.11-.246l17.254-19.274a.148.148,0,0,1,.22.2l-17.254,19.274A.147.147,0,0,1,2249.5,1444.449Z" transform="translate(-2249.348 -1424.88)" fill="#292929"/>
          </g>
        </g>
        <path id="Path_71543" data-name="Path 71543" d="M2188.063,1144.3a17.925,17.925,0,0,1-4.626,2.2c-6.615,2.425-18.276,5.432-25.782,7.276-1.585.39-2.985.727-4.113,1l3.235-3.863q-.08-.431-.132-.864a13.491,13.491,0,0,1,20.4-13.148c1.864,1.129,6.449.236,9.61,4.98A25.7,25.7,0,0,1,2188.063,1144.3Z" transform="translate(-2122.241 -1134.936)" fill="#292929"/>
      </g>
      <g id="Group_42788" data-name="Group 42788" transform="translate(1775.675 182.165)">
        <path id="Path_71544" data-name="Path 71544" d="M597.216,926.689a90.8,90.8,0,0,1-10.73-.6c-8.075-.963-14.628-3.076-19.476-6.279-6.689-4.42-10.043-10.838-9.971-19.076a82.1,82.1,0,0,1,2.2-17.933,93.668,93.668,0,0,1,4.624-14.352,79.561,79.561,0,0,1,6.661-12.985.148.148,0,1,1,.244.166,79.276,79.276,0,0,0-6.635,12.94,87.963,87.963,0,0,0-6.8,32.167c-.071,8.131,3.239,14.466,9.839,18.827,6.859,4.533,17.05,6.842,29.913,6.842a133.215,133.215,0,0,0,15.469-.967c18.784-2.205,39.718-8.043,58.945-16.439a.148.148,0,0,1,.118.27c-19.253,8.407-40.216,14.253-59.028,16.462A132.39,132.39,0,0,1,597.216,926.689Z" transform="translate(-557.038 -855.4)" fill="#5856b8"/>
      </g>
      <g id="Group_42803" data-name="Group 42803" transform="translate(1956.627 196.831)">
        <path id="Path_71545" data-name="Path 71545" d="M2411.1,1045.289l-13.914-15.337a2.781,2.781,0,0,1,.191-3.928l22.95-20.821a2.781,2.781,0,0,1,3.928.191l13.914,15.337a2.781,2.781,0,0,1-.191,3.928l-22.95,20.821A2.781,2.781,0,0,1,2411.1,1045.289Z" transform="translate(-2396.466 -1004.482)" fill="#292929"/>
        <g id="Group_42789" data-name="Group 42789" transform="translate(29.035 2.446)">
          <path id="Path_71546" data-name="Path 71546" d="M2701.746,1042.344l-8.259-9.1a1.436,1.436,0,0,1,.1-2.028h0a1.436,1.436,0,0,1,2.028.1l8.259,9.1a1.436,1.436,0,0,1-.1,2.028h0A1.436,1.436,0,0,1,2701.746,1042.344Z" transform="translate(-2692.967 -1030.693)" fill="#f9f9f9"/>
          <path id="Path_71547" data-name="Path 71547" d="M2701.466,1041.617l-.079,0a1.573,1.573,0,0,1-1.1-.518l-8.26-9.1a1.583,1.583,0,0,1,2.345-2.128l8.26,9.1a1.583,1.583,0,0,1-1.171,2.647Zm-8.262-11.975a1.287,1.287,0,0,0-.953,2.153l8.26,9.1h0a1.288,1.288,0,1,0,1.908-1.731l-8.259-9.1A1.286,1.286,0,0,0,2693.2,1029.642Z" transform="translate(-2691.622 -1029.347)" fill="#292929"/>
        </g>
        <rect id="Rectangle_18237" data-name="Rectangle 18237" width="20.708" height="31.324" transform="translate(25.856 2.668) rotate(47.785)" fill="#f9f9f9"/>
        <g id="Group_42794" data-name="Group 42794" transform="translate(8.59 8.557)">
          <g id="Group_42790" data-name="Group 42790" transform="translate(12.957 0)">
            <circle id="Ellipse_573" data-name="Ellipse 573" cx="1.693" cy="1.693" r="1.693" transform="translate(0 1.016) rotate(-17.456)" fill="#f9f9f9"/>
            <path id="Path_71548" data-name="Path 71548" d="M2620.209,1098.021a1.839,1.839,0,1,1,1.236-.477h0A1.833,1.833,0,0,1,2620.209,1098.021Zm0-3.385a1.545,1.545,0,1,0,1.146.506A1.539,1.539,0,0,0,2620.207,1094.636Zm1.138,2.8h0Z" transform="translate(-2618.085 -1094.058)" fill="#292929"/>
          </g>
          <g id="Group_42791" data-name="Group 42791" transform="translate(8.41 3.608)">
            <circle id="Ellipse_574" data-name="Ellipse 574" cx="1.693" cy="1.693" r="1.693" transform="matrix(0.698, -0.717, 0.717, 0.698, 0, 2.427)" fill="#f9f9f9"/>
            <path id="Path_71549" data-name="Path 71549" d="M2576.744,1137.454a1.839,1.839,0,1,1,1.236-.477A1.837,1.837,0,0,1,2576.744,1137.454Zm0-3.385a1.545,1.545,0,1,0,1.145.506A1.541,1.541,0,0,0,2576.742,1134.069Z" transform="translate(-2574.349 -1133.22)" fill="#292929"/>
          </g>
          <g id="Group_42792" data-name="Group 42792" transform="translate(4.136 7.488)">
            <circle id="Ellipse_575" data-name="Ellipse 575" cx="1.693" cy="1.693" r="1.693" transform="matrix(0.731, -0.682, 0.682, 0.731, 0, 2.311)" fill="#f9f9f9"/>
            <path id="Path_71550" data-name="Path 71550" d="M2533.288,1176.879l-.092,0a1.833,1.833,0,1,1,.092,0Zm0-3.386a1.545,1.545,0,1,0,1.039,2.69h0a1.545,1.545,0,0,0-1.039-2.69Z" transform="translate(-2530.892 -1172.645)" fill="#292929"/>
          </g>
          <g id="Group_42793" data-name="Group 42793" transform="translate(0 11.508)">
            <circle id="Ellipse_576" data-name="Ellipse 576" cx="1.693" cy="1.693" r="1.693" transform="translate(0 3.064) rotate(-64.811)" fill="#f9f9f9"/>
            <path id="Path_71551" data-name="Path 71551" d="M2489.813,1216.312l-.092,0a1.833,1.833,0,1,1,.092,0Zm0-3.386a1.545,1.545,0,1,0,1.146.506A1.539,1.539,0,0,0,2489.811,1212.926Z" transform="translate(-2487.559 -1212.218)" fill="#292929"/>
          </g>
        </g>
        <g id="Group_42795" data-name="Group 42795" transform="translate(25.722 12.956)">
          <path id="Path_71552" data-name="Path 71552" d="M2659.438,1137.689l6.852,7.552Z" transform="translate(-2659.291 -1137.541)" fill="#f9f9f9"/>
          <path id="Path_71553" data-name="Path 71553" d="M2664.937,1144.037a.147.147,0,0,1-.109-.048l-6.852-7.552a.148.148,0,0,1,.219-.2l6.852,7.552a.148.148,0,0,1-.109.247Z" transform="translate(-2657.937 -1136.189)" fill="#292929"/>
        </g>
        <g id="Group_42796" data-name="Group 42796" transform="translate(21.446 16.836)">
          <path id="Path_71554" data-name="Path 71554" d="M2615.972,1177.122l6.852,7.552Z" transform="translate(-2615.824 -1176.974)" fill="#f9f9f9"/>
          <path id="Path_71555" data-name="Path 71555" d="M2621.472,1183.47a.146.146,0,0,1-.109-.048l-6.852-7.553a.148.148,0,0,1,.219-.2l6.852,7.552a.147.147,0,0,1-.01.208A.145.145,0,0,1,2621.472,1183.47Z" transform="translate(-2614.472 -1175.622)" fill="#292929"/>
        </g>
        <g id="Group_42797" data-name="Group 42797" transform="translate(17.16 20.724)">
          <path id="Path_71556" data-name="Path 71556" d="M2572.408,1216.644l6.852,7.552Z" transform="translate(-2572.26 -1216.497)" fill="#f9f9f9"/>
          <path id="Path_71557" data-name="Path 71557" d="M2577.907,1222.992a.148.148,0,0,1-.109-.048l-6.852-7.552a.148.148,0,1,1,.219-.2l6.852,7.552a.148.148,0,0,1-.109.247Z" transform="translate(-2570.908 -1215.145)" fill="#292929"/>
        </g>
        <g id="Group_42798" data-name="Group 42798" transform="translate(12.894 24.594)">
          <path id="Path_71558" data-name="Path 71558" d="M2529.042,1255.987l6.852,7.552Z" transform="translate(-2528.895 -1255.84)" fill="#f9f9f9"/>
          <path id="Path_71559" data-name="Path 71559" d="M2534.541,1262.335a.147.147,0,0,1-.109-.048l-6.852-7.552a.148.148,0,0,1,.219-.2l6.852,7.552a.147.147,0,0,1-.109.247Z" transform="translate(-2527.542 -1254.488)" fill="#292929"/>
        </g>
        <g id="Group_42799" data-name="Group 42799" transform="translate(22.659 9.722)">
          <path id="Path_71560" data-name="Path 71560" d="M2628.435,1104.809l-.128,1.593,2.225-.466Z" transform="translate(-2628.159 -1104.661)" fill="#f9f9f9"/>
          <path id="Path_71561" data-name="Path 71561" d="M2626.954,1105.2a.148.148,0,0,1-.147-.159l.128-1.593a.147.147,0,1,1,.294.024l-.112,1.4,2.032-.426a.148.148,0,0,1,.061.289l-2.225.466A.14.14,0,0,1,2626.954,1105.2Z" transform="translate(-2626.806 -1103.308)" fill="#292929"/>
        </g>
        <g id="Group_42800" data-name="Group 42800" transform="translate(18.52 13.477)">
          <path id="Path_71562" data-name="Path 71562" d="M2586.361,1142.98l-.128,1.593,2.225-.466Z" transform="translate(-2586.085 -1142.832)" fill="#f9f9f9"/>
          <path id="Path_71563" data-name="Path 71563" d="M2584.88,1143.367a.147.147,0,0,1-.147-.159l.128-1.593a.148.148,0,0,1,.294.024l-.112,1.4,2.032-.426a.148.148,0,0,1,.061.289l-2.225.466A.148.148,0,0,1,2584.88,1143.367Z" transform="translate(-2584.732 -1141.479)" fill="#292929"/>
        </g>
        <g id="Group_42801" data-name="Group 42801" transform="translate(14.235 17.365)">
          <path id="Path_71564" data-name="Path 71564" d="M2542.8,1182.5l-.128,1.593,2.225-.466Z" transform="translate(-2542.521 -1182.354)" fill="#f9f9f9"/>
          <path id="Path_71565" data-name="Path 71565" d="M2541.315,1182.889a.148.148,0,0,1-.147-.159l.128-1.593a.148.148,0,0,1,.294.024l-.112,1.4,2.032-.426a.148.148,0,0,1,.061.289l-2.225.466A.146.146,0,0,1,2541.315,1182.889Z" transform="translate(-2541.168 -1181.001)" fill="#292929"/>
        </g>
        <g id="Group_42802" data-name="Group 42802" transform="translate(9.969 21.235)">
          <path id="Path_71566" data-name="Path 71566" d="M2499.43,1221.845l-.128,1.593,2.225-.466Z" transform="translate(-2499.154 -1221.698)" fill="#f9f9f9"/>
          <path id="Path_71567" data-name="Path 71567" d="M2497.949,1222.233a.148.148,0,0,1-.147-.16l.128-1.593a.148.148,0,0,1,.294.024l-.112,1.4,2.031-.426a.147.147,0,1,1,.061.289l-2.225.466A.148.148,0,0,1,2497.949,1222.233Z" transform="translate(-2497.801 -1220.345)" fill="#292929"/>
        </g>
      </g>
      <g id="Group_42806" data-name="Group 42806" transform="translate(1957.599 180.267)">
        <g id="Group_42805" data-name="Group 42805">
          <g id="Group_42804" data-name="Group 42804">
            <path id="Path_71568" data-name="Path 71568" d="M2438.475,872.128h0c-.013-.019-2.815-4.242-5.8-8.21l-.068-.092c-.139-.185-.54-.635-1.067-1.213L2420.2,837.606l-12.348,8.064s14.088,20.449,17.214,24.916c.186.47.394,1.012.417,1.082.007.019.013.04.02.059q.141.446.28.908c1.173,3.858,2.335,8.334,3.272,8.88.333.194.951.235.961-.815.018-2.146-.752-6.269.584-4.814,1.992,2.166,4.449,8.787,5.258,9.316.5.326.932.067,1.138-.51.69,1.452,1.845.988,1.982-1.1,1.048.48,1.564-1.706,1.36-3.595.4.06.772-.114.941-.8C2441.753,877.257,2438.475,872.128,2438.475,872.128Z" transform="translate(-2407.705 -837.458)" fill="#f9f9f9"/>
            <path id="Path_71569" data-name="Path 71569" d="M2436.572,884.329a1.155,1.155,0,0,1-.919-.661.937.937,0,0,1-.495.435.822.822,0,0,1-.734-.13c-.367-.24-.917-1.359-1.858-3.317a29.879,29.879,0,0,0-3.428-6.023c-.267-.291-.359-.255-.363-.254-.274.119-.151,1.79-.069,2.9.054.726.109,1.477.1,2.072a1.06,1.06,0,0,1-.409.988.794.794,0,0,1-.774-.047c-.827-.482-1.713-3.482-2.739-6.955-.2-.664-.4-1.35-.6-2.009q-.14-.462-.28-.906s-.006-.017-.01-.029l-.008-.024c-.023-.07-.224-.592-.41-1.063-3.11-4.446-17.064-24.7-17.2-24.9a.147.147,0,0,1,.041-.207l12.348-8.064a.148.148,0,0,1,.215.063l11.332,24.986c.594.651.931,1.035,1.06,1.206l.069.092c2.922,3.888,5.647,7.982,5.8,8.208l.008.011c.135.212,3.307,5.2,2.823,7.176-.179.729-.57.92-.921.927.115,1.368-.122,3.011-.81,3.507a.718.718,0,0,1-.582.128c-.106,1.063-.5,1.777-1.046,1.882A.74.74,0,0,1,2436.572,884.329Zm-.929-1.137a.147.147,0,0,1,.133.084c.25.527.579.806.878.75.33-.063.743-.573.823-1.8a.148.148,0,0,1,.209-.124.445.445,0,0,0,.479-.035c.532-.383.834-1.913.672-3.41a.148.148,0,0,1,.168-.162c.251.038.6.007.776-.692.444-1.812-2.625-6.693-2.78-6.938l0-.007c-.028-.042-2.807-4.231-5.793-8.2l-.069-.092c-.122-.162-.469-.555-1.057-1.2a.139.139,0,0,1-.025-.039l-11.27-24.851-12.077,7.887c1.186,1.721,14.165,20.557,17.127,24.79a.142.142,0,0,1,.016.03c.179.452.4,1.013.42,1.091,0,.006.006.018.01.029l.008.024c.1.305.19.608.283.916.2.66.4,1.347.6,2.011.924,3.127,1.879,6.36,2.605,6.783a.5.5,0,0,0,.479.045c.167-.094.256-.348.26-.734,0-.583-.05-1.328-.1-2.048-.137-1.852-.2-3,.246-3.189.256-.111.521.132.7.325a29.969,29.969,0,0,1,3.476,6.095,15.236,15.236,0,0,0,1.754,3.2.543.543,0,0,0,.479.1.808.808,0,0,0,.44-.533.147.147,0,0,1,.131-.1Z" transform="translate(-2406.352 -836.106)" fill="#292929"/>
          </g>
        </g>
      </g>
      <g id="Group_42814" data-name="Group 42814" transform="translate(1828.62 164.248)">
        <g id="Group_42807" data-name="Group 42807">
          <path id="Path_71570" data-name="Path 71570" d="M1139.043,701.844s-26.568-17.977-28.79-19.484a5.8,5.8,0,0,0,.137-1.136c-.071-.576-2.723-5.149-5.237-6.168s-2.727,1.049-2.727,1.049a2.745,2.745,0,0,0-2.365,2.286c-1.555-.014-1.589,1.7-1.589,1.7a2.212,2.212,0,0,0-1.729,2.28c.059,1.584,3,4.664,4.559,6.284a6.832,6.832,0,0,0,3.078,1.955,1.817,1.817,0,0,0,1.142.076l24.417,21.735Z" transform="translate(-1096.595 -674.625)" fill="#f9f9f9"/>
          <path id="Path_71571" data-name="Path 71571" d="M1128.588,711.214a.148.148,0,0,1-.1-.037l-24.36-21.685a1.957,1.957,0,0,1-1.146-.1,6.983,6.983,0,0,1-3.14-1.994c-2.243-2.324-4.545-4.9-4.6-6.381a2.37,2.37,0,0,1,.714-1.819,2.235,2.235,0,0,1,1.026-.6,1.757,1.757,0,0,1,1.6-1.713,2.879,2.879,0,0,1,2.358-2.273,1.715,1.715,0,0,1,.749-1.124,2.4,2.4,0,0,1,2.162.07c2.56,1.038,5.249,5.653,5.328,6.286a4.118,4.118,0,0,1-.122,1.086c2.68,1.817,28.448,19.252,28.711,19.43a.148.148,0,0,1,.029.219l-9.1,10.579a.147.147,0,0,1-.1.051Zm-24.417-22.031a.148.148,0,0,1,.1.037l24.305,21.636,8.9-10.34c-2.068-1.4-26.539-17.957-28.653-19.391a.148.148,0,0,1-.062-.148,5.1,5.1,0,0,0,.136-1.092c-.056-.455-2.643-5.035-5.146-6.049a2.143,2.143,0,0,0-1.9-.092,1.481,1.481,0,0,0-.628,1.02.148.148,0,0,1-.129.131,2.574,2.574,0,0,0-2.236,2.161.144.144,0,0,1-.147.127h-.017c-1.372,0-1.422,1.494-1.423,1.558a.148.148,0,0,1-.155.144,1.743,1.743,0,0,0-.949.529,2.082,2.082,0,0,0-.626,1.6c.059,1.568,3.183,4.8,4.518,6.187a6.739,6.739,0,0,0,3,1.913l.024.007a1.679,1.679,0,0,0,1.052.069A.147.147,0,0,1,1104.171,689.184Z" transform="translate(-1095.242 -673.269)" fill="#292929"/>
        </g>
        <g id="Group_42808" data-name="Group 42808" transform="translate(1.588 8.293)">
          <path id="Path_71572" data-name="Path 71572" d="M1112.887,759.067s2.093,1.235,2.638,1.025a1.7,1.7,0,0,0,.794-.957Z" transform="translate(-1112.739 -758.919)" fill="#f9f9f9"/>
          <path id="Path_71573" data-name="Path 71573" d="M1114.026,758.909a7.862,7.862,0,0,1-2.567-1.067.148.148,0,0,1,.15-.254,6.15,6.15,0,0,0,2.51,1.014,1.557,1.557,0,0,0,.707-.866.148.148,0,0,1,.28.093,1.827,1.827,0,0,1-.881,1.048A.558.558,0,0,1,1114.026,758.909Z" transform="translate(-1111.387 -757.567)" fill="#292929"/>
        </g>
        <g id="Group_42809" data-name="Group 42809" transform="translate(0.885 3.802)">
          <path id="Path_71574" data-name="Path 71574" d="M1105.742,715.449a2.019,2.019,0,0,1,1.023-.3c.369.08,3.2,3.33,4.288,2.91s1.04-1.156,1.04-1.156l-2.927-3.267a1.852,1.852,0,0,0-2.292.312Z" transform="translate(-1105.594 -713.235)" fill="#f9f9f9"/>
          <path id="Path_71575" data-name="Path 71575" d="M1109.481,716.926c-.8,0-2.012-1.058-3.286-2.245a6.906,6.906,0,0,0-.819-.708,1.848,1.848,0,0,0-.913.283.148.148,0,1,1-.148-.255,2.063,2.063,0,0,1,1.128-.315c.139.03.346.215.953.78.9.838,2.573,2.4,3.251,2.137.824-.317.931-.81.944-.964l-2.876-3.21a1.706,1.706,0,0,0-2.1.31.148.148,0,1,1-.194-.222,2.015,2.015,0,0,1,2.474-.321.152.152,0,0,1,.025.022l2.927,3.267a.148.148,0,0,1,.037.088c0,.034.045.851-1.134,1.3A.753.753,0,0,1,1109.481,716.926Z" transform="translate(-1104.242 -711.914)" fill="#292929"/>
        </g>
        <g id="Group_42810" data-name="Group 42810" transform="translate(4.619 1.764)">
          <path id="Path_71576" data-name="Path 71576" d="M1146.313,698.262a3.89,3.89,0,0,0,1.1-.711c.31-.365-.743-2.485-1.178-3.211a8.591,8.591,0,0,0-.872-1.152,1.356,1.356,0,0,0-.881-.456,2.525,2.525,0,0,0-.786,0Z" transform="translate(-1143.548 -692.554)" fill="#f9f9f9"/>
          <path id="Path_71577" data-name="Path 71577" d="M1144.96,697.057a.148.148,0,0,1-.06-.283,3.77,3.77,0,0,0,1.046-.672c.182-.215-.54-1.95-1.192-3.04a8.46,8.46,0,0,0-.856-1.13,1.2,1.2,0,0,0-.785-.407,2.1,2.1,0,0,0-.724-.006.148.148,0,1,1-.094-.28,2.04,2.04,0,0,1,.848-.008,1.5,1.5,0,0,1,.977.506,8.777,8.777,0,0,1,.887,1.174c.017.028,1.631,2.832,1.164,3.382a3.973,3.973,0,0,1-1.153.751A.146.146,0,0,1,1144.96,697.057Z" transform="translate(-1142.195 -691.201)" fill="#292929"/>
        </g>
        <g id="Group_42811" data-name="Group 42811" transform="translate(5.925 0.515)">
          <path id="Path_71578" data-name="Path 71578" d="M1159.307,680.293s-1.4,2.575-2.14,3.554.828,1.4,1.538,1.251a5.343,5.343,0,0,0,1.738-1.054l1.021.629a1.457,1.457,0,0,0,2.108-.813s-2.835-3.666-3.431-3.813A.727.727,0,0,0,1159.307,680.293Z" transform="translate(-1156.825 -679.867)" fill="#f9f9f9"/>
          <path id="Path_71579" data-name="Path 71579" d="M1157.034,683.917a1.82,1.82,0,0,1-1.462-.593.762.762,0,0,1,.12-.923c.724-.959,2.114-3.51,2.128-3.536l0-.006a.868.868,0,0,1,1-.312c.615.152,3.034,3.247,3.513,3.866a.147.147,0,0,1,.019.148,1.7,1.7,0,0,1-.976,1.014,1.813,1.813,0,0,1-1.338-.13l-.936-.576a5.025,5.025,0,0,1-1.723,1.016A1.723,1.723,0,0,1,1157.034,683.917Zm1.043-4.906a41.625,41.625,0,0,1-2.149,3.568c-.175.231-.209.424-.106.588a1.712,1.712,0,0,0,1.5.43,5.239,5.239,0,0,0,1.67-1.02.147.147,0,0,1,.175-.015l1.021.629h0a1.535,1.535,0,0,0,1.1.105,1.372,1.372,0,0,0,.764-.772c-1.091-1.406-2.9-3.594-3.3-3.691A.593.593,0,0,0,1158.077,679.011Z" transform="translate(-1155.468 -678.509)" fill="#292929"/>
        </g>
        <g id="Group_42812" data-name="Group 42812" transform="translate(5.889 1.173)">
          <path id="Path_71580" data-name="Path 71580" d="M1160.725,688.607a3.324,3.324,0,0,1-1.521,2.167,2.428,2.428,0,0,1-1.938.227c-.427-.133-.8-.376-.591-.816a28.157,28.157,0,0,0,2.115-3.49Z" transform="translate(-1156.466 -686.548)" fill="#f9f9f9"/>
          <path id="Path_71581" data-name="Path 71581" d="M1156.616,689.9a2.517,2.517,0,0,1-.749-.113,1.059,1.059,0,0,1-.711-.5.6.6,0,0,1,.03-.518c.02-.041.081-.132.255-.387a21.9,21.9,0,0,0,1.857-3.1.148.148,0,0,1,.272.115,22.115,22.115,0,0,1-1.885,3.149c-.112.164-.218.319-.233.349a.318.318,0,0,0-.025.272.818.818,0,0,0,.528.338,2.28,2.28,0,0,0,1.82-.214,3.2,3.2,0,0,0,1.45-2.063.148.148,0,0,1,.292.046,3.442,3.442,0,0,1-1.593,2.272A2.6,2.6,0,0,1,1156.616,689.9Z" transform="translate(-1155.111 -685.196)" fill="#292929"/>
        </g>
        <g id="Group_42813" data-name="Group 42813" transform="translate(9.431 4.381)">
          <path id="Path_71582" data-name="Path 71582" d="M1192.614,719.3l1.143.972Z" transform="translate(-1192.466 -719.157)" fill="#f9f9f9"/>
          <path id="Path_71583" data-name="Path 71583" d="M1192.4,719.072a.147.147,0,0,1-.1-.035l-1.143-.972a.148.148,0,0,1,.191-.225l1.143.972a.148.148,0,0,1-.1.26Z" transform="translate(-1191.114 -717.805)" fill="#292929"/>
        </g>
      </g>
      <g id="Group_42815" data-name="Group 42815" transform="translate(1841.681 175.163)">
        <path id="Path_71584" data-name="Path 71584" d="M1234.22,785.724l-4.714,6.665Z" transform="translate(-1229.359 -785.576)" fill="#f9f9f9"/>
        <path id="Path_71585" data-name="Path 71585" d="M1228.155,791.184a.148.148,0,0,1-.12-.233l4.714-6.665a.148.148,0,1,1,.241.17l-4.714,6.665A.148.148,0,0,1,1228.155,791.184Z" transform="translate(-1228.007 -784.224)" fill="#292929"/>
      </g>
      <g id="Group_42816" data-name="Group 42816" transform="translate(1972.121 204.479)">
        <path id="Path_71586" data-name="Path 71586" d="M2555.477,1088.843l6.363-5.114Z" transform="translate(-2555.33 -1083.582)" fill="#f9f9f9"/>
        <path id="Path_71587" data-name="Path 71587" d="M2554.125,1087.638a.147.147,0,0,1-.093-.262l6.363-5.114a.147.147,0,1,1,.185.23l-6.363,5.114A.147.147,0,0,1,2554.125,1087.638Z" transform="translate(-2553.977 -1082.23)" fill="#292929"/>
      </g>
      <g id="Group_42817" data-name="Group 42817" transform="translate(1984.055 218.798)">
        <path id="Path_71588" data-name="Path 71588" d="M2676.79,1229.289s2.734,4.336,2.688,8.555Z" transform="translate(-2676.643 -1229.141)" fill="#f9f9f9"/>
        <path id="Path_71589" data-name="Path 71589" d="M2678.125,1236.639h0a.148.148,0,0,1-.146-.149c.046-4.125-2.637-8.432-2.665-8.475a.147.147,0,0,1,.25-.157c.028.044,2.757,4.422,2.71,8.635A.148.148,0,0,1,2678.125,1236.639Z" transform="translate(-2675.29 -1227.789)" fill="#292929"/>
      </g>
      <g id="Group_42818" data-name="Group 42818" transform="translate(1986.405 217.724)">
        <path id="Path_71590" data-name="Path 71590" d="M2700.681,1218.38s2.449,5.263,2.161,8.435Z" transform="translate(-2700.533 -1218.232)" fill="#f9f9f9"/>
        <path id="Path_71591" data-name="Path 71591" d="M2701.489,1225.61h-.013a.147.147,0,0,1-.134-.16c.281-3.1-2.124-8.307-2.148-8.359a.148.148,0,0,1,.268-.125c.1.217,2.462,5.336,2.174,8.51A.147.147,0,0,1,2701.489,1225.61Z" transform="translate(-2699.18 -1216.88)" fill="#292929"/>
      </g>
      <g id="Group_42819" data-name="Group 42819" transform="translate(1988.489 216.838)">
        <path id="Path_71592" data-name="Path 71592" d="M2721.857,1209.361a26.2,26.2,0,0,1,1.766,6.992Z" transform="translate(-2721.709 -1209.213)" fill="#f9f9f9"/>
        <path id="Path_71593" data-name="Path 71593" d="M2722.271,1215.147a.148.148,0,0,1-.147-.139,26.212,26.212,0,0,0-1.755-6.944.148.148,0,0,1,.273-.113,26.541,26.541,0,0,1,1.777,7.039.147.147,0,0,1-.138.156Z" transform="translate(-2720.357 -1207.861)" fill="#292929"/>
      </g>
      <g id="Group_42820" data-name="Group 42820" transform="translate(1941.055 180.161)">
        <path id="Path_71594" data-name="Path 71594" d="M2239.674,836.535l11.36,18.28Z" transform="translate(-2239.527 -836.387)" fill="#f9f9f9"/>
        <path id="Path_71595" data-name="Path 71595" d="M2249.682,853.61a.147.147,0,0,1-.125-.07l-11.36-18.28a.148.148,0,1,1,.251-.156l11.36,18.28a.148.148,0,0,1-.125.225Z" transform="translate(-2238.174 -835.034)" fill="#292929"/>
      </g>
      <g id="Group_42821" data-name="Group 42821" transform="translate(1910.162 181.689)">
        <path id="Path_71596" data-name="Path 71596" d="M1972.1,1032.654a65.153,65.153,0,0,1-19.63-2.791,44.273,44.273,0,0,1-23.326-16.771c-9.77-13.737-5.213-31.363,13.542-52.389,15.324-17.179,36.546-32.578,47.948-40.851,2.291-1.662,4.269-3.1,5.7-4.188.98-.745,2.079-1.563,3.242-2.429,9.561-7.12,24.01-17.879,32.65-31.826,3.906-6.305,5.275-11.426,4.07-15.221-.853-2.687-3.027-4.789-6.461-6.245-4.187-1.776-9.6-1.977-16.082-.6a80.329,80.329,0,0,0-17.524,6.3,148.889,148.889,0,0,0-19.851,11.582.148.148,0,0,1-.177-.236,220.13,220.13,0,0,1,25.334-16.88c7.869-4.4,14.732-7.315,20.4-8.671,7.119-1.7,12.369-.937,15.6,2.28,4.215,4.19,6.632,8.484,7.392,13.127.649,3.969.124,8.345-1.654,13.772-2.594,7.92-8.209,16.764-16.689,26.287a166.9,166.9,0,0,1-19.77,18.723c-1.625,1.292-3.9,3-6.525,4.986-9.639,7.264-24.2,18.24-36.653,30.61a114.052,114.052,0,0,0-15.934,19.1c-4.373,6.9-6.593,13.2-6.6,18.742-.007,6.547,3.081,12.208,9.18,16.825,3.3,2.5,8.512,4.523,15.5,6.025a141.924,141.924,0,0,0,20.037,2.583c13.108.87,24.592.39,24.706.385a.148.148,0,0,1,.063.284,117.51,117.51,0,0,1-31.3,7.183Q1975.607,1032.654,1972.1,1032.654Zm49.53-174.507a21.2,21.2,0,0,1,8.325,1.524c3.517,1.492,5.746,3.655,6.627,6.428,1.232,3.88-.147,9.084-4.1,15.466a87.642,87.642,0,0,1-16.12,18.6c-5.93,5.358-11.849,9.765-16.6,13.306-1.163.866-2.261,1.684-3.24,2.428-1.437,1.092-3.417,2.529-5.709,4.192-22.991,16.683-84.062,61-61.423,92.83,12.878,18.108,34.231,20.4,49.875,19.141a118.363,118.363,0,0,0,30.412-6.848c-2.923.092-12.818.317-23.865-.416a142.214,142.214,0,0,1-20.081-2.589c-7.03-1.51-12.284-3.555-15.616-6.078-6.177-4.676-9.3-10.417-9.3-17.061.006-5.6,2.242-11.956,6.646-18.9a114.347,114.347,0,0,1,15.975-19.151c12.463-12.384,27.039-23.368,36.684-30.637,2.628-1.981,4.9-3.691,6.519-4.981,13.517-10.753,31.151-28.957,36.362-44.871,2.69-8.214,3.865-17.122-5.665-26.6-3.158-3.14-8.315-3.881-15.327-2.2-5.639,1.35-12.476,4.257-20.321,8.641a214.6,214.6,0,0,0-21.171,13.747,149.4,149.4,0,0,1,15.588-8.733,80.637,80.637,0,0,1,17.592-6.328A38.3,38.3,0,0,1,2021.631,858.147Z" transform="translate(-1924.144 -850.562)" fill="#292929"/>
      </g>
      <g id="Group_42846" data-name="Group 42846" transform="translate(1838.749 143.441)">
        <g id="Group_42825" data-name="Group 42825" transform="translate(54.753 5.457)">
          <g id="Group_42822" data-name="Group 42822">
            <path id="Path_71597" data-name="Path 71597" d="M1773.7,530.353c-.084-.1-.238-.048-.442.117.008-.083.015-.164.018-.243.121-3.089-.307-12.539-8.236-11.4q-.148.021-.294.046c-5.948.989-7.43,2.944-7.237,8.971.029.911.065,1.738.111,2.5a18.391,18.391,0,0,1-1.252,3.033c-.317.6.307,1.047,1.06,1.507a9.448,9.448,0,0,0,.869.48,18.93,18.93,0,0,0,1.364,3.707c1.382,2.881,3.925,2.918,6.561,1.632a6.526,6.526,0,0,0,1.318-.9c1.091,1.874,5.6,9.543,6.158,9.365.637-.2,8.348-7.071,8.348-7.071C1781.807,541.848,1774.412,531.192,1773.7,530.353Z" transform="translate(-1756.131 -518.585)" fill="#f9f9f9"/>
            <path id="Path_71598" data-name="Path 71598" d="M1772.308,547.974c-.214,0-.712-.384-2.97-3.991-1.269-2.026-2.6-4.286-3.193-5.3a6.356,6.356,0,0,1-1.214.811,5.746,5.746,0,0,1-4.39.615,4.208,4.208,0,0,1-2.369-2.316,19.227,19.227,0,0,1-1.357-3.668c-.279-.135-.6-.321-.819-.458-.606-.37-1.521-.93-1.114-1.7a18.391,18.391,0,0,0,1.234-2.98c-.043-.724-.079-1.537-.109-2.482-.2-6.167,1.385-8.128,7.36-9.121q.148-.024.3-.046a6.344,6.344,0,0,1,5.4,1.394c3.027,2.729,3.072,8.382,3.008,10.118a.308.308,0,0,1,.387.064h0c.431.5,3.221,4.479,5.463,7.672,1.427,2.033,2.775,3.953,2.877,4.066a.15.15,0,0,1,.039.108.148.148,0,0,1-.048.1c-.792.705-7.753,6.895-8.4,7.1A.25.25,0,0,1,1772.308,547.974Zm-6.124-9.669.025,0a.148.148,0,0,1,.1.071c3.135,5.383,5.537,9.1,6.006,9.291.546-.242,5.122-4.227,8.172-6.941-.3-.406-1.269-1.784-2.81-3.978-2.239-3.189-5.025-7.157-5.446-7.651h0s-.067,0-.237.136a.147.147,0,0,1-.239-.13c.009-.088.014-.164.017-.234.065-1.655.046-7.263-2.909-9.927a6.063,6.063,0,0,0-5.158-1.321q-.147.021-.291.045c-3.072.511-4.816,1.271-5.83,2.543-1,1.254-1.384,3.131-1.283,6.278.031.953.067,1.771.11,2.5a.146.146,0,0,1-.005.048,18.629,18.629,0,0,1-1.264,3.062c-.234.443.173.8,1.007,1.313a9.463,9.463,0,0,0,.854.473.148.148,0,0,1,.081.1,18.875,18.875,0,0,0,1.354,3.679,3.926,3.926,0,0,0,2.2,2.165,5.473,5.473,0,0,0,4.164-.6,6.37,6.37,0,0,0,1.287-.884A.148.148,0,0,1,1766.184,538.306Z" transform="translate(-1754.781 -517.236)" fill="#292929"/>
          </g>
          <g id="Group_42823" data-name="Group 42823" transform="translate(2.509 10.953)">
            <path id="Path_71599" data-name="Path 71599" d="M1780.314,629.372c.09.377.362.636.607.578s.372-.412.282-.789-.362-.636-.607-.578S1780.224,628.995,1780.314,629.372Z" transform="translate(-1780.285 -628.575)" fill="#292929"/>
          </g>
          <g id="Group_42824" data-name="Group 42824" transform="translate(4.185 15.178)">
            <path id="Path_71600" data-name="Path 71600" d="M1799.74,676.017a.751.751,0,0,1-.522-1.4,3.9,3.9,0,0,0,1.544-1.3c.618-1.056,1.442.976.28,1.984A3.368,3.368,0,0,1,1799.74,676.017Z" transform="translate(-1798.666 -672.881)" fill="#f9f9f9"/>
            <path id="Path_71601" data-name="Path 71601" d="M1798.189,674.839a.871.871,0,0,1-.8-.57.885.885,0,0,1,.418-1.132,3.791,3.791,0,0,0,1.485-1.241c.195-.332.4-.383.545-.366.222.026.415.24.518.573a1.922,1.922,0,0,1-.56,1.963,3.507,3.507,0,0,1-1.36.74h0A.951.951,0,0,1,1798.189,674.839Zm.207-.176h0Zm1.394-2.841c-.073,0-.162.08-.245.223a4.07,4.07,0,0,1-1.6,1.353.59.59,0,0,0-.28.764.563.563,0,0,0,.7.359,3.209,3.209,0,0,0,1.242-.678,1.618,1.618,0,0,0,.471-1.653c-.074-.24-.189-.357-.27-.367Z" transform="translate(-1797.321 -671.527)" fill="#292929"/>
          </g>
        </g>
        <path id="Path_71602" data-name="Path 71602" d="M1746.665,493.728a10.381,10.381,0,0,0-2.676-4.617,10.634,10.634,0,0,0-10.444-2.537c-1.186.349-2.259,1.149-3.433,1.44a8.214,8.214,0,0,1-2.553.024c-.517-.044-5.69-.515-5.738-.853l.128.907a7.243,7.243,0,0,0,2.091,4.151l-2.864-.053a4.443,4.443,0,0,0,.381,1.821,4.074,4.074,0,0,0,5.185,2.5,12.2,12.2,0,0,0,4.753-2.458s1.329,6.041,6,6.872c0,0,5.984,5.9,8.529,4.427a8.924,8.924,0,0,0,.214-2.195c.189-1.7.48-3.387.715-5.082A10.805,10.805,0,0,0,1746.665,493.728Z" transform="translate(-1669.728 -483.736)" fill="#292929"/>
        <g id="Group_42828" data-name="Group 42828" transform="translate(63.478 13.904)">
          <path id="Path_71603" data-name="Path 71603" d="M1843.473,604.968s1.476-2.828,3.86-1.52c3.347,1.838,1.224,6.116-1.021,6.313S1843.473,604.968,1843.473,604.968Z" transform="translate(-1843.473 -603.102)" fill="#f9f9f9"/>
          <g id="Group_42826" data-name="Group 42826" transform="translate(0.77 0.931)">
            <path id="Path_71604" data-name="Path 71604" d="M1852.8,614.968a1.778,1.778,0,0,1,1.124-.852c1.12-.2,2.737.09,2.556,2.651Z" transform="translate(-1852.652 -613.919)" fill="#f9f9f9"/>
            <path id="Path_71605" data-name="Path 71605" d="M1855.127,615.563h-.011a.148.148,0,0,1-.137-.158,2.5,2.5,0,0,0-.591-2.12,2.148,2.148,0,0,0-1.792-.375,1.641,1.641,0,0,0-1.02.776.148.148,0,0,1-.26-.139,1.914,1.914,0,0,1,1.229-.927,2.432,2.432,0,0,1,2.041.446,2.771,2.771,0,0,1,.688,2.36A.147.147,0,0,1,1855.127,615.563Z" transform="translate(-1851.299 -612.566)" fill="#292929"/>
          </g>
          <g id="Group_42827" data-name="Group 42827" transform="translate(2.575 2.448)">
            <path id="Path_71606" data-name="Path 71606" d="M1871.147,630.844l1.809-1.361Z" transform="translate(-1870.999 -629.335)" fill="#f9f9f9"/>
            <path id="Path_71607" data-name="Path 71607" d="M1869.794,629.64a.148.148,0,0,1-.089-.265l1.809-1.361a.148.148,0,1,1,.177.236l-1.809,1.361A.147.147,0,0,1,1869.794,629.64Z" transform="translate(-1869.646 -627.984)" fill="#292929"/>
          </g>
        </g>
        <path id="Path_71608" data-name="Path 71608" d="M1897.169,465.952a13.506,13.506,0,0,0-.591-4.192s3.122.668,3.515,3.461c0,0-.175-1.241,2.886-1.277,0,0,.158,4.488-2.967,4.217S1897.169,465.952,1897.169,465.952Z" transform="translate(-1827.876 -461.76)" fill="#292929"/>
        <g id="Group_42839" data-name="Group 42839" transform="translate(85.133 60.264)">
          <path id="Path_71609" data-name="Path 71609" d="M2065.1,1102.1l2.064,4.327s25.969-12.725,36.222-21.293l-7.872-9.271Z" transform="translate(-2064.952 -1075.714)" fill="#f9f9f9"/>
          <path id="Path_71610" data-name="Path 71610" d="M2065.81,1105.221a.143.143,0,0,1-.048-.008.148.148,0,0,1-.085-.076l-2.064-4.327a.147.147,0,0,1,.037-.175l30.415-26.237a.147.147,0,0,1,.209.016l7.872,9.271a.148.148,0,0,1-.018.209c-10.149,8.481-35.992,21.185-36.252,21.312A.146.146,0,0,1,2065.81,1105.221Zm-1.882-4.436,1.951,4.09c2.024-1,26.127-12.972,35.945-21.112l-7.679-9.044Z" transform="translate(-2063.599 -1074.362)" fill="#292929"/>
          <g id="Group_42838" data-name="Group 42838" transform="translate(0.148 0.148)" clip-path="url(#clip-path-2)">
            <g id="Group_42829" data-name="Group 42829" transform="translate(-0.148 0.212)">
              <path id="Path_71611" data-name="Path 71611" d="M2065.1,1105.394l2.064,4.327s25.969-12.725,36.222-21.292l-6.656-8.911Z" transform="translate(-2064.952 -1079.369)" fill="#f9f9f9"/>
              <path id="Path_71612" data-name="Path 71612" d="M2065.811,1108.516a.143.143,0,0,1-.048-.008.146.146,0,0,1-.085-.076l-2.064-4.327a.148.148,0,0,1,.04-.178l31.63-25.877a.148.148,0,0,1,.212.026l6.656,8.911a.147.147,0,0,1-.023.2c-10.149,8.481-35.992,21.185-36.252,21.312A.146.146,0,0,1,2065.811,1108.516Zm-1.881-4.433,1.95,4.087c2.025-1,26.138-12.977,35.952-21.118l-6.48-8.676Z" transform="translate(-2063.599 -1078.017)" fill="#292929"/>
            </g>
            <g id="Group_42830" data-name="Group 42830" transform="translate(3.735 25.738)">
              <path id="Path_71613" data-name="Path 71613" d="M2104.57,1339l3.225,4.222Z" transform="translate(-2104.423 -1338.849)" fill="#f9f9f9"/>
              <path id="Path_71614" data-name="Path 71614" d="M2106.442,1342.014a.147.147,0,0,1-.117-.058l-3.225-4.222a.147.147,0,1,1,.234-.179l3.225,4.222a.147.147,0,0,1-.117.237Z" transform="translate(-2103.07 -1337.497)" fill="#292929"/>
            </g>
            <g id="Group_42831" data-name="Group 42831" transform="translate(7.857 23.074)">
              <path id="Path_71615" data-name="Path 71615" d="M2146.472,1311.911l3.225,4.222Z" transform="translate(-2146.324 -1311.764)" fill="#f9f9f9"/>
              <path id="Path_71616" data-name="Path 71616" d="M2148.345,1314.928a.147.147,0,0,1-.117-.058l-3.225-4.221a.148.148,0,1,1,.235-.179l3.225,4.222a.148.148,0,0,1-.117.237Z" transform="translate(-2144.972 -1310.412)" fill="#292929"/>
            </g>
            <g id="Group_42832" data-name="Group 42832" transform="translate(11.979 20.409)">
              <path id="Path_71617" data-name="Path 71617" d="M2188.374,1284.825l3.225,4.222Z" transform="translate(-2188.227 -1284.677)" fill="#f9f9f9"/>
              <path id="Path_71618" data-name="Path 71618" d="M2190.247,1287.843a.147.147,0,0,1-.117-.058l-3.225-4.222a.148.148,0,1,1,.235-.179l3.225,4.222a.148.148,0,0,1-.117.237Z" transform="translate(-2186.874 -1283.326)" fill="#292929"/>
            </g>
            <g id="Group_42833" data-name="Group 42833" transform="translate(16.101 17.744)">
              <path id="Path_71619" data-name="Path 71619" d="M2230.276,1257.74l3.225,4.222Z" transform="translate(-2230.128 -1257.592)" fill="#f9f9f9"/>
              <path id="Path_71620" data-name="Path 71620" d="M2232.148,1260.757a.146.146,0,0,1-.117-.058l-3.225-4.222a.148.148,0,0,1,.234-.179l3.225,4.222a.147.147,0,0,1-.117.237Z" transform="translate(-2228.776 -1256.24)" fill="#292929"/>
            </g>
            <g id="Group_42834" data-name="Group 42834" transform="translate(20.223 15.08)">
              <path id="Path_71621" data-name="Path 71621" d="M2272.177,1230.654l3.225,4.222Z" transform="translate(-2272.03 -1230.507)" fill="#f9f9f9"/>
              <path id="Path_71622" data-name="Path 71622" d="M2274.051,1233.672a.147.147,0,0,1-.117-.058l-3.225-4.222a.148.148,0,1,1,.234-.179l3.225,4.222a.148.148,0,0,1-.117.237Z" transform="translate(-2270.678 -1229.155)" fill="#292929"/>
            </g>
            <g id="Group_42835" data-name="Group 42835" transform="translate(24.345 12.415)">
              <path id="Path_71623" data-name="Path 71623" d="M2314.079,1203.569l3.225,4.222Z" transform="translate(-2313.932 -1203.421)" fill="#f9f9f9"/>
              <path id="Path_71624" data-name="Path 71624" d="M2315.952,1206.586a.148.148,0,0,1-.117-.058l-3.225-4.222a.148.148,0,1,1,.235-.179l3.225,4.222a.148.148,0,0,1-.117.237Z" transform="translate(-2312.579 -1202.069)" fill="#292929"/>
            </g>
            <g id="Group_42836" data-name="Group 42836" transform="translate(28.467 9.751)">
              <path id="Path_71625" data-name="Path 71625" d="M2355.981,1176.483l3.225,4.222Z" transform="translate(-2355.833 -1176.336)" fill="#f9f9f9"/>
              <path id="Path_71626" data-name="Path 71626" d="M2357.854,1179.5a.148.148,0,0,1-.117-.058l-3.225-4.222a.148.148,0,1,1,.235-.179l3.225,4.222a.148.148,0,0,1-.117.237Z" transform="translate(-2354.481 -1174.984)" fill="#292929"/>
            </g>
            <g id="Group_42837" data-name="Group 42837" transform="translate(32.59 7.086)">
              <path id="Path_71627" data-name="Path 71627" d="M2397.883,1149.4l3.225,4.222Z" transform="translate(-2397.735 -1149.25)" fill="#f9f9f9"/>
              <path id="Path_71628" data-name="Path 71628" d="M2399.755,1152.415a.148.148,0,0,1-.117-.058l-3.225-4.222a.148.148,0,0,1,.234-.179l3.225,4.222a.147.147,0,0,1-.028.207A.145.145,0,0,1,2399.755,1152.415Z" transform="translate(-2396.383 -1147.898)" fill="#292929"/>
            </g>
          </g>
        </g>
        <path id="Path_71631" data-name="Path 71631" d="M1342.475,702.037c-.247-.592-.677-1.277-1.26-.906-.052.033-.125.085-.218.154,0,0-9.274-23.514-12.541-26.014l0,0a8.011,8.011,0,0,0-3.264-2.5l-28.561-10.883a8,8,0,0,0-5.209-.333h0c-7.5,1.057-11.371,2.453-13.163,3.3a4.864,4.864,0,0,0-1.322.748h0q.027.35.027.679a6.927,6.927,0,0,1-.218,1.781q-.035.133-.076.262a5.45,5.45,0,0,1-.651,1.375q-.134.2-.282.388t-.309.356a6.894,6.894,0,0,1-2.232,1.53,12.168,12.168,0,0,1-4.579.939l-3.035,2.437a23.755,23.755,0,0,1-7.307,4c-4.357,1.464-10.771,3.642-10.869,3.648l-13.623,4.693c-4.539-3.568-19.523-14.883-26.347-14.372a1.006,1.006,0,0,0-.3-1.117h0a1.006,1.006,0,0,0-1.467.2l-5.794,8.186a1,1,0,0,0,.032,1.2c.4.5,1,1.042,1.461.525.041-.045.1-.116.167-.208h0s19.37,18,24.07,20.509a8.032,8.032,0,0,0,6.062,2.222l35.223-5.3,16.41,27.657a3.166,3.166,0,0,0,1.57,1.267c1.163.986,1.678.3,2.558-.151l3.231-1.487,6.463-2.975a60.973,60.973,0,0,0,7.288-4.143l.34-.222a31.4,31.4,0,0,1,3.908-2.15l9.823-6.557a3.166,3.166,0,0,0,1.31-1.842q.038-.146.062-.294a3.189,3.189,0,0,0,.032-.752q-.012-.151-.038-.3t-.067-.3a3.177,3.177,0,0,0-.384-.86l-6.738-10.806-8.516-13.657,11.8,4.516c.924,2,9.484,20.1,16.977,21.646a1.005,1.005,0,0,0,1.45,1.369l7.819-6.28A1,1,0,0,0,1342.475,702.037Z" transform="translate(-1199.538 -641.641)" fill="#f8b018"/>
        <g id="Group_42843" data-name="Group 42843" transform="translate(0 19.476)">
          <path id="Path_71635" data-name="Path 71635" d="M1284.708,727.594a2.088,2.088,0,0,1-.794-.217c-.127-.052-.271-.111-.445-.176a3.3,3.3,0,0,1-1.642-1.326L1265.466,698.3l-35.125,5.286h-.013a8.226,8.226,0,0,1-6.158-2.249c-4.5-2.419-22.335-18.9-23.965-20.412q-.043.053-.074.089a.688.688,0,0,1-.55.259,1.712,1.712,0,0,1-1.136-.79,1.153,1.153,0,0,1-.038-1.372l5.794-8.187a1.153,1.153,0,0,1,2.083.845c.086,0,.174-.005.262-.005,7.042,0,21.478,10.883,25.92,14.37l13.547-4.667.023-.006c.185-.046,3.215-1.069,6.145-2.058,1.59-.537,3.259-1.1,4.7-1.585a23.531,23.531,0,0,0,7.262-3.971l3.035-2.437a.151.151,0,0,1,.095-.033,12.113,12.113,0,0,0,4.517-.926,6.734,6.734,0,0,0,2.185-1.5c.105-.111.207-.228.3-.346s.189-.249.275-.378a5.332,5.332,0,0,0,.634-1.338q.039-.125.074-.255a6.814,6.814,0,0,0,.214-1.743c0-.216-.009-.441-.026-.667a.147.147,0,0,1,.042-.115,4.954,4.954,0,0,1,1.368-.78c1.994-.941,5.9-2.28,13.193-3.308a8.108,8.108,0,0,1,5.3.343l28.556,10.881a8.2,8.2,0,0,1,3.316,2.531c3.151,2.456,11.584,23.566,12.506,25.891l.071-.048a.694.694,0,0,1,.6-.1c.327.1.621.463.875,1.072a1.153,1.153,0,0,1-.34,1.33l-7.82,6.28a1.153,1.153,0,0,1-1.771-1.384c-7.442-1.819-15.8-19.345-16.857-21.629l-11.33-4.338,15.021,24.09a3.316,3.316,0,0,1,.4.9c.029.1.052.208.071.313s.032.21.04.316a3.34,3.34,0,0,1-.033.787c-.017.1-.038.207-.065.308a3.32,3.32,0,0,1-1.371,1.927,209.94,209.94,0,0,1-28.4,16.326c-.439.2-.886.42-1.317.629-.592.287-1.205.583-1.812.854A2.471,2.471,0,0,1,1284.708,727.594Zm-19.166-29.6a.147.147,0,0,1,.127.072l16.41,27.657a3,3,0,0,0,1.494,1.2c.178.066.325.126.454.179.6.246.725.3,1.537-.065.6-.269,1.213-.564,1.8-.85.433-.209.88-.426,1.322-.631a209.682,209.682,0,0,0,28.363-16.3,3.024,3.024,0,0,0,1.25-1.756c.024-.092.044-.187.059-.281a3.03,3.03,0,0,0,.03-.717c-.007-.1-.02-.193-.036-.288s-.038-.192-.064-.285a3.025,3.025,0,0,0-.366-.82l-15.255-24.465a.148.148,0,0,1,.178-.216l11.8,4.516a.147.147,0,0,1,.081.076c.946,2.046,9.46,20.03,16.873,21.563a.148.148,0,0,1,.09.231.86.86,0,0,0-.013.987.858.858,0,0,0,1.25.181l7.82-6.28a.856.856,0,0,0,.254-.987h0c-.213-.509-.458-.83-.691-.9a.407.407,0,0,0-.353.065c-.047.03-.117.079-.209.148a.147.147,0,0,1-.193-.014.152.152,0,0,1-.033-.051c-.093-.235-9.307-23.512-12.493-25.951a.167.167,0,0,1-.03-.029,7.9,7.9,0,0,0-3.2-2.453l-28.556-10.881a7.821,7.821,0,0,0-5.119-.33l-.018,0c-7.642,1.077-11.5,2.521-13.121,3.286a6.01,6.01,0,0,0-1.233.679c.015.208.022.415.022.615a7.117,7.117,0,0,1-.223,1.819q-.036.137-.078.268a5.621,5.621,0,0,1-.669,1.412c-.09.136-.188.271-.29.4s-.206.248-.317.365a7.026,7.026,0,0,1-2.28,1.563,12.217,12.217,0,0,1-4.588.952l-2.994,2.4a23.83,23.83,0,0,1-7.353,4.02c-1.443.485-3.111,1.048-4.7,1.585-4.718,1.592-5.941,2-6.167,2.062h0l-13.623,4.693a.147.147,0,0,1-.139-.023c-4.443-3.492-19.467-14.849-26.245-14.341a.147.147,0,0,1-.15-.2.86.86,0,0,0-.258-.953.858.858,0,0,0-1.252.169l-5.794,8.187a.856.856,0,0,0,.027,1.018c.345.431.669.672.913.679a.406.406,0,0,0,.322-.16c.037-.042.091-.109.16-.2a.147.147,0,0,1,.218-.019c.194.18,19.41,18.018,24.039,20.487a.144.144,0,0,1,.033.024,7.931,7.931,0,0,0,5.945,2.182l35.216-5.3Z" transform="translate(-1198.198 -659.736)" fill="#292929"/>
        </g>
        <g id="Group_42844" data-name="Group 42844" transform="translate(133.865 59.342)">
          <path id="Path_71636" data-name="Path 71636" d="M2559.131,1070.855a.148.148,0,0,1-.087-.267l7.663-5.565a.148.148,0,0,1,.173.239l-7.663,5.565A.147.147,0,0,1,2559.131,1070.855Z" transform="translate(-2558.983 -1064.995)" fill="#292929"/>
        </g>
        <g id="Group_42845" data-name="Group 42845" transform="translate(2.932 31.521)">
          <path id="Path_71637" data-name="Path 71637" d="M1228.155,789.676a.148.148,0,0,1-.123-.23l4.812-7.2a.148.148,0,0,1,.245.164l-4.812,7.2A.147.147,0,0,1,1228.155,789.676Z" transform="translate(-1228.007 -782.178)" fill="#292929"/>
        </g>
      </g>
      <g id="Group_42848" data-name="Group 42848" transform="translate(2100.186 315.021)">
        <g id="Group_42847" data-name="Group 42847" transform="translate(2.619 4.766)">
          <rect id="Rectangle_18238" data-name="Rectangle 18238" width="8.809" height="29.038" transform="matrix(0.778, -0.628, 0.628, 0.778, 0.148, 5.679)" fill="#f9f9f9"/>
          <path id="Path_71638" data-name="Path 71638" d="M3900.8,2282.8a.148.148,0,0,1-.115-.055l-18.233-22.6a.148.148,0,0,1,.022-.208l6.856-5.531a.15.15,0,0,1,.108-.032.146.146,0,0,1,.1.054l18.233,22.6a.147.147,0,0,1-.022.207l-6.856,5.531A.149.149,0,0,1,3900.8,2282.8Zm-18.025-22.726,18.047,22.371,6.627-5.346-18.048-22.371Z" transform="translate(-3882.421 -2254.37)" fill="#292929"/>
        </g>
        <path id="Path_71639" data-name="Path 71639" d="M3855.8,2205.923l2.919,18.652,14.693-11.854Z" transform="translate(-3855.795 -2205.923)" fill="#5cae48"/>
        <path id="Path_71640" data-name="Path 71640" d="M3934.137,2309.616l-8.836,3.076,6.856-5.531Z" transform="translate(-3918.463 -2297.202)" fill="#292929"/>
      </g>
      <g id="Group_42850" data-name="Group 42850" transform="translate(1835.636 283.103)">
        <g id="Group_42849" data-name="Group 42849" transform="translate(2.619 4.766)">
          <rect id="Rectangle_18239" data-name="Rectangle 18239" width="8.809" height="29.038" transform="matrix(0.778, -0.628, 0.628, 0.778, 0.148, 5.679)" fill="#f9f9f9"/>
          <path id="Path_71641" data-name="Path 71641" d="M1211.567,1958.336a.148.148,0,0,1-.115-.055l-18.233-22.6a.148.148,0,0,1,.022-.208l6.856-5.531a.148.148,0,0,1,.208.022l18.233,22.6a.148.148,0,0,1-.022.208l-6.856,5.531A.146.146,0,0,1,1211.567,1958.336Zm-18.025-22.726,18.047,22.371,6.627-5.346-18.047-22.371Z" transform="translate(-1193.186 -1929.909)" fill="#292929"/>
        </g>
        <path id="Path_71642" data-name="Path 71642" d="M1166.56,1881.462l2.919,18.652,14.693-11.854Z" transform="translate(-1166.56 -1881.462)" fill="#5cae48"/>
        <path id="Path_71643" data-name="Path 71643" d="M1244.9,1985.155l-8.837,3.076,6.856-5.531Z" transform="translate(-1229.228 -1972.741)" fill="#292929"/>
      </g>
      <g id="Group_42852" data-name="Group 42852" transform="translate(1981.761 150.777)">
        <g id="Group_42851" data-name="Group 42851" transform="translate(4.214 7.335)">
          <rect id="Rectangle_18240" data-name="Rectangle 18240" width="12.325" height="42.926" transform="matrix(0.778, -0.628, 0.628, 0.778, 0.148, 7.886)" fill="#f9f9f9"/>
          <path id="Path_71644" data-name="Path 71644" d="M2721.9,652.328a.148.148,0,0,1-.115-.055l-26.952-33.409a.149.149,0,0,1-.032-.108.147.147,0,0,1,.054-.1l9.592-7.739a.148.148,0,0,1,.208.022l26.953,33.409a.148.148,0,0,1-.022.208l-9.592,7.739A.147.147,0,0,1,2721.9,652.328Zm-26.745-33.535,26.767,33.18,9.363-7.553-26.767-33.179Z" transform="translate(-2694.802 -610.885)" fill="#292929"/>
        </g>
        <path id="Path_71645" data-name="Path 71645" d="M2651.965,536.325l4.9,27.1,20.557-16.584Z" transform="translate(-2651.965 -536.325)" fill="#5cae48"/>
        <path id="Path_71646" data-name="Path 71646" d="M2769.99,691.836l-12.52,4.11,9.592-7.739Z" transform="translate(-2747.091 -673.266)" fill="#292929"/>
      </g>
      <g id="Group_42859" data-name="Group 42859" transform="translate(2107.972 245.467)">
        <g id="Group_42857" data-name="Group 42857" transform="translate(0 1.713)">
          <rect id="Rectangle_18241" data-name="Rectangle 18241" width="1.271" height="6.569" transform="translate(6.403 0.148) rotate(72.211)" fill="#d42941"/>
          <path id="Path_71654" data-name="Path 71654" d="M3935.483,1519.814a.148.148,0,0,1-.141-.1l-.388-1.211a.148.148,0,0,1,.1-.186l6.255-2.007a.148.148,0,0,1,.186.1l.388,1.211a.148.148,0,0,1-.1.186l-6.255,2.007A.144.144,0,0,1,3935.483,1519.814Zm-.2-1.263.3.93,5.974-1.917-.3-.93Z" transform="translate(-3934.947 -1516.301)" fill="#d42941"/>
        </g>
        <g id="Group_42858" data-name="Group 42858" transform="translate(1.713)">
          <rect id="Rectangle_18242" data-name="Rectangle 18242" width="1.271" height="6.569" transform="translate(3.365 6.403) rotate(162.211)" fill="#d42941"/>
          <path id="Path_71655" data-name="Path 71655" d="M3954.514,1505.827a.147.147,0,0,1-.141-.1l-2.007-6.255a.148.148,0,0,1,.1-.186l1.211-.388a.148.148,0,0,1,.186.1l2.007,6.255a.148.148,0,0,1-.1.186l-1.211.388A.149.149,0,0,1,3954.514,1505.827Zm-1.822-6.307,1.917,5.974.93-.3-1.917-5.974Z" transform="translate(-3952.36 -1498.888)" fill="#d42941"/>
        </g>
      </g>
      <g id="Group_42862" data-name="Group 42862" transform="translate(1812.789 204.718)">
        <circle id="Ellipse_578" data-name="Ellipse 578" cx="9.105" cy="9.105" r="9.105" transform="translate(1.829 2.079)" fill="#292929"/>
        <g id="Group_42860" data-name="Group 42860">
          <circle id="Ellipse_579" data-name="Ellipse 579" cx="9.105" cy="9.105" r="9.105" transform="translate(0.148 0.148)" fill="#f9f9f9"/>
          <path id="Path_71656" data-name="Path 71656" d="M943.563,1103.161a9.253,9.253,0,1,1,9.253-9.253A9.263,9.263,0,0,1,943.563,1103.161Zm0-18.21a8.958,8.958,0,1,0,8.958,8.958A8.968,8.968,0,0,0,943.563,1084.951Z" transform="translate(-934.31 -1084.656)" fill="#292929"/>
        </g>
        <g id="Group_42861" data-name="Group 42861" transform="translate(3.946 5.608)">
          <path id="Path_71657" data-name="Path 71657" d="M979.389,1148.958c-.243,0-.746-.215-2.685-1.731-1.085-.849-2.126-1.722-2.136-1.73a.393.393,0,1,1,.506-.6,37.4,37.4,0,0,0,4.206,3.207c.8-1.11,4.006-5.013,5.063-6.294a.393.393,0,1,1,.607.5c-1.872,2.27-4.914,6.006-5.129,6.39a.444.444,0,0,1-.306.244A.53.53,0,0,1,979.389,1148.958Zm-.258-.637a.351.351,0,0,0-.024.045A.429.429,0,0,1,979.131,1148.322Z" transform="translate(-974.427 -1141.664)" fill="#5856b8"/>
        </g>
      </g>
      <g id="Group_42865" data-name="Group 42865" transform="translate(2054.949 270.214)">
        <circle id="Ellipse_580" data-name="Ellipse 580" cx="5.766" cy="5.766" r="5.766" transform="matrix(0.23, -0.973, 0.973, 0.23, 1.065, 12.447)" fill="#292929"/>
        <g id="Group_42863" data-name="Group 42863" transform="translate(0 0)">
          <circle id="Ellipse_581" data-name="Ellipse 581" cx="5.766" cy="5.766" r="5.766" transform="matrix(0.23, -0.973, 0.973, 0.23, 0, 11.223)" fill="#f9f9f9"/>
          <path id="Path_71658" data-name="Path 71658" d="M3412.262,1772.67a5.913,5.913,0,1,1,5.913-5.913A5.92,5.92,0,0,1,3412.262,1772.67Zm0-11.532a5.618,5.618,0,1,0,5.618,5.618A5.625,5.625,0,0,0,3412.262,1761.138Z" transform="translate(-3405.326 -1759.82)" fill="#292929"/>
        </g>
        <g id="Group_42864" data-name="Group 42864" transform="translate(3.576 4.628)">
          <path id="Path_71659" data-name="Path 71659" d="M3435.444,1802.112c-.154,0-.472-.136-1.7-1.1-.687-.537-1.346-1.09-1.353-1.1a.249.249,0,1,1,.32-.382,23.716,23.716,0,0,0,2.664,2.031c.505-.7,2.537-3.174,3.206-3.985a.249.249,0,0,1,.385.317c-1.186,1.438-3.112,3.8-3.249,4.046a.281.281,0,0,1-.193.154A.331.331,0,0,1,3435.444,1802.112Zm-.164-.4a.312.312,0,0,0-.015.029Z" transform="translate(-3432.302 -1797.493)" fill="#5856b8"/>
        </g>
      </g>
      <g id="Group_42866" data-name="Group 42866" transform="translate(1922.183 311.753)">
        <path id="Path_71660" data-name="Path 71660" d="M2091.158,2234.184a49.436,49.436,0,0,1-6.016-.373c-12.968-1.585-22.9-5.311-29.533-11.072a23.963,23.963,0,0,1-7.363-10.76,41.86,41.86,0,0,1-.94-21.49,36.522,36.522,0,0,1,3.676-9.856,28.706,28.706,0,0,1,6.346-7.9.147.147,0,1,1,.192.224c-9.757,8.385-13.54,24.76-8.994,38.936a23.674,23.674,0,0,0,7.276,10.627c6.583,5.722,16.467,9.423,29.376,11a48.835,48.835,0,0,0,5.914.364c20.854,0,36.82-13.753,52.306-27.091,8.183-7.048,16.644-14.335,25.581-19.276a52.857,52.857,0,0,1,14-5.5,41.865,41.865,0,0,1,15.525-.594.148.148,0,0,1-.043.292c-21.809-3.174-37.867,10.657-54.869,25.3-8.437,7.267-17.162,14.781-26.641,20.006a58.1,58.1,0,0,1-14.97,5.9A47.386,47.386,0,0,1,2091.158,2234.184Z" transform="translate(-2046.334 -2172.695)" fill="#5856b8"/>
      </g>
    </g>
  </g>
</svg>
