<svg xmlns="http://www.w3.org/2000/svg" xmlns:xlink="http://www.w3.org/1999/xlink" width="92" height="83" viewBox="0 0 92 83">
  <defs>
    <clipPath id="clip-path">
      <rect id="Rectangle_11643" data-name="Rectangle 11643" width="116" height="80" transform="translate(1175.144 304.139)" fill="#fff" stroke="#707070" stroke-width="1"/>
    </clipPath>
    <clipPath id="clip-Artboard_1">
      <rect width="92" height="83"/>
    </clipPath>
  </defs>
  <g id="Artboard_1" data-name="Artboard – 1" clip-path="url(#clip-Artboard_1)">
    <g id="mask-group-44" transform="translate(-1200.144 -301.139)" clip-path="url(#clip-path)">
      <g id="Group_25664" data-name="Group 25664" transform="translate(1151.203 301.083)">
        <g id="Group_25646" data-name="Group 25646" transform="translate(0 119.815)">
          <rect id="Rectangle_11638" data-name="Rectangle 11638" width="27.242" height="2.077" rx="1.038" fill="#adbec4"/>
          <rect id="Rectangle_11639" data-name="Rectangle 11639" width="8.637" height="2.077" rx="1.038" transform="translate(164.706)" fill="#adbec4"/>
          <rect id="Rectangle_11640" data-name="Rectangle 11640" width="27.242" height="2.077" rx="1.038" transform="translate(32.005)" fill="#adbec4"/>
          <rect id="Rectangle_11641" data-name="Rectangle 11641" width="27.242" height="2.077" rx="1.038" transform="translate(69.613)" fill="#adbec4"/>
          <rect id="Rectangle_11642" data-name="Rectangle 11642" width="36.545" height="2.077" rx="1.038" transform="translate(106.371)" fill="#adbec4"/>
        </g>
        <g id="Group_25651" data-name="Group 25651" transform="matrix(0.961, 0.276, -0.276, 0.961, 100.664, 0)">
          <g id="Group_25647" data-name="Group 25647" transform="translate(51.463 104.352)">
            <path id="Path_56731" data-name="Path 56731" d="M14.672,8.711a6.59,6.59,0,0,1-.052.862H0c0-.289,0-.578.02-.862A26.857,26.857,0,0,1,1.394,1.569L5.047,0A5.845,5.845,0,0,0,7.189,3.87a5.2,5.2,0,0,0,.836.537c.134.073.269.139.408.2a7.054,7.054,0,0,0,.934.346,22.846,22.846,0,0,0,3.509.614C14.435,5.811,14.672,7.612,14.672,8.711Z" fill="#882130"/>
            <path id="Path_56732" data-name="Path 56732" d="M14.672,0a6.589,6.589,0,0,1-.052.862H0C0,.573,0,.284.021,0Z" transform="translate(0 8.711)" fill="#5a2129"/>
            <path id="Path_56733" data-name="Path 56733" d="M2.456.537l-2.028.65L0,.444,1.62,0a5.188,5.188,0,0,0,.836.537Z" transform="translate(5.569 3.87)" fill="#5a2129"/>
            <path id="Path_56734" data-name="Path 56734" d="M2.209.346.841,1.254,0,.924,1.275,0a7.048,7.048,0,0,0,.934.346Z" transform="translate(7.158 4.608)" fill="#5a2129"/>
          </g>
          <g id="Group_25648" data-name="Group 25648" transform="translate(0 102.7)">
            <path id="Path_56735" data-name="Path 56735" d="M10.274,10.363a3.658,3.658,0,0,1-.165.862H.371A4.383,4.383,0,0,1,.1,10.363C-.863,5.7,5.609,0,5.609,0L7.663,2.74s-.238,4.387,1.5,5.3a2.225,2.225,0,0,1,1.111,2.323Z" fill="#882130"/>
            <path id="Path_56736" data-name="Path 56736" d="M0,0H10.177a3.658,3.658,0,0,1-.165.862H.274A4.387,4.387,0,0,1,0,0Z" transform="translate(0.097 10.363)" fill="#5a2129"/>
            <path id="Path_56737" data-name="Path 56737" d="M5.974,1.041S1.87.1,0,1.317V.639S3.451-1.038,5.974,1.041Z" transform="translate(2.746 6.65)" fill="#5a2129"/>
            <path id="Path_56738" data-name="Path 56738" d="M5.161,1.038A6.693,6.693,0,0,0,0,1.038L.29.355S3.325-.793,5.161,1.038Z" transform="translate(2.746 5.612)" fill="#5a2129"/>
          </g>
          <path id="Path_56739" data-name="Path 56739" d="M59.437,27.837c.005,3.917-3.473,35.852-3.473,35.852a20.316,20.316,0,0,1-6.265-.351c-.955-16.184-1.048-30.1-1.048-30.1l-16.67-12.5-.041-.031s-.062.284-.175.789c-.826,3.664-4.32,19.012-5.775,22.527-1.657,4-19.77,20.846-19.77,20.846A13.945,13.945,0,0,1,0,61.971a214.792,214.792,0,0,1,15.369-21.6c.692-3.886,1.187-12.53,1.481-18.992l.015-.3c.2-4.376.294-7.679.294-7.679L14.1,7.132,33.514,0l4.35,5.569s1,.924,2.565,2.4l.217.2C46.473,13.666,59.437,26.083,59.437,27.837Z" transform="translate(2.286 43.795)" fill="#5a2129"/>
          <g id="Group_25649" data-name="Group 25649" transform="translate(19.136 49.745)">
            <path id="Path_56740" data-name="Path 56740" d="M0,6.146l.015-.3C4.1,3.628,3.416.087,3.406.052L3.659,0C3.669.036,4.4,3.839,0,6.146Z" transform="translate(0 9.279)" fill="#853a44"/>
            <path id="Path_56741" data-name="Path 56741" d="M2.632,8.464a22,22,0,0,1,.3,2.5l-.041-.031s-.062.284-.175.789A18.9,18.9,0,0,0,0,2.029l.212-.15A17.5,17.5,0,0,1,2.58,8.17C5.532,5.548,2.642.176,2.611.124L2.838,0C2.869.057,5.93,5.744,2.632,8.464Z" transform="translate(12.2 3.824)" fill="#853a44"/>
            <path id="Path_56742" data-name="Path 56742" d="M4.366,2.219c-.005.005-.015.005-.02.011a1.115,1.115,0,0,1-.4.067C2.513,2.3.113.294,0,.2L.17,0C.95.66,3.122,2.245,4.149,2.018Z" transform="translate(19.43)" fill="#853a44"/>
          </g>
          <path id="Path_56743" data-name="Path 56743" d="M0,.239s5.9-.95,8.862.936S15.7,7.983,15.7,7.983s-4.612.609-5.134,3.741C10.571,11.724,7.222,3.747,0,.239Z" transform="translate(17.749 17.281)" fill="#9a182a"/>
          <path id="Path_56744" data-name="Path 56744" d="M6.872,3.112C4.374,4.462.2,9.531.011,12.649c-.184,3.04,2.068,5.837,3.587,8.214,4.738,7.418,9.727,13.973,11.846,22.673.013.055,10.837,4.35,23.541-10.919,0,0-7.178-9.658-9.658-17.88-1.01-3.347-2.036-6.9-3.975-9.852a10.552,10.552,0,0,0-9.6-4.852,23.618,23.618,0,0,0-8.88,3.079Z" transform="translate(1.996 17.488)" fill="#d52941"/>
          <path id="Path_56745" data-name="Path 56745" d="M0,.729S1.6,3.459.859,4.96c0,0,5.481,1.892,5.481-1.175,0,0-1.033-2.3-.644-3.785Z" transform="translate(7.819 16.759)" fill="#ef6e4b"/>
          <path id="Path_56746" data-name="Path 56746" d="M5.273,0S2.224.866,1.454,1.946A15.164,15.164,0,0,0,0,5.446H5.273l.991-1.824L7.425,1.191Z" transform="translate(14.727 36.179)" fill="#ef6e4b"/>
          <g id="Group_25650" data-name="Group 25650" transform="translate(2.083)">
            <path id="Path_56747" data-name="Path 56747" d="M12.58,13.3s2.141-.9.756-7.336c-.918-4.266-2.239-4.9-3.093-4.94,0,0-1.045-1.574-4.669-.821A6.734,6.734,0,0,0,.239,5.017c-.91,2.912.91,9.153,3.307,9.774Z" transform="translate(0.295 1.143)" fill="#111"/>
            <path id="Path_56748" data-name="Path 56748" d="M.146.843S1.5-1.035,2,.816C2.6,2.96.757,4.166.256,3.536S.146.843.146.843Z" transform="translate(13.236 9.251)" fill="#ff8b66"/>
            <path id="Path_56749" data-name="Path 56749" d="M1.773.459S-.107-.886,0,1.03C.134,3.25,2.262,3.8,2.535,3.044S1.773.459,1.773.459Z" transform="translate(0.32 11.614)" fill="#ff8b66"/>
            <path id="Path_56750" data-name="Path 56750" d="M7.634,15.288C11.217,14.7,12.853,12.024,11.695,5,11.1,1.384,8.889-.533,4.876.129S-.461,3.291.137,6.912C1.381,14.454,3.933,15.9,7.634,15.288Z" transform="translate(1.569 3.615)" fill="#ff8b66"/>
            <path id="Path_56751" data-name="Path 56751" d="M10.172,2.758a18.737,18.737,0,0,1-9.12,3.151L1.2,10.428S-3.535,1.71,5.822.166s6.634,8.193,6.634,8.193S12.166,4.16,10.172,2.758Z" transform="translate(1.068 2.604)" fill="#111"/>
            <path id="Path_56752" data-name="Path 56752" d="M13.435,5.373C6.632,2.421.213,8.541.213,8.541s-.748-4.959.562-6.12a7.812,7.812,0,0,1,1.089-.81A11.484,11.484,0,0,1,10.694.4a2.229,2.229,0,0,1,.831.464C12.609,1.992,13.435,5.373,13.435,5.373Z" fill="#ce364c"/>
            <path id="Path_56753" data-name="Path 56753" d="M11.13,4.269A16.087,16.087,0,0,0,.091,6.663a15.073,15.073,0,0,1,.3-5.052A11.484,11.484,0,0,1,9.215.4,13.874,13.874,0,0,1,11.13,4.269Z" transform="translate(1.479)" fill="#cfd8dc"/>
            <path id="Path_56754" data-name="Path 56754" d="M0,6.8S.9,2.954,2.126,1.87C4.156.071,9.859-.548,12.856.535s0,4.359,0,4.359S8.079,1.472,0,6.8Z" transform="translate(0.775 1.155)" fill="#d52941"/>
          </g>
          <path id="Path_56755" data-name="Path 56755" d="M3.335,0A19.04,19.04,0,0,0,9.646,5.744S14.62,1.427,21.069,1.815c0,0-5.346,9.644-9.936,10.712C8.722,13.089,0,7.313,0,7.313S1.741,1.175,3.335,0Z" transform="translate(8.345 33.518)" fill="#ff8b66"/>
          <path id="Path_56756" data-name="Path 56756" d="M1.119,1.155C3.255-2.324,8.185,2.819,9.862,6.491s2.9,4.451,2.9,4.451S7.839,13,7.874,16.691C7.874,16.691-3.544,8.745,1.119,1.155Z" transform="translate(1.963 25.806)" fill="#9a182a"/>
          <path id="Path_56757" data-name="Path 56757" d="M0,12.281S3,9.338,12.865,5.5L11.591,1.489A4.4,4.4,0,0,1,14.8,0s5.054,7.137,4.184,9.269C18.444,10.6,7.9,12,0,12.281Z" transform="translate(17.991 25.392)" fill="#ef6e4b"/>
          <path id="Path_56758" data-name="Path 56758" d="M0,4.7a2.634,2.634,0,0,1,.443-.936c.364-.515.266-1.451.4-1.742A4.981,4.981,0,0,1,2.261.32C2.776.089,3.452-.288,3.6.365S2.677.834,2.2,1.774a4.152,4.152,0,0,1,1.878-.142c.831.2,1.067.957.04.932a4.608,4.608,0,0,0-1.874.563s1.067.16.895.653C2.9,4.46,1.594,4.041,0,4.7Z" transform="translate(28.794 27.145)" fill="#ff8b66"/>
        </g>
        <g id="Group_25663" data-name="Group 25663" transform="translate(31.295 3.309)">
          <path id="Path_56759" data-name="Path 56759" d="M154.238,236.659c.882,2.258,4.494,6.128,4.494,6.128s8.824-5.29,12.9-3.064,7.306,3.583,9.946,2.614-8.681-21.559-8.681-21.559l-14.679-5.6s-.32,3.713-2,4.372-3.465,6.788-3.345,7.95S154.238,236.659,154.238,236.659Z" transform="translate(-125.65 -187.773)" fill="#30040a"/>
          <path id="Path_56760" data-name="Path 56760" d="M150.79,266.616a104.771,104.771,0,0,1-11.6,16.922s-.8,11.3-21.465,29.078l-2.163-1.7s12.306-19.277,14.768-25.187-1.361-11.326,9.964-26.275Z" transform="translate(-105.686 -211.468)" fill="#ef6e4b"/>
          <path id="Path_56761" data-name="Path 56761" d="M158.713,246.62a50.511,50.511,0,0,0-4.352,14.22l-1.484,3.743a41.742,41.742,0,0,0,11.34,3.871L166.656,262Z" transform="translate(-125.656 -204.601)" fill="#ab1d31"/>
          <path id="Path_56762" data-name="Path 56762" d="M187.393,273.608a104.785,104.785,0,0,1,1.348,20.471s6.358,9.376,1.111,36.126H187.1s-2.248-22.759-3.969-28.926-8.073-8.059-8.417-26.81Z" transform="translate(-137.342 -219.044)" fill="#ff8b66"/>
          <g id="Group_25653" data-name="Group 25653" transform="translate(32.519 41.975)">
            <path id="Path_56763" data-name="Path 56763" d="M183.419,267.939a70.744,70.744,0,0,1-14.3.5l-.145-1.027-.036-.263L168,260.5a17.889,17.889,0,0,1-1.781-2.849c-.108-.206-.212-.418-.315-.64a14.507,14.507,0,0,1-1.094-10.389l1.925.088.268.015,6.441.294.273.016,2.116.1.331.016,1.373.062s6.978,6.281,5.734,17.893l.088,1.615.01.263Z" transform="translate(-164.274 -246.579)" fill="#d52941"/>
            <g id="Group_25652" data-name="Group 25652" transform="translate(1.515)">
              <path id="Path_56764" data-name="Path 56764" d="M168.748,246.675a27.913,27.913,0,0,0-.785,10.925c-.108-.206-.212-.418-.315-.64a28.052,28.052,0,0,1,.831-10.3c.031-.088.046-.129.046-.134l.242.088S168.758,246.639,168.748,246.675Z" transform="translate(-167.534 -246.525)" fill="#b2172d"/>
              <path id="Path_56765" data-name="Path 56765" d="M188.744,267.1a37.463,37.463,0,0,1-7.891.6c-2.647,0-5.161-.108-6.5-.171l-.036-.263a94.835,94.835,0,0,0,12.35-.077l-.253-4.155A26.176,26.176,0,0,0,183.6,251.19a5.781,5.781,0,0,1-4.779-4.051c-.031-.119-.046-.191-.046-.2l.253-.041s.02.1.067.253a5.506,5.506,0,0,0,4.356,3.741,25.64,25.64,0,0,0-2.24-3.644c-.113-.155-.185-.242-.191-.248l.2-.165c.01.01.129.155.325.429a27.271,27.271,0,0,1,5.135,15.756l.253,4.134a13.663,13.663,0,0,0,1.806-.32Z" transform="translate(-171.166 -246.691)" fill="#b2172d"/>
            </g>
          </g>
          <path id="Path_56766" data-name="Path 56766" d="M156.112,186.217c-2.054-1.131-16.856,4.673-16.856,4.673s-2.19,3.906-.825,5.438,6.208.856,7.692,0a23.485,23.485,0,0,1,5.414-1.5Z" transform="translate(-117.685 -172.196)" fill="#de4459"/>
          <path id="Path_56767" data-name="Path 56767" d="M190.229,157.921a7.736,7.736,0,0,1,4.176,4.7c1.118,3.522-2.225,12.44-1.07,16.54s.976,11.841-2.633,13.475-11.01-1.29-12.6-5.763-.9-21.417,2.151-27.18S189.493,156.835,190.229,157.921Z" transform="translate(-138.712 -156.223)" fill="#111"/>
          <path id="Path_56768" data-name="Path 56768" d="M189.413,190.8c.806.869,2.88-.68,2.88-.68s-.042,7.686-2.276,8.276-7.928-6.055-7.693-7.861S187.625,188.874,189.413,190.8Z" transform="translate(-141.41 -173.906)" fill="#5a2129"/>
          <path id="Path_56769" data-name="Path 56769" d="M170.524,188.436a15.768,15.768,0,0,0,6.2,2.831c3.937.913,6.071-.938,8.084,1.6,3.022,3.81-1.9,10.834-4.482,14.474a21.7,21.7,0,0,0-3.41,8.732s-6.831,1.984-12.722-.592l-.44-8.38a16.92,16.92,0,0,1,6.77-18.665Z" transform="translate(-131.134 -173.462)" fill="#882130"/>
          <path id="Path_56770" data-name="Path 56770" d="M194.251,196.737s3.121-7.439,4.025-7.913,3.2.665,3.657,1.683a7.265,7.265,0,0,1,0,3.237S199.471,190.934,194.251,196.737Z" transform="translate(-147.798 -173.611)" fill="#5a2129"/>
          <path id="Path_56771" data-name="Path 56771" d="M207.177,230.586c-1.419,2.9-4.9,3.741-4.9,3.741s-.263-.4-.707-1.125c-.046-.072-.1-.155-.145-.237-2.74-4.444-11.116-18.662-10.951-26.057a19.3,19.3,0,0,1,5.955-13.686,9.934,9.934,0,0,1,3.85,1.5,36.156,36.156,0,0,1,.082,11.075c-.9,6.043-2.544,7.643-1.718,8.1s0,1.352,0,1.352,4.857,6.766,5.765,8.871c.588,1.373,1.589,3.705,2.214,5.161.041.1.082.207.124.3Z" transform="translate(-145.774 -176.024)" fill="#d52941"/>
          <path id="Path_56772" data-name="Path 56772" d="M205.865,196.439a5.167,5.167,0,0,0-1.452,6.515l9.638,9.978c-5.29,5.637-5.814,7.951-9.638,10.549l1.452,2.248s13.392-10.292,13.412-12.8C219.285,211.86,211.1,198.887,205.865,196.439Z" transform="translate(-152.897 -177.745)" fill="#ff8b66"/>
          <path id="Path_56773" data-name="Path 56773" d="M198.078,254.611a28.82,28.82,0,0,0-2.994.493c-1.157.29-2.7.579-2.748.819s2.555,0,2.555,0-2.121.872-2.169,1.207,2.7-.243,2.7-.243-1.735,1.06-1.639,1.35,2.234-.434,2.234-.434a6.732,6.732,0,0,1-.81,1.494s.414.227,1.254-.706,2.182-.634,3.244-1.461S199.045,254.486,198.078,254.611Z" transform="translate(-146.773 -208.874)" fill="#ff8b66"/>
          <path id="Path_56774" data-name="Path 56774" d="M165.991,188.576a12.983,12.983,0,0,0-4.316,5.838c-1.671,4.129-6.942,11.9-8.177,13.9s-.375,12.931-.375,12.931-1.548-6.623-2.236-9.2,2.222-8.956,2.659-9.295,2.673.281,2.243-2.308,5.571-13.745,7.172-14.059C162.962,186.385,165.528,186.867,165.991,188.576Z" transform="translate(-124.535 -172.365)" fill="#d52941"/>
          <path id="Path_56775" data-name="Path 56775" d="M154.834,186.9a1.959,1.959,0,0,1-.16.258,6.7,6.7,0,0,1-1.713,1.548,29.45,29.45,0,0,0-2.039,3.153c-.02.279-3.5,2.808-5.052,2.756h-.005a.765.765,0,0,1-.511-.176c-.918-.867,3.128-8.144,4.02-9.713.057-.1.1-.18.134-.232a.229.229,0,0,0,.036-.067s-.713-2.652,2.26-2.157c2.472.408,2.962,2.374,3.22,3.69a1.4,1.4,0,0,1-.19.94Z" transform="translate(-121.557 -170.13)" fill="#9a182a"/>
          <path id="Path_56776" data-name="Path 56776" d="M141.583,187.357c2.042-2.684,9.227-7.89,13.012-9.431l.946,1.759s-7.314,6.43-9.032,9.18-3.846,3.888-5.88,2.972S141.154,187.922,141.583,187.357Z" transform="translate(-118.686 -167.838)" fill="#ff8b66"/>
          <path id="Path_56777" data-name="Path 56777" d="M150.739,186.233l-.387.443-.2.227-.64.733s-1.61,1.951-1.548,2.736c.046.562-3.055,3.081-5.481,4.129a2.97,2.97,0,0,1-2.374.32c-1.754-1.011-1.362-4.051-.366-6.11.867-1.8,4.7-4.113,5.687-4.681a2.55,2.55,0,0,1,.227-.134l0,0,.366-1.424a2.943,2.943,0,0,1,2.39-.31s-2.323.1-1.941,1S150.094,186.2,150.739,186.233Z" transform="translate(-118.175 -170.015)" fill="#d52941"/>
          <g id="Group_25654" data-name="Group 25654" transform="translate(35.351 3.108)">
            <path id="Path_56778" data-name="Path 56778" d="M176.013,168.571c-2.338.96-2,3.076-4.144,3.076-1.327,0-1.5-1.518-1.5-1.518a16.343,16.343,0,0,0,1.063-4.557c.088-1.053.439-.645.439-.645,0-.1-.005-.191-.01-.284-.031-.707-.16-1.223.3-.918.526.341.707,2.343.707,2.343.433-2.921-.212-3.355.294-3.1.691.351.7,2.931.7,3.009.557-1.7.408-2.668.795-2.281s-.2,3.509-.428,4.655c-.052.258-.088.418-.088.418C175.992,167.864,176.013,168.571,176.013,168.571Z" transform="translate(-170.367 -162.909)" fill="#ff8b66"/>
            <path id="Path_56779" data-name="Path 56779" d="M176.866,174.625c-.052.258-.088.418-.088.418a1.711,1.711,0,0,0-1.481.841,1.528,1.528,0,0,1,1.569-1.259Z" transform="translate(-173.005 -169.179)" fill="#ef6e4b"/>
            <path id="Path_56780" data-name="Path 56780" d="M173.715,169.021a5.85,5.85,0,0,0-.129-2.1c0-.1,0-.191-.01-.284C174.112,166.756,173.772,168.722,173.715,169.021Z" transform="translate(-172.084 -164.907)" fill="#ef6e4b"/>
          </g>
          <path id="Path_56781" data-name="Path 56781" d="M177,191.4s1.58-4.282,2.082-5.238,3.12-.792,5.1-.423,2.386,3.022,2.386,3.022S180.539,185.914,177,191.4Z" transform="translate(-138.563 -171.862)" fill="#5a2129"/>
          <path id="Path_56782" data-name="Path 56782" d="M191.931,177.43a17.227,17.227,0,0,0-1.863,7.371s-3.074,2.089-4.175-.528a19.881,19.881,0,0,0,.6-8.057C186.119,173.117,191.931,177.43,191.931,177.43Z" transform="translate(-143.325 -166.323)" fill="#ef6e4b"/>
          <g id="Group_25656" data-name="Group 25656" transform="translate(40.515 0.596)">
            <path id="Path_56783" data-name="Path 56783" d="M183.529,168.422s-.562-2-1.564-.6c-1.16,1.632.022,3.218.641,2.839S183.529,168.422,183.529,168.422Z" transform="translate(-181.476 -162.76)" fill="#ff8b66"/>
            <path id="Path_56784" data-name="Path 56784" d="M203.462,180.658s2-.558,1.32,1.029c-.794,1.837-2.763,1.649-2.76.924S203.462,180.658,203.462,180.658Z" transform="translate(-192.471 -169.844)" fill="#ff8b66"/>
            <path id="Path_56785" data-name="Path 56785" d="M184.908,173.648c-2.848-1.6-3.408-4.369-.266-9.948,1.62-2.878,4.079-3.819,7.269-2.022s3.539,4.318,1.918,7.2C190.453,174.868,187.85,175.3,184.908,173.648Z" transform="translate(-182.034 -159.248)" fill="#ff8b66"/>
            <g id="Group_25655" data-name="Group 25655" transform="translate(4.614 4.072)">
              <path id="Path_56786" data-name="Path 56786" d="M193.016,166.887a.165.165,0,0,1-.085-.023,1.877,1.877,0,0,0-1.319-.221.163.163,0,1,1-.1-.312,2.176,2.176,0,0,1,1.583.254.163.163,0,0,1-.085.3Z" transform="translate(-191.402 -166.265)" fill="#1a4850"/>
            </g>
            <path id="Path_56787" data-name="Path 56787" d="M194.135,161.126a1.63,1.63,0,0,0-2.429-.292c-1.409,1.126-4.587,2.928-6.15,2.332s3.42-7.256,7.747-5.306,3.938,8.3,2.138,10.319-.948.138-.948.138a22.645,22.645,0,0,1,.721-4.762,1.8,1.8,0,0,0-1.079-2.429Z" transform="translate(-183.502 -157.504)" fill="#111"/>
          </g>
          <g id="Group_25658" data-name="Group 25658" transform="translate(50.231 18.618)">
            <path id="Path_56788" data-name="Path 56788" d="M219.356,212.45c-.17,2.5-6.363,10.652-7.4,10.941a2.748,2.748,0,0,0-.8.4c-.108.078-.217.16-.32.243a7.816,7.816,0,0,0-1.032,1.022c-1.806-.119-6.879-2.467-5.248-2.983a1.247,1.247,0,0,0,.325-.171,1.888,1.888,0,0,0,.211-.165c1.92-1.61,5.656-8.144,5.682-8.639.02-.542.666-.645.666-.645s-3.525-5.176-5.569-5.8-3.076-3.1-3.076-3.1c-2.018-8.541,3.85-7.2,3.85-7.2C210.975,198.929,219.526,209.942,219.356,212.45Z" transform="translate(-202.377 -196.277)" fill="#de4459"/>
            <g id="Group_25657" data-name="Group 25657" transform="translate(2.508 25.457)">
              <path id="Path_56789" data-name="Path 56789" d="M214.047,253.1c-.108.078-.217.16-.32.243a12.917,12.917,0,0,1-5.955-2.132,1.891,1.891,0,0,0,.212-.165,12.553,12.553,0,0,0,6.063,2.054Z" transform="translate(-207.772 -251.044)" fill="#9a182a"/>
            </g>
          </g>
          <g id="Group_25659" data-name="Group 25659" transform="translate(27.259 13.88)">
            <path id="Path_56790" data-name="Path 56790" d="M158.976,188.973a1.961,1.961,0,0,1-.16.258,6.692,6.692,0,0,1-1.136-.139,8.532,8.532,0,0,1-4.165-2.292c-.212-.206-.4-.4-.557-.583a2.544,2.544,0,0,1,.227-.134c.134.15.289.315.464.485a8.214,8.214,0,0,0,4.227,2.3,6.264,6.264,0,0,0,1.1.105Z" transform="translate(-152.958 -186.083)" fill="#882130"/>
          </g>
          <g id="Group_25660" data-name="Group 25660" transform="translate(55.648 53.251)">
            <path id="Path_56791" data-name="Path 56791" d="M219.354,271.083a7.273,7.273,0,0,1-5.176,3.628c-.046-.072-.1-.155-.145-.237a7.085,7.085,0,0,0,5.2-3.69C219.271,270.888,219.313,270.991,219.354,271.083Z" transform="translate(-214.033 -270.784)" fill="#9a182a"/>
          </g>
          <g id="Group_25661" data-name="Group 25661" transform="translate(0 96.019)">
            <path id="Path_56792" data-name="Path 56792" d="M108.316,367.281a9.08,9.08,0,0,0-1.316,1.8c-.671,1.166.067,2.24-3.179,4.944,0,0-6.549-3.835-9.506-8.763a1.908,1.908,0,0,1,1.481-1.739c.769-.176,2.885.815,4.918,1.2a8.357,8.357,0,0,0,.862.119,5,5,0,0,0,1.042-.005,3.083,3.083,0,0,0,.878-.211h0a2.607,2.607,0,0,0,1.522-1.832,1.781,1.781,0,0,1,.578,2.668S107.666,364.556,108.316,367.281Z" transform="translate(-94.315 -362.791)" fill="#cfd8dc"/>
            <path id="Path_56793" data-name="Path 56793" d="M103.821,376.859s-6.549-3.835-9.506-8.763c0,0,1.1-.232,2.007,1.4S104.353,374.842,103.821,376.859Z" transform="translate(-94.315 -365.624)" fill="#adbec4"/>
            <path id="Path_56794" data-name="Path 56794" d="M113.407,368.385c-.532.841-.521-.713-1.229-1.44a3.082,3.082,0,0,0,.878-.211h.005A1.356,1.356,0,0,1,113.407,368.385Z" transform="translate(-103.875 -364.901)" fill="#adbec4"/>
            <path id="Path_56795" data-name="Path 56795" d="M109.155,368.543c-.562.532-.743-.856-1.073-1.6a8.34,8.34,0,0,0,.862.119C109.274,367.512,109.584,368.136,109.155,368.543Z" transform="translate(-101.683 -365.014)" fill="#adbec4"/>
          </g>
          <g id="Group_25662" data-name="Group 25662" transform="translate(44.856 107.826)">
            <path id="Path_56796" data-name="Path 56796" d="M200.25,397.89h-9.264a5.45,5.45,0,0,1,0-2.71c.165-.614,1.125-1.187,2.018-1.987a7.1,7.1,0,0,0,.707-.717,4.162,4.162,0,0,0,.47-.676,3.369,3.369,0,0,0,.382-.965,4.235,4.235,0,0,0-.31-2.518s3.153-.661,4.278,1.058c0,0,.108-.8,1.11-.264a14.689,14.689,0,0,0,.052,2.931C199.889,393.375,201.132,393.762,200.25,397.89Z" transform="translate(-190.814 -388.192)" fill="#cfd8dc"/>
            <path id="Path_56797" data-name="Path 56797" d="M201.716,395.182a.411.411,0,0,1-.31.139.45.45,0,0,1-.273-.093,3.382,3.382,0,0,0-3.076-.557,3.367,3.367,0,0,0,.382-.965,3.157,3.157,0,0,1,3.225.867.424.424,0,0,1,.052.609Z" transform="translate(-194.69 -391.063)" fill="#adbec4"/>
            <path id="Path_56798" data-name="Path 56798" d="M199.582,398.671l-.052.078a.423.423,0,0,1-.568.139,5.693,5.693,0,0,0-3.437-.873,7.119,7.119,0,0,0,.707-.717,3.684,3.684,0,0,1,3.257.81A.432.432,0,0,1,199.582,398.671Z" transform="translate(-193.335 -393.014)" fill="#adbec4"/>
          </g>
        </g>
      </g>
    </g>
  </g>
</svg>
