<svg xmlns="http://www.w3.org/2000/svg" width="199.331" height="168.185" viewBox="0 0 199.331 168.185">
  <g id="Group_42208" data-name="Group 42208" transform="translate(-42.456 -74.886)">
    <g id="Background_Simple" data-name="Background Simple" transform="translate(42.456 74.886)">
      <g id="Group_42192" data-name="Group 42192">
        <path id="Path_70546" data-name="Path 70546" d="M216.433,92.544s-17.594-16.241-39.7-17.594-16.692,19.4-31.128,23.91-18.046-8.12-40.6-8.12S75.228,103.371,73.875,122.77,64.4,154.8,49.063,169.236s-1.354,41.5,15.34,43.309c6.7.725,13.81,1.878,20.143,4.3,6.524,2.5,11.463,7.822,17.982,10.312,4.831,1.846,10.137,1.875,15.309,1.88,11.352.011,17.733-3.751,26.58-10.375,6.515-4.878,14.723-13.105,23.295-13.791,11.278-.9,22.105,16.241,41.5,19.85s36.993-41.955,31.579-60.452-20.752-24.812-17.594-40.151S223.2,99.311,216.433,92.544Z" transform="translate(-42.456 -74.886)" fill="#c6ff00"/>
        <path id="Path_70547" data-name="Path 70547" d="M216.433,92.544s-17.594-16.241-39.7-17.594-16.692,19.4-31.128,23.91-18.046-8.12-40.6-8.12S75.228,103.371,73.875,122.77,64.4,154.8,49.063,169.236s-1.354,41.5,15.34,43.309c6.7.725,13.81,1.878,20.143,4.3,6.524,2.5,11.463,7.822,17.982,10.312,4.831,1.846,10.137,1.875,15.309,1.88,11.352.011,17.733-3.751,26.58-10.375,6.515-4.878,14.723-13.105,23.295-13.791,11.278-.9,22.105,16.241,41.5,19.85s36.993-41.955,31.579-60.452-20.752-24.812-17.594-40.151S223.2,99.311,216.433,92.544Z" transform="translate(-42.456 -74.886)" fill="#f2f9ff"/>
      </g>
    </g>
    <g id="Shadow" transform="translate(47.772 230.235)">
      <g id="Group_42193" data-name="Group 42193" transform="translate(133.45 2.459)">
        <ellipse id="Ellipse_475" data-name="Ellipse 475" cx="17.604" cy="5.188" rx="17.604" ry="5.188" fill="#c6ff00"/>
        <ellipse id="Ellipse_476" data-name="Ellipse 476" cx="17.604" cy="5.188" rx="17.604" ry="5.188" fill="#fff" opacity="0.5"/>
      </g>
      <g id="Group_42194" data-name="Group 42194" transform="translate(0 1.992)">
        <ellipse id="Ellipse_477" data-name="Ellipse 477" cx="14.373" cy="3.608" rx="14.373" ry="3.608" fill="#c6ff00"/>
        <ellipse id="Ellipse_478" data-name="Ellipse 478" cx="14.373" cy="3.608" rx="14.373" ry="3.608" fill="#f2f9ff"/>
      </g>
      <g id="Group_42195" data-name="Group 42195" transform="translate(89.627)">
        <ellipse id="Ellipse_479" data-name="Ellipse 479" cx="51.675" cy="5.188" rx="51.675" ry="5.188" fill="#f2f9ff"/>
        <ellipse id="Ellipse_480" data-name="Ellipse 480" cx="51.675" cy="5.188" rx="51.675" ry="5.188" fill="#f2f9ff" opacity="0.5"/>
      </g>
    </g>
    <g id="Plants" transform="translate(48.131 155.316)">
      <g id="Group_42196" data-name="Group 42196" transform="translate(105.808 54.115)">
        <path id="Path_70548" data-name="Path 70548" d="M278.366,389.773h0a.486.486,0,0,1-.486-.486V367.15h.973v22.137A.486.486,0,0,1,278.366,389.773Z" transform="translate(-276.309 -361.345)" fill="#263238"/>
        <path id="Path_70549" data-name="Path 70549" d="M281.405,381.161h0a.487.487,0,0,1-.486-.486V358.538h.973v22.137A.487.487,0,0,1,281.405,381.161Z" transform="translate(-277.889 -356.868)" fill="#263238"/>
        <path id="Path_70550" data-name="Path 70550" d="M419.143,389.773h0a.486.486,0,0,0,.486-.486V367.15h-.973v22.137A.486.486,0,0,0,419.143,389.773Z" transform="translate(-349.483 -361.345)" fill="#263238"/>
        <path id="Path_70551" data-name="Path 70551" d="M416.1,381.161h0a.487.487,0,0,0,.486-.486V358.538h-.973v22.137A.487.487,0,0,0,416.1,381.161Z" transform="translate(-347.903 -356.868)" fill="#263238"/>
        <path id="Path_70552" data-name="Path 70552" d="M346.775,358.04H274.609l3.608-2.979h64.95Z" transform="translate(-274.609 -355.061)" fill="#fff" stroke="#0b3454" stroke-linecap="round" stroke-linejoin="round" stroke-width="1"/>
        <rect id="Rectangle_14834" data-name="Rectangle 14834" width="72.167" height="3.587" transform="translate(0 3.041)" fill="#0b3454" stroke="#0b3454" stroke-linecap="round" stroke-linejoin="round" stroke-width="1"/>
        <line id="Line_517" data-name="Line 517" y1="2.531" transform="translate(35.964 0.351)" fill="#fff" stroke="#263238" stroke-linecap="round" stroke-linejoin="round" stroke-width="1"/>
      </g>
      <g id="Group_42197" data-name="Group 42197" transform="translate(0)">
        <path id="Path_70553" data-name="Path 70553" d="M68.611,292.824c-1.63-1.956-2.406-1.976-2.719-1.826.016-1.033.015-2.087,0-3.151,1.129.98,2.113,1.774,2.113,1.774a13.291,13.291,0,0,0-2.218-4.674c-.066-1.188-.16-2.379-.289-3.562-.095-.871-.175-1.753-.244-2.639a9.13,9.13,0,0,0,1.989,4.47,33.686,33.686,0,0,1,2.9,3.508s-.915-3.966-2.745-5.643a10.058,10.058,0,0,1-2.164-2.636c-.147-1.951-.239-3.919-.288-5.846a18.559,18.559,0,0,0,.011-2.5s-.019.023-.052.066q0-.45-.005-.894a7.9,7.9,0,0,0,3.565,6.318s0-3.66-1.677-5.8-1.831-1.677-1.831-1.677c-.034.284-.052.559-.058.827,0-2.708.065-5.243.156-7.415a4.25,4.25,0,0,0,.97,2.317,4.532,4.532,0,0,0,3.05,1.678s-.61-3.508-1.678-4.576a14.726,14.726,0,0,0-2.228-1.792c.158-2.895.327-4.732.332-4.782a.226.226,0,0,0-.2-.246.236.236,0,0,0-.246.2c-.009.094-.574,6.226-.6,13.919a16.3,16.3,0,0,0-1.018-3.641,2.619,2.619,0,0,0-2.44-1.678,1.775,1.775,0,0,0-.19-.026c-.185-4.206-.266-8.019-.292-11.174.673,2,3.685,6.014,3.685,6.014s0-5.643-1.22-6.406a2.933,2.933,0,0,0-2.469-.2c-.009-1.331-.008-2.537,0-3.593.061-.008.122-.017.183-.02,0,0-.067-.05-.182-.128.018-2.972.077-4.739.079-4.791a.226.226,0,0,0-.451-.016c0,.05-.057,1.716-.077,4.531a3.2,3.2,0,0,0-2.418-.511c-1.22.458-1.983,5.643-1.983,5.643s2.055-3.851,4.4-4.6c-.016,3.04.012,7.275.18,12.207-.541-.073-2.447-.234-3.358.937-1.068,1.373-2.593,6.1-2.593,6.1l5.957-6.851q.05,1.442.117,2.958c-.133.144-.08.42.034.746.149,3.2.36,6.6.654,10.111a22.5,22.5,0,0,0-2.338,3.1,15.258,15.258,0,0,0-1.83,6.558s3.778-3.926,4.52-5.671c.3,3.521.534,6.822.706,9.842a9.714,9.714,0,0,1-1.718,2.844c-1.525,1.83-1.525,5.948-1.525,5.948s2.881-1.341,3.4-5.795c.455,9.474.335,15.5.333,15.584a.225.225,0,0,0,.221.23h0a.226.226,0,0,0,.226-.221c0-.108.188-9.5-.793-23.319a4.927,4.927,0,0,0,.42,1.624,15.741,15.741,0,0,0,2.766,2.858c.031,1.31.031,2.6.007,3.866a3.412,3.412,0,0,0-1.095,1.97,44.767,44.767,0,0,0-.763,5.033,6.922,6.922,0,0,0,1.708-3.059,109.842,109.842,0,0,1-1.331,12.076.226.226,0,0,0,.182.263.3.3,0,0,0,.041,0,.225.225,0,0,0,.221-.185,112.355,112.355,0,0,0,1.486-15.968c.281.485.89,1.5,1.659,2.6a30.392,30.392,0,0,0,3.66,3.813A11.045,11.045,0,0,0,68.611,292.824Zm-3.966-9c-2.44-1.83-2.44-2.44-2.44-2.44s-.028.374-.011.9c-.14-1.917-.3-3.918-.492-5.986a11.487,11.487,0,0,0-.24-2.755c-.226-2.743-.4-5.422-.538-7.985a40.038,40.038,0,0,0,3.53,5.261v.055a14.26,14.26,0,0,0-1.181,3.039,6.784,6.784,0,0,0,.3,4.728,18.453,18.453,0,0,0,1-3.414c.1,2.076.243,4.169.465,6.206.108.987.188,1.98.251,2.973A5.949,5.949,0,0,0,64.645,283.825Z" transform="translate(-54.274 -242.373)" fill="#0b3454"/>
        <path id="Path_70554" data-name="Path 70554" d="M71.449,389.878H63.407l-1.723-18.1H73.172Z" transform="translate(-58.126 -309.634)" fill="#0b3454"/>
      </g>
    </g>
    <g id="Photos" transform="translate(51.037 94.849)">
      <line id="Line_518" data-name="Line 518" x1="5.275" transform="translate(17.997 134.322)" fill="none" stroke="#263238" stroke-width="1"/>
      <line id="Line_519" data-name="Line 519" x1="157.94" transform="translate(27.306 134.322)" fill="none" stroke="#263238" stroke-width="1"/>
      <line id="Line_520" data-name="Line 520" x2="13.653" transform="translate(0 134.322)" fill="none" stroke="#263238" stroke-width="1"/>
      <g id="Group_42201" data-name="Group 42201" transform="translate(17.784 0)">
        <g id="Group_42198" data-name="Group 42198" transform="translate(0.228)">
          <rect id="Rectangle_14835" data-name="Rectangle 14835" width="76.081" height="59.827" fill="#fff" stroke="#263238" stroke-width="1"/>
          <rect id="Rectangle_14836" data-name="Rectangle 14836" width="69.852" height="54.294" transform="translate(3.114 2.421)" fill="#5cae48"/>
          <path id="Path_70555" data-name="Path 70555" d="M174.171,156c-3.261-4.384-6.3-5.575-10.373-1.727-6.225,5.879-10.72,20.058-14.525,19.02s-3.8-6.917-7.262-11.067-9.337,4.15-20.058,13.487a45.026,45.026,0,0,1-17.635,9.467v6.441h69.852Z" transform="translate(-101.205 -134.908)" fill="#fff"/>
          <circle id="Ellipse_481" data-name="Ellipse 481" cx="8.818" cy="8.818" r="8.818" transform="translate(10.375 7.262)" fill="#fff"/>
        </g>
        <g id="Group_42199" data-name="Group 42199" transform="translate(85.436)">
          <rect id="Rectangle_14837" data-name="Rectangle 14837" width="76.081" height="59.827" fill="#fff" stroke="#263238" stroke-width="1"/>
          <rect id="Rectangle_14838" data-name="Rectangle 14838" width="69.12" height="53.825" transform="translate(3.403 2.421)" fill="#fff"/>
          <path id="Path_70556" data-name="Path 70556" d="M351.609,156c-3.261-4.384-6.3-5.575-10.373-1.727-6.225,5.879-10.72,20.058-14.524,19.02s-3.8-6.917-7.262-11.067-9.337,4.15-20.058,13.487a45.026,45.026,0,0,1-17.635,9.467v6.441h69.852Z" transform="translate(-278.643 -134.908)" fill="#5cae48"/>
          <path id="Path_70582" data-name="Path 70582" d="M8.818,0A8.818,8.818,0,1,1,0,8.818,8.818,8.818,0,0,1,8.818,0Z" transform="translate(10.375 7.262)" fill="#5cae48"/>
        </g>
        <g id="Group_42200" data-name="Group 42200" transform="translate(0 66.295)">
          <rect id="Rectangle_14839" data-name="Rectangle 14839" width="76.081" height="59.827" fill="#fff" stroke="#263238" stroke-width="1"/>
          <path id="Path_70583" data-name="Path 70583" d="M0,0H69.12V53.825H0Z" transform="translate(3.403 2.421)" fill="#fff"/>
          <path id="Path_70557" data-name="Path 70557" d="M173.7,294.052c-3.261-4.384-6.3-5.574-10.372-1.726C157.1,298.2,152.6,312.383,148.8,311.345s-3.8-6.917-7.262-11.066-9.337,4.15-20.058,13.487a45.026,45.026,0,0,1-17.635,9.467v6.441H173.7Z" transform="translate(-100.731 -272.959)" fill="#5cae48"/>
          <path id="Path_70584" data-name="Path 70584" d="M8.818,0A8.818,8.818,0,1,1,0,8.818,8.818,8.818,0,0,1,8.818,0Z" transform="matrix(0.161, -0.987, 0.987, 0.161, 9.069, 23.363)" fill="#5cae48"/>
        </g>
      </g>
    </g>
    <g id="Character" transform="translate(183.057 134.152)">
      <g id="Group_42207" data-name="Group 42207" transform="translate(0 0)">
        <path id="Path_70558" data-name="Path 70558" d="M338.58,310.251a10.6,10.6,0,0,1,.857,2.506c0,.664-.265,1.592-.265,2.389s-.266,1.46-.531.929a6.057,6.057,0,0,1-.4-1.46L338.11,317s.266,1.061-.4.8a2.207,2.207,0,0,1-1.327-1.858c0-.8,0-3.052.531-3.981S337.856,309.338,338.58,310.251Z" transform="translate(-335.837 -256.355)" fill="#fff" stroke="#263238" stroke-width="1"/>
        <g id="Group_42206" data-name="Group 42206">
          <path id="Path_70559" data-name="Path 70559" d="M382.848,245.856a8.156,8.156,0,0,1,1.128,5.188c-.226,3.384-.226,12.632.225,15.113s-5.413,6.992-6.316,7.895-2.256-4.511-2.256-4.511l4.06-4.737-.451-11.278S380.818,245.63,382.848,245.856Z" transform="translate(-356.236 -223.017)" fill="#d42941" stroke="#263238" stroke-width="1"/>
          <g id="Group_42202" data-name="Group 42202" transform="translate(6.537 15.163)">
            <path id="Path_70560" data-name="Path 70560" d="M362.8,255.935c0-4.438,7.06-16.742,7.06-16.742s-1.21-3.833-2.622-4.034a41.847,41.847,0,0,0-4.236-.2l-.4-4.841-.478.159c-.112.168.187-.548.068-.369a3.509,3.509,0,0,1-2.133,1.034,8.7,8.7,0,0,1-1.087,4.219c-1.008,1.21-5.85,2.017-6.253,3.429s-3.228,17.347-3.228,25.012c0,2.538-.28,6.317-.629,10.394l7.669,1.228-1.579,5.864s-1.193,8.823-1.193,9.787,2.993,8.833,2.993,8.833l2.018,13.988,2.823-.07s.2-9.884.2-12.91-2.622-10.893-2.622-10.893,6.253-18.356,6.253-22.793S362.8,260.372,362.8,255.935Z" transform="translate(-348.856 -229.877)" fill="#0b3454" stroke="#0b3454" stroke-width="1"/>
            <path id="Path_70561" data-name="Path 70561" d="M373.346,316.4a12.823,12.823,0,0,0,3.453-2.374" transform="translate(-361.586 -273.617)" fill="none" stroke="#fff" stroke-linecap="round" stroke-linejoin="round" stroke-width="0.5"/>
          </g>
          <path id="Path_70562" data-name="Path 70562" d="M363.042,404.344a21.078,21.078,0,0,1-2.78,1.49c-.695.2-3.177.5-3.177.894s3.674.894,5.064.894a29.016,29.016,0,0,0,3.277-.1c.695-.1.439-3.248.439-3.248Z" transform="translate(-346.596 -305.363)" fill="#fff" stroke="#5cae48" stroke-width="1"/>
          <path id="Path_70563" data-name="Path 70563" d="M363.7,409.248c-1.84,0-4.848-.327-6.167-.482-.272.092-.451.19-.451.3,0,.4,3.674.894,5.064.894a29.024,29.024,0,0,0,3.277-.1c.181-.026.3-.26.369-.589C365.182,409.256,364.471,409.248,363.7,409.248Z" transform="translate(-346.596 -307.698)" fill="#5cae48" stroke="#5cae48" stroke-width="1"/>
          <path id="Path_70564" data-name="Path 70564" d="M367.893,235.158a41.846,41.846,0,0,0-4.236-.2l-.4-4.841-.478.159c-.112.168.187-.548.068-.369a3.509,3.509,0,0,1-2.133,1.034,8.7,8.7,0,0,1-1.087,4.219c-1.008,1.21-5.849,2.017-6.253,3.429s-3.228,17.347-3.228,25.012c0,.4-.008.842-.021,1.3,3.145.751,8.3,1.181,15.6-.647-.717-2.806-2.264-4.91-2.264-8.322,0-4.438,7.06-16.742,7.06-16.742S369.305,235.36,367.893,235.158Z" transform="translate(-342.977 -214.714)" fill="#d42941" stroke="#263238" stroke-width="1"/>
          <g id="Group_42203" data-name="Group 42203" transform="translate(11.459 5.849)">
            <path id="Path_70565" data-name="Path 70565" d="M361.752,210.926s-.791,3.3-1.186,3.559-1.582.791-1.45,1.186a10.734,10.734,0,0,0,1.055,1.582s-.222,3.408.173,3.8,1.145.678,2.727.678,3.427-.527,3.954-1.318l1.055-1.581s.922,0,.922-1.318.659-3.032-.922-4.877S363.2,209.871,361.752,210.926Z" transform="translate(-359.106 -210.482)" fill="#fff" stroke="#263238" stroke-width="1"/>
            <path id="Path_70566" data-name="Path 70566" d="M364.137,219.3c-.055.356.006.661.135.68s.279-.253.333-.609-.006-.661-.135-.68S364.192,218.939,364.137,219.3Z" transform="translate(-361.711 -214.746)" fill="#263238"/>
            <path id="Path_70567" data-name="Path 70567" d="M365.494,216.74s-.479-1.245-1.341-.766" transform="translate(-361.729 -213.28)" fill="none" stroke="#263238" stroke-linecap="round" stroke-linejoin="round" stroke-width="1"/>
          </g>
          <g id="Group_42204" data-name="Group 42204" transform="translate(11.217)">
            <path id="Path_70568" data-name="Path 70568" d="M360.64,205.266a20.634,20.634,0,0,0,3.548,3.166c2.07,1.432,3.183.72,2.858,3.4s-2.592,6.771-.617,9.962,5.691,5.649,12.165,2.892,7.307-9.623,4.447-12.331-5.317-2.888-6.707-5.064-.472-5.843-4.1-7.109-6.717-.106-7.648-.219-.793-2.221-3.713-1.513S357.815,204.216,360.64,205.266Z" transform="translate(-358.601 -198.301)" fill="#263238" stroke="#263238" stroke-width="1"/>
            <path id="Path_70569" data-name="Path 70569" d="M361.034,203.531s-2.59-.1-2.291,1.693.9,1.793,3.985,2.491,6.475.8,7.173,3.786-1.4,7.77-1.2,11.357,2.391,4.881,4.782,5.18" transform="translate(-358.662 -201.019)" fill="none" stroke="#fff" stroke-linecap="round" stroke-linejoin="round" stroke-width="0.5"/>
            <path id="Path_70570" data-name="Path 70570" d="M375.78,222.617s2.192,1.4,2.092,6.177" transform="translate(-367.531 -210.94)" fill="none" stroke="#fff" stroke-linecap="round" stroke-linejoin="round" stroke-width="0.5"/>
            <path id="Path_70571" data-name="Path 70571" d="M367.689,208.457s3.885-1.694,6.476.5,1.793,4.981,2.789,7.97,3.587,7.671,7.472,8.767,5.081-4.284,3.387-5.081-3.487.4-2.79,1.992" transform="translate(-363.325 -203.256)" fill="none" stroke="#fff" stroke-linecap="round" stroke-linejoin="round" stroke-width="0.5"/>
          </g>
          <g id="Group_42205" data-name="Group 42205" transform="translate(3.912 55.91)">
            <path id="Path_70572" data-name="Path 70572" d="M354.384,317.621l-5.979,17.357s6.172,6.75,6.943,10.029,2.893,13.886,2.893,13.886l-2.416.694s-3.755-7.059-6.069-11.494-6.364-8.871-6.364-12.15,1.157-18.322,1.543-21.214" transform="translate(-343.391 -314.728)" fill="#021d33" stroke="#021d33" stroke-width="1"/>
            <path id="Path_70573" data-name="Path 70573" d="M368.044,400.97c.435,1.033.694,1.657.694,1.657" transform="translate(-356.205 -359.555)" fill="none" stroke="#fff" stroke-linecap="round" stroke-linejoin="round" stroke-width="0.5"/>
            <path id="Path_70574" data-name="Path 70574" d="M350.836,328.477s-3.535,13.4-1.731,15.656c1.348,1.685,5.995,12.464,8.261,17.813" transform="translate(-346.094 -321.875)" fill="none" stroke="#fff" stroke-linecap="round" stroke-linejoin="round" stroke-width="0.5"/>
          </g>
          <path id="Path_70575" data-name="Path 70575" d="M356.555,297.582l-11.5,1.21s-1.944,11.649-.936,12.254a24.083,24.083,0,0,0,4.24,1.372s8.193.494,8.6-.716S356.555,297.582,356.555,297.582Z" transform="translate(-339.708 -249.906)" fill="#fff" stroke="#263238" stroke-width="1"/>
          <path id="Path_70576" data-name="Path 70576" d="M357.882,269.416s-.153-19.963-.2-22.592a3.221,3.221,0,0,0-2.824-3.429s-4.236.605-4.236,5.648-4.236,21.583-4.236,21.583l1.727-.373,4.324-22.824s.4-1.815,2.017-1.815,1.613,2.017,1.613,3.631.167,20.332.167,20.332Z" transform="translate(-341.035 -221.74)" fill="#fff" stroke="#263238" stroke-width="1"/>
          <path id="Path_70577" data-name="Path 70577" d="M349.366,246.862s-1.415-1.042-3.118,1.6-3.555,12.813-3.555,15.32-2.109,5.76-3.355,7.572c-1.82,2.646-3.471,5.4-3.857,7.521s-.3,6.126.277,6.319.964.193.964-.579-.469-3.04.3-3.618.964-3.664.964-3.664,7.907-8.678,9.065-10.607,3.278-12.343,3.278-12.343S350.908,248.79,349.366,246.862Z" transform="translate(-335.244 -223.437)" fill="#fff" stroke="#263238" stroke-width="1"/>
          <path id="Path_70578" data-name="Path 70578" d="M350.546,246.862s-1.415-1.042-3.118,1.6-3.555,12.813-3.555,15.32-2.109,5.76-3.355,7.572a36.5,36.5,0,0,0-3,5.029,4.121,4.121,0,0,0,1.7.892c.652-.716,7.907-8.708,9.013-10.55,1.157-1.929,3.278-12.343,3.278-12.343S352.089,248.79,350.546,246.862Z" transform="translate(-336.424 -223.437)" fill="#d42941" stroke="#263238" stroke-width="1"/>
          <path id="Path_70579" data-name="Path 70579" d="M364.069,407.37a14.417,14.417,0,0,1-1.191,2.78c-.4.4-3.178,1.291-3.575,1.688s1.589.894,3.774.5,4.071-2.086,4.667-2.383-1.258-3.276-1.258-3.276A3.429,3.429,0,0,0,364.069,407.37Z" transform="translate(-347.723 -306.602)" fill="#fff" stroke="#5cae48" stroke-width="1"/>
          <path id="Path_70580" data-name="Path 70580" d="M363.076,414.879c2.184-.4,4.071-2.086,4.667-2.383.193-.1.127-.476-.048-.944-.019.01-.038.017-.057.027a18.6,18.6,0,0,1-5.057,2.408,12.5,12.5,0,0,1-3.278.4C358.906,414.78,360.892,415.277,363.076,414.879Z" transform="translate(-347.723 -309.146)" fill="#5cae48" stroke="#5cae48" stroke-width="1"/>
          <path id="Path_70581" data-name="Path 70581" d="M367.084,297.7s-1.115,14.558.25,14.715,1.731-.58,1.731-1.577-.646-13.259-.646-13.259Z" transform="translate(-351.571 -249.906)" fill="#fff" stroke="#263238" stroke-width="1"/>
        </g>
      </g>
    </g>
  </g>
</svg>
