<svg xmlns="http://www.w3.org/2000/svg" width="195.224" height="201.325" viewBox="0 0 195.224 201.325"><defs><style>.a,.e{opacity:0.66;}.b,.e,.h,.o{fill:#fff;}.c{opacity:0.84;}.d{opacity:0.81;}.f{fill:#3e479b;}.g{fill:#6d6cd4;}.h{opacity:0.12;}.i{fill:#f28393;}.j{fill:#c5d9ff;}.k{fill:#599af2;}.l{opacity:0.35;}.m{fill:#ecf1f7;}.n{fill:#4c65ba;opacity:0.36;}.o{opacity:0.47;}.p{fill:#f7a9b4;opacity:0.39;}</style></defs><g transform="translate(-43.571 -30.244)"><g transform="translate(43.571 30.244)"><g transform="translate(7.979 32.254)"><g class="a" transform="translate(41.151)"><g transform="translate(85.016)"><path class="b" d="M345.132,160.007h-4.2a3.2,3.2,0,0,1-3.2-3.2v-4.725a2.13,2.13,0,0,0-1.394-1.992c-.5-.182-.99-.387-1.468-.609a2.15,2.15,0,0,0-2.416.414l-3.341,3.342a3.2,3.2,0,0,1-4.523,0l-2.97-2.97a3.2,3.2,0,0,1,0-4.523l3.342-3.342a2.148,2.148,0,0,0,.413-2.416c-.223-.483-.428-.977-.608-1.469a2.131,2.131,0,0,0-1.993-1.394h-4.725a3.2,3.2,0,0,1-3.2-3.2v-4.2a3.2,3.2,0,0,1,3.2-3.2h4.725a2.131,2.131,0,0,0,1.993-1.394c.181-.493.386-.987.608-1.468a2.149,2.149,0,0,0-.413-2.416l-3.342-3.342a3.2,3.2,0,0,1,0-4.522l2.97-2.97a3.2,3.2,0,0,1,4.523,0l3.341,3.342a2.149,2.149,0,0,0,2.416.414c.482-.223.977-.428,1.469-.609a2.131,2.131,0,0,0,1.394-1.993v-4.725a3.2,3.2,0,0,1,3.2-3.2h4.2a3.2,3.2,0,0,1,3.2,3.2v4.725a2.13,2.13,0,0,0,1.394,1.993c.492.181.986.385,1.468.608a2.148,2.148,0,0,0,2.416-.413l3.341-3.342a3.2,3.2,0,0,1,4.523,0l2.97,2.97a3.2,3.2,0,0,1,0,4.522l-3.342,3.342a2.147,2.147,0,0,0-.414,2.416c.222.482.427.976.608,1.469a2.131,2.131,0,0,0,1.993,1.394h4.725a3.2,3.2,0,0,1,3.2,3.2v4.2a3.2,3.2,0,0,1-3.2,3.2h-4.725a2.132,2.132,0,0,0-1.993,1.394c-.18.492-.385.986-.608,1.468a2.147,2.147,0,0,0,.413,2.416l3.342,3.342a3.2,3.2,0,0,1,0,4.523l-2.97,2.97a3.2,3.2,0,0,1-4.523,0l-3.341-3.342a2.149,2.149,0,0,0-2.416-.414c-.478.222-.972.427-1.468.609a2.13,2.13,0,0,0-1.394,1.992v4.725A3.2,3.2,0,0,1,345.132,160.007Zm-11.173-11.8a3.238,3.238,0,0,1,1.364.3c.452.209.919.4,1.388.574a3.211,3.211,0,0,1,2.1,3v4.725a2.124,2.124,0,0,0,2.121,2.122h4.2a2.124,2.124,0,0,0,2.122-2.122v-4.725a3.212,3.212,0,0,1,2.1-3c.469-.172.935-.365,1.387-.574a3.228,3.228,0,0,1,3.629.629l3.341,3.342a2.125,2.125,0,0,0,3,0l2.97-2.97a2.125,2.125,0,0,0,0-3l-3.342-3.342a3.227,3.227,0,0,1-.629-3.629c.21-.455.4-.922.574-1.386a3.211,3.211,0,0,1,3-2.1h4.725a2.124,2.124,0,0,0,2.122-2.122v-4.2a2.124,2.124,0,0,0-2.122-2.122h-4.725a3.211,3.211,0,0,1-3-2.1c-.171-.467-.365-.933-.574-1.387a3.226,3.226,0,0,1,.629-3.629l3.342-3.342a2.125,2.125,0,0,0,0-3l-2.97-2.97a2.125,2.125,0,0,0-3,0l-3.341,3.342a3.229,3.229,0,0,1-3.629.629c-.455-.21-.922-.4-1.386-.574a3.212,3.212,0,0,1-2.1-3v-4.725a2.124,2.124,0,0,0-2.122-2.122h-4.2a2.124,2.124,0,0,0-2.121,2.122v4.725a3.211,3.211,0,0,1-2.1,3c-.465.17-.932.364-1.388.574a3.227,3.227,0,0,1-3.629-.629l-3.341-3.342a2.126,2.126,0,0,0-3,0l-2.97,2.97a2.125,2.125,0,0,0,0,3l3.342,3.342a3.229,3.229,0,0,1,.629,3.629c-.21.454-.4.921-.575,1.387a3.21,3.21,0,0,1-3,2.1h-4.725a2.124,2.124,0,0,0-2.122,2.122v4.2a2.124,2.124,0,0,0,2.122,2.122h4.725a3.21,3.21,0,0,1,3,2.1c.171.464.364.931.575,1.387a3.23,3.23,0,0,1-.63,3.628l-3.342,3.342a2.125,2.125,0,0,0,0,3l2.97,2.97a2.126,2.126,0,0,0,3,0l3.341-3.342A3.2,3.2,0,0,1,333.959,148.207Zm9.073-1.607A14.771,14.771,0,1,1,357.8,131.829,14.788,14.788,0,0,1,343.032,146.6Zm0-28.465a13.695,13.695,0,1,0,13.695,13.695A13.71,13.71,0,0,0,343.032,118.134Z" transform="translate(-314.853 -103.65)"/></g><g class="c" transform="translate(49.117 107.763)"><path class="b" d="M306.5,329.291h-5.24a2.951,2.951,0,0,1-2.77-1.937q-.3-.807-.656-1.583a2.967,2.967,0,0,1,.578-3.352l3.705-3.705a2.95,2.95,0,0,0,0-4.172l-3.294-3.294a2.949,2.949,0,0,0-4.171,0l-3.706,3.706a2.967,2.967,0,0,1-3.352.578q-.776-.359-1.584-.656a2.951,2.951,0,0,1-1.937-2.77v-5.241a2.95,2.95,0,0,0-2.95-2.95h-4.658a2.95,2.95,0,0,0-2.95,2.95v5.241a2.951,2.951,0,0,1-1.937,2.77q-.808.3-1.583.656a2.967,2.967,0,0,1-3.352-.578l-3.705-3.706a2.95,2.95,0,0,0-4.172,0l-3.294,3.294a2.95,2.95,0,0,0,0,4.172l3.705,3.705a2.967,2.967,0,0,1,.578,3.352q-.359.775-.656,1.583a2.95,2.95,0,0,1-2.77,1.937h-5.24a2.95,2.95,0,0,0-2.95,2.95V336.9a2.95,2.95,0,0,0,2.95,2.95h5.24a2.95,2.95,0,0,1,2.77,1.937q.3.807.656,1.583a2.967,2.967,0,0,1-.578,3.352l-3.705,3.705a2.95,2.95,0,0,0,0,4.172l3.294,3.294a2.95,2.95,0,0,0,4.172,0l3.705-3.706a2.968,2.968,0,0,1,3.352-.578q.775.359,1.583.656a2.951,2.951,0,0,1,1.937,2.77v5.241a2.95,2.95,0,0,0,2.95,2.95h4.658a2.95,2.95,0,0,0,2.95-2.95v-5.241a2.951,2.951,0,0,1,1.937-2.77q.808-.3,1.584-.656a2.967,2.967,0,0,1,3.352.578l3.706,3.706a2.949,2.949,0,0,0,4.171,0l3.294-3.294a2.95,2.95,0,0,0,0-4.172l-3.705-3.705a2.967,2.967,0,0,1-.578-3.352q.359-.775.656-1.583a2.951,2.951,0,0,1,2.77-1.937h5.24a2.95,2.95,0,0,0,2.95-2.95v-4.658A2.95,2.95,0,0,0,306.5,329.291Zm-27.7,21.063a15.784,15.784,0,1,1,15.785-15.785A15.784,15.784,0,0,1,278.792,350.354Z" transform="translate(-248.138 -303.916)"/></g><g transform="translate(0 117.007)"><path class="b" d="M182.38,368.61h-3.528a2.776,2.776,0,0,1-2.772-2.773v-3.969a1.7,1.7,0,0,0-1.115-1.593c-.416-.152-.834-.324-1.24-.513a1.72,1.72,0,0,0-1.932.33l-2.807,2.807a2.771,2.771,0,0,1-3.921,0L162.57,360.4a2.772,2.772,0,0,1,0-3.921l2.807-2.806a1.718,1.718,0,0,0,.33-1.932c-.187-.4-.36-.822-.514-1.24a1.7,1.7,0,0,0-1.593-1.115h-3.969a2.776,2.776,0,0,1-2.773-2.773v-3.528a2.776,2.776,0,0,1,2.773-2.772H163.6a1.7,1.7,0,0,0,1.593-1.115c.154-.421.327-.838.514-1.24a1.719,1.719,0,0,0-.33-1.932l-2.807-2.807a2.771,2.771,0,0,1,0-3.921l2.495-2.5a2.776,2.776,0,0,1,3.921,0l2.807,2.807a1.717,1.717,0,0,0,1.932.33c.4-.186.818-.358,1.24-.513a1.7,1.7,0,0,0,1.115-1.593v-3.97a2.775,2.775,0,0,1,2.772-2.772h3.528a2.775,2.775,0,0,1,2.772,2.772v3.97a1.7,1.7,0,0,0,1.115,1.593c.422.155.839.327,1.24.513a1.719,1.719,0,0,0,1.933-.33l2.807-2.807a2.776,2.776,0,0,1,3.921,0l2.5,2.5a2.772,2.772,0,0,1,0,3.921l-2.807,2.807a1.719,1.719,0,0,0-.331,1.933c.187.4.359.818.514,1.24a1.7,1.7,0,0,0,1.593,1.114H201.6a2.776,2.776,0,0,1,2.773,2.772v3.528a2.776,2.776,0,0,1-2.773,2.773h-3.969a1.7,1.7,0,0,0-1.593,1.115c-.153.418-.327.836-.514,1.24a1.718,1.718,0,0,0,.331,1.932l2.807,2.806a2.773,2.773,0,0,1,0,3.921l-2.5,2.495a2.771,2.771,0,0,1-3.921,0l-2.807-2.807a1.721,1.721,0,0,0-1.933-.33c-.408.189-.825.362-1.24.514a1.7,1.7,0,0,0-1.114,1.593v3.969A2.776,2.776,0,0,1,182.38,368.61ZM173,358.525a2.815,2.815,0,0,1,1.182.26c.379.176.769.337,1.158.479a2.786,2.786,0,0,1,1.82,2.6v3.969a1.7,1.7,0,0,0,1.7,1.7h3.528a1.7,1.7,0,0,0,1.7-1.7v-3.969a2.785,2.785,0,0,1,1.82-2.6c.388-.142.778-.3,1.159-.479a2.8,2.8,0,0,1,3.146.546l2.807,2.807a1.736,1.736,0,0,0,2.4,0l2.5-2.5a1.7,1.7,0,0,0,0-2.4l-2.807-2.806a2.8,2.8,0,0,1-.546-3.146c.175-.378.336-.767.479-1.158a2.784,2.784,0,0,1,2.6-1.821H201.6a1.7,1.7,0,0,0,1.7-1.7v-3.528a1.7,1.7,0,0,0-1.7-1.7h-3.969a2.785,2.785,0,0,1-2.6-1.82c-.144-.394-.305-.783-.479-1.159a2.8,2.8,0,0,1,.546-3.146l2.807-2.807a1.7,1.7,0,0,0,0-2.4l-2.5-2.5a1.7,1.7,0,0,0-2.4,0l-2.807,2.807a2.8,2.8,0,0,1-3.146.546c-.374-.174-.764-.335-1.158-.48a2.784,2.784,0,0,1-1.82-2.6v-3.97a1.7,1.7,0,0,0-1.7-1.7h-3.528a1.7,1.7,0,0,0-1.7,1.7v3.97a2.784,2.784,0,0,1-1.82,2.6c-.394.145-.784.306-1.159.48a2.8,2.8,0,0,1-3.146-.546l-2.807-2.807a1.7,1.7,0,0,0-2.4,0l-2.495,2.5a1.7,1.7,0,0,0,0,2.4l2.807,2.807a2.8,2.8,0,0,1,.546,3.145c-.174.376-.335.765-.48,1.159a2.783,2.783,0,0,1-2.6,1.82h-3.969a1.7,1.7,0,0,0-1.7,1.7v3.528a1.7,1.7,0,0,0,1.7,1.7H163.6a2.784,2.784,0,0,1,2.6,1.82c.143.391.3.781.479,1.159a2.8,2.8,0,0,1-.546,3.146l-2.807,2.806a1.7,1.7,0,0,0,0,2.4l2.495,2.5a1.736,1.736,0,0,0,2.4,0l2.807-2.807A2.775,2.775,0,0,1,173,358.525Zm7.621-1.178a12.494,12.494,0,1,1,12.494-12.494A12.508,12.508,0,0,1,180.617,357.346Zm0-23.912a11.418,11.418,0,1,0,11.417,11.418A11.431,11.431,0,0,0,180.617,333.434Z" transform="translate(-156.859 -321.095)"/></g></g><g transform="translate(0 30.041)"><g class="d" transform="translate(141.675 60.767)"><path class="b" d="M409.948,300h-7.015a.538.538,0,1,1,0-1.076h7.015a.538.538,0,1,1,0,1.076Z" transform="translate(-370.796 -284.655)"/><path class="b" d="M409.948,321.48h-7.015a.538.538,0,1,1,0-1.076h7.015a.538.538,0,1,1,0,1.076Z" transform="translate(-370.796 -294.577)"/><path class="b" d="M387.783,310.985H345.131a1.461,1.461,0,0,1-1.459-1.459V273.867a1.461,1.461,0,0,1,1.459-1.459h42.651a1.46,1.46,0,0,1,1.459,1.459v35.659A1.461,1.461,0,0,1,387.783,310.985Zm-42.651-37.5a.384.384,0,0,0-.383.383v35.659a.384.384,0,0,0,.383.383h42.651a.384.384,0,0,0,.383-.383V273.867a.384.384,0,0,0-.383-.383Z" transform="translate(-343.672 -272.408)"/><path class="e" d="M387.783,310.985H345.131a1.461,1.461,0,0,1-1.459-1.459V273.867a1.461,1.461,0,0,1,1.459-1.459h42.651a1.46,1.46,0,0,1,1.459,1.459v35.659A1.461,1.461,0,0,1,387.783,310.985Zm-42.651-37.5a.384.384,0,0,0-.383.383v35.659a.384.384,0,0,0,.383.383h42.651a.384.384,0,0,0,.383-.383V273.867a.384.384,0,0,0-.383-.383Z" transform="translate(-343.672 -272.408)"/><path class="b" d="M387.275,289.572H353.847a.538.538,0,1,1,0-1.076h33.428a.538.538,0,1,1,0,1.076Z" transform="translate(-348.123 -279.839)"/><path class="b" d="M387.275,310.423H353.847a.538.538,0,1,1,0-1.076h33.428a.538.538,0,1,1,0,1.076Z" transform="translate(-348.123 -289.47)"/><path class="b" d="M371.87,300H353.847a.538.538,0,1,1,0-1.076H371.87a.538.538,0,1,1,0,1.076Z" transform="translate(-348.123 -284.655)"/><path class="b" d="M371.87,321.48H353.847a.538.538,0,1,1,0-1.076H371.87a.538.538,0,1,1,0,1.076Z" transform="translate(-348.123 -294.577)"/><path class="b" d="M366,331.432H353.847a.538.538,0,1,1,0-1.076H366a.538.538,0,0,1,0,1.076Z" transform="translate(-348.123 -299.174)"/></g><g class="d"><path class="b" d="M155.5,190.636h-7.959a.538.538,0,1,1,0-1.076H155.5a.538.538,0,0,1,0,1.076Z" transform="translate(-111.157 -173.373)"/><path class="b" d="M155.5,215.009h-7.959a.538.538,0,1,1,0-1.076H155.5a.538.538,0,0,1,0,1.076Z" transform="translate(-111.157 -184.631)"/><path class="b" d="M130.481,203.1H81.843a1.46,1.46,0,0,1-1.459-1.459v-40.7a1.46,1.46,0,0,1,1.459-1.459h48.638a1.46,1.46,0,0,1,1.459,1.459v40.7A1.46,1.46,0,0,1,130.481,203.1ZM81.843,160.555a.383.383,0,0,0-.383.383v40.7a.383.383,0,0,0,.383.383h48.638a.383.383,0,0,0,.383-.383v-40.7a.383.383,0,0,0-.383-.383Z" transform="translate(-80.384 -159.479)"/><path class="e" d="M130.481,203.1H81.843a1.46,1.46,0,0,1-1.459-1.459v-40.7a1.46,1.46,0,0,1,1.459-1.459h48.638a1.46,1.46,0,0,1,1.459,1.459v40.7A1.46,1.46,0,0,1,130.481,203.1ZM81.843,160.555a.383.383,0,0,0-.383.383v40.7a.383.383,0,0,0,.383.383h48.638a.383.383,0,0,0,.383-.383v-40.7a.383.383,0,0,0-.383-.383Z" transform="translate(-80.384 -159.479)"/><path class="b" d="M129.781,178.807H91.855a.538.538,0,1,1,0-1.076h37.926a.538.538,0,1,1,0,1.076Z" transform="translate(-85.434 -167.91)"/><path class="b" d="M129.781,202.464H91.855a.538.538,0,1,1,0-1.076h37.926a.538.538,0,1,1,0,1.076Z" transform="translate(-85.434 -178.837)"/><path class="b" d="M112.3,190.636H91.855a.538.538,0,1,1,0-1.076H112.3a.538.538,0,1,1,0,1.076Z" transform="translate(-85.434 -173.373)"/><path class="b" d="M112.3,215.009H91.855a.538.538,0,1,1,0-1.076H112.3a.538.538,0,1,1,0,1.076Z" transform="translate(-85.434 -184.631)"/><path class="b" d="M105.644,226.3H91.855a.538.538,0,0,1,0-1.076h13.789a.538.538,0,0,1,0,1.076Z" transform="translate(-85.434 -189.847)"/></g></g></g><g transform="translate(0 61.51)"><g transform="translate(125.494)"><path class="f" d="M365.723,158.019H341.537a2.594,2.594,0,0,0-2.4,1.968l-.8,2.658a2.6,2.6,0,0,1-2.4,1.968H301.312a2.757,2.757,0,0,0-2.54,2.931h0v39.2a2.757,2.757,0,0,0,2.54,2.932h64.41a2.828,2.828,0,0,0,2.713-2.932v-45.8A2.828,2.828,0,0,0,365.723,158.019Z" transform="translate(-298.772 -158.019)"/><path class="g" d="M341.013,167.072l.856-2.658a2.735,2.735,0,0,1,2.561-1.968h21.293a2.828,2.828,0,0,1,2.713,2.932v45.8a2.828,2.828,0,0,1-2.713,2.931H301.484a2.828,2.828,0,0,1-2.712-2.931v-39.2a2.828,2.828,0,0,1,2.712-2.932h36.967A2.736,2.736,0,0,0,341.013,167.072Z" transform="translate(-298.772 -160.063)"/><path class="h" d="M346.023,172.32l.806-2.506a2.579,2.579,0,0,1,2.415-1.855h20.069a2.666,2.666,0,0,1,2.556,2.763v43.166a2.666,2.666,0,0,1-2.556,2.763H308.764a2.666,2.666,0,0,1-2.556-2.763v-36.95a2.666,2.666,0,0,1,2.556-2.763h34.845A2.578,2.578,0,0,0,346.023,172.32Z" transform="translate(-302.207 -162.61)"/><path class="b" d="M400.493,238.505H384.6a.538.538,0,0,1,0-1.076h15.89a1.862,1.862,0,0,0,1.859-1.86V222.964a.538.538,0,1,1,1.076,0V235.57A2.939,2.939,0,0,1,400.493,238.505Z" transform="translate(-338.169 -187.769)"/></g><g transform="translate(0 44.585)"><path class="i" d="M68.285,240.875H92.627a2.7,2.7,0,0,1,2.414,2.214l.807,2.99a2.7,2.7,0,0,0,2.415,2.214h34.848c1.412,0,2.557,1.477,2.557,3.3h0v44.1c0,1.821-1.145,3.3-2.557,3.3H68.285a3.054,3.054,0,0,1-2.73-3.3V244.172A3.054,3.054,0,0,1,68.285,240.875Z" transform="translate(-65.555 -240.875)"/><path class="h" d="M93.154,251.059l-.861-2.99a2.82,2.82,0,0,0-2.579-2.214H68.285a3.054,3.054,0,0,0-2.73,3.3v51.516a3.054,3.054,0,0,0,2.73,3.3h64.653a3.054,3.054,0,0,0,2.73-3.3v-44.1a3.054,3.054,0,0,0-2.73-3.3H95.732A2.82,2.82,0,0,1,93.154,251.059Z" transform="translate(-65.555 -243.175)"/><path class="h" d="M91.569,256.962l-.811-2.819a2.658,2.658,0,0,0-2.431-2.087h-20.2a2.879,2.879,0,0,0-2.573,3.108v48.557a2.879,2.879,0,0,0,2.573,3.108h60.94a2.878,2.878,0,0,0,2.573-3.108V262.158a2.879,2.879,0,0,0-2.573-3.109H94A2.657,2.657,0,0,1,91.569,256.962Z" transform="translate(-65.555 -246.04)"/><path class="b" d="M74.385,267.6a.512.512,0,0,1-.482-.538V259.6a1.749,1.749,0,0,1,1.642-1.835H85.577a.541.541,0,0,1,0,1.076H75.545a.722.722,0,0,0-.679.759v7.469A.512.512,0,0,1,74.385,267.6Z" transform="translate(-69.411 -248.676)"/></g></g><g transform="translate(33.016)"><g transform="translate(12.334)"><g transform="translate(0 15.31)"><rect class="j" width="110.735" height="41.585" rx="20.792" transform="translate(0 26.062)"/><circle class="k" cx="29.242" cy="29.242" r="29.242" transform="translate(26.125)"/></g><rect class="k" width="110.735" height="41.585" rx="20.792" transform="translate(0 35.246)"/><circle class="k" cx="29.242" cy="29.242" r="29.242" transform="translate(16.941 23.141) rotate(-23.309)"/><g class="l"><rect class="m" width="110.735" height="41.585" rx="20.792" transform="translate(0 35.246)"/><circle class="m" cx="29.242" cy="29.242" r="29.242" transform="translate(16.941 23.141) rotate(-23.309)"/></g><g transform="translate(39.119 32.759)"><g transform="translate(8.065)"><path class="b" d="M238.864,114.608a1.345,1.345,0,0,1-.943-2.3l7.848-7.715,7.723,7.723a1.345,1.345,0,0,1-1.9,1.9l-5.837-5.836-5.945,5.844A1.34,1.34,0,0,1,238.864,114.608Z" transform="translate(-237.52 -104.589)"/><path class="b" d="M251.572,125.779a1.345,1.345,0,0,1-1.345-1.345V106.954a1.345,1.345,0,0,1,2.69,0v17.479A1.345,1.345,0,0,1,251.572,125.779Z" transform="translate(-243.389 -105.06)"/></g><path class="b" d="M251.5,146.508H225.863a3.336,3.336,0,0,1-3.332-3.332v-9.312a1.345,1.345,0,0,1,2.69,0v9.312a.643.643,0,0,0,.642.642H251.5a.844.844,0,0,0,.843-.843v-9.111a1.345,1.345,0,0,1,2.69,0v9.111A3.538,3.538,0,0,1,251.5,146.508Z" transform="translate(-222.531 -117.49)"/></g></g><g transform="translate(0 67.149)"><path class="n" d="M240.691,255.24l-73.356,24.236a3.421,3.421,0,0,1-4.321-2.175l-24.236-73.356a3.421,3.421,0,0,1,2.175-4.321l73.356-24.236a3.42,3.42,0,0,1,4.321,2.175l24.236,73.356A3.421,3.421,0,0,1,240.691,255.24Z" transform="translate(-132.312 -171.601)"/><rect class="b" width="84.098" height="84.098" rx="6.357" transform="translate(0 26.383) rotate(-18.283)"/><g transform="translate(9.001 9.062)"><rect class="j" width="69.774" height="69.774" transform="translate(0 21.889) rotate(-18.283)"/><path class="o" d="M179.019,302.93l-4.956-15,7.249-17.472a5.016,5.016,0,0,1,6.147-2.881l13.418,4.168a1.791,1.791,0,0,0,2.073-.79l11.171-18.593a9.283,9.283,0,0,1,11.585-3.733l12.3,5.293.114.345,8.678,26.268-.766.252Zm-3.235-14.935,4.261,12.9,64.719-21.383-8.059-24.39-11.636-5.006a7.662,7.662,0,0,0-9.564,3.082l-11.171,18.593a3.4,3.4,0,0,1-3.936,1.5l-13.417-4.168a3.408,3.408,0,0,0-4.178,1.958Z" transform="translate(-157.693 -214.229)"/><path class="o" d="M217,239.434A8.59,8.59,0,1,1,219.69,239,8.6,8.6,0,0,1,217,239.434Zm-.011-15.561a6.973,6.973,0,1,0,6.626,4.786A6.93,6.93,0,0,0,216.991,223.873Z" transform="translate(-173.557 -202.394)"/></g></g><g transform="translate(66.52 96.633)"><rect class="n" width="64.109" height="64.109" rx="6.357" transform="translate(3.254 3.254)"/><rect class="b" width="64.109" height="64.109" rx="6.357"/><g transform="translate(4.689 5.46)"><rect class="p" width="53.19" height="53.19" transform="translate(0.733)"/><path class="o" d="M314.051,307.146h-54.8V294.841l9.472-10.967a4.016,4.016,0,0,1,5.4-.646l8.715,6.226a1.176,1.176,0,0,0,1.453-.066L296.815,278.6a7.268,7.268,0,0,1,9.531.07l7.7,6.831Zm-53.19-1.614h51.576v-19.3l-7.161-6.349a5.65,5.65,0,0,0-7.407-.055l-12.533,10.786a2.785,2.785,0,0,1-3.444.156l-8.716-6.225a2.41,2.41,0,0,0-3.236.386l-9.079,10.513Z" transform="translate(-259.247 -253.493)"/><path class="o" d="M310.343,262.527a6.738,6.738,0,1,1,6.738-6.738A6.745,6.745,0,0,1,310.343,262.527Zm0-11.861a5.123,5.123,0,1,0,5.123,5.123A5.129,5.129,0,0,0,310.343,250.666Z" transform="translate(-279.736 -240.65)"/></g></g><g transform="translate(36.766 128.277)"><rect class="n" width="41.413" height="41.413" rx="6.357" transform="translate(2.706 15.761) rotate(-20.54)"/><rect class="b" width="41.413" height="41.413" rx="6.357" transform="translate(0 14.53) rotate(-20.54)"/><g transform="translate(4.518 4.548)"><rect class="k" width="34.359" height="34.359" transform="matrix(0.936, -0.351, 0.351, 0.936, 0, 12.056)"/><path class="o" d="M222.586,349.489l-2.927-7.811,3.281-8.881a2.878,2.878,0,0,1,3.459-1.79l6.683,1.79a.473.473,0,0,0,.539-.23l5.136-9.366a4.986,4.986,0,0,1,6.135-2.247l6.328,2.432,5.051,13.48Zm-1.2-7.815,2.149,5.737,30.664-11.489-4.23-11.289-5.651-2.171a3.362,3.362,0,0,0-4.14,1.516l-5.137,9.366a2.084,2.084,0,0,1-2.372,1.014l-6.684-1.791a1.268,1.268,0,0,0-1.527.79Z" transform="translate(-211.036 -304.444)"/><path class="o" d="M239.617,318.049a4.638,4.638,0,1,1,4.338-6.266h0a4.638,4.638,0,0,1-4.338,6.266Zm-.009-7.663a3.024,3.024,0,1,0,2.835,1.964A3.013,3.013,0,0,0,239.608,310.386Z" transform="translate(-218.11 -298.968)"/></g></g></g></g></g></svg>