<svg xmlns="http://www.w3.org/2000/svg" xmlns:xlink="http://www.w3.org/1999/xlink" width="289.473" height="175.332" viewBox="0 0 289.473 175.332"><defs><style>.a,.ab,.ac,.ag,.g,.i,.u{fill:none;}.b{fill:#f7f7f5;}.c{fill:#fff;}.d{fill:#f0e0df;}.e{fill:#335571;}.f{fill:#ffcb2d;}.g{stroke:#f0e0df;stroke-miterlimit:10;stroke-width:2.213px;}.h{fill:#d42941;}.ac,.i,.u{stroke:#fff;}.ab,.ac,.ag,.i,.u{stroke-linecap:round;stroke-linejoin:round;}.i{stroke-width:3px;}.j{fill:#ffa80a;}.k{fill:#f67b91;}.l{fill:#f88aa0;}.m{fill:#f6f6f6;}.n{opacity:0.71;}.o{clip-path:url(#c);}.p{fill:#0b3454;}.q{fill:#2b4183;}.r{fill:#18496f;}.s{fill:#fa849b;}.t{fill:#181f42;}.u{stroke-width:1.504px;}.v{fill:#0d3453;}.w{fill:#5cae48;}.x{fill:#051827;}.y{fill:#e6728c;}.z{fill:#312725;}.aa{fill:#f8879d;}.ab,.ag{stroke:#312725;}.ab{stroke-width:0.597px;}.ac{stroke-width:1.548px;}.ad{fill:#243b77;}.ae{fill:#ac0c22;}.af{fill:#32292a;}.ag{stroke-width:0.603px;}.ah{filter:url(#a);}</style><filter id="a" x="51.04" y="1.234" width="173.735" height="174.098" filterUnits="userSpaceOnUse"><feOffset input="SourceAlpha"/><feGaussianBlur stdDeviation="10" result="b"/><feFlood flood-opacity="0.161"/><feComposite operator="in" in2="b"/><feComposite in="SourceGraphic"/></filter><clipPath id="c"><circle class="a" cx="29.856" cy="29.856" r="29.856"/></clipPath></defs><g transform="translate(-65.989 -90.619)"><g transform="translate(65.989 187.776)"><path class="b" d="M122.522,356.384a35.356,35.356,0,0,1,7.229,1.592l0,0,.1.033.259.09c13.12,4.681,19.145,3.8,24.3,2.219,13.931-4.279,22.19-22.7,44.752-19.132,9.57,1.512,17.269,3.568,23.269,7.752l-.008-.018c.042.035.083.065.126.1.861.6,1.7,1.218,2.492,1.85,11.735,7.66,23.425-2.325,26.781-4.587.246-.179.5-1.6.753-1.776.135-.1.209-.158.209-.158v.012c14.7-10.363,38.09-20.86,60.636-18.283,38.738,4.428,54.328,48.362,54.328,48.362H78.274C82.8,364.045,100.883,353.91,122.522,356.384Z" transform="translate(-78.274 -325.678)"/></g><g transform="translate(147.029 90.619)"><g class="ah" transform="matrix(1, 0, 0, 1, -81.04, 0)"><rect class="c" width="113.735" height="114.098" transform="translate(81.04 31.23)"/></g><path class="d" d="M355.11,150.341v17.948H241.375V150.341a6.457,6.457,0,0,1,6.456-6.456H348.654A6.456,6.456,0,0,1,355.11,150.341Z" transform="translate(-241.375 -137.055)"/><g transform="translate(15.235)"><g transform="translate(75.523)"><circle class="e" cx="5.35" cy="5.35" r="5.35" transform="translate(0 12.625)"/><path class="f" d="M431.7,150.123h0a3.066,3.066,0,0,0,3.066-3.066V133.205a3.066,3.066,0,0,0-3.066-3.066h0a3.066,3.066,0,0,0-3.066,3.066v13.851A3.066,3.066,0,0,0,431.7,150.123Z" transform="translate(-426.347 -130.139)"/></g><g transform="translate(37.761)"><circle class="e" cx="5.35" cy="5.35" r="5.35" transform="translate(0 12.625)"/><path class="f" d="M355.7,150.123h0a3.066,3.066,0,0,0,3.066-3.066V133.205a3.066,3.066,0,0,0-3.066-3.066h0a3.066,3.066,0,0,0-3.067,3.066v13.851A3.066,3.066,0,0,0,355.7,150.123Z" transform="translate(-350.349 -130.139)"/></g><circle class="e" cx="5.35" cy="5.35" r="5.35" transform="translate(0 12.625)"/><path class="f" d="M279.7,150.123h0a3.066,3.066,0,0,0,3.066-3.066V133.205a3.066,3.066,0,0,0-3.066-3.066h0a3.066,3.066,0,0,0-3.066,3.066v13.851A3.066,3.066,0,0,0,279.7,150.123Z" transform="translate(-274.35 -130.139)"/></g><g transform="translate(17.759 49.57)"><rect class="g" width="21.625" height="21.625" transform="translate(79.169 21.625) rotate(180)"/><rect class="g" width="21.625" height="21.625" transform="translate(50.397 21.625) rotate(180)"/><rect class="g" width="21.625" height="21.625" transform="translate(21.625 21.625) rotate(180)"/><g transform="translate(0 27.451)"><rect class="g" width="21.625" height="21.625" transform="translate(79.169 21.625) rotate(180)"/><rect class="g" width="21.625" height="21.625" transform="translate(50.397 21.625) rotate(180)"/><rect class="h" width="21.625" height="21.625" transform="translate(21.625 21.625) rotate(180)"/><path class="i" d="M373.6,235.713l4.271,4.271,8.905-9.306" transform="translate(-369.378 -224.518)"/></g><g transform="translate(0 54.901)"><rect class="g" width="21.625" height="21.625" transform="translate(79.169 21.625) rotate(180)"/><rect class="g" width="21.625" height="21.625" transform="translate(50.397 21.625) rotate(180)"/><rect class="g" width="21.625" height="21.625" transform="translate(21.625 21.625) rotate(180)"/></g></g><g transform="translate(70.827 66.269)"><g transform="translate(0.107)"><g transform="translate(25.866)"><rect class="j" width="10.524" height="6.931" transform="translate(4.459 3.879)"/><path class="f" d="M452.8,269.19H439.034a2.838,2.838,0,0,1-2.838-2.839h0a2.838,2.838,0,0,1,2.838-2.838H452.8a2.838,2.838,0,0,1,2.838,2.838h0A2.839,2.839,0,0,1,452.8,269.19Z" transform="translate(-436.196 -263.513)"/></g><g transform="translate(0 10.497)"><rect class="j" width="8.391" height="5.919" transform="translate(4.136 9.83) rotate(-45)"/><path class="f" d="M396.079,288.292l-8.289,8.289a2.139,2.139,0,0,1-3.025,0h0a2.139,2.139,0,0,1,0-3.025l8.289-8.289a2.139,2.139,0,0,1,3.025,0h0A2.139,2.139,0,0,1,396.079,288.292Z" transform="translate(-384.138 -284.64)"/></g></g><g transform="translate(0 7.823)"><circle class="k" cx="35.57" cy="35.57" r="35.57"/><circle class="l" cx="33.657" cy="33.657" r="33.657" transform="translate(1.914 1.914)"/><circle class="m" cx="29.856" cy="29.856" r="29.856" transform="translate(5.714 5.714)"/><g class="n" transform="translate(5.714 5.714)"><g class="o"><path class="c" d="M389.772,292.957l45.254,70.124L455.47,345.5,410.7,282.735Z" transform="translate(-392.58 -286.722)"/><path class="c" d="M438.309,267.862l45.254,70.124,2.63-8.791-44.773-62.764Z" transform="translate(-417 -278.519)"/></g></g><g transform="translate(9.145 9.176)"><g transform="translate(25.823)"><path class="p" d="M455.05,300.992a.751.751,0,0,1-.751-.751v-1.763a.751.751,0,1,1,1.5,0v1.763A.751.751,0,0,1,455.05,300.992Z" transform="translate(-454.299 -297.727)"/><path class="p" d="M455.05,401.388a.751.751,0,0,1-.751-.751v-1.763a.751.751,0,1,1,1.5,0v1.763A.75.75,0,0,1,455.05,401.388Z" transform="translate(-454.299 -348.239)"/></g><g transform="translate(7.563 7.563)"><path class="p" d="M419.547,315.7a.749.749,0,0,1-.531-.22l-1.247-1.247a.751.751,0,0,1,1.062-1.062l1.247,1.247a.751.751,0,0,1-.531,1.282Z" transform="translate(-417.549 -312.949)"/><path class="p" d="M490.538,386.689a.749.749,0,0,1-.531-.22l-1.247-1.247a.751.751,0,0,1,1.062-1.062l1.247,1.247a.751.751,0,0,1-.531,1.282Z" transform="translate(-453.266 -348.667)"/></g><g transform="translate(7.563 7.563)"><path class="p" d="M418.3,386.689a.751.751,0,0,1-.531-1.282l1.247-1.247a.751.751,0,1,1,1.062,1.062l-1.247,1.247A.748.748,0,0,1,418.3,386.689Z" transform="translate(-417.549 -348.667)"/><path class="p" d="M489.291,315.7a.751.751,0,0,1-.531-1.282l1.247-1.247a.751.751,0,0,1,1.062,1.062l-1.247,1.247A.748.748,0,0,1,489.291,315.7Z" transform="translate(-453.266 -312.949)"/></g><g transform="translate(0 25.824)"><path class="p" d="M404.841,351.2h-1.763a.751.751,0,0,1,0-1.5h1.763a.751.751,0,0,1,0,1.5Z" transform="translate(-402.327 -349.7)"/><path class="p" d="M505.237,351.2h-1.763a.751.751,0,1,1,0-1.5h1.763a.751.751,0,1,1,0,1.5Z" transform="translate(-452.839 -349.7)"/></g><g transform="translate(22.458 8.938)"><path class="p" d="M455.788,333.069H452.2V317.51a1.794,1.794,0,0,1,1.795-1.794h0a1.794,1.794,0,0,1,1.794,1.794Z" transform="translate(-449.877 -315.716)"/><circle class="q" cx="4.116" cy="4.116" r="4.116" transform="translate(0 13.237)"/></g></g></g></g></g><g transform="translate(89.911 108.119)"><g transform="translate(6.384 54.287)"><g transform="translate(0)"><g transform="translate(18.828)"><path class="r" d="M192.816,275.405l6.5,28.668a7.736,7.736,0,0,1-2.748,7.148L177.161,326.4l.359-13.975,9.694-7.911-10.053-29.9Z" transform="translate(-177.161 -274.616)"/></g><g transform="translate(0 41.802)"><path class="s" d="M153.571,368.844l9.345-4.889-3.69-5.208-10.149,5.519,3.239,4.107Z" transform="translate(-144.203 -358.748)"/><g transform="translate(0 3.328)"><path class="t" d="M148.039,365.446s1.579,5.788,6.126,5.465l1.753,13.79L142.5,367.687Z" transform="translate(-140.895 -365.446)"/><rect class="c" width="21.666" height="2.046" transform="matrix(0.619, 0.785, -0.785, 0.619, 1.607, 2.242)"/><path class="u" d="M163.79,379.8a8.144,8.144,0,0,0-2.614-.264" transform="translate(-150.29 -372.528)"/><path class="u" d="M164.572,383.859a8.14,8.14,0,0,0-2.614-.264" transform="translate(-150.684 -374.572)"/><path class="u" d="M165.354,387.921a8.141,8.141,0,0,0-2.614-.264" transform="translate(-151.077 -376.616)"/></g></g></g><g transform="translate(8.848 0.087)"><g transform="translate(0 58.009)"><path class="s" d="M168.452,402.232l.946-10.365-6.375-.327-.949,11.387h5.23Z" transform="translate(-159.59 -391.54)"/><g transform="translate(0 6.821)"><path class="t" d="M158.743,406.7s5.523,2.344,8.085-1.426l11.913,7.162H157.075Z" transform="translate(-157.075 -405.269)"/><rect class="c" width="21.666" height="2.046" transform="translate(0 7.162)"/><path class="u" d="M177.99,407.154a8.131,8.131,0,0,0-1.826,1.889" transform="translate(-166.68 -406.217)"/><path class="u" d="M181.665,409.055a8.144,8.144,0,0,0-1.825,1.889" transform="translate(-168.528 -407.174)"/><path class="u" d="M185.338,410.956a8.145,8.145,0,0,0-1.825,1.889" transform="translate(-170.377 -408.13)"/></g></g><g transform="translate(1.248)"><path class="v" d="M162.512,274.791l-2.924,60.461h11.091l8.078-60.263Z" transform="translate(-159.587 -274.791)"/><path class="v" d="M200.439,275.935h0l-6.722,10.538-1.4-10.8Z" transform="translate(-176.052 -275.233)"/></g></g></g><g transform="translate(0 23.199)"><g transform="translate(34.631 1.117)"><path class="s" d="M259.974,249.375l-6.624.519,1.185-6.655,6.919.583Z" transform="translate(-224.913 -228.858)"/><g transform="translate(32.662 10.624)"><g transform="translate(0 0.375)"><path class="s" d="M270.14,246.667a4.644,4.644,0,1,1,.5-6.548A4.644,4.644,0,0,1,270.14,246.667Z" transform="translate(-262.165 -237.471)"/><path class="s" d="M267.045,237.467s-.843-1.943-2.809-.5-3.711,4.385-.957,8.16Z" transform="translate(-261.853 -236.433)"/></g><path class="s" d="M272.3,237.062l5.335-1.342a.875.875,0,0,1,1.086.528h0a.754.754,0,0,1-.4.943l-5.419,2.424Z" transform="translate(-267.111 -235.678)"/></g><path class="h" d="M206.166,217.047l8.75,13.845a4.84,4.84,0,0,1-1.579,6.409h0a4.839,4.839,0,0,1-6.688-1.388L197,222.612a5.364,5.364,0,0,1,.686-6.745h0A5.364,5.364,0,0,1,206.166,217.047Z" transform="translate(-196.118 -214.296)"/><path class="h" d="M210.83,241.308l.516-7.58,1.88,10.888Z" transform="translate(-203.52 -224.073)"/><g transform="translate(10.219 12.948)"><path class="h" d="M220.722,242.617l19.265-2.263-.061,8.8-17.917,2.309a4.474,4.474,0,0,1-5.321-4.555h0A4.473,4.473,0,0,1,220.722,242.617Z" transform="translate(-216.685 -240.354)"/></g></g><g transform="translate(0 12.914)"><g transform="translate(0 22.334)"><path class="s" d="M152.569,290.172s2.148.173,1.8-2.283-2.163-5.435-6.874-4.768Z" transform="translate(-137.022 -283.007)"/><rect class="w" width="21.625" height="21.625" transform="translate(21.625 26.855) rotate(180)"/><rect class="p" width="21.625" height="21.625" transform="translate(22.625 26.855) rotate(180)"/><path class="s" d="M140.153,288.744a4.729,4.729,0,1,1,5.642,3.59A4.728,4.728,0,0,1,140.153,288.744Z" transform="translate(-133.272 -282.988)"/></g><path class="h" d="M149.791,242.649l-.212,19.4-8.5-.4-.226-18.848a4.473,4.473,0,0,1,5.2-4.7h0A4.473,4.473,0,0,1,149.791,242.649Z" transform="translate(-133.678 -238.039)"/></g><g transform="translate(7.279)"><path class="h" d="M160.816,221.451l-11.721,11.44a4.84,4.84,0,0,1-6.6-.211h0a4.84,4.84,0,0,1-.034-6.83l11-12.2a5.365,5.365,0,0,1,6.741-.733h0A5.364,5.364,0,0,1,160.816,221.451Z" transform="translate(-141.07 -212.049)"/></g><g transform="translate(19.404 0)"><g transform="translate(0)"><path class="h" d="M186.175,213.147l-16.667-1.1c-1.5-.1-4.183,2.63-4.025,4.128l-.009,27.044,21.462.7,2.18-27.451A3.152,3.152,0,0,0,186.175,213.147Z" transform="translate(-165.473 -212.049)"/></g><path class="x" d="M165.473,241.157l4.841-4.724-4.838,12.8Z" transform="translate(-165.473 -224.317)"/></g></g><g transform="translate(25.206 0)"><path class="y" d="M201.661,189.63a2.257,2.257,0,0,0,2.005,2.469,2.232,2.232,0,0,0,2.393-2.074,2.256,2.256,0,0,0-2.005-2.468A2.232,2.232,0,0,0,201.661,189.63Z" transform="translate(-189.478 -176.522)"/><path class="s" d="M192.742,199.7l-.1,5.445A2.661,2.661,0,0,1,189.627,208h0c-1.556-.045-3.251-.832-3.151-2.516l.559-8.56Z" transform="translate(-181.84 -181.241)"/><path class="z" d="M193.162,204.415a5.736,5.736,0,0,1-5.726-4.729c-.4-1.581,5.8.55,5.8.55Z" transform="translate(-182.315 -182.336)"/><path class="aa" d="M189.283,188.477h0a5.749,5.749,0,0,0,5.862-5.038l.263-5.483a6.028,6.028,0,0,0-5.377-6.4h0c-3.248-.292-6.682,2.14-6.969,5.494l-.153,4.275A6.841,6.841,0,0,0,189.283,188.477Z" transform="translate(-180.045 -168.464)"/><g transform="translate(7.149 8.937)"><path class="ab" d="M200.4,190.662l.145,1.792-.769.015" transform="translate(-195.683 -187.027)"/><path class="z" d="M192.883,183.35s1.275-.085,1.279.451c0,0-.007.362-1.12.414s-1.4-.037-1.5-.38S192.286,183.343,192.883,183.35Z" transform="translate(-191.539 -183.345)"/><path class="z" d="M203.8,185.87s-1.049-.131-1.144.371c0,0-.056.339.863.433s1.221-.022,1.313-.3C204.931,186.069,204.295,185.887,203.8,185.87Z" transform="translate(-197.13 -184.608)"/><path class="z" d="M203.339,189.456a.535.535,0,1,0,.561-.524A.546.546,0,0,0,203.339,189.456Z" transform="translate(-197.476 -186.156)"/><path class="z" d="M193.918,188.964a.535.535,0,1,0,.561-.524A.545.545,0,0,0,193.918,188.964Z" transform="translate(-192.736 -185.908)"/><path class="ab" d="M196.512,195.859a1.772,1.772,0,0,0,1.786.585" transform="translate(-194.041 -189.641)"/></g><path class="z" d="M191.982,165.786c-1.191-.512-4.231-1.076-4.9,1.612-3.025-.231-7.838-.174-8.322,2.448-.711,3.853,2.024,7.671,2.024,7.671l.77.392s1.954-1.019,1.449-5.628c0,0,6.991,1.686,10.27-.088S195.559,167.325,191.982,165.786Z" transform="translate(-177.9 -165.358)"/><g transform="translate(0 10.636)"><path class="aa" d="M177.158,188.826a2.235,2.235,0,0,0,1.986,2.445,2.211,2.211,0,0,0,2.37-2.054,2.234,2.234,0,0,0-1.986-2.444A2.211,2.211,0,0,0,177.158,188.826Z" transform="translate(-177.15 -186.765)"/><path class="ab" d="M181.544,190.994s.139-1.631-1.393-1.509" transform="translate(-178.66 -188.13)"/></g><path class="s" d="M182.241,212.623l9.976.656s.316,3.438-4.121,3.2C183.1,216.213,182.241,212.623,182.241,212.623Z" transform="translate(-179.711 -189.138)"/></g></g><g transform="translate(248.77 109.604)"><g transform="translate(46.004 45.291)"><g transform="translate(21.652 49.764)"><path class="s" d="M592.142,369.765l-9.836-4.585,3.548-5.526,10.691,5.195-3.136,4.374Z" transform="translate(-582.306 -359.653)"/><g transform="translate(4.611 3.05)"><path class="t" d="M598.778,365.792s-1.351,6.023-6.039,5.905l-1.153,14.256,12.989-18.117Z" transform="translate(-591.586 -365.792)"/><rect class="c" width="22.293" height="2.106" transform="translate(14.7 3.27) rotate(125.637)"/><path class="ac" d="M593.6,381.03a8.378,8.378,0,0,1,2.674-.394" transform="translate(-592.601 -373.261)"/><path class="ac" d="M592.99,385.242a8.378,8.378,0,0,1,2.674-.394" transform="translate(-592.292 -375.38)"/><path class="ac" d="M592.377,389.454a8.363,8.363,0,0,1,2.674-.394" transform="translate(-591.984 -377.499)"/></g></g><path class="ad" d="M547.388,259.5s-6.427,23.982-7.372,28.711S537.178,302.4,541.15,305.8s19.23,11.57,19.23,11.57l5.613-10.077-9.091-5.465Z" transform="translate(-538.728 -259.499)"/><g transform="translate(3.635)"><g transform="translate(0 65.265)"><path class="s" d="M571.569,401.854l-2-10.665,6.559-.336,2.007,11.716h-5.382Z" transform="translate(-557.878 -390.852)"/><g transform="translate(0 7.019)"><path class="t" d="M566.62,406.445s-5.682,2.412-8.318-1.467l-12.258,7.369h22.293Z" transform="translate(-546.045 -404.978)"/><rect class="c" width="22.293" height="2.106" transform="translate(22.293 9.475) rotate(180)"/><path class="ac" d="M567.488,406.918a8.362,8.362,0,0,1,1.879,1.944" transform="translate(-556.833 -405.954)"/><path class="ac" d="M563.708,408.874a8.368,8.368,0,0,1,1.878,1.944" transform="translate(-554.932 -406.938)"/><path class="ac" d="M559.928,410.83a8.369,8.369,0,0,1,1.878,1.944" transform="translate(-553.03 -407.922)"/></g></g><path class="q" d="M555.508,259.5l-.638,36.18a20.028,20.028,0,0,0,.309,3.871l5.375,27.9H571.8l-3.138-31.468c.133-5.788,2.053-12.27,2.771-19.328,0,0,2.205-13.093-3.84-17.092Z" transform="translate(-550.483 -259.499)"/></g></g><g transform="translate(0 14.194)"><g transform="translate(0 0)"><g transform="translate(26.937 19.403)"><path class="s" d="M520.882,242.693l-18.39-6.729-2.138,3.58,17.928,9.5a4.1,4.1,0,0,0,5.495-4.567h0C523.515,243.036,522.265,243.185,520.882,242.693Z" transform="translate(-500.354 -235.964)"/></g><g transform="translate(17.939 15.654)"><path class="s" d="M491.121,229.437a1.367,1.367,0,0,0-1.285-.4.814.814,0,0,0-.517,1.269l.264.436c-.591.226-1.809.283-4.038-1.969a1.124,1.124,0,0,0-1.377-.2.692.692,0,0,0-.21.906c.008.015.018.03.027.045a1.022,1.022,0,0,0-.893.094.692.692,0,0,0-.21.906.9.9,0,0,0,.077.128.883.883,0,0,0-.42.145.693.693,0,0,0-.21.906,1.017,1.017,0,0,0,.191.265c.029.03.059.056.088.085-.013.008-.028.013-.041.022a.691.691,0,0,0-.21.906,1.007,1.007,0,0,0,.191.265,13.029,13.029,0,0,0,1.823,1.553h0l.028.018a8.622,8.622,0,0,0,.84.513c1.288.748,4.045.121,6.416.5l1.85-3.492Z" transform="translate(-482.245 -228.418)"/></g><rect class="p" width="22.171" height="22.171" transform="translate(29.2 8.889) rotate(113.638)"/><path class="s" d="M497.587,228.826l-1.8-2.1a.734.734,0,0,0-1.112,0h0a.734.734,0,0,0-.1.811l.908,1.79a4.986,4.986,0,0,0,1.073,4.545Z" transform="translate(-470.469 -211.784)"/><g transform="translate(41.718 13.47)"><path class="s" d="M544,244l-6.695,5.347a4.1,4.1,0,0,1-4.706.285h0c-2.072-1.278-3.338-2.458-1.846-4.382l7.354-7.458Z" transform="translate(-530.102 -230.949)"/><path class="h" d="M554.016,230.67s-.89,4.394-6.171,8.381l-8.141-7.687,6.587-7.341Z" transform="translate(-534.934 -224.022)"/></g></g><g transform="translate(60.47 10.974)"><g transform="translate(11.325 9.246)"><path class="s" d="M592.349,243.311,606.5,261.168l3.2-2.122s-8.123-15.123-11.9-19.894a4.1,4.1,0,0,0-7.052,1.15h0C590.254,241.68,591.406,242.186,592.349,243.311Z" transform="translate(-590.636 -237.608)"/><g transform="translate(15.868 21.438)"><path class="s" d="M623.259,286.468a1.33,1.33,0,0,0,.911.94.791.791,0,0,0,1.033-.843l-.023-.5c.609.082,1.676.6,2.534,3.56a1.094,1.094,0,0,0,1.083.811.674.674,0,0,0,.6-.677c0-.016,0-.034,0-.051a1,1,0,0,0,.807.335.673.673,0,0,0,.6-.676.9.9,0,0,0-.006-.146.862.862,0,0,0,.426.072.674.674,0,0,0,.6-.677.972.972,0,0,0-.04-.315c-.011-.039-.024-.075-.035-.113.015,0,.03,0,.046,0a.674.674,0,0,0,.6-.677,1,1,0,0,0-.04-.315,12.679,12.679,0,0,0-.836-2.175h0L631.5,285a8.489,8.489,0,0,0-.48-.828c-.752-1.239-3.4-1.985-5.247-3.414l-3.2,2.122Z" transform="translate(-622.573 -280.754)"/></g></g><path class="s" d="M584.695,226.931l6.44,5.651a4.094,4.094,0,0,1,1.108,4.583h0c-.894,2.264-1.833,3.718-3.989,2.588l-8.635-5.928Z" transform="translate(-573.768 -222.99)"/><path class="h" d="M570.478,219a17.162,17.162,0,0,1,10.376,4.581l-4.386,8.158-8.624-2.992Z" transform="translate(-567.844 -218.999)"/></g><g transform="translate(50.752 10.974)"><path class="h" d="M553.656,219.485s-5.354,1.479-5.372,8.657c-.01,3.918,3.912,10.979,3.912,10.979l12.087.066s1.775-4.923,2.838-9.373-2.339-8.68-6.483-10.815Z" transform="translate(-548.284 -218.999)"/><path class="ae" d="M580.4,241.192l-4.743-3.4,3.658,7.084Z" transform="translate(-562.055 -228.453)"/></g></g><g transform="translate(47.93 0)"><g transform="translate(0.932 6.786)"><g transform="translate(5.409 8.508)"><path class="aa" d="M560.267,211.787h0c1.677-.25,2.272-1.373,2.022-3.05l-1.864-9.609-5.058.809,1.411,9.267A3.069,3.069,0,0,0,560.267,211.787Z" transform="translate(-555.367 -199.128)"/><path class="af" d="M560.068,202.954s1.64,5.123-2.708,6.865l-.4-3.058,4.466-3.379" transform="translate(-556.167 -201.053)"/></g><path class="aa" d="M550.138,196.879h0c3.158-.3,5.5-2.827,5.234-5.645L554.5,182l-5.324.015c-1.962.186-4.662,2.788-4.5,4.54l.929,5.73C545.8,194.338,547.483,197.13,550.138,196.879Z" transform="translate(-544.577 -182.004)"/><path class="aa" d="M545.757,195.965l-1.21,3.092a.45.45,0,0,0,.466.668l2.082-.194Z" transform="translate(-544.481 -189.028)"/></g><g transform="translate(2.174 12.268)"><path class="z" d="M548.074,193.056s-1.135.031-1.093.505c0,0,.037.319,1.025.273s1.235-.15,1.29-.461S548.6,193,548.074,193.056Z" transform="translate(-546.98 -193.037)"/><path class="z" d="M548.346,197.152a.475.475,0,1,1-.54-.416A.484.484,0,0,1,548.346,197.152Z" transform="translate(-547.191 -194.896)"/><path class="ab" d="M548.573,203.881a1.335,1.335,0,0,0,1.16-.927" transform="translate(-547.781 -198.027)"/></g><path class="aa" d="M560.944,217.9l3.426.548s-3.6,5.831-7.141,4.433c-4.085-1.613,1.331-4.679,1.331-4.679Z" transform="translate(-549.195 -193.277)"/><path class="af" d="M552.915,186.376a4.408,4.408,0,0,1-3.183-3.191l-7.081,1.4s-1.1-7.054,7.379-8.383a8.218,8.218,0,0,1,8.4,3.442,6.912,6.912,0,0,1,.545,6.7,10.855,10.855,0,0,1-4.313,4.712L554,187.527S553.391,186.5,552.915,186.376Z" transform="translate(-542.605 -172.233)"/><g transform="translate(9.296 11.346)"><path class="aa" d="M565.726,193.47a2.254,2.254,0,0,1-2.227,2.266,2.23,2.23,0,0,1-2.184-2.287,2.254,2.254,0,0,1,2.226-2.266A2.23,2.23,0,0,1,565.726,193.47Z" transform="translate(-561.315 -191.182)"/><path class="ag" d="M564.228,195.427s.015-1.651,1.542-1.383" transform="translate(-562.781 -192.607)"/></g><path class="af" d="M581.806,172.937a5.506,5.506,0,1,1-6.346-4.513A5.506,5.506,0,0,1,581.806,172.937Z" transform="translate(-556.826 -168.347)"/></g></g></g></svg>