<svg xmlns="http://www.w3.org/2000/svg" width="250.717" height="151" viewBox="0 0 250.717 151"><defs><style>.a{fill:#e1e1e1;}.b{fill:#f3f3f3;}.c{fill:#0b3454;}.d{fill:#fff;}.e{fill:#848484;}.f{fill:#f09959;}.g{fill:#2e5b9a;}.h{fill:#184364;}.i{fill:#be162d;}.j{fill:#e38540;}.k{fill:#d54a41;}.l{fill:#a3081e;}.m{fill:#303c60;}.n{fill:#74b570;}.o{fill:#9cd499;}</style></defs><g transform="translate(-1020.407 -447.5)"><g transform="translate(772.912 320.937)"><g transform="translate(256.99 126.563)"><g transform="translate(76.628 0)"><path class="a" d="M1470.5,159.518a30.437,30.437,0,0,0,.19-3.388c0-.6-.02-1.2-.055-1.8l-5.6-1.811a24.6,24.6,0,0,0-1.982-6.707l3.712-4.568a30.267,30.267,0,0,0-2.94-4.274l-5.6,1.827a24.877,24.877,0,0,0-5.542-4.26l.318-5.882a29.931,29.931,0,0,0-4.887-1.732l-3.457,4.771a24.895,24.895,0,0,0-6.989-.183l-3.2-4.947a29.929,29.929,0,0,0-4.972,1.469l.007,5.891a24.838,24.838,0,0,0-5.76,3.962l-5.492-2.119a30.27,30.27,0,0,0-3.163,4.113l3.466,4.758a24.608,24.608,0,0,0-2.337,6.592l-5.685,1.513a30.438,30.438,0,0,0-.191,3.388c0,.6.02,1.2.055,1.8l5.6,1.811a24.619,24.619,0,0,0,1.982,6.707l-3.712,4.567a30.221,30.221,0,0,0,2.94,4.274l5.6-1.827a24.868,24.868,0,0,0,5.542,4.26l-.319,5.882a29.954,29.954,0,0,0,4.887,1.732l3.457-4.771a24.89,24.89,0,0,0,6.989.183l3.2,4.947a29.926,29.926,0,0,0,4.972-1.47l-.007-5.891a24.827,24.827,0,0,0,5.76-3.962l5.492,2.119a30.3,30.3,0,0,0,3.163-4.113l-3.466-4.758a24.6,24.6,0,0,0,2.337-6.592Zm-29.983,8.447a11.835,11.835,0,1,1,11.834-11.835A11.835,11.835,0,0,1,1440.517,167.964Z" transform="translate(-1410.344 -126.563)"/><g transform="translate(45.872 22.468)"><path class="a" d="M1929.316,401.133a.442.442,0,0,1-.34-.725,20.022,20.022,0,0,0,3.528-19.284.442.442,0,0,1,.836-.288,20.908,20.908,0,0,1-3.684,20.138A.441.441,0,0,1,1929.316,401.133Z" transform="translate(-1928.874 -380.537)"/></g><g transform="translate(37.125 9.913)"><path class="a" d="M1837.475,243.84a.441.441,0,0,1-.3-.12,19.872,19.872,0,0,0-6.881-4.24.442.442,0,1,1,.3-.832,20.756,20.756,0,0,1,7.186,4.427.442.442,0,0,1-.3.764Z" transform="translate(-1829.999 -238.622)"/></g><g transform="translate(25.141 8.694)"><path class="a" d="M1694.972,226.346a.442.442,0,0,1-.108-.871,20.957,20.957,0,0,1,5.124-.634.442.442,0,1,1,0,.885,20.067,20.067,0,0,0-4.908.607A.442.442,0,0,1,1694.972,226.346Z" transform="translate(-1694.53 -224.841)"/></g></g><g transform="translate(0 85.063)"><path class="a" d="M585.82,1110.921a21.153,21.153,0,0,0,.132-2.346c0-.419-.014-.834-.038-1.247l-3.877-1.255a17.042,17.042,0,0,0-1.373-4.645l2.571-3.164a20.95,20.95,0,0,0-2.037-2.96l-3.878,1.265a17.243,17.243,0,0,0-3.839-2.951l.221-4.074a20.77,20.77,0,0,0-3.385-1.2l-2.395,3.3a17.251,17.251,0,0,0-4.841-.127l-2.217-3.427a20.741,20.741,0,0,0-3.444,1.018l.005,4.08a17.2,17.2,0,0,0-3.99,2.744l-3.8-1.468a20.972,20.972,0,0,0-2.191,2.849l2.4,3.3a17.046,17.046,0,0,0-1.619,4.566l-3.938,1.048a21.1,21.1,0,0,0-.132,2.347c0,.419.014.834.038,1.247l3.877,1.254a17.039,17.039,0,0,0,1.373,4.646l-2.571,3.164a20.969,20.969,0,0,0,2.036,2.961l3.878-1.265a17.231,17.231,0,0,0,3.839,2.951l-.221,4.074a20.735,20.735,0,0,0,3.385,1.2l2.395-3.3a17.236,17.236,0,0,0,4.841.127l2.217,3.427a20.725,20.725,0,0,0,3.444-1.018l-.005-4.08a17.2,17.2,0,0,0,3.99-2.744l3.8,1.468a20.962,20.962,0,0,0,2.191-2.849l-2.4-3.3a17.047,17.047,0,0,0,1.619-4.566Zm-20.767,5.851a8.2,8.2,0,1,1,8.2-8.2A8.2,8.2,0,0,1,565.052,1116.771Z" transform="translate(-544.153 -1088.095)"/><g transform="translate(31.637 15.426)"><path class="a" d="M902.213,1277.009a.442.442,0,0,1-.34-.725,13.732,13.732,0,0,0,2.419-13.226.442.442,0,0,1,.836-.288,14.616,14.616,0,0,1-2.576,14.08A.441.441,0,0,1,902.213,1277.009Z" transform="translate(-901.771 -1262.472)"/></g><g transform="translate(25.578 6.73)"><path class="a" d="M838.6,1168.061a.441.441,0,0,1-.3-.12,13.631,13.631,0,0,0-4.719-2.908.442.442,0,1,1,.3-.832,14.505,14.505,0,0,1,5.024,3.1.442.442,0,0,1-.3.764Z" transform="translate(-833.286 -1164.174)"/></g><g transform="translate(17.277 5.886)"><path class="a" d="M739.9,1155.944a.442.442,0,0,1-.108-.871,14.651,14.651,0,0,1,3.583-.443.442.442,0,0,1,0,.885,13.771,13.771,0,0,0-3.366.416A.443.443,0,0,1,739.9,1155.944Z" transform="translate(-739.454 -1154.63)"/></g></g><path class="a" d="M2006.2,598.24c0-.229-.007-.456-.019-.682l2.9-2.332a15.447,15.447,0,0,0-1.055-3.337l-3.751-.284a12.488,12.488,0,0,0-3.247-3.445l-.013-3.738a15.484,15.484,0,0,0-3.326-1.283l-2.563,2.759a12.563,12.563,0,0,0-1.346-.073,12.43,12.43,0,0,0-3.264.434l-2.939-2.328a15.572,15.572,0,0,0-3.11,1.8l.556,3.706a12.439,12.439,0,0,0-2.619,3.821l-3.657.848a15.564,15.564,0,0,0-.54,3.525l3.221,1.862a12.325,12.325,0,0,0,1.378,4.552l-1.613,3.378a15.68,15.68,0,0,0,2.37,2.579l3.454-1.353a12.34,12.34,0,0,0,4.554,1.807l1.628,3.352c.194.007.388.012.584.012a15.68,15.68,0,0,0,2.856-.262l1.1-3.55a12.4,12.4,0,0,0,4.286-2.488l3.63.816a15.645,15.645,0,0,0,1.934-2.856l-2.1-3.09A12.392,12.392,0,0,0,2006.2,598.24Zm-12.551,5.47a5.229,5.229,0,1,1,5.229-5.229A5.229,5.229,0,0,1,1993.652,603.71Z" transform="translate(-1851.349 -542.748)"/></g><path class="b" d="M664.369,1701.207c-18.4-.9-80.987.624-100.022,1.219s-41.131-.784-52.608-2.81-77.821.172-74.81,5.62,29.559,2.437,59.666,4.626,97.817-.274,113.09,0,29.279-.548,48.961-1.642S675.034,1701.728,664.369,1701.207Z" transform="translate(-189.334 -1433.214)"/><g transform="translate(248.519 154.079)"><rect class="c" width="38.46" height="63.038" transform="translate(0 0)"/><rect class="d" width="35.181" height="59.351" transform="translate(2.014 1.284)"/></g><g transform="translate(334.262 154.079)"><path class="c" d="M0,0H38.46V63.038H0Z" transform="translate(0 0)"/><rect class="d" width="35.182" height="59.351" transform="translate(2.014 1.284)"/></g><g transform="translate(284.265 142.548)"><rect class="c" width="52.531" height="86.101" transform="translate(0 0)"/><rect class="d" width="48.053" height="81.065" transform="translate(2.751 1.754)"/></g><rect class="e" width="68.875" height="2.567" rx="1.283" transform="translate(353.02 223.314)"/><g transform="translate(380.229 179.461)"><path class="f" d="M2501.339,782.934a6.106,6.106,0,0,1-3.775,7.235c-2.457.7-4.211-1.491-5.124-4.711s.338-6.4,2.8-7.092S2500.426,779.714,2501.339,782.934Z" transform="translate(-2443.05 -773.477)"/><path class="f" d="M2411.049,1536.709s6.3,9.782,7.149,10.207,2.977.532,2.179,2.126-1.116,7.868-1.861,8.187-7.124,1.063-6.167,0,1.545-.532,2.028-2.446,1.161-5.529.258-6.273-6.433-7.443-6.433-7.443Z" transform="translate(-2366.537 -1464.857)"/><path class="f" d="M1950.034,1584.192s-7.656,12.617-9.073,13.751-6.1,2.836-2.268,3.119,5.671-1.276,8.081-1.985,5.387-1.134,4.253-2.977-.663-5.866,1.782-8.418S1950.034,1584.192,1950.034,1584.192Z" transform="translate(-1937.219 -1508.14)"/><path class="c" d="M2087.642,1253.365s-18.951-.5-26.465,5.671c-4.395,6.663-15.027,26.323-15.853,28.49a10.649,10.649,0,0,0,5.175,1.448c4.182-4.987,9.71-9.3,11.908-13.209,2.709-4.82,3.544-7.23,7.939-7.656s14.319-1.843,17.3-1.843S2087.642,1253.365,2087.642,1253.365Z" transform="translate(-2035.76 -1206.571)"/><path class="g" d="M2626.853,1469.043h-.993l-7.123-29.721h2.185Z" transform="translate(-2558.446 -1376.086)"/><path class="g" d="M2374.111,1458.217h.993l8.174-30.771h-2.185Z" transform="translate(-2335.461 -1365.26)"/><path class="h" d="M2261.787,1238.789l-11.018,1.9s-14.641.135-21.334,1.381c-6.089,1.134-6.987,8.053,0,17.579,3.969,5.412,7.324,9.729,14.186,14.6,1.745-1.281,2.414-1.766,2.9-4.85-.5-.681-1.782-4.943-2.182-5.777-3.8-7.934-8.861-10.819-8.932-11.6.851-1.382,22.531,7.2,26.842,2.154C2266.361,1249.352,2261.787,1238.789,2261.787,1238.789Z" transform="translate(-2199.109 -1193.293)"/><path class="i" d="M2506.037,955.536a11.53,11.53,0,0,0-8.622,2.145,17.337,17.337,0,0,0-4.981,13.22c.213,8.506-1.316,9.052.279,11.391,6.651,2.747,18.028,14.549,15.349,1.9-1.94-9.161,4.254-15.99-.742-26.152C2506.913,957.209,2506.4,956.406,2506.037,955.536Z" transform="translate(-2442.901 -934.984)"/><path class="i" d="M2492.436,996c-.129,4.434-.755,5.741-.277,7.131,2.712.277,7.672,1.362,8.912,3.1,1.417,1.985,2.835,2.268,2.173.8s-2.41-3.544.284-10.68,3.969-11.956,1.323-16.918Z" transform="translate(-2442.904 -956.878)"/><path class="f" d="M2562.062,864.272a34.612,34.612,0,0,1-2.225-8.983l-4.678,1.382s2.658,5.954.106,8.08a24.419,24.419,0,0,0-1.824,1.666A11.529,11.529,0,0,1,2562.062,864.272Z" transform="translate(-2498.927 -843.72)"/><path class="j" d="M2577.747,858.994c-.277-.246-.624-.554-.989-.876l-3.815,1.127-.008.021a15.583,15.583,0,0,1,1.192,4.66,13.447,13.447,0,0,0,3.805-3.78C2577.856,859.711,2577.795,859.322,2577.747,858.994Z" transform="translate(-2516.696 -846.298)"/><path class="f" d="M2320.873,970.487c-4.818,1.685-4.284,6.761-8.718,14.247-2.295,3.874-4.426,3.816-4.426,3.816a102.672,102.672,0,0,1-11.893-.753c-4.076-.5-4.335.715-1.5,1.729,5.718,2.044,11.652,4.245,16.437,3.713s12.968-12.739,13.389-15.917C2324.745,972.928,2323.3,969.638,2320.873,970.487Z" transform="translate(-2261.026 -948.604)"/><g transform="translate(40.427 32.369)"><path class="g" d="M2411.138,1122.512q-.449,0-.921-.012a45.822,45.822,0,0,1-8.747-1.077c-2.508-.51-3.89-.791-5.5-.022a1.238,1.238,0,1,1-1.068-2.235c2.356-1.126,4.328-.725,7.058-.17a43.623,43.623,0,0,0,8.315,1.028c4.151.1,6.682-.512,7.964-1.935,1.143-1.267,1.477-3.4,1.052-6.7-.146-1.131-.291-2.072-.419-2.9a20.107,20.107,0,0,1-.305-6.28,73.509,73.509,0,0,1,2.714-10.914,1.238,1.238,0,1,1,2.375.7c-3.174,10.688-3.013,11.729-2.335,16.11.13.844.278,1.8.428,2.964.524,4.075-.007,6.832-1.669,8.676C2418.369,1121.647,2415.59,1122.512,2411.138,1122.512Z" transform="translate(-2394.199 -1090.406)"/></g><path class="k" d="M1950.554,1704.4c-5.08,2.484-7.814,3.908-9.442,3.772-.385-.032-.7-.071-.97-.113-1.812,1.071-4.7,2.336-1.45,2.577,3.828.283,5.671-1.276,8.081-1.985s5.387-1.134,4.253-2.977A3.88,3.88,0,0,1,1950.554,1704.4Z" transform="translate(-1937.219 -1617.714)"/><path class="k" d="M2460.471,1654.431c-.125,4.022-.677,8.007-3.137,8.76a4.136,4.136,0,0,1-1.772.158c-.387.478-.859.483-1.493,1.188-.957,1.063,5.422.319,6.167,0s1.064-6.592,1.861-8.187C2462.751,1655.04,2461.434,1654.734,2460.471,1654.431Z" transform="translate(-2408.256 -1572.165)"/><g transform="translate(8.75 27.693)"><path class="h" d="M2060.027,1054.054H2043.89a1.238,1.238,0,0,1-1.123-.717l-6.522-14.035a1.239,1.239,0,0,1,2.247-1.044l6.188,13.318h15.347a1.239,1.239,0,0,1,0,2.477Z" transform="translate(-2036.13 -1037.542)"/></g><path class="f" d="M2196.576,1151.248c-3.26-.047-6.494-1.991-8.1-1.707s-6.852,3.922-6.19,4.064,4.82-2.014,4.962-2.047a6.989,6.989,0,0,0,3.26,2.053c2.221.56.016-1.664,6.9.415C2201.884,1155.379,2196.576,1151.248,2196.576,1151.248Z" transform="translate(-2160.552 -1111.915)"/><path class="l" d="M2531.742,913.192l.48,3.86s-4.219.251-6.319,1.432a29.79,29.79,0,0,0-5.2,4.595l2.531-4.358.365-2.788Z" transform="translate(-2469.085 -896.5)"/><path class="l" d="M2371.921,965.814c-3.134-.587-4.583,2.221-6.616,6.8a65.9,65.9,0,0,1-6.191,10.869c-.689.718-11.625,0-11.625,0s-.33,3.166,0,3.544,2.221.331,2.221.331.756.6,1.465,1.082,6.71,1.376,9.5,1.234,5.34-.378,5.718-.8,7.987-12.145,8.459-16.351S2373.521,966.114,2371.921,965.814Z" transform="translate(-2311.061 -944.397)"/><path d="M2468.663,726.649c-5.927.284-5,9.2-5,9.2a11.526,11.526,0,0,0,4.765-.056,17.783,17.783,0,0,1-.142-3.4,22.31,22.31,0,0,0,.85,3.19c.682.313,1.453.035,2.765-.281a5.833,5.833,0,0,0,3.879,4.44c1.44.452,2.964.992,4.665.142s.766-9.546-.138-11.294c-1.356-2.625-3.61-4.974-7.508-3.733A28.968,28.968,0,0,0,2468.663,726.649Z" transform="translate(-2417.044 -724.512)"/><path d="M2637.22,861.8l2.423,3.54s-2.685,6.71,5.126,9.751c6.118,2.381,5.4,6.576,2.632,10.8s1.654,7.9,1.654,7.9.674-4.674,6.618-5.556c8.1-1.2,10.4-12.084,4.346-17.524-5.009-4.5-6.533-.774-9.924-4.814s-9.792-1.311-9.792-1.311l-2.346-3.421Z" transform="translate(-2575.293 -849.075)"/><g transform="translate(64.794 13.969)"><path class="m" d="M2692.356,901.037a.215.215,0,0,1-.189-.319c2.038-3.724.375-8.236-.461-9.458-.089-.13-.173-.261-.262-.4-.822-1.283-1.845-2.879-7.3-3.861a8.686,8.686,0,0,1-3.505-1.845c-2.327-1.708-4.964-3.645-10.7-1.007a.215.215,0,1,1-.18-.392c5.96-2.744,8.707-.728,11.13,1.051a8.374,8.374,0,0,0,3.326,1.768c5.642,1.016,6.721,2.7,7.588,4.053.087.136.169.265.254.389.876,1.281,2.618,6.008.484,9.909A.216.216,0,0,1,2692.356,901.037Z" transform="translate(-2669.637 -882.409)"/></g><g transform="translate(54.299 7.923)"><path d="M2557.338,822.5a8.523,8.523,0,0,1-1.258-.1c-2.074-.311-4.856-1.489-5.074-8.107a.216.216,0,0,1,.431-.014c.09,2.728.631,4.746,1.608,6a4.519,4.519,0,0,0,3.1,1.7c1.919.287,3.191-.067,3.78-1.053a.215.215,0,1,1,.37.221A3.161,3.161,0,0,1,2557.338,822.5Z" transform="translate(-2551.006 -814.072)"/></g></g><path class="e" d="M1711.333,1287.333h1.593l6.2-47.356h-3.5Z" transform="translate(-1351.088 -1014.914)"/><path class="e" d="M2241.942,1287.333h-1.592l-6.2-47.356h3.5Z" transform="translate(-1827.657 -1014.914)"/><g transform="translate(457.491 221.414)"><path class="n" d="M2998.512,1323.431c2.755,2.516,1.557,5.031-.479,9.7s-2.4,21.922-2.4,21.922l1.677-.24s-.24-17.73,2.036-22.521,3.235-7.188,5.271-5.631S2998.512,1323.431,2998.512,1323.431Z" transform="translate(-2979.265 -1312.4)"/><path class="o" d="M3009.495,1206.507c.334-1.491,2.322-3.1,4.979-4.473-.4,2.2-1.662,5.794-.351,6.532,1.768.995.172-4.025.854-6.784a32.836,32.836,0,0,1,8.261-2.71c0,.01-.007.02-.011.03-1.557,3.953-3.594,5.511-2.755,6.11.631.451,2.686-4.116,5.4-6.457,2.037-.109,3.76.168,4.779.975,1.575,1.247,2.633,2.354,1.048,6.152a7.121,7.121,0,0,1-3.44,1.247c-3.594.359-5.271.479-2.755,1.677,1.232.586,3.3-.033,4.971-.411-.543,1-1.211,2.134-2.022,3.424a12.73,12.73,0,0,1-1.684,2.143,5.313,5.313,0,0,1-2.7,0c-1.677-.719-5.99-2.995-7.068-2.036-1.055.938,7.987,1.532,7.36,3.916-4.382,2.525-9.4,1.324-10.284-1C3012.883,1211.728,3008.487,1210.995,3009.495,1206.507Z" transform="translate(-2991.761 -1198.733)"/><path class="n" d="M2973.732,1463.358c-4.792-3.594-9.7-.24-12.219,3.594s-.719,12.459-.719,12.459.958,0,.958-.359-2.635-10.183,3.594-14.615c3.9-2.773,6.708-1.437,7.068-.12s-1.558,3.714-1.558,3.714Z" transform="translate(-2946.938 -1438.551)"/><path class="o" d="M2986.672,1395.649c4.792,0,6.349,7.427,5.031,11.74s-3.115,12.339-3.115,12.339l-1.2-1.2s4.552-11.261,3.474-16.292-3.713-5.87-4.192-5.87S2986.672,1395.649,2986.672,1395.649Z" transform="translate(-2970.899 -1378.229)"/><path class="n" d="M3021.906,1517.811a3.469,3.469,0,0,1,1.261-1.06,9.447,9.447,0,0,1-.249,1.027c-.6,1.965-1.3,4.7-1.885,7.1-.053-.307-.135-.78-.26-1.509-.03-.172-.054-.359-.07-.557A46.36,46.36,0,0,0,3021.906,1517.811Z" transform="translate(-3002.113 -1488.617)"/><path class="o" d="M3023.577,1459.544c9.1-3.833,4.308-9.094,12.334-5.62a1.4,1.4,0,1,1-.6,1.917c-2.4-.359-1.557,1.558,2.4,2.037a8.87,8.87,0,0,1,1.853.391c1.884,3.617,2.732,8.377-1.253,10.031a9.027,9.027,0,0,1-2.837.582c-1.23-.978.3-6.634-1.6-5.853-1.82.75.57,4.849.243,5.882a26.266,26.266,0,0,1-5.687-.8,2.831,2.831,0,0,1-1.5-1.73c-.6-2.516,3.354-4.073,3.474-6.229.11-1.982-1.449,4.361-5.58,5.295C3021.086,1463.7,3019.321,1461.336,3023.577,1459.544Z" transform="translate(-3002.475 -1430.314)"/><path class="o" d="M2825.186,1363.041c.958-2.036-1.557-2.516-1.438-.958.106,1.38.118,4.734-1.3,5.648a22.2,22.2,0,0,1-8.272-2.747,1.017,1.017,0,0,1,.106-.625c1.078-2.156,8.026-3.953,5.87-4.672-1.717-.572-4.727,2.806-7.151,4.508-1.457-1.1-2.432-2.422-2.432-3.893,0-1.99,2.418-4.243,5.546-5.32,1.407.142,2.715.911,4.757,2.068,3.016,1.71,2.319-1.054-.534-2.695a8.593,8.593,0,0,1,6.728,3.693,4.2,4.2,0,0,0,.966,2.736c3.1,4.533-.478,7.18-4.757,7.008A28.12,28.12,0,0,1,2825.186,1363.041Z" transform="translate(-2810.571 -1340.589)"/><path class="n" d="M3099.147,1476.546a40.688,40.688,0,0,0,8.14,5.364c3.194,1.438,2.556,6.123,2.556,6.123s.479-4.047-2.183-5.431-4.419-3.035-6.442-3.354a29.339,29.339,0,0,1-3.142-.639s.639-1.278.266-1.757S3099.147,1476.546,3099.147,1476.546Z" transform="translate(-3072.641 -1451.941)"/><path class="n" d="M3063.513,1236.565a37.579,37.579,0,0,0-16.027,9.1c-1.171,1.331-1.171,1.7-1.171,1.7l.906,1.7.425-.213s-.692-1.437,1.118-3.3a32.768,32.768,0,0,1,9.531-6.868C3060.9,1237.576,3063.513,1236.565,3063.513,1236.565Z" transform="translate(-3025.459 -1233.218)"/><path class="c" d="M5.854,0h0a5.854,5.854,0,0,1,5.854,5.854v5.887a0,0,0,0,1,0,0H0a0,0,0,0,1,0,0V5.854A5.854,5.854,0,0,1,5.854,0Z" transform="translate(21.883 50.797) rotate(180)"/><rect class="d" width="11.709" height="0.824" transform="translate(10.174 40.4)"/><rect class="d" width="11.709" height="0.485" transform="translate(10.174 41.903)"/></g></g><g transform="translate(1025.483 478.713)"><path class="a" d="M617.836,786.849H608.81a1.05,1.05,0,1,1,0-2.1h9.026a1.05,1.05,0,0,1,0,2.1Z" transform="translate(-598.715 -753.736)"/><path class="a" d="M602.46,823.3H590.128a1.05,1.05,0,0,1,0-2.1H602.46a1.05,1.05,0,0,1,0,2.1Z" transform="translate(-581.687 -785.963)"/><path class="a" d="M518.6,963.475H494.7a.625.625,0,0,1,0-1.218h23.9a.625.625,0,0,1,0,1.218Z" transform="translate(-492.043 -920.54)"/><path class="a" d="M518.6,995.471H494.7a.625.625,0,0,1,0-1.218h23.9a.625.625,0,0,1,0,1.218Z" transform="translate(-492.043 -949.705)"/><path class="a" d="M518.6,1027.467H494.7a.625.625,0,0,1,0-1.218h23.9a.625.625,0,0,1,0,1.218Z" transform="translate(-492.043 -978.871)"/></g><g transform="translate(1062.503 473.237)"><path class="a" d="M622.966,787.918H609.344a1.584,1.584,0,1,1,0-3.168h13.622a1.584,1.584,0,0,1,0,3.168Z" transform="translate(-595.217 -753.736)"/><path class="a" d="M609.273,824.37H590.663a1.584,1.584,0,0,1,0-3.168h18.611a1.584,1.584,0,0,1,0,3.168Z" transform="translate(-579.03 -783.812)"/><path class="a" d="M531.014,964.1H494.949a.943.943,0,0,1,0-1.838h36.065a.943.943,0,0,1,0,1.838Z" transform="translate(-492.043 -915.09)"/><path class="a" d="M531.014,996.091H494.949a.943.943,0,0,1,0-1.838h36.065a.943.943,0,0,1,0,1.838Z" transform="translate(-492.043 -942.814)"/><path class="a" d="M531.014,1028.088H494.949a.943.943,0,0,1,0-1.838h36.065a.943.943,0,0,1,0,1.838Z" transform="translate(-492.043 -970.539)"/></g><g transform="translate(1113.483 474.403)"><path class="a" d="M617.836,786.849H608.81a1.05,1.05,0,1,1,0-2.1h9.026a1.05,1.05,0,0,1,0,2.1Z" transform="translate(-598.715 -753.736)"/><path class="a" d="M602.46,823.3H590.128a1.05,1.05,0,0,1,0-2.1H602.46a1.05,1.05,0,0,1,0,2.1Z" transform="translate(-581.687 -785.963)"/><path class="a" d="M518.6,963.475H494.7a.625.625,0,0,1,0-1.218h23.9a.625.625,0,0,1,0,1.218Z" transform="translate(-492.043 -920.54)"/><path class="a" d="M518.6,995.471H494.7a.625.625,0,0,1,0-1.218h23.9a.625.625,0,0,1,0,1.218Z" transform="translate(-492.043 -949.705)"/><path class="a" d="M518.6,1027.467H494.7a.625.625,0,0,1,0-1.218h23.9a.625.625,0,0,1,0,1.218Z" transform="translate(-492.043 -978.871)"/></g><g transform="translate(1034.094 486)"><path class="c" d="M11.5,4.249a.5.5,0,0,1-.5-.5V3H9v.75a.5.5,0,0,1-1,0V3A1,1,0,0,1,9,2h2a1,1,0,0,1,1,1v.75A.5.5,0,0,1,11.5,4.249Z" transform="translate(-4.002)"/><path class="c" d="M6.352,13.5a1.029,1.029,0,0,1-.355.06,1.1,1.1,0,0,1-.385-.07L0,11.62v3.813a1.374,1.374,0,0,0,1.374,1.374h9.246A1.374,1.374,0,0,0,12,15.433V11.62Z" transform="translate(0 -4.812)"/><path class="c" d="M12,6.374V7.519L6.118,9.478a.37.37,0,0,1-.24,0L0,7.519V6.374A1.374,1.374,0,0,1,1.374,5h9.246A1.374,1.374,0,0,1,12,6.374Z" transform="translate(0 -1.501)"/></g><g transform="translate(1077.443 480)"><path class="c" d="M11.5,4.249a.5.5,0,0,1-.5-.5V3H9v.75a.5.5,0,0,1-1,0V3A1,1,0,0,1,9,2h2a1,1,0,0,1,1,1v.75A.5.5,0,0,1,11.5,4.249Z" transform="translate(-4.002)"/><path class="c" d="M6.352,13.5a1.029,1.029,0,0,1-.355.06,1.1,1.1,0,0,1-.385-.07L0,11.62v3.813a1.374,1.374,0,0,0,1.374,1.374h9.246A1.374,1.374,0,0,0,12,15.433V11.62Z" transform="translate(0 -4.812)"/><path class="c" d="M12,6.374V7.519L6.118,9.478a.37.37,0,0,1-.24,0L0,7.519V6.374A1.374,1.374,0,0,1,1.374,5h9.246A1.374,1.374,0,0,1,12,6.374Z" transform="translate(0 -1.501)"/></g><g transform="translate(1122.094 485)"><path class="c" d="M11.5,4.249a.5.5,0,0,1-.5-.5V3H9v.75a.5.5,0,0,1-1,0V3A1,1,0,0,1,9,2h2a1,1,0,0,1,1,1v.75A.5.5,0,0,1,11.5,4.249Z" transform="translate(-4.002)"/><path class="c" d="M6.352,13.5a1.029,1.029,0,0,1-.355.06,1.1,1.1,0,0,1-.385-.07L0,11.62v3.813a1.374,1.374,0,0,0,1.374,1.374h9.246A1.374,1.374,0,0,0,12,15.433V11.62Z" transform="translate(0 -4.812)"/><path class="c" d="M12,6.374V7.519L6.118,9.478a.37.37,0,0,1-.24,0L0,7.519V6.374A1.374,1.374,0,0,1,1.374,5h9.246A1.374,1.374,0,0,1,12,6.374Z" transform="translate(0 -1.501)"/></g></g></svg>