<svg xmlns="http://www.w3.org/2000/svg" width="200.003" height="156.679" viewBox="0 0 200.003 156.679">
  <g id="Group_41812" data-name="Group 41812" transform="translate(-12.315 -85.626)">
    <g id="Group_41726" data-name="Group 41726" transform="translate(21.672 214.614)">
      <path id="Path_69987" data-name="Path 69987" d="M35.475,379.86H208.7c2.339,0,4.683.042,7.022,0h.307a.623.623,0,0,0,0-1.244H42.8c-2.339,0-4.683-.043-7.022,0h-.307a.623.623,0,0,0,0,1.244Z" transform="translate(-34.874 -378.596)"/>
    </g>
    <path id="Path_69988" data-name="Path 69988" d="M55.07,207.381S14.06,186.94,25.611,151.937c9.534-28.891,31.081-23.294,43.513-32.753s35.54-35.321,68.377-23.809,16.847,45.25,41.351,61.331,21.486,45.753-12.567,54.025S78.853,215.039,55.07,207.381Z" transform="translate(-6.581 3.46)" fill="#f5f5f5"/>
    <g id="Group_41742" data-name="Group 41742" transform="translate(155.847 158.761)">
      <path id="Path_69989" data-name="Path 69989" d="M393.6,405.747c0,1.611-7.888,2.917-17.619,2.917s-17.619-1.306-17.619-2.917,7.888-2.917,17.619-2.917S393.6,404.136,393.6,405.747Z" transform="translate(-358.357 -336.925)" fill="#dbecf5"/>
      <g id="Group_41727" data-name="Group 41727" transform="translate(24.811 6.175)">
        <path id="Path_69990" data-name="Path 69990" d="M419.158,303.632a17.656,17.656,0,0,1-.091-6.625c.584-3.8,2.505-7.2,3.662-10.838A49.123,49.123,0,0,0,424.8,275.56a56.5,56.5,0,0,0-.08-11.741,21.51,21.51,0,0,0-.968-4.78c-.137-.373-.738-.212-.6.165a19.126,19.126,0,0,1,.839,3.818,53.474,53.474,0,0,1,.278,11.368,49.593,49.593,0,0,1-1.942,10.97c-.5,1.66-1.1,3.289-1.753,4.894a30.679,30.679,0,0,0-1.977,5.831,18.761,18.761,0,0,0-.04,7.713c.093.389.693.224.6-.166Z" transform="translate(-418.174 -258.827)"/>
      </g>
      <g id="Group_41728" data-name="Group 41728" transform="translate(30.252 8.054)">
        <path id="Path_69991" data-name="Path 69991" d="M437.486,263.444a10.511,10.511,0,0,0-1.758,2.453,31.751,31.751,0,0,0-3.164,8.532,58.951,58.951,0,0,0-1.27,8.157c-.036.4.586.4.622,0a49.078,49.078,0,0,1,2.617-12.6,20.727,20.727,0,0,1,2.818-5.434,5.633,5.633,0,0,1,.576-.668c.292-.275-.148-.715-.44-.44Z" transform="translate(-431.292 -263.358)"/>
      </g>
      <g id="Group_41729" data-name="Group 41729" transform="translate(28.244 26.254)">
        <path id="Path_69992" data-name="Path 69992" d="M432.283,307.271a6.979,6.979,0,0,0-1.469,1.093,13.953,13.953,0,0,0-2.866,3.787,19.884,19.884,0,0,0-1.484,3.694.312.312,0,0,0,.6.165c.876-2.962,2.441-6.087,5.05-7.9a4.218,4.218,0,0,1,.483-.3c.357-.181.043-.718-.314-.537Z" transform="translate(-426.45 -307.234)"/>
      </g>
      <path id="Path_69993" data-name="Path 69993" d="M401.014,254.553s-1.531,7.387-11.531,8.739c-6.306.721-9.189-1.529-9.189-1.529s2.793-2.074,4.5-8.561,4.6-8.468,9.82-9.189S402.636,247.976,401.014,254.553Z" transform="translate(-371.195 -243.94)" fill="#7ec682"/>
      <path id="Path_69994" data-name="Path 69994" d="M448.2,250.522a10.308,10.308,0,0,0,0,9.91c2.883,5.225,9.73,7.477,11.261,10.36a28.25,28.25,0,0,0,2.072-12.7C461.088,250.7,453.07,245.3,448.2,250.522Z" transform="translate(-410.188 -246.575)" fill="#7ec682"/>
      <path id="Path_69995" data-name="Path 69995" d="M440.73,299.777a4.974,4.974,0,0,0-1.755,2.478,13.61,13.61,0,0,0-.179,7.281c1.261,5.225,9.639,13.153,13.153,15.4a38.628,38.628,0,0,0,2.162-11.351C454.288,303.253,448.851,293.676,440.73,299.777Z" transform="translate(-405.193 -275.499)" fill="#7ec682"/>
      <g id="Group_41730" data-name="Group 41730" transform="translate(8.799 1.084)">
        <path id="Path_69996" data-name="Path 69996" d="M379.953,263.591a7.825,7.825,0,0,0,2.42-1.351,10.8,10.8,0,0,0,3.6-5.263c.387-1.2.509-2.46,1-3.632a10.923,10.923,0,0,1,1.773-2.853,9.119,9.119,0,0,1,5.438-3.26c2.833-.4,5.081,1.37,6.459,3.7a.311.311,0,1,0,.538-.314,7.536,7.536,0,0,0-5.542-4.032,8.223,8.223,0,0,0-5.86,2.033,11.451,11.451,0,0,0-3.764,5.566,25.934,25.934,0,0,1-1.183,4,10.031,10.031,0,0,1-1.952,2.789A7.939,7.939,0,0,1,379.788,263c-.382.117-.219.717.165.6Z" transform="translate(-379.57 -246.552)"/>
      </g>
      <g id="Group_41731" data-name="Group 41731" transform="translate(37.708 3.268)">
        <path id="Path_69997" data-name="Path 69997" d="M449.734,252.766a3.4,3.4,0,0,1,1.45-.323,5.6,5.6,0,0,1,3.759,1.632,17.545,17.545,0,0,1,4.136,6.462,19.492,19.492,0,0,1,1.388,5.627,14.089,14.089,0,0,1,.038,1.913q-.013.262-.042.525a.716.716,0,0,1-.016.119c-.066.392.533.56.6.165a10.372,10.372,0,0,0,.07-2.329,19.653,19.653,0,0,0-1.314-5.868,18.911,18.911,0,0,0-4.215-6.861,6.608,6.608,0,0,0-4.019-2,3.964,3.964,0,0,0-2.15.4.312.312,0,0,0,.314.538Z" transform="translate(-449.267 -251.819)"/>
      </g>
      <path id="Path_69998" data-name="Path 69998" d="M398.321,360.749S401.114,382.1,401.564,383s12.072,1.261,16.126,0l2.612-22.252Z" transform="translate(-381.745 -312.298)" fill="#e15672"/>
      <path id="Path_69999" data-name="Path 69999" d="M403.614,360.749h-5.293S401.114,382.1,401.564,383c.363.725,7.971,1.1,13.037.559C405.884,377.844,403.992,366.567,403.614,360.749Z" transform="translate(-381.745 -312.298)" fill="#c44161"/>
      <g id="Group_41732" data-name="Group 41732" transform="translate(35.238 23.959)">
        <path id="Path_70000" data-name="Path 70000" d="M443.612,302.331a7.128,7.128,0,0,1,3.648.931c3.085,1.629,4.792,4.9,5.656,8.154a35.838,35.838,0,0,1,.882,10.813c-.018.4.6.4.622,0a38.249,38.249,0,0,0-.686-10.084,17.272,17.272,0,0,0-2.5-6.078,9.866,9.866,0,0,0-6.123-4.219,5.967,5.967,0,0,0-1.5-.139c-.4.026-.4.649,0,.622Z" transform="translate(-443.313 -301.701)"/>
      </g>
      <g id="Group_41733" data-name="Group 41733" transform="translate(40.998 32.24)">
        <path id="Path_70001" data-name="Path 70001" d="M457.229,322.454l.888,2.347a.674.674,0,0,0,.286.372.622.622,0,0,0,.914-.7l-.888-2.347a.673.673,0,0,0-.286-.372.622.622,0,0,0-.914.7Z" transform="translate(-457.198 -321.666)" fill="#538c8c"/>
      </g>
      <g id="Group_41734" data-name="Group 41734" transform="translate(39.647 33.684)">
        <path id="Path_70002" data-name="Path 70002" d="M453.942,325.771v.09a.6.6,0,0,0,.382.568.471.471,0,0,0,.24.054l.165-.022a.622.622,0,0,0,.275-.16l.1-.126a.619.619,0,0,0,.085-.314v-.09a.69.69,0,0,0-.182-.44.461.461,0,0,0-.2-.129.468.468,0,0,0-.24-.054l-.166.022a.62.62,0,0,0-.275.16l-.1.126a.619.619,0,0,0-.085.314Z" transform="translate(-453.942 -325.148)" fill="#538c8c"/>
      </g>
      <g id="Group_41735" data-name="Group 41735" transform="translate(41.347 23.701)">
        <path id="Path_70003" data-name="Path 70003" d="M458.35,302.238c.065.046.129.093.191.141l-.126-.1a5.776,5.776,0,0,1,1.026,1.029l-.1-.126a5.859,5.859,0,0,1,.413.617.622.622,0,1,0,1.075-.628,6.437,6.437,0,0,0-1.854-2.011.628.628,0,0,0-.479-.063.637.637,0,0,0-.372.286.628.628,0,0,0-.063.479.7.7,0,0,0,.286.372Z" transform="translate(-458.041 -301.08)" fill="#538c8c"/>
      </g>
      <g id="Group_41736" data-name="Group 41736" transform="translate(41.812 13.33)">
        <path id="Path_70004" data-name="Path 70004" d="M459.338,277.136q1.237,1.293,2.356,2.692a.624.624,0,0,0,.88,0,.641.641,0,0,0,0-.88q-1.118-1.4-2.356-2.691a.622.622,0,1,0-.88.88Z" transform="translate(-459.16 -276.076)" fill="#538c8c"/>
      </g>
      <g id="Group_41737" data-name="Group 41737" transform="translate(42.35 10.081)">
        <path id="Path_70005" data-name="Path 70005" d="M460.641,269.306l.09.09a.467.467,0,0,0,.2.129.564.564,0,0,0,.479,0,.467.467,0,0,0,.2-.129l.1-.126a.62.62,0,0,0,.085-.314l-.022-.165a.624.624,0,0,0-.16-.275l-.09-.09a.64.64,0,0,0-.88,0l-.1.126a.623.623,0,0,0-.085.314l.022.165a.624.624,0,0,0,.16.275Z" transform="translate(-460.459 -268.244)" fill="#538c8c"/>
      </g>
      <g id="Group_41738" data-name="Group 41738" transform="translate(47.76 6.208)">
        <path id="Path_70006" data-name="Path 70006" d="M473.583,259.84a3.067,3.067,0,0,1,.227.431l-.063-.148a3.016,3.016,0,0,1,.21.767l-.022-.165c0,.022.006.044.008.066a.684.684,0,0,0,.182.44.621.621,0,0,0,.88,0,.6.6,0,0,0,.182-.44,3.561,3.561,0,0,0-.53-1.577.65.65,0,0,0-.372-.286.635.635,0,0,0-.48.063.622.622,0,0,0-.223.851Z" transform="translate(-473.5 -258.905)" fill="#538c8c"/>
      </g>
      <g id="Group_41739" data-name="Group 41739" transform="translate(20.909 11.115)">
        <path id="Path_70007" data-name="Path 70007" d="M413.583,270.915a27.142,27.142,0,0,1-4.512,3.553.622.622,0,1,0,.628,1.074,28.688,28.688,0,0,0,4.764-3.747C415.037,271.235,414.157,270.355,413.583,270.915Z" transform="translate(-408.766 -270.736)" fill="#538c8c"/>
      </g>
      <g id="Group_41740" data-name="Group 41740" transform="translate(21.899 7.739)">
        <path id="Path_70008" data-name="Path 70008" d="M412,262.683a2.588,2.588,0,0,0-.292.219,1.4,1.4,0,0,0-.152.153,1.941,1.941,0,0,0-.32.482.461.461,0,0,0-.074.231.64.64,0,0,0,.3.62l.149.063a.622.622,0,0,0,.331,0l.148-.063a.622.622,0,0,0,.223-.223,1.447,1.447,0,0,1,.178-.3l-.1.126a1.451,1.451,0,0,1,.255-.254l-.126.1c.034-.026.07-.051.107-.074a.652.652,0,0,0,.286-.372.468.468,0,0,0,.011-.248.461.461,0,0,0-.074-.231.627.627,0,0,0-.372-.286l-.165-.022a.622.622,0,0,0-.314.085Z" transform="translate(-411.154 -262.598)" fill="#538c8c"/>
      </g>
      <g id="Group_41741" data-name="Group 41741" transform="translate(15.604 12.605)">
        <path id="Path_70009" data-name="Path 70009" d="M397.933,274.63a14.908,14.908,0,0,1-.852,1.344c-.074.1-.148.205-.225.307l-.058.075c-.053.071.066-.083.01-.013l-.132.168q-.253.315-.523.616a.622.622,0,0,0,.88.88,15.539,15.539,0,0,0,1.974-2.749.622.622,0,0,0-1.074-.628Z" transform="translate(-395.976 -274.328)" fill="#538c8c"/>
      </g>
      <path id="Path_70010" data-name="Path 70010" d="M415.525,360.749h-1.248l-.036.3s8.716.513,10.676,2.621c1.655,1.781.513,15.53.119,19.752a13.561,13.561,0,0,0,1.971-.418l2.612-22.252Z" transform="translate(-391.061 -312.298)" fill="#ef819c"/>
    </g>
    <g id="Group_41743" data-name="Group 41743" transform="translate(62.445 222.462)">
      <path id="Path_70011" data-name="Path 70011" d="M160.21,397.517h68.341l25.045,8.649H181.345Z" transform="translate(-148.996 -397.517)" fill="#263238"/>
      <path id="Path_70012" data-name="Path 70012" d="M160.21,400.13v-2.613l21.135,8.649H253.6v3.018H181.39Z" transform="translate(-148.996 -397.517)" fill="#0c1419"/>
      <path id="Path_70013" data-name="Path 70013" d="M144.388,403.816s-16,5.09-9.776,7.545,30.956,1.509,30.956,1.509Z" transform="translate(-133.174 -401.203)" fill="#dbecf5"/>
    </g>
    <g id="Group_41745" data-name="Group 41745" transform="translate(39.75 219.247)">
      <ellipse id="Ellipse_447" data-name="Ellipse 447" cx="13.954" cy="3.446" rx="13.954" ry="3.446" transform="translate(0 16.166)" fill="#dbecf5"/>
      <path id="Path_70014" data-name="Path 70014" d="M104.379,392.332v17.747s1.8,3.243,8.558,3.784,9.279-3.153,9.279-3.153V392.332S115.28,394.4,104.379,392.332Z" transform="translate(-93.628 -391.267)" fill="#d52941"/>
      <path id="Path_70015" data-name="Path 70015" d="M92.88,408.775c-.236-.046-.482-.1-.693-.154s-.4-.112-.6-.177q-.174-.057-.344-.121-.106-.039-.212-.082L91,408.226a8.207,8.207,0,0,1-1.071-.579c-.089-.057-.177-.116-.263-.177l-.139-.1c-.137-.111-.272-.225-.4-.345s-.281-.275-.412-.421c-.064-.071-.124-.148-.189-.219l-.026-.027-.015-.022a8.644,8.644,0,0,1-.59-.949c-.056-.109-.107-.22-.158-.331.046.09-.117-.3-.143-.375a7.757,7.757,0,0,1-.273-1.032c-.017-.086-.028-.174-.045-.26v-.015c-.01-.144-.029-.287-.037-.432a8.1,8.1,0,0,1,.009-1.1c.007-.091.017-.182.028-.273,0,.039.047-.294.063-.37a7.246,7.246,0,0,1,.246-.907c.034-.1.243-.557.066-.192.053-.109.1-.22.156-.328.064-.125.134-.248.208-.367.048-.077.231-.3.225-.3.123-.126.25-.25.365-.38a.464.464,0,0,1,.046-.032,3.854,3.854,0,0,1,.855-.418,2.889,2.889,0,0,1,1.348-.068,4.857,4.857,0,0,1,.774.234l.128.058c.117.06.233.117.347.181a6.958,6.958,0,0,1,.6.379l.117.086.069.054V396.27a6.019,6.019,0,0,0-2.742-.605,5.261,5.261,0,0,0-4.569,3.007,8.966,8.966,0,0,0,1.348,9.652,9.84,9.84,0,0,0,5.963,2.957Z" transform="translate(-82.129 -393.216)" fill="#882130"/>
      <path id="Path_70016" data-name="Path 70016" d="M108.382,389.8c-4.459.135-4.02,1.025-4.02,1.025,10.9,2.072,17.837,0,17.837,0C123.247,389.8,112.435,389.682,108.382,389.8Z" transform="translate(-93.611 -389.765)"/>
      <path id="Path_70017" data-name="Path 70017" d="M106.933,392.753c-.825-.116-1.675-.254-2.554-.421v17.747s1.8,3.243,8.558,3.784c.433.035.848.051,1.247.053C108.676,407.957,107.176,395.219,106.933,392.753Z" transform="translate(-93.628 -391.267)" fill="#882130"/>
      <path id="Path_70018" data-name="Path 70018" d="M115.994,393.224c.736.165,1.485.33,2.229.489,5.09,1.085,4.865,4.689,5,9.419.13,4.556-.586,12.477-12.453,9.178a15.111,15.111,0,0,0,5.907,1.554c6.757.54,9.279-3.153,9.279-3.153V392.332a34.14,34.14,0,0,1-9.962.892Z" transform="translate(-97.368 -391.267)" fill="#882130" opacity="0.53"/>
      <g id="Group_41744" data-name="Group 41744" transform="translate(26.186 3.089)">
        <path id="Path_70019" data-name="Path 70019" d="M141.593,397.812q.219,3.374.114,6.757c-.025.8,1.219.8,1.244,0q.1-3.38-.114-6.757C142.786,397.012,141.537,397.012,141.593,397.812Z" transform="translate(-141.591 -397.213)" fill="#d52941"/>
      </g>
    </g>
    <g id="Group_41773" data-name="Group 41773" transform="translate(40.854 86.023)">
      <g id="Group_41746" data-name="Group 41746" transform="translate(73.742 18.753)">
        <path id="Path_70020" data-name="Path 70020" d="M258.9,114.089V130.17a.311.311,0,0,0,.622,0V114.089a.311.311,0,0,0-.622,0Z" transform="translate(-258.903 -113.788)"/>
      </g>
      <path id="Path_70021" data-name="Path 70021" d="M147.763,68.577l-31.621,17.7,29.729,15,30.4-13.648Z" transform="translate(-101.615 -68.577)" fill="#0d3453"/>
      <path id="Path_70022" data-name="Path 70022" d="M133.412,127.15s-1.621,8.288-1.441,11.982,1.081,12.132-3.153,14.624-5.045,5.285-4.324,8.528c0,0-4.324,4.144-1.531,8.2s12.883,10.991,30.54,7.567,20.775-7.387,21.6-9.64a3.753,3.753,0,0,0-2.054-4.775s1.711-4.144-.9-6.937-3.6-6.216-4.5-11.081a48.76,48.76,0,0,1-.9-8.018s2.883-4.234.631-10.45-11.892-10.9-21.081-7.387S133.412,127.15,133.412,127.15Z" transform="translate(-105.057 -97.826)" fill="#411a24"/>
      <path id="Path_70023" data-name="Path 70023" d="M137.3,181.34a9.889,9.889,0,0,1-.122,5.265,11.972,11.972,0,0,1-1.007,2.478,14.686,14.686,0,0,1-1.528,2.2l-.877,1c-.289.327-.589.646-.853.993l-.411.509c-.132.173-.253.354-.38.531a12.614,12.614,0,0,0-.7,1.1,10.038,10.038,0,0,0-.987,2.392,5,5,0,0,0-.1,2.526l.029.1-.08.052a6.846,6.846,0,0,0-.925.734,7.062,7.062,0,0,0-.8.879,4.757,4.757,0,0,0-.578,1.036,3.663,3.663,0,0,0-.226,1.171,3.445,3.445,0,0,1,.145-1.2,4.88,4.88,0,0,1,.532-1.1,6.3,6.3,0,0,1,.774-.947,7.061,7.061,0,0,1,.935-.8l-.051.156a5.215,5.215,0,0,1,0-2.7,10.415,10.415,0,0,1,1-2.5c.231-.383.446-.777.71-1.137.128-.183.251-.37.383-.549l.414-.525c.268-.358.582-.674.879-1.006l.877-.979a12.938,12.938,0,0,0,2.566-4.5,10.631,10.631,0,0,0,.386-5.179Z" transform="translate(-108.41 -134.568)" fill="#33131c"/>
      <path id="Path_70024" data-name="Path 70024" d="M147.747,169.681a20.37,20.37,0,0,1-3.337,7.387c-2.879,4.325-6.116,7.252-3.619,13.153s3.84,12.229,20.2,10.011,18.922-11.947,17.571-16.272-5.04-4.2-5.206-15.389S152.206,155.267,147.747,169.681Z" transform="translate(-115.517 -121.799)" fill="#33131c"/>
      <path id="Path_70025" data-name="Path 70025" d="M178.306,135.8s.54,15.946-14.144,18.108c-5.045.9-12.883-3.423-14.865-7.928,0,0-2.7,1.351-5.135-1.8s-1.982-7.567.45-7.567,3.243,3.243,3.243,3.243.63-4.6,1.621-5.946a12.468,12.468,0,0,0,10.951-6.216c4.184-6.757,3.1-8.649,3.1-8.649a9.652,9.652,0,0,1,5.135,1.081C172.27,122.382,177.765,126.886,178.306,135.8Z" transform="translate(-117.068 -98.103)" fill="#e37565"/>
      <path id="Path_70026" data-name="Path 70026" d="M162.364,108.589c8.745-3.344,17.894.74,20.7,6.5l-.7-10.464s-4.327-5.585-16.038-5.135-16.847,6.126-16.847,6.126v10.36S153.175,112.1,162.364,108.589Z" transform="translate(-121.126 -86.653)" fill="#0d3453"/>
      <path id="Path_70035" data-name="Path 70035" d="M166.411,244.8c-1.982-10.63-3.274-17.838-32.808-35.585a19.813,19.813,0,0,1-7.6,10.09,17.594,17.594,0,0,1-6.738-10.09S94.16,221.192,90.557,229.3s-11.712,33.513-8.829,40.72,38.99,16.056,45.451,14.254l-2.435-1.642s-.314-11.441,9.055-11.8l10.991,5.855h24.144S168.393,255.425,166.411,244.8Z" transform="translate(-81.12 -150.878)" fill="#d52941"/>
      <path id="Path_70036" data-name="Path 70036" d="M164.708,240.831l18.494-24.4c-3.223-2.207-6.965-4.6-11.328-7.218a19.813,19.813,0,0,1-7.595,10.09,17.594,17.594,0,0,1-6.738-10.09s-5.1,2.432-11.025,5.845Z" transform="translate(-119.391 -150.878)" fill="#fff"/>
      <path id="Path_70037" data-name="Path 70037" d="M149.758,269.64l28.272-34.6c-1.928-1.694-4.212-3.5-6.924-5.456L149.758,257.57l-21.66-29.3c-2.467,1.513-4.937,3.141-7.128,4.789Z" transform="translate(-104.441 -162.029)" fill="#882130"/>
      <g id="Group_41752" data-name="Group 41752" transform="translate(21.221 99.058)">
        <path id="Path_70038" data-name="Path 70038" d="M164.206,328.29a4.177,4.177,0,0,0-2.326-3.451,27.5,27.5,0,0,0-6.68-1.939c-3.236-.729-6.434-1.521-9.589-2.55-2.816-.918-5.6-1.944-8.349-3.035-1.433-.569-2.864-1.149-4.276-1.77l.231.4.9-8.108c.066-.6-.868-.591-.933,0l-.9,8.108a.449.449,0,0,0,.231.4c3.549,1.563,7.184,2.96,10.848,4.227a89.884,89.884,0,0,0,9.2,2.682,68.973,68.973,0,0,1,7.8,1.938c1.524.545,2.725,1.385,2.911,3.092.064.591,1,.6.933,0Z" transform="translate(-132.28 -307.394)" fill="#882130"/>
      </g>
      <g id="Group_41753" data-name="Group 41753" transform="translate(17.263 107.143)">
        <path id="Path_70039" data-name="Path 70039" d="M127.165,326.889a9.168,9.168,0,0,0-1.395.225,5.36,5.36,0,0,0-2.288,1.046,2.187,2.187,0,0,0-.731,1.189.478.478,0,0,0,.326.574.471.471,0,0,0,.574-.326c.017-.083.044-.161.069-.242s-.035.058.017-.034c.023-.041.044-.083.068-.123s.046-.068.068-.1c.042-.067-.045.046.026-.031s.122-.133.189-.2c.032-.029.065-.056.1-.084.08-.068-.029.015.039-.029s.156-.107.239-.157a4.486,4.486,0,0,1,.5-.256c-.084.037.024-.009.052-.021l.129-.049c.091-.034.184-.065.277-.1.173-.055.348-.1.525-.146.293-.072.589-.127.887-.172.09-.013.058-.029-.008,0a.332.332,0,0,1,.082-.01l.133-.015.122-.012a.478.478,0,0,0,.467-.467.471.471,0,0,0-.467-.467Z" transform="translate(-122.74 -326.888)" fill="#882130"/>
      </g>
      <path id="Path_70040" data-name="Path 70040" d="M160.21,215.753c.5,1.3.978,2.6,1.456,3.9l1.433,3.906q1.418,3.911,2.792,7.837l-.612-.108,3.335-4.216,3.358-4.2.319-.4.322.4,3.788,4.647,3.764,4.667-.617.114,1.388-4,1.407-4,1.436-3.986c.48-1.329.961-2.656,1.46-3.978q-.591,2.035-1.215,4.059l-1.24,4.051-1.268,4.042-1.287,4.035-.2.618-.419-.5-3.83-4.612-3.806-4.632h.64l-3.38,4.18-3.4,4.162-.412.5-.2-.613c-.859-2.636-1.716-5.274-2.553-7.918l-1.24-3.971C161.014,218.408,160.6,217.083,160.21,215.753Z" transform="translate(-127.405 -154.707)" fill="#dbecf5"/>
      <path id="Path_70041" data-name="Path 70041" d="M206.337,363.629l-11.015-5.854c-9.344.38-9.031,11.8-9.031,11.8s5.542,3.784,7.343,4.775,6.666,3.694,7.928,3.6,3.333-.36,3.514-1.531a2.23,2.23,0,0,0,2.522.54c1.712-.54,1.8-1.441,1.622-2.342a40.5,40.5,0,0,0-2.7-5.045s3.513,5.225,4.5,5.045,2.522-.81,2.162-2.658S206.337,363.629,206.337,363.629Z" transform="translate(-142.667 -237.82)" fill="#e37565"/>
      <g id="Group_41754" data-name="Group 41754" transform="translate(58.587 133.967)">
        <path id="Path_70042" data-name="Path 70042" d="M226.408,395.971l-3.072-3.781-.441-.543a.314.314,0,0,0-.44,0,.318.318,0,0,0,0,.44l3.072,3.781.441.543a.313.313,0,0,0,.44,0,.318.318,0,0,0,0-.44Z" transform="translate(-222.366 -391.556)"/>
      </g>
      <g id="Group_41762" data-name="Group 41762" transform="translate(71.894 34.877)">
        <g id="Group_41755" data-name="Group 41755" transform="translate(0.5 0.171)">
          <path id="Path_70043" data-name="Path 70043" d="M257.018,153.145c-2.017,2.537-1.057,5.916-1.364,8.87-.028.265.386.263.414,0,.291-2.8-.673-6.168,1.243-8.578.164-.206-.127-.5-.292-.292Z" transform="translate(-255.653 -153.073)"/>
        </g>
        <g id="Group_41756" data-name="Group 41756" transform="translate(1.414)">
          <path id="Path_70044" data-name="Path 70044" d="M258.431,152.809a32.354,32.354,0,0,0-.487,8.966c.011.265.424.267.414,0a31.962,31.962,0,0,1,.472-8.856c.063-.258-.336-.369-.4-.11Z" transform="translate(-257.857 -152.661)"/>
        </g>
        <g id="Group_41757" data-name="Group 41757" transform="translate(2.132 0.067)">
          <path id="Path_70045" data-name="Path 70045" d="M259.589,153.023q.034,4.289.069,8.577a.207.207,0,0,0,.413,0q-.034-4.289-.069-8.577a.207.207,0,1,0-.414,0Z" transform="translate(-259.589 -152.823)"/>
        </g>
        <g id="Group_41758" data-name="Group 41758" transform="translate(2.025 0.022)">
          <path id="Path_70046" data-name="Path 70046" d="M259.438,153.093c.578.267.676,1.038.8,1.592q.264,1.137.421,2.295a25.225,25.225,0,0,1,.189,4.555c-.013.266.4.265.414,0a25.6,25.6,0,0,0-.246-4.962,24.5,24.5,0,0,0-.487-2.444,1.9,1.9,0,0,0-.886-1.393c-.24-.111-.45.246-.209.357Z" transform="translate(-259.331 -152.715)"/>
        </g>
        <g id="Group_41759" data-name="Group 41759" transform="translate(2.286 0.533)">
          <path id="Path_70047" data-name="Path 70047" d="M259.964,154.2c.145.692.292,1.385.435,2.078a9.813,9.813,0,0,1,.18,2.093q-.021,2.226-.043,4.452a.207.207,0,0,0,.414,0c.015-1.526.033-3.051.044-4.577a19.542,19.542,0,0,0-.63-4.156C260.309,153.83,259.911,153.939,259.964,154.2Z" transform="translate(-259.959 -153.945)"/>
        </g>
        <g id="Group_41760" data-name="Group 41760" transform="translate(0 0.011)">
          <path id="Path_70048" data-name="Path 70048" d="M256.458,152.715a3.9,3.9,0,0,0-1.759,2.931,16.384,16.384,0,0,0-.2,4.227c.021.264.435.266.414,0a16.2,16.2,0,0,1,.14-3.878,3.726,3.726,0,0,1,1.61-2.923c.235-.125.026-.482-.209-.357Z" transform="translate(-254.448 -152.689)"/>
        </g>
        <g id="Group_41761" data-name="Group 41761" transform="translate(0.867 0.677)">
          <path id="Path_70049" data-name="Path 70049" d="M257.363,154.436a16.24,16.24,0,0,0-.74,6.764c.027.262.441.265.414,0a15.944,15.944,0,0,1,.725-6.654c.084-.253-.315-.362-.4-.11Z" transform="translate(-256.539 -154.293)"/>
        </g>
      </g>
      <g id="Group_41770" data-name="Group 41770" transform="translate(72.221 35.41)">
        <g id="Group_41763" data-name="Group 41763" transform="translate(1.784 0.171)">
          <path id="Path_70050" data-name="Path 70050" d="M259.878,154.429c2.017,2.537,1.057,5.916,1.364,8.87.027.264-.386.263-.414,0-.291-2.8.673-6.169-1.243-8.578-.164-.206.127-.5.292-.292Z" transform="translate(-259.537 -154.357)"/>
        </g>
        <g id="Group_41764" data-name="Group 41764" transform="translate(1.597)">
          <path id="Path_70051" data-name="Path 70051" d="M259.491,154.093a32.351,32.351,0,0,1,.487,8.966c-.011.265-.424.266-.414,0a31.958,31.958,0,0,0-.472-8.856c-.063-.258.336-.369.4-.11Z" transform="translate(-259.086 -153.945)"/>
        </g>
        <g id="Group_41765" data-name="Group 41765" transform="translate(1.375 0.067)">
          <path id="Path_70052" data-name="Path 70052" d="M259.033,154.307q-.034,4.289-.069,8.577a.207.207,0,0,1-.414,0q.034-4.289.069-8.577a.207.207,0,0,1,.414,0Z" transform="translate(-258.551 -154.107)"/>
        </g>
        <g id="Group_41766" data-name="Group 41766" transform="translate(0 0.022)">
          <path id="Path_70053" data-name="Path 70053" d="M257.094,154.377c-.578.267-.675,1.038-.8,1.592q-.264,1.137-.421,2.3a25.223,25.223,0,0,0-.189,4.555c.013.266-.4.265-.414,0a25.593,25.593,0,0,1,.246-4.962,24.492,24.492,0,0,1,.487-2.444,1.9,1.9,0,0,1,.886-1.393c.24-.111.45.245.209.357Z" transform="translate(-255.237 -153.999)"/>
        </g>
        <g id="Group_41767" data-name="Group 41767" transform="translate(0.669 0.532)">
          <path id="Path_70054" data-name="Path 70054" d="M257.879,155.487c-.145.693-.292,1.385-.435,2.078a9.809,9.809,0,0,0-.18,2.093q.021,2.226.043,4.452a.207.207,0,0,1-.414,0c-.015-1.526-.033-3.052-.044-4.577a19.55,19.55,0,0,1,.63-4.156C257.534,155.117,257.932,155.227,257.879,155.487Z" transform="translate(-256.85 -155.228)"/>
        </g>
        <g id="Group_41768" data-name="Group 41768" transform="translate(1.667 0.011)">
          <path id="Path_70055" data-name="Path 70055" d="M259.569,154a3.9,3.9,0,0,1,1.759,2.931,16.382,16.382,0,0,1,.2,4.227c-.021.263-.435.266-.414,0a16.2,16.2,0,0,0-.14-3.878,3.725,3.725,0,0,0-1.61-2.922c-.235-.126-.026-.482.209-.357Z" transform="translate(-259.257 -153.973)"/>
        </g>
        <g id="Group_41769" data-name="Group 41769" transform="translate(1.887 0.677)">
          <path id="Path_70056" data-name="Path 70056" d="M260.2,155.72a16.239,16.239,0,0,1,.74,6.764c-.027.262-.441.265-.414,0a15.944,15.944,0,0,0-.725-6.654c-.084-.253.315-.362.4-.11Z" transform="translate(-259.787 -155.577)"/>
        </g>
      </g>
      <path id="Path_70057" data-name="Path 70057" d="M182.04,200.109c-2.631.47-6.02-.483-8.943-2.139h0v4.662a17.594,17.594,0,0,0,6.738,10.09,19.813,19.813,0,0,0,7.595-10.09v-4.209A17.1,17.1,0,0,1,182.04,200.109Z" transform="translate(-134.946 -144.3)" fill="#e37565"/>
      <path id="Path_70058" data-name="Path 70058" d="M187.43,199.749v-1.326a17.1,17.1,0,0,1-5.39,1.687c-2.631.47-6.02-.483-8.943-2.139v4.662a15.541,15.541,0,0,0,.832,2.558A34.178,34.178,0,0,0,187.43,199.749Z" transform="translate(-134.946 -144.3)"/>
      <path id="Path_70059" data-name="Path 70059" d="M158.626,212.353a16.45,16.45,0,0,1-1.085-3.143s-5.1,2.432-11.025,5.845l4.089,5.793A34.561,34.561,0,0,1,158.626,212.353Z" transform="translate(-119.391 -150.878)" fill="#dbecf5" opacity="0.63" style="mix-blend-mode: multiply;isolation: isolate"/>
      <path id="Path_70060" data-name="Path 70060" d="M158.152,102.722c-5.962,1.812-8.671,4.8-8.671,4.8v10.36s2.881-3.018,9.876-6.143C157.064,107.7,157.323,104.705,158.152,102.722Z" transform="translate(-121.126 -88.559)" fill="#0d3453"/>
      <g id="Group_41771" data-name="Group 41771" transform="translate(0 81.321)">
        <path id="Path_70061" data-name="Path 70061" d="M124.862,313.105c-20.217-3.369-34.391-12.349-37.729-15.335-3.423-3.063-1.621-8.829,0-20.272.617-4.356,1.443-8.9,2.229-12.864-3.914,10.084-10.231,31.33-7.634,37.821,2.883,7.207,38.99,16.056,45.451,14.254l-2.435-1.642a15.285,15.285,0,0,1,.118-1.962Z" transform="translate(-81.12 -264.634)" fill="#882130"/>
        <path id="Path_70062" data-name="Path 70062" d="M259.619,295.571l2.53,31.655h3.4Z" transform="translate(-185.581 -282.739)" fill="#2a1d30"/>
      </g>
      <g id="Group_41772" data-name="Group 41772" transform="translate(73.131 93.816)">
        <path id="Path_70063" data-name="Path 70063" d="M260.869,326.75c-.108-2.661-.247-5.321-.4-7.98-.3-5.282-.648-10.565-1.159-15.831-.254-2.621-.54-5.245-.973-7.844-.1-.591-1-.34-.9.248.819,4.913,1.188,9.91,1.55,14.874q.5,6.867.821,13.746c.044.929.088,1.858.126,2.787.024.6.958.6.933,0Z" transform="translate(-257.431 -294.758)" fill="#882130"/>
      </g>
      <path id="Path_70064" data-name="Path 70064" d="M186.409,381.493a15.289,15.289,0,0,0-.118,1.962s5.542,3.784,7.343,4.775,6.666,3.694,7.928,3.6a12.6,12.6,0,0,0,1.352-.162C197.46,388.872,186.412,381.495,186.409,381.493Z" transform="translate(-142.667 -251.701)" fill="#d15f54"/>
      <path id="Path_70065" data-name="Path 70065" d="M131.516,232.89l-3.418-4.624c-2.467,1.513-4.937,3.141-7.128,4.789l2.27,2.885a42.979,42.979,0,0,1,8.276-3.05Z" transform="translate(-104.441 -162.029)" fill="#882130"/>
      <path id="Path_70066" data-name="Path 70066" d="M171.44,119.369a17.512,17.512,0,0,1-1.527,4.723,20.044,20.044,0,0,1-8.412,8.96,10.42,10.42,0,0,1-1.115.551q-.564.261-1.132.509a26.934,26.934,0,0,0,4.154-2.655l.481-.382a4.643,4.643,0,0,0,.47-.394l.9-.83c.3-.274.564-.593.848-.887l.417-.45c.132-.156.256-.319.385-.478.253-.321.532-.623.764-.959l.709-1,.643-1.047c.207-.354.393-.719.6-1.076s.363-.735.546-1.1.327-.754.483-1.134a19.247,19.247,0,0,0,.781-2.351Z" transform="translate(-126.846 -98.301)" fill="#33131c"/>
      <path id="Path_70067" data-name="Path 70067" d="M163.791,123.41a24.427,24.427,0,0,0-1.781,1.985c-.281.344-.552.7-.823,1.046s-.521.718-.77,1.084a28.213,28.213,0,0,0-2.6,4.624c-.4.792-.679,1.632-1,2.456-.252.847-.542,1.685-.723,2.553a29.851,29.851,0,0,0-.755,5.266q0-.668,0-1.338a10.771,10.771,0,0,1,.056-1.339l.146-1.335c.05-.445.16-.881.238-1.323a22.72,22.72,0,0,1,.677-2.6c.146-.424.309-.842.462-1.264a13.428,13.428,0,0,1,.517-1.242,26.019,26.019,0,0,1,2.714-4.636A22.223,22.223,0,0,1,163.791,123.41Z" transform="translate(-124.556 -100.666)" fill="#33131c"/>
      <path id="Path_70068" data-name="Path 70068" d="M153.574,133.9c-.181.484-.358.966-.512,1.456s-.316.976-.455,1.469c-.278.986-.526,1.979-.719,2.982a30.421,30.421,0,0,0-.462,3.03l-.076.764-.04.768c-.051.513-.022,1.025-.055,1.543a16.415,16.415,0,0,1-.147-3.1c0-.52.079-1.034.121-1.552.078-.513.145-1.028.253-1.536a21.118,21.118,0,0,1,.823-3A16.953,16.953,0,0,1,153.574,133.9Z" transform="translate(-122.066 -106.804)" fill="#33131c"/>
      <path id="Path_70069" data-name="Path 70069" d="M202.657,119.031A19.1,19.1,0,0,1,207.9,121.9a17.693,17.693,0,0,1,4.093,4.393,16.5,16.5,0,0,1,1.355,2.7,15.473,15.473,0,0,1,.78,2.913,16.919,16.919,0,0,1-.19,5.97c.039-.5.1-.99.133-1.486a12.711,12.711,0,0,0,.026-1.486,16.546,16.546,0,0,0-.284-2.944,18.01,18.01,0,0,0-.817-2.83,16.237,16.237,0,0,0-1.353-2.613,18.246,18.246,0,0,0-3.94-4.367,21.827,21.827,0,0,0-2.415-1.72,20.31,20.31,0,0,0-2.631-1.4Z" transform="translate(-152.245 -98.103)" fill="#33131c"/>
      <path id="Path_70070" data-name="Path 70070" d="M226.208,173.018a14.362,14.362,0,0,0-.347,3.074,16.487,16.487,0,0,0,.224,3.073,17.64,17.64,0,0,0,1.979,5.791c.973,1.814,2.091,3.575,2.984,5.461a12.135,12.135,0,0,1,.583,1.46,5.334,5.334,0,0,1,.285,1.554,5.7,5.7,0,0,1-.189,1.559,15.1,15.1,0,0,1-.451,1.491,9.4,9.4,0,0,0,.438-3.04,7.657,7.657,0,0,0-.952-2.884c-.942-1.835-2.047-3.582-3.062-5.4a17.212,17.212,0,0,1-1.928-5.942A14.7,14.7,0,0,1,226.208,173.018Z" transform="translate(-165.689 -129.697)" fill="#33131c"/>
    </g>
    <g id="Group_41774" data-name="Group 41774" transform="translate(92.072 185.526)">
      <path id="Path_70071" data-name="Path 70071" d="M237.831,308.467l-26.666,45.585h72.251l23.063-45.585Z" transform="translate(-208.443 -308.467)" fill="#263238"/>
      <path id="Path_70072" data-name="Path 70072" d="M211.21,421.386l-.045-3.018h72.251v3.018Z" transform="translate(-208.443 -372.783)" fill="#0c1419"/>
      <path id="Path_70073" data-name="Path 70073" d="M207.324,354.052l-2.722-1.114,26.505-44.471h2.883Z" transform="translate(-204.602 -308.467)" fill="#dbecf5"/>
      <path id="Path_70074" data-name="Path 70074" d="M330.248,308.468c-.543,4.266-2.562,12.42-10.044,21.685-3.731,4.62-12.08,15.726-55.367,23.9h49.989l23.063-45.585Z" transform="translate(-239.852 -308.468)" fill="#263238"/>
    </g>
    <g id="Group_41775" data-name="Group 41775" transform="translate(28.564 221.07)">
      <path id="Path_70075" data-name="Path 70075" d="M52.091,395.4h9.73a.623.623,0,0,0,0-1.244h-9.73a.623.623,0,0,0,0,1.244Z" transform="translate(-51.49 -394.161)"/>
    </g>
    <g id="Group_41776" data-name="Group 41776" transform="translate(201.762 219.69)">
      <path id="Path_70076" data-name="Path 70076" d="M469.653,392.076h9.367a.623.623,0,0,0,0-1.244h-9.367a.623.623,0,0,0,0,1.244Z" transform="translate(-469.052 -390.832)"/>
    </g>
    <g id="Group_41782" data-name="Group 41782" transform="translate(12.315 85.631)">
      <g id="Group_41777" data-name="Group 41777" transform="translate(149.934 48.138)">
        <path id="Path_70077" data-name="Path 70077" d="M373.842,185.261c1.773,5.4,3.685,10.942,7.391,15.353a20.208,20.208,0,0,0,3.572,3.308,1.254,1.254,0,0,0,1.7-.446,1.273,1.273,0,0,0-.447-1.7c-4.216-3.083-6.569-8.037-8.326-12.822-.529-1.44-1.015-2.894-1.493-4.351a1.272,1.272,0,0,0-1.531-.869,1.257,1.257,0,0,0-.869,1.531Z" transform="translate(-373.79 -183.686)" fill="#e0e0e0"/>
      </g>
      <g id="Group_41778" data-name="Group 41778" transform="translate(127.895 10.968)">
        <path id="Path_70078" data-name="Path 70078" d="M321.261,96.367a15.7,15.7,0,0,1,4.422,2.9q.485.454.934.946.235.257.459.524l.2.244s.236.3.118.147a16.536,16.536,0,0,1,1.491,2.348,1.245,1.245,0,1,0,2.149-1.256,18.016,18.016,0,0,0-8.517-8,1.283,1.283,0,0,0-1.7.446,1.253,1.253,0,0,0,.446,1.7Z" transform="translate(-320.656 -94.074)" fill="#e0e0e0"/>
      </g>
      <g id="Group_41779" data-name="Group 41779" transform="translate(20.574 29.558)">
        <path id="Path_70079" data-name="Path 70079" d="M88.9,139.271c-5.1,5.318-12.216,7.861-19.256,9.42-2.261.5-4.54.913-6.821,1.31a1.255,1.255,0,0,0-.869,1.531,1.273,1.273,0,0,0,1.531.869c7.74-1.348,15.712-2.967,22.365-7.384a28.472,28.472,0,0,0,4.81-3.986c1.109-1.156-.648-2.918-1.76-1.76Z" transform="translate(-61.917 -138.892)" fill="#e0e0e0"/>
      </g>
      <g id="Group_41780" data-name="Group 41780" transform="translate(0 61.464)">
        <path id="Path_70080" data-name="Path 70080" d="M14.372,216.732a28.576,28.576,0,0,0-2.057,9.765,1.244,1.244,0,1,0,2.489,0,26.6,26.6,0,0,1,1.969-9.1,1.252,1.252,0,0,0-.869-1.531,1.275,1.275,0,0,0-1.531.869Z" transform="translate(-12.315 -215.816)" fill="#e0e0e0"/>
      </g>
      <g id="Group_41781" data-name="Group 41781" transform="translate(97.933)">
        <path id="Path_70081" data-name="Path 70081" d="M249.991,70.588a34.653,34.653,0,0,1,16.837,1.328,1.245,1.245,0,1,0,.662-2.4,37.3,37.3,0,0,0-18.16-1.329,1.255,1.255,0,0,0-.869,1.531,1.273,1.273,0,0,0,1.531.869Z" transform="translate(-248.421 -67.632)" fill="#e0e0e0"/>
      </g>
    </g>
    <g id="Group_41799" data-name="Group 41799" transform="translate(147.776 85.631)">
      <rect id="Rectangle_13501" data-name="Rectangle 13501" width="59.475" height="42.319" rx="4" fill="#e0e0e0"/>
      <rect id="Rectangle_13502" data-name="Rectangle 13502" width="56.012" height="39.855" rx="10.612" transform="translate(1.732 1.232)" fill="#f5f5f5"/>
      <path id="Path_70082" data-name="Path 70082" d="M358.73,118.8a4.394,4.394,0,0,0-3.711-2.041H307.811A4.393,4.393,0,0,0,304.1,118.8Z" transform="translate(-301.677 -115.528)" fill="#e0e0e0"/>
      <circle id="Ellipse_449" data-name="Ellipse 449" cx="0.452" cy="0.452" r="0.452" transform="translate(5.169 1.836)" fill="#fff"/>
      <circle id="Ellipse_450" data-name="Ellipse 450" cx="0.452" cy="0.452" r="0.452" transform="translate(6.86 1.836)" fill="#fff"/>
      <path id="Path_70083" data-name="Path 70083" d="M319.781,118.667a.452.452,0,1,1-.453-.452.452.452,0,0,1,.453.452Z" transform="translate(-310.325 -116.379)" fill="#fff"/>
      <rect id="Rectangle_13503" data-name="Rectangle 13503" width="23.842" height="23.842" rx="3.293" transform="translate(5.017 9.178)" fill="#fff"/>
      <g id="Group_41790" data-name="Group 41790" transform="translate(8.526 11.586)">
        <path id="Path_70084" data-name="Path 70084" d="M335,179.255c-.676-3.549-1.5-7.384-2.034-8.019-1.022-1.225-3.635-1.942-3.635-1.942l-2.2,4.445-2.173-4.506c-4.246,1.231-4.07,1.649-4.767,4.506-.312,1.276-.86,3.474-1.372,5.516Z" transform="translate(-318.815 -157.821)" fill="#d52941"/>
        <g id="Group_41783" data-name="Group 41783" transform="translate(3.704 2.193)">
          <path id="Path_70085" data-name="Path 70085" d="M327.744,147.086v2.892a.081.081,0,1,0,.161,0v-2.892a.081.081,0,0,0-.161,0Z" transform="translate(-327.744 -147.008)"/>
        </g>
        <path id="Path_70086" data-name="Path 70086" d="M327.17,155.727s-.087-1.524.314-1.559.427,1.559.427,1.559h-.253l-.061-.492-.061.492Z" transform="translate(-323.7 -149.005)"/>
        <path id="Path_70087" data-name="Path 70087" d="M327.785,144.056l4.427.924a.1.1,0,0,0,.043,0l4.46-.925a.106.106,0,0,0,.025-.2l-4.443-2.124a.1.1,0,0,0-.092,0l-4.444,2.125a.106.106,0,0,0,.024.2Z" transform="translate(-324.015 -141.72)" fill="#1c1421"/>
        <path id="Path_70088" data-name="Path 70088" d="M336.847,150.611a3.643,3.643,0,0,0-2.422.419s-.47-.61-2.509-.314a3.021,3.021,0,0,0-.261,2.84c.592,1.829,4.443.888,4.443.888a1.918,1.918,0,0,0,1.289-1.481,2.236,2.236,0,0,0-.54-2.352Z" transform="translate(-326.207 -146.895)" fill="#2d231a"/>
        <path id="Path_70089" data-name="Path 70089" d="M332.433,147.572l-.1-1.655a5.161,5.161,0,0,1,5.227,0l-.192,1.55a3.642,3.642,0,0,0-2.421.419S334.471,147.275,332.433,147.572Z" transform="translate(-326.723 -143.75)" fill="#38273f"/>
        <path id="Path_70090" data-name="Path 70090" d="M336.446,150.615a2.538,2.538,0,0,0-1.283.446,1.361,1.361,0,0,0-.852-.35,3.444,3.444,0,0,0-1.6,2.231,22.494,22.494,0,0,0,.592,2.665c.3.854.871,1.15,1.969,1.168s1.742-.14,2.16-1.533a8.334,8.334,0,0,0,.418-2.125,5.918,5.918,0,0,0-1.4-2.5Z" transform="translate(-326.944 -146.926)" fill="#e37565"/>
        <path id="Path_70091" data-name="Path 70091" d="M331.943,157.047s-.332-.337-.594.151.265,1.842.9,1.339h0C332.122,158.009,332.011,157.425,331.943,157.047Z" transform="translate(-326.11 -150.623)" fill="#e37565"/>
        <path id="Path_70092" data-name="Path 70092" d="M345.1,157.2c-.159-.3-.343-.288-.463-.236a8.959,8.959,0,0,1-.316,1.649C344.894,158.87,345.34,157.654,345.1,157.2Z" transform="translate(-333.739 -150.623)" fill="#e37565"/>
        <path id="Path_70093" data-name="Path 70093" d="M337.4,165.24a3.166,3.166,0,0,1-1.049-.161h0V166.3s.038,1.216.946,1.341c1.132.157,1.132-1.394,1.132-1.394v-1.112a3.318,3.318,0,0,1-1.029.1Z" transform="translate(-329.076 -155.39)" fill="#e37565"/>
        <path id="Path_70094" data-name="Path 70094" d="M338.426,165.138a3.319,3.319,0,0,1-1.028.1,3.166,3.166,0,0,1-1.049-.161h0V166.3a2.541,2.541,0,0,0,2.077-1.162Z" transform="translate(-329.076 -155.39)" fill="#2d2d2d"/>
        <path id="Path_70099" data-name="Path 70099" d="M336.826,168.093h-.005c-.027.357-.185,1.407-1.127,1.277-.908-.126-.946-1.341-.946-1.341l-1.134.5,2.173,4.506,2.2-4.445Z" transform="translate(-327.476 -157.117)" fill="#dbecf5" opacity="0.63" style="mix-blend-mode: multiply;isolation: isolate"/>
        <path id="Path_70100" data-name="Path 70100" d="M333.859,176.789l3.615-7.009a12.678,12.678,0,0,0-1.372-.486l-2.2,4.445-2.173-4.506c-.505.146-.948.282-1.337.411Z" transform="translate(-325.589 -157.821)" fill="#882130"/>
        <g id="Group_41786" data-name="Group 41786" transform="translate(5.346 6.604)">
          <path id="Path_70101" data-name="Path 70101" d="M331.86,158.068a.443.443,0,0,1,.116-.246.24.24,0,0,1,.039-.02c-.006,0-.021-.005-.02,0s.012.01-.006,0l.009.009h0l.012.022c.01.019,0-.005.005.013s.009.024.013.037a3.091,3.091,0,0,1,.1.7c.005.068.01.136.012.2,0,.1.165.1.161,0-.009-.206-.027-.412-.055-.616-.021-.155-.066-.646-.336-.492a.53.53,0,0,0-.208.355c-.021.1.134.144.155.042Z" transform="translate(-331.703 -157.641)" fill="#2d2d2d"/>
        </g>
        <g id="Group_41787" data-name="Group 41787" transform="translate(10.734 6.681)">
          <path id="Path_70102" data-name="Path 70102" d="M345.336,158.066a.318.318,0,0,0-.139-.21.223.223,0,0,0-.206,0,.243.243,0,0,0-.089.088,1.008,1.008,0,0,0-.112.292c-.028.109-.05.219-.068.33-.011.066-.021.133-.029.2a.081.081,0,0,0,.08.08.083.083,0,0,0,.081-.08v-.034h0v-.022a.118.118,0,0,1,.008-.052c.014-.094.031-.187.052-.28a1.819,1.819,0,0,1,.08-.276l.01-.022.012-.024c0-.008.009-.016.014-.024s.018-.025.011-.017l.01-.011s-.006,0,0,0h0a.162.162,0,0,1,.032-.006.034.034,0,0,1,.02,0l.014.009.01.01.005.005a.263.263,0,0,1,.018.029l.006.012h0l.008.024a.036.036,0,0,0,.006.024.081.081,0,0,0,.1.056.082.082,0,0,0,.056-.1Z" transform="translate(-344.693 -157.829)" fill="#2d2d2d"/>
        </g>
        <path id="Path_70103" data-name="Path 70103" d="M333.6,145.669a5.164,5.164,0,0,0-1.269.528l.1,1.655a6.04,6.04,0,0,1,1.492-.058,1.917,1.917,0,0,1-.323-2.125Z" transform="translate(-326.723 -144.031)" fill="#2f2035"/>
      </g>
      <rect id="Rectangle_13504" data-name="Rectangle 13504" width="23.842" height="23.842" rx="3.293" transform="translate(30.617 9.178)" fill="#fff"/>
      <g id="Group_41798" data-name="Group 41798" transform="translate(34.126 11.586)">
        <path id="Path_70106" data-name="Path 70106" d="M397.915,148.806a4.2,4.2,0,0,1,.738,2.319c.1,1.564.048,4.064.048,4.064s-2.594,1.588-6.624,0c0,0-.256-4.1.908-6.278S397.581,147.322,397.915,148.806Z" transform="translate(-387.275 -145.089)" fill="#2d231a"/>
        <path id="Path_70107" data-name="Path 70107" d="M396.716,179.255c-.676-3.549-1.5-7.384-2.034-8.019-1.022-1.225-3.635-1.942-3.635-1.942l-2.2,4.445-2.173-4.506c-4.246,1.231-4.07,1.649-4.767,4.506-.311,1.276-.86,3.474-1.372,5.516Z" transform="translate(-380.534 -157.821)" fill="#d52941"/>
        <g id="Group_41791" data-name="Group 41791" transform="translate(3.704 2.193)">
          <path id="Path_70108" data-name="Path 70108" d="M389.463,147.086v2.892a.081.081,0,1,0,.161,0v-2.892a.081.081,0,0,0-.161,0Z" transform="translate(-389.463 -147.008)"/>
        </g>
        <path id="Path_70109" data-name="Path 70109" d="M388.89,155.727s-.088-1.524.314-1.559.427,1.559.427,1.559h-.253l-.061-.492-.061.492Z" transform="translate(-385.419 -149.005)"/>
        <path id="Path_70110" data-name="Path 70110" d="M389.5,144.056l4.427.924a.1.1,0,0,0,.043,0l4.461-.925a.107.107,0,0,0,.024-.2l-4.443-2.124a.106.106,0,0,0-.092,0l-4.444,2.125a.106.106,0,0,0,.024.2Z" transform="translate(-385.734 -141.72)" fill="#1c1421"/>
        <path id="Path_70111" data-name="Path 70111" d="M398.165,150.615a2.54,2.54,0,0,0-1.283.446,1.361,1.361,0,0,0-.852-.35,3.441,3.441,0,0,0-1.6,2.231,22.488,22.488,0,0,0,.592,2.665c.3.854.871,1.15,1.969,1.168s1.742-.14,2.16-1.533a8.334,8.334,0,0,0,.418-2.125A5.915,5.915,0,0,0,398.165,150.615Z" transform="translate(-388.664 -146.926)" fill="#e37565"/>
        <path id="Path_70112" data-name="Path 70112" d="M393.662,157.047s-.332-.337-.594.151.266,1.842.9,1.339h0C393.841,158.009,393.73,157.425,393.662,157.047Z" transform="translate(-387.829 -150.623)" fill="#e37565"/>
        <path id="Path_70113" data-name="Path 70113" d="M406.815,157.2c-.158-.3-.342-.288-.463-.236a9.011,9.011,0,0,1-.317,1.649C406.613,158.87,407.059,157.654,406.815,157.2Z" transform="translate(-395.458 -150.623)" fill="#e37565"/>
        <path id="Path_70114" data-name="Path 70114" d="M399.118,165.24a3.166,3.166,0,0,1-1.049-.161h0V166.3s.038,1.216.946,1.341c1.132.157,1.132-1.394,1.132-1.394v-1.112A3.316,3.316,0,0,1,399.118,165.24Z" transform="translate(-390.795 -155.39)" fill="#e37565"/>
        <path id="Path_70115" data-name="Path 70115" d="M400.145,165.138a3.316,3.316,0,0,1-1.028.1,3.166,3.166,0,0,1-1.049-.161h0V166.3a2.541,2.541,0,0,0,2.077-1.162Z" transform="translate(-390.795 -155.39)" fill="#2d2d2d"/>
        <g id="Group_41792" data-name="Group 41792" transform="translate(6.18 5.399)">
          <path id="Path_70118" data-name="Path 70118" d="M395.581,155.334a.48.48,0,0,1,.027-.05c.01-.016.022-.036.034-.053l.023-.032.011-.015c-.01.014,0,0,.007-.009a.915.915,0,0,1,.139-.139.7.7,0,0,1,.193-.1.688.688,0,0,1,.307-.028.08.08,0,0,0,.08-.08.082.082,0,0,0-.08-.08.877.877,0,0,0-.841.44.539.539,0,0,0-.039.07.083.083,0,0,0,.029.11.081.081,0,0,0,.11-.029Z" transform="translate(-395.433 -154.738)" fill="#2d2d2d"/>
        </g>
        <path id="Path_70120" data-name="Path 70120" d="M398.546,168.093h-.005c-.027.357-.185,1.407-1.127,1.277-.908-.126-.946-1.341-.946-1.341l-1.134.5,2.173,4.506,2.2-4.445Z" transform="translate(-389.195 -157.117)" fill="#dbecf5" opacity="0.63" style="mix-blend-mode: multiply;isolation: isolate"/>
        <path id="Path_70121" data-name="Path 70121" d="M395.578,176.789l3.615-7.009a12.678,12.678,0,0,0-1.372-.486l-2.2,4.445-2.173-4.506c-.506.146-.948.282-1.337.411Z" transform="translate(-387.309 -157.821)" fill="#882130"/>
        <g id="Group_41794" data-name="Group 41794" transform="translate(5.346 6.604)">
          <path id="Path_70122" data-name="Path 70122" d="M393.579,158.068a.443.443,0,0,1,.116-.246.225.225,0,0,1,.04-.02c-.006,0-.021-.005-.02,0s.012.01-.006,0l.009.009h0l.012.022c.01.019,0-.005.005.013s.009.024.013.037a3.1,3.1,0,0,1,.1.7c0,.068.01.136.012.2,0,.1.165.1.16,0-.009-.206-.027-.412-.055-.616-.021-.155-.066-.646-.336-.492a.53.53,0,0,0-.208.355c-.021.1.134.144.155.042Z" transform="translate(-393.422 -157.641)" fill="#2d2d2d"/>
        </g>
        <g id="Group_41795" data-name="Group 41795" transform="translate(10.734 6.681)">
          <path id="Path_70123" data-name="Path 70123" d="M407.055,158.066a.316.316,0,0,0-.139-.21.223.223,0,0,0-.206,0,.246.246,0,0,0-.089.088,1,1,0,0,0-.112.292c-.029.109-.05.219-.068.33-.011.066-.021.133-.029.2a.081.081,0,0,0,.08.08.082.082,0,0,0,.08-.08c0-.011,0-.023,0-.034h0v-.022a.118.118,0,0,1,.008-.052c.014-.094.031-.187.052-.28a1.818,1.818,0,0,1,.08-.276l.01-.022.012-.024.014-.024s.018-.025.011-.017l.01-.011c.011-.013-.006,0,0,0h0A.158.158,0,0,1,406.8,158a.032.032,0,0,1,.019,0l.014.009.01.01.005.005a.282.282,0,0,1,.018.029l.006.012h0l.008.024q0,.012.006.024a.081.081,0,0,0,.1.056.082.082,0,0,0,.056-.1Z" transform="translate(-406.412 -157.829)" fill="#2d2d2d"/>
        </g>
        <path id="Path_70127" data-name="Path 70127" d="M394.426,152.008a8.836,8.836,0,0,0,4.257-2.754,1.993,1.993,0,0,0-2.6-.7A2.817,2.817,0,0,0,394.426,152.008Z" transform="translate(-388.593 -145.585)" fill="#2d231a"/>
        <path id="Path_70128" data-name="Path 70128" d="M394.152,147.572l-.1-1.655a5.161,5.161,0,0,1,5.226,0l-.192,1.55a3.642,3.642,0,0,0-2.421.419S396.191,147.275,394.152,147.572Z" transform="translate(-388.443 -143.75)" fill="#38273f"/>
        <path id="Path_70129" data-name="Path 70129" d="M395.316,145.669a5.168,5.168,0,0,0-1.268.528l.1,1.655a6.036,6.036,0,0,1,1.492-.058,1.918,1.918,0,0,1-.324-2.125Z" transform="translate(-388.443 -144.031)" fill="#2f2035"/>
      </g>
    </g>
    <g id="Group_41811" data-name="Group 41811" transform="translate(36.749 151.742)">
      <g id="Group_41800" data-name="Group 41800" transform="translate(7.558 5.962)">
        <path id="Path_70130" data-name="Path 70130" d="M89.535,241.844a7.586,7.586,0,0,0,.834,4.811.622.622,0,0,0,1.075-.628,6.245,6.245,0,0,1-.675-1.916,6.5,6.5,0,0,1-.033-1.935.643.643,0,0,0-.435-.766.627.627,0,0,0-.765.435Z" transform="translate(-89.445 -241.39)" fill="#d52941"/>
      </g>
      <g id="Group_41801" data-name="Group 41801" transform="translate(86.104)">
        <path id="Path_70131" data-name="Path 70131" d="M278.9,227.467a5.01,5.01,0,0,0,1.586,4.685.638.638,0,0,0,.88,0,.628.628,0,0,0,0-.88,4.259,4.259,0,0,1-.373-.361c-.061-.068-.121-.137-.178-.209.041.052.005.007-.014-.02s-.059-.083-.087-.125a4.314,4.314,0,0,1-.264-.447c-.019-.036-.037-.073-.054-.109,0,0-.068-.148-.044-.093s-.023-.057-.027-.067c-.019-.048-.036-.1-.053-.144a4.434,4.434,0,0,1-.143-.5q-.03-.135-.051-.27c-.007-.044-.01-.084,0-.016,0-.041-.009-.081-.012-.122a4.27,4.27,0,0,1-.012-.549c0-.081.011-.162.018-.243.01-.115-.006.022.005-.047.008-.05.017-.1.027-.151a.622.622,0,1,0-1.2-.331Z" transform="translate(-278.813 -227.017)" fill="#d52941"/>
      </g>
      <g id="Group_41802" data-name="Group 41802" transform="translate(101.625 10.364)">
        <path id="Path_70132" data-name="Path 70132" d="M316.956,253.06a8.84,8.84,0,0,1,.974.9,2.1,2.1,0,0,1,.317.442c.022.039.044.078.064.118-.005-.01.083.189.048.1s.029.091.027.085c.017.054.032.11.044.165.009.037.015.075.022.112-.023-.122,0,0,0,.033a1.958,1.958,0,0,1,0,.256.425.425,0,0,1-.01.112c.018-.144-.012.036-.017.055-.009.036-.019.072-.03.107s-.076.17-.017.055c-.02.039-.153.243-.077.148a1.2,1.2,0,0,1-.153.156c.083-.071,0-.007-.022.01s-.13.049,0,.007c-.03.01-.059.02-.09.028-.078.02-.12.007-.021.008h-.143c-.043,0-.108-.024.023.007a1.453,1.453,0,0,0-.208-.054c-.076,0,.112.067,0,0-.027-.016-.055-.029-.082-.046-.007,0-.124-.094-.05-.032s-.041-.052-.053-.058c-.057-.031.057.112,0,0-.012-.025-.028-.051-.042-.077.069.125.018.052.011,0-.012-.086-.015.153,0,.01,0-.032.014-.107-.01.015a.936.936,0,0,1,.035-.134l.009-.026c-.027.065-.023.066.009,0l.03-.046q-.064.079.007,0c.027-.025.053-.053.08-.078.125-.121-.054.032.033-.026a2.481,2.481,0,0,1,.229-.132c.163-.087-.06.019.042-.02.046-.018.092-.034.139-.049a2.983,2.983,0,0,1,.3-.077,2.5,2.5,0,0,1,1.068.006c.064.017.127.038.19.058.107.034-.012-.017.1.04a2.12,2.12,0,0,1,.276.167c-.09-.067.007.012.027.031.042.039.081.081.119.124.07.078-.071-.117.026.033.032.049.063.1.09.147s.036.068.052.1c-.054-.11.012.037.021.063.017.054.028.109.043.164.034.124.009-.083.007.056v.111c0,.037-.034.175,0,.054-.012.044-.022.09-.034.134-.008.027-.017.053-.027.079q.039-.094-.009,0a.636.636,0,0,0,.223.851.629.629,0,0,0,.852-.223,2.239,2.239,0,0,0-1.041-2.971,3.45,3.45,0,0,0-3.515.323,1.526,1.526,0,0,0-.565,1.564,1.628,1.628,0,0,0,1.1,1.063,1.681,1.681,0,0,0,1.481-.2,2.1,2.1,0,0,0,.827-1.532c.141-1.377-.886-2.394-1.856-3.2a.639.639,0,0,0-.88,0,.627.627,0,0,0,0,.88Z" transform="translate(-316.233 -252.004)" fill="#d52941"/>
      </g>
      <g id="Group_41803" data-name="Group 41803" transform="translate(22.965 29.556)">
        <path id="Path_70133" data-name="Path 70133" d="M128.748,298.313a1.705,1.705,0,0,0-1.753.717,2.21,2.21,0,0,0-.335,1.855,4.947,4.947,0,0,0,.858,1.723c.421.577,1.228,1.042,1.845.438a.622.622,0,0,0-.88-.88.327.327,0,0,1,.215-.075l.081.015c-.053-.016-.057-.015-.012,0s.041.02.01,0a.66.66,0,0,1-.064-.036c-.1-.047.025.035-.02-.012s-.066-.06-.1-.093-.1-.146-.035-.035c-.054-.087-.112-.171-.167-.258a6.658,6.658,0,0,1-.341-.591c-.024-.048-.047-.1-.07-.145.034.074-.013-.032-.023-.058a2.656,2.656,0,0,1-.1-.333c0-.014-.033-.17-.023-.1s-.007-.091-.007-.106v-.153c0-.068.018-.1,0-.016.012-.052.022-.1.037-.153,0-.015.054-.151.023-.075s.029-.055.037-.069c.021-.039.044-.076.068-.113s.072-.083.013-.021l.107-.112c.078-.083-.045.021.012-.015l.1-.067c.117-.077-.1.02.031-.016a.783.783,0,0,0,.094-.026q-.116.011-.045,0a.633.633,0,0,1,.073,0c.125-.013-.1-.027.034,0a.622.622,0,1,0,.331-1.2Z" transform="translate(-126.59 -298.274)" fill="#d52941"/>
      </g>
      <g id="Group_41804" data-name="Group 41804" transform="translate(0 19.835)">
        <path id="Path_70134" data-name="Path 70134" d="M71.528,275.986c.081.039.162.081.239.128q.07.042.137.087c.012.008.131.093.068.046s.052.042.063.052q.052.044.1.09a2.84,2.84,0,0,1,.208.212l.071.082c.114.13-.063-.1.035.045.052.074.1.148.151.225a2.3,2.3,0,0,1,.132.237c.025.049.047.1.071.147-.038-.08-.008-.021.01.027a3.5,3.5,0,0,1,.154.52c.01.044.017.089.026.133.034.173-.009-.127.007.049.008.09.015.179.017.27s0,.18,0,.27c0,.044-.011.09-.012.134,0,.074.021-.1,0,.022a3.547,3.547,0,0,1-.161.572.625.625,0,0,0,.435.765.64.64,0,0,0,.765-.434,3.915,3.915,0,0,0-1.881-4.752.639.639,0,0,0-.851.223.628.628,0,0,0,.223.851Z" transform="translate(-71.225 -274.837)" fill="#d52941"/>
      </g>
      <g id="Group_41805" data-name="Group 41805" transform="translate(96.976 3.502)">
        <path id="Path_70135" data-name="Path 70135" d="M306.643,235.49a2.429,2.429,0,0,0-1.384,1.3,2.673,2.673,0,0,0-.234,1.017,2.428,2.428,0,0,0,.222,1.016.62.62,0,0,0,.372.286.633.633,0,0,0,.479-.063.627.627,0,0,0,.286-.372.734.734,0,0,0-.063-.479c.085.2.007.008-.007-.044s-.027-.111-.039-.167c-.022-.1.012.134.006.057,0-.026-.005-.052-.007-.078v-.172a.627.627,0,0,1,.013-.172c-.01.027-.027.163-.006.057l.015-.077c.012-.056.028-.112.045-.167s.1-.229.009-.044a3.283,3.283,0,0,1,.156-.292c.014-.022.029-.044.044-.065.034-.049.1-.085-.022.026.037-.036.068-.08.1-.118a1.446,1.446,0,0,1,.125-.118c.074-.067-.011.011-.041.029.027-.015.051-.037.076-.054a1.529,1.529,0,0,1,.134-.08l.084-.042c.1-.049-.142.056-.032.014a.674.674,0,0,0,.372-.286.637.637,0,0,0,.063-.479.629.629,0,0,0-.765-.434Z" transform="translate(-305.024 -235.459)" fill="#d52941"/>
      </g>
      <g id="Group_41806" data-name="Group 41806" transform="translate(65.462 32.524)">
        <path id="Path_70136" data-name="Path 70136" d="M233.007,305.44c-2.215.363-2.981,3.365-2.086,5.148a1.922,1.922,0,0,0,2.739.88,1.494,1.494,0,0,0,.741-1.34,1.525,1.525,0,0,0-.9-1.266,2.848,2.848,0,0,0-1.764-.165c-.518.1-1.244.448-1.756.215a.641.641,0,0,0-.851.223.627.627,0,0,0,.223.851,2.678,2.678,0,0,0,1.658.158c.243-.044.482-.108.721-.168.111-.028.223-.056.335-.079.04-.008.08-.016.12-.022-.09.013.015,0,.052,0,.1,0,.19-.006.286,0a.91.91,0,0,1,.127.011c-.032,0-.094-.022.021.007a.943.943,0,0,1,.4.156c-.093-.061.058.058.08.087-.081-.1,0,0,0,.01.021-.073-.041-.041,0,.007s.017.079.01.007a.633.633,0,0,1,0,.112c.012-.166,0,0-.007-.006h0l-.027.046c.052-.092-.044.046-.083.081.077-.069-.073.04-.111.062-.151.087.057-.014-.041.017l-.114.032c-.017,0-.138.021-.063.014s-.079,0-.094,0c-.168.012.056.02-.038,0-.038-.008-.075-.018-.113-.03-.093-.029.079.046-.017-.01-.039-.023-.079-.045-.117-.071a1.137,1.137,0,0,1-.275-.321,2.582,2.582,0,0,1-.141-2.02,2.554,2.554,0,0,1,.5-.926,1.41,1.41,0,0,1,.918-.5.627.627,0,0,0,.434-.766.637.637,0,0,0-.765-.434Z" transform="translate(-229.047 -305.428)" fill="#d52941"/>
      </g>
      <g id="Group_41807" data-name="Group 41807" transform="translate(34.056 42.052)">
        <path id="Path_70137" data-name="Path 70137" d="M154.958,328.492a3.6,3.6,0,0,0-.528,5.6.638.638,0,0,0,.88,0,.627.627,0,0,0,0-.88,2.507,2.507,0,0,1-.236-.229c-.019-.021-.119-.145-.041-.041q-.04-.054-.078-.111a2.584,2.584,0,0,1-.15-.256c-.025-.048-.048-.1-.07-.146.055.127-.012-.039-.017-.053a2.879,2.879,0,0,1-.083-.287c-.011-.044-.02-.089-.029-.134s-.024-.163-.011-.051a3.279,3.279,0,0,1-.012-.631,1.272,1.272,0,0,1,.013-.137c-.017.145.009-.036.012-.052q.029-.148.071-.293a2.46,2.46,0,0,1,.1-.285c-.048.123.013-.025.025-.051.024-.049.049-.1.075-.144a2.663,2.663,0,0,1,.159-.252l.048-.066c-.037.048-.041.055-.013.021s.059-.068.09-.1a2.725,2.725,0,0,1,.237-.222c-.083.069.018-.012.049-.033s.092-.059.14-.088a.623.623,0,0,0-.628-1.075Z" transform="translate(-153.33 -328.4)" fill="#d52941"/>
      </g>
      <g id="Group_41808" data-name="Group 41808" transform="translate(101.175 23.478)">
        <path id="Path_70138" data-name="Path 70138" d="M315.325,284.68a4.216,4.216,0,0,1,.376,4.69.623.623,0,0,0,1.074.628,5.506,5.506,0,0,0-.57-6.2.627.627,0,0,0-.88,0,.636.636,0,0,0,0,.88Z" transform="translate(-315.148 -283.62)" fill="#d52941"/>
      </g>
      <g id="Group_41809" data-name="Group 41809" transform="translate(66.056 13.532)">
        <path id="Path_70139" data-name="Path 70139" d="M230.5,260.262a5.34,5.34,0,0,0,2.589,4.954.622.622,0,1,0,.628-1.074,4.119,4.119,0,0,1-1.914-2.711c-.011-.054-.022-.107-.031-.161a.846.846,0,0,0-.018-.112c.008.06-.011-.116-.011-.112,0-.043-.007-.087-.01-.13a4.474,4.474,0,0,1,.012-.655.627.627,0,0,0-.622-.622.635.635,0,0,0-.622.622Z" transform="translate(-230.48 -259.64)" fill="#d52941"/>
      </g>
      <g id="Group_41810" data-name="Group 41810" transform="translate(31.392 24.818)">
        <path id="Path_70140" data-name="Path 70140" d="M147.529,288.1a1.587,1.587,0,0,1,.761.22,2.409,2.409,0,0,1,.211.136c.1.073.044.035.024.018.032.027.064.055.1.083a2.523,2.523,0,0,1,.179.179c.022.024.15.182.1.119a3.345,3.345,0,0,1,.261.435c.006.011.049.108.014.025.016.039.031.079.044.118.028.079.051.16.071.241a1.676,1.676,0,0,1-.008.815,1.159,1.159,0,0,1-.173.385.786.786,0,0,1-.253.247c.024-.012-.185.043-.065.031a.742.742,0,0,1-.121,0c.1.007.008,0-.015-.007-.1-.019-.056-.016-.021,0a.672.672,0,0,1-.1-.059c.047.033.019.044-.009-.015.045.1-.028-.056,0,.008s0-.08,0-.014.016-.04.006-.044c.023.01-.01.061-.018.073.024-.034.039-.076.064-.11-.058.08.128-.117.059-.061a1.282,1.282,0,0,1,.269-.161,3.236,3.236,0,0,1,.421-.123,2.412,2.412,0,0,1,.513-.05,2.9,2.9,0,0,1,2.113.891c.555.58,1.434-.3.88-.88a4.145,4.145,0,0,0-3.029-1.255c-1.05.017-2.673.555-2.5,1.889a1.369,1.369,0,0,0,1.146,1.135,1.644,1.644,0,0,0,1.563-.626,2.879,2.879,0,0,0,.228-3.081,3.184,3.184,0,0,0-2.709-1.806.622.622,0,1,0,0,1.244Z" transform="translate(-146.907 -286.85)" fill="#d52941"/>
      </g>
    </g>
  </g>
</svg>
