<svg xmlns="http://www.w3.org/2000/svg" xmlns:xlink="http://www.w3.org/1999/xlink" width="216.916" height="232.089" viewBox="0 0 216.916 232.089"><defs><style>.a,.bb,.bd,.bf,.bh,.bn{fill:none;}.b{fill:#f2f9ff;}.c{fill:url(#a);}.d{fill:url(#b);}.e{fill:url(#c);}.f{fill:url(#d);}.g{fill:url(#e);}.h{fill:#d42941;}.i{fill:url(#f);}.j{fill:url(#g);}.k{fill:url(#h);}.l{fill:url(#i);}.m{fill:url(#j);}.n{fill:url(#k);}.o{fill:url(#l);}.p{fill:url(#m);}.q{fill:url(#n);}.r{fill:url(#o);}.s{fill:url(#p);}.t{fill:url(#q);}.u{fill:url(#r);}.v{fill:url(#s);}.w{fill:url(#t);}.x{fill:url(#u);}.y{fill:url(#v);}.z{fill:url(#w);}.aa{fill:url(#x);}.ab{fill:url(#y);}.ac{fill:url(#z);}.ad{fill:url(#aa);}.ae{fill:url(#ab);}.af{fill:url(#ac);}.ag{fill:url(#ad);}.ah{fill:url(#ae);}.ai{fill:url(#af);}.aj{fill:url(#ag);}.ak{fill:url(#ah);}.al{fill:url(#ai);}.am{fill:url(#aj);}.an{fill:url(#ak);}.ao{fill:url(#al);}.ap{fill:url(#am);}.aq{fill:url(#an);}.ar{fill:url(#ao);}.as{fill:url(#ap);}.at{fill:#ffd9d9;}.au{clip-path:url(#aq);}.av,.ax{fill:#fff;}.av{opacity:0.25;}.av,.bh{mix-blend-mode:overlay;isolation:isolate;}.aw{fill:#b62c5b;}.ay{fill:url(#ar);}.az{fill:url(#as);}.ba{fill:url(#at);}.bb{stroke:#e16d90;stroke-width:0.447px;}.bb,.bd,.bf,.bh,.bn{stroke-linecap:round;}.bb,.bf,.bh,.bn{stroke-linejoin:round;}.bc{fill:#2a3249;}.bd{stroke:#2a3249;stroke-miterlimit:10;stroke-width:0.473px;}.be{fill:#5cae48;}.bf{stroke:#fff;stroke-width:3px;}.bg{fill:#86ca75;}.bh{stroke:#161515;}.bi{fill:#87cb76;}.bj{fill:url(#au);}.bk{fill:url(#av);}.bl{fill:url(#aw);}.bm{fill:#147ad6;}.bn{stroke:#848484;opacity:0.22;}.bo{fill:#848484;}.bp{fill:#0b3454;}.bq{filter:url(#ax);}</style><linearGradient id="a" x1="0.497" y1="-1.4" x2="0.518" y2="7.263" gradientUnits="objectBoundingBox"><stop offset="0" stop-color="#e0f0ff"/><stop offset="1" stop-color="#9cb1ec"/></linearGradient><linearGradient id="b" x1="0.506" y1="-0.244" x2="0.488" y2="1.828" xlink:href="#a"/><linearGradient id="c" x1="1.437" y1="0.554" x2="7.815" y2="0.799" xlink:href="#a"/><linearGradient id="d" x1="0.507" y1="-0.249" x2="0.489" y2="1.832" xlink:href="#a"/><linearGradient id="e" x1="1.434" y1="0.536" x2="7.743" y2="0.78" xlink:href="#a"/><linearGradient id="f" x1="0.004" y1="-1.675" x2="0.619" y2="0.133" gradientUnits="objectBoundingBox"><stop offset="0" stop-color="#e0f0ff"/><stop offset="1" stop-color="#fff"/></linearGradient><linearGradient id="g" x1="-1.006" y1="-18.947" x2="2.238" y2="-8.749" xlink:href="#a"/><linearGradient id="h" x1="-1.33" y1="-24.98" x2="2.866" y2="-11.819" xlink:href="#a"/><linearGradient id="i" x1="-1.451" y1="-18.891" x2="2.636" y2="-9.014" xlink:href="#a"/><linearGradient id="j" x1="-1.543" y1="-25.418" x2="2.655" y2="-12.258" xlink:href="#a"/><linearGradient id="k" x1="-2.169" y1="-26.544" x2="2.921" y2="-12.911" xlink:href="#a"/><linearGradient id="l" x1="-2.332" y1="-22.61" x2="3.106" y2="-10.994" xlink:href="#a"/><linearGradient id="m" x1="0.501" y1="-115.39" x2="0.686" y2="13.849" xlink:href="#a"/><linearGradient id="n" x1="2.604" y1="-1.308" x2="14.832" y2="22.374" xlink:href="#a"/><linearGradient id="o" x1="2.307" y1="-1.743" x2="14.535" y2="21.94" xlink:href="#a"/><linearGradient id="p" x1="2.009" y1="-2.178" x2="14.238" y2="21.505" xlink:href="#a"/><linearGradient id="q" x1="1.712" y1="-2.612" x2="13.941" y2="21.07" xlink:href="#a"/><linearGradient id="r" x1="1.415" y1="-3.047" x2="13.644" y2="20.636" xlink:href="#a"/><linearGradient id="s" x1="1.118" y1="-3.481" x2="13.347" y2="20.201" xlink:href="#a"/><linearGradient id="t" x1="0.821" y1="-3.916" x2="13.05" y2="19.767" xlink:href="#a"/><linearGradient id="u" x1="2.022" y1="-2.191" x2="14.251" y2="21.492" xlink:href="#a"/><linearGradient id="v" x1="1.725" y1="-2.625" x2="13.954" y2="21.057" xlink:href="#a"/><linearGradient id="w" x1="1.428" y1="-3.06" x2="13.657" y2="20.623" xlink:href="#a"/><linearGradient id="x" x1="1.131" y1="-3.495" x2="13.36" y2="20.188" xlink:href="#a"/><linearGradient id="y" x1="0.834" y1="-3.929" x2="13.063" y2="19.753" xlink:href="#a"/><linearGradient id="z" x1="0.537" y1="-4.364" x2="12.766" y2="19.319" xlink:href="#a"/><linearGradient id="aa" x1="0.24" y1="-4.798" x2="12.469" y2="18.884" xlink:href="#a"/><linearGradient id="ab" x1="1.441" y1="-3.073" x2="13.67" y2="20.609" xlink:href="#a"/><linearGradient id="ac" x1="1.144" y1="-3.508" x2="13.373" y2="20.175" xlink:href="#a"/><linearGradient id="ad" x1="-0.15" y1="-1.515" x2="1.459" y2="3.475" gradientUnits="objectBoundingBox"><stop offset="0" stop-color="#d4b6ff"/><stop offset="1" stop-color="#7d35f0"/></linearGradient><linearGradient id="ae" x1="0.55" y1="-4.377" x2="12.779" y2="19.305" xlink:href="#a"/><linearGradient id="af" x1="0.253" y1="-4.812" x2="12.482" y2="18.871" xlink:href="#a"/><linearGradient id="ag" x1="-0.044" y1="-5.246" x2="12.184" y2="18.436" xlink:href="#a"/><linearGradient id="ah" x1="-0.341" y1="-5.681" x2="11.887" y2="18.002" xlink:href="#a"/><linearGradient id="ai" x1="0.86" y1="-3.956" x2="13.089" y2="19.727" xlink:href="#a"/><linearGradient id="aj" x1="0.563" y1="-4.39" x2="12.792" y2="19.292" xlink:href="#a"/><linearGradient id="ak" x1="0.266" y1="-4.825" x2="12.495" y2="18.858" xlink:href="#a"/><linearGradient id="al" x1="-0.031" y1="-5.259" x2="12.198" y2="18.423" xlink:href="#a"/><linearGradient id="am" x1="-0.328" y1="-5.694" x2="11.9" y2="17.989" xlink:href="#a"/><linearGradient id="an" x1="-0.625" y1="-6.129" x2="11.603" y2="17.554" xlink:href="#a"/><linearGradient id="ao" x1="-0.922" y1="-6.563" x2="11.306" y2="17.119" xlink:href="#a"/><linearGradient id="ap" x1="0.689" y1="-2.638" x2="0.428" y2="1.532" gradientUnits="objectBoundingBox"><stop offset="0" stop-color="#2a3264"/><stop offset="1" stop-color="#4f61a5"/></linearGradient><clipPath id="aq"><path class="a" d="M575.14,266.238a27.741,27.741,0,0,1-14.656,6.421l-1.394-6.878v42.552s0,1.963-6.946,3.387a97.912,97.912,0,0,1-24.674,1c-7.1-.644-14.124-2.27-18.942-5.627,0-7.418,1.5-48.254,1.588-50.795l.008-.127s-2.72,5.949-6.444,12.348c-.884-.824-1.971-1.843-3.192-3.027-2.727-2.608-6.152-5.987-9.613-9.643,4.121-9.591,10.393-22.951,14.177-25.139,6.009-3.477,25.453-7.748,25.453-7.748l8.647-.764S562.3,228.57,567.1,235.157C569.355,238.244,572.465,252.233,575.14,266.238Z" transform="translate(-490.874 -222.194)"/></clipPath><linearGradient id="ar" x1="0.677" y1="0.518" x2="8.458" y2="-3.59" gradientUnits="objectBoundingBox"><stop offset="0" stop-color="#ffbfcd"/><stop offset="1" stop-color="#e16d90"/></linearGradient><linearGradient id="as" x1="0.492" y1="1.327" x2="0.514" y2="-0.726" xlink:href="#ap"/><linearGradient id="at" x1="0.602" y1="1.05" x2="0.305" y2="-1.039" xlink:href="#ar"/><linearGradient id="au" x1="0.207" y1="3.309" x2="1.082" y2="-5.082" xlink:href="#a"/><linearGradient id="av" x1="-0.041" y1="2.399" x2="1.397" y2="-3.046" xlink:href="#a"/><linearGradient id="aw" x1="0.358" y1="2.897" x2="0.511" y2="-0.105" xlink:href="#a"/><filter id="ax" x="36.076" y="91.69" width="140.399" height="140.399" filterUnits="userSpaceOnUse"><feOffset input="SourceAlpha"/><feGaussianBlur stdDeviation="15" result="ay"/><feFlood flood-opacity="0.102"/><feComposite operator="in" in2="ay"/><feComposite in="SourceGraphic"/></filter></defs><g transform="translate(-360.64 -151.76)"><g transform="translate(369.369 166.434)"><path class="b" d="M549.861,278.77a83.448,83.448,0,0,1-11.854,13.5,85.79,85.79,0,0,1-8.969,7.216c-.4.285-.8.562-1.214.839-13.128,8.887-29.844,15.076-50.1,16.552a142.739,142.739,0,0,1-29.814-1.087c-2.892-.4-5.844-.884-8.849-1.461a108.041,108.041,0,0,1-17.234-4.743,86.5,86.5,0,0,1-18.305-9.261c-45.332-30.414-38.6-94.441,2.682-116.043,1.454-.772,2.952-1.476,4.5-2.128a63.853,63.853,0,0,1,13.352-3.994,423.969,423.969,0,0,1,43.369-6.009q2.282-.18,4.488-.322,7.025-.45,13.307-.48,2.293-.022,4.5.015c.127,0,.247.007.367.007,13.412.255,24.285,1.963,33.149,4.908,10.048,3.349,17.526,8.28,23.206,14.476a48.986,48.986,0,0,1,4.5,5.7c5.575,8.152,8.954,17.938,11.457,28.84C566.143,241.635,561.924,261.611,549.861,278.77Z" transform="translate(-372.29 -171.344)"/><path class="c" d="M538.275,343.484c-13.128,8.887-29.844,15.076-50.1,16.552a142.747,142.747,0,0,1-29.814-1.086c-2.892-.4-5.844-.884-8.849-1.461a108.045,108.045,0,0,1-17.234-4.743,86.5,86.5,0,0,1-18.305-9.261Z" transform="translate(-382.741 -214.5)"/><g transform="translate(112.929)"><path class="d" d="M588.717,196.46V268.2H523V171.351q2.293-.022,4.5.015c.127,0,.247.007.367.007,13.412.255,24.285,1.963,33.149,4.908,10.048,3.349,17.526,8.28,23.206,14.476A48.981,48.981,0,0,1,588.717,196.46Z" transform="translate(-523.004 -171.344)"/><path class="e" d="M585.726,190.766V263.71H529V171.374c.127,0,.247.007.367.007,13.412.255,24.285,1.963,33.149,4.908C572.568,179.639,580.046,184.569,585.726,190.766Z" transform="translate(-524.508 -171.351)"/></g><g transform="translate(33.916 0.487)"><path class="f" d="M483.26,171.994v96.367H417.554V184.447c1.454-.772,2.952-1.476,4.5-2.128a63.854,63.854,0,0,1,13.352-3.994,423.954,423.954,0,0,1,43.369-6.009Q481.053,172.136,483.26,171.994Z" transform="translate(-417.554 -171.994)"/><path class="g" d="M480.276,172.424v91.549H423.554V182.427a63.856,63.856,0,0,1,13.352-3.994A423.967,423.967,0,0,1,480.276,172.424Z" transform="translate(-419.058 -172.102)"/></g></g><g transform="translate(372.66 151.76)"><g transform="translate(0 2.147)"><path class="h" d="M5.644,0H90.6a5.644,5.644,0,0,1,5.644,5.644v6.048a0,0,0,0,1,0,0H0a0,0,0,0,1,0,0V5.644A5.644,5.644,0,0,1,5.644,0Z" transform="translate(0 10.974) rotate(-6.547)"/><path class="i" d="M0,0H96.244a0,0,0,0,1,0,0V61.719A5.644,5.644,0,0,1,90.6,67.362H5.644A5.644,5.644,0,0,1,0,61.719V0A0,0,0,0,1,0,0Z" transform="translate(1.333 22.59) rotate(-6.547)"/><g transform="translate(9.944 27.586)"><path class="j" d="M392.708,196.4l-1.671.192-.23.808-.853.1,1.191-3.782.823-.094,2.022,3.413-.874.1Zm-.335-.6-.728-1.312-.413,1.443Z" transform="translate(-389.954 -191.989)"/><path class="k" d="M398.053,194.02l.318,2.765-.761.087-.038-.329a1.079,1.079,0,0,1-.349.319,1.213,1.213,0,0,1-.467.15,1.187,1.187,0,0,1-.9-.214,1.258,1.258,0,0,1-.426-.894l-.179-1.562.8-.092.166,1.444q.078.669.637.6a.606.606,0,0,0,.441-.241.8.8,0,0,0,.11-.578l-.157-1.367Z" transform="translate(-391.282 -192.088)"/><path class="l" d="M402.815,193.469l.264,2.3a1.488,1.488,0,0,1-.266,1.176,1.646,1.646,0,0,1-1.113.5,2.95,2.95,0,0,1-.773-.01,1.7,1.7,0,0,1-.629-.214l.253-.613a1.316,1.316,0,0,0,.468.178,1.755,1.755,0,0,0,.544.023.871.871,0,0,0,.593-.258.756.756,0,0,0,.133-.591l-.013-.118a1.13,1.13,0,0,1-.835.444,1.48,1.48,0,0,1-.716-.087,1.276,1.276,0,0,1-.554-.413,1.417,1.417,0,0,1-.16-1.4,1.28,1.28,0,0,1,.447-.527,1.467,1.467,0,0,1,.677-.247,1.1,1.1,0,0,1,.96.291l-.04-.355Zm-.79,1.9a.7.7,0,0,0-.112-.982.828.828,0,0,0-1.046.121.691.691,0,0,0,.112.981.826.826,0,0,0,1.046-.12Z" transform="translate(-392.446 -191.95)"/><path class="m" d="M407.566,192.928l.317,2.765-.76.088-.038-.329a1.076,1.076,0,0,1-.349.318,1.2,1.2,0,0,1-.467.15,1.184,1.184,0,0,1-.9-.214,1.256,1.256,0,0,1-.426-.894l-.179-1.562.8-.092.166,1.445q.076.668.636.6a.606.606,0,0,0,.442-.241.8.8,0,0,0,.11-.578l-.157-1.367Z" transform="translate(-393.667 -191.815)"/><path class="n" d="M410.031,195.444a1.766,1.766,0,0,1-.55-.153l.2-.606a1.717,1.717,0,0,0,.47.142,1.892,1.892,0,0,0,.522.015q.509-.058.479-.31c-.009-.079-.061-.13-.158-.154a2.116,2.116,0,0,0-.437-.038,4.107,4.107,0,0,1-.573-.054.875.875,0,0,1-.41-.193.678.678,0,0,1-.218-.465.762.762,0,0,1,.1-.483.983.983,0,0,1,.405-.366,1.9,1.9,0,0,1,.674-.192,2.73,2.73,0,0,1,.59,0,1.655,1.655,0,0,1,.5.122l-.2.6a1.61,1.61,0,0,0-.82-.114.816.816,0,0,0-.378.116.213.213,0,0,0-.107.2.184.184,0,0,0,.16.164,2.412,2.412,0,0,0,.453.047,4.855,4.855,0,0,1,.569.057.837.837,0,0,1,.4.191.667.667,0,0,1,.214.454.733.733,0,0,1-.1.476.982.982,0,0,1-.414.362,2,2,0,0,1-.689.191A2.7,2.7,0,0,1,410.031,195.444Z" transform="translate(-394.817 -191.725)"/><path class="o" d="M415.117,194.583a.822.822,0,0,1-.275.165,1.5,1.5,0,0,1-.357.085,1.08,1.08,0,0,1-.791-.165.966.966,0,0,1-.356-.709l-.13-1.136-.426.049-.071-.616.426-.049-.077-.673.8-.092.077.674.689-.079.07.617-.689.079.13,1.126a.376.376,0,0,0,.121.259.335.335,0,0,0,.265.066.518.518,0,0,0,.312-.14Z" transform="translate(-395.659 -191.442)"/></g><rect class="p" width="52.747" height="0.626" transform="translate(37.242 27.844) rotate(-6.547)"/><g transform="translate(9.291 28.391)"><rect class="q" width="9.959" height="8.992" rx="1.931" transform="matrix(0.993, -0.114, 0.114, 0.993, 0, 9.571)"/><rect class="r" width="9.959" height="8.992" rx="1.931" transform="translate(12.249 8.165) rotate(-6.548)"/><rect class="s" width="9.959" height="8.992" rx="1.931" transform="matrix(0.993, -0.114, 0.114, 0.993, 24.499, 6.759)"/><rect class="t" width="9.959" height="8.991" rx="1.931" transform="matrix(0.993, -0.114, 0.114, 0.993, 36.748, 5.353)"/><rect class="u" width="9.959" height="8.992" rx="1.931" transform="translate(48.997 3.947) rotate(-6.548)"/><rect class="v" width="9.959" height="8.992" rx="1.931" transform="matrix(0.993, -0.114, 0.114, 0.993, 61.246, 2.541)"/><rect class="w" width="9.959" height="8.991" rx="1.931" transform="matrix(0.993, -0.114, 0.114, 0.993, 73.496, 1.135)"/></g><g transform="translate(10.502 38.943)"><rect class="x" width="9.959" height="8.992" rx="1.931" transform="translate(0 9.571) rotate(-6.548)"/><rect class="y" width="9.959" height="8.992" rx="1.931" transform="translate(12.249 8.165) rotate(-6.547)"/><rect class="z" width="9.959" height="8.991" rx="1.931" transform="translate(24.499 6.759) rotate(-6.547)"/><rect class="aa" width="9.959" height="8.992" rx="1.931" transform="translate(36.748 5.353) rotate(-6.548)"/><rect class="ab" width="9.959" height="8.992" rx="1.931" transform="matrix(0.993, -0.114, 0.114, 0.993, 48.997, 3.947)"/><rect class="ac" width="9.959" height="8.991" rx="1.931" transform="matrix(0.993, -0.114, 0.114, 0.993, 61.246, 2.541)"/><rect class="ad" width="9.959" height="8.991" rx="1.931" transform="translate(73.496 1.136) rotate(-6.548)"/></g><g transform="translate(11.713 49.494)"><rect class="ae" width="9.959" height="8.992" rx="1.931" transform="matrix(0.993, -0.114, 0.114, 0.993, 0, 9.571)"/><rect class="af" width="9.959" height="8.991" rx="1.931" transform="matrix(0.993, -0.114, 0.114, 0.993, 12.249, 8.165)"/><rect class="ag" width="9.959" height="8.992" rx="1.931" transform="translate(24.498 6.759) rotate(-6.548)"/><rect class="ah" width="9.959" height="8.992" rx="1.931" transform="matrix(0.993, -0.114, 0.114, 0.993, 36.748, 5.353)"/><rect class="ai" width="9.959" height="8.992" rx="1.931" transform="translate(48.997 3.947) rotate(-6.548)"/><rect class="aj" width="9.959" height="8.991" rx="1.931" transform="translate(61.246 2.541) rotate(-6.548)"/><rect class="ak" width="9.959" height="8.992" rx="1.931" transform="matrix(0.993, -0.114, 0.114, 0.993, 73.496, 1.135)"/></g><g transform="translate(12.924 60.046)"><rect class="al" width="9.959" height="8.991" rx="1.931" transform="matrix(0.993, -0.114, 0.114, 0.993, 0, 9.571)"/><rect class="am" width="9.959" height="8.992" rx="1.931" transform="translate(12.249 8.165) rotate(-6.548)"/><rect class="an" width="9.959" height="8.992" rx="1.931" transform="matrix(0.993, -0.114, 0.114, 0.993, 24.499, 6.759)"/><rect class="ao" width="9.959" height="8.992" rx="1.931" transform="translate(36.748 5.353) rotate(-6.548)"/><rect class="ap" width="9.959" height="8.991" rx="1.931" transform="translate(48.997 3.947) rotate(-6.548)"/><rect class="aq" width="9.959" height="8.992" rx="1.931" transform="matrix(0.993, -0.114, 0.114, 0.993, 61.246, 2.541)"/><rect class="ar" width="9.959" height="8.992" rx="1.931" transform="translate(73.496 1.136) rotate(-6.548)"/></g></g><g transform="translate(14.794)"><path d="M398.8,171.2h0a1.409,1.409,0,0,1-1.561-1.24l-.808-7.04a1.41,1.41,0,0,1,1.24-1.561h0a1.409,1.409,0,0,1,1.561,1.239l.809,7.04A1.41,1.41,0,0,1,398.8,171.2Z" transform="translate(-396.426 -154.165)"/><path d="M419.692,168.8h0a1.411,1.411,0,0,1-1.562-1.24l-.808-7.04a1.41,1.41,0,0,1,1.24-1.561h0a1.409,1.409,0,0,1,1.561,1.239l.808,7.04A1.411,1.411,0,0,1,419.692,168.8Z" transform="translate(-401.662 -153.564)"/><path d="M440.58,166.4h0a1.41,1.41,0,0,1-1.561-1.239l-.808-7.04a1.41,1.41,0,0,1,1.24-1.562h0a1.41,1.41,0,0,1,1.561,1.24l.808,7.04A1.41,1.41,0,0,1,440.58,166.4Z" transform="translate(-406.899 -152.962)"/><path d="M461.468,164.007h0a1.41,1.41,0,0,1-1.562-1.24l-.808-7.04a1.409,1.409,0,0,1,1.24-1.561h0a1.409,1.409,0,0,1,1.561,1.239l.808,7.04A1.409,1.409,0,0,1,461.468,164.007Z" transform="translate(-412.136 -152.361)"/><path d="M482.356,161.61h0a1.411,1.411,0,0,1-1.562-1.24l-.808-7.04a1.409,1.409,0,0,1,1.239-1.561h0a1.409,1.409,0,0,1,1.562,1.239l.808,7.04A1.41,1.41,0,0,1,482.356,161.61Z" transform="translate(-417.373 -151.76)"/></g></g><g transform="translate(412.402 155.114)"><path class="as" d="M564.638,335.189a.315.315,0,0,1-.007.052l-.315,3.851c-13.307,9.336-30.429,15.87-51.312,17.391l1.071-22.539,15.668-4.631,6.384,1.079Z" transform="translate(-450.601 -199.627)"/><g transform="translate(0 49.422)"><path class="h" d="M575.14,266.238a27.741,27.741,0,0,1-14.656,6.421l-1.394-6.878v42.552s0,1.963-6.946,3.387a97.912,97.912,0,0,1-24.674,1c-7.1-.644-14.124-2.27-18.942-5.627,0-7.418,1.5-48.254,1.588-50.795l.008-.127s-2.72,5.949-6.444,12.348c-.884-.824-1.971-1.843-3.192-3.027-2.383-2.285-5.3-5.155-8.317-8.287-.435-.45-.862-.9-1.3-1.356,4.121-9.591,10.393-22.951,14.177-25.139,4.024-2.323,14.049-5.005,20.253-6.526,3.072-.757,5.2-1.221,5.2-1.221l8.647-.764s2.143.592,5.26,1.6c7.126,2.3,19.347,6.781,22.689,11.367C569.355,238.244,572.465,252.233,575.14,266.238Z" transform="translate(-445.053 -222.194)"/><path class="at" d="M488.348,271.771c-4.361,7.493-10.1,15.608-14.476,15.518-11.711-.262-34.093-36.371-34.093-36.371s-5.163-1.693-5.612-2.533.315-3.117.315-3.117-5.964-9.171-4.541-10.018,5.208,6.279,5.208,6.279,3.387-2.136,4.721-2.136,4.361,3.911,4.893,6.317,26.667,23.37,26.667,23.37,1.1-2.832,2.81-6.9c.4-.967.839-2,1.3-3.08C480.563,264.406,485.508,269.119,488.348,271.771Z" transform="translate(-429.721 -225.45)"/><path class="at" d="M602.881,306.255a83.457,83.457,0,0,1-11.854,13.5L583.774,287.4a27.741,27.741,0,0,0,14.656-6.421C600.258,290.565,601.884,300.156,602.881,306.255Z" transform="translate(-468.343 -236.931)"/><g transform="translate(45.822)"><g class="au"><g transform="translate(20.141 -28.171)"><path class="av" d="M520.936,208.655a1.618,1.618,0,1,1-1.983-1.143A1.618,1.618,0,0,1,520.936,208.655Z" transform="translate(-517.754 -190.328)"/><path class="av" d="M533.095,205.389a1.618,1.618,0,1,1-1.982-1.143A1.617,1.617,0,0,1,533.095,205.389Z" transform="translate(-520.803 -189.509)"/><path class="av" d="M545.255,202.124a1.618,1.618,0,1,1-1.983-1.143A1.619,1.619,0,0,1,545.255,202.124Z" transform="translate(-523.851 -188.691)"/><path class="av" d="M557.414,198.858a1.618,1.618,0,1,1-1.983-1.143A1.619,1.619,0,0,1,557.414,198.858Z" transform="translate(-526.9 -187.872)"/><path class="av" d="M569.573,195.593a1.618,1.618,0,1,1-1.983-1.143A1.618,1.618,0,0,1,569.573,195.593Z" transform="translate(-529.948 -187.053)"/><path class="av" d="M581.732,192.327a1.618,1.618,0,1,1-1.983-1.143A1.618,1.618,0,0,1,581.732,192.327Z" transform="translate(-532.996 -186.235)"/><path class="av" d="M593.891,189.062a1.618,1.618,0,1,1-1.983-1.143A1.619,1.619,0,0,1,593.891,189.062Z" transform="translate(-536.045 -185.416)"/><path class="av" d="M606.051,185.8a1.618,1.618,0,1,1-1.983-1.143A1.617,1.617,0,0,1,606.051,185.8Z" transform="translate(-539.093 -184.597)"/><g transform="translate(2.182 8.125)"><path class="av" d="M523.848,219.5a1.618,1.618,0,1,1-1.983-1.143A1.617,1.617,0,0,1,523.848,219.5Z" transform="translate(-520.666 -201.171)"/><path class="av" d="M536.007,216.233a1.618,1.618,0,1,1-1.983-1.143A1.619,1.619,0,0,1,536.007,216.233Z" transform="translate(-523.715 -200.353)"/><path class="av" d="M548.167,212.967a1.618,1.618,0,1,1-1.983-1.143A1.618,1.618,0,0,1,548.167,212.967Z" transform="translate(-526.763 -199.534)"/><path class="av" d="M560.326,209.7a1.618,1.618,0,1,1-1.983-1.143A1.618,1.618,0,0,1,560.326,209.7Z" transform="translate(-529.812 -198.715)"/><path class="av" d="M572.485,206.436a1.618,1.618,0,1,1-1.982-1.143A1.617,1.617,0,0,1,572.485,206.436Z" transform="translate(-532.86 -197.897)"/><path class="av" d="M584.644,203.171a1.618,1.618,0,1,1-1.983-1.143A1.619,1.619,0,0,1,584.644,203.171Z" transform="translate(-535.908 -197.078)"/><path class="av" d="M596.8,199.9a1.618,1.618,0,1,1-1.983-1.143A1.618,1.618,0,0,1,596.8,199.9Z" transform="translate(-538.957 -196.259)"/><path class="av" d="M608.963,196.64a1.618,1.618,0,1,1-1.983-1.143A1.618,1.618,0,0,1,608.963,196.64Z" transform="translate(-542.005 -195.441)"/></g><g transform="translate(4.364 16.25)"><path class="av" d="M526.76,230.342a1.618,1.618,0,1,1-1.982-1.143A1.618,1.618,0,0,1,526.76,230.342Z" transform="translate(-523.579 -212.015)"/><path class="av" d="M538.919,227.076a1.618,1.618,0,1,1-1.983-1.143A1.618,1.618,0,0,1,538.919,227.076Z" transform="translate(-526.627 -211.196)"/><path class="av" d="M551.078,223.811a1.618,1.618,0,1,1-1.983-1.143A1.619,1.619,0,0,1,551.078,223.811Z" transform="translate(-529.675 -210.378)"/><path class="av" d="M563.238,220.545a1.618,1.618,0,1,1-1.983-1.143A1.617,1.617,0,0,1,563.238,220.545Z" transform="translate(-532.724 -209.559)"/><path class="av" d="M575.4,217.28a1.618,1.618,0,1,1-1.983-1.143A1.619,1.619,0,0,1,575.4,217.28Z" transform="translate(-535.772 -208.74)"/><path class="av" d="M587.557,214.014a1.618,1.618,0,1,1-1.983-1.143A1.619,1.619,0,0,1,587.557,214.014Z" transform="translate(-538.821 -207.922)"/><path class="av" d="M599.716,210.749a1.618,1.618,0,1,1-1.983-1.143A1.618,1.618,0,0,1,599.716,210.749Z" transform="translate(-541.869 -207.103)"/><path class="av" d="M611.875,207.483a1.618,1.618,0,1,1-1.982-1.143A1.617,1.617,0,0,1,611.875,207.483Z" transform="translate(-544.918 -206.284)"/></g><g transform="translate(6.546 24.375)"><path class="av" d="M529.672,241.185a1.618,1.618,0,1,1-1.983-1.143A1.619,1.619,0,0,1,529.672,241.185Z" transform="translate(-526.491 -222.859)"/><path class="av" d="M541.832,237.92a1.618,1.618,0,1,1-1.983-1.143A1.619,1.619,0,0,1,541.832,237.92Z" transform="translate(-529.539 -222.04)"/><path class="av" d="M553.991,234.654a1.618,1.618,0,1,1-1.983-1.143A1.618,1.618,0,0,1,553.991,234.654Z" transform="translate(-532.588 -221.221)"/><path class="av" d="M566.15,231.389a1.618,1.618,0,1,1-1.982-1.143A1.618,1.618,0,0,1,566.15,231.389Z" transform="translate(-535.636 -220.402)"/><path class="av" d="M578.309,228.123a1.618,1.618,0,1,1-1.983-1.143A1.619,1.619,0,0,1,578.309,228.123Z" transform="translate(-538.684 -219.584)"/><path class="av" d="M590.469,224.858a1.618,1.618,0,1,1-1.983-1.143A1.619,1.619,0,0,1,590.469,224.858Z" transform="translate(-541.733 -218.765)"/><path class="av" d="M602.628,221.592a1.618,1.618,0,1,1-1.983-1.143A1.617,1.617,0,0,1,602.628,221.592Z" transform="translate(-544.781 -217.946)"/><path class="av" d="M614.787,218.327a1.618,1.618,0,1,1-1.983-1.143A1.619,1.619,0,0,1,614.787,218.327Z" transform="translate(-547.83 -217.128)"/></g><g transform="translate(8.728 32.5)"><path class="av" d="M532.584,252.029a1.618,1.618,0,1,1-1.983-1.143A1.619,1.619,0,0,1,532.584,252.029Z" transform="translate(-529.403 -233.702)"/><path class="av" d="M544.743,248.763a1.618,1.618,0,1,1-1.983-1.143A1.618,1.618,0,0,1,544.743,248.763Z" transform="translate(-532.451 -232.883)"/><path class="av" d="M556.9,245.5a1.618,1.618,0,1,1-1.983-1.143A1.618,1.618,0,0,1,556.9,245.5Z" transform="translate(-535.5 -232.065)"/><path class="av" d="M569.063,242.232a1.619,1.619,0,1,1-1.983-1.143A1.619,1.619,0,0,1,569.063,242.232Z" transform="translate(-538.548 -231.246)"/><path class="av" d="M581.221,238.967a1.618,1.618,0,1,1-1.983-1.143A1.619,1.619,0,0,1,581.221,238.967Z" transform="translate(-541.596 -230.427)"/><path class="av" d="M593.381,235.7a1.618,1.618,0,1,1-1.983-1.143A1.619,1.619,0,0,1,593.381,235.7Z" transform="translate(-544.645 -229.609)"/><path class="av" d="M605.54,232.436a1.618,1.618,0,1,1-1.982-1.143A1.618,1.618,0,0,1,605.54,232.436Z" transform="translate(-547.693 -228.79)"/><path class="av" d="M617.7,229.17a1.618,1.618,0,1,1-1.983-1.143A1.618,1.618,0,0,1,617.7,229.17Z" transform="translate(-550.742 -227.971)"/></g></g><g transform="translate(-22.993 63.132)"><path class="av" d="M463.369,330.506a1.618,1.618,0,1,1-1.983-1.143A1.618,1.618,0,0,1,463.369,330.506Z" transform="translate(-460.187 -312.18)"/><path class="av" d="M475.528,327.241a1.618,1.618,0,1,1-1.982-1.143A1.618,1.618,0,0,1,475.528,327.241Z" transform="translate(-463.236 -311.361)"/><path class="av" d="M487.688,323.975a1.618,1.618,0,1,1-1.983-1.143A1.618,1.618,0,0,1,487.688,323.975Z" transform="translate(-466.284 -310.542)"/><path class="av" d="M499.847,320.71a1.618,1.618,0,1,1-1.983-1.143A1.619,1.619,0,0,1,499.847,320.71Z" transform="translate(-469.333 -309.723)"/><path class="av" d="M512.006,317.444a1.618,1.618,0,1,1-1.983-1.143A1.617,1.617,0,0,1,512.006,317.444Z" transform="translate(-472.381 -308.905)"/><path class="av" d="M524.165,314.179a1.618,1.618,0,1,1-1.983-1.143A1.619,1.619,0,0,1,524.165,314.179Z" transform="translate(-475.429 -308.086)"/><path class="av" d="M536.324,310.913a1.618,1.618,0,1,1-1.983-1.143A1.618,1.618,0,0,1,536.324,310.913Z" transform="translate(-478.478 -307.267)"/><path class="av" d="M548.484,307.648A1.618,1.618,0,1,1,546.5,306.5,1.618,1.618,0,0,1,548.484,307.648Z" transform="translate(-481.526 -306.449)"/><g transform="translate(2.182 8.125)"><path class="av" d="M466.281,341.35a1.618,1.618,0,1,1-1.983-1.143A1.618,1.618,0,0,1,466.281,341.35Z" transform="translate(-463.099 -323.023)"/><path class="av" d="M478.44,338.084a1.618,1.618,0,1,1-1.983-1.143A1.619,1.619,0,0,1,478.44,338.084Z" transform="translate(-466.148 -322.204)"/><path class="av" d="M490.6,334.819a1.618,1.618,0,1,1-1.983-1.143A1.619,1.619,0,0,1,490.6,334.819Z" transform="translate(-469.196 -321.386)"/><path class="av" d="M502.759,331.553a1.618,1.618,0,1,1-1.983-1.143A1.618,1.618,0,0,1,502.759,331.553Z" transform="translate(-472.245 -320.567)"/><path class="av" d="M514.918,328.288a1.618,1.618,0,1,1-1.982-1.143A1.618,1.618,0,0,1,514.918,328.288Z" transform="translate(-475.293 -319.748)"/><path class="av" d="M527.078,325.022a1.618,1.618,0,1,1-1.983-1.143A1.619,1.619,0,0,1,527.078,325.022Z" transform="translate(-478.341 -318.93)"/><path class="av" d="M539.237,321.757a1.618,1.618,0,1,1-1.983-1.143A1.619,1.619,0,0,1,539.237,321.757Z" transform="translate(-481.39 -318.111)"/><path class="av" d="M551.4,318.491a1.618,1.618,0,1,1-1.983-1.143A1.618,1.618,0,0,1,551.4,318.491Z" transform="translate(-484.438 -317.292)"/></g><g transform="translate(4.364 16.25)"><path class="av" d="M469.193,352.193a1.618,1.618,0,1,1-1.982-1.143A1.617,1.617,0,0,1,469.193,352.193Z" transform="translate(-466.012 -333.867)"/><path class="av" d="M481.352,348.928a1.618,1.618,0,1,1-1.983-1.143A1.619,1.619,0,0,1,481.352,348.928Z" transform="translate(-469.06 -333.048)"/><path class="av" d="M493.511,345.662a1.618,1.618,0,1,1-1.983-1.143A1.619,1.619,0,0,1,493.511,345.662Z" transform="translate(-472.108 -332.229)"/><path class="av" d="M505.671,342.4a1.618,1.618,0,1,1-1.983-1.143A1.618,1.618,0,0,1,505.671,342.4Z" transform="translate(-475.157 -331.411)"/><path class="av" d="M517.831,339.131a1.618,1.618,0,1,1-1.983-1.143A1.619,1.619,0,0,1,517.831,339.131Z" transform="translate(-478.205 -330.592)"/><path class="av" d="M529.99,335.866a1.618,1.618,0,1,1-1.983-1.143A1.619,1.619,0,0,1,529.99,335.866Z" transform="translate(-481.254 -329.773)"/><path class="av" d="M542.149,332.6a1.618,1.618,0,1,1-1.983-1.143A1.617,1.617,0,0,1,542.149,332.6Z" transform="translate(-484.302 -328.954)"/><path class="av" d="M554.308,329.335a1.618,1.618,0,1,1-1.982-1.143A1.618,1.618,0,0,1,554.308,329.335Z" transform="translate(-487.351 -328.136)"/></g><g transform="translate(6.546 24.375)"><path class="av" d="M472.105,363.037a1.618,1.618,0,1,1-1.983-1.143A1.619,1.619,0,0,1,472.105,363.037Z" transform="translate(-468.924 -344.71)"/><path class="av" d="M484.265,359.771a1.618,1.618,0,1,1-1.983-1.143A1.619,1.619,0,0,1,484.265,359.771Z" transform="translate(-471.972 -343.891)"/><path class="av" d="M496.424,356.506a1.618,1.618,0,1,1-1.983-1.143A1.618,1.618,0,0,1,496.424,356.506Z" transform="translate(-475.021 -343.073)"/><path class="av" d="M508.583,353.24A1.618,1.618,0,1,1,506.6,352.1,1.617,1.617,0,0,1,508.583,353.24Z" transform="translate(-478.069 -342.254)"/><path class="av" d="M520.742,349.975a1.618,1.618,0,1,1-1.983-1.143A1.619,1.619,0,0,1,520.742,349.975Z" transform="translate(-481.117 -341.435)"/><path class="av" d="M532.9,346.709a1.618,1.618,0,1,1-1.983-1.143A1.618,1.618,0,0,1,532.9,346.709Z" transform="translate(-484.166 -340.617)"/><path class="av" d="M545.061,343.444a1.618,1.618,0,1,1-1.983-1.143A1.618,1.618,0,0,1,545.061,343.444Z" transform="translate(-487.214 -339.798)"/><path class="av" d="M557.22,340.178a1.618,1.618,0,1,1-1.983-1.143A1.618,1.618,0,0,1,557.22,340.178Z" transform="translate(-490.263 -338.979)"/></g><g transform="translate(8.728 32.5)"><path class="av" d="M475.018,373.88a1.618,1.618,0,1,1-1.983-1.143A1.618,1.618,0,0,1,475.018,373.88Z" transform="translate(-471.836 -355.553)"/><path class="av" d="M487.177,370.615a1.618,1.618,0,1,1-1.983-1.143A1.619,1.619,0,0,1,487.177,370.615Z" transform="translate(-474.884 -354.735)"/><path class="av" d="M499.336,367.349a1.618,1.618,0,1,1-1.983-1.143A1.617,1.617,0,0,1,499.336,367.349Z" transform="translate(-477.933 -353.916)"/><path class="av" d="M511.5,364.084a1.618,1.618,0,1,1-1.983-1.143A1.619,1.619,0,0,1,511.5,364.084Z" transform="translate(-480.981 -353.097)"/><path class="av" d="M523.654,360.818a1.618,1.618,0,1,1-1.983-1.143A1.618,1.618,0,0,1,523.654,360.818Z" transform="translate(-484.029 -352.279)"/><path class="av" d="M535.814,357.553a1.618,1.618,0,1,1-1.983-1.143A1.618,1.618,0,0,1,535.814,357.553Z" transform="translate(-487.078 -351.46)"/><path class="av" d="M547.973,354.287a1.618,1.618,0,1,1-1.982-1.143A1.618,1.618,0,0,1,547.973,354.287Z" transform="translate(-490.126 -350.641)"/><path class="av" d="M560.133,351.022a1.618,1.618,0,1,1-1.983-1.143A1.619,1.619,0,0,1,560.133,351.022Z" transform="translate(-493.175 -349.823)"/></g></g><g transform="translate(46.395 23.138)"><path class="av" d="M555.974,277.131a1.618,1.618,0,1,1-1.983-1.143A1.618,1.618,0,0,1,555.974,277.131Z" transform="translate(-552.792 -258.804)"/><path class="av" d="M568.133,273.866a1.618,1.618,0,1,1-1.982-1.143A1.618,1.618,0,0,1,568.133,273.866Z" transform="translate(-555.841 -257.986)"/><path class="av" d="M580.292,270.6a1.618,1.618,0,1,1-1.983-1.143A1.618,1.618,0,0,1,580.292,270.6Z" transform="translate(-558.889 -257.167)"/><path class="av" d="M592.452,267.335a1.618,1.618,0,1,1-1.983-1.143A1.619,1.619,0,0,1,592.452,267.335Z" transform="translate(-561.938 -256.348)"/><path class="av" d="M604.611,264.069a1.618,1.618,0,1,1-1.983-1.143A1.617,1.617,0,0,1,604.611,264.069Z" transform="translate(-564.986 -255.53)"/><path class="av" d="M616.771,260.8a1.618,1.618,0,1,1-1.983-1.143A1.619,1.619,0,0,1,616.771,260.8Z" transform="translate(-568.034 -254.711)"/><path class="av" d="M628.93,257.538a1.619,1.619,0,1,1-1.983-1.143A1.619,1.619,0,0,1,628.93,257.538Z" transform="translate(-571.083 -253.892)"/><path class="av" d="M641.089,254.273a1.618,1.618,0,1,1-1.983-1.143A1.618,1.618,0,0,1,641.089,254.273Z" transform="translate(-574.131 -253.074)"/><g transform="translate(2.182 8.125)"><path class="av" d="M558.886,287.975a1.618,1.618,0,1,1-1.983-1.143A1.618,1.618,0,0,1,558.886,287.975Z" transform="translate(-555.704 -269.648)"/><path class="av" d="M571.045,284.709a1.618,1.618,0,1,1-1.983-1.143A1.618,1.618,0,0,1,571.045,284.709Z" transform="translate(-558.753 -268.829)"/><path class="av" d="M583.2,281.444a1.618,1.618,0,1,1-1.983-1.143A1.619,1.619,0,0,1,583.2,281.444Z" transform="translate(-561.801 -268.011)"/><path class="av" d="M595.364,278.178a1.618,1.618,0,1,1-1.983-1.143A1.618,1.618,0,0,1,595.364,278.178Z" transform="translate(-564.85 -267.192)"/><path class="av" d="M607.523,274.913a1.618,1.618,0,1,1-1.982-1.143A1.618,1.618,0,0,1,607.523,274.913Z" transform="translate(-567.898 -266.373)"/><path class="av" d="M619.682,271.647A1.618,1.618,0,1,1,617.7,270.5,1.619,1.619,0,0,1,619.682,271.647Z" transform="translate(-570.946 -265.555)"/><path class="av" d="M631.842,268.382a1.618,1.618,0,1,1-1.983-1.143A1.619,1.619,0,0,1,631.842,268.382Z" transform="translate(-573.995 -264.736)"/><path class="av" d="M644,265.116a1.618,1.618,0,1,1-1.983-1.143A1.617,1.617,0,0,1,644,265.116Z" transform="translate(-577.043 -263.917)"/></g><g transform="translate(4.364 16.25)"><path class="av" d="M561.8,298.818a1.618,1.618,0,1,1-1.982-1.143A1.617,1.617,0,0,1,561.8,298.818Z" transform="translate(-558.617 -280.491)"/><path class="av" d="M573.957,295.553a1.618,1.618,0,1,1-1.983-1.143A1.619,1.619,0,0,1,573.957,295.553Z" transform="translate(-561.665 -279.673)"/><path class="av" d="M586.117,292.287a1.618,1.618,0,1,1-1.983-1.143A1.618,1.618,0,0,1,586.117,292.287Z" transform="translate(-564.714 -278.854)"/><path class="av" d="M598.276,289.022a1.618,1.618,0,1,1-1.983-1.143A1.618,1.618,0,0,1,598.276,289.022Z" transform="translate(-567.762 -278.035)"/><path class="av" d="M610.436,285.756a1.618,1.618,0,1,1-1.983-1.143A1.619,1.619,0,0,1,610.436,285.756Z" transform="translate(-570.81 -277.217)"/><path class="av" d="M622.595,282.491a1.618,1.618,0,1,1-1.983-1.143A1.619,1.619,0,0,1,622.595,282.491Z" transform="translate(-573.859 -276.398)"/><path class="av" d="M634.754,279.225a1.618,1.618,0,1,1-1.983-1.143A1.618,1.618,0,0,1,634.754,279.225Z" transform="translate(-576.907 -275.579)"/><path class="av" d="M646.913,275.96a1.618,1.618,0,1,1-1.982-1.143A1.618,1.618,0,0,1,646.913,275.96Z" transform="translate(-579.956 -274.761)"/></g><g transform="translate(6.546 24.375)"><path class="av" d="M564.711,309.662a1.618,1.618,0,1,1-1.983-1.143A1.619,1.619,0,0,1,564.711,309.662Z" transform="translate(-561.529 -291.335)"/><path class="av" d="M576.87,306.4a1.618,1.618,0,1,1-1.983-1.143A1.619,1.619,0,0,1,576.87,306.4Z" transform="translate(-564.577 -290.516)"/><path class="av" d="M589.029,303.131a1.618,1.618,0,1,1-1.983-1.143A1.619,1.619,0,0,1,589.029,303.131Z" transform="translate(-567.626 -289.698)"/><path class="av" d="M601.188,299.865a1.618,1.618,0,1,1-1.982-1.143A1.617,1.617,0,0,1,601.188,299.865Z" transform="translate(-570.674 -288.879)"/><path class="av" d="M613.347,296.6a1.618,1.618,0,1,1-1.983-1.143A1.619,1.619,0,0,1,613.347,296.6Z" transform="translate(-573.722 -288.06)"/><path class="av" d="M625.506,293.334a1.618,1.618,0,1,1-1.983-1.143A1.619,1.619,0,0,1,625.506,293.334Z" transform="translate(-576.771 -287.242)"/><path class="av" d="M637.666,290.069a1.618,1.618,0,1,1-1.983-1.143A1.618,1.618,0,0,1,637.666,290.069Z" transform="translate(-579.819 -286.423)"/><path class="av" d="M649.826,286.8a1.618,1.618,0,1,1-1.983-1.143A1.619,1.619,0,0,1,649.826,286.8Z" transform="translate(-582.868 -285.604)"/></g><g transform="translate(8.728 32.5)"><path class="av" d="M567.622,320.5a1.618,1.618,0,1,1-1.983-1.143A1.618,1.618,0,0,1,567.622,320.5Z" transform="translate(-564.441 -302.178)"/><path class="av" d="M579.781,317.24A1.618,1.618,0,1,1,577.8,316.1,1.619,1.619,0,0,1,579.781,317.24Z" transform="translate(-567.489 -301.36)"/><path class="av" d="M591.941,313.974a1.618,1.618,0,1,1-1.983-1.143A1.617,1.617,0,0,1,591.941,313.974Z" transform="translate(-570.538 -300.541)"/><path class="av" d="M604.1,310.709a1.618,1.618,0,1,1-1.983-1.143A1.619,1.619,0,0,1,604.1,310.709Z" transform="translate(-573.586 -299.722)"/><path class="av" d="M616.259,307.443a1.618,1.618,0,1,1-1.983-1.143A1.618,1.618,0,0,1,616.259,307.443Z" transform="translate(-576.634 -298.904)"/><path class="av" d="M628.419,304.178a1.618,1.618,0,1,1-1.983-1.143A1.619,1.619,0,0,1,628.419,304.178Z" transform="translate(-579.683 -298.085)"/><path class="av" d="M640.578,300.912a1.618,1.618,0,1,1-1.983-1.143A1.618,1.618,0,0,1,640.578,300.912Z" transform="translate(-582.731 -297.266)"/><path class="av" d="M652.738,297.647a1.618,1.618,0,1,1-1.983-1.143A1.619,1.619,0,0,1,652.738,297.647Z" transform="translate(-585.78 -296.448)"/></g></g><g transform="translate(-45.821 24.408)"><path class="av" d="M432.9,278.826a1.618,1.618,0,1,1-1.983-1.143A1.619,1.619,0,0,1,432.9,278.826Z" transform="translate(-429.721 -260.499)"/><path class="av" d="M445.062,275.56a1.618,1.618,0,1,1-1.983-1.143A1.617,1.617,0,0,1,445.062,275.56Z" transform="translate(-432.77 -259.68)"/><path class="av" d="M457.221,272.295a1.618,1.618,0,1,1-1.983-1.143A1.619,1.619,0,0,1,457.221,272.295Z" transform="translate(-435.818 -258.862)"/><path class="av" d="M469.381,269.029a1.618,1.618,0,1,1-1.983-1.143A1.619,1.619,0,0,1,469.381,269.029Z" transform="translate(-438.866 -258.043)"/><path class="av" d="M481.54,265.764a1.618,1.618,0,1,1-1.983-1.143A1.618,1.618,0,0,1,481.54,265.764Z" transform="translate(-441.915 -257.224)"/><path class="av" d="M493.7,262.5a1.618,1.618,0,1,1-1.983-1.143A1.618,1.618,0,0,1,493.7,262.5Z" transform="translate(-444.963 -256.406)"/><path class="av" d="M505.858,259.233a1.618,1.618,0,1,1-1.983-1.143A1.619,1.619,0,0,1,505.858,259.233Z" transform="translate(-448.012 -255.587)"/><path class="av" d="M518.018,255.967a1.618,1.618,0,1,1-1.983-1.143A1.618,1.618,0,0,1,518.018,255.967Z" transform="translate(-451.06 -254.768)"/><g transform="translate(2.182 8.125)"><path class="av" d="M435.815,289.669a1.618,1.618,0,1,1-1.983-1.143A1.617,1.617,0,0,1,435.815,289.669Z" transform="translate(-432.633 -271.343)"/><path class="av" d="M447.974,286.4a1.618,1.618,0,1,1-1.983-1.143A1.619,1.619,0,0,1,447.974,286.4Z" transform="translate(-435.682 -270.524)"/><path class="av" d="M460.133,283.138A1.618,1.618,0,1,1,458.151,282,1.619,1.619,0,0,1,460.133,283.138Z" transform="translate(-438.73 -269.705)"/><path class="av" d="M472.293,279.873a1.618,1.618,0,1,1-1.983-1.143A1.619,1.619,0,0,1,472.293,279.873Z" transform="translate(-441.779 -268.886)"/><path class="av" d="M484.452,276.607a1.618,1.618,0,1,1-1.983-1.143A1.618,1.618,0,0,1,484.452,276.607Z" transform="translate(-444.827 -268.068)"/><path class="av" d="M496.611,273.342a1.618,1.618,0,1,1-1.983-1.143A1.619,1.619,0,0,1,496.611,273.342Z" transform="translate(-447.875 -267.249)"/><path class="av" d="M508.771,270.076a1.618,1.618,0,1,1-1.983-1.143A1.619,1.619,0,0,1,508.771,270.076Z" transform="translate(-450.924 -266.43)"/><path class="av" d="M520.93,266.811a1.618,1.618,0,1,1-1.983-1.143A1.618,1.618,0,0,1,520.93,266.811Z" transform="translate(-453.972 -265.612)"/></g><g transform="translate(4.364 16.25)"><path class="av" d="M438.727,300.513a1.618,1.618,0,1,1-1.983-1.143A1.618,1.618,0,0,1,438.727,300.513Z" transform="translate(-435.545 -282.186)"/><path class="av" d="M450.886,297.247A1.618,1.618,0,1,1,448.9,296.1,1.618,1.618,0,0,1,450.886,297.247Z" transform="translate(-438.594 -281.367)"/><path class="av" d="M463.045,293.982a1.618,1.618,0,1,1-1.983-1.143A1.619,1.619,0,0,1,463.045,293.982Z" transform="translate(-441.642 -280.549)"/><path class="av" d="M475.2,290.716a1.618,1.618,0,1,1-1.983-1.143A1.617,1.617,0,0,1,475.2,290.716Z" transform="translate(-444.691 -279.73)"/><path class="av" d="M487.365,287.451a1.618,1.618,0,1,1-1.983-1.143A1.619,1.619,0,0,1,487.365,287.451Z" transform="translate(-447.739 -278.911)"/><path class="av" d="M499.524,284.185a1.619,1.619,0,1,1-1.983-1.143A1.619,1.619,0,0,1,499.524,284.185Z" transform="translate(-450.787 -278.093)"/><path class="av" d="M511.683,280.92a1.618,1.618,0,1,1-1.983-1.143A1.619,1.619,0,0,1,511.683,280.92Z" transform="translate(-453.836 -277.274)"/><path class="av" d="M523.842,277.654a1.618,1.618,0,1,1-1.983-1.143A1.617,1.617,0,0,1,523.842,277.654Z" transform="translate(-456.884 -276.455)"/></g><g transform="translate(6.546 24.375)"><path class="av" d="M441.639,311.356a1.618,1.618,0,1,1-1.982-1.143A1.617,1.617,0,0,1,441.639,311.356Z" transform="translate(-438.458 -293.03)"/><path class="av" d="M453.8,308.091a1.618,1.618,0,1,1-1.983-1.143A1.619,1.619,0,0,1,453.8,308.091Z" transform="translate(-441.506 -292.211)"/><path class="av" d="M465.958,304.825a1.618,1.618,0,1,1-1.983-1.143A1.618,1.618,0,0,1,465.958,304.825Z" transform="translate(-444.555 -291.392)"/><path class="av" d="M478.117,301.56a1.618,1.618,0,1,1-1.983-1.143A1.618,1.618,0,0,1,478.117,301.56Z" transform="translate(-447.603 -290.573)"/><path class="av" d="M490.276,298.294a1.619,1.619,0,1,1-1.983-1.143A1.618,1.618,0,0,1,490.276,298.294Z" transform="translate(-450.651 -289.755)"/><path class="av" d="M502.436,295.029a1.618,1.618,0,1,1-1.983-1.143A1.619,1.619,0,0,1,502.436,295.029Z" transform="translate(-453.7 -288.936)"/><path class="av" d="M514.595,291.763a1.618,1.618,0,1,1-1.983-1.143A1.617,1.617,0,0,1,514.595,291.763Z" transform="translate(-456.748 -288.117)"/><path class="av" d="M526.754,288.5a1.618,1.618,0,1,1-1.983-1.143A1.619,1.619,0,0,1,526.754,288.5Z" transform="translate(-459.797 -287.299)"/></g><g transform="translate(8.728 32.5)"><path class="av" d="M444.551,322.2a1.618,1.618,0,1,1-1.983-1.143A1.619,1.619,0,0,1,444.551,322.2Z" transform="translate(-441.37 -303.873)"/><path class="av" d="M456.711,318.934a1.618,1.618,0,1,1-1.983-1.143A1.619,1.619,0,0,1,456.711,318.934Z" transform="translate(-444.418 -303.054)"/><path class="av" d="M468.87,315.669a1.618,1.618,0,1,1-1.983-1.143A1.618,1.618,0,0,1,468.87,315.669Z" transform="translate(-447.467 -302.236)"/><path class="av" d="M481.029,312.4a1.618,1.618,0,1,1-1.982-1.143A1.617,1.617,0,0,1,481.029,312.4Z" transform="translate(-450.515 -301.417)"/><path class="av" d="M493.188,309.138a1.618,1.618,0,1,1-1.983-1.143A1.619,1.619,0,0,1,493.188,309.138Z" transform="translate(-453.563 -300.598)"/><path class="av" d="M505.348,305.872a1.618,1.618,0,1,1-1.983-1.143A1.618,1.618,0,0,1,505.348,305.872Z" transform="translate(-456.612 -299.78)"/><path class="av" d="M517.507,302.607a1.618,1.618,0,1,1-1.983-1.143A1.618,1.618,0,0,1,517.507,302.607Z" transform="translate(-459.66 -298.961)"/><path class="av" d="M529.667,299.341a1.618,1.618,0,1,1-1.983-1.143A1.619,1.619,0,0,1,529.667,299.341Z" transform="translate(-462.709 -298.142)"/></g></g></g></g><path class="aw" d="M513.973,257.124l-.632,7.685s-2.72,5.949-6.444,12.348c-.884-.824-1.971-1.843-3.192-3.027,4.3-4.663,7.787-12.826,9.458-17.2A.42.42,0,0,1,513.973,257.124Z" transform="translate(-448.269 -230.836)"/><path class="ax" d="M555.843,223.79c-2.121,5.1-5.912,10.655-12.3,9.763-7.178-1-7.545-5.867-6.811-9.374,3.072-.757,5.2-1.221,5.2-1.221l8.647-.764S552.726,222.786,555.843,223.79Z" transform="translate(-456.484 -222.194)"/><path class="ay" d="M492.06,282.656l-6.676-4.541s1.1-2.832,2.81-6.9Z" transform="translate(-443.676 -234.484)"/></g><g transform="translate(73.213)"><path class="az" d="M529.619,184.794c-4.763-8.15-.267-16.563-.267-16.563s-2.849-4.006.8-7.033,7.345.312,7.345.312-1.647-4.184,2.359-5.163,6.944,4.807,12.241,7.122,10.148,6.9,10.238,10.193-.713,4.006-.713,4.006,3.294,1.38,1.158,5.743-3.828,6.232-8.324,9.882-9.837-.089-9.882-.534Z" transform="translate(-527.43 -156.235)"/><path class="at" d="M552.577,210.122c-.008,4.121.27,9.029.27,9.029s-2.87,7.943-8.28,7.943-4.076-7.545-4.076-7.545,0-.577-.052-1.574a58.078,58.078,0,0,0-.614-5.9l13.023-6.676A30.169,30.169,0,0,0,552.577,210.122Z" transform="translate(-530.537 -168.56)"/><path class="ba" d="M552.847,205.394a30.169,30.169,0,0,0-.27,4.728c-2.345,4.189-7.148,8.092-12.138,7.853a58.078,58.078,0,0,0-.614-5.9Z" transform="translate(-530.537 -168.56)"/><path class="at" d="M531.432,175.185a30.136,30.136,0,0,0-1.9,10.916c-.133,3.773-2.259,18.083,7.667,19.464s16.069-9.66,16.069-9.66,2.271,2.671,5.208,0,.534-6.765-1.959-6.676-3.383,3.249-3.383,3.249l-.312-6.721s-3.427-3.2-7.3-3.561S534.615,181.484,531.432,175.185Z" transform="translate(-527.886 -160.986)"/><path class="bb" d="M566.122,197.562c-1.624-1.024-2.893,1.558-1.758,2.826" transform="translate(-536.581 -166.538)"/><path class="bb" d="M540.771,191.967l-2.172,6.368a1.156,1.156,0,0,0,.823,1.5l1.349.326" transform="translate(-530.214 -165.194)"/><path class="bc" d="M548.705,194.58a.89.89,0,1,1-.89-.89A.89.89,0,0,1,548.705,194.58Z" transform="translate(-532.318 -165.626)"/><path class="bc" d="M535.4,194.051a.89.89,0,1,1-.89-.89A.89.89,0,0,1,535.4,194.051Z" transform="translate(-528.981 -165.493)"/><path class="bd" d="M545.915,190.269a2.92,2.92,0,0,1,4.273.712" transform="translate(-532.065 -164.609)"/><path class="bd" d="M532.3,189.519s2-2.35,4.14-.19" transform="translate(-528.65 -164.303)"/><path class="ax" d="M545.578,205.423a2.756,2.756,0,1,1-5.483.57Z" transform="translate(-530.605 -168.567)"/></g></g><g transform="translate(360.64 201.844)"><circle class="be" cx="10.81" cy="10.81" r="10.81" transform="translate(0 8.347) rotate(-22.71)"/><path class="bf" d="M373.6,235.491l3.706,3.706,5.159-5.159" transform="translate(-363.89 -222.472)"/></g><g transform="translate(412.402 248.017)"><g transform="translate(2.34 6.88)"><path class="bg" d="M446.591,330.377c-16.4-16.132-13.558-40.971-13.558-40.971S453.647,307.721,446.591,330.377Z" transform="translate(-432.844 -289.406)"/><path class="bh" d="M436.478,296.832A229.913,229.913,0,0,1,447.5,332.239" transform="translate(-433.755 -291.268)"/></g><g transform="translate(17.559 16.041)"><path class="bi" d="M453.293,338.866c19.413-12.348,21.822-37.234,21.822-37.234S451.128,315.235,453.293,338.866Z" transform="translate(-453.155 -301.632)"/><path class="bh" d="M471.52,308.188a229.982,229.982,0,0,0-18.181,32.322" transform="translate(-453.201 -303.276)"/></g><g transform="translate(15.024)"><path class="be" d="M453.959,323.126c12.664-19.207,4.684-42.9,4.684-42.9S442.318,302.448,453.959,323.126Z" transform="translate(-449.772 -280.224)"/><path class="bh" d="M458.73,288.194a229.938,229.938,0,0,0-3.37,36.93" transform="translate(-451.172 -282.222)"/></g><g transform="translate(0 36.783)"><path class="bj" d="M465.96,336.614H433.371a3.65,3.65,0,0,1-3.65-3.65h0a3.65,3.65,0,0,1,3.65-3.65H465.96a3.65,3.65,0,0,1,3.65,3.65h0A3.65,3.65,0,0,1,465.96,336.614Z" transform="translate(-429.721 -329.314)"/><path class="bk" d="M466.348,339.054l-1.176,9.194-1.221,9.591c-2.892-.4-5.845-.884-8.849-1.461a108.037,108.037,0,0,1-17.234-4.743l-1.3-10.258-.3-2.323Z" transform="translate(-431.361 -331.756)"/><path class="bl" d="M466.348,339.054l-1.176,9.194-28.608-6.871-.3-2.323Z" transform="translate(-431.362 -331.756)"/></g></g><g transform="translate(386.421 235.676)"><rect class="bm" width="24.865" height="28.598"/><g transform="translate(3.739 10.084)"><path class="ax" d="M416.907,278.247H400.555a.518.518,0,0,1-.518-.518h0a.518.518,0,0,1,.518-.518h16.352a.519.519,0,0,1,.518.518h0A.518.518,0,0,1,416.907,278.247Z" transform="translate(-400.037 -277.211)"/><path class="ax" d="M416.907,283.277H400.555a.517.517,0,0,1-.518-.518h0a.517.517,0,0,1,.518-.518h16.352a.518.518,0,0,1,.518.518h0A.518.518,0,0,1,416.907,283.277Z" transform="translate(-400.037 -278.472)"/><path class="ax" d="M416.907,288.306H400.555a.517.517,0,0,1-.518-.518h0a.518.518,0,0,1,.518-.518h16.352a.518.518,0,0,1,.518.518h0A.518.518,0,0,1,416.907,288.306Z" transform="translate(-400.037 -279.733)"/><rect class="ax" width="10.132" height="1.036" rx="0.518" transform="translate(0 11.306)"/></g></g><g transform="translate(440.931 287.666)"><g class="bq" transform="matrix(1, 0, 0, 1, -80.29, -135.91)"><circle class="ax" cx="25.199" cy="25.199" r="25.199" transform="translate(81.08 136.69)"/></g><circle class="bn" cx="21.549" cy="21.549" r="21.549" transform="translate(0 41.909) rotate(-76.503)"/><g transform="translate(11.54 13.056)"><path class="bo" d="M500.344,364.809a2.518,2.518,0,1,1-.877,3.452A2.519,2.519,0,0,1,500.344,364.809Z" transform="translate(-484.585 -353.178)"/><rect class="bo" width="1.904" height="14.632" rx="0.813" transform="translate(0.973 24.462) rotate(-120.741)"/><rect class="bo" width="1.904" height="9.338" rx="0.682" transform="translate(19.462 0) rotate(13.826)"/></g></g><g transform="translate(528.203 178.831)"><circle class="bp" cx="17.449" cy="17.449" r="17.449" transform="translate(0 24.677) rotate(-45)"/><path class="ax" d="M619.854,211.439a7.122,7.122,0,0,0-10.071,10.072l5.033,5.032,5.038-5.032a7.122,7.122,0,0,0,0-10.072Zm-5.038,7.173a2.14,2.14,0,1,1,2.139-2.14A2.138,2.138,0,0,1,614.816,218.612Z" transform="translate(-590.141 -193.269)"/></g></g></svg>