<svg xmlns="http://www.w3.org/2000/svg" width="120" height="72.298" viewBox="0 0 120 72.298">
  <g id="Group_43003" data-name="Group 43003" transform="translate(-1296 -193.702)">
    <path id="Path_72023" data-name="Path 72023" d="M221.909,163.487H131.094a4.582,4.582,0,0,0-4.565,4.6v55.049h99.945V168.085A4.582,4.582,0,0,0,221.909,163.487Z" transform="translate(1179.471 30.215)" fill="#0b3454" opacity="0.2"/>
    <g id="Group_42995" data-name="Group 42995" transform="translate(1296 253.715)" opacity="0.5">
      <path id="Path_72025" data-name="Path 72025" d="M106.218,329.2H215.254c3.027,0,5.482-2.9,5.482-6.479v-5.806h-120v5.806c0,3.578,2.454,6.479,5.482,6.479Z" transform="translate(-100.736 -316.914)" fill="#0b3454"/>
    </g>
    <g id="Group_43000" data-name="Group 43000" transform="translate(-7 -74.285)" opacity="0.7">
      <g id="Group_42998" data-name="Group 42998" transform="translate(1354 279.846)">
        <g id="Group_42997" data-name="Group 42997" transform="translate(0 0)">
          <path id="Path_72027" data-name="Path 72027" d="M232.593,196.846l18.2,10.508-18.2,10.508Z" transform="translate(-232.593 -196.846)" fill="#fff"/>
        </g>
      </g>
      <path id="Union_31" data-name="Union 31" d="M734.063-14040.388H721.311c-1.276,0-1.311-.511-1.311-1.142s.035-1.146,1.311-1.146h12.724a3.508,3.508,0,0,1,3.325-2.327,3.508,3.508,0,0,1,3.325,2.327h52.727c1.276,0,1.311.511,1.311,1.146s-.035,1.142-1.311,1.142H740.655a3.508,3.508,0,0,1-3.3,2.245A3.508,3.508,0,0,1,734.063-14040.388Z" transform="translate(606 14353.004)" fill="#fff"/>
    </g>
  </g>
</svg>
