<svg xmlns="http://www.w3.org/2000/svg" xmlns:xlink="http://www.w3.org/1999/xlink" width="48" height="48" viewBox="0 0 48 48"><defs><style>.a{fill:#fff;}.b{clip-path:url(#a);}.c{fill:#848484;}</style><clipPath id="a"><rect class="a" width="48" height="48" transform="translate(30 30)"/></clipPath></defs><g class="b" transform="translate(-30 -30)"><g transform="translate(30 30)"><path class="c" d="M19.658,39.4a19.574,19.574,0,0,0,10.909-3.318l11.294,11.3a2.349,2.349,0,0,0,3.276,0l2.2-2.2a2.354,2.354,0,0,0,0-3.279L36,30.642A19.648,19.648,0,1,0,19.658,39.4Zm0-31.633A11.959,11.959,0,1,1,7.709,19.724,11.964,11.964,0,0,1,19.658,7.765Z" transform="translate(0 -0.05)"/></g></g></svg>