<svg xmlns="http://www.w3.org/2000/svg" width="16.438" height="24.859" viewBox="0 0 16.438 24.859">
  <path id="Subtraction_27" data-name="Subtraction 27" d="M10672.033-14020.141a.374.374,0,0,1-.232-.081l-2.573-2.03-2.595,2.03a.365.365,0,0,1-.226.081.381.381,0,0,1-.165-.038.367.367,0,0,1-.208-.332v-7.265h6.369v7.265a.367.367,0,0,1-.212.332A.309.309,0,0,1,10672.033-14020.141Zm.79-9h-7.205a2.384,2.384,0,0,1-2.273-1.649l-2.228-6.846a2.391,2.391,0,0,1,.87-2.676l5.827-4.229a2.378,2.378,0,0,1,1.4-.457,2.378,2.378,0,0,1,1.4.457l5.827,4.229a2.392,2.392,0,0,1,.87,2.676l-2.224,6.846A2.391,2.391,0,0,1,10672.823-14029.143Zm-3.571-5.3h0l2.614,1.967a.179.179,0,0,0,.1.032.14.14,0,0,0,.1-.032.165.165,0,0,0,.063-.19l-.983-3.119,2.288-1.8a.18.18,0,0,0,.056-.19.17.17,0,0,0-.162-.116h-2.773l-1.146-2.954a.168.168,0,0,0-.16-.1.162.162,0,0,0-.157.1l-1.149,2.954h-2.774a.174.174,0,0,0-.162.116.171.171,0,0,0,.057.188l2.288,1.8-.983,3.119a.171.171,0,0,0,.063.19.159.159,0,0,0,.1.032.174.174,0,0,0,.1-.032l2.618-1.967Z" transform="translate(-10661 14045)" fill="#f05a2a"/>
</svg>
