<svg id="Group_26923" data-name="Group 26923" xmlns="http://www.w3.org/2000/svg" xmlns:xlink="http://www.w3.org/1999/xlink" width="126.5" height="26.123" viewBox="0 0 126.5 26.123">
  <defs>
    <linearGradient id="linear-gradient" x1="-0.187" y1="0.533" x2="0.691" y2="0.465" gradientUnits="objectBoundingBox">
      <stop offset="0" stop-color="#231f20"/>
      <stop offset="0.014" stop-color="#231f20" stop-opacity="0.969"/>
      <stop offset="0.426" stop-color="#231f20" stop-opacity="0.063"/>
      <stop offset="0.507" stop-color="#231f20" stop-opacity="0.055"/>
      <stop offset="1" stop-color="#231f20" stop-opacity="0"/>
    </linearGradient>
    <linearGradient id="linear-gradient-2" x1="-0.053" y1="0.5" x2="0.427" y2="0.5" xlink:href="#linear-gradient"/>
    <linearGradient id="linear-gradient-3" x1="-0.096" y1="0.647" x2="0.436" y2="0.503" xlink:href="#linear-gradient"/>
    <linearGradient id="linear-gradient-4" x1="0.017" y1="0.956" x2="0.504" y2="0.494" xlink:href="#linear-gradient"/>
    <linearGradient id="linear-gradient-5" x1="0.368" y1="1.302" x2="0.61" y2="0.048" xlink:href="#linear-gradient"/>
  </defs>
  <g id="Group_3" data-name="Group 3" transform="translate(0 0)">
    <g id="Group_1" data-name="Group 1">
      <path id="Path_1" data-name="Path 1" d="M0,2.168H0V2.094A1.991,1.991,0,0,1,.294.992,1.9,1.9,0,0,1,1.984,0a2.339,2.339,0,0,1,.992.257,1.9,1.9,0,0,1,.955,1.4V3.821L0,6.136Z" transform="translate(0 0)" fill="#51499c"/>
      <path id="Path_2" data-name="Path 2" d="M.037,15.422C.037,14.834,0,14.21,0,13.585V10.866L7.532,6.531a1.909,1.909,0,0,0,.184-.11h.037a2.332,2.332,0,0,1,.992-.22,1.25,1.25,0,0,1,.367.037h.073a1.973,1.973,0,0,1,.551,3.637l-.073.037-1.176.625Z" transform="translate(0 -3.922)" fill="#26a7df"/>
      <path id="Path_3" data-name="Path 3" d="M38.9,23.9Z" transform="translate(-24.608 -15.119)" fill="#d42941"/>
      <path id="Path_4" data-name="Path 4" d="M.825,25.327.714,25A16.286,16.286,0,0,1,.2,21.1l12.051-6.944h.037a.566.566,0,0,1,.257-.11,2.268,2.268,0,0,1,.808-.147h.22a.331.331,0,0,1,.184.037c.073,0,.11.037.184.037h0c.037,0,.11.037.147.037s.037.037.073.037l.037.037a1.987,1.987,0,0,1,1.139,1.8,2.037,2.037,0,0,1-.845,1.617L12.1,18.86Z" transform="translate(-0.127 -8.793)" fill="#d42941"/>
      <path id="Path_5" data-name="Path 5" d="M5.135,37.235c-.037-.037-.073-.037-.11-.073A7.36,7.36,0,0,1,2.6,34.111l12.235-7.054a.128.128,0,0,1,.073-.037h.037a1.867,1.867,0,0,1,.882-.22h.11a2.148,2.148,0,0,1,.7.147,1.96,1.96,0,0,1,1.176,1.8,2.013,2.013,0,0,1-1.065,1.764L5.135,37.235Z" transform="translate(-1.645 -16.953)" fill="#f05a2a"/>
      <path id="Path_6" data-name="Path 6" d="M15.635,47.613a9.217,9.217,0,0,1-4.335-.955l9.259-5.364a4.045,4.045,0,0,1,.441-.22A1.563,1.563,0,0,1,21.4,41h.22a2.481,2.481,0,0,1,.514.073,1.964,1.964,0,0,1,1.433,1.69v.22a1.994,1.994,0,0,1-.514,1.323,5.485,5.485,0,0,1-.514.441h-.037c-.037.037-.037.037-.073.037l-2.976,1.69a2.579,2.579,0,0,0-.4.257h0A7.483,7.483,0,0,1,15.635,47.613Z" transform="translate(-7.148 -25.936)" fill="#f8b018"/>
    </g>
    <path id="Path_7" data-name="Path 7" d="M0,2.168H0V2.094A1.991,1.991,0,0,1,.294.992,1.9,1.9,0,0,1,1.984,0a2.339,2.339,0,0,1,.992.257,1.9,1.9,0,0,1,.955,1.4V3.821L0,6.136Z" transform="translate(0 0)" fill="#51499c"/>
    <path id="Path_8" data-name="Path 8" d="M.037,15.422C.037,14.834,0,14.21,0,13.585V10.866L7.532,6.531a1.909,1.909,0,0,0,.184-.11h.037a2.332,2.332,0,0,1,.992-.22,1.25,1.25,0,0,1,.367.037h.073a1.973,1.973,0,0,1,.551,3.637l-.073.037-1.176.625Z" transform="translate(0 -3.922)" fill="#26a7df"/>
    <path id="Path_9" data-name="Path 9" d="M38.9,23.9Z" transform="translate(-24.608 -15.119)" fill="#d42941"/>
    <path id="Path_10" data-name="Path 10" d="M.825,25.327.714,25A16.286,16.286,0,0,1,.2,21.1l12.051-6.944h.037a.566.566,0,0,1,.257-.11,2.268,2.268,0,0,1,.808-.147h.22a.331.331,0,0,1,.184.037c.073,0,.11.037.184.037h0c.037,0,.11.037.147.037s.037.037.073.037l.037.037a1.987,1.987,0,0,1,1.139,1.8,2.037,2.037,0,0,1-.845,1.617L12.1,18.86Z" transform="translate(-0.127 -8.793)" fill="#d42941"/>
    <path id="Path_11" data-name="Path 11" d="M5.135,37.235c-.037-.037-.073-.037-.11-.073A7.36,7.36,0,0,1,2.6,34.111l12.235-7.054a.128.128,0,0,1,.073-.037h.037a1.867,1.867,0,0,1,.882-.22h.11a2.148,2.148,0,0,1,.7.147,1.96,1.96,0,0,1,1.176,1.8,2.013,2.013,0,0,1-1.065,1.764L5.135,37.235Z" transform="translate(-1.645 -16.953)" fill="#f05a2a"/>
    <path id="Path_12" data-name="Path 12" d="M15.635,47.613a9.217,9.217,0,0,1-4.335-.955l9.259-5.364a4.045,4.045,0,0,1,.441-.22A1.563,1.563,0,0,1,21.4,41h.22a2.481,2.481,0,0,1,.514.073,1.964,1.964,0,0,1,1.433,1.69v.22a1.994,1.994,0,0,1-.514,1.323,5.485,5.485,0,0,1-.514.441h-.037c-.037.037-.037.037-.073.037l-2.976,1.69a2.579,2.579,0,0,0-.4.257h0A7.483,7.483,0,0,1,15.635,47.613Z" transform="translate(-7.148 -25.936)" fill="#f8b018"/>
    <g id="Group_2" data-name="Group 2">
      <path id="Path_13" data-name="Path 13" d="M0,2.168H0V2.094A1.991,1.991,0,0,1,.294.992,1.9,1.9,0,0,1,1.984,0a2.339,2.339,0,0,1,.992.257,1.9,1.9,0,0,1,.955,1.4v.588L3.895,3.858,0,6.136Z" transform="translate(0 0)" opacity="0.7" fill="url(#linear-gradient)"/>
      <path id="Path_14" data-name="Path 14" d="M.037,15.422C.037,14.834,0,14.21,0,13.585V10.866L7.5,6.531a1.909,1.909,0,0,0,.184-.11h.037a2.332,2.332,0,0,1,.992-.22,1.25,1.25,0,0,1,.367.037h.073A1.973,1.973,0,0,1,9.7,9.874l-.073.037-1.139.625Z" transform="translate(0 -3.922)" opacity="0.7" fill="url(#linear-gradient-2)"/>
      <path id="Path_15" data-name="Path 15" d="M.825,25.263l-.11-.331A16.286,16.286,0,0,1,.2,21.038l12.014-6.944h0l.073-.037a.566.566,0,0,1,.257-.11,2.268,2.268,0,0,1,.808-.147h.22a.331.331,0,0,1,.184.037c.073,0,.11.037.184.037h0c.037,0,.11.037.147.037s.037.037.073.037l.037.037a1.987,1.987,0,0,1,1.139,1.8,2.037,2.037,0,0,1-.845,1.617L12.1,18.76Z" transform="translate(-0.127 -8.73)" opacity="0.7" fill="url(#linear-gradient-3)"/>
      <path id="Path_16" data-name="Path 16" d="M5.135,37.171c-.037-.037-.073-.037-.11-.073A7.36,7.36,0,0,1,2.6,34.048l12.235-7.054a.114.114,0,0,0,.073-.037h0l.037-.037a1.867,1.867,0,0,1,.882-.22h.147a2.148,2.148,0,0,1,.7.147h.037a1.96,1.96,0,0,1,1.176,1.8,2.013,2.013,0,0,1-1.065,1.764L5.135,37.171Z" transform="translate(-1.645 -16.89)" opacity="0.7" fill="url(#linear-gradient-4)"/>
      <path id="Path_17" data-name="Path 17" d="M15.635,47.613a9.217,9.217,0,0,1-4.335-.955l9.259-5.364a4.045,4.045,0,0,1,.441-.22A1.563,1.563,0,0,1,21.4,41h.22a1.378,1.378,0,0,1,.4.037l.11.037a1.964,1.964,0,0,1,1.433,1.69v.22a1.994,1.994,0,0,1-.514,1.323h0a4.771,4.771,0,0,1-.514.441h-.037a.114.114,0,0,1-.073.037l-2.976,1.69a2.578,2.578,0,0,0-.4.257h0A7.483,7.483,0,0,1,15.635,47.613Z" transform="translate(-7.148 -25.936)" opacity="0.7" fill="url(#linear-gradient-5)"/>
    </g>
  </g>
  <g id="Group_5" data-name="Group 5" transform="translate(22.89 5.07)">
    <path id="Path_18" data-name="Path 18" d="M108.308,37.772h-3.05V32.04a8.6,8.6,0,0,0-.22-2.351,2.126,2.126,0,0,0-.735-1.029,2.012,2.012,0,0,0-1.249-.367,2.123,2.123,0,0,0-1.286.367A1.975,1.975,0,0,0,101,29.725a8.583,8.583,0,0,0-.184,2.2v5.842H97.8V32.7a12.589,12.589,0,0,1,.478-4.3,4.723,4.723,0,0,1,1.764-2.168,6.31,6.31,0,0,1,6.173.147,4.408,4.408,0,0,1,1.69,2.462,15.454,15.454,0,0,1,.367,3.968Z" transform="translate(-84.757 -21.201)" fill="#fff"/>
    <path id="Path_19" data-name="Path 19" d="M132.747,13.9a1.861,1.861,0,0,1,1.4.588,2.028,2.028,0,0,1,.588,1.433,1.807,1.807,0,0,1-.588,1.4,1.783,1.783,0,0,1-1.359.588,1.807,1.807,0,0,1-1.4-.588,2.1,2.1,0,0,1-.588-1.433,1.861,1.861,0,0,1,.588-1.4A1.731,1.731,0,0,1,132.747,13.9Z" transform="translate(-105.632 -13.863)" fill="#fff"/>
    <rect id="Rectangle_1" data-name="Rectangle 1" width="3.086" height="12.235" transform="translate(25.572 4.335)" fill="#fff"/>
    <path id="Path_20" data-name="Path 20" d="M144.2,25.6h3.123l3.086,7.238L153.5,25.6h3.123l-5.18,12.272h-1.984Z" transform="translate(-114.109 -21.265)" fill="#fff"/>
    <path id="Path_21" data-name="Path 21" d="M188.049,25.6h2.939V37.835h-2.939V36.292a6.013,6.013,0,0,1-1.727,1.176,4.61,4.61,0,0,1-1.874.367,5.152,5.152,0,0,1-3.895-1.764,6.08,6.08,0,0,1-1.653-4.335,6.183,6.183,0,0,1,1.58-4.409,5.11,5.11,0,0,1,3.858-1.727,5.053,5.053,0,0,1,3.674,1.58Zm-3.086,2.682a2.941,2.941,0,0,0-2.241.955,3.867,3.867,0,0,0,.037,4.96,2.958,2.958,0,0,0,2.241.992,3.021,3.021,0,0,0,2.278-.955,3.539,3.539,0,0,0,.919-2.5,3.3,3.3,0,0,0-.919-2.462A3.057,3.057,0,0,0,184.962,28.282Z" transform="translate(-136.06 -21.265)" fill="#fff"/>
    <path id="Path_22" data-name="Path 22" d="M217.3,25.094h2.645v1.58a3.352,3.352,0,0,1,1.139-1.4,2.639,2.639,0,0,1,1.543-.478,2.763,2.763,0,0,1,1.249.331l-.955,2.645a2.055,2.055,0,0,0-.882-.257,1.424,1.424,0,0,0-1.212.882,8.025,8.025,0,0,0-.478,3.454v5.511H217.3Z" transform="translate(-160.351 -20.758)" fill="#fff"/>
    <path id="Path_23" data-name="Path 23" d="M239.147,13.9a1.861,1.861,0,0,1,1.4.588,2.028,2.028,0,0,1,.588,1.433,1.807,1.807,0,0,1-.588,1.4,1.784,1.784,0,0,1-1.359.588,1.807,1.807,0,0,1-1.4-.588,2.1,2.1,0,0,1-.588-1.433,1.861,1.861,0,0,1,.588-1.4A1.784,1.784,0,0,1,239.147,13.9Z" transform="translate(-172.94 -13.863)" fill="#fff"/>
    <rect id="Rectangle_2" data-name="Rectangle 2" width="3.086" height="12.235" transform="translate(64.701 4.335)" fill="#fff"/>
    <path id="Path_24" data-name="Path 24" d="M264.435,32.644h-9.406a3.147,3.147,0,0,0,1.1,1.984,3.5,3.5,0,0,0,2.241.735,3.91,3.91,0,0,0,2.829-1.139l2.462,1.176a6.137,6.137,0,0,1-2.2,1.947,7.05,7.05,0,0,1-3.05.625,6.152,6.152,0,0,1-4.482-1.727,5.928,5.928,0,0,1-1.727-4.335,6.185,6.185,0,0,1,1.727-4.446,5.734,5.734,0,0,1,4.3-1.764,5.977,5.977,0,0,1,4.482,1.764,6.413,6.413,0,0,1,1.727,4.666Zm-2.9-2.315a2.9,2.9,0,0,0-1.139-1.58,3.534,3.534,0,0,0-4.115.073,3.609,3.609,0,0,0-1.065,1.506Z" transform="translate(-182.428 -21.328)" fill="#fff"/>
    <path id="Path_25" data-name="Path 25" d="M290.58,13.8h3.086v4.335H295.5v2.645h-1.837V30.37H290.58V20.781H289V18.135h1.58Z" transform="translate(-205.708 -13.8)" fill="#fff"/>
    <path id="Path_26" data-name="Path 26" d="M309,25.6h3.123l3.2,7.679,3.49-7.679h3.16l-7.679,16.717h-3.16l2.5-5.4Z" transform="translate(-218.36 -21.265)" fill="#fff"/>
    <g id="Group_4" data-name="Group 4" transform="translate(0 1.249)">
      <path id="Path_27" data-name="Path 27" d="M62.373,17.237H65.46v9.149a5.685,5.685,0,0,0,.22,1.911,1.791,1.791,0,0,0,.772.882,2.524,2.524,0,0,0,1.323.331,2.4,2.4,0,0,0,1.4-.367,1.845,1.845,0,0,0,.808-.955,7.228,7.228,0,0,0,.22-2.2V17.2h3.086v8.34a14.185,14.185,0,0,1-.257,3.38,4.984,4.984,0,0,1-1.065,1.837,4.878,4.878,0,0,1-1.8,1.323,5.837,5.837,0,0,1-2.351.441,5.692,5.692,0,0,1-3.086-.808,4.681,4.681,0,0,1-1.874-2.021,10.829,10.829,0,0,1-.551-4.115Z" transform="translate(-62.3 -17.2)" fill="#fff"/>
    </g>
  </g>
</svg>
