<svg xmlns="http://www.w3.org/2000/svg" width="20" height="17.938" viewBox="0 0 20 17.938"><defs><style>.a{fill:#414141;}</style></defs><g transform="translate(4.5)"><path class="a" d="M105.265,30.049h2.04V36.1a1.111,1.111,0,0,0,1.111,1.111h3.032a1.111,1.111,0,0,0,1.111-1.111v-6.05H114.6a.834.834,0,0,0,.59-1.424l-4.666-4.667a.836.836,0,0,0-1.18,0l-4.665,4.667a.834.834,0,0,0,.59,1.424Z" transform="translate(-104.431 -23.714)"/></g><g transform="translate(0 8.465)"><path class="a" d="M19.006,220.029a1,1,0,0,0-.994,1v4.19a2.271,2.271,0,0,1-2.26,2.276H4.248a2.27,2.27,0,0,1-2.259-2.276v-4.19a.994.994,0,1,0-1.989,0v4.19a4.269,4.269,0,0,0,4.248,4.28h11.5A4.269,4.269,0,0,0,20,225.221v-4.19A1,1,0,0,0,19.006,220.029Z" transform="translate(0 -220.029)"/></g></svg>